<?xml version="1.0" encoding="UTF-8" standalone="no"?>
<!-- Created with Inkscape (http://www.inkscape.org/) -->

<svg
   xmlns:dc="http://purl.org/dc/elements/1.1/"
   xmlns:cc="http://creativecommons.org/ns#"
   xmlns:rdf="http://www.w3.org/1999/02/22-rdf-syntax-ns#"
   xmlns:svg="http://www.w3.org/2000/svg"
   xmlns="http://www.w3.org/2000/svg"
   xmlns:sodipodi="http://sodipodi.sourceforge.net/DTD/sodipodi-0.dtd"
   xmlns:inkscape="http://www.inkscape.org/namespaces/inkscape"
   width="64mm"
   height="64mm"
   viewBox="0 0 64 64"
   version="1.1"
   id="svg8"
   sodipodi:docname="aftereffects.svg"
   inkscape:version="0.92.5 (2060ec1f9f, 2020-04-08)">
  <defs
     id="defs2" />
  <sodipodi:namedview
     id="base"
     pagecolor="#ffffff"
     bordercolor="#666666"
     borderopacity="1.0"
     inkscape:pageopacity="0.0"
     inkscape:pageshadow="2"
     inkscape:zoom="1.0606602"
     inkscape:cx="-205.19691"
     inkscape:cy="106.33722"
     inkscape:document-units="mm"
     inkscape:current-layer="layer1"
     showgrid="false"
     inkscape:snap-page="true"
     inkscape:window-width="1920"
     inkscape:window-height="1016"
     inkscape:window-x="0"
     inkscape:window-y="27"
     inkscape:window-maximized="1" />
  <metadata
     id="metadata5">
    <rdf:RDF>
      <cc:Work
         rdf:about="">
        <dc:format>image/svg+xml</dc:format>
        <dc:type
           rdf:resource="http://purl.org/dc/dcmitype/StillImage" />
        <dc:title />
      </cc:Work>
    </rdf:RDF>
  </metadata>
  <g
     inkscape:label="Layer 1"
     inkscape:groupmode="layer"
     id="layer1"
     transform="translate(0,-233)">
    <rect
       style="fill:#9c27b0;stroke-width:0.26458332;fill-opacity:1"
       id="rect3713"
       width="64"
       height="64"
       x="0"
       y="233" />
    <path
       style="fill:#ffffff;fill-opacity:1;fill-rule:nonzero;stroke:none;stroke-width:0.26458332"
       id="path1054"
       d="m 6.4555909,279.9328 c 0.010218,-0.098 0.017219,-0.19633 0.026902,-0.29445 0.019561,-0.19075 0.044216,-0.38084 0.068707,-0.57099 0.023495,-0.2184 0.054286,-0.43589 0.07944,-0.65409 0.037932,-0.26152 0.066758,-0.52419 0.1003673,-0.78625 0.034907,-0.2809 0.071016,-0.56162 0.1072197,-0.84236 0.038383,-0.30878 0.079775,-0.6172 0.1221833,-0.92546 0.043861,-0.35434 0.1014251,-0.70658 0.162034,-1.05836 0.068511,-0.3899 0.1449266,-0.77829 0.2229255,-1.16638 0.088913,-0.43821 0.1984269,-0.87184 0.3028098,-1.30652 0.113702,-0.47534 0.2397567,-0.94756 0.3693345,-1.41877 0.1380704,-0.49787 0.2844371,-0.99337 0.4300829,-1.48906 0.1527442,-0.51988 0.3106856,-1.03821 0.4702029,-1.55604 0.1619636,-0.52475 0.3275351,-1.04837 0.493998,-1.5717 0.1656352,-0.51811 0.3332342,-1.03556 0.4951293,-1.55485 0.1605949,-0.51826 0.3230809,-1.03593 0.4868199,-1.55321 0.163679,-0.51298 0.315547,-1.02964 0.471742,-1.54493 0.160249,-0.52941 0.324682,-1.05752 0.493212,-1.58435 0.166944,-0.51948 0.336348,-1.03817 0.505981,-1.55678 0.173364,-0.51474 0.348847,-1.02879 0.524474,-1.54278 0.170334,-0.49721 0.347341,-0.99209 0.525764,-1.48644 0.163909,-0.45625 0.330472,-0.91155 0.494642,-1.36771 0.151132,-0.40992 0.294568,-0.82256 0.438527,-1.23503 0.124807,-0.3719 0.258943,-0.74055 0.389647,-1.11039 0.116974,-0.32092 0.221808,-0.64603 0.333683,-0.96873 0.0991,-0.29324 0.202111,-0.58516 0.306898,-0.87641 0.09505,-0.2667 0.195381,-0.53149 0.296433,-0.79596 0.09348,-0.24821 0.191434,-0.49474 0.293031,-0.73974 0.09241,-0.22446 0.188378,-0.44746 0.287085,-0.66922 0.08879,-0.19996 0.182061,-0.39794 0.276311,-0.59538 0.06578,-0.15147 0.139609,-0.29923 0.207999,-0.44948 0.06381,-0.12892 0.128898,-0.25716 0.191841,-0.38652 0.04707,-0.11686 0.104837,-0.22875 0.166081,-0.3387 0.01943,-0.0409 0.03973,-0.0816 0.05956,-0.12237 0.01979,-0.0408 0.03952,-0.0816 0.05925,-0.12238 0.07627,-0.17448 0.192464,-0.32423 0.323132,-0.4601 0.03629,-0.0362 0.07441,-0.0704 0.112761,-0.1044 0.35804,-0.29754 0.758114,-0.40506 1.225276,-0.35052 0.154152,0.0295 0.320181,0.0637 0.584024,0.22324 0.231781,0.12693 0.35399,0.31995 0.503038,0.52282 0.02634,0.0358 -0.04702,-0.0756 -0.07296,-0.11174 0.02398,0.0344 0.04859,0.0684 0.07194,0.10323 0.08195,0.12231 0.139005,0.25666 0.190513,0.39382 0.0039,0.0104 -0.0074,-0.0209 -0.01109,-0.0313 0.04105,0.095 0.06922,0.1968 0.103071,0.29238 0.03005,0.0979 0.06288,0.19467 0.0974,0.29105 0.04675,0.13619 0.09433,0.27209 0.143268,0.40752 0.05876,0.16996 0.122585,0.33805 0.186295,0.5062 0.07978,0.20638 0.159497,0.41278 0.242857,0.61774 0.100235,0.2613 0.203263,0.52146 0.310616,0.77992 0.11894,0.30174 0.241969,0.6018 0.365424,0.90171 0.138418,0.3347 0.279289,0.66838 0.419348,1.0024 0.153669,0.37385 0.31923,0.74259 0.478575,1.11402 0.177917,0.41431 0.360112,0.82677 0.542326,1.2392 0.202386,0.46244 0.408194,0.92338 0.610626,1.3858 0.219043,0.50858 0.436247,1.01795 0.656818,1.52586 0.238309,0.55556 0.471172,1.11344 0.702678,1.67186 0.249461,0.58949 0.489393,1.183 0.724649,1.77829 0.245481,0.62107 0.486797,1.24382 0.72163,1.86899 0.236565,0.64828 0.471517,1.29717 0.698395,1.94892 0.232151,0.6686 0.44486,1.34365 0.65577,2.01918 0.210582,0.67447 0.4102,1.35227 0.606478,2.03102 0.19748,0.67563 0.374634,1.35697 0.555342,2.03721 0.174133,0.65442 0.349782,1.30844 0.527389,1.96193 0.175638,0.62409 0.360658,1.24548 0.547417,1.86632 0.183489,0.58368 0.371457,1.16604 0.568801,1.74519 0.185378,0.54277 0.384911,1.08035 0.591008,1.61553 0.192569,0.50324 0.393076,1.00338 0.594217,1.50324 0.178459,0.44455 0.364096,0.88612 0.556996,1.32458 0.175969,0.38963 0.349689,0.78029 0.52837,1.16869 0.159893,0.34708 0.316598,0.69559 0.471596,1.04487 0.129532,0.30059 0.264335,0.59887 0.392713,0.89995 0.111779,0.25798 0.220298,0.51744 0.324162,0.77871 0.07921,0.20282 0.162097,0.40415 0.241721,0.60682 0.03815,0.0615 0.03821,0.14132 0.07758,0.20201 0.777994,1.83772 -1.820926,2.93797 -2.59892,1.10025 v 0 c -0.03675,-0.0896 -0.07333,-0.17901 -0.105482,-0.27039 -0.07848,-0.19982 -0.160303,-0.39828 -0.238344,-0.59826 -0.09474,-0.23964 -0.195191,-0.47703 -0.297384,-0.71357 -0.12246,-0.28814 -0.252243,-0.5731 -0.375703,-0.86082 -0.149857,-0.33772 -0.301289,-0.67471 -0.455956,-1.01026 -0.185214,-0.40276 -0.365491,-0.80777 -0.547788,-1.21186 -0.204809,-0.46587 -0.402231,-0.9349 -0.591778,-1.40721 -0.20641,-0.51299 -0.412126,-1.02629 -0.609769,-1.54274 -0.219322,-0.56978 -0.43156,-1.14217 -0.628886,-1.72 -0.207931,-0.61126 -0.406903,-1.22559 -0.599755,-1.84177 -0.194016,-0.64501 -0.386225,-1.29059 -0.568253,-1.93911 -0.179015,-0.65868 -0.356058,-1.31789 -0.531574,-1.97751 -0.175435,-0.6604 -0.347209,-1.32192 -0.538881,-1.97785 -0.190727,-0.65965 -0.384667,-1.3184 -0.5893,-1.97389 -0.201843,-0.64653 -0.405132,-1.2927 -0.627208,-1.93263 -0.21926,-0.63018 -0.446643,-1.25748 -0.675052,-1.88439 -0.229084,-0.61022 -0.46483,-1.21795 -0.704352,-1.82415 -0.229363,-0.58072 -0.463618,-1.15957 -0.706962,-1.73459 -0.225452,-0.54396 -0.452342,-1.08734 -0.684308,-1.62856 -0.219414,-0.50543 -0.435752,-1.01218 -0.653533,-1.51832 -0.201032,-0.45947 -0.405666,-0.91735 -0.606676,-1.37682 -0.186342,-0.42178 -0.372605,-0.84362 -0.554563,-1.26731 -0.162281,-0.3785 -0.331025,-0.7542 -0.487535,-1.13515 -0.142417,-0.33969 -0.285693,-0.67902 -0.426415,-1.01942 -0.122396,-0.29735 -0.244713,-0.59472 -0.362254,-0.89404 -0.10995,-0.26505 -0.2166,-0.53142 -0.318704,-0.79961 -0.09166,-0.22583 -0.179818,-0.45304 -0.267468,-0.68045 -0.06897,-0.18221 -0.13786,-0.36442 -0.201903,-0.54843 -0.04949,-0.13748 -0.0979,-0.27534 -0.145415,-0.41349 -0.03745,-0.10464 -0.07473,-0.2094 -0.106196,-0.31599 -0.03131,-0.0908 -0.03832,-0.12108 -0.05227,-0.15742 -0.102447,-0.26404 0.0626,0.15143 0.120206,0.18511 -0.04185,-0.0564 -0.163525,-0.22801 -0.118713,-0.17397 0.139728,0.16851 0.217412,0.33077 0.427334,0.43824 0.04612,0.0273 0.102558,0.062 0.149749,0.079 0.262438,0.0949 0.425958,0.11954 0.206274,0.073 -0.03523,-0.007 0.2037,0.0471 0.105809,0.0218 0.406389,0.0447 0.795017,-0.0512 1.104192,-0.32084 -0.0246,0.0218 -3.97e-4,1.7e-4 0.01107,-0.012 0.03882,-0.0412 0.07985,-0.083 0.111155,-0.13011 0.24521,-0.36933 0.152494,-0.27149 0.112034,-0.17788 -0.02059,0.0426 -0.04117,0.0851 -0.06182,0.12767 -0.04412,0.0907 -0.08819,0.18155 -0.136809,0.27 -0.01481,0.0255 -0.0103,0.0167 0.0033,-0.0159 -0.03102,0.0692 -0.05879,0.1399 -0.0926,0.20786 -0.05363,0.11018 -0.107076,0.22048 -0.164527,0.32874 -0.07509,0.16287 -0.153507,0.32418 -0.226128,0.4882 -0.08382,0.17555 -0.167141,0.35139 -0.245809,0.52932 -0.0893,0.19954 -0.175048,0.40068 -0.258449,0.60275 -0.09174,0.21993 -0.178905,0.44179 -0.263095,0.66472 -0.09467,0.24714 -0.188244,0.49475 -0.277153,0.74404 -0.10133,0.28091 -0.200283,0.56271 -0.296,0.84559 -0.113917,0.32757 -0.219772,0.65793 -0.338921,0.98369 -0.129519,0.36635 -0.262347,0.73156 -0.385986,1.09996 -0.147033,0.42112 -0.293491,0.84242 -0.447727,1.26098 -0.16454,0.45679 -0.331188,0.91282 -0.495373,1.36974 -0.172961,0.47921 -0.344616,0.95889 -0.509756,1.44087 -0.171633,0.50229 -0.343109,1.00465 -0.512717,1.50761 -0.167737,0.51281 -0.33525,1.0257 -0.500345,1.53936 -0.164168,0.5131 -0.324272,1.02747 -0.480357,1.54309 -0.159542,0.52631 -0.314721,1.05401 -0.481971,1.57795 -0.162513,0.51338 -0.323768,1.02717 -0.483155,1.54153 -0.163522,0.52444 -0.332631,1.04707 -0.499988,1.57028 -0.163863,0.51515 -0.326856,1.03057 -0.486297,1.5471 -0.155915,0.50611 -0.310301,1.01269 -0.459594,1.52079 -0.141046,0.48002 -0.282848,0.95985 -0.416681,1.44195 -0.121476,0.44148 -0.239728,0.88389 -0.346283,1.32925 -0.0962,0.40061 -0.197432,0.80017 -0.280167,1.20384 -0.07291,0.36245 -0.1444425,0.72513 -0.2085307,1.08926 -0.055195,0.32035 -0.1079529,0.64105 -0.1473899,0.96381 -0.041334,0.30046 -0.081785,0.60104 -0.1190582,0.90202 -0.036276,0.28093 -0.072417,0.56185 -0.1072973,0.84296 -0.032618,0.24965 -0.058535,0.50018 -0.095831,0.74923 -0.02677,0.23016 -0.058695,0.45964 -0.083831,0.68998 -0.021664,0.16805 -0.044036,0.33592 -0.060942,0.50453 -0.017195,0.13256 -0.017343,0.26729 -0.039889,0.39936 -0.2822223,1.97556 -3.0760796,1.57644 -2.7938573,-0.39912 z"
       inkscape:connector-curvature="0" />
    <path
       style="fill:#ffffff;fill-opacity:1;fill-rule:nonzero;stroke:none;stroke-width:0.26458332"
       id="path1056"
       d="m 11.817382,264.55541 c 0.09443,-0.0119 0.214555,-0.0251 0.260658,-0.033 0.157257,-0.0276 0.315704,-0.047 0.474464,-0.0634 0.179454,-0.0173 0.359416,-0.0285 0.539427,-0.0381 0.165914,-0.0173 0.332037,-0.0324 0.498296,-0.046 0.207667,-0.0192 0.416446,-0.0226 0.62423,-0.0394 0.218061,-0.0181 0.436185,-0.0343 0.653873,-0.0564 0.254859,-0.0241 0.509556,-0.0505 0.763553,-0.0825 0.290896,-0.0337 0.580568,-0.0762 0.870132,-0.11961 0.335013,-0.0495 0.669926,-0.0997 1.0047,-0.15086 0.356652,-0.0567 0.712997,-0.11539 1.069813,-0.17108 0.372433,-0.0646 0.747168,-0.11383 1.121276,-0.16725 0.371309,-0.0552 0.743813,-0.10125 1.117046,-0.14115 0.353943,-0.0374 0.708789,-0.0652 1.063821,-0.0898 0.328787,-0.0225 0.657935,-0.0391 0.987149,-0.0538 0.308558,-0.0135 0.617253,-0.0234 0.925973,-0.0323 0.266051,-0.006 0.531585,-0.0259 0.797232,-0.0412 0.258649,-0.0148 0.517444,-0.0269 0.776289,-0.0377 0.185113,-0.0138 0.369935,-0.0311 0.554858,-0.0472 0.105573,-0.009 0.211164,-0.018 0.316754,-0.0268 1.988596,-0.1672 2.225049,2.6451 0.236454,2.8123 v 0 c -0.103024,0.009 -0.206047,0.0173 -0.309053,0.0262 -0.226966,0.0197 -0.453773,0.0419 -0.681226,0.0553 -0.244209,0.0102 -0.48837,0.0215 -0.732394,0.0355 -0.292459,0.0168 -0.584803,0.038 -0.877724,0.0446 -0.293724,0.008 -0.587427,0.0178 -0.880998,0.0306 -0.306355,0.0137 -0.612651,0.029 -0.91861,0.0499 -0.320145,0.0221 -0.640129,0.047 -0.959298,0.0807 -0.340194,0.0362 -0.679657,0.0785 -1.018065,0.12882 -0.361923,0.0515 -0.724409,0.0992 -1.084674,0.16179 -0.359718,0.056 -0.718907,0.11541 -1.078473,0.17242 -0.337361,0.0515 -0.674876,0.10204 -1.012465,0.15203 -0.312587,0.0469 -0.625348,0.0924 -0.939329,0.12911 -0.275494,0.0341 -0.551495,0.064 -0.827887,0.0898 -0.2429,0.0246 -0.486243,0.0432 -0.729571,0.063 -0.201171,0.0143 -0.40273,0.022 -0.603812,0.0378 -0.193311,0.0157 -0.386139,0.0364 -0.579497,0.0515 -0.134886,0.007 -0.269738,0.0152 -0.404248,0.0277 -0.09816,0.01 -0.196041,0.0219 -0.293191,0.0391 -0.108367,0.0179 -0.217104,0.0322 -0.326361,0.0432 -1.975555,0.28222 -2.374678,-2.51164 -0.399122,-2.79386 z"
       inkscape:connector-curvature="0" />
    <path
       style="fill:#ffffff;fill-opacity:1;fill-rule:nonzero;stroke:none;stroke-width:0.26458332"
       id="path1058"
       d="m 39.422241,268.43597 c 0.08951,-0.0146 0.180036,-0.0214 0.269981,-0.0324 0.0068,-8e-4 -0.01363,7.9e-4 -0.02045,10e-4 0.135869,-0.0245 0.272727,-0.0426 0.40981,-0.0587 0.134292,-0.0255 0.27072,-0.0378 0.405562,-0.0597 0.19432,-0.0317 0.38972,-0.0558 0.584562,-0.084 0.233003,-0.0313 0.466035,-0.0627 0.698408,-0.0985 0.292713,-0.0438 0.585986,-0.0841 0.879363,-0.12326 0.332833,-0.0403 0.665473,-0.0821 0.998691,-0.1191 0.360643,-0.0406 0.722959,-0.0625 1.084459,-0.0934 0.360791,-0.0333 0.722024,-0.061 1.083524,-0.0852 0.374248,-0.0256 0.748811,-0.0431 1.123873,-0.0488 0.338998,-0.003 0.678016,-0.003 1.017024,-0.003 0.31972,8e-4 0.639456,-0.003 0.959125,0.003 0.294786,0.009 0.589481,0.0209 0.884246,0.0306 0.262017,0.009 0.524094,0.0152 0.786188,0.021 0.24176,0.005 0.483547,0.009 0.725339,0.0129 0.216943,0.003 0.433896,0.006 0.650849,0.008 0.196564,0.002 0.393134,0.003 0.589701,0.005 0.140202,0.006 0.279865,-0.004 0.419679,-0.013 0.147889,-0.01 0.295836,-0.0182 0.443838,-0.0258 0.107982,-0.008 0.216448,-0.008 0.324454,-0.0144 0.0085,-5.3e-4 -0.01714,1.1e-4 -0.02572,1.6e-4 0.08449,-0.012 0.169127,-0.0229 0.253725,-0.0341 0.0967,-0.0123 0.193559,-0.0232 0.29056,-0.0327 0.06261,-0.006 0.125238,-0.0118 0.187868,-0.0175 0.160999,-0.0187 -0.184201,0.0356 -0.195411,0.0384 0.02684,-0.009 0.05362,-0.0185 0.08041,-0.0278 -0.174699,0.0599 -0.332398,0.15659 -0.468767,0.28012 -0.0044,0.004 -0.01823,0.0157 -0.01315,0.0124 0.262887,-0.16914 0.405223,-0.29656 0.678953,-0.36387 0.01635,-0.004 0.03272,-0.008 0.0491,-0.0115 -1.328944,1.31928 -0.953786,0.55421 -0.458518,0.18206 0.157144,-0.0896 0.2974,-0.27625 -0.208709,0.1897 -0.03706,0.0341 -0.129267,0.15442 -0.09484,0.11765 0.05896,-0.063 0.112385,-0.13094 0.168577,-0.19641 0.07478,-0.0682 0.06362,-0.0605 0.126029,-0.11103 0.0158,-0.0128 0.06401,-0.0502 0.04818,-0.0374 -0.0097,0.008 -0.01931,0.015 -0.02897,0.0225 -2.64e-4,2.7e-4 -7.93e-4,5.3e-4 -0.0011,8e-4 0.02708,-0.0231 0.01386,-0.0118 0.03644,-0.0324 0.02453,-0.0226 0.04869,-0.0455 0.07275,-0.0686 0.04501,-0.0453 0.09489,-0.0849 0.142563,-0.12738 0.0546,-0.0487 -0.06645,0.0597 -0.03219,0.0256 -0.01548,0.0177 0.06608,-0.067 0.05003,-0.0498 -0.01754,0.0188 -0.06773,0.0771 -0.05335,0.0557 0.01019,-0.0151 0.08211,-0.0889 0.102143,-0.10966 -0.105058,0.11491 0.0371,-0.0474 0.0593,-0.0739 0.06165,-0.0733 0.04465,-0.0514 0.08469,-0.10697 -0.06835,0.10483 0.0493,-0.0879 0.0076,-0.0182 0.03939,-0.0685 0.06468,-0.13083 0.09382,-0.19673 0.0205,-0.0385 0.03063,-0.0797 0.04224,-0.12104 0.0052,-0.0128 0.03694,-0.19177 0.01781,-0.0974 0.0036,-0.0668 0.003,-0.13089 -1.69e-4,-0.17958 -0.0037,-0.0756 -0.01797,-0.15034 -0.03584,-0.22393 -0.02756,-0.12814 -0.06684,-0.2534 -0.106805,-0.37813 -0.04806,-0.14732 -0.109624,-0.28929 -0.170484,-0.43158 -0.07549,-0.18109 -0.167097,-0.35477 -0.255011,-0.52999 -0.09539,-0.18858 -0.200824,-0.3717 -0.308684,-0.55334 -0.115504,-0.19842 -0.248732,-0.38535 -0.380812,-0.57286 -0.14256,-0.20693 -0.296624,-0.4052 -0.455014,-0.60014 -0.167974,-0.20759 -0.346665,-0.40607 -0.528355,-0.60164 -0.182702,-0.1937 -0.378521,-0.37407 -0.576199,-0.5522 -0.195884,-0.17385 -0.399571,-0.33818 -0.613098,-0.48975 -0.220609,-0.16123 -0.452461,-0.30604 -0.690533,-0.43985 -0.23763,-0.14021 -0.487645,-0.25602 -0.740487,-0.36545 -0.257069,-0.10664 -0.520107,-0.19787 -0.78672,-0.2774 -0.288364,-0.0797 -0.579307,-0.14978 -0.872066,-0.21133 -0.283509,-0.059 -0.57235,-0.0868 -0.860224,-0.1147 -0.309584,-0.0335 -0.620879,-0.0412 -0.931902,-0.0493 -0.305179,-0.003 -0.610315,0.01 -0.914755,0.0302 -0.301887,0.0199 -0.602557,0.0551 -0.901872,0.0986 -0.28576,0.0411 -0.566777,0.10542 -0.847095,0.17325 -0.267116,0.0636 -0.527812,0.15 -0.785805,0.24326 -0.264329,0.0953 -0.52198,0.20696 -0.774665,0.32951 -0.258493,0.12526 -0.508283,0.26644 -0.753383,0.4159 -0.243917,0.15156 -0.476797,0.31961 -0.707072,0.49089 -0.211111,0.16227 -0.412859,0.33595 -0.606346,0.51876 -0.192532,0.17511 -0.36495,0.36966 -0.535485,0.56571 -0.156567,0.18853 -0.300805,0.38643 -0.438221,0.58919 -0.143045,0.21804 -0.268126,0.44653 -0.393946,0.67467 -0.130633,0.24539 -0.252431,0.49531 -0.367247,0.74845 -0.126299,0.27219 -0.238932,0.55018 -0.34824,0.82951 -0.106844,0.28407 -0.212878,0.56845 -0.30589,0.85739 -0.09593,0.29369 -0.17966,0.5913 -0.256301,0.89056 -0.07243,0.2879 -0.124275,0.58032 -0.171564,0.87322 -0.04765,0.30081 -0.08,0.60368 -0.109847,0.90668 -0.024,0.27758 -0.02556,0.55598 -0.02487,0.83434 0.0053,0.27534 0.02508,0.55026 0.05137,0.82433 0.02741,0.26134 0.07449,0.51978 0.127193,0.77702 0.05268,0.24888 0.119047,0.494 0.197176,0.73598 0.07499,0.23117 0.172754,0.45342 0.27504,0.6735 0.09905,0.20277 0.224054,0.39055 0.349099,0.57781 0.118253,0.17431 0.263321,0.32751 0.41126,0.47654 0.162618,0.16516 0.347816,0.30363 0.536096,0.43757 0.220882,0.15921 0.460743,0.28847 0.699985,0.4173 0.261485,0.14004 0.534662,0.255 0.809019,0.36678 0.301373,0.11788 0.610126,0.21598 0.919702,0.30978 0.341035,0.10089 0.686239,0.18639 1.032216,0.26836 0.363006,0.0805 0.729015,0.14731 1.095441,0.2102 0.378431,0.0647 0.759915,0.10845 1.141646,0.14799 0.409064,0.0409 0.819258,0.0688 1.229558,0.0937 0.419783,0.0292 0.840547,0.0339 1.261139,0.0388 0.420317,0.003 0.840052,-0.0177 1.259414,-0.0432 0.43188,-0.0302 0.862931,-0.0711 1.292506,-0.12482 0.424285,-0.0555 0.845817,-0.12775 1.265187,-0.21236 0.418782,-0.0877 0.83558,-0.18372 1.249312,-0.29276 0.386305,-0.10297 0.766556,-0.22658 1.144577,-0.35627 0.343273,-0.11867 0.678995,-0.25722 1.012021,-0.40177 0.283135,-0.12257 0.557268,-0.26411 0.826465,-0.41448 0.23204,-0.13234 0.461891,-0.2687 0.68475,-0.41605 1.669351,-1.0935 3.215791,1.26732 1.546442,2.36082 v 0 c -0.280535,0.18274 -0.566473,0.35693 -0.858348,0.52104 -0.350922,0.19489 -0.707967,0.37879 -1.076696,0.53801 -0.40133,0.17383 -0.806182,0.33977 -1.219866,0.48228 -0.443111,0.15165 -0.888953,0.2958 -1.341808,0.4159 -0.467178,0.12256 -0.937506,0.23182 -1.410409,0.3301 -0.488455,0.098 -0.97935,0.18222 -1.473512,0.24621 -0.488506,0.0604 -0.978512,0.10787 -1.469644,0.14119 -0.487432,0.0295 -0.975374,0.0527 -1.463887,0.0482 -0.466606,-0.006 -0.933373,-0.0119 -1.39909,-0.0438 -0.4504,-0.0275 -0.900671,-0.0584 -1.349687,-0.1036 -0.444342,-0.0463 -0.888294,-0.0981 -1.328746,-0.17378 -0.424347,-0.0732 -0.848281,-0.15056 -1.268352,-0.24555 -0.40273,-0.0957 -0.804502,-0.19577 -1.201295,-0.31407 -0.392369,-0.11953 -0.783511,-0.24489 -1.164749,-0.39678 -0.367681,-0.15006 -0.732454,-0.30758 -1.082572,-0.49583 -0.343868,-0.18557 -0.685482,-0.3768 -1.002681,-0.60611 -0.319754,-0.22959 -0.630319,-0.47228 -0.906383,-0.75414 -0.271319,-0.27745 -0.532349,-0.56615 -0.747551,-0.89036 -0.204848,-0.30791 -0.403537,-0.62063 -0.561125,-0.95605 -0.150869,-0.32621 -0.2921,-0.65698 -0.402228,-0.99952 -0.108387,-0.34033 -0.202295,-0.68473 -0.27509,-1.03458 -0.07192,-0.35592 -0.135496,-0.71365 -0.171378,-1.07526 -0.03328,-0.35973 -0.05961,-0.7204 -0.06373,-1.08181 -7.93e-4,-0.37303 0.0043,-0.74622 0.03851,-1.118 0.03574,-0.36143 0.07524,-0.72263 0.132615,-1.08138 0.06145,-0.37735 0.129738,-0.75385 0.22417,-1.12456 0.09171,-0.35513 0.190572,-0.70861 0.304708,-1.05726 0.111368,-0.34208 0.234574,-0.68 0.36264,-1.01618 0.128043,-0.32699 0.260702,-0.65214 0.40811,-0.97098 0.145465,-0.31818 0.297923,-0.63318 0.464105,-0.94114 0.168257,-0.30509 0.338381,-0.60923 0.531903,-0.89933 0.201049,-0.29468 0.411974,-0.58258 0.64298,-0.85472 0.232886,-0.26732 0.471148,-0.53013 0.732506,-0.77027 0.273352,-0.25553 0.556173,-0.50078 0.854848,-0.72654 0.300471,-0.223 0.605123,-0.44071 0.923988,-0.63695 0.322829,-0.19583 0.651738,-0.38115 0.991847,-0.5456 0.341667,-0.16458 0.689657,-0.31545 1.04672,-0.44381 0.354058,-0.127 0.711997,-0.24377 1.078222,-0.33095 0.366541,-0.0886 0.734754,-0.1696 1.108263,-0.2235 0.37252,-0.0532 0.746461,-0.0975 1.122114,-0.12155 0.389461,-0.0247 0.779698,-0.0421 1.170048,-0.0351 0.377934,0.01 0.756079,0.0216 1.132282,0.0617 0.391898,0.0384 0.784376,0.0803 1.169996,0.16239 0.370093,0.0786 0.738266,0.16662 1.102222,0.27019 0.371329,0.11255 0.738473,0.23911 1.095931,0.39058 0.344873,0.14984 0.685061,0.31034 1.010205,0.49997 0.322564,0.18409 0.638929,0.3792 0.938998,0.59853 0.299138,0.21479 0.587405,0.44386 0.861793,0.6897 0.259713,0.23429 0.515708,0.47294 0.754944,0.72839 0.224189,0.24177 0.444357,0.48742 0.651772,0.74386 0.198316,0.24492 0.391295,0.49402 0.570746,0.75321 0.174421,0.24791 0.348027,0.49665 0.500983,0.75863 0.141184,0.23863 0.278918,0.47935 0.403588,0.72712 0.113389,0.22626 0.229912,0.45125 0.327022,0.68518 0.09649,0.22561 0.190063,0.45247 0.265197,0.6863 0.06638,0.2098 0.129865,0.42082 0.175601,0.63625 0.04631,0.22083 0.08602,0.44363 0.09563,0.66957 0.01,0.20018 0.0087,0.4006 -0.0087,0.60042 -0.02384,0.20537 -0.05665,0.40958 -0.114988,0.60843 -0.0484,0.16654 -0.104092,0.33079 -0.176286,0.48872 -0.04917,0.10814 -0.09537,0.21773 -0.153202,0.32173 -0.07623,0.14583 -0.159472,0.28764 -0.255813,0.42129 -0.07786,0.10482 -0.102023,0.1338 -0.191098,0.24227 -0.143454,0.17127 -0.04159,0.05 -0.20108,0.23096 0.05316,-0.0649 -0.120433,0.13409 -0.155107,0.15991 -0.04359,0.0421 -0.100872,0.11306 -0.15303,0.13908 -0.02763,0.0138 0.04548,-0.0418 0.06859,-0.0623 0.01389,-0.0123 -0.05618,0.053 -0.04008,0.0386 -0.04032,0.0386 -0.08078,0.077 -0.121946,0.11463 -0.03999,0.0365 -0.08035,0.0725 -0.12187,0.10727 -0.123928,0.10359 -0.08122,0.0668 0.01945,-0.0239 0.0505,-0.0599 0.09648,-0.12385 0.151498,-0.17958 0.04004,-0.0406 -0.06483,0.0949 -0.106376,0.13388 -0.464002,0.43583 -0.414935,0.32525 -0.264036,0.23051 0.185124,-0.1411 0.235427,-0.23911 0.390372,-0.43588 0.01609,-0.0204 -0.01926,0.0513 -0.04,0.067 -0.288444,0.21798 -0.588455,0.42022 -0.882685,0.63033 -0.0013,2.6e-4 -0.0026,5.3e-4 -0.0038,7.9e-4 -0.0043,10e-4 -0.01445,0.003 -0.01601,0.004 0.247364,-0.065 0.367651,-0.18668 0.611356,-0.34399 0.0071,-0.005 -0.01228,0.0116 -0.01842,0.0175 -0.154233,0.14053 -0.331205,0.25237 -0.529275,0.32116 -0.03694,0.0128 -0.07387,0.0257 -0.110918,0.0382 -0.143561,0.0478 -0.290891,0.0865 -0.442841,0.0957 -0.0567,0.005 -0.113396,0.0104 -0.170072,0.0158 -0.06527,0.006 -0.130421,0.0138 -0.195506,0.0218 -0.117136,0.0155 -0.234161,0.032 -0.351562,0.0453 -0.141637,0.0113 -0.283374,0.0175 -0.425326,0.0236 -0.138578,0.007 -0.277101,0.0153 -0.415573,0.0243 -0.204168,0.0126 -0.408517,0.0242 -0.613177,0.0183 -0.199562,-10e-4 -0.399121,-0.003 -0.598678,-0.005 -0.221623,-0.002 -0.443246,-0.005 -0.664858,-0.008 -0.248534,-0.004 -0.497063,-0.008 -0.745567,-0.0133 -0.272362,-0.006 -0.544708,-0.0129 -0.816991,-0.0219 -0.283602,-0.009 -0.567142,-0.0205 -0.850749,-0.0297 -0.299249,-0.007 -0.598678,-5.3e-4 -0.897988,-0.003 -0.32562,1.2e-4 -0.651248,-1.3e-4 -0.976858,0.003 -0.326173,0.005 -0.651838,0.0208 -0.977312,0.0428 -0.344721,0.0229 -0.689163,0.0496 -1.033196,0.0814 -0.337251,0.0284 -0.675155,0.0494 -1.011668,0.0863 -0.312484,0.0346 -0.624372,0.0741 -0.936525,0.11151 -0.275905,0.0367 -0.55169,0.0746 -0.826968,0.11577 -0.239649,0.0363 -0.479716,0.0699 -0.720011,0.10165 -0.187626,0.0271 -0.375777,0.0504 -0.562914,0.0807 -0.168664,0.0251 -0.337802,0.0468 -0.506272,0.0733 -0.102143,0.0116 -0.203822,0.0263 -0.305009,0.0446 -0.09326,0.0129 -0.186659,0.0235 -0.279996,0.0357 -1.975556,0.28222 -2.374677,-2.51164 -0.399124,-2.79386 z"
       inkscape:connector-curvature="0" />
  </g>
</svg>
