<?xml version="1.0" encoding="UTF-8" standalone="no"?>
<!-- Created with Inkscape (http://www.inkscape.org/) -->

<svg
   xmlns:dc="http://purl.org/dc/elements/1.1/"
   xmlns:cc="http://creativecommons.org/ns#"
   xmlns:rdf="http://www.w3.org/1999/02/22-rdf-syntax-ns#"
   xmlns:svg="http://www.w3.org/2000/svg"
   xmlns="http://www.w3.org/2000/svg"
   xmlns:sodipodi="http://sodipodi.sourceforge.net/DTD/sodipodi-0.dtd"
   xmlns:inkscape="http://www.inkscape.org/namespaces/inkscape"
   width="64mm"
   height="64mm"
   viewBox="0 0 64 64"
   version="1.1"
   id="svg8"
   sodipodi:docname="anime.svg"
   inkscape:version="0.92.5 (2060ec1f9f, 2020-04-08)">
  <defs
     id="defs2" />
  <sodipodi:namedview
     id="base"
     pagecolor="#ffffff"
     bordercolor="#666666"
     borderopacity="1.0"
     inkscape:pageopacity="0.0"
     inkscape:pageshadow="2"
     inkscape:zoom="3"
     inkscape:cx="13.493015"
     inkscape:cy="110.27027"
     inkscape:document-units="mm"
     inkscape:current-layer="layer1"
     showgrid="false"
     inkscape:snap-page="true"
     inkscape:window-width="1920"
     inkscape:window-height="1016"
     inkscape:window-x="0"
     inkscape:window-y="27"
     inkscape:window-maximized="1" />
  <metadata
     id="metadata5">
    <rdf:RDF>
      <cc:Work
         rdf:about="">
        <dc:format>image/svg+xml</dc:format>
        <dc:type
           rdf:resource="http://purl.org/dc/dcmitype/StillImage" />
        <dc:title />
      </cc:Work>
    </rdf:RDF>
  </metadata>
  <g
     inkscape:label="Layer 1"
     inkscape:groupmode="layer"
     id="layer1"
     transform="translate(0,-233)">
    <rect
       style="fill:#e91e63;stroke-width:0.26458332;fill-opacity:1"
       id="rect3713"
       width="64"
       height="64"
       x="0"
       y="233" />
    <path
       style="fill:#ffffff;fill-opacity:1;fill-rule:nonzero;stroke:none;stroke-width:0.26458332"
       id="path6053"
       d="m 6.3991958,245.3536 c -0.00622,-0.01 0.062118,0.0131 0.08051,0.0174 0.078711,0.0138 0.1579611,0.024 0.2373178,0.0333 0.1671508,0.0142 0.3332252,0.0382 0.4998532,0.0572 0.1799352,0.0205 0.3606223,0.0329 0.5413198,0.0442 0.2192903,0.0112 0.4387056,0.025 0.6583431,0.0253 0.2847591,-0.002 0.569409,-0.01 0.8541784,-0.008 0.3233222,0.006 0.6465914,0.0141 0.9699009,0.0205 0.349142,0.007 0.69832,0.0112 1.047503,0.0152 0.382617,0.004 0.765247,0.007 1.147878,0.009 0.413425,0.003 0.826855,0.004 1.240285,0.006 0.437489,0.002 0.874978,0.003 1.312468,0.003 0.458005,-3.5e-4 0.915846,0.0152 1.373673,0.0263 0.457506,0.007 0.914583,0.0274 1.371727,0.0456 0.447925,0.0136 0.895297,0.0395 1.342805,0.0624 0.445707,0.03 0.891736,0.0554 1.33731,0.0872 0.428889,0.0348 0.858547,0.0585 1.28768,0.0897 0.409423,0.0322 0.819137,0.0602 1.229087,0.0847 0.404536,0.0222 0.808513,0.0533 1.212794,0.0796 0.364409,0.0237 0.729165,0.0414 1.093999,0.057 0.343503,0.0146 0.687149,0.0254 1.030816,0.0352 0.302134,0.0131 0.604455,0.008 0.906691,0.003 0.269272,-9.3e-4 0.538102,-0.0106 0.806934,-0.025 0.220409,-0.009 0.44009,-0.0247 0.659588,-0.0459 0.144955,-0.0127 0.288348,-0.0388 0.431737,-0.0629 0.0218,-0.004 0.04357,-0.007 0.06536,-0.0111 -0.0024,-8e-5 -0.0048,-1.6e-4 -0.0072,-2.4e-4 1.947987,-0.43338 2.560881,2.32149 0.612896,2.75487 v 0 c -0.155937,0.0325 -0.08806,0.0201 -0.203192,0.0397 -0.208542,0.035 -0.417356,0.0703 -0.628155,0.0889 -0.259757,0.025 -0.519829,0.0442 -0.7806,0.055 -0.304025,0.0162 -0.608124,0.0271 -0.912619,0.0286 -0.34411,0.005 -0.688327,0.0105 -1.032325,-0.004 -0.357004,-0.0102 -0.713987,-0.0215 -1.070821,-0.0366 -0.385668,-0.0165 -0.771251,-0.0353 -1.156469,-0.0604 -0.399276,-0.026 -0.798252,-0.0568 -1.197776,-0.0787 -0.422384,-0.0253 -0.844539,-0.054 -1.266384,-0.0872 -0.427969,-0.0315 -0.856547,-0.0545 -1.284275,-0.0895 -0.426218,-0.0308 -0.852961,-0.0543 -1.279283,-0.0837 -0.43685,-0.0223 -0.873557,-0.0478 -1.310821,-0.0609 -0.442678,-0.0176 -0.885279,-0.0379 -1.328314,-0.0442 -0.436871,-0.0107 -0.873756,-0.0257 -1.310793,-0.0255 -0.438901,-9.3e-4 -0.877803,-0.002 -1.316702,-0.003 -0.416015,-0.002 -0.83203,-0.003 -1.24804,-0.006 -0.387246,-0.002 -0.77449,-0.005 -1.161721,-0.009 -0.357341,-0.004 -0.714678,-0.009 -1.071977,-0.0155 -0.3115673,-0.006 -0.6231002,-0.014 -0.9346698,-0.02 -0.2847078,-0.003 -0.5693531,0.009 -0.8540789,0.008 -0.2717671,-0.003 -0.5433044,-0.0146 -0.8146066,-0.0308 -0.2293485,-0.0145 -0.4586343,-0.0309 -0.686989,-0.0572 -0.1702319,-0.0197 -0.339896,-0.0437 -0.5106543,-0.0585 -0.1942055,-0.0234 -0.3883242,-0.0502 -0.5788517,-0.0954 -0.175487,-0.0439 -0.3503779,-0.0924 -0.5170652,-0.16366 -1.8342573,-0.78611 -0.7225294,-3.38015 1.1117278,-2.59404 z"
       inkscape:connector-curvature="0" />
    <path
       style="fill:#ffffff;fill-opacity:1;fill-rule:nonzero;stroke:none;stroke-width:0.26458332"
       id="path6057"
       d="m 30.938853,247.3922 c -0.01336,0.1077 -0.02746,0.21514 -0.04652,0.32203 -0.02066,0.11993 -0.03791,0.2403 -0.05987,0.36003 -0.02453,0.13973 -0.04474,0.28006 -0.07006,0.41967 -0.02402,0.12663 -0.04176,0.25428 -0.05713,0.38221 -0.01633,0.1396 -0.02734,0.27973 -0.03726,0.4199 -0.01106,0.15794 -0.01804,0.31611 -0.02429,0.4743 -0.0079,0.2179 -0.02747,0.43538 -0.0518,0.65202 -0.02429,0.22442 -0.06549,0.44622 -0.111062,0.66713 -0.05116,0.25717 -0.132231,0.50582 -0.219392,0.75256 -0.09431,0.27362 -0.220673,0.53388 -0.358066,0.78801 -0.1387,0.26354 -0.304176,0.5106 -0.479251,0.75099 -0.177437,0.24938 -0.381989,0.47662 -0.591981,0.69856 -0.207605,0.22358 -0.43493,0.42727 -0.669832,0.62148 -0.235175,0.18877 -0.481476,0.36252 -0.737135,0.52222 -0.24063,0.15327 -0.494215,0.28356 -0.753668,0.40149 -0.226148,0.10671 -0.459386,0.19649 -0.695913,0.27712 -0.210799,0.0672 -0.424505,0.12514 -0.638109,0.18273 -0.188068,0.0472 -0.37703,0.0905 -0.565332,0.13676 -0.162384,0.035 -0.322755,0.0779 -0.483952,0.1178 -0.07869,0.02 -0.157875,0.0379 -0.237035,0.0559 -1.946217,0.44126 -2.570252,-2.3111 -0.624035,-2.75236 v 0 c 0.06103,-0.0138 0.122122,-0.0274 0.182737,-0.043 0.162781,-0.0403 0.324849,-0.0835 0.488767,-0.11899 0.168501,-0.0414 0.337355,-0.0811 0.50606,-0.12151 0.156423,-0.0419 0.31261,-0.085 0.467816,-0.13113 0.150432,-0.0499 0.297497,-0.10868 0.440657,-0.17685 0.148149,-0.0653 0.291292,-0.14075 0.427653,-0.22827 0.150303,-0.0908 0.291111,-0.19575 0.430223,-0.30277 0.145584,-0.11809 0.284879,-0.24411 0.412411,-0.38168 0.128045,-0.1349 0.255857,-0.27009 0.362458,-0.42321 0.102571,-0.13941 0.200564,-0.28154 0.279527,-0.4361 0.06733,-0.12141 0.129947,-0.24556 0.174958,-0.37726 0.04459,-0.12621 0.09196,-0.25105 0.116546,-0.38331 0.02919,-0.14111 0.05773,-0.28233 0.07205,-0.42593 0.01916,-0.14385 0.02776,-0.28953 0.0347,-0.43439 0.0075,-0.18769 0.01595,-0.37535 0.02921,-0.56273 0.01336,-0.18692 0.02853,-0.37376 0.05073,-0.55987 0.02238,-0.18295 0.048,-0.36552 0.08206,-0.54672 0.02582,-0.14154 0.04445,-0.28421 0.07115,-0.42564 0.02164,-0.11704 0.03629,-0.23521 0.05845,-0.35224 0.01363,-0.0721 0.01913,-0.14545 0.02968,-0.21804 0.282221,-1.97556 3.076081,-1.57644 2.793857,0.39912 z"
       inkscape:connector-curvature="0" />
    <path
       style="fill:#ffffff;fill-opacity:1;fill-rule:nonzero;stroke:none;stroke-width:0.26458332"
       id="path6063"
       d="m 22.824964,252.50748 c -0.01133,0.0931 -0.02101,0.18627 -0.03289,0.27932 -0.0219,0.14528 -0.04206,0.29069 -0.0677,0.43538 -0.03113,0.17665 -0.06851,0.35215 -0.106848,0.52735 -0.04184,0.19358 -0.08582,0.38669 -0.129396,0.57989 -0.0569,0.23073 -0.111883,0.46192 -0.172216,0.69179 -0.05972,0.23177 -0.120489,0.46324 -0.184033,0.694 -0.06968,0.24791 -0.144428,0.49433 -0.218566,0.74093 -0.07795,0.27141 -0.172291,0.5373 -0.267853,0.80285 -0.104983,0.29276 -0.228098,0.57843 -0.356823,0.86139 -0.137144,0.29772 -0.28125,0.5921 -0.434047,0.88208 -0.16638,0.31427 -0.346514,0.62088 -0.530349,0.92517 -0.200572,0.3272 -0.414048,0.64601 -0.632702,0.96131 -0.220161,0.32188 -0.451593,0.6359 -0.687994,0.946 -0.242599,0.31874 -0.499537,0.62606 -0.76225,0.92831 -0.249215,0.2855 -0.508672,0.56165 -0.768573,0.83735 -0.253331,0.26767 -0.516583,0.52547 -0.782098,0.78094 -0.25,0.2345 -0.508754,0.45967 -0.769668,0.68191 -0.227493,0.19303 -0.461494,0.37823 -0.697195,0.56108 -0.200874,0.159 -0.410741,0.30588 -0.620506,0.45274 -0.03543,0.024 -0.07086,0.048 -0.106293,0.0721 -1.653403,1.11746 -3.233737,-1.2208 -1.580335,-2.33827 v 0 c 0.0227,-0.0153 0.04541,-0.0305 0.06811,-0.0458 0.172035,-0.12043 0.344823,-0.23996 0.509278,-0.37074 0.202275,-0.15688 0.403346,-0.31546 0.598629,-0.48101 0.217319,-0.18442 0.432108,-0.37216 0.641288,-0.56576 0.232494,-0.22366 0.46341,-0.44892 0.685319,-0.68319 0.234402,-0.24859 0.468719,-0.4973 0.693622,-0.75463 0.223342,-0.25592 0.440944,-0.51687 0.647006,-0.78699 0.210801,-0.27597 0.416749,-0.55578 0.612699,-0.84254 0.185122,-0.26683 0.366336,-0.53628 0.536547,-0.81296 0.15622,-0.25816 0.309469,-0.51818 0.450876,-0.78482 0.128134,-0.24074 0.246048,-0.48667 0.36111,-0.73389 0.09717,-0.21204 0.189824,-0.4263 0.268998,-0.6458 0.07859,-0.21818 0.157475,-0.43614 0.220533,-0.65951 0.06783,-0.22552 0.136269,-0.45084 0.200292,-0.67748 0.06093,-0.22125 0.119129,-0.44318 0.176323,-0.66542 0.05247,-0.19675 0.09778,-0.39528 0.147937,-0.59263 0.04228,-0.18713 0.08496,-0.37416 0.125354,-0.5617 0.03044,-0.13907 0.06076,-0.27825 0.08526,-0.4185 0.01979,-0.11055 0.03386,-0.22188 0.05139,-0.33284 0.0069,-0.0611 0.0209,-0.19639 0.0339,-0.2865 0.282222,-1.97556 3.07608,-1.57644 2.793857,0.39912 z"
       inkscape:connector-curvature="0" />
    <path
       style="fill:#ffffff;fill-opacity:1;fill-rule:nonzero;stroke:none;stroke-width:0.26458332"
       id="path6065"
       d="m 38.939419,251.42087 c 0.108882,0.0197 0.216292,0.0452 0.325679,0.0618 0.136286,0.016 0.272081,0.0355 0.407995,0.0545 0.157289,0.0219 0.31565,0.0345 0.473982,0.046 0.216856,0.0153 0.434086,0.0241 0.651312,0.0321 0.264303,0.009 0.528698,0.0152 0.793104,0.0205 0.317717,0.005 0.635048,0.0239 0.952479,0.0377 0.339212,0.0104 0.677836,0.033 1.016611,0.0524 0.362691,0.0169 0.725099,0.0378 1.087456,0.0607 0.37491,0.0239 0.750195,0.0409 1.125551,0.0559 0.411538,0.0149 0.822611,0.0402 1.233924,0.0602 0.407416,0.0195 0.81506,0.0334 1.222738,0.0458 0.404897,0.0119 0.809881,0.0206 1.214874,0.0283 0.393721,0.006 0.787371,0.0111 1.180869,0.0261 0.35949,0.0124 0.718633,0.029 1.076847,0.0621 0.320918,0.0278 0.637648,0.0857 0.949666,0.16439 0.07022,0.0232 0.140436,0.0463 0.210653,0.0694 1.879198,0.67163 0.929376,3.32921 -0.949822,2.65759 v 0 c 0.0092,0.001 0.01839,0.003 0.02756,0.004 -0.164076,-0.0482 -0.335494,-0.067 -0.504867,-0.0858 -0.305374,-0.0303 -0.612124,-0.0388 -0.918604,-0.0515 -0.375333,-0.0145 -0.75084,-0.0181 -1.126382,-0.0246 -0.41574,-0.008 -0.831466,-0.0168 -1.247103,-0.0291 -0.424624,-0.013 -0.849212,-0.0276 -1.273561,-0.0478 -0.40317,-0.0196 -0.806106,-0.0445 -1.20949,-0.0592 -0.397113,-0.0159 -0.794152,-0.0339 -1.190792,-0.0593 -0.356766,-0.0225 -0.71357,-0.0431 -1.070665,-0.0597 -0.325943,-0.0186 -0.651714,-0.0406 -0.978088,-0.0504 -0.295489,-0.0129 -0.590886,-0.0303 -0.886627,-0.0356 -0.28,-0.006 -0.559993,-0.0121 -0.839885,-0.0218 -0.251005,-0.009 -0.502007,-0.0197 -0.75257,-0.0376 -0.220652,-0.0162 -0.441243,-0.0349 -0.660403,-0.0658 -0.15122,-0.0212 -0.302397,-0.0416 -0.453832,-0.0612 -0.08226,-0.0131 -0.164242,-0.0269 -0.245901,-0.0434 -0.03613,-0.007 -0.144912,-0.0256 -0.108116,-0.0233 0.02233,0.001 0.04419,0.007 0.06628,0.0106 -1.975556,-0.28223 -1.576433,-3.07608 0.399121,-2.79386 z"
       inkscape:connector-curvature="0" />
    <path
       style="fill:#ffffff;fill-opacity:1;fill-rule:nonzero;stroke:none;stroke-width:0.26458332"
       id="path6069"
       d="m 32.589419,264.73823 c 0.09555,0.0107 0.191183,0.0195 0.286695,0.0307 0.143909,0.022 0.288644,0.0376 0.432893,0.057 0.152021,0.0246 0.304834,0.043 0.458041,0.0582 0.185253,0.0175 0.371057,0.0279 0.556861,0.0373 0.23968,0.0116 0.479554,0.0184 0.719425,0.0245 0.285205,0.007 0.570463,0.0114 0.855724,0.0154 0.321095,0.004 0.64221,0.007 0.963324,0.009 0.355555,0.003 0.711118,0.004 1.066678,0.006 0.387631,0.002 0.775261,0.003 1.162894,0.004 0.40966,0.001 0.819325,0.002 1.228987,0.002 0.430811,5.3e-4 0.861621,0.001 1.292431,0.001 0.45234,2.7e-4 0.904682,5.3e-4 1.357022,7.9e-4 0.470707,2.1e-4 0.941414,2.7e-4 1.412121,5.3e-4 0.477829,1.3e-4 0.955659,2.2e-4 1.433488,2.7e-4 0.487522,-10e-4 0.974919,0.0135 1.462281,0.0243 0.477618,0.007 0.954953,0.021 1.432258,0.039 0.459513,0.0133 0.918441,0.0399 1.377498,0.0635 0.443995,0.0231 0.887868,0.0506 1.331248,0.0836 0.410456,0.0331 0.821204,0.0622 1.23221,0.0876 0.402582,0.0304 0.805156,0.0605 1.208064,0.0863 0.375155,0.0236 0.750657,0.041 1.126225,0.0564 0.358148,0.0144 0.71642,0.0252 1.074727,0.0347 0.340103,0.009 0.680265,0.0154 1.020432,0.0212 0.336976,0.0108 0.673669,0.0287 1.01051,0.0428 0.316798,0.009 0.63315,0.0259 0.94943,0.0459 0.314063,0.0181 0.627161,0.0494 0.939512,0.0862 0.159565,0.0203 0.318251,0.0464 0.476835,0.0731 1.967478,0.33391 1.495263,3.11634 -0.472218,2.78243 v 0 c -0.111699,-0.0192 -0.223536,-0.0373 -0.335822,-0.0528 -0.261419,-0.031 -0.523455,-0.0575 -0.786347,-0.0723 -0.296522,-0.0188 -0.593072,-0.0342 -0.890096,-0.0428 -0.313401,-0.0132 -0.626679,-0.0292 -0.940146,-0.0408 -0.348957,-0.006 -0.697902,-0.0126 -1.046793,-0.0218 -0.37211,-0.01 -0.744182,-0.0211 -1.116126,-0.0361 -0.396869,-0.0163 -0.793668,-0.0347 -1.190098,-0.0598 -0.400908,-0.0256 -0.801532,-0.0551 -1.202076,-0.0859 -0.423178,-0.0262 -0.846104,-0.0559 -1.268717,-0.0901 -0.421455,-0.0318 -0.843473,-0.0572 -1.265526,-0.0795 -0.446159,-0.0229 -0.892183,-0.0489 -1.338792,-0.0618 -0.462724,-0.0174 -0.925462,-0.0314 -1.388496,-0.0377 -0.466751,-0.0103 -0.933535,-0.0247 -1.400437,-0.0236 -0.477927,-7e-5 -0.955855,-1.6e-4 -1.433785,-2.6e-4 -0.470881,-1.3e-4 -0.941766,-2.7e-4 -1.41265,-5.3e-4 -0.452654,-2.1e-4 -0.905309,-5.3e-4 -1.357963,-7.9e-4 -0.431348,-2.7e-4 -0.862695,-8e-4 -1.294046,-10e-4 -0.410612,-5.3e-4 -0.821224,-0.001 -1.231839,-0.002 -0.389342,-8e-4 -0.778684,-0.002 -1.168024,-0.004 -0.358712,-0.002 -0.717423,-0.003 -1.076127,-0.006 -0.327109,-0.002 -0.654216,-0.005 -0.981307,-0.01 -0.296281,-0.004 -0.592561,-0.009 -0.888786,-0.0161 -0.263782,-0.007 -0.527563,-0.0143 -0.791128,-0.0273 -0.231513,-0.0119 -0.463002,-0.0253 -0.693783,-0.0477 -0.189859,-0.0191 -0.379407,-0.0412 -0.567883,-0.0713 -0.133149,-0.021 -0.268269,-0.0296 -0.401206,-0.0527 -0.10782,-0.0112 -0.218302,-0.0207 -0.326718,-0.0361 -1.975556,-0.28222 -1.576432,-3.07608 0.399121,-2.79386 z"
       inkscape:connector-curvature="0" />
    <path
       style="fill:#ffffff;fill-opacity:1;fill-rule:nonzero;stroke:none;stroke-width:0.26458332"
       id="path6073"
       d="m 36.099001,272.62752 c -0.01572,0.052 -0.02643,0.1054 -0.03787,0.15849 -0.0099,0.0383 -0.03196,0.21671 -0.01008,0.043 0.0024,-0.0463 0.0055,0.15737 0.0058,0.16813 0.0026,0.10754 0.0043,0.2151 0.0058,0.32267 0.0046,0.16012 -0.01217,0.31964 -0.02431,0.47906 -0.01595,0.19022 -0.04875,0.37816 -0.07987,0.56627 -0.03799,0.21798 -0.09055,0.43292 -0.14415,0.64745 -0.06214,0.24677 -0.143097,0.48806 -0.221544,0.72994 -0.08951,0.26567 -0.183173,0.52986 -0.283038,0.79182 -0.104002,0.28762 -0.21812,0.57141 -0.338132,0.85267 -0.127352,0.29175 -0.249814,0.5855 -0.379894,0.87606 -0.145336,0.33238 -0.310311,0.65541 -0.478663,0.97655 -0.167595,0.3253 -0.347591,0.64391 -0.525169,0.9638 -0.197379,0.35396 -0.409675,0.69919 -0.627113,1.04109 -0.224678,0.35575 -0.463356,0.70243 -0.707604,1.04495 -0.256704,0.37057 -0.534072,0.72561 -0.81983,1.07402 -0.292468,0.36297 -0.599371,0.71361 -0.915577,1.05597 -0.325795,0.35438 -0.663242,0.69735 -1.008044,1.03315 -0.358013,0.34885 -0.733309,0.67879 -1.111972,1.00482 -0.399857,0.33715 -0.808729,0.66327 -1.226818,0.97746 -0.425508,0.32317 -0.869248,0.6212 -1.314795,0.91576 -0.459936,0.30074 -0.931927,0.58242 -1.409419,0.85422 -0.490167,0.27251 -0.988592,0.52981 -1.491292,0.77831 -0.510476,0.25078 -1.030669,0.48085 -1.553167,0.70521 -0.518844,0.22154 -1.043086,0.43005 -1.568572,0.63522 -0.528969,0.2069 -1.061172,0.40505 -1.597331,0.59248 -0.532887,0.18778 -1.071087,0.35986 -1.610921,0.52644 -0.526741,0.16542 -1.058023,0.31529 -1.590925,0.45938 -0.529107,0.14169 -1.063696,0.26075 -1.59878,0.3772 -0.524311,0.11566 -1.053727,0.20498 -1.584599,0.28415 -0.4365,0.0675 -0.876169,0.10805 -1.316331,0.14182 -1.9898413,0.15166 -2.2043202,-2.6624 -0.214479,-2.81406 v 0 c 0.372974,-0.0282 0.745551,-0.0617 1.115364,-0.11924 0.469013,-0.0696 0.936764,-0.14813 1.399935,-0.25035 0.489348,-0.10649 0.978402,-0.21464 1.462366,-0.34394 0.501047,-0.13543 1.000615,-0.27612 1.495795,-0.43187 0.506614,-0.15611 1.011631,-0.3176 1.511668,-0.4938 0.504207,-0.17608 1.004506,-0.36275 1.501928,-0.55721 0.496346,-0.19373 0.991559,-0.39051 1.481673,-0.59962 0.47641,-0.20441 0.950831,-0.41378 1.41637,-0.64211 0.453765,-0.224 0.90348,-0.45628 1.346273,-0.70134 0.422947,-0.2402 0.840697,-0.48971 1.248271,-0.75531 0.398835,-0.26354 0.796595,-0.52946 1.177319,-0.81888 0.368084,-0.27557 0.726718,-0.56334 1.07912,-0.8587 0.335074,-0.28845 0.667864,-0.57954 0.984647,-0.88824 0.309398,-0.30109 0.612124,-0.60863 0.904248,-0.92662 0.279008,-0.30157 0.549211,-0.61091 0.80677,-0.93111 0.245835,-0.2991 0.484161,-0.60405 0.704091,-0.92293 0.215648,-0.30171 0.425899,-0.60745 0.624003,-0.92102 0.187384,-0.29388 0.370049,-0.59082 0.540208,-0.89508 0.166727,-0.30033 0.336082,-0.59927 0.493311,-0.90476 0.141443,-0.2696 0.281008,-0.54031 0.402478,-0.81967 0.123754,-0.27601 0.239483,-0.55541 0.360805,-0.83247 0.106032,-0.24683 0.204777,-0.49673 0.296296,-0.74931 0.08317,-0.21727 0.160406,-0.43665 0.235381,-0.65687 0.05851,-0.17987 0.119904,-0.35896 0.16764,-0.5421 0.03533,-0.14139 0.07122,-0.28268 0.09815,-0.42597 0.0177,-0.10613 0.03763,-0.21175 0.04989,-0.31866 0.008,-0.10477 0.01876,-0.19139 0.01638,-0.2252 -0.0013,-0.0982 -0.003,-0.19644 -0.0053,-0.29464 -0.0031,-0.13081 -0.0079,-0.26173 -0.0021,-0.39255 0.01418,-0.16181 0.0328,-0.32265 0.06928,-0.48124 0.02453,-0.1134 0.0501,-0.22665 0.08285,-0.33802 0.548238,-1.91883 3.261871,-1.14351 2.713636,0.77532 z"
       inkscape:connector-curvature="0" />
    <path
       style="fill:#ffffff;fill-opacity:1;fill-rule:nonzero;stroke:none;stroke-width:0.26458332"
       id="path6075"
       d="m 24.981526,274.86319 c 0.09167,0 0.183331,0 0.274996,0 0.115465,0 0.230929,0 0.346394,0 0.152375,-7.9e-4 0.304603,-5.2e-4 0.456885,0.005 0.174258,0.0115 0.34855,0.0227 0.522407,0.0392 0.186907,0.0191 0.372856,0.0452 0.558684,0.0727 0.212032,0.0265 0.421288,0.0701 0.630846,0.1111 0.237538,0.0475 0.47271,0.10542 0.707549,0.16454 0.258942,0.0674 0.516945,0.13829 0.772482,0.21765 0.273378,0.0805 0.541269,0.1779 0.808951,0.27534 0.287631,0.10664 0.568089,0.23119 0.849714,0.3525 0.294892,0.12537 0.582274,0.26717 0.868863,0.41023 0.29215,0.14799 0.580064,0.30416 0.866693,0.46253 0.286845,0.15866 0.572365,0.31971 0.856747,0.48275 0.289195,0.1657 0.577887,0.33229 0.865574,0.5006 0.274952,0.1652 0.557006,0.31792 0.837427,0.47349 0.308782,0.17671 0.613344,0.36068 0.917747,0.5448 0.300546,0.18194 0.600972,0.36419 0.895911,0.55512 0.289272,0.19051 0.571527,0.39119 0.853763,0.59186 0.267597,0.18878 0.529056,0.38595 0.787405,0.58712 0.237858,0.18734 0.468075,0.38436 0.694981,0.58478 0.175493,0.1539 0.345787,0.31342 0.516057,0.47301 0.09486,0.0857 0.186613,0.17468 0.276929,0.26517 1.40739,1.41483 -0.593474,3.40518 -2.000862,1.99035 v 0 c -0.06726,-0.068 -0.136662,-0.1336 -0.207592,-0.19782 -0.149648,-0.14063 -0.299571,-0.28094 -0.453961,-0.41644 -0.182944,-0.16197 -0.368647,-0.32113 -0.560197,-0.47285 -0.225706,-0.17601 -0.454274,-0.34832 -0.688224,-0.51327 -0.250134,-0.17787 -0.500015,-0.3561 -0.756068,-0.52544 -0.268785,-0.17563 -0.545057,-0.33955 -0.819025,-0.50689 -0.27418,-0.16593 -0.548654,-0.33146 -0.826188,-0.49173 -0.299231,-0.16608 -0.600065,-0.32938 -0.893593,-0.5055 -0.280525,-0.16423 -0.562169,-0.32656 -0.844183,-0.48821 -0.271547,-0.15582 -0.54434,-0.30947 -0.818263,-0.46108 -0.251936,-0.13942 -0.505127,-0.27669 -0.761741,-0.40734 -0.239286,-0.1195 -0.478808,-0.23887 -0.72512,-0.34344 -0.231843,-0.1 -0.462632,-0.20282 -0.698703,-0.29251 -0.227127,-0.0828 -0.454187,-0.16622 -0.686414,-0.23387 -0.204087,-0.0648 -0.411409,-0.11867 -0.618189,-0.1741 -0.185999,-0.0468 -0.372059,-0.0935 -0.560107,-0.13159 -0.166835,-0.0326 -0.333205,-0.0688 -0.502166,-0.089 -0.144145,-0.0213 -0.288145,-0.0425 -0.433197,-0.057 -0.120807,-0.017 -0.244198,-0.014 -0.365449,-0.0276 -0.108185,-0.003 -0.217649,-0.002 -0.326373,-0.002 -0.115465,0 -0.230929,0 -0.346394,0 -0.09166,0 -0.18333,0 -0.274996,0 -1.995612,0 -1.995612,-2.82222 0,-2.82222 z"
       inkscape:connector-curvature="0" />
  </g>
</svg>
