<?xml version="1.0" encoding="UTF-8" standalone="no"?>
<!-- Created with Inkscape (http://www.inkscape.org/) -->

<svg
   xmlns:dc="http://purl.org/dc/elements/1.1/"
   xmlns:cc="http://creativecommons.org/ns#"
   xmlns:rdf="http://www.w3.org/1999/02/22-rdf-syntax-ns#"
   xmlns:svg="http://www.w3.org/2000/svg"
   xmlns="http://www.w3.org/2000/svg"
   xmlns:sodipodi="http://sodipodi.sourceforge.net/DTD/sodipodi-0.dtd"
   xmlns:inkscape="http://www.inkscape.org/namespaces/inkscape"
   width="64mm"
   height="64mm"
   viewBox="0 0 64 64"
   version="1.1"
   id="svg8"
   sodipodi:docname="art.svg"
   inkscape:version="0.92.5 (2060ec1f9f, 2020-04-08)">
  <defs
     id="defs2" />
  <sodipodi:namedview
     id="base"
     pagecolor="#ffffff"
     bordercolor="#666666"
     borderopacity="1.0"
     inkscape:pageopacity="0.0"
     inkscape:pageshadow="2"
     inkscape:zoom="3"
     inkscape:cx="-15.340318"
     inkscape:cy="115.27027"
     inkscape:document-units="mm"
     inkscape:current-layer="layer1"
     showgrid="false"
     inkscape:snap-page="true"
     inkscape:window-width="1920"
     inkscape:window-height="1016"
     inkscape:window-x="0"
     inkscape:window-y="27"
     inkscape:window-maximized="1"
     units="mm" />
  <metadata
     id="metadata5">
    <rdf:RDF>
      <cc:Work
         rdf:about="">
        <dc:format>image/svg+xml</dc:format>
        <dc:type
           rdf:resource="http://purl.org/dc/dcmitype/StillImage" />
        <dc:title />
      </cc:Work>
    </rdf:RDF>
  </metadata>
  <g
     inkscape:label="Layer 1"
     inkscape:groupmode="layer"
     id="layer1"
     transform="translate(0,-233)">
    <rect
       style="fill:#03a9f4;fill-opacity:1;stroke-width:0.26458332"
       id="rect3713"
       width="64"
       height="64"
       x="0"
       y="233" />
    <path
       style="fill:#ffffff;fill-opacity:1;fill-rule:nonzero;stroke:none;stroke-width:0.26458332"
       id="path1079"
       d="m 1.6177909,292.19705 c 0.020458,-0.0132 0.1504761,-0.10458 0.066665,-0.0475 -0.014522,0.0127 -0.029044,0.0255 -0.043567,0.0382 -5.107e-4,1.5e-4 -0.00187,8e-4 -0.00153,5.3e-4 0.00508,-0.006 0.021952,-0.0229 0.015907,-0.0178 -0.013026,0.0111 -0.044182,0.05 -0.051012,0.0581 0.0709,-0.12198 -0.020315,0.0584 0.054279,-0.10744 0.036938,-0.0947 0.071813,-0.19013 0.1075703,-0.28528 0.046335,-0.1314 0.086812,-0.26463 0.1275799,-0.39784 0.057054,-0.18452 0.1110024,-0.36989 0.1607661,-0.55651 0.067473,-0.24216 0.1352163,-0.48426 0.1997249,-0.72723 0.078931,-0.28927 0.152561,-0.57992 0.2329557,-0.86879 0.08647,-0.3111 0.1681209,-0.6235 0.2493517,-0.936 0.096605,-0.35484 0.1861807,-0.71153 0.2806393,-1.06694 0.1000591,-0.38251 0.1947175,-0.76636 0.2968191,-1.14834 0.1067422,-0.41003 0.2139212,-0.81995 0.3222834,-1.22956 0.119312,-0.44155 0.235367,-0.8839 0.3594137,-1.32415 0.1244098,-0.46269 0.2515524,-0.92458 0.3850143,-1.38474 0.1398892,-0.47536 0.2720925,-0.95293 0.4093755,-1.42905 0.1456166,-0.50519 0.2990966,-1.00804 0.4511696,-1.51131 0.1578205,-0.52433 0.3191425,-1.04759 0.4819549,-1.57039 0.1657245,-0.52277 0.3281069,-1.04653 0.4854104,-1.57188 0.1588802,-0.53842 0.3199202,-1.07618 0.4833054,-1.61325 0.1627495,-0.53799 0.3325003,-1.0738 0.5046427,-1.60884 0.1655509,-0.51321 0.3218193,-1.02936 0.4832167,-1.54389 0.1592226,-0.50624 0.3257021,-1.01012 0.4854025,-1.5162 0.1536565,-0.49056 0.3141295,-0.97893 0.4698466,-1.46884 0.1488048,-0.47726 0.3109608,-0.95017 0.4668639,-1.42512 0.1494663,-0.46602 0.3060197,-0.92972 0.4682077,-1.39146 0.1555514,-0.43953 0.3051265,-0.88111 0.4615818,-1.32032 0.156823,-0.42373 0.311895,-0.84808 0.467524,-1.27224 0.153421,-0.40689 0.307075,-0.81374 0.464477,-1.21911 0.136838,-0.36091 0.276223,-0.72084 0.412016,-1.08214 0.118438,-0.30963 0.229775,-0.62196 0.333811,-0.93671 0.09186,-0.26433 0.177595,-0.53062 0.253837,-0.79987 0.06807,-0.22454 0.131546,-0.45033 0.186671,-0.6784 0.04235,-0.18043 0.07697,-0.36257 0.108297,-0.5452 0.02704,-0.15877 0.04804,-0.31842 0.06741,-0.47826 0.01879,-0.17521 0.05017,-0.34872 0.07568,-0.52301 0.01998,-0.16177 0.05035,-0.3219 0.07851,-0.48237 0.02308,-0.15126 0.05608,-0.30064 0.08798,-0.45021 0.01945,-0.0915 0.03494,-0.1837 0.0492,-0.27611 0.01775,-0.13325 0.0519,-0.26336 0.08177,-0.39417 0.01488,-0.0526 0.0523,-0.28628 0.0156,-0.0549 -0.0052,0.0978 -0.0051,-0.0271 -0.0055,-0.0488 -0.0013,-0.06 -0.0024,-0.11993 -0.0034,-0.1799 -9.53e-4,-0.0587 -0.0016,-0.11749 -0.0022,-0.17623 -6.08e-4,-0.0604 -9.78e-4,-0.12075 -0.0013,-0.18112 -3.7e-4,-0.0636 -5.82e-4,-0.12717 -7.94e-4,-0.19075 -0.0039,-0.13665 0.0056,-0.27272 0.0238,-0.40814 0.0086,-0.0572 0.02005,-0.11398 0.02833,-0.17124 0.0055,-0.0343 0.0088,-0.0688 0.0125,-0.10332 0.0039,-0.0365 0.0077,-0.073 0.01148,-0.10955 -0.0023,0.0222 0.0023,-0.0386 0.0029,-0.0481 0.0015,-0.0214 0.0029,-0.0428 0.0043,-0.0642 9e-4,-0.0133 0.0018,-0.0266 0.0027,-0.0399 0.196982,-1.69686 1.556129,-1.50973 2.265137,-1.0481 -0.0446,-0.0306 0.09572,0.0661 0.07103,0.0507 -0.05448,-0.034 -0.216808,-0.13757 -0.161984,-0.10417 0.10863,0.0662 0.201814,0.12873 0.296368,0.21002 0.04817,0.0277 0.31292,0.33178 0.178903,0.17643 0.0828,0.0899 0.155408,0.1882 0.227663,0.28652 0.0712,0.10596 0.10464,0.15676 0.139818,0.20958 0.06128,0.0976 0.116725,0.1916 0.180526,0.30064 0.06674,0.10436 0.117465,0.21773 0.179162,0.32491 0.07035,0.12679 0.138289,0.25488 0.20751,0.38229 0.08947,0.17449 0.174803,0.35106 0.258753,0.52826 0.08818,0.17684 0.171676,0.35592 0.256727,0.53427 0.09958,0.21286 0.196722,0.42682 0.295628,0.63999 0.108638,0.23548 0.212878,0.47293 0.319823,0.70917 0.120653,0.276 0.2393,0.55287 0.351128,0.83257 0.116997,0.29197 0.227729,0.58636 0.336644,0.88142 0.108326,0.30948 0.219762,0.61787 0.325988,0.92808 0.108091,0.31511 0.216791,0.63002 0.322856,0.94582 0.107038,0.32128 0.21883,0.64091 0.329057,0.96109 0.116756,0.33055 0.231761,0.66168 0.34717,0.99271 0.120196,0.34576 0.244246,0.69014 0.366409,1.03519 0.128569,0.35625 0.247076,0.71598 0.373382,1.07303 0.127688,0.37927 0.259446,0.75711 0.386523,1.13659 0.128238,0.38738 0.257406,0.77451 0.383612,1.16256 0.131528,0.39998 0.259447,0.80114 0.382947,1.20368 0.127383,0.41118 0.252373,0.82313 0.372823,1.2364 0.122035,0.41841 0.244286,0.83678 0.363733,1.25595 0.12112,0.42793 0.236925,0.85735 0.353106,1.28664 0.113732,0.43773 0.23028,0.8747 0.340953,1.31321 0.10921,0.43342 0.22145,0.86606 0.331926,1.29915 0.11112,0.43774 0.220406,0.87594 0.331014,1.31381 0.114066,0.43079 0.21999,0.86365 0.330773,1.29528 0.11328,0.44199 0.220295,0.88552 0.326584,1.32923 0.10738,0.43653 0.213718,0.87333 0.316552,1.31095 0.105611,0.43537 0.196607,0.87406 0.292162,1.3117 0.08981,0.42213 0.183913,0.84334 0.271483,1.26596 0.08344,0.3996 0.166194,0.79934 0.251569,1.19854 0.07784,0.37414 0.156594,0.74812 0.239431,1.12119 0.07886,0.35415 0.154241,0.70906 0.231437,1.06357 0.07132,0.32715 0.138827,0.65511 0.209947,0.9823 0.06997,0.31568 0.127541,0.63388 0.189053,0.95127 0.05758,0.29896 0.102943,0.60002 0.153656,0.90017 0.05063,0.29388 0.09065,0.58938 0.126138,0.88541 0.03248,0.27221 0.05632,0.54531 0.07799,0.81856 0.01797,0.23364 0.0329,0.4675 0.04615,0.70146 0.0105,0.18564 0.01916,0.37137 0.02753,0.55712 0.0083,0.15488 0.01413,0.30962 0.01413,0.46469 -2.65e-4,0.24286 -0.05537,0.47677 -0.137904,0.70375 -0.288038,0.60654 -0.7638,0.90467 -1.433541,0.92825 -0.0925,-0.011 -0.184999,-0.022 -0.277498,-0.033 -1.955526,-0.39798 -1.392695,-3.16351 0.562831,-2.76553 v 0 c -0.07651,-0.008 -0.153029,-0.0155 -0.229544,-0.0232 -0.575867,0.029 -0.995462,0.30204 -1.235094,0.82666 -0.02491,0.0722 -0.08451,0.27291 -0.07085,0.3036 6.88e-4,0.0139 0.0024,0.0558 0.0021,0.0418 -0.0027,-0.10665 -0.01063,-0.21317 -0.01395,-0.3198 -0.0079,-0.17506 -0.01601,-0.35011 -0.0259,-0.52507 -0.01202,-0.21285 -0.0256,-0.42562 -0.04186,-0.63819 -0.01862,-0.23573 -0.03891,-0.47137 -0.06683,-0.70621 -0.02989,-0.25085 -0.06368,-0.50124 -0.106649,-0.75022 -0.04694,-0.27785 -0.089,-0.55652 -0.141544,-0.83339 -0.05756,-0.29699 -0.111194,-0.59478 -0.176516,-0.89021 -0.07066,-0.32658 -0.138559,-0.65376 -0.209514,-0.98029 -0.07628,-0.35085 -0.151035,-0.70203 -0.229006,-1.05251 -0.08421,-0.38007 -0.164836,-0.76092 -0.243977,-1.14207 -0.08667,-0.40525 -0.170663,-0.81106 -0.255395,-1.21672 -0.08532,-0.41272 -0.177673,-0.82394 -0.265156,-1.23621 -0.09231,-0.42313 -0.180225,-0.84727 -0.28231,-1.2682 -0.10178,-0.43359 -0.207389,-0.86628 -0.313666,-1.29878 -0.10277,-0.42902 -0.206143,-0.8579 -0.315675,-1.28526 -0.111608,-0.43509 -0.218519,-0.87137 -0.333407,-1.30562 -0.110046,-0.43578 -0.218847,-0.87187 -0.329418,-1.30752 -0.111022,-0.4355 -0.223954,-0.87051 -0.333743,-1.30632 -0.106574,-0.42284 -0.21929,-0.84407 -0.328663,-1.26618 -0.112932,-0.41734 -0.225467,-0.8348 -0.343156,-1.25083 -0.117832,-0.41396 -0.238786,-0.82704 -0.359218,-1.24026 -0.11641,-0.40055 -0.238138,-0.79955 -0.361362,-1.19805 -0.118709,-0.38767 -0.242285,-0.77384 -0.368855,-1.15902 -0.12321,-0.38001 -0.250133,-0.75886 -0.375556,-1.13814 -0.122093,-0.3646 -0.248861,-0.72757 -0.371208,-1.09209 -0.126097,-0.3569 -0.244943,-0.71629 -0.373173,-1.07244 -0.123445,-0.34923 -0.24914,-0.69767 -0.370754,-1.04756 -0.116621,-0.33466 -0.232922,-0.66939 -0.35093,-1.00357 -0.112393,-0.32702 -0.226734,-0.65336 -0.33598,-0.98147 -0.104137,-0.31081 -0.211506,-0.62053 -0.317715,-0.93064 -0.09848,-0.28876 -0.203079,-0.57539 -0.303083,-0.86363 -0.100623,-0.27261 -0.20271,-0.54467 -0.310923,-0.81438 -0.0952,-0.2403 -0.198615,-0.47722 -0.300982,-0.71454 -0.102895,-0.22795 -0.203695,-0.45682 -0.308301,-0.68401 -0.09467,-0.20416 -0.187757,-0.40901 -0.282909,-0.61294 -0.08607,-0.18056 -0.17068,-0.36176 -0.259842,-0.54083 -0.06209,-0.13116 -0.125725,-0.26156 -0.189563,-0.39185 -0.06291,-0.11635 -0.125054,-0.23311 -0.189098,-0.34884 -0.05238,-0.0945 -0.09953,-0.19129 -0.155522,-0.28348 -0.01388,-0.0242 -0.161511,-0.27497 -0.09822,-0.1678 -0.150572,-0.22741 0.02954,0.0469 -0.100673,-0.15115 -0.0019,-0.003 0.0042,0.006 0.0063,0.008 0.114074,0.14733 -0.115268,-0.14211 0.02518,0.0248 -0.0241,-0.027 -0.09962,-0.1046 -0.0723,-0.0809 0.03522,0.0305 0.06409,0.0677 0.09613,0.10156 -0.01124,-0.0108 -0.02419,-0.0229 -0.0056,-0.006 0.06999,0.0587 0.303176,0.20387 0.226946,0.15355 -0.327868,-0.21639 -0.218407,-0.13956 -0.150019,-0.0923 0.766319,0.48769 0.859473,-0.33681 2.130694,-1.1119 0.0027,-0.002 -0.0036,0.0115 -6.35e-4,0.009 -8.99e-4,0.0133 -0.0018,0.0267 -0.0027,0.04 -0.0015,0.0223 -0.003,0.0446 -0.0045,0.067 -0.0034,0.0497 -0.0067,0.0994 -0.0116,0.14898 -0.0041,0.0395 -0.0082,0.079 -0.01243,0.11855 -0.0077,0.0718 -0.0158,0.14354 -0.02673,0.21492 -0.0093,0.0624 -0.01975,0.12471 -0.0307,0.1869 0.02144,-0.19856 0.0034,-0.1985 0.0089,-0.0297 2.03e-4,0.0615 3.97e-4,0.12301 7.67e-4,0.18451 3.18e-4,0.0564 6.62e-4,0.11285 0.0012,0.16928 5.03e-4,0.0527 0.0011,0.10542 0.002,0.15813 9e-4,0.056 0.002,0.11193 0.0032,0.16789 0.0024,0.11875 0.0049,0.23769 -0.005,0.35622 -0.01881,0.146 -0.03943,0.2912 -0.07554,0.43415 -0.02039,0.089 -0.037,0.1436 -0.04405,0.19727 -0.02252,0.14478 -0.04743,0.28918 -0.07797,0.43251 -0.02483,0.1164 -0.0518,0.23223 -0.06853,0.35017 -0.0237,0.13458 -0.05007,0.26864 -0.06593,0.40446 -0.02226,0.15079 -0.04938,0.30094 -0.06621,0.45245 -0.02512,0.20655 -0.05283,0.41278 -0.08793,0.61791 -0.04249,0.24524 -0.08925,0.48983 -0.147062,0.73198 -0.06423,0.26318 -0.135413,0.52451 -0.214421,0.78367 -0.08781,0.30788 -0.184084,0.61315 -0.28942,0.91552 -0.11619,0.35008 -0.239312,0.69788 -0.371161,1.04238 -0.139515,0.37096 -0.282444,0.74063 -0.423109,1.11116 -0.151162,0.38867 -0.298119,0.77901 -0.445588,1.1691 -0.152619,0.41587 -0.304493,0.832 -0.458524,1.24735 -0.155165,0.43529 -0.303101,0.87308 -0.457453,1.30865 -0.15589,0.44341 -0.305931,0.88885 -0.449493,1.33641 -0.153226,0.46635 -0.312301,0.93079 -0.458561,1.39942 -0.155132,0.48807 -0.314956,0.97461 -0.468096,1.46331 -0.159233,0.50452 -0.325013,1.00692 -0.483936,1.51154 -0.163466,0.5211 -0.321708,1.04384 -0.4894729,1.56358 -0.1675579,0.52076 -0.3328212,1.04224 -0.4911963,1.56588 -0.162229,0.53322 -0.3220616,1.06716 -0.4798282,1.60173 -0.1603761,0.53508 -0.3254531,1.06868 -0.4943491,1.60113 -0.1604541,0.5152 -0.3194322,1.03087 -0.4749538,1.54758 -0.1486193,0.49182 -0.2986653,0.98322 -0.4410141,1.47691 -0.1377286,0.47759 -0.2702893,0.95665 -0.4106526,1.43347 -0.1315461,0.45325 -0.2562133,0.90838 -0.379099,1.36406 -0.1200375,0.42565 -0.2319266,0.85345 -0.347445,1.28034 -0.1090398,0.41205 -0.2167908,0.82444 -0.3242392,1.23691 -0.1018759,0.3806 -0.1955792,0.76327 -0.2957465,1.14432 -0.093194,0.35032 -0.181266,0.70198 -0.2766401,1.05173 -0.085431,0.32866 -0.1714275,0.65718 -0.2623823,0.98436 -0.077752,0.27789 -0.1476226,0.55788 -0.2240571,0.83613 -0.065222,0.24467 -0.1328105,0.4887 -0.2011362,0.73252 -0.058801,0.2184 -0.1212382,0.43572 -0.1881166,0.65178 -0.058507,0.19099 -0.117688,0.38182 -0.1862376,0.56951 -0.060719,0.15886 -0.116844,0.31969 -0.1871869,0.47472 -0.076024,0.16234 -0.1547265,0.32416 -0.2572483,0.47184 -0.1247621,0.18606 -0.2664153,0.35929 -0.435198,0.50752 -0.1091909,0.0926 -0.2230578,0.17924 -0.3430934,0.2574 -1.6604499,1.10697 -3.22593705,-1.24126 -1.5654871,-2.34823 z"
       inkscape:connector-curvature="0" />
    <path
       style="fill:#ffffff;fill-opacity:1;fill-rule:nonzero;stroke:none;stroke-width:0.26458332"
       id="path1081"
       d="m 9.3096124,271.28277 c 0.038402,0.0202 0.068078,0.0278 0.096453,0.0361 0.039095,0.0121 0.079988,0.0166 0.1202661,0.0231 0.080321,0.0124 0.1613519,0.019 0.2423456,0.025 0.1108115,0.0116 0.2217518,0.004 0.3329669,0.002 0.180609,-5.3e-4 0.360571,-0.0113 0.540698,-0.023 0.232556,-0.0113 0.46422,-0.0346 0.696229,-0.0534 0.272592,-0.0209 0.544435,-0.0502 0.81685,-0.0733 0.297402,-0.0316 0.5951,-0.06 0.893137,-0.0848 0.317659,-0.0258 0.635853,-0.0441 0.954116,-0.0604 0.307661,-0.0153 0.615513,-0.0263 0.923393,-0.0362 0.285737,-0.009 0.571536,-0.0157 0.857349,-0.0217 0.258842,-0.005 0.517705,-0.009 0.776574,-0.0131 0.205403,0.001 0.410279,-0.007 0.61525,-0.0188 0.212106,-0.0132 0.424323,-0.0243 0.636607,-0.0342 0.207675,-0.01 0.415329,-0.0188 0.623239,-0.0194 0.18024,0.003 0.360345,0.0114 0.540473,0.0184 0.149628,0.007 0.298149,0.0256 0.446302,0.0467 1.97283,0.30068 1.547607,3.09068 -0.425224,2.79 v 0 c -0.04169,-0.0121 -0.08665,-0.007 -0.129034,-0.0165 -0.148237,-0.006 -0.296456,-0.012 -0.44474,-0.0163 -0.160072,-0.006 -0.320618,0.0147 -0.480648,0.0164 -0.200763,0.009 -0.401457,0.0199 -0.602049,0.0324 -0.246418,0.0144 -0.492893,0.0236 -0.739781,0.0233 -0.252722,0.004 -0.505439,0.008 -0.758135,0.0127 -0.275487,0.006 -0.55096,0.0122 -0.826373,0.0208 -0.289573,0.009 -0.579121,0.0195 -0.868491,0.0339 -0.28845,0.0148 -0.576845,0.0312 -0.864757,0.0544 -0.296599,0.0246 -0.59274,0.0539 -0.88878,0.0844 -0.275744,0.0233 -0.550867,0.0534 -0.826816,0.0742 -0.24715,0.02 -0.493974,0.0445 -0.741689,0.0568 -0.217795,0.0141 -0.435606,0.0262 -0.653918,0.0281 -0.2061553,0.005 -0.4127104,0.0104 -0.6183737,-0.009 -0.1609127,-0.0125 -0.3217127,-0.0276 -0.4811048,-0.0536 -0.1611331,-0.0265 -0.3217717,-0.0573 -0.4780227,-0.10562 -0.134465,-0.0414 -0.2678182,-0.0866 -0.3960405,-0.14495 -1.8342573,-0.78611 -0.7225295,-3.38014 1.1117278,-2.59403 z"
       inkscape:connector-curvature="0" />
    <path
       style="fill:#ffffff;fill-opacity:1;fill-rule:nonzero;stroke:none;stroke-width:0.26458332"
       id="path1099"
       d="m 30.587214,273.97705 c 0.05857,0.14395 0.10627,0.29221 0.153175,0.44031 0.04383,0.14719 0.08861,0.29408 0.131969,0.44142 0.05425,0.1879 0.105122,0.37671 0.154967,0.56582 0.06202,0.25183 0.117948,0.50507 0.16597,0.75993 0.05746,0.2822 0.101486,0.56682 0.147397,0.85104 0.05561,0.35101 0.09259,0.70455 0.133667,1.05745 0.04266,0.39216 0.08096,0.78481 0.118907,1.17746 0.04037,0.41829 0.07828,0.83683 0.119454,1.25504 0.04179,0.44105 0.08445,0.88201 0.126129,1.32308 0.03885,0.43506 0.0832,0.86961 0.13003,1.30388 0.04361,0.42683 0.08721,0.85366 0.13072,1.28051 0.03664,0.39876 0.07528,0.79729 0.114893,1.19577 0.03766,0.3773 0.06768,0.75528 0.09443,1.13349 0.02347,0.33668 0.04167,0.67369 0.05805,1.01077 0.01376,0.28733 0.02487,0.57478 0.03494,0.86226 0.0085,0.24419 0.01503,0.48845 0.02114,0.73271 0.0049,0.19627 0.0089,0.39256 0.01275,0.58886 0.0029,0.14845 0.0053,0.2969 0.0077,0.44535 0.0016,0.0986 0.0031,0.19719 0.0047,0.29578 0.0011,0.0601 0.0019,0.12025 0.0028,0.18038 5.29e-4,0.0304 7.94e-4,0.0608 0.0016,0.0912 0.0511,-1.02851 -2.827046,0.97696 -2.820159,-0.0563 2.65e-4,-0.0739 2.65e-4,-0.14771 5.29e-4,-0.22157 -1.51e-4,0.0127 0.0013,0.0256 -5.29e-4,0.0381 -1.14e-4,8e-4 -0.0013,-0.0107 -0.0067,-0.0694 -0.0065,-0.0715 -0.0123,-0.14293 -0.01762,-0.21449 -0.0064,-0.14669 -0.01934,-0.29257 -0.0335,-0.43865 -0.01775,-0.1868 -0.02956,-0.37399 -0.04937,-0.56059 -0.01939,-0.21164 -0.04323,-0.42268 -0.06801,-0.63374 -0.03215,-0.2235 -0.06202,-0.44726 -0.0954,-0.67057 -0.04049,-0.23419 -0.08024,-0.46845 -0.126841,-0.70151 -0.05125,-0.27038 -0.106275,-0.53997 -0.163274,-0.80918 -0.05958,-0.2976 -0.125815,-0.5938 -0.185891,-0.8913 -0.06398,-0.32532 -0.12622,-0.65081 -0.178575,-0.97824 -0.05545,-0.35903 -0.0967,-0.72006 -0.124521,-1.08223 -0.02737,-0.37913 -0.03127,-0.75907 -0.03,-1.13898 0.0043,-0.40187 0.0408,-0.80242 0.08574,-1.20149 0.04992,-0.40263 0.125966,-0.80124 0.216691,-1.19647 0.09172,-0.39354 0.215585,-0.77828 0.35034,-1.15887 0.131842,-0.37836 0.293511,-0.74448 0.470398,-1.10362 0.172992,-0.35269 0.377145,-0.68873 0.592299,-1.01696 0.216786,-0.3204 0.457909,-0.62317 0.710139,-0.91613 0.244369,-0.28251 0.516945,-0.53826 0.792601,-0.7896 0.283793,-0.25824 0.590675,-0.48886 0.906971,-0.70535 0.305303,-0.21351 0.630105,-0.39603 0.959419,-0.56927 0.327393,-0.17459 0.668279,-0.3207 1.012626,-0.45792 0.356074,-0.14261 0.723226,-0.25297 1.094259,-0.34871 0.3625,-0.0912 0.731176,-0.15357 1.100444,-0.20973 0.379013,-0.0548 0.761386,-0.073 1.14372,-0.0838 0.369554,-0.006 0.738888,0.007 1.107456,0.0331 0.352414,0.0249 0.70255,0.073 1.051517,0.1269 1.971956,0.30637 1.538674,3.09514 -0.433279,2.78876 v 0 c -0.273264,-0.0428 -0.54747,-0.0811 -0.823494,-0.10091 -0.274172,-0.0208 -0.548992,-0.0287 -0.823955,-0.0267 -0.266949,0.007 -0.533956,0.0168 -0.798912,0.053 -0.276132,0.0417 -0.552106,0.0865 -0.823468,0.15343 -0.254624,0.0644 -0.506405,0.13941 -0.750628,0.23684 -0.253386,0.1007 -0.50505,0.20599 -0.745591,0.33517 -0.23377,0.12205 -0.464931,0.2498 -0.680778,0.40201 -0.207764,0.14064 -0.409133,0.29099 -0.595508,0.45932 -0.194278,0.17687 -0.388729,0.35459 -0.561626,0.55294 -0.172783,0.19641 -0.33343,0.40338 -0.483886,0.61736 -0.152831,0.23135 -0.29809,0.4683 -0.420555,0.71735 -0.129029,0.25939 -0.246002,0.52411 -0.341053,0.79808 -0.0997,0.27873 -0.191373,0.5606 -0.259723,0.84887 -0.06783,0.29068 -0.12341,0.58407 -0.162309,0.8801 -0.03421,0.29628 -0.06215,0.59374 -0.06765,0.89211 -0.0011,0.30712 5.29e-4,0.61423 0.0223,0.92077 0.01971,0.28355 0.0557,0.56576 0.09712,0.84689 0.04584,0.2895 0.101989,0.577 0.158099,0.86465 0.05794,0.28848 0.122875,0.5755 0.180272,0.86409 0.05945,0.28079 0.116877,0.56198 0.17041,0.84396 0.05476,0.27713 0.103338,0.55536 0.149884,0.83398 0.03777,0.25266 0.072,0.50579 0.10718,0.75882 0.02606,0.22195 0.05104,0.44395 0.07165,0.66648 0.02045,0.1947 0.03463,0.38982 0.05183,0.58481 0.01624,0.16779 0.03124,0.3356 0.03906,0.50403 0.01093,0.15175 0.02981,0.30295 0.03234,0.45523 -7.9e-5,0.0797 -1.24e-4,0.15931 -5.29e-4,0.23896 -0.0077,1.03069 -2.885705,1.16368 -2.823469,0.1009 -7.94e-4,-0.0373 -0.0013,-0.0747 -0.0019,-0.11199 -0.0011,-0.0601 -0.0019,-0.12022 -0.0028,-0.18033 -0.0016,-0.0982 -0.0031,-0.19646 -0.0046,-0.2947 -0.0024,-0.14509 -0.0048,-0.29017 -0.0075,-0.43525 -0.0038,-0.19115 -0.0076,-0.38229 -0.01241,-0.57341 -0.0059,-0.23492 -0.01214,-0.46983 -0.02032,-0.70468 -0.0096,-0.27476 -0.02021,-0.5495 -0.03335,-0.82412 -0.01534,-0.31644 -0.03237,-0.63281 -0.05436,-0.94886 -0.02479,-0.35142 -0.05264,-0.70262 -0.08761,-1.05319 -0.03936,-0.39614 -0.07789,-0.79232 -0.114186,-1.18876 -0.04293,-0.42136 -0.08601,-0.8427 -0.128997,-1.26406 -0.04816,-0.44666 -0.09376,-0.89361 -0.13379,-1.34108 -0.04131,-0.43759 -0.08367,-0.87507 -0.125126,-1.31265 -0.04113,-0.41974 -0.07942,-0.83978 -0.119896,-1.25959 -0.03612,-0.37432 -0.07273,-0.74863 -0.113059,-1.12252 -0.03625,-0.31156 -0.06851,-0.62374 -0.116497,-0.93378 -0.04218,-0.26138 -0.08231,-0.52318 -0.135485,-0.78263 -0.03469,-0.18813 -0.07728,-0.37456 -0.12124,-0.56072 -0.04269,-0.16299 -0.08662,-0.3256 -0.133175,-0.48753 -0.03845,-0.13108 -0.07818,-0.26178 -0.117168,-0.39268 -0.0177,-0.0578 -0.0584,-0.11277 -0.05431,-0.1731 -0.786109,-1.83426 1.807922,-2.94599 2.594033,-1.11173 z"
       inkscape:connector-curvature="0" />
    <path
       style="fill:#ffffff;fill-opacity:1;fill-rule:nonzero;stroke:none;stroke-width:0.26458332"
       id="path1105"
       d="m 53.561501,260.63308 c -0.0421,0.13766 -0.09872,0.26988 -0.153115,0.40289 -0.05515,0.12865 -0.112162,0.25643 -0.171923,0.383 -0.06507,0.13939 -0.137549,0.27524 -0.209778,0.41102 -0.0697,0.13313 -0.138126,0.26693 -0.207589,0.40019 -0.08274,0.14845 -0.160703,0.29945 -0.236215,0.45167 -0.08783,0.1752 -0.172556,0.35196 -0.257728,0.52849 -0.0895,0.18513 -0.169389,0.3746 -0.251635,0.563 -0.08792,0.20586 -0.169359,0.41434 -0.25182,0.62242 -0.08787,0.23215 -0.175834,0.46426 -0.26236,0.69692 -0.0971,0.25793 -0.193797,0.51601 -0.290166,0.77423 -0.102164,0.27513 -0.200382,0.55171 -0.303115,0.82662 -0.103627,0.27538 -0.197818,0.55408 -0.290877,0.83317 -0.103259,0.29593 -0.200412,0.59373 -0.292717,0.89323 -0.0894,0.30216 -0.178665,0.60439 -0.258474,0.90925 -0.08285,0.31387 -0.160671,0.62916 -0.23305,0.94562 -0.0748,0.31892 -0.144944,0.63899 -0.209773,0.96009 -0.06418,0.33121 -0.125293,0.66298 -0.186338,0.99478 -0.05879,0.34428 -0.126809,0.68687 -0.188915,1.03054 -0.06715,0.35275 -0.12854,0.70654 -0.196239,1.05919 -0.0667,0.34705 -0.129169,0.69486 -0.19214,1.0426 -0.06298,0.34527 -0.114117,0.69252 -0.169101,1.03912 -0.05194,0.32294 -0.09074,0.64772 -0.124854,0.97296 -0.03337,0.31973 -0.0573,0.64032 -0.07894,0.96102 -0.01273,0.29645 -0.01543,0.59322 -0.01886,0.88989 0.005,0.28236 0.0091,0.56491 0.02291,0.847 0.01865,0.28769 0.02936,0.5759 0.0502,0.86344 0.0217,0.28309 0.04148,0.56625 0.06828,0.84891 0.02772,0.28358 0.04901,0.56767 0.07817,0.8511 0.02559,0.27629 0.05532,0.55206 0.08652,0.82776 0.03114,0.25536 0.07135,0.50937 0.110342,0.76361 0.04092,0.23893 0.08066,0.47804 0.130601,0.71529 0.04745,0.22751 0.103034,0.45328 0.163959,0.67753 0.05416,0.20401 0.118632,0.40543 0.191715,0.60343 0.068,0.18922 0.145502,0.37507 0.230616,0.55721 0.08359,0.16745 0.175945,0.33055 0.270968,0.49175 0.07508,0.13817 0.170995,0.26013 0.271348,0.38011 0.106561,0.12849 0.221364,0.25086 0.348441,0.35937 0.135104,0.12451 0.284239,0.23073 0.435594,0.33408 0.167597,0.11312 0.341445,0.21702 0.521147,0.3097 0.201742,0.10961 0.412178,0.20077 0.623496,0.28984 0.239823,0.0976 0.483264,0.18577 0.726239,0.27509 0.252134,0.0886 0.506899,0.16955 0.761764,0.24989 0.261141,0.0797 0.523973,0.15337 0.787877,0.22328 0.247274,0.0668 0.498983,0.11451 0.751334,0.15728 0.244226,0.0428 0.49148,0.0642 0.739071,0.0734 0.274281,0.0128 0.548019,-0.007 0.821148,-0.0292 0.317275,-0.0313 0.632108,-0.0845 0.945391,-0.14293 0.185089,-0.0318 0.368953,-0.0698 0.552592,-0.10897 1.952181,-0.41408 2.537778,2.34672 0.585597,2.7608 v 0 c -0.207494,0.0438 -0.415102,0.0871 -0.624117,0.12317 -0.406765,0.075 -0.815459,0.14309 -1.227609,0.18062 -0.390271,0.032 -0.781656,0.0543 -1.173366,0.0361 -0.366271,-0.0168 -0.73216,-0.0469 -1.09356,-0.11105 -0.336142,-0.0577 -0.67124,-0.12258 -1.000717,-0.21156 -0.305647,-0.0813 -0.610212,-0.16654 -0.912554,-0.25947 -0.296905,-0.0937 -0.593701,-0.18819 -0.887021,-0.29265 -0.284003,-0.1045 -0.568486,-0.20787 -0.848338,-0.32324 -0.284734,-0.12004 -0.567132,-0.2456 -0.839576,-0.39192 -0.275529,-0.14606 -0.545513,-0.3027 -0.80282,-0.47927 -0.25128,-0.17229 -0.496144,-0.35366 -0.722096,-0.55862 -0.227221,-0.20605 -0.445584,-0.4221 -0.639058,-0.66072 -0.196827,-0.23802 -0.381143,-0.48555 -0.534125,-0.75455 -0.140875,-0.2407 -0.278382,-0.48388 -0.398582,-0.73569 -0.117001,-0.25451 -0.226713,-0.51258 -0.321037,-0.77645 -0.0991,-0.2744 -0.190379,-0.55193 -0.264676,-0.83418 -0.07445,-0.27758 -0.144111,-0.55654 -0.202243,-0.83806 -0.05895,-0.2861 -0.109426,-0.57374 -0.157054,-0.86193 -0.04454,-0.29086 -0.09007,-0.58156 -0.125012,-0.87378 -0.0323,-0.28538 -0.06306,-0.57086 -0.08966,-0.85684 -0.02982,-0.29086 -0.05238,-0.58232 -0.08037,-0.87337 -0.02886,-0.30522 -0.05072,-0.61095 -0.07387,-0.91666 -0.02135,-0.30962 -0.03524,-0.61972 -0.05407,-0.9295 -0.01529,-0.33709 -0.02286,-0.67457 -0.02582,-1.01199 0.0041,-0.34921 0.0071,-0.69859 0.02508,-1.04743 0.02408,-0.35576 0.05087,-0.71138 0.08801,-1.06605 0.0395,-0.37432 0.08443,-0.74811 0.144216,-1.11981 0.05822,-0.36697 0.112519,-0.73461 0.17947,-1.10014 0.06486,-0.35767 0.129063,-0.71546 0.197712,-1.07244 0.06602,-0.34244 0.125005,-0.68618 0.19055,-1.02871 0.06277,-0.34638 0.13098,-0.69176 0.190416,-1.03875 0.06409,-0.3482 0.128227,-0.69638 0.195831,-1.04392 0.06995,-0.34481 0.144703,-0.68868 0.225123,-1.0312 0.07941,-0.34531 0.163748,-0.68957 0.254339,-1.03212 0.09042,-0.34282 0.189481,-0.68324 0.290925,-1.02295 0.09865,-0.32007 0.202171,-0.63845 0.312444,-0.95473 0.103907,-0.31162 0.209603,-0.62263 0.325192,-0.93015 0.102788,-0.27378 0.199834,-0.54968 0.302019,-0.82369 0.09621,-0.25778 0.1929,-0.51537 0.289679,-0.77292 0.09365,-0.25091 0.187952,-0.50156 0.283451,-0.75176 0.09453,-0.23819 0.188031,-0.47678 0.289242,-0.71225 0.09661,-0.22079 0.190683,-0.44276 0.296045,-0.65961 0.09027,-0.18695 0.180369,-0.37401 0.273061,-0.55976 0.08401,-0.16827 0.169005,-0.33614 0.260979,-0.50022 0.07365,-0.14059 0.145476,-0.28214 0.219406,-0.42258 0.05248,-0.0978 0.10523,-0.19553 0.151778,-0.29612 0.03827,-0.0782 0.07168,-0.1585 0.10763,-0.23768 0.01011,-0.0247 0.133596,-0.33568 0.0515,-0.10946 0.548238,-1.91883 3.261871,-1.1435 2.713635,0.77533 z"
       inkscape:connector-curvature="0" />
    <path
       style="fill:#ffffff;fill-opacity:1;fill-rule:nonzero;stroke:none;stroke-width:0.26458332"
       id="path1107"
       d="m 39.951408,276.99083 c 0.107524,-0.0152 0.215752,-0.0233 0.323133,-0.0386 0.15245,-0.0211 0.304112,-0.048 0.455663,-0.0749 0.235887,-0.0415 0.472059,-0.0813 0.708205,-0.12132 0.309255,-0.0504 0.618934,-0.0979 0.928653,-0.14538 0.380108,-0.0538 0.760563,-0.10524 1.141942,-0.14926 0.42745,-0.0559 0.856739,-0.095 1.285581,-0.1381 0.477718,-0.0502 0.956561,-0.0879 1.435737,-0.12081 0.50096,-0.0335 1.002546,-0.0561 1.504178,-0.0765 0.504097,-0.0189 1.008282,-0.0369 1.51271,-0.0431 0.488058,-10e-4 0.976193,-0.003 1.464194,0.006 0.445354,0.007 0.890233,0.0267 1.335,0.0498 0.386691,0.0183 0.772599,0.0501 1.157555,0.0905 0.314139,0.0317 0.626573,0.0781 0.93663,0.13735 0.262403,0.042 0.511212,0.12631 0.755586,0.22781 1.813875,0.83206 0.63717,3.39727 -1.176708,2.56521 v 0 c 0.206129,0.0703 -0.08931,-0.0333 -0.112463,-0.0217 -0.231241,-0.045 -0.464646,-0.0783 -0.699043,-0.10201 -0.335208,-0.0355 -0.671285,-0.063 -1.008036,-0.0788 -0.413186,-0.0215 -0.826447,-0.0398 -1.240192,-0.0465 -0.459832,-0.009 -0.919829,-0.006 -1.379725,-0.006 -0.477129,0.005 -0.954003,0.0237 -1.430822,0.0409 -0.475567,0.0193 -0.951095,0.0406 -1.42603,0.0722 -0.449466,0.0307 -0.898618,0.0661 -1.3467,0.11329 -0.415264,0.0416 -0.83095,0.0794 -1.244843,0.13372 -0.346488,0.0397 -0.692029,0.087 -1.037413,0.13523 -0.294865,0.0451 -0.589706,0.0904 -0.88414,0.13821 -0.228862,0.0388 -0.457784,0.0771 -0.686355,0.11752 -0.185055,0.0329 -0.370393,0.0647 -0.556504,0.091 -0.105344,0.0147 -0.210926,0.0265 -0.316669,0.0376 -1.975556,0.28223 -2.374678,-2.51163 -0.399124,-2.79385 z"
       inkscape:connector-curvature="0" />
    <path
       style="fill:#ffffff;fill-opacity:1;fill-rule:nonzero;stroke:none;stroke-width:0.26458332"
       id="path1117"
       d="m 62.257,228.31126 c 0.0089,0.006 0.03597,0.0231 0.02662,0.0179 -0.08744,-0.0485 -0.172818,-0.10221 -0.257847,-0.15473 -0.08617,-0.0492 -0.173754,-0.0961 -0.262048,-0.14145 -0.111599,-0.0553 -0.225309,-0.10599 -0.339503,-0.15568 -0.112149,-0.0424 -0.22229,-0.0911 -0.337238,-0.12567 -0.138131,-0.042 -0.276024,-0.0837 -0.417057,-0.11488 -0.173096,-0.0375 -0.349121,-0.0583 -0.524079,-0.0848 -0.213299,-0.0356 -0.428025,-0.061 -0.643075,-0.0832 -0.228412,-0.0223 -0.458412,-0.0234 -0.687721,-0.0278 -0.274669,-0.009 -0.549193,-0.005 -0.823817,0.002 -0.296797,0.0127 -0.593199,0.0321 -0.888826,0.0612 -0.331065,0.03 -0.659733,0.0791 -0.987959,0.13072 -0.345766,0.0526 -0.686443,0.13196 -1.025493,0.21671 -0.3736,0.0969 -0.744353,0.20474 -1.110914,0.32555 -0.384019,0.12898 -0.762868,0.27237 -1.136492,0.42881 -0.392895,0.16704 -0.778816,0.35005 -1.160041,0.54209 -0.398931,0.19834 -0.789395,0.41346 -1.174181,0.63789 -0.390086,0.22906 -0.764482,0.48276 -1.136164,0.74015 -0.387495,0.2687 -0.762164,0.55507 -1.131276,0.84831 -0.380682,0.30176 -0.746009,0.62211 -1.104119,0.95013 -0.363779,0.32968 -0.703731,0.68404 -1.039051,1.04222 -0.341453,0.35879 -0.657447,0.74045 -0.967102,1.12665 -0.307338,0.38432 -0.599739,0.78004 -0.880875,1.18382 -0.27083,0.39351 -0.52592,0.79713 -0.769763,1.2078 -0.237704,0.39394 -0.445606,0.80444 -0.648872,1.21684 -0.191828,0.39635 -0.364662,0.8012 -0.524409,1.2114 -0.156356,0.40067 -0.292944,0.80843 -0.411787,1.22168 -0.121248,0.40957 -0.216006,0.82597 -0.299612,1.24462 -0.08205,0.40103 -0.12591,0.80808 -0.166229,1.21497 -0.03637,0.39201 -0.03965,0.7856 -0.03592,1.17891 0.0076,0.37659 0.03896,0.7521 0.08671,1.12558 0.04207,0.34604 0.124968,0.68389 0.219237,1.01876 0.09166,0.3241 0.212182,0.63915 0.350578,0.94593 0.133334,0.29536 0.300085,0.5736 0.476837,0.84459 0.174001,0.25628 0.37039,0.49654 0.58497,0.71971 0.232643,0.23213 0.480793,0.44891 0.743252,0.64664 0.289435,0.21714 0.59826,0.40577 0.910539,0.58771 0.336442,0.19047 0.688409,0.34956 1.043181,0.50209 0.388864,0.16204 0.787302,0.29918 1.190334,0.42116 0.441447,0.13476 0.891016,0.24067 1.341956,0.33809 0.4773,0.10027 0.960237,0.16905 1.443929,0.22951 0.52133,0.0674 1.045549,0.10307 1.570196,0.13107 0.548027,0.0311 1.097087,0.0326 1.645717,0.0225 0.576376,-0.01 1.151914,-0.0464 1.726237,-0.0943 0.593955,-0.045 1.185137,-0.11758 1.774708,-0.20134 0.609039,-0.0901 1.216795,-0.18792 1.82276,-0.29679 0.603445,-0.10499 1.200152,-0.24339 1.795846,-0.38491 0.59785,-0.139 1.190082,-0.2994 1.780884,-0.46537 0.576789,-0.1603 1.147143,-0.34245 1.714899,-0.53194 0.548627,-0.18117 1.090782,-0.38103 1.627981,-0.59351 0.508268,-0.1986 1.006489,-0.42189 1.498082,-0.65848 0.461899,-0.22497 0.906896,-0.48184 1.346311,-0.74745 0.425492,-0.25492 0.828879,-0.54297 1.224976,-0.84079 0.382151,-0.2888 0.737626,-0.60987 1.0829,-0.94122 0.339341,-0.3301 0.652285,-0.68573 0.951404,-1.05227 0.297866,-0.36061 0.555049,-0.75116 0.804164,-1.14618 0.240602,-0.3809 0.4444,-0.78285 0.633902,-1.19105 0.176017,-0.38595 0.320591,-0.78423 0.446366,-1.18899 0.11041,-0.37803 0.182014,-0.76529 0.239614,-1.15436 0.05839,-0.39571 0.08089,-0.7954 0.08942,-1.19494 0.0046,-0.40524 -0.02191,-0.80962 -0.05669,-1.21309 -0.03629,-0.40976 -0.106669,-0.81512 -0.185946,-1.2184 -0.08438,-0.42553 -0.19303,-0.84555 -0.307745,-1.26373 -0.116171,-0.40354 -0.254791,-0.79984 -0.408001,-1.19066 -0.153456,-0.38996 -0.336129,-0.76773 -0.529606,-1.1392 -0.188312,-0.36243 -0.415676,-0.70177 -0.649808,-1.03565 -0.230389,-0.33192 -0.491842,-0.64039 -0.767454,-0.93528 -0.280278,-0.30054 -0.588033,-0.57379 -0.904988,-0.83475 -0.320204,-0.263 -0.664761,-0.49379 -1.015445,-0.71364 -0.363286,-0.22439 -0.744426,-0.41779 -1.129855,-0.60078 -0.393589,-0.1851 -0.8,-0.34123 -1.209802,-0.48622 -0.409813,-0.14262 -0.827323,-0.25912 -1.248902,-0.36086 -0.425545,-0.10044 -0.857417,-0.16975 -1.289857,-0.23241 -0.434232,-0.0632 -0.872358,-0.0919 -1.310389,-0.1117 -0.441817,-0.0178 -0.883655,-0.003 -1.32479,0.0227 -0.458028,0.0324 -0.914185,0.086 -1.368597,0.15119 -0.480827,0.0674 -0.958739,0.15353 -1.436928,0.23719 -0.399807,0.0748 -0.800994,0.14149 -1.202364,0.20717 -1.969424,0.32224 -2.425142,-2.46295 -0.455719,-2.78519 v 0 c 0.391147,-0.064 0.782103,-0.12906 1.17171,-0.20198 0.507217,-0.0887 1.014212,-0.17961 1.524238,-0.25105 0.534125,-0.076 1.070253,-0.13897 1.608699,-0.17507 0.537009,-0.0299 1.074896,-0.0471 1.612632,-0.0242 0.530765,0.0245 1.061474,0.0611 1.587577,0.13812 0.519308,0.0757 1.037709,0.16055 1.548508,0.28243 0.516049,0.12549 1.027356,0.2687 1.528882,0.44427 0.50092,0.17852 0.997826,0.36991 1.47873,0.59769 0.484312,0.23128 0.963038,0.47573 1.41892,0.75983 0.453205,0.28583 0.897991,0.58621 1.311543,0.92784 0.411101,0.3412 0.810955,0.69709 1.174543,1.08932 0.361836,0.39159 0.707819,0.79828 1.011426,1.23735 0.304564,0.436 0.59773,0.88068 0.84247,1.35371 0.238641,0.46113 0.46473,0.92947 0.653825,1.41341 0.187714,0.4829 0.359524,0.97185 0.500687,1.47061 0.132903,0.4855 0.258016,0.97331 0.355505,1.46735 0.09821,0.50339 0.184036,1.00955 0.228327,1.52095 0.04266,0.50512 0.07426,1.01145 0.06612,1.51869 -0.01286,0.51713 -0.04279,1.03432 -0.119687,1.54639 -0.08031,0.53294 -0.181714,1.06315 -0.337394,1.57988 -0.16468,0.52344 -0.352036,1.03926 -0.581671,1.53817 -0.241218,0.51609 -0.500552,1.02413 -0.805754,1.50587 -0.311288,0.49238 -0.635283,0.97732 -1.006687,1.42709 -0.372398,0.45371 -0.760785,0.89478 -1.183283,1.3029 -0.427257,0.40836 -0.867365,0.80369 -1.33999,1.15949 -0.472408,0.3544 -0.954204,0.69628 -1.46114,1.00016 -0.516506,0.31147 -1.039879,0.6121 -1.58297,0.87534 -0.552636,0.26501 -1.112028,0.51643 -1.683118,0.73935 -0.584801,0.23075 -1.174602,0.44877 -1.771692,0.64582 -0.610791,0.20371 -1.224423,0.39933 -1.844861,0.57185 -0.627665,0.17629 -1.256993,0.34622 -1.892061,0.49417 -0.646563,0.15348 -1.294392,0.30274 -1.949292,0.41688 -0.640032,0.11478 -1.281882,0.21836 -1.925174,0.31323 -0.643628,0.0911 -1.288981,0.17019 -1.937319,0.21961 -0.635434,0.0525 -1.272132,0.0932 -1.90981,0.10358 -0.615662,0.0106 -1.231762,0.009 -1.846736,-0.0261 -0.591579,-0.0318 -1.18264,-0.0732 -1.770491,-0.14898 -0.566357,-0.0713 -1.131716,-0.15301 -1.690402,-0.27159 -0.526261,-0.11437 -1.05084,-0.23866 -1.56604,-0.39638 -0.502676,-0.15369 -1.000207,-0.32454 -1.48478,-0.529 -0.460023,-0.19839 -0.915387,-0.40794 -1.350505,-0.65731 -0.412544,-0.24153 -0.819528,-0.49342 -1.20096,-0.78246 -0.379574,-0.29265 -0.744924,-0.60434 -1.078934,-0.94875 -0.329379,-0.35111 -0.638061,-0.72165 -0.903255,-1.1243 -0.254966,-0.39486 -0.494443,-0.80049 -0.68629,-1.23039 -0.192143,-0.434 -0.363582,-0.87748 -0.49099,-1.33524 -0.130529,-0.46886 -0.242408,-0.94277 -0.301484,-1.42665 -0.05994,-0.48205 -0.101119,-0.96646 -0.108683,-1.45242 -0.0043,-0.49507 0.0026,-0.99049 0.04965,-1.48376 0.04981,-0.49926 0.106701,-0.9983 0.207417,-1.49033 0.09968,-0.49577 0.212376,-0.98893 0.355706,-1.47415 0.143783,-0.49488 0.305917,-0.98412 0.493993,-1.4641 0.189921,-0.48524 0.394182,-0.96469 0.622287,-1.43337 0.23609,-0.47821 0.478626,-0.95362 0.754105,-1.41067 0.279082,-0.46878 0.570272,-0.93003 0.880205,-1.37914 0.317868,-0.45565 0.647782,-0.90269 0.995098,-1.33645 0.355071,-0.44212 0.717809,-0.87861 1.108678,-1.28985 0.38517,-0.41082 0.776227,-0.81665 1.193721,-1.19506 0.407117,-0.37197 0.821862,-0.73581 1.254368,-1.0782 0.417523,-0.33117 0.841203,-0.65472 1.279427,-0.95821 0.432367,-0.29926 0.86877,-0.59292 1.32275,-0.8588 0.435097,-0.25289 0.87585,-0.4965 1.326621,-0.72047 0.440915,-0.22122 0.886648,-0.4332 1.341141,-0.62524 0.441987,-0.18377 0.88923,-0.35452 1.343483,-0.50577 0.431726,-0.14101 0.867479,-0.26959 1.307523,-0.38222 0.419788,-0.10444 0.841812,-0.20096 1.269738,-0.26626 0.383254,-0.0603 0.767215,-0.11628 1.153705,-0.15178 0.363099,-0.0348 0.727001,-0.0601 1.091555,-0.0736 0.316105,-0.008 0.632177,-0.0121 0.948322,-0.003 0.308229,0.006 0.617122,0.0101 0.923988,0.0423 0.25984,0.0271 0.519332,0.0578 0.777166,0.1003 0.243187,0.0374 0.487828,0.0674 0.727763,0.12348 0.221409,0.0514 0.439947,0.11257 0.65673,0.18087 0.202801,0.0669 0.402506,0.14261 0.599501,0.22511 0.171069,0.075 0.341434,0.15161 0.508077,0.23612 0.153202,0.0798 0.306094,0.16072 0.453726,0.25054 0.100655,0.0639 0.206346,0.11945 0.305991,0.18501 1.660448,1.10696 0.09496,3.45519 -1.565487,2.34823 z"
       inkscape:connector-curvature="0" />
    <path
       style="fill:#ffffff;fill-opacity:1;fill-rule:nonzero;stroke:none;stroke-width:0.26458332"
       id="path1119"
       d="m 45.926806,232.79444 c -0.08883,0 -0.177671,0 -0.266505,0 -0.101208,0 -0.202416,0 -0.303625,0 -0.110439,0 -0.220877,0 -0.331314,0 -0.12034,0 -0.240681,0 -0.361021,0 -0.163391,0.002 -0.326469,-4.9e-4 -0.489537,-0.0113 -0.131699,-0.0111 -0.263486,-0.0208 -0.395378,-0.0293 -0.190619,-0.0165 -0.38019,-0.0424 -0.568402,-0.0765 -0.170301,-0.0278 -0.338597,-0.066 -0.505994,-0.1075 -0.149759,-0.0365 -0.298503,-0.0766 -0.44735,-0.11666 -0.132085,-0.0341 -0.262794,-0.0729 -0.39589,-0.103 -0.157761,-0.0427 -0.3175,-0.0768 -0.476848,-0.11277 -0.162732,-0.0393 -0.32793,-0.0666 -0.492101,-0.0989 -0.179631,-0.0372 -0.360252,-0.0688 -0.539928,-0.10578 -0.177244,-0.0329 -0.353663,-0.0693 -0.529905,-0.10719 -0.164168,-0.0302 -0.326384,-0.0696 -0.489537,-0.1046 -0.180837,-0.0432 -0.36128,-0.0879 -0.540118,-0.13877 -0.14189,-0.0363 -0.281008,-0.0823 -0.421679,-0.1229 -0.12636,-0.036 -0.25086,-0.078 -0.377013,-0.11464 -0.111371,-0.0343 -0.221144,-0.0738 -0.333793,-0.1038 -0.113064,-0.0275 -0.222118,-0.0687 -0.334222,-0.0995 -0.05735,-0.0162 -0.115646,-0.029 -0.174302,-0.0395 -0.06783,-0.0128 -0.1362,-0.0224 -0.204504,-0.0323 -0.05726,-0.007 -0.114589,-0.014 -0.171916,-0.0208 -0.03608,-0.005 -0.07223,-0.008 -0.108447,-0.0116 -0.0343,-0.003 -0.06861,-0.006 -0.102915,-0.009 -0.02241,-0.002 -0.04483,-0.004 -0.06724,-0.006 -1.163352,-0.13271 -0.174527,-0.60929 0.496067,-2.76403 0.0021,-0.007 0.183621,0.0608 0.187476,0.0622 0.220226,0.0802 0.365977,0.21248 0.541933,0.35968 0.02254,0.0189 -0.03196,-0.0312 -0.03902,-0.0381 0.372298,0.3899 -0.0856,-0.10933 0.177697,0.17664 0.01545,0.0168 0.06171,0.0671 0.04483,0.0517 -0.01934,-0.0176 -0.03481,-0.039 -0.05222,-0.0585 0.06293,0.065 0.120991,0.13448 0.181279,0.20192 0.100859,0.12216 0.127908,0.1475 0.242708,0.29656 0.06801,0.0886 0.134749,0.17829 0.200361,0.2687 0.07352,0.0848 0.136054,0.1784 0.205144,0.26669 0.09689,0.12216 0.19085,0.24663 0.283488,0.37205 0.09598,0.12871 0.195485,0.25469 0.292434,0.38267 0.110146,0.14096 0.219871,0.28224 0.329755,0.42341 0.122976,0.1523 0.241845,0.30783 0.363855,0.46089 0.145725,0.17316 0.285163,0.35113 0.422548,0.53094 0.13131,0.17375 0.271645,0.34031 0.408196,0.50987 0.140269,0.179 0.28751,0.35232 0.431165,0.52856 0.145582,0.18084 0.294291,0.35908 0.439558,0.54018 0.150381,0.18607 0.29573,0.37615 0.439269,0.56752 0.13191,0.18193 0.262675,0.36468 0.391649,0.54871 0.119857,0.17139 0.234818,0.34593 0.348081,0.52172 0.100637,0.15575 0.195553,0.31482 0.289676,0.47456 0.06983,0.1219 0.140711,0.24298 0.211931,0.36405 0.05455,0.10599 0.117333,0.20487 0.176986,0.30799 0.063,0.10653 0.120234,0.21613 0.173402,0.32785 0.0279,0.0594 0.05512,0.11915 0.08236,0.17887 0.01503,0.033 0.03006,0.066 0.04508,0.099 0.009,0.0199 0.01812,0.0398 0.02717,0.0597 0.404106,0.8774 0.06691,1.17313 -0.331229,1.66833 -0.383244,0.11917 -0.762251,0.25292 -1.149728,0.35751 -0.01503,0.004 -0.158666,-0.0295 -0.185037,-0.036 -0.01781,-0.004 -0.07101,-0.0185 -0.0531,-0.0145 0.27704,0.0625 -5.29e-4,0.004 0.102984,0.0254 -0.01466,0.0383 -0.308555,-0.0923 -0.426151,-0.14902 0.09489,0.0449 0.106841,0.0473 0.173823,0.0667 -0.115274,-0.0487 -0.261816,-0.0706 -0.368377,-0.14585 -0.02238,-0.0158 0.0636,0.0318 0.06961,0.0347 -0.06938,-0.0194 0.0983,0.0318 0.11108,0.0351 0.106415,0.0654 -0.38163,-0.12072 -0.273066,-0.0794 -0.0026,-4.8e-4 -0.02127,-0.006 -0.01598,-0.005 0.01529,0.005 0.03054,0.01 0.04594,0.0141 0.01291,0.003 -0.04396,-0.003 -0.05652,-0.004 -0.116906,-0.006 -0.23281,-0.022 -0.348335,-0.0405 -0.07114,-0.0116 -0.14275,-0.0195 -0.214513,-0.026 -0.09951,-0.009 -0.199231,-0.0145 -0.298987,-0.0195 -0.121814,-0.006 -0.2437,-0.01 -0.365596,-0.0132 -0.134181,-0.004 -0.268388,-0.006 -0.402598,-0.008 -0.142767,-0.002 -0.285544,-0.004 -0.428321,-0.005 -0.146349,-0.001 -0.292698,-0.002 -0.439049,-0.003 -0.178655,-0.005 -0.356627,-0.0218 -0.534856,-0.034 -0.144454,-0.01 -0.289091,-0.0164 -0.433744,-0.0223 -0.156959,-0.006 -0.313984,-0.0104 -0.471017,-0.0142 -0.164849,-0.004 -0.329724,-0.006 -0.494599,-0.009 -0.177181,-0.002 -0.354369,-0.004 -0.531561,-0.005 -0.165452,0.003 -0.33143,-0.009 -0.49676,-7.1e-4 -0.182129,0.009 -0.364207,0.0188 -0.54636,0.0272 -0.169764,0.008 -0.339571,0.0111 -0.508944,0.0251 -0.180719,0.0157 -0.361514,0.0305 -0.542467,0.0433 -0.170487,0.0117 -0.341128,0.0209 -0.51181,0.0291 -0.151525,0.007 -0.303118,0.0126 -0.454732,0.0175 -0.0826,0.0119 -0.171492,0.0211 -0.256543,0.0307 -0.103412,0.0118 -0.207033,0.0217 -0.310634,0.0317 -0.07981,0.007 -0.159707,0.0136 -0.239596,0.02 -0.04608,0.004 -0.09217,0.007 -0.138255,0.011 -0.02788,0.002 -0.05576,0.004 -0.08364,0.007 0.01154,-0.004 -0.04833,0.006 -0.03657,0.003 0.611201,-0.17362 0.369629,-0.0491 0.735783,-0.27994 0.05865,-0.0444 0.112591,-0.0942 0.162552,-0.14805 -0.320818,0.35822 0.114004,-1.8327 0.283178,-1.35735 -0.0021,-0.004 0.006,0.0145 0.004,0.0111 -0.193865,-0.32734 -0.241781,-0.48428 -0.525121,-0.68016 -0.137909,-0.0922 0.245425,0.22324 0.36947,0.33338 0.09621,0.14149 0.08664,0.11735 0.147415,0.23092 0.0122,0.0228 0.04881,0.091 0.03419,0.0696 -0.287168,-0.41917 -0.128,-0.25035 -0.357468,-0.47004 -0.0093,-0.0119 -0.08552,-0.0661 -0.09703,-0.0741 0.0075,0.005 0.01506,0.01 0.02257,0.0145 -0.0089,-0.0443 -0.329676,-0.16085 -0.463386,-0.18779 0.03617,-0.0221 0.808575,0.39996 0.534316,0.21232 0.0633,0.0403 0.162679,0.0876 -0.14237,-0.0715 0.200814,0.10745 0.172834,0.0816 0.307864,0.17897 0.02617,0.0189 0.102523,0.0784 0.07615,0.0598 -0.04345,-0.0306 -0.176985,-0.11655 -0.128915,-0.0939 0.05053,0.0239 0.09094,0.0649 0.136413,0.0974 -0.07623,-0.0665 0.134067,0.11244 0.09975,0.0853 -0.03199,-0.0253 -0.129325,-0.0988 -0.09414,-0.0782 0.05853,0.0343 0.210211,0.17142 0.155683,0.13107 -0.02257,-0.0167 -0.04218,-0.037 -0.06326,-0.0556 -0.08573,-0.0661 0.114617,0.092 0.136249,0.10944 0.123553,0.10187 0.05618,0.0468 0.140391,0.11356 0.06813,0.0529 0.137443,0.10766 0.187878,0.14446 0.0721,0.0512 0.151924,0.10486 0.2291,0.15585 0.0986,0.0623 0.199827,0.12026 0.300612,0.17895 0.131778,0.0749 0.265239,0.14675 0.398232,0.21947 0.170452,0.0849 0.338987,0.17369 0.505653,0.26577 0.168976,0.0878 0.337116,0.17724 0.507013,0.26325 0.202295,0.1047 0.402715,0.21299 0.604459,0.31874 0.204666,0.10741 0.407038,0.21926 0.612151,0.32578 0.206579,0.11172 0.41488,0.22002 0.623842,0.32719 0.203505,0.1043 0.407329,0.20806 0.614069,0.30583 0.208042,0.10106 0.418579,0.19687 0.629478,0.29179 0.191993,0.0832 0.383109,0.16839 0.577742,0.24529 0.194736,0.0776 0.387485,0.16024 0.582935,0.23606 0.179094,0.0678 0.358196,0.136 0.535927,0.20736 0.117274,0.0481 0.23472,0.0961 0.354589,0.13744 0.125376,0.044 0.245145,0.10182 0.368501,0.1508 0.06661,0.0262 0.133451,0.0518 0.200279,0.0774 0.09896,0.0355 0.194543,0.0789 0.287515,0.12792 0.228695,0.11913 0.414975,0.29752 0.558117,0.51143 0.04845,0.0724 0.07945,0.15508 0.119179,0.23262 -0.608856,0.61381 -1.237017,1.20906 -1.826567,1.84144 -0.0063,0.007 0.145654,0.0442 0.152477,0.0458 0.01593,0.004 0.06402,0.0134 0.04814,0.009 -0.247295,-0.0608 -0.105566,-0.0175 -0.271269,-0.0714 0.05754,0.0219 -0.117366,-0.0434 -0.08779,-0.0332 0.01987,0.007 0.0792,0.0281 0.05891,0.0226 0.09167,0.0214 0.206354,0.0749 -0.158702,-0.0488 -0.07663,-0.026 -0.150032,-0.0642 -0.221718,-0.10146 -0.0013,0.009 0.119377,0.0526 0.08886,0.0431 -0.009,-0.003 -0.01781,-0.007 -0.02661,-0.01 -0.02088,-0.008 -0.04179,-0.0156 -0.06269,-0.0233 -0.01365,-0.005 -0.02731,-0.0101 -0.04097,-0.0152 -0.0083,-0.003 -0.01667,-0.006 -0.02498,-0.009 -0.121256,-0.0368 0.23141,0.0631 0.310692,0.0737 0.02484,0.003 0.01413,0.002 0.0021,5.8e-4 -0.03439,-0.003 0.02508,10e-4 0.03226,0.002 0.0063,-0.001 -0.02559,2.6e-4 -0.01921,-5.5e-4 0.25341,-0.0323 0.382032,-0.0256 0.586454,-0.11116 0.07142,-0.0439 -0.421746,0.18532 -0.03736,0.0144 -0.03112,0.0144 -0.121746,0.0623 -0.09336,0.0431 0.03155,-0.0213 0.06806,-0.0343 0.102979,-0.0496 0.01561,-0.007 -0.05943,0.0332 -0.04494,0.0243 0.161417,-0.0996 0.07569,-0.0429 0.03242,-0.0149 -0.08189,0.0556 -0.09891,0.0688 -0.179486,0.12619 0.06483,-0.0492 -0.167539,0.14454 -0.179869,0.15507 -0.0982,0.0788 -0.185602,0.16937 -0.27723,0.25545 -0.103439,0.0987 -0.201888,0.2022 -0.301273,0.30484 -0.104894,0.10422 -0.203301,0.21461 -0.299411,0.32689 -0.116152,0.13954 -0.238953,0.27342 -0.355734,0.41238 -0.120801,0.14466 -0.243785,0.28741 -0.363199,0.43321 -0.137076,0.17003 -0.28725,0.32873 -0.431007,0.49301 -0.152201,0.17899 -0.312758,0.35029 -0.476789,0.5184 -0.143563,0.15726 -0.293892,0.30805 -0.444519,0.45849 -0.158321,0.15843 -0.323514,0.30998 -0.491686,0.45786 -0.146272,0.12672 -0.294801,0.25077 -0.44442,0.3735 -0.150474,0.12593 -0.30834,0.24212 -0.469741,0.35353 -0.127418,0.09 -0.260885,0.17097 -0.390732,0.25728 -0.137342,0.0871 -0.276415,0.17145 -0.417785,0.25178 -0.103277,0.0605 -0.205946,0.12212 -0.30952,0.18214 -0.09645,0.0538 -0.191646,0.10957 -0.286586,0.16572 -0.05957,0.0347 -0.124865,0.0776 -0.20596,0.13194 -0.08635,0.0537 -0.148955,0.10091 -0.234704,0.15978 0.03975,-0.0292 -0.16882,0.14084 -0.01032,0.009 -0.02154,0.0201 -0.291828,0.25637 -0.110213,0.0941 0.0513,-0.0546 0.01307,-0.0102 -0.0038,0.0102 -0.03143,0.052 0.07264,-0.0977 0.104606,-0.14939 -0.04557,0.0953 0.04754,-0.10877 0.05911,-0.14205 -0.02405,0.0873 -0.08931,0.23344 -0.150638,0.34127 -0.01291,0.0228 -0.0258,0.0455 -0.03866,0.0683 -0.03763,0.0942 0.08345,-0.18329 0.0962,-0.22143 -0.0031,0.011 -0.0063,0.022 -0.0094,0.033 -0.0031,0.011 -0.0062,0.0219 -0.0093,0.0329 -0.0019,0.007 -0.0039,0.0137 -0.0058,0.0205 -0.871435,-1.72268 -0.241681,-1.51557 -0.99196,-1.73742 0.104264,0.0222 -0.169884,-0.0368 -0.128376,-0.0238 0.146701,0.0462 0.298797,0.0761 0.442275,0.1315 0.05144,0.0199 0.545407,0.36537 0.138189,0.0779 -0.100449,-0.0629 -0.211706,-0.10395 -0.325493,-0.13466 -0.01664,-0.004 -0.03328,-0.007 -0.04998,-0.0106 0.03143,0.002 0.06291,0.004 0.09439,0.005 0.0099,3.7e-4 0.03961,0.001 0.0297,0.001 -0.203504,3.7e-4 -0.04195,-0.007 0.01839,-0.013 0.120602,-0.008 0.170066,-0.0145 0.270288,-0.028 0.103994,-0.0162 0.219088,-0.0402 0.332131,-0.0591 0.115382,-0.0222 0.22941,-0.05 0.343895,-0.0763 0.170156,-0.0348 0.339026,-0.0752 0.50922,-0.10978 0.167081,-0.0334 0.335031,-0.0638 0.501324,-0.10098 0.187794,-0.0428 0.377627,-0.0754 0.566235,-0.11425 0.193265,-0.0401 0.386863,-0.079 0.579774,-0.12072 0.208031,-0.0435 0.414993,-0.0918 0.623035,-0.13531 0.197879,-0.0471 0.397238,-0.0874 0.595659,-0.13211 0.19158,-0.0401 0.382262,-0.0838 0.573106,-0.12715 0.168974,-0.0456 0.344361,-0.064 0.514012,-0.10575 0.14596,-0.0345 0.292406,-0.0667 0.43942,-0.0963 0.12184,-0.0247 0.244422,-0.0455 0.366945,-0.0664 0.09195,-0.0151 0.184192,-0.0283 0.276413,-0.0416 0.051,-0.007 0.102007,-0.0146 0.153014,-0.0219 0.03077,-0.004 0.06154,-0.009 0.09231,-0.0132 0.01868,-0.003 0.03735,-0.005 0.05602,-0.008 -1.063125,0.21599 -0.509281,0.0475 0.474472,2.78116 0.03753,0.1043 0.215752,-0.058 0.314126,-0.10911 0.24216,-0.12575 0.421355,-0.29542 0.563735,-0.52522 0.04788,-0.088 0.183568,-0.40853 0.02813,-0.0378 0.04814,-0.11894 -0.02188,0.0678 -0.03664,0.11357 -0.03911,0.0952 -0.06817,0.19358 -0.102093,0.29061 -0.02823,0.0904 -0.06079,0.17949 -0.08576,0.2709 -0.04435,0.1357 -0.07921,0.27402 -0.116305,0.41179 -0.0446,0.17001 -0.09275,0.33909 -0.139724,0.50846 -0.05972,0.1975 -0.115813,0.39603 -0.176019,0.5934 -0.06652,0.21735 -0.135909,0.43385 -0.207182,0.64969 -0.06969,0.21545 -0.138594,0.43113 -0.20977,0.6461 -0.06623,0.21047 -0.132114,0.42103 -0.199019,0.63129 -0.05768,0.18489 -0.119013,0.36851 -0.170233,0.55534 -0.04618,0.17491 -0.09732,0.34838 -0.142169,0.52366 -0.0358,0.15944 -0.07867,0.31712 -0.118599,0.47555 -0.02657,0.10884 -0.04837,0.21877 -0.0678,0.32908 -0.01672,0.10125 -0.03071,0.20294 -0.04333,0.30479 -0.01143,0.0902 -0.01963,0.18083 -0.02776,0.27141 -0.0065,0.0775 -0.01233,0.15512 -0.01744,0.23276 -0.0056,0.13991 -0.03543,0.27676 -0.06499,0.41303 -0.01101,0.0505 -0.02209,0.10095 -0.03318,0.15141 -0.0067,0.0303 -0.01331,0.0606 -0.01998,0.0909 -0.0172,0.0789 0.0011,-0.005 0.0082,-0.052 2.65e-4,0.0109 -0.0024,0.0216 -0.0036,0.0325 -0.0016,0.013 -0.0029,0.026 -0.0043,0.039 -0.03824,0.25915 -0.114996,0.46144 -0.250058,0.66774 -0.05817,0.11962 0.114234,-0.21745 0.131654,-0.2665 -0.225176,0.46316 -0.06575,0.18421 -0.258524,0.46158 -0.03138,0.0451 0.06698,-0.0874 0.09644,-0.13383 -0.02521,0.0542 0.103312,-0.21547 0.07662,-0.16203 -0.149011,0.29831 -0.05294,0.13915 -0.176599,0.33194 -0.014,0.0193 -0.05472,0.078 -0.04199,0.0578 0.02767,-0.0438 0.05931,-0.085 0.0863,-0.12917 0.166865,-0.36265 -0.04781,0.10022 -0.105928,0.20062 -0.0094,0.0162 0.01971,-0.0317 0.02955,-0.0476 0.0024,-0.004 0.0046,-0.008 0.0068,-0.0118 -2.64e-4,6.9e-4 -5.29e-4,0.001 -0.0011,0.002 0.0016,-0.003 -0.01244,0.0248 -0.0095,0.0185 0.04854,-0.10384 0.02742,-0.0535 0.05252,-0.11518 -0.0065,0.0237 0.0055,-0.012 0.02096,-0.0706 -0.0073,0.0369 -0.0031,0.0148 0.0047,-0.0255 -0.0024,0.019 -0.005,0.038 -0.0074,0.0571 -0.007,0.0554 5.29e-4,-0.007 0.0011,-0.0117 -0.0011,0.0168 -0.0024,0.0337 -0.0034,0.0505 -0.0013,-0.005 1.99e-4,0.0191 -0.0011,0.0144 -0.220533,-0.89545 -0.07769,-0.79434 -0.643326,-1.26711 -0.260766,-0.15947 -0.571257,-0.2237 -0.875514,-0.18512 0.05985,-0.0104 0.346821,-0.0437 0.07971,-0.009 0.198397,-0.0498 -0.112059,0.0326 0.09777,-0.0268 -0.072,0.0237 0.09585,-0.0358 0.120501,-0.0457 0.0945,-0.0375 0.183926,-0.0864 0.275027,-0.13137 0.105719,-0.0549 0.210899,-0.11092 0.312251,-0.17362 0.173431,-0.0961 0.340767,-0.20233 0.510791,-0.30416 0.16901,-0.10092 0.33592,-0.20528 0.499292,-0.3151 0.189873,-0.12306 0.372089,-0.25713 0.555192,-0.38987 0.197903,-0.13685 0.394417,-0.27553 0.586777,-0.42009 0.177043,-0.1338 0.348432,-0.27482 0.518308,-0.41754 0.155141,-0.13477 0.301905,-0.27855 0.449572,-0.42131 0.133016,-0.12939 0.258537,-0.26586 0.382862,-0.40349 0.116052,-0.12677 0.224592,-0.26021 0.332063,-0.39426 0.100417,-0.12827 0.202946,-0.25512 0.298559,-0.38707 0.09398,-0.13104 0.186541,-0.26306 0.279662,-0.39471 0.08589,-0.1213 0.169529,-0.24418 0.254148,-0.36638 0.07023,-0.10467 0.145147,-0.20609 0.215373,-0.31076 0.06307,-0.0955 0.128982,-0.18911 0.194675,-0.28283 0.02675,-0.0385 0.01238,-0.0183 0.05183,-0.0872 0.02326,-0.0408 0.04635,-0.0816 0.06946,-0.12245 0.01482,-0.0262 0.02963,-0.0524 0.04444,-0.0786 0.170021,-0.29019 0.421148,-0.50399 0.728353,-0.63363 0.672153,-0.28263 1.691703,0.2623 1.908122,0.95445 0.04086,0.13669 0.05778,0.2785 0.06411,0.42049 0.0021,0.0592 0.003,0.1185 0.0038,0.17777 7.93e-4,0.0685 0.0013,0.13705 0.0016,0.20558 5.29e-4,0.0907 7.94e-4,0.18142 0.0011,0.27213 2.64e-4,0.11823 5.29e-4,0.23646 5.29e-4,0.3547 1.61e-4,0.14077 2.59e-4,0.28155 2.64e-4,0.42233 1.01e-4,0.16093 1.59e-4,0.32186 2.12e-4,0.4828 0.0091,0.14525 0.01818,0.29052 0.02655,0.43582 0.0042,0.15586 0.02233,0.31061 0.03749,0.46565 0.01291,0.17231 0.03636,0.34348 0.05664,0.51502 0.02172,0.18495 0.05091,0.36893 0.07453,0.55369 0.02944,0.21094 0.04068,0.42384 0.0641,0.63539 0.02726,0.23273 0.04922,0.46599 0.06831,0.69951 0.02005,0.24746 0.0335,0.49537 0.04571,0.74332 0.01148,0.24283 0.01979,0.48579 0.0271,0.72878 0.0096,0.21249 0.0055,0.42562 0.01791,0.63796 0.01241,0.19031 0.02614,0.38052 0.03854,0.57083 0.01088,0.1681 0.02003,0.3363 0.02848,0.50453 0.0063,0.12559 0.01169,0.25122 0.01712,0.37685 0.0039,0.0895 0.0072,0.17908 0.01045,0.26862 0.0021,0.0563 0.0041,0.1127 0.0062,0.16904 0.0013,0.0342 0.0024,0.0684 0.0037,0.1026 0.0019,0.17851 0.09909,0.24268 -0.09063,-0.40832 -0.02117,-0.0726 -0.06619,-0.13607 -0.09929,-0.2041 -0.03621,-0.0616 -0.07808,-0.11933 -0.124185,-0.17372 0.0047,0.005 0.0095,0.0105 0.01423,0.0158 0.0041,0.005 0.0082,0.009 0.0123,0.0136 0.0026,0.003 0.0051,0.006 0.0076,0.008 0.134247,0.11254 -0.538107,-0.41012 -0.843116,-0.45001 0.0235,0.002 -0.05766,-0.005 -0.07095,-0.006 0.02276,7.9e-4 0.0037,2.4e-4 0.02484,6.1e-4 0.119512,0.006 0.239538,-0.0496 -0.27844,0.0326 -0.04901,0.008 -0.09548,0.0271 -0.143216,0.0406 -0.04143,0.0161 0.08342,-0.0298 0.06303,-0.0211 -0.06717,0.0287 -0.136011,0.0535 -0.202403,0.0839 -0.02843,0.013 -0.05035,0.045 -0.0816,0.0463 -0.03028,10e-4 0.10304,-0.0637 0.07832,-0.0462 -0.03487,0.0247 -0.07257,0.0452 -0.108855,0.0678 -0.09834,0.0719 0.03159,-0.0231 0.05205,-0.0379 0.0214,-0.0155 -0.07646,0.0701 -0.06395,0.0468 0.01318,-0.0245 0.04389,-0.0342 0.06613,-0.0509 0.04596,-0.0345 -0.08804,0.0739 -0.130289,0.1129 -0.01873,0.0236 0.103606,-0.11563 0.08365,-0.0959 0.0528,-0.0697 0.104514,-0.14575 0.155822,-0.22009 0.08752,-0.12608 0.167602,-0.25736 0.251311,-0.38614 0.105119,-0.16987 0.209603,-0.34013 0.314667,-0.51005 0.133413,-0.21737 0.266432,-0.43497 0.39938,-0.65263 0.159525,-0.26006 0.33092,-0.51254 0.496888,-0.76848 0.169288,-0.26061 0.339455,-0.52065 0.509013,-0.78109 0.154358,-0.24601 0.311645,-0.49021 0.462852,-0.73818 0.144293,-0.23949 0.294457,-0.47554 0.433419,-0.71819 0.134604,-0.23202 0.267449,-0.46503 0.400357,-0.69802 0.105812,-0.19986 0.206073,-0.40261 0.309232,-0.60386 0.09225,-0.18039 0.176918,-0.3644 0.263797,-0.54738 0.06845,-0.15279 0.138824,-0.3047 0.204219,-0.45884 0.05897,-0.1311 0.117869,-0.2621 0.170278,-0.39597 0.04541,-0.11379 0.0974,-0.22503 0.138969,-0.34035 0.03969,-0.11749 0.08314,-0.23342 0.131435,-0.34766 0.02381,-0.0524 0.04298,-0.10674 0.06309,-0.16065 0.01736,-0.0467 0.03461,-0.0934 0.05187,-0.1401 0.01079,-0.0293 0.02162,-0.0585 0.03242,-0.0878 0.0066,-0.0178 0.01315,-0.0356 0.01971,-0.0534 0.004,-0.0108 0.008,-0.0216 0.01199,-0.0324 0.326953,-0.88202 2.532065,-0.66596 2.724716,0.25321 0.02196,0.10944 0.03057,0.22087 0.03018,0.33234 -1.7e-4,0.0188 -7.94e-4,0.0375 -0.0016,0.0563 -7.94e-4,0.0252 5.29e-4,-0.0179 5.29e-4,-0.0223 -8.4e-5,0.0109 -1.53e-4,0.0217 -2.25e-4,0.0326 -5.5e-5,0.007 -9.5e-5,0.0148 -1.32e-4,0.0222 -3.4e-5,0.0142 -6.1e-5,0.0285 -8.7e-5,0.0427 0.05083,-0.0558 -0.06135,-0.41532 -0.115435,-0.54947 -0.0086,-0.0213 -0.01953,-0.0416 -0.02969,-0.0623 -0.0046,-0.009 -0.01884,-0.0365 -0.01445,-0.0272 0.02302,0.0486 0.04687,0.0968 0.07031,0.14515 -0.05184,-0.18682 0.153197,0.41664 0.08366,0.24498 -0.170143,-0.42003 0.0021,-0.0471 -0.09789,-0.25958 -0.07059,-0.13558 0.180369,0.36003 0.03934,0.0813 0.04839,0.0831 0.0853,0.17111 0.121328,0.25999 0.01058,0.0261 -0.02304,-0.0515 -0.0325,-0.078 -0.0051,-0.0144 0.01296,0.0277 0.01947,0.0415 0.05794,0.13438 0.05813,0.13485 0.09989,0.23093 0.0645,0.17632 0.07691,0.19583 0.137991,0.38514 0.03845,0.11484 0.07671,0.2298 0.113223,0.34529 0.0488,0.13887 0.08982,0.28028 0.133395,0.42083 0.05221,0.16932 0.09423,0.34156 0.143386,0.51172 0.04939,0.17868 0.09834,0.35749 0.146166,0.5366 0.04577,0.18842 0.09475,0.37604 0.138788,0.56488 0.03838,0.18614 0.0814,0.37125 0.120036,0.55734 0.03663,0.18315 0.07782,0.36527 0.112831,0.54877 0.03667,0.1519 0.06415,0.30589 0.09943,0.45806 0.03942,0.16793 0.07149,0.33738 0.108863,0.50574 0.0356,0.17088 0.07024,0.34185 0.107749,0.51234 0.03247,0.16328 0.0708,0.32525 0.106354,0.48787 0.03074,0.1471 0.06896,0.29246 0.10224,0.43902 0.02768,0.10287 0.05371,0.20599 0.08483,0.30779 0.0308,0.10897 0.06591,0.2163 0.101582,0.3237 0.03192,0.10507 0.06591,0.20913 0.101092,0.31308 0.03345,0.11259 0.04643,0.13612 0.08851,0.24933 0.02299,0.07 0.05775,0.14269 0.102597,0.26071 0.01603,0.0488 0.0304,0.0702 0.08671,0.20933 -0.0596,-0.14481 0.07417,0.15579 0.0506,0.0992 0.02553,0.0399 0.158766,0.31606 0.06848,0.13245 -0.03401,-0.0703 0.09424,0.15703 0.106757,0.18032 0.122984,0.15036 -0.276619,-0.38647 -0.0069,-0.0283 0.04499,0.0645 0.08507,0.13227 0.124688,0.20019 0.01315,0.0226 0.02627,0.0452 0.03937,0.0679 0.0016,0.003 0.0065,0.0104 0.0046,0.008 -0.139112,-0.17949 -0.238484,-0.33238 -0.423449,-0.4534 -0.0075,-0.005 0.01177,0.007 0.01416,0.008 -0.0045,-0.002 0.01696,0.01 0.01254,0.008 -0.09526,-0.0438 -0.182946,-0.11037 -0.285567,-0.13185 -0.515266,-0.10782 -0.491877,-0.087 -0.860534,-0.003 -0.245464,0.0828 -0.292745,0.15944 -0.549484,0.35399 0.100902,-0.0971 0.08028,-0.082 0.156469,-0.14493 0.0089,-0.007 0.03557,-0.0298 0.02718,-0.0218 -0.09083,0.0868 -0.166912,0.14917 -0.239749,0.24481 0.160441,-0.27136 -0.179943,0.34494 -0.04581,0.0708 0.02548,-0.0476 0.05181,-0.10675 0.09651,-0.1985 0.03146,-0.0673 0.06066,-0.14203 0.09,-0.21302 0.04343,-0.12235 0.107765,-0.23683 0.150315,-0.35938 0.0622,-0.15237 0.118338,-0.30692 0.174805,-0.46145 0.06118,-0.17126 0.120298,-0.34316 0.175361,-0.5165 0.07132,-0.21062 0.135371,-0.42356 0.203449,-0.63524 0.06722,-0.2097 0.129294,-0.42098 0.192121,-0.63202 0.06749,-0.22462 0.135472,-0.44907 0.202973,-0.67368 0.06496,-0.21668 0.127603,-0.43403 0.191643,-0.65099 0.06227,-0.21489 0.123198,-0.43014 0.186105,-0.64485 0.06144,-0.20954 0.121166,-0.41957 0.18233,-0.6292 0.05957,-0.20891 0.122034,-0.41699 0.185653,-0.6247 0.05917,-0.19736 0.120671,-0.39403 0.183012,-0.59042 0.06014,-0.19579 0.126746,-0.38958 0.196784,-0.58204 0.05131,-0.15127 0.104187,-0.30192 0.158861,-0.45202 0.03746,-0.10055 0.07021,-0.20278 0.103555,-0.30476 0.03349,-0.12723 0.07947,-0.25035 0.130689,-0.37138 -0.01958,0.0321 -0.02585,0.0694 -0.03951,0.10368 -0.0034,0.009 0.0041,-0.0182 0.0062,-0.0272 0.0066,-0.0288 0.01307,-0.0577 0.01955,-0.0866 0.05226,-0.2666 0.185967,-0.49544 0.36073,-0.69537 0.02609,-0.029 0.0534,-0.0568 0.08081,-0.0845 0.463725,-0.37681 0.49267,-0.33921 1.098323,-0.43526 0.105704,0.016 0.211518,0.0312 0.317108,0.0479 0.01566,0.002 0.032,0.009 0.04736,0.0129 0.0039,0.001 0.01569,0.004 0.01175,0.003 -0.02349,-0.006 -0.04693,-0.0117 -0.0704,-0.0176 -0.08757,-0.0155 -0.22326,-0.0462 0.212305,0.0477 0.169272,0.061 0.0984,0.0317 0.288898,0.11132 0.307118,0.16566 -0.204187,-0.11848 0.217046,0.11066 0.09595,0.0544 0.188026,0.11594 0.278286,0.17928 0.08983,0.0691 0.178649,0.1394 0.265896,0.2117 0.100618,0.0763 0.184137,0.17205 0.278265,0.25544 0.10592,0.0997 0.200054,0.21081 0.299434,0.31673 0.09018,0.10257 0.17821,0.20698 0.268266,0.30965 0.09684,0.11255 0.193368,0.22531 0.289515,0.33846 0.0887,0.10917 0.178184,0.21781 0.272058,0.32258 0.115356,0.13525 0.231288,0.27005 0.344474,0.40712 0.09763,0.11792 0.197454,0.23389 0.296572,0.35057 0.107275,0.12532 0.211447,0.2532 0.317039,0.37993 0.103122,0.12582 0.209487,0.24893 0.312574,0.37478 0.102439,0.1142 0.188973,0.24133 0.286126,0.35979 0.0987,0.12286 0.19499,0.24754 0.289099,0.37399 0.08187,0.11164 0.162931,0.22382 0.243435,0.33642 0.06886,0.0964 0.138438,0.19679 0.203211,0.2926 0.07509,0.10752 0.146844,0.21728 0.217405,0.3278 0.07043,0.11412 0.129358,0.20914 0.19788,0.33135 0.05562,0.0971 0.09769,0.20087 0.146973,0.301 0.05139,0.10263 0.09674,0.20827 0.135991,0.31613 0.0059,0.0163 -0.0123,-0.0323 -0.01847,-0.0485 0.05143,0.10876 0.0957,0.2204 0.136218,0.33361 0.02003,0.061 0.0181,0.0543 0.03549,0.11016 0.0042,0.0134 0.01767,0.0532 0.01236,0.0402 -0.0061,-0.0147 -0.02117,-0.06 -0.014,-0.0457 0.0021,0.004 0.0035,0.008 0.0053,0.0124 0.0052,0.005 0.113784,0.30638 0.05408,0.143 0.02178,0.0448 0.04081,0.091 0.05962,0.13711 0.0055,0.0134 0.02223,0.0534 0.01611,0.0403 -0.07903,-0.16943 -0.0478,-0.10708 -0.02718,-0.0669 0.03288,0.0546 0.179279,0.38283 0.06695,0.13809 -0.06364,-0.12596 0.09439,0.17996 0.0505,0.0907 0.04317,0.0718 0.121745,0.2078 0.03201,0.0537 0.008,0.004 0.165926,0.27703 0.123669,0.19853 0.04339,0.0838 0.212437,0.3286 0.04316,0.0733 0.03616,0.0523 0.244163,0.37791 0.05887,0.0976 0.04098,0.0544 0.07969,0.11047 0.118469,0.16645 0.0037,0.005 0.01495,0.0208 0.01095,0.0158 -0.240196,-0.30013 -0.04367,-0.0639 0.01254,0.007 0.05784,0.0799 0.190895,0.21833 -0.101679,-0.10025 -0.03841,-0.0335 -0.078,-0.0658 -0.119015,-0.0961 0.01193,0.008 0.02392,0.0152 0.03588,0.0228 0.149839,0.0736 -0.279506,-0.13131 -0.355762,-0.15487 -0.359219,-0.11705 -0.655039,-0.007 -0.976659,0.11504 -0.231177,0.11366 -0.279897,0.24561 -0.493874,0.43886 -0.01222,0.0111 0.386649,-0.44991 0.06938,-0.0899 -0.08024,0.10955 0.01921,-0.029 -0.111924,0.17447 -0.015,0.0233 0.05205,-0.0978 0.03961,-0.073 -0.05688,0.11315 0.01797,-0.0451 -0.04805,0.097 0.04743,-0.10824 0.04305,-0.0995 0.07896,-0.19664 0.02832,-0.0896 0.0566,-0.17934 0.0848,-0.26904 0.03769,-0.12914 0.07429,-0.25865 0.109416,-0.38853 0.04627,-0.16754 0.09485,-0.33447 0.138536,-0.50271 0.0472,-0.18773 0.09505,-0.3753 0.142465,-0.56298 0.04848,-0.20305 0.09263,-0.40711 0.139052,-0.61064 0.04957,-0.22115 0.09529,-0.44324 0.13784,-0.66585 0.05455,-0.25594 0.101346,-0.51341 0.150746,-0.77037 0.04466,-0.25387 0.09333,-0.507 0.136168,-0.76119 0.05054,-0.25903 0.09172,-0.51973 0.138525,-0.77942 0.04019,-0.21181 0.07782,-0.42411 0.111151,-0.63711 0.02649,-0.19387 0.05834,-0.38673 0.09418,-0.57907 0.0245,-0.12857 0.04672,-0.25755 0.06715,-0.38681 0.0154,-0.0941 0.02811,-0.18851 0.04076,-0.28296 0.0092,-0.0672 0.01638,-0.13461 0.02387,-0.20199 0.0047,-0.0435 0.01,-0.0869 0.01381,-0.13052 0.0032,-0.0373 0.0062,-0.0746 0.0093,-0.11199 2.64e-4,0.0114 0.0021,-0.0393 0.0024,-0.0295 0.0045,0.10963 -0.0052,0.22054 0.0117,0.32895 0.04321,0.27763 0.170076,0.49026 0.339119,0.70487 0.456207,0.46542 0.524684,0.21797 1.576183,0.32899 0.0846,-0.0345 0.16256,-0.086 0.237647,-0.14086 0.348138,-0.32541 -0.157475,0.15871 0.07718,-0.0685 -1.319755,1.4969 -3.436694,-0.36952 -2.116937,-1.86642 v 0 c 0.156417,-0.17475 0.1083,-0.107 0.257183,-0.25306 0.123061,-0.0991 0.253998,-0.18821 0.400082,-0.25072 1.080495,0.0995 1.164259,-0.14894 1.650394,0.345 0.265065,0.33323 0.426164,0.69016 0.377936,1.13061 -0.0036,0.0446 -0.0072,0.0892 -0.01114,0.13383 -0.0058,0.0638 -0.01265,0.12747 -0.01987,0.19111 -0.0098,0.0884 -0.01955,0.17686 -0.03159,0.265 -0.01564,0.11674 -0.03163,0.23345 -0.05051,0.34972 -0.0245,0.15444 -0.05094,0.30858 -0.08015,0.46221 -0.03095,0.16608 -0.0579,0.33254 -0.0806,0.5 -0.03706,0.23524 -0.07793,0.46984 -0.122444,0.70379 -0.04562,0.24804 -0.08304,0.4976 -0.13249,0.74497 -0.04657,0.2751 -0.09867,0.54918 -0.147484,0.82388 -0.04938,0.25686 -0.09604,0.51425 -0.150689,0.77006 -0.04918,0.25492 -0.101115,0.50939 -0.158205,0.76265 -0.05155,0.22452 -0.09961,0.44986 -0.154233,0.67367 -0.04939,0.19492 -0.09905,0.38976 -0.148074,0.58478 -0.04654,0.17709 -0.09654,0.35325 -0.145714,0.52962 -0.04529,0.16577 -0.09142,0.33138 -0.140944,0.49593 -0.04344,0.13733 -0.08567,0.27509 -0.133702,0.4109 -0.03371,0.0894 -0.06607,0.17969 -0.106195,0.26648 -0.06985,0.1608 -0.143759,0.31179 -0.250227,0.45171 -0.04351,0.0505 -0.08779,0.10025 -0.130517,0.15137 -0.01209,0.0145 0.32444,-0.34916 0.147778,-0.18159 -0.21654,0.20539 -0.283107,0.34852 -0.526785,0.47024 -0.104648,0.0404 -0.202867,0.10555 -0.313944,0.12127 -0.340072,0.0481 -0.497433,0.0562 -0.753706,-0.0103 -0.14791,-0.0447 -0.294685,-0.0988 -0.423299,-0.18767 -0.01635,-0.0104 -0.03271,-0.0208 -0.04902,-0.0312 -0.08697,-0.056 -0.171894,-0.11526 -0.248542,-0.18512 -0.07686,-0.082 -0.155178,-0.15614 -0.221122,-0.24511 -0.02318,-0.0295 -0.0011,-0.002 0.01799,0.018 -0.162769,-0.20586 -0.0928,-0.10549 -0.145544,-0.18173 -0.0093,-0.0135 -0.05005,-0.0696 -0.04149,-0.0606 -0.03476,-0.0507 -0.09465,-0.1269 -0.128834,-0.19298 -5.29e-4,-9.8e-4 0.0013,0.002 0.0021,0.003 0.007,0.01 0.01397,0.0196 0.02095,0.0294 -0.133104,-0.19107 -0.0905,-0.15305 -0.129601,-0.2005 -0.02125,-0.0335 -0.129598,-0.20857 -0.04929,-0.0882 -0.100619,-0.14316 -0.109104,-0.17105 -0.153369,-0.23997 -0.06005,-0.10163 -0.07831,-0.14324 -0.118607,-0.21141 -0.183954,-0.37926 0.03517,0.0684 -0.08678,-0.17608 -0.05103,-0.0995 -0.08499,-0.18432 -0.106074,-0.22948 -0.03012,-0.0675 -0.07446,-0.17203 -0.08916,-0.2234 -0.03861,-0.0931 -0.07524,-0.18716 -0.10287,-0.28421 0.01712,0.0406 -0.02901,-0.0723 -0.04381,-0.10017 -0.07528,-0.17869 -0.02842,-0.0769 -0.08037,-0.18807 -0.03509,-0.0725 -0.05969,-0.13053 -0.08435,-0.17974 -0.02265,-0.0404 -0.07135,-0.12 -0.102433,-0.16999 -0.04485,-0.0706 -0.08992,-0.14009 -0.137168,-0.20868 -0.06775,-0.0973 -0.133017,-0.19618 -0.202835,-0.29207 -0.06959,-0.0988 -0.141454,-0.19583 -0.212389,-0.29365 -0.07272,-0.0995 -0.148752,-0.19606 -0.22605,-0.29199 -0.08996,-0.11366 -0.175244,-0.23095 -0.270451,-0.34035 -0.09502,-0.11906 -0.197821,-0.23187 -0.292942,-0.3509 -0.09895,-0.11938 -0.197247,-0.23923 -0.297905,-0.35716 -0.109556,-0.12897 -0.219371,-0.25766 -0.327604,-0.38774 -0.08774,-0.10859 -0.181362,-0.21238 -0.270124,-0.32015 -0.107894,-0.12156 -0.21318,-0.24557 -0.315158,-0.37212 -0.08666,-0.102 -0.173181,-0.2041 -0.260813,-0.30521 -0.07707,-0.0879 -0.153639,-0.17627 -0.228926,-0.26572 -0.05357,-0.059 -0.106415,-0.11853 -0.161578,-0.17616 -0.09404,-0.0904 -0.07934,-0.0813 -0.138822,-0.13136 -0.03741,-0.0315 -0.243094,-0.19325 -0.0857,-0.0736 -0.0295,-0.021 -0.121891,-0.078 -0.09005,-0.0608 0.02328,0.0126 0.155546,0.0918 0.06748,0.0419 -0.02241,-0.0125 -0.209976,-0.11621 0.07946,0.036 0.08304,0.0437 -0.09102,-0.0419 -0.146151,-0.069 -0.0011,-5.9e-4 0.0024,0.001 0.0036,0.002 0.0091,0.004 0.01826,0.009 0.02738,0.0129 0.324149,0.12964 -0.260795,-0.0974 0.07552,0.0281 0.475951,0.0964 0.143957,0.0328 0.02858,0.0144 -0.121026,-0.0289 -0.412142,-0.0941 0.175411,0.0126 0.59622,-0.0981 0.567195,-0.0447 1.00739,-0.39809 -0.01884,0.019 0.0079,-0.008 0.01106,-0.0127 0.167907,-0.19517 0.207375,-0.34635 0.302347,-0.60047 0.0028,-0.007 -0.0084,0.0323 -0.0052,0.0234 -0.0081,0.0361 -0.01617,0.0722 -0.02447,0.10821 -0.03146,0.13487 -0.06729,0.26901 -0.121772,0.39677 0.04265,-0.15763 -0.02785,0.1 -0.04203,0.13623 -0.04309,0.13176 -0.086,0.26364 -0.134255,0.39363 -0.0546,0.14989 -0.10674,0.30048 -0.158623,0.45135 -0.05665,0.1556 -0.110844,0.31215 -0.15885,0.47066 -0.05945,0.18728 -0.118256,0.37477 -0.174474,0.56304 -0.05995,0.19572 -0.11896,0.39175 -0.174877,0.58866 -0.06146,0.21064 -0.121711,0.42162 -0.183218,0.63224 -0.06344,0.21652 -0.124828,0.43361 -0.187704,0.65029 -0.06536,0.22142 -0.129513,0.44317 -0.195627,0.66436 -0.06686,0.2224 -0.134332,0.44459 -0.200983,0.66703 -0.06882,0.23086 -0.136821,0.46197 -0.210508,0.69135 -0.06765,0.20978 -0.130831,0.42098 -0.201679,0.62972 -0.06758,0.21044 -0.138689,0.41964 -0.213457,0.62763 -0.06291,0.17117 -0.125101,0.34255 -0.193705,0.51157 -0.05618,0.14174 -0.118237,0.28087 -0.175535,0.42214 -0.05436,0.12909 -0.105984,0.25947 -0.16837,0.38503 -0.03327,0.07 -0.06703,0.14059 -0.102232,0.20993 0.07744,-0.17332 -0.234956,0.48157 -0.188995,0.31584 -0.03351,0.045 -0.07447,0.102 -0.111874,0.14026 -0.379129,0.38779 -0.13204,0.11273 -0.05575,0.0536 -0.250817,0.19251 -0.364728,0.31368 -0.635437,0.40252 -0.08556,0.0199 -0.168825,0.0595 -0.256683,0.0599 -0.407619,0.002 -0.629851,-0.004 -0.950878,-0.2006 -0.02119,-0.0129 -0.0424,-0.0257 -0.06335,-0.039 -0.207915,-0.13351 -0.389192,-0.30314 -0.511638,-0.52355 -0.0117,-0.0202 -0.02339,-0.0404 -0.03512,-0.0606 -0.01521,-0.0261 -0.0329,-0.055 0.0029,-0.001 0.01873,0.024 0.03811,0.0476 0.0562,0.0721 0.0091,0.0124 -0.01971,-0.0236 -0.02932,-0.0357 -0.0751,-0.0939 -0.144656,-0.19252 -0.199298,-0.30003 0.08324,0.1248 -0.06864,-0.10213 -0.07687,-0.12575 -0.07888,-0.15003 -0.05419,-0.10539 -0.130177,-0.24841 -0.05302,-0.10842 -0.104648,-0.2176 -0.153167,-0.32809 -0.03283,-0.0793 -0.0778,-0.1774 -0.107837,-0.2644 -0.03345,-0.0873 -0.07423,-0.17222 -0.102883,-0.26148 -0.04062,-0.10954 -0.08348,-0.21829 -0.117165,-0.33024 -0.0364,-0.10868 -0.07267,-0.21733 -0.105765,-0.32706 -0.0425,-0.12876 -0.08428,-0.25764 -0.122005,-0.3879 -0.05105,-0.16765 -0.09543,-0.33713 -0.137773,-0.50718 -0.03479,-0.15375 -0.07539,-0.30613 -0.10704,-0.46058 -0.03524,-0.16134 -0.07318,-0.32208 -0.105511,-0.48404 -0.03712,-0.16877 -0.07194,-0.33796 -0.106624,-0.50724 -0.03694,-0.16656 -0.06911,-0.33406 -0.107643,-0.50026 -0.04031,-0.18278 -0.07774,-0.36619 -0.118221,-0.54894 -0.03169,-0.16841 -0.07096,-0.33518 -0.103828,-0.50335 -0.03369,-0.16391 -0.07249,-0.32671 -0.105437,-0.49078 -0.03672,-0.1594 -0.07918,-0.31739 -0.116789,-0.47658 -0.04362,-0.16438 -0.08878,-0.32835 -0.13398,-0.49229 -0.04185,-0.14881 -0.08081,-0.29843 -0.124127,-0.44684 -0.04264,-0.13765 -0.08304,-0.27597 -0.130648,-0.41203 -0.03546,-0.11517 -0.07523,-0.22899 -0.112668,-0.34352 -0.01069,-0.0397 -0.08988,-0.23899 -0.04143,-0.12376 -0.02756,-0.0621 -0.06918,-0.16435 -0.06118,-0.14427 -0.202687,-0.44019 0.05357,0.10582 -0.02548,-0.0601 -0.05018,-0.0935 -0.119092,-0.26657 -0.03548,-0.0756 0.0087,0.02 -0.02101,-0.0382 -0.0315,-0.0573 -0.09896,-0.20368 -0.0053,-0.001 -0.1279,-0.32215 -0.01281,-0.0335 0.04714,0.14183 0.04787,0.13755 0.01995,0.0402 0.04084,0.08 0.05987,0.12068 0.02045,0.0437 -0.04686,-0.0846 -0.06539,-0.12909 -0.08326,-0.20009 -0.136297,-0.37676 -0.131207,-0.60975 2.9e-5,-0.0155 5.9e-5,-0.031 9.8e-5,-0.0465 4.3e-5,-0.0105 1.01e-4,-0.0211 1.77e-4,-0.0316 8.8e-5,-0.0133 1.72e-4,-0.0266 2.65e-4,-0.0399 1.98e-4,-0.0198 5.29e-4,-0.0396 0.0013,-0.0594 -1.24e-4,0.007 -2.65e-4,0.0137 -2.65e-4,0.0206 -3.7e-5,0.0817 0.0063,0.16358 0.02286,0.24374 0.206807,0.90845 3.021793,-0.68823 2.691779,0.17902 -0.004,0.0108 -0.008,0.0216 -0.01199,0.0324 -0.0066,0.0178 -0.01315,0.0356 -0.01974,0.0534 -0.01085,0.0294 -0.0217,0.0588 -0.03255,0.0881 -0.01834,0.0496 -0.03664,0.0992 -0.05507,0.14873 -0.03488,0.0934 -0.06973,0.18697 -0.110005,0.27825 -0.02492,0.0578 -0.05202,0.14037 -0.08561,0.23299 -0.04889,0.12907 -0.100565,0.25706 -0.155591,0.38365 -0.06215,0.15759 -0.128526,0.31337 -0.199435,0.46724 -0.08083,0.18984 -0.166907,0.37733 -0.252068,0.56523 -0.09917,0.20883 -0.196398,0.41856 -0.301797,0.62437 -0.122394,0.23869 -0.240173,0.47983 -0.369369,0.71496 -0.135115,0.23675 -0.270097,0.47356 -0.406863,0.70936 -0.152117,0.26257 -0.311957,0.52051 -0.469881,0.7796 -0.165685,0.27078 -0.336617,0.53831 -0.506088,0.80672 -0.168735,0.25913 -0.338029,0.51789 -0.506481,0.7772 -0.152156,0.23443 -0.308964,0.46592 -0.456044,0.7036 -0.135644,0.22206 -0.271367,0.44406 -0.407482,0.66582 -0.116461,0.18832 -0.23174,0.37738 -0.349469,0.56491 -0.09782,0.15016 -0.191622,0.30307 -0.294159,0.45006 -0.08673,0.12566 -0.173879,0.25128 -0.268007,0.37155 -0.07937,0.0977 -0.159909,0.19475 -0.247875,0.28492 -0.188095,0.18234 -0.256619,0.22753 -0.331626,0.28326 -0.164563,0.10618 -0.180864,0.12667 -0.44763,0.23275 -0.184936,0.0544 -0.374393,0.10012 -0.569507,0.0872 -0.02899,-5.3e-4 -0.05797,-10e-4 -0.08694,-0.002 -0.04839,-0.002 -0.09676,-0.005 -0.144846,-0.0111 -0.35623,-0.0425 -0.514504,-0.16236 -0.923422,-0.46313 -0.0026,-0.003 -0.0051,-0.006 -0.0076,-0.008 -0.0043,-0.005 -0.0085,-0.01 -0.01283,-0.0142 -0.009,-0.01 -0.01804,-0.02 -0.02702,-0.0301 -0.06897,-0.0778 -0.133252,-0.15973 -0.186521,-0.24934 -0.114583,-0.23146 -0.221945,-0.46705 -0.210272,-0.73698 -0.0013,-0.0342 -0.0024,-0.0684 -0.0037,-0.10255 -0.0021,-0.056 -0.0041,-0.11195 -0.0061,-0.16793 -0.0031,-0.0835 -0.0061,-0.167 -0.0097,-0.25047 -0.0051,-0.11898 -0.01019,-0.23798 -0.01617,-0.35692 -0.0078,-0.15425 -0.01611,-0.30846 -0.02606,-0.46258 -0.01333,-0.20462 -0.02848,-0.40911 -0.04101,-0.61379 -0.01064,-0.2312 -0.01291,-0.46263 -0.02013,-0.69396 -0.0067,-0.22498 -0.01439,-0.44995 -0.02498,-0.67479 -0.01069,-0.21767 -0.02228,-0.43532 -0.03978,-0.65257 -0.0172,-0.21163 -0.03744,-0.42296 -0.06219,-0.63385 -0.01955,-0.19119 -0.03285,-0.38301 -0.05693,-0.57374 -0.02453,-0.19332 -0.05581,-0.38571 -0.07768,-0.57936 -0.02246,-0.19037 -0.04786,-0.38044 -0.06274,-0.57162 -0.01879,-0.19242 -0.03955,-0.38476 -0.04621,-0.5781 -0.0114,-0.19889 -0.02682,-0.39762 -0.0312,-0.59684 -5.3e-5,-0.16065 -1.12e-4,-0.32131 -2.09e-4,-0.48196 -8.8e-5,-0.14025 -1.86e-4,-0.28051 -2.65e-4,-0.42076 -1.4e-4,-0.11698 -2.65e-4,-0.23395 -5.29e-4,-0.35093 -2.22e-4,-0.0878 -5.29e-4,-0.1756 -7.94e-4,-0.2634 -2.65e-4,-0.0615 -7.94e-4,-0.12307 -0.0013,-0.18461 -5.29e-4,-0.0321 -7.94e-4,-0.0643 -0.0016,-0.0964 0.0066,0.0816 0.02111,0.16892 0.04571,0.24956 0.216307,0.65857 1.214601,1.14005 1.856028,0.87528 0.285694,-0.1215 0.517292,-0.32522 0.674185,-0.59532 -0.01492,0.0264 -0.02985,0.0528 -0.04478,0.0792 -0.02577,0.0455 -0.05153,0.0911 -0.07748,0.13654 -0.05933,0.10341 -0.11947,0.20663 -0.189248,0.30348 -0.05587,0.0797 -0.11211,0.15918 -0.165593,0.24052 -0.07745,0.11457 -0.159012,0.22619 -0.236063,0.34103 -0.08988,0.12944 -0.178592,0.25968 -0.269547,0.38836 -0.102426,0.14476 -0.204182,0.28995 -0.307838,0.43383 -0.121954,0.16532 -0.248459,0.32722 -0.376203,0.48808 -0.141568,0.17533 -0.283911,0.35027 -0.43629,0.51641 -0.167135,0.18489 -0.336934,0.36732 -0.515837,0.54098 -0.194977,0.18823 -0.38944,0.37719 -0.595844,0.55308 -0.209413,0.1757 -0.420889,0.34905 -0.639265,0.51358 -0.204941,0.15357 -0.412888,0.30297 -0.624197,0.44768 -0.211294,0.15313 -0.42205,0.30711 -0.640816,0.44955 -0.204298,0.13652 -0.411982,0.26782 -0.623149,0.39349 -0.163624,0.0973 -0.323451,0.20095 -0.490704,0.29205 -0.173474,0.10477 -0.350671,0.20312 -0.53176,0.29416 -0.143317,0.0703 -0.284951,0.1448 -0.433623,0.20353 -0.144626,0.0591 -0.291375,0.11221 -0.440925,0.15754 -0.107829,0.0305 -0.216117,0.0595 -0.326105,0.0812 -0.420893,0.0636 -0.06414,0.009 -0.196093,0.0293 -0.356796,0.0503 -0.719063,-0.0136 -1.026954,-0.20136 -0.104616,-0.0862 -0.212685,-0.1684 -0.313848,-0.25864 -0.27618,-0.24637 -0.379273,-0.79721 -0.379111,-1.07917 0.0016,-0.0234 0.0031,-0.0469 0.0048,-0.0703 0.0036,-0.0478 0.008,-0.0956 0.01458,-0.14306 0.0047,-0.0367 0.0095,-0.0734 0.01479,-0.11009 0.01098,-0.0714 0.02445,-0.14243 0.04126,-0.21274 0.02217,-0.0897 0.04859,-0.17825 0.08115,-0.26476 0.04107,-0.10565 0.08839,-0.20867 0.145018,-0.30694 0.119867,-0.19957 0.0087,-0.0154 7.2e-5,0.003 -0.179192,0.3794 -0.0811,0.17471 -0.04389,0.0875 0.01844,-0.0433 0.03872,-0.0858 0.05808,-0.12862 0.0172,-0.0334 0.218726,-0.38123 0.144521,-0.24464 -0.109598,0.17535 0.01519,-0.0314 -0.142079,0.27754 -0.01217,0.0239 0.01852,-0.0504 0.02974,-0.0748 0.02965,-0.0643 0.05897,-0.12662 0.0946,-0.18696 0.06255,-0.10716 0.148272,-0.28543 0.158194,-0.23413 0.03042,0.15731 -0.47866,0.1955 -0.229849,0.42215 0.04627,-0.13517 0.103503,-0.26411 0.184994,-0.38331 -0.102713,0.16478 -0.185679,0.42007 -0.197053,0.57137 0.0016,-0.0137 0.003,-0.0275 0.0046,-0.0412 0.0035,-0.0314 0.007,-0.0628 0.01114,-0.0941 0.0085,-0.0598 0.01884,-0.1193 0.03246,-0.17814 0.0066,-0.0302 0.01328,-0.0604 0.01992,-0.0906 0.01058,-0.0481 0.02114,-0.0963 0.03165,-0.14442 0.0031,-0.0144 0.01953,-0.16287 0.01744,-0.081 -7.94e-4,0.0312 -0.02196,0.19702 -0.0105,0.0805 0.0066,-0.0999 0.0141,-0.19968 0.02265,-0.2994 0.01109,-0.1232 0.0227,-0.24637 0.03826,-0.36911 0.01894,-0.15045 0.03959,-0.30073 0.06538,-0.45018 0.03155,-0.17545 0.06636,-0.35037 0.109574,-0.52336 0.04088,-0.16205 0.08471,-0.32327 0.121346,-0.48636 0.04944,-0.19255 0.104952,-0.38333 0.155967,-0.57543 0.06157,-0.22122 0.131424,-0.43975 0.200927,-0.65856 0.07023,-0.22068 0.139226,-0.44174 0.209158,-0.66251 0.07123,-0.21511 0.139962,-0.431 0.209905,-0.64653 0.06492,-0.19509 0.127103,-0.39113 0.187431,-0.58768 0.05335,-0.17377 0.101883,-0.34893 0.155387,-0.52264 0.04512,-0.16249 0.09154,-0.32464 0.134077,-0.48782 0.04064,-0.1508 0.07885,-0.30236 0.127159,-0.45095 0.04197,-0.14527 0.08921,-0.28883 0.137012,-0.43226 0.03423,-0.0969 0.06329,-0.1955 0.101526,-0.29097 0.0011,-0.003 -0.0016,0.006 -0.0024,0.009 0.03388,-0.0962 0.05096,-0.15175 0.100909,-0.28113 0.0044,-0.0105 0.01688,-0.0424 0.01328,-0.0315 -0.01254,0.0378 -0.0013,0.10349 -0.04016,0.11262 -0.03848,0.009 0.02482,-0.0751 0.03839,-0.11221 0.02537,-0.0695 0.0575,-0.13277 0.09074,-0.19966 0.0068,-0.0137 0.01482,-0.0267 0.02222,-0.0401 0.154546,-0.25565 0.345686,-0.44921 0.613233,-0.59141 0.109974,-0.0584 0.304482,-0.24327 0.351089,-0.12778 1.094266,2.71155 1.599049,2.54905 0.532116,2.76883 -0.01868,0.003 -0.03734,0.005 -0.05602,0.008 -0.03073,0.004 -0.06147,0.009 -0.0922,0.0132 -0.05014,0.007 -0.100272,0.0144 -0.150403,0.0216 -0.06781,0.01 -0.135622,0.0195 -0.203311,0.0301 -0.09537,0.0163 -0.190849,0.0322 -0.285713,0.0513 -0.13254,0.0266 -0.264305,0.0566 -0.395973,0.0872 -0.163115,0.0344 -0.327519,0.0624 -0.489891,0.10039 -0.192321,0.0436 -0.384453,0.0878 -0.577496,0.12814 -0.213159,0.048 -0.427207,0.0917 -0.639929,0.14171 -0.203314,0.0422 -0.405376,0.0901 -0.608708,0.13228 -0.200121,0.0425 -0.400513,0.0838 -0.600859,0.12515 -0.17908,0.0368 -0.359222,0.0681 -0.537628,0.1082 -0.180681,0.0386 -0.362008,0.0744 -0.543335,0.10975 -0.145121,0.0284 -0.288441,0.0653 -0.433612,0.0935 -0.170842,0.0391 -0.341389,0.0796 -0.514093,0.10991 -0.138671,0.0226 -0.275792,0.0542 -0.415304,0.0716 -0.125261,0.0169 -0.25065,0.0325 -0.376851,0.0404 -0.145733,0.014 -0.291769,0.0319 -0.438547,0.0224 -0.08692,-0.004 -0.173831,-0.008 -0.260442,-0.0169 -0.09943,-0.0103 -0.198613,-0.0238 -0.296077,-0.0465 -0.170397,-0.0436 -0.338392,-0.099 -0.489053,-0.19231 -0.444604,-0.30851 0.03316,0.0229 0.08865,0.0438 0.138168,0.0519 0.284573,0.0788 0.425275,0.12336 0.05397,0.0171 -0.283302,-0.054 -0.167256,-0.0295 -0.740563,-0.2124 -0.683292,-0.4522 -1.076,-1.7801 0.0019,-0.007 0.0039,-0.0137 0.0058,-0.0206 0.0033,-0.0116 0.0066,-0.0231 0.0098,-0.0347 0.0073,-0.0256 0.01455,-0.0512 0.0222,-0.0767 0.03723,-0.12157 0.0828,-0.24078 0.148183,-0.35062 0.01463,-0.0259 0.02924,-0.0518 0.04392,-0.0776 0.122026,-0.21392 -0.180668,0.45981 -0.08217,0.18625 0.03456,-0.10423 0.07567,-0.20634 0.128418,-0.30284 0.06251,-0.11826 0.131207,-0.23364 0.21875,-0.33563 0.05895,-0.0712 0.118475,-0.14199 0.183671,-0.20762 0.05857,-0.0547 0.11671,-0.11091 0.179419,-0.16088 0.115319,-0.10173 0.233188,-0.20045 0.360654,-0.28694 0.05804,-0.0409 0.161147,-0.11275 0.240869,-0.16391 0.111746,-0.0746 0.224721,-0.14763 0.34019,-0.21631 0.104807,-0.0616 0.209455,-0.12342 0.315643,-0.18263 0.113538,-0.0631 0.222948,-0.13383 0.336317,-0.19734 0.08922,-0.0458 0.171564,-0.10459 0.258003,-0.15528 0.109334,-0.0705 0.219369,-0.13987 0.326261,-0.21409 0.09834,-0.0678 0.195082,-0.13745 0.28589,-0.21532 0.126291,-0.10271 0.25051,-0.20791 0.373996,-0.31397 0.122127,-0.10524 0.239583,-0.21623 0.354269,-0.32948 0.142291,-0.14208 0.283771,-0.28487 0.419556,-0.43324 0.128428,-0.13141 0.254132,-0.26516 0.372604,-0.40573 0.123574,-0.1411 0.252328,-0.27768 0.371393,-0.42263 0.129411,-0.1579 0.262274,-0.31284 0.393335,-0.46937 0.121142,-0.14227 0.245647,-0.28163 0.366078,-0.42451 0.134104,-0.15624 0.271547,-0.30972 0.416893,-0.45565 0.132265,-0.13574 0.262842,-0.27318 0.401219,-0.40283 0.124193,-0.11386 0.240832,-0.2362 0.37324,-0.34101 0.122632,-0.10368 0.244023,-0.20907 0.372719,-0.3053 0.08647,-0.0615 0.170214,-0.1208 0.257529,-0.17977 0.111408,-0.073 0.224848,-0.1343 0.343199,-0.19524 0.01712,-0.009 -0.03471,0.0167 -0.05206,0.0251 0.101753,-0.0507 0.403365,-0.16924 0.111236,-0.05 -0.01283,0.005 0.02511,-0.0117 0.03765,-0.0176 0.214553,-0.0922 0.442828,-0.15205 0.681572,-0.13558 0.03651,10e-4 0.07302,0.003 0.109413,0.006 0.02672,0.002 0.05343,0.004 0.08008,0.007 0.12132,0.0157 0.24261,0.039 0.356881,0.085 0.0083,0.003 0.01667,0.006 0.025,0.009 0.01379,0.005 0.02758,0.0102 0.04137,0.0154 0.02416,0.009 0.0483,0.0179 0.07243,0.0269 0.09019,0.0339 0.180041,0.0691 0.26534,0.11428 -0.09498,-0.0471 -0.499327,-0.15723 -0.161322,-0.0679 0.01336,0.004 0.277215,0.0875 0.181547,0.0591 -0.15806,-0.049 0.11521,0.0341 -0.200695,-0.0488 -0.02653,-0.007 0.05413,0.009 0.08094,0.0149 0.0359,0.008 0.07178,0.0158 0.107133,0.0258 0.04374,0.0123 0.159625,0.007 0.129995,0.0412 -0.558067,0.64913 -1.178203,1.2422 -1.767303,1.86331 0.144423,0.27966 0.304339,0.53231 0.596955,0.68134 0.06125,0.0314 0.197782,0.0844 0.04431,0.0247 -0.07939,-0.0305 -0.158803,-0.0609 -0.237871,-0.0922 -0.08674,-0.0348 -0.172977,-0.071 -0.258218,-0.10933 -0.161634,-0.0575 -0.321799,-0.11894 -0.48011,-0.18505 -0.163912,-0.0691 -0.332666,-0.12724 -0.498202,-0.19233 -0.200816,-0.0786 -0.399765,-0.16192 -0.599737,-0.24268 -0.233587,-0.0932 -0.464121,-0.19363 -0.694399,-0.29473 -0.227777,-0.10271 -0.455308,-0.20607 -0.680101,-0.3152 -0.232793,-0.11074 -0.463126,-0.22652 -0.692343,-0.34447 -0.2155,-0.11058 -0.430421,-0.22215 -0.64349,-0.33737 -0.205888,-0.10813 -0.410385,-0.21892 -0.615916,-0.32774 -0.190481,-0.10008 -0.380042,-0.20191 -0.570836,-0.30138 -0.200564,-0.1021 -0.399875,-0.20666 -0.598754,-0.31199 -0.161349,-0.0903 -0.326904,-0.17276 -0.491078,-0.25774 -0.154971,-0.0849 -0.310639,-0.16864 -0.463949,-0.25659 -0.146513,-0.0854 -0.293341,-0.17041 -0.435642,-0.26281 -0.1139,-0.0753 -0.226047,-0.15287 -0.337714,-0.23133 -0.08466,-0.0619 -0.167119,-0.12647 -0.249761,-0.19097 -0.06135,-0.0483 -0.09914,-0.0781 -0.184947,-0.14874 -0.02492,-0.0201 -0.05039,-0.0397 -0.07514,-0.0599 -0.0217,-0.0178 -0.08912,-0.0674 -0.06451,-0.054 0.0071,0.004 0.169329,0.13429 0.01815,0.0163 -0.03345,-0.0284 -0.06681,-0.0568 -0.100364,-0.085 -0.02975,-0.025 0.12075,0.098 0.09093,0.073 -0.24253,-0.20291 -0.129667,-0.10242 -0.07968,-0.0636 0.117729,0.0818 0.206475,0.14408 -0.04647,-0.0348 -0.01117,-0.008 0.02143,0.017 0.03263,0.0248 0.0217,0.0152 0.04259,0.0317 0.06567,0.0447 0.06424,0.0361 0.130628,0.0683 0.19594,0.10239 -0.08686,-0.0444 -0.173516,-0.0834 -0.254408,-0.13651 -0.397277,-0.25288 0.745361,0.25025 0.444342,0.17282 -0.191868,-0.0373 -0.361757,-0.10178 -0.534213,-0.2094 -0.01093,-0.007 -0.02188,-0.014 -0.03277,-0.0211 -0.06313,-0.0409 -0.125045,-0.0838 -0.182611,-0.13246 -0.245962,-0.23219 -0.09187,-0.0684 -0.385273,-0.49637 -0.0084,-0.0123 0.01291,0.0269 0.02006,0.0401 0.05322,0.0975 0.04275,0.0733 0.130752,0.20103 0.63692,0.55937 0.478086,0.39016 0.300677,0.28501 -0.266207,-0.18163 -0.477689,-0.42216 -0.58376,-0.74 -0.166855,-0.46881 -0.0681,-1.09278 0.265969,-1.46457 0.06862,-0.077 0.141994,-0.14973 0.224187,-0.21252 0.245062,-0.15659 0.487886,-0.30319 0.800738,-0.30092 0.02786,-0.002 0.05571,-0.004 0.08357,-0.007 0.04555,-0.004 0.0911,-0.007 0.136642,-0.0108 0.06441,-0.005 0.12882,-0.0102 0.193185,-0.0159 0.08863,-0.009 0.177287,-0.0169 0.265753,-0.027 0.160224,-0.018 0.320244,-0.0392 0.481417,-0.047 0.136547,-0.004 0.27308,-0.009 0.409549,-0.0157 0.150127,-0.007 0.300217,-0.0152 0.450175,-0.0255 0.171104,-0.012 0.342022,-0.0263 0.512906,-0.041 0.201559,-0.016 0.403383,-0.0237 0.605411,-0.0312 0.198006,-0.009 0.395904,-0.0205 0.59394,-0.0291 0.200884,-0.005 0.401753,-0.002 0.602683,-4.2e-4 0.183021,0.001 0.366041,0.003 0.54905,0.006 0.174027,0.002 0.348052,0.005 0.522052,0.009 0.172922,0.004 0.345837,0.009 0.518676,0.0157 0.170762,0.007 0.341495,0.0149 0.512017,0.0265 0.119134,0.008 0.238411,0.0163 0.357269,0.0274 0.150199,8.4e-4 0.300398,0.002 0.450591,0.003 0.149415,0.001 0.298828,0.003 0.448231,0.005 0.145388,0.002 0.290777,0.005 0.436136,0.009 0.142275,0.004 0.284536,0.009 0.42671,0.0157 0.139533,0.007 0.279008,0.0155 0.418173,0.028 0.133388,0.0126 0.266513,0.0278 0.398796,0.0493 0.02946,0.005 0.115594,0.0295 -0.0056,0.005 -0.03542,-0.007 0.139991,0.0134 0.108209,0.007 0.01537,0.001 0.03074,0.003 0.04611,0.004 0.116427,0.0104 0.232765,0.023 0.347657,0.0451 0.115001,0.0228 0.229071,0.0503 0.339897,0.0889 0.247298,0.087 -0.283937,-0.0762 -0.0061,3.9e-4 0.112628,0.0279 0.224703,0.0585 0.331406,0.10496 0.06166,0.0255 0.12078,0.0537 0.18101,0.0827 0.0087,0.004 -0.01723,-0.009 -0.02604,-0.0129 -0.108239,-0.0491 -0.08067,-0.0337 -0.240969,-0.0849 0.125343,0.0346 0.249795,0.0717 0.367088,0.12921 0.19359,0.0934 -0.458608,-0.12571 -0.269552,-0.081 0.09346,0.0188 7.93e-4,-5.8e-4 0.147312,0.0345 0.01217,0.003 -0.0241,-0.007 -0.03627,-0.01 -0.02164,-0.005 -0.131268,-0.0299 -0.142896,-0.0265 -0.377378,0.10876 -0.747657,0.24078 -1.121484,0.36118 -0.08834,0.11106 -0.237485,0.19397 -0.26502,0.33318 -0.245094,1.23919 0.12427,1.65933 -0.06475,1.24801 -0.009,-0.0199 -0.0181,-0.0397 -0.02714,-0.0596 -0.01479,-0.0325 -0.02958,-0.065 -0.04438,-0.0974 -0.02154,-0.0472 -0.04303,-0.0944 -0.06495,-0.14143 -0.01773,-0.0378 -0.03202,-0.0664 -0.06751,-0.1259 -0.0551,-0.0959 -0.115599,-0.18877 -0.165209,-0.28777 -0.07108,-0.12089 -0.141523,-0.24208 -0.211616,-0.36352 -0.07466,-0.12702 -0.148836,-0.25412 -0.22978,-0.37732 -0.09342,-0.145 -0.187272,-0.28954 -0.286761,-0.4305 -0.111575,-0.1592 -0.224845,-0.31718 -0.338259,-0.47508 -0.125198,-0.16695 -0.251756,-0.33293 -0.383101,-0.49511 -0.141224,-0.1761 -0.286046,-0.34923 -0.427453,-0.5252 -0.146632,-0.18086 -0.298227,-0.3577 -0.441489,-0.54132 -0.150595,-0.18791 -0.306326,-0.37177 -0.450961,-0.56443 -0.125915,-0.16481 -0.253902,-0.3275 -0.387596,-0.48614 -0.12854,-0.16151 -0.254185,-0.32527 -0.383648,-0.48605 -0.117301,-0.15081 -0.234678,-0.30154 -0.351978,-0.45235 -0.103828,-0.13707 -0.210688,-0.27178 -0.312923,-0.41006 -0.08422,-0.11403 -0.169812,-0.22704 -0.257987,-0.33806 -0.08436,-0.11164 -0.168209,-0.22355 -0.254625,-0.33364 -0.05306,-0.0802 -0.116829,-0.15347 -0.173119,-0.23133 0.09952,0.11688 -0.18166,-0.21348 -0.08054,-0.0975 -2.65e-4,-3.5e-4 -0.163312,-0.18218 -0.08361,-0.098 -0.0303,-0.0325 -0.06057,-0.0651 -0.09089,-0.0976 -0.01953,-0.0209 0.0802,0.0817 0.06002,0.0614 -0.229007,-0.2304 0.121177,0.11355 0.0021,-6e-5 -0.03352,-0.0299 -0.134202,-0.11919 -0.0987,-0.0917 0.151882,0.1176 0.247097,0.21793 0.433872,0.28086 1.117282,0.39188 1.658419,-2.79078 0.582898,-2.73884 0.0226,0.002 0.04518,0.004 0.06778,0.006 0.03881,0.003 0.07762,0.007 0.116414,0.0101 0.06167,0.006 0.123267,0.0119 0.184721,0.0195 0.08224,0.01 0.164505,0.0192 0.246539,0.0306 0.108323,0.0157 0.216607,0.0318 0.324152,0.0522 0.142967,0.0275 0.285326,0.0584 0.425275,0.0988 0.103873,0.03 0.206309,0.0646 0.310592,0.0929 0.125301,0.035 0.25005,0.0722 0.372972,0.11492 0.125662,0.0367 0.250021,0.0775 0.375645,0.11423 0.135221,0.0396 0.269216,0.0831 0.405683,0.1183 0.120118,0.0343 0.241454,0.0635 0.362522,0.0944 0.162398,0.0352 0.32394,0.074 0.487405,0.10414 0.168092,0.0361 0.336301,0.0707 0.505385,0.10203 0.174236,0.0359 0.349536,0.066 0.523656,0.10249 0.188047,0.0387 0.378142,0.0678 0.564594,0.11432 0.162222,0.0371 0.325345,0.0706 0.48587,0.11483 0.1669,0.0388 0.331931,0.0842 0.497446,0.1284 0.135903,0.0368 0.271537,0.0737 0.408504,0.10647 0.103954,0.0295 0.210746,0.047 0.316902,0.0662 0.08017,0.0148 0.160932,0.0253 0.241662,0.0364 0.136877,0.009 0.27369,0.0185 0.410348,0.0303 0.09165,0.007 0.195016,0.004 0.293849,0.005 0.12034,0 0.24068,0 0.361021,0 0.110437,0 0.220874,0 0.331314,0 0.101208,0 0.202417,0 0.303625,0 0.08883,0 0.17767,0 0.266504,0 1.995612,0 1.995612,2.82222 0,2.82222 z"
       inkscape:connector-curvature="0" />
    <path
       style="fill:#ffffff;fill-opacity:1;fill-rule:nonzero;stroke:none;stroke-width:0.26458332"
       id="path1121"
       d="m 47.625674,239.83903 c 0.09729,-0.0406 -0.211156,0.0684 -0.126124,0.0175 0.01654,-0.01 0.03818,-0.005 0.05727,-0.008 0.0029,-4.2e-4 0.01164,-0.002 0.0088,-0.001 -0.01371,0.004 -0.0276,0.007 -0.04141,0.01 -0.09144,0.0231 -0.183745,0.0424 -0.276145,0.0612 -0.197803,0.0474 0.114903,-0.0376 0.01333,-6.6e-4 -0.0793,0.0281 -0.160205,0.0512 -0.241073,0.0742 -0.06733,0.0283 0.128347,-0.0468 0.147958,-0.0558 0.14931,-1.71359 0.812358,-2.39738 -0.323181,-2.63183 -0.04038,-0.008 -0.08135,-0.009 -0.122171,-0.0125 -0.0083,-6.8e-4 0.01659,7e-5 0.02487,1.1e-4 0.03456,1.5e-4 0.06911,2e-4 0.103669,2.6e-4 -0.03799,-0.0583 -0.610463,0.13003 -0.313587,0.0322 0.05285,-0.0159 0.106389,-0.0292 0.159928,-0.0425 -0.01119,0.004 0.04552,-0.012 0.03429,-0.008 -0.193464,0.0607 -0.344819,0.13634 -0.514411,0.24822 -0.65269,0.55032 -1.387158,2.13086 0.605276,2.49585 0.221951,0.0388 0.446464,-0.0123 0.658204,-0.0778 0.302514,-0.14232 0.06491,-0.0189 -0.104767,0.0452 -0.04279,0.0151 -0.08622,0.0283 -0.129693,0.0412 -0.478314,0.15108 -0.901581,0.0342 -1.273154,-0.21833 -0.170397,-0.12189 -0.230968,-0.23934 -0.400378,-0.43695 -1.019953,-1.71528 1.405811,-3.15771 2.425763,-1.44243 v 0 c -0.166671,-0.19236 -0.216106,-0.29589 -0.374872,-0.40989 -0.4249,-0.28582 -0.541671,-0.17643 -1.197777,-0.1928 -0.0048,-1.2e-4 0.01871,-0.004 0.01368,-0.004 0.0217,-0.006 0.02561,-0.008 -0.0057,0.003 -0.115618,0.0449 -0.01212,0.003 -0.207836,0.0972 -0.0083,0.004 0.01595,-0.009 0.024,-0.0136 0.06469,-0.0359 0.130958,-0.0687 0.199956,-0.0957 0.259273,-0.0827 0.532059,-0.13287 0.802852,-0.0842 1.918459,0.31303 1.401757,1.94046 0.692314,2.52483 -0.176993,0.11732 -0.356169,0.22815 -0.56892,0.26815 -0.0088,0.002 -0.06341,0.0163 -0.01937,0.004 0.02032,-0.007 0.04049,-0.0144 0.06096,-0.0209 0.02918,-0.009 -0.05754,0.0211 -0.08676,0.0302 -0.158043,0.0496 -0.316968,0.0791 -0.48423,0.0801 -0.0386,-5e-5 -0.0772,-1.2e-4 -0.115802,-2.9e-4 -0.102048,-6.3e-4 -0.204304,-0.003 -0.305388,-0.0188 -0.854321,-0.16526 -2.970395,-1.37037 -0.469902,-2.70778 0.09414,-0.0442 0.191002,-0.0829 0.291608,-0.10991 0.01114,-0.003 0.102547,-0.0306 0.05443,-0.014 0.125598,-0.0452 0.252558,-0.0876 0.384426,-0.11092 0.05867,-0.0119 0.117361,-0.0236 0.175295,-0.0388 0.120369,-0.0291 0.241599,-0.0539 0.364627,-0.0686 1.975557,-0.28222 2.374678,2.51164 0.399124,2.79386 z"
       inkscape:connector-curvature="0" />
    <path
       style="fill:#ffffff;fill-opacity:1;fill-rule:nonzero;stroke:none;stroke-width:0.26458332"
       id="path1123"
       d="m 60.49311,240.57029 c -0.115996,-0.058 0.178956,0.0869 0.05694,0.0383 0.0052,0.002 0.01058,0.004 0.01545,0.007 0.01487,0.008 -0.0655,-0.0199 -0.04895,-0.0155 0.162542,0.0427 0.07172,0.0243 0.18973,0.0456 0.04485,0.006 0.05105,0.006 0.01117,0.004 0.205795,0.005 0.40405,-0.027 0.591039,-0.11018 0.451197,-0.24964 0.577903,-0.45122 0.753359,-0.93225 0.01273,-0.0349 0.02196,-0.0723 0.02122,-0.10944 -0.0039,-0.19293 -0.02334,-0.38523 -0.03498,-0.57784 -0.09782,-0.32713 -0.295891,-0.59471 -0.584983,-0.78282 -0.112839,-0.0692 -0.227867,-0.11759 -0.35479,-0.1496 -0.06408,-0.0178 -0.230847,-0.0199 -0.345303,-0.0116 -0.109273,0.0143 0.116412,-0.018 0.118727,-0.0183 -0.139393,0.0258 -0.11321,0.0163 -0.210021,0.0447 -0.0076,0.002 -0.02989,0.01 -0.02246,0.007 0.04507,-0.0157 0.09034,-0.0303 0.135927,-0.0444 0.03917,-0.012 0.07842,-0.0236 0.117671,-0.0353 0.02188,-0.007 0.04375,-0.013 0.06562,-0.0195 0.9216,-0.2821 2.05213,1.72059 1.368145,2.40261 -0.03311,0.0838 -0.589463,0.37737 -0.223914,0.17633 0.03604,-0.0198 -0.06853,0.0455 -0.103376,0.0674 -0.127897,0.0609 -0.289435,0.18543 -0.03503,0.0182 -0.08745,0.0646 -0.182592,0.11693 -0.278913,0.16668 -0.103921,0.0456 -0.226089,0.16086 0.164565,-0.11211 0.03301,-0.0231 0.06094,-0.0527 0.09141,-0.079 -0.0096,0.022 0.08008,-0.0854 0.05739,-0.0582 -0.0082,0.01 -0.01643,0.0198 -0.02466,0.0297 -0.09815,0.1158 -0.111802,0.23282 0.20842,-0.35385 0.01749,-0.0321 0.02458,-0.0688 0.03687,-0.10319 -0.139269,0.28726 -0.128828,0.33304 -0.291547,0.52146 -0.03497,0.0405 0.06515,-0.0849 0.09773,-0.12735 -1.107382,1.66017 -3.455223,0.0941 -2.347841,-1.56607 v 0 c 0.03729,-0.0495 0.07563,-0.0983 0.111871,-0.14856 0.108866,-0.15105 -0.845132,1.11562 -0.267573,0.49035 0.06477,-0.18453 0.142155,-0.3676 0.279651,-0.51432 0.01064,-0.0128 0.02127,-0.0257 0.03195,-0.0385 0.04778,-0.0571 0.0968,-0.11323 0.150588,-0.16483 0.12478,-0.1101 0.255796,-0.21457 0.408548,-0.28433 0.04637,-0.0237 -0.179303,0.11823 -0.06427,0.0423 0.04691,-0.0329 0.395332,-0.23334 0.164824,-0.10571 -2.64e-4,2e-4 0.01582,-0.009 0.01778,-0.0107 -0.0606,0.0419 -0.146589,0.10109 0.121328,-0.0741 0.02577,-0.0168 -0.05395,0.0299 -0.07904,0.0477 -0.05062,0.036 -0.09922,0.0747 -0.147778,0.11339 -0.0114,0.009 -0.02133,0.0199 -0.03197,0.0299 -0.672494,0.69633 2.316348,2.08314 1.389467,2.33984 -0.02156,0.006 -0.04311,0.0128 -0.06466,0.0192 -0.03121,0.009 -0.06243,0.0186 -0.0936,0.028 -0.04122,0.0126 -0.271246,0.0925 -0.36561,0.093 -0.01201,0.002 -0.119308,0.0182 -0.146563,0.0218 -0.191286,0.0169 -0.384625,0.0152 -0.572518,-0.0277 -0.188852,-0.0403 -0.36797,-0.10216 -0.534776,-0.20221 -0.324078,-0.20718 -0.553696,-0.49994 -0.664925,-0.86644 -0.0132,-0.19808 -0.03516,-0.39578 -0.03958,-0.59426 -0.0011,-0.0425 0.0093,-0.0852 0.02352,-0.1252 0.177708,-0.5003 0.313952,-0.70888 0.779365,-0.96975 0.231852,-0.10939 0.475525,-0.16937 0.735401,-0.1624 0.08297,0.003 0.165974,0.008 0.248378,0.0183 0.179927,0.0287 0.355724,0.0739 0.52478,0.14234 0.158483,0.0639 0.315582,0.1337 0.456255,0.23217 1.660451,1.10697 0.09496,3.4552 -1.565486,2.34823 z"
       inkscape:connector-curvature="0" />
    <path
       style="fill:#ffffff;fill-opacity:1;fill-rule:nonzero;stroke:none;stroke-width:0.26458332"
       id="path1127"
       d="m 51.707658,240.20278 c 0.104365,0 0.20873,0 0.313094,0 0.135187,0 0.27037,0 0.405556,0 0.184037,-0.004 0.367623,0.009 0.551069,0.0219 0.180629,0.009 0.360516,0.0254 0.540248,0.0451 0.181689,0.0166 0.362653,0.0386 0.543287,0.0641 0.171963,0.0216 0.343263,0.047 0.514189,0.0756 0.16393,0.0238 0.326178,0.0571 0.488876,0.0879 0.15173,0.0263 0.301096,0.0643 0.451858,0.0954 0.141658,0.0268 0.281003,0.0642 0.421386,0.0968 0.127415,0.027 0.252074,0.0652 0.378092,0.0979 0.06763,0.0179 0.136046,0.0326 0.204711,0.0459 0.122655,0.0195 0.243763,0.0453 0.363492,0.0785 0.05725,0.0188 0.115234,0.0352 0.17313,0.0519 0.03929,0.0113 0.07859,0.0225 0.117891,0.0337 -0.01122,-0.003 0.03812,0.0106 0.02854,0.008 -0.0227,-0.006 -0.04534,-0.0119 -0.06796,-0.018 0.02008,0.004 0.04017,0.007 0.06027,0.0107 0.01447,0.003 0.02892,0.005 0.04339,0.008 0.0089,0.002 0.01773,0.003 0.02661,0.005 0.0054,9.6e-4 0.01077,0.002 0.01617,0.003 0.0033,5.8e-4 0.0065,10e-4 0.0098,0.002 0.0021,3.4e-4 0.004,6.9e-4 0.006,0.001 0.988356,1.08263 1.366763,0.89599 1.077028,1.94374 -0.03497,0.10649 0.02056,-0.0684 0.0278,-0.0974 -0.08073,0.25906 -0.05141,0.20251 -0.137157,0.40402 -0.0067,0.0164 -0.06027,0.13952 -0.06905,0.16265 -0.04657,0.11473 -0.100457,0.22616 -0.154815,0.33734 -0.04759,0.0893 -0.09008,0.18067 -0.135142,0.27124 -0.02569,0.0671 -0.06234,0.12976 -0.08733,0.19721 -0.04225,0.0973 -0.07859,0.19682 -0.117419,0.29548 -0.03686,0.087 -0.06322,0.17769 -0.09344,0.26711 -0.03491,0.0984 -0.06051,0.19961 -0.08985,0.29969 -0.03549,0.10942 -0.06238,0.22125 -0.09297,0.33205 -0.02824,0.0922 -0.05422,0.18494 -0.07683,0.27865 -0.02384,0.11616 -0.0625,0.2285 -0.09293,0.34293 -0.02899,0.12083 -0.07076,0.23795 -0.112842,0.35469 -0.01519,0.0401 -0.02649,0.0815 -0.03975,0.12577 -0.03019,0.11529 -0.07669,0.22268 -0.120306,0.33424 -0.05078,0.1073 -0.116139,0.20622 -0.185502,0.3021 -0.148442,0.22313 -0.354822,0.35662 -0.579028,0.48536 -0.213195,0.11357 -0.441354,0.14458 -0.677973,0.17232 -0.10572,0.005 -0.210659,-0.007 -0.315873,-0.0142 -0.120708,-0.005 -0.239207,-0.0285 -0.358563,-0.0445 -0.1475,-0.0254 -0.294508,-0.0536 -0.441098,-0.0838 -0.172434,-0.0343 -0.343315,-0.0761 -0.51349,-0.12014 -0.192516,-0.054 -0.384132,-0.11095 -0.573942,-0.17383 -0.211558,-0.0697 -0.415062,-0.16101 -0.616654,-0.25514 -0.200922,-0.0952 -0.392954,-0.20749 -0.581546,-0.32485 -0.189833,-0.11735 -0.367197,-0.25223 -0.538842,-0.39447 -0.151384,-0.12657 -0.293878,-0.2632 -0.433716,-0.40228 -0.140478,-0.13794 -0.269759,-0.28658 -0.39484,-0.43842 -0.116393,-0.14086 -0.223803,-0.28878 -0.328343,-0.43854 -0.10845,-0.15046 -0.20021,-0.31187 -0.290684,-0.4735 -0.101209,-0.17722 -0.181047,-0.36506 -0.251971,-0.55605 -0.06005,-0.16452 -0.105791,-0.33357 -0.145907,-0.50389 -0.04499,-0.18319 -0.06022,-0.3714 -0.07086,-0.55913 -0.0073,-0.14139 0.0049,-0.28235 0.01757,-0.42296 0.179461,-1.98753 2.990246,-1.73373 2.810788,0.25379 v 0 c -0.0037,0.0405 -0.0095,0.13075 -0.01045,0.0134 0.0098,0.18681 -0.0068,-0.0323 0.0011,0.0722 0.01429,0.0619 0.02891,0.12376 0.05067,0.18356 0.01574,0.0518 0.03945,0.10092 0.06591,0.14796 0.04281,0.0784 0.08575,0.15713 0.138271,0.22949 0.06203,0.0889 0.124552,0.17763 0.193818,0.26112 0.06543,0.0798 0.131852,0.15895 0.206047,0.23082 0.07997,0.0797 0.160258,0.15919 0.246591,0.23201 0.07424,0.062 0.148773,0.12283 0.232191,0.17261 0.09105,0.0577 0.183919,0.11275 0.280387,0.16093 0.104095,0.0489 0.208205,0.0988 0.317359,0.13543 0.1269,0.0437 0.25644,0.0786 0.384781,0.11771 0.124381,0.0322 0.249082,0.0636 0.375261,0.088 0.09061,0.0187 0.185299,0.0291 0.27431,0.0537 0.005,0.001 -0.01035,-8.5e-4 -0.01551,-0.001 0.185142,0.026 0.163439,0.0249 0.157732,0.024 0.03998,0.003 0.07993,0.006 0.119874,0.009 0.0062,5e-4 0.02477,9.5e-4 0.01857,0.002 -0.03753,0.004 -0.07596,-0.0234 -0.113146,-3.4e-4 -0.165968,0.022 -0.322295,0.038 -0.470755,0.11916 -0.181271,0.10665 -0.344731,0.22302 -0.453072,0.38721 -0.02774,0.0457 -0.05349,0.0926 -0.0773,0.14046 -0.139632,0.37257 -0.05707,0.15838 -0.03512,0.069 0.02747,-0.0916 0.05503,-0.18325 0.08831,-0.27294 0.0089,-0.0247 0.06534,-0.15721 0.01738,-0.0351 -0.01365,0.0348 0.04542,-0.15448 0.02851,-0.10835 0.03069,-0.11071 0.05551,-0.18275 0.07224,-0.26293 0.03195,-0.13093 0.06687,-0.26107 0.106296,-0.38997 0.03261,-0.12467 0.06589,-0.25005 0.105109,-0.37321 0.0374,-0.13399 0.07572,-0.26835 0.12224,-0.39977 0.0495,-0.13065 0.08351,-0.26744 0.141089,-0.39529 0.04559,-0.10645 0.08178,-0.21708 0.128625,-0.3231 0.05397,-0.1289 0.112239,-0.25585 0.171521,-0.38238 0.03537,-0.0708 0.07546,-0.15729 0.125219,-0.25116 0.04627,-0.0946 0.04115,-0.0795 0.06494,-0.13354 0.02689,-0.0675 0.02596,-0.0665 0.05879,-0.14172 0.0058,-0.0133 0.02215,-0.0536 0.01815,-0.0396 -0.006,0.0207 -0.03165,0.0803 -0.02402,0.0601 0.02257,-0.0596 0.02545,-0.0657 0.04445,-0.11044 0.0043,-0.0101 0.0163,-0.0406 0.01286,-0.0302 -0.01024,0.0312 -0.01931,0.063 -0.03336,0.0927 -0.01624,0.0344 0.04716,-0.14451 0.03738,-0.10777 -0.01381,0.0519 -0.02835,0.10362 -0.04253,0.15543 0.02286,-0.098 0.04662,-0.19592 0.08448,-0.28957 -0.26379,0.98675 0.114826,0.78481 1.080881,1.81364 -0.0021,-3.4e-4 -0.004,-6.9e-4 -0.006,-0.001 -0.0033,-5.8e-4 -0.0065,-0.001 -0.0098,-0.002 -0.0054,-9.5e-4 -0.01077,-0.002 -0.01617,-0.003 -0.0089,-0.002 -0.01775,-0.003 -0.02665,-0.005 -0.01476,-0.003 -0.02953,-0.005 -0.04429,-0.008 -0.02751,-0.005 -0.05502,-0.01 -0.0825,-0.0147 -0.07514,-0.014 -0.150032,-0.0296 -0.223266,-0.0518 -0.04095,-0.0117 -0.0819,-0.0234 -0.122841,-0.0351 -0.06171,-0.0178 -0.136509,-0.0391 -0.187462,-0.056 0.255304,0.0609 -0.05456,-0.0145 -0.110535,-0.0168 -0.124947,-0.0246 -0.249412,-0.0517 -0.372586,-0.0841 -0.106294,-0.0277 -0.207373,-0.0589 -0.30765,-0.0805 -0.119237,-0.0277 -0.237487,-0.0599 -0.357717,-0.0828 -0.13413,-0.0281 -0.267202,-0.0612 -0.402021,-0.0855 -0.143123,-0.0272 -0.285694,-0.0571 -0.430027,-0.0774 -0.147553,-0.0248 -0.295357,-0.0463 -0.443857,-0.0647 -0.150778,-0.0214 -0.30172,-0.0393 -0.453448,-0.0529 -0.142177,-0.0155 -0.28421,-0.029 -0.427207,-0.035 -0.11916,-0.008 -0.23799,-0.0198 -0.357563,-0.0152 -0.135186,0 -0.27037,0 -0.405556,0 -0.104365,0 -0.20873,0 -0.313095,0 -1.995614,0 -1.995614,-2.82223 0,-2.82223 z"
       inkscape:connector-curvature="0" />
  </g>
</svg>
