<?xml version="1.0" encoding="UTF-8" standalone="no"?>
<!-- Created with Inkscape (http://www.inkscape.org/) -->

<svg
   xmlns:dc="http://purl.org/dc/elements/1.1/"
   xmlns:cc="http://creativecommons.org/ns#"
   xmlns:rdf="http://www.w3.org/1999/02/22-rdf-syntax-ns#"
   xmlns:svg="http://www.w3.org/2000/svg"
   xmlns="http://www.w3.org/2000/svg"
   xmlns:sodipodi="http://sodipodi.sourceforge.net/DTD/sodipodi-0.dtd"
   xmlns:inkscape="http://www.inkscape.org/namespaces/inkscape"
   width="64mm"
   height="64mm"
   viewBox="0 0 64 64"
   version="1.1"
   id="svg8"
   sodipodi:docname="chat.svg"
   inkscape:version="0.92.5 (2060ec1f9f, 2020-04-08)">
  <defs
     id="defs2" />
  <sodipodi:namedview
     id="base"
     pagecolor="#ffffff"
     bordercolor="#666666"
     borderopacity="1.0"
     inkscape:pageopacity="0.0"
     inkscape:pageshadow="2"
     inkscape:zoom="2.1213203"
     inkscape:cx="-36.053889"
     inkscape:cy="85.006558"
     inkscape:document-units="mm"
     inkscape:current-layer="layer1"
     showgrid="false"
     inkscape:snap-page="true"
     inkscape:window-width="1920"
     inkscape:window-height="1016"
     inkscape:window-x="0"
     inkscape:window-y="27"
     inkscape:window-maximized="1"
     units="mm" />
  <metadata
     id="metadata5">
    <rdf:RDF>
      <cc:Work
         rdf:about="">
        <dc:format>image/svg+xml</dc:format>
        <dc:type
           rdf:resource="http://purl.org/dc/dcmitype/StillImage" />
        <dc:title />
      </cc:Work>
    </rdf:RDF>
  </metadata>
  <g
     inkscape:label="Layer 1"
     inkscape:groupmode="layer"
     id="layer1"
     transform="translate(0,-233)">
    <rect
       style="fill:#673ab7;fill-opacity:1;stroke-width:0.26458332"
       id="rect3713"
       width="64"
       height="64"
       x="0"
       y="233" />
    <path
       style="fill:#ffffff;fill-opacity:1;fill-rule:nonzero;stroke:none;stroke-width:0.26458332"
       id="path1305"
       d="m 10.702339,256.45803 c -0.05877,-0.018 -0.118574,-0.0321 -0.178236,-0.0467 -0.03384,-0.007 -0.06747,-0.0145 -0.101733,-0.0189 -0.04577,-0.007 -0.09171,-0.0124 -0.137768,-0.0167 -0.0515,-0.005 -0.103129,-0.008 -0.154761,-0.0115 -0.05862,-0.003 -0.117287,-0.006 -0.1759558,-0.008 -0.137637,0.0157 0.2743888,-0.0236 0.036515,0.007 -0.050865,0.002 -0.2966452,0.0426 -0.079894,0.008 -0.018949,0.009 -0.3277365,0.068 -0.1652789,0.0361 -0.03313,0.0108 -0.112821,0.0316 -0.1580769,0.0426 -0.017433,0.004 0.034438,-0.0104 0.052132,-0.0134 0.00984,-0.002 -0.018942,0.006 -0.028413,0.009 -0.1564888,0.0504 -0.018918,0.006 -0.210064,0.0756 -0.1175716,0.0471 -0.063846,0.0276 -0.2007555,0.0855 0.00381,-10e-4 0.015026,-0.006 0.011438,-0.004 -0.073229,0.0368 -0.1517965,0.0632 -0.2235541,0.10291 -0.1028031,0.0523 -0.2061144,0.10673 -0.309676,0.1609 -0.1023721,0.0547 -0.2013241,0.11523 -0.3018825,0.17318 -0.091816,0.0561 -0.1814094,0.11569 -0.2709883,0.17535 -0.087938,0.0603 -0.1727782,0.1249 -0.2565808,0.19074 -0.097656,0.0701 -0.1881153,0.14944 -0.2789139,0.22803 -0.094534,0.0803 -0.1840765,0.16589 -0.2738917,0.25127 -0.097208,0.0903 -0.1873009,0.1879 -0.2791055,0.28359 -0.094788,0.0967 -0.1825522,0.2 -0.2689331,0.30421 -0.1152027,0.13582 -0.2336075,0.26908 -0.3465695,0.40678 -0.1087874,0.1317 -0.2155772,0.26514 -0.318218,0.4017 -0.1124249,0.15066 -0.2274036,0.29935 -0.339919,0.44993 -0.1073354,0.14331 -0.2143575,0.28682 -0.3212227,0.43047 -0.096824,0.13019 -0.1949783,0.25935 -0.2907569,0.39031 -0.082496,0.11531 -0.1693868,0.22763 -0.2490825,0.34494 -0.081442,0.11696 -0.1564145,0.23814 -0.234265,0.35746 -0.079472,0.11995 -0.1542981,0.24279 -0.2291585,0.36564 -0.080636,0.13539 -0.1572816,0.27307 -0.2346524,0.41033 -0.0803,0.13712 -0.15886,0.27506 -0.2323232,0.41598 -0.053651,0.11683 -0.1104331,0.2324 -0.1589886,0.35149 -0.043543,0.12331 -0.086764,0.24678 -0.1299874,0.37022 -0.018719,0.0623 -0.04223,0.1239 -0.050636,0.18838 -0.011928,0.0913 -0.020047,0.18303 -0.027456,0.27478 -0.010763,0.1038 -0.00551,0.10967 -0.0018,0.21971 -5.56e-5,0.0986 0.00735,0.18515 0.01774,0.27892 0.00768,0.10767 0.028587,0.21325 0.045657,0.31968 0.019629,0.0859 0.03692,0.17199 0.059095,0.25705 0.025307,0.065 0.039812,0.13432 0.070009,0.19752 -0.033874,-0.0658 0.051602,0.0806 0.057316,0.0879 -0.00233,-0.004 -0.010178,-0.017 -0.00701,-0.0131 0.06953,0.0836 0.024955,0.0344 0.094143,0.1026 0.063658,0.0651 0.13697,0.11955 0.2081845,0.176 0.097779,0.0716 0.1988052,0.13867 0.2981571,0.20811 0.1204423,0.0815 0.2436521,0.15884 0.3649212,0.23915 0.1284592,0.0816 0.2567768,0.16355 0.3861163,0.24381 0.1371571,0.0864 0.2759842,0.17024 0.4168248,0.2505 0.151053,0.0872 0.3031001,0.17277 0.4567021,0.25541 0.1345144,0.0771 0.2748163,0.14342 0.4171063,0.2048 0.1564188,0.0728 0.3197749,0.12897 0.4817624,0.1878 0.1582274,0.0524 0.3196521,0.0946 0.4805161,0.13807 0.1594284,0.0425 0.3209015,0.0768 0.4834181,0.10505 0.1851244,0.0316 0.3719044,0.0516 0.5579006,0.0771 0.1913343,0.0287 0.3831223,0.0539 0.5753574,0.0757 0.1584103,0.017 0.3182689,0.0165 0.4774412,0.0191 0.1840904,0.003 0.3680118,0.006 0.5520036,-8e-4 0.197127,-0.005 0.393521,-0.0192 0.589945,-0.0355 0.193586,-0.0146 0.386134,-0.04 0.578176,-0.068 0.19694,-0.0335 0.39249,-0.0742 0.588384,-0.11321 0.187674,-0.0414 0.374163,-0.0881 0.560057,-0.13685 0.197467,-0.0478 0.392468,-0.10429 0.587509,-0.16089 0.193172,-0.0522 0.384218,-0.11174 0.574284,-0.17422 0.205469,-0.0636 0.409157,-0.13247 0.613158,-0.20052 0.186658,-0.0679 0.37737,-0.12439 0.562793,-0.19563 0.171053,-0.0641 0.342163,-0.12804 0.511556,-0.1964 0.139734,-0.0559 0.27926,-0.11193 0.417283,-0.17194 0.0082,3e-5 0.279957,-0.13284 0.197907,-0.0955 0.140187,-0.10309 -0.0702,0.0576 -0.09569,0.081 -0.162788,0.15567 -0.244136,0.36606 -0.304662,0.57816 0.0083,0.22993 0.01659,0.45986 0.02489,0.68979 -0.578441,-1.90994 2.122623,-2.72798 2.701064,-0.81804 v 0 c 0.01125,0.23968 0.02249,0.47935 0.03374,0.71903 -0.08375,0.30693 -0.214939,0.58703 -0.444941,0.81209 -0.154342,0.15064 -0.323938,0.28217 -0.51252,0.38744 -0.154858,0.0853 -0.312707,0.16528 -0.475468,0.23467 -0.162758,0.0706 -0.327106,0.13718 -0.491833,0.20306 -0.189439,0.0756 -0.379936,0.14845 -0.571121,0.21949 -0.219037,0.0811 -0.440956,0.1538 -0.661544,0.23055 -0.208248,0.0691 -0.415965,0.13986 -0.625639,0.20465 -0.220986,0.0723 -0.442869,0.14194 -0.667272,0.20292 -0.220251,0.0638 -0.440563,0.12726 -0.663361,0.18175 -0.238769,0.0618 -0.477875,0.12271 -0.719289,0.17336 -0.244116,0.0486 -0.487872,0.0992 -0.733762,0.13822 -0.249259,0.0361 -0.499251,0.0682 -0.750436,0.0876 -0.239461,0.0198 -0.479054,0.0365 -0.719302,0.0432 -0.2343634,0.008 -0.4686474,0.007 -0.7030952,0.002 -0.250022,-0.004 -0.5006824,-0.008 -0.7493151,-0.0368 -0.215305,-0.0246 -0.4302154,-0.0523 -0.6445321,-0.0845 -0.2209404,-0.0314 -0.4433102,-0.0533 -0.6629718,-0.0937 -0.2447044,-0.0439 -0.4881856,-0.0948 -0.7282516,-0.15984 -0.2371952,-0.0644 -0.4751604,-0.12734 -0.7069206,-0.20977 -0.2178415,-0.0793 -0.4366175,-0.15708 -0.6474201,-0.25405 -0.2134772,-0.0939 -0.4251094,-0.19287 -0.6282652,-0.30776 -0.174306,-0.0944 -0.3475403,-0.19085 -0.5191186,-0.29014 -0.170438,-0.0981 -0.339488,-0.19865 -0.5057466,-0.30368 -0.1520129,-0.095 -0.303716,-0.19052 -0.4543411,-0.28771 -0.1404329,-0.0936 -0.2842236,-0.18207 -0.4227291,-0.27856 -0.1451824,-0.10192 -0.2937875,-0.19912 -0.4333135,-0.30889 -0.1529089,-0.12136 -0.3049319,-0.24441 -0.4421375,-0.38372 -0.1613411,-0.16067 -0.3134463,-0.32996 -0.4417414,-0.51869 -0.1255614,-0.1902 -0.2395878,-0.38795 -0.3288679,-0.59809 -0.07206,-0.18109 -0.1360423,-0.36523 -0.18792105,-0.55321 -0.0443594,-0.17173 -0.0817703,-0.34518 -0.1139916,-0.51959 -0.0242573,-0.15226 -0.0513116,-0.30417 -0.0642785,-0.45796 -0.0177887,-0.16355 -0.0306314,-0.32742 -0.0329583,-0.492 -0.006013,-0.18142 -0.009473,-0.3632 0.009601,-0.54407 0.0142751,-0.17308 0.0303946,-0.34619 0.0579828,-0.51774 0.0390255,-0.22041 0.0939379,-0.43723 0.16933187,-0.6482 0.0614033,-0.17531 0.12088118,-0.35141 0.18902748,-0.52423 0.082132,-0.19494 0.1707352,-0.38726 0.2648516,-0.57671 0.08728,-0.16553 0.1778282,-0.32921 0.2728543,-0.49042 0.093109,-0.16494 0.1854137,-0.33035 0.2829791,-0.49273 0.091759,-0.1505 0.1840427,-0.30066 0.2811823,-0.44778 0.091512,-0.13621 0.1752022,-0.27775 0.2706533,-0.4114 0.095586,-0.13727 0.1948895,-0.27185 0.2932944,-0.40709 0.1001485,-0.13669 0.2024549,-0.27176 0.3036083,-0.40771 0.108059,-0.14525 0.2163842,-0.29027 0.324793,-0.43526 0.1160793,-0.15535 0.2345888,-0.30882 0.3506419,-0.46419 0.1281629,-0.16858 0.259056,-0.33511 0.3944451,-0.49796 0.1146172,-0.13777 0.231526,-0.27368 0.3486629,-0.4093 0.1297501,-0.1562 0.2625577,-0.31004 0.4041478,-0.45571 0.122659,-0.12785 0.2440655,-0.25718 0.3739129,-0.37784 0.1213329,-0.11452 0.242171,-0.22953 0.3693224,-0.33769 0.1257665,-0.10873 0.2519306,-0.21743 0.3858852,-0.31606 0.1409004,-0.11 0.2835992,-0.21787 0.4320696,-0.31753 0.1417487,-0.0943 0.2841935,-0.18767 0.4308425,-0.27425 0.1327534,-0.0754 0.2627413,-0.15568 0.3983397,-0.22602 0.1178158,-0.0616 0.2359919,-0.12244 0.3540019,-0.18358 0.1287735,-0.0634 0.2599246,-0.12129 0.3905293,-0.18078 0.1137385,-0.0432 0.2222963,-0.10029 0.3381385,-0.1385 0.091201,-0.0338 0.1820942,-0.0689 0.2750124,-0.0979 0.1063874,-0.0349 0.2144215,-0.0637 0.3223668,-0.0933 0.083859,-0.0193 0.1678543,-0.0367 0.2515671,-0.0565 0.1080723,-0.0226 0.2169618,-0.0395 0.3267538,-0.0509 0.1445742,-0.0183 0.2895156,-0.0391 0.4358736,-0.0284 0.07995,0.003 0.159896,0.007 0.239774,0.0113 0.08754,0.005 0.175054,0.0116 0.262344,0.0203 0.09578,0.01 0.191447,0.021 0.286615,0.0357 0.114935,0.0183 0.229361,0.0396 0.342529,0.0669 0.09422,0.0231 0.188417,0.0464 0.281438,0.074 1.918829,0.54824 1.143505,3.26187 -0.775324,2.71364 z"
       inkscape:connector-curvature="0" />
    <path
       style="fill:#ffffff;fill-opacity:1;fill-rule:nonzero;stroke:none;stroke-width:0.26458332"
       id="path1307"
       d="m 21.471578,249.18623 c 0.0037,0.01 0.05543,0.16602 0.08462,0.26638 0.03196,0.0997 0.06136,0.20007 0.09288,0.29986 0.05432,0.16833 0.09055,0.34151 0.130869,0.5135 0.04272,0.179 0.07258,0.36058 0.107957,0.54107 0.04333,0.2107 0.06797,0.42443 0.1,0.63693 0.03807,0.24401 0.06727,0.48922 0.09208,0.73489 0.02439,0.25859 0.05487,0.51652 0.07893,0.77516 0.02169,0.28121 0.05138,0.56168 0.07682,0.84256 0.02292,0.30246 0.04835,0.60462 0.07555,0.90672 0.02476,0.31552 0.05189,0.63078 0.08011,0.946 0.02442,0.32433 0.05832,0.64779 0.08825,0.97163 0.02848,0.32553 0.06446,0.65034 0.09423,0.97576 0.03589,0.31068 0.06309,0.6223 0.0976,0.93312 0.03514,0.30638 0.06523,0.61325 0.101616,0.91948 0.03153,0.29408 0.06711,0.58762 0.103272,0.88115 0.03427,0.28017 0.06015,0.56121 0.09386,0.84145 0.03399,0.27252 0.06165,0.54577 0.0868,0.81923 0.02261,0.25338 0.03931,0.50724 0.05509,0.76112 0.01295,0.21125 0.02343,0.42264 0.03286,0.63408 0.0076,0.16972 0.01372,0.33951 0.01968,0.5093 0.0042,0.12425 0.008,0.24851 0.01183,0.37277 0.0026,0.0883 0.0049,0.17649 0.0072,0.26474 0.0014,0.0544 0.0029,0.10874 0.0043,0.16312 8.73e-4,0.033 0.0017,0.066 0.0026,0.099 1.89e-4,0.0111 0.0023,0.0802 7.14e-4,0.0324 -0.01078,-0.86909 -1.668282,-1.59587 -2.314025,-1.01601 -0.191904,0.17575 -0.327791,0.40888 -0.394234,0.6578 -0.0037,0.0148 -0.0041,0.0168 -0.0012,0.004 0.0015,-0.007 0.003,-0.0136 0.0045,-0.0204 9.79e-4,-0.004 0.0019,-0.009 0.0029,-0.0133 5.82e-4,-0.003 0.0012,-0.005 0.0018,-0.008 -0.01018,0.0748 -0.02035,0.14955 -0.03053,0.22433 -0.0011,0.0265 -9e-4,0.0198 -5.82e-4,0.008 2.91e-4,-0.0134 9e-6,0.002 2.56e-4,-0.0224 1.91e-4,-0.0163 2.65e-4,-0.0326 3.44e-4,-0.0489 1.22e-4,-0.0235 1.71e-4,-0.0469 2.3e-4,-0.0704 6.8e-5,-0.0278 1.03e-4,-0.0557 1.43e-4,-0.0835 4.2e-5,-0.0286 6.4e-5,-0.0571 8.9e-5,-0.0857 2.6e-5,-0.0272 3.9e-5,-0.0543 5.3e-5,-0.0815 1.1e-5,-0.0219 2.2e-5,-0.0437 3.3e-5,-0.0656 7e-6,-0.0134 1.3e-5,-0.0269 2e-5,-0.0403 4e-6,-0.008 8e-6,-0.0163 1.2e-5,-0.0245 6.61e-4,-0.95927 2.82213,-0.90163 2.822238,0.0662 2e-6,0.0264 2e-6,0.0528 2e-6,0.0792 0,0.004 4.5e-4,0.0173 0,0.013 -0.0092,-0.0906 -0.0143,-0.18171 -0.02637,-0.27199 -0.0042,-0.0313 -0.0144,-0.0615 -0.02232,-0.0921 -0.004,-0.0153 -0.01882,-0.0604 -0.01401,-0.0453 0.009,0.0282 0.01813,0.0564 0.0272,0.0847 0.02689,0.0882 0.04557,0.17862 0.06197,0.26932 0.01379,0.0798 0.02352,0.16026 0.03138,0.24086 0.0062,0.0624 0.01027,0.12504 0.01377,0.18768 0.0034,0.0624 0.0055,0.12482 0.0072,0.18726 0.01688,0.14718 -0.03002,-0.22676 0.0013,-0.0446 0.0023,0.0132 0.0045,0.0264 0.0067,0.0396 0.0021,0.0135 0.01821,0.11491 0.01815,0.12538 -1.12e-4,0.0209 -0.0066,-0.0413 -0.009,-0.062 -5.82e-4,-0.005 0.0024,0.0101 0.0036,0.0152 0.01006,0.0424 0.0068,0.029 0.01967,0.0868 0.02623,0.14014 0.02175,0.10301 0.05708,0.25073 0.01897,0.0962 0.03883,0.161 0.06437,0.25845 0.03197,0.13693 0.04,0.17075 0.0643,0.25512 0.03317,0.11626 0.06134,0.23382 0.08739,0.35185 0.02015,0.09 0.03614,0.18082 0.05219,0.2716 0.08567,0.38667 -0.101845,-0.3756 0.02312,0.10162 0.02109,0.0958 0.03204,0.19337 0.04084,0.29096 0.0084,0.055 -0.01178,-0.084 -0.01406,-0.0963 -6.35e-4,-0.003 -0.0012,-0.006 -0.0018,-0.009 -0.928719,0.0563 -1.857438,0.11261 -2.786157,0.16891 -0.0015,0.048 9e-4,-0.0179 6.62e-4,-0.0134 -2.45e-4,0.005 -5.29e-4,0.009 -7.68e-4,0.0138 1.3e-4,-0.0168 1.5e-4,-0.0337 1.84e-4,-0.0505 4.6e-5,-0.0222 8e-5,-0.0443 1.03e-4,-0.0665 2.2e-5,-0.0233 4.7e-5,-0.0465 6.2e-5,-0.0698 1.4e-5,-0.0241 2.6e-5,-0.0483 3.7e-5,-0.0724 1.2e-5,-0.0236 1.7e-5,-0.0472 2.3e-5,-0.0708 7e-6,-0.0241 1.1e-5,-0.0481 1.4e-5,-0.0722 4e-6,-0.0243 6e-6,-0.0486 8e-6,-0.0729 3e-6,-0.0244 4e-6,-0.0488 5e-6,-0.0732 2e-6,-0.0261 3e-6,-0.0522 4e-6,-0.0783 0,-0.0258 1e-6,-0.0516 1e-6,-0.0774 10e-7,-0.0257 10e-7,-0.0513 2e-6,-0.077 0,-0.0262 0,-0.0524 0,-0.0787 1e-6,-0.0274 1e-6,-0.0549 1e-6,-0.0823 0,-0.0293 0,-0.0586 0,-0.0879 0,-0.0318 0,-0.0636 0,-0.0954 0,-0.0349 0,-0.0698 0,-0.10474 0,-0.0376 0,-0.0753 0,-0.1129 0,-0.0405 0,-0.0811 0,-0.12164 -0.005,-0.15967 0.01738,0.1776 0.01913,0.18932 -0.02075,-0.0843 -0.03594,-0.16974 -0.049,-0.25549 -0.0068,-0.0402 -0.04403,-0.38427 -0.01291,-0.12408 0.01698,0.10638 -0.04268,-0.21114 -0.0434,-0.21527 -0.03536,-0.22052 -0.0026,-0.0465 -0.03185,-0.18907 -0.0032,-0.0159 -0.0065,-0.0319 -0.0096,-0.0478 -0.01398,-0.0722 -0.02602,-0.14453 -0.0365,-0.21729 -0.0087,-0.0603 -0.01062,-0.0855 -0.0071,-0.0452 -0.0271,-0.13054 -0.04879,-0.2621 -0.06812,-0.39399 -0.01549,-0.11793 -0.03947,-0.23459 -0.05874,-0.35202 -0.02558,-0.16142 -0.0443,-0.3238 -0.06031,-0.48641 -0.015,-0.15075 -0.02492,-0.30193 -0.03396,-0.45313 -0.0085,-0.14536 -0.01442,-0.29084 -0.01969,-0.43635 -0.008,-0.17573 -0.01002,-0.35131 -0.0025,-0.52708 0.0081,-0.17446 0.01916,-0.34853 0.03869,-0.52211 0.01694,-0.1667 0.04042,-0.33245 0.06564,-0.49806 0.02798,-0.18203 0.06102,-0.3634 0.09661,-0.5441 0.03563,-0.16921 0.066,-0.33939 0.10143,-0.50864 0.03145,-0.17094 0.07291,-0.33974 0.109898,-0.50951 0.03063,-0.15472 0.07196,-0.30701 0.10426,-0.46137 0.04174,-0.17516 0.08539,-0.34981 0.133934,-0.52321 0.03782,-0.14304 0.08263,-0.28403 0.125186,-0.4257 0.0474,-0.15491 0.10437,-0.30641 0.160989,-0.45809 0.06082,-0.15398 0.129316,-0.30461 0.201961,-0.45331 0.07231,-0.14528 0.156335,-0.28426 0.241412,-0.42228 0.09363,-0.14885 0.200612,-0.28831 0.312444,-0.42373 0.08959,-0.10936 0.188979,-0.21011 0.287934,-0.31088 0.104805,-0.11006 0.220254,-0.20851 0.335087,-0.30766 0.09502,-0.0777 0.192573,-0.15229 0.287893,-0.22968 0.09769,-0.0768 0.196698,-0.15188 0.295376,-0.22744 0.112828,-0.0837 0.229235,-0.16221 0.345323,-0.24116 0.116171,-0.0744 0.232051,-0.14911 0.349465,-0.22151 0.130534,-0.0774 0.262181,-0.15271 0.397212,-0.22205 0.113268,-0.062 0.231147,-0.11484 0.347345,-0.17099 0.162958,-0.08 0.332928,-0.14334 0.505271,-0.19964 0.122112,-0.0391 0.24346,-0.0802 0.366693,-0.11592 0.150527,-0.0432 0.303762,-0.0756 0.457697,-0.10384 0.186814,-0.0365 0.377357,-0.0409 0.566995,-0.0435 0.160895,-0.005 0.321429,0.003 0.481724,0.0161 0.15236,0.01 0.303059,0.0342 0.453834,0.0572 0.173789,0.028 0.344475,0.0703 0.515001,0.11323 0.190339,0.0478 0.374677,0.11468 0.557726,0.18463 0.192519,0.073 0.376616,0.16519 0.559099,0.25998 0.181808,0.0955 0.358315,0.20094 0.53117,0.31171 0.172897,0.11283 0.336886,0.23768 0.500628,0.36313 0.157104,0.11917 0.308147,0.24607 0.459589,0.3723 0.166257,0.14301 0.323808,0.2957 0.481756,0.44772 0.157012,0.14716 0.304298,0.30405 0.452038,0.46036 0.15498,0.16959 0.306443,0.34232 0.454319,0.51813 0.147167,0.17402 0.288012,0.35328 0.426789,0.53403 0.143221,0.1825 0.277815,0.37149 0.409916,0.56211 0.130815,0.19724 0.261387,0.39463 0.387638,0.59483 0.113856,0.18228 0.226296,0.36543 0.33963,0.54804 0.124127,0.20666 0.238392,0.41895 0.354367,0.63021 0.103148,0.19014 0.203333,0.38185 0.304999,0.57277 0.105111,0.19701 0.204798,0.39674 0.301619,0.59793 0.08713,0.1795 0.17148,0.36027 0.253537,0.54215 0.07808,0.17699 0.154469,0.35475 0.22619,0.53442 0.05964,0.16324 0.121507,0.32566 0.179081,0.48965 0.05873,0.17082 0.106418,0.34505 0.149852,0.52029 0.03613,0.14815 0.0645,0.29798 0.09003,0.44826 -0.01849,-0.0905 0.04203,0.15194 0.04431,0.16067 0.0205,0.0836 0.01109,0.044 0.02844,0.11861 0.0033,0.0148 0.01413,0.0589 0.01003,0.0444 -0.01744,-0.0621 -0.02972,-0.11046 -0.05288,-0.17006 -0.1056,-0.26231 -0.308173,-0.41602 -0.534794,-0.57095 -0.175755,-0.10369 -0.37651,-0.13656 -0.575577,-0.15765 1.994781,0.0576 1.913302,2.87866 -0.08148,2.82105 v 0 c -0.235773,-0.0217 -0.472358,-0.0573 -0.681246,-0.17867 -0.08225,-0.0546 -0.168789,-0.10332 -0.246745,-0.16394 -0.200816,-0.15613 -0.349869,-0.37516 -0.458309,-0.60176 -0.05745,-0.13848 -0.109958,-0.27894 -0.137837,-0.4269 -0.03502,-0.13392 -0.07084,-0.26779 -0.09659,-0.4039 -0.01368,-0.0813 -0.02826,-0.16238 -0.0473,-0.2426 -0.02207,-0.0898 -0.04543,-0.17939 -0.07466,-0.26724 -0.04372,-0.1269 -0.09357,-0.25157 -0.137608,-0.37835 -0.05507,-0.14039 -0.1163,-0.27829 -0.176323,-0.41661 -0.07225,-0.16091 -0.147161,-0.32052 -0.224245,-0.47917 -0.07967,-0.16643 -0.162243,-0.33134 -0.249119,-0.49414 -0.09581,-0.18025 -0.190539,-0.36107 -0.287639,-0.54064 -0.09171,-0.16721 -0.182261,-0.33507 -0.278259,-0.49988 -0.110279,-0.1778 -0.219742,-0.35609 -0.330571,-0.53354 -0.103716,-0.16562 -0.212767,-0.32777 -0.319442,-0.49149 -0.105325,-0.15257 -0.212905,-0.30366 -0.327681,-0.44932 -0.113345,-0.14767 -0.228018,-0.29443 -0.348398,-0.43647 -0.112607,-0.13403 -0.228161,-0.26545 -0.345157,-0.39568 -0.117194,-0.124 -0.233095,-0.24934 -0.358132,-0.3656 -0.109649,-0.10555 -0.219125,-0.21135 -0.331978,-0.3135 -0.122436,-0.10214 -0.24412,-0.20531 -0.371258,-0.30159 -0.105854,-0.0814 -0.210241,-0.16429 -0.32253,-0.23698 -0.09335,-0.066 -0.196948,-0.1177 -0.296142,-0.17421 -0.08536,-0.045 -0.170712,-0.0902 -0.260599,-0.12558 -0.07957,-0.0304 -0.157869,-0.0631 -0.240395,-0.0844 -0.08371,-0.0211 -0.16486,-0.0437 -0.249584,-0.0597 -0.101278,-0.0154 -0.17018,-0.0297 -0.267354,-0.0351 -0.08553,-0.007 -0.08167,-0.01 -0.205631,-0.006 -0.02344,2.9e-4 -0.184418,0.0164 -0.06595,-0.007 0.01069,-0.002 -0.02154,0.003 -0.03231,0.005 -0.06445,0.0116 -0.12886,0.0237 -0.19186,0.0419 -0.09423,0.0246 -0.184249,0.0632 -0.278094,0.0891 -0.04811,0.0138 -0.09453,0.0315 -0.139515,0.0536 -0.09741,0.047 -0.196341,0.0908 -0.291096,0.14306 -0.07121,0.0358 -0.139695,0.0765 -0.208611,0.11649 -0.08129,0.0482 -0.15966,0.10219 -0.240016,0.15112 -0.07087,0.0473 -0.140573,0.0962 -0.210801,0.14429 -0.07764,0.0594 -0.156178,0.11785 -0.232961,0.17826 -0.07855,0.0637 -0.157411,0.12702 -0.23794,0.18819 -0.05295,0.0448 -0.08827,0.0703 -0.149734,0.13517 -0.05366,0.0546 -0.107023,0.10534 -0.152747,0.16313 0.03637,-0.0521 -0.06506,0.0839 -0.07305,0.098 -0.03081,0.0514 -0.06421,0.10475 -0.09428,0.15839 -0.03297,0.0672 -0.06548,0.13582 -0.09444,0.20382 -0.03488,0.0928 -0.07102,0.18488 -0.100744,0.27949 -0.03749,0.1247 -0.07759,0.24856 -0.110356,0.37462 -0.03229,0.11521 -0.06067,0.23131 -0.09066,0.34714 -0.03425,0.16039 -0.075,0.31923 -0.108233,0.47981 -0.03546,0.16144 -0.07486,0.32196 -0.104565,0.48461 -0.034,0.16215 -0.06247,0.32534 -0.09706,0.48738 -0.02913,0.1362 -0.05085,0.27427 -0.07321,0.4117 -0.01999,0.1312 -0.03936,0.26222 -0.05182,0.39443 -0.01311,0.11033 -0.01694,0.22137 -0.0234,0.33238 -0.0053,0.0926 8.74e-4,0.1951 0.0037,0.29356 0.0044,0.12338 0.0094,0.24676 0.01651,0.37002 0.0069,0.11589 0.01413,0.23178 0.02565,0.34733 0.0099,0.10257 0.02147,0.20498 0.03696,0.30686 0.02153,0.13398 0.04964,0.26692 0.06636,0.40165 0.01318,0.0938 0.03007,0.18697 0.0492,0.27972 0.01511,0.0877 0.02689,0.17573 0.04397,0.263 0.01929,0.0947 0.03826,0.18952 0.04984,0.28554 0.01035,0.0607 0.02564,0.12038 0.03738,0.18086 0.01,0.0698 0.02385,0.13943 0.02711,0.2099 0.0029,0.0221 -0.0107,-0.0446 0.0047,0.0251 0.0351,0.1503 0.06114,0.30337 0.05626,0.45863 0,0.0405 0,0.0811 0,0.12163 0,0.0376 0,0.0753 0,0.11291 0,0.0349 0,0.0698 0,0.10474 0,0.0318 0,0.0636 0,0.0954 0,0.0293 0,0.0586 0,0.0879 -1e-6,0.0274 -1e-6,0.0549 -1e-6,0.0823 0,0.0262 0,0.0525 -10e-7,0.0787 0,0.0257 0,0.0513 -1e-6,0.077 0,0.0258 -1e-6,0.0517 -2e-6,0.0775 0,0.0261 -2e-6,0.0522 -3e-6,0.0783 -10e-7,0.0244 -3e-6,0.0489 -5e-6,0.0733 -2e-6,0.0244 -4e-6,0.0487 -8e-6,0.0731 -4e-6,0.0242 -7e-6,0.0484 -1.4e-5,0.0725 -7e-6,0.0238 -1.2e-5,0.0476 -2.3e-5,0.0714 -1.2e-5,0.0243 -2.4e-5,0.0486 -3.8e-5,0.0729 -1.6e-5,0.0236 -4e-5,0.0473 -6.3e-5,0.0709 -2.5e-5,0.0231 -6e-5,0.0462 -1.07e-4,0.0693 -5.5e-5,0.0265 -9.9e-5,0.0529 -3.97e-4,0.0794 -0.01442,1.05352 -0.449478,0.29939 -2.796066,0.38385 -0.0031,-0.0144 -0.0061,-0.0288 -0.0089,-0.0433 -0.01164,-0.0618 -0.02093,-0.12414 -0.02587,-0.18691 -5.82e-4,-0.006 -0.0029,-0.0258 -0.0017,-0.0194 0.0053,0.0281 0.007,0.0569 0.0158,0.0844 0.08191,0.29089 -0.0434,-0.14098 -0.04629,-0.21833 -0.0092,-0.052 -0.0178,-0.10409 -0.02918,-0.15563 -0.01318,-0.06 -0.02681,-0.11989 -0.04356,-0.17904 -0.03042,-0.10591 -0.05905,-0.21228 -0.08214,-0.32005 -0.02806,-0.10724 -0.05805,-0.21402 -0.08038,-0.32266 -0.02277,-0.0983 -0.05104,-0.19541 -0.06722,-0.29511 -0.02149,-0.10008 -0.04819,-0.19939 -0.05892,-0.30149 -0.02158,-0.12807 -0.04724,-0.25596 -0.04643,-0.38668 -0.0011,-0.038 -0.0021,-0.0759 -0.0042,-0.11387 -0.0013,-0.0236 -0.0025,-0.0472 -0.005,-0.0707 -9.52e-4,-0.01 -0.0051,-0.0396 -0.0032,-0.0298 0.0013,0.007 0.0024,0.0134 0.0036,0.0201 -0.0079,-0.0444 0.0068,0.0285 0.01192,0.0399 0.0056,0.0166 0.012,0.0329 0.01675,0.0498 0.01022,0.0362 -0.02526,-0.071 -0.03531,-0.10726 -0.03984,-0.14393 -0.06949,-0.28801 -0.06453,-0.44024 0,-0.0263 0,-0.0526 -2e-6,-0.0789 -1.08e-4,-0.96774 2.822638,-1.02434 2.822206,-0.0652 -4e-6,0.008 -8e-6,0.0163 -1.2e-5,0.0245 -7e-6,0.0134 -1.4e-5,0.0269 -2e-5,0.0403 -1.1e-5,0.0219 -2.2e-5,0.0438 -3.3e-5,0.0656 -1.4e-5,0.0275 -2.8e-5,0.055 -5.5e-5,0.0824 -2.5e-5,0.0291 -4.7e-5,0.0582 -9e-5,0.0873 -4.1e-5,0.0288 -7.8e-5,0.0577 -1.49e-4,0.0865 -6.4e-5,0.0256 -1.21e-4,0.0512 -2.53e-4,0.0769 -1.01e-4,0.0211 -2.16e-4,0.0421 -4.5e-4,0.0632 -2.21e-4,0.0224 -4.23e-4,0.0448 -0.0011,0.0672 -0.0026,0.1007 -0.0086,0.19928 -0.03327,0.29919 -5.83e-4,0.003 -0.0012,0.005 -0.0018,0.008 -9.79e-4,0.004 -0.002,0.009 -0.0029,0.0134 -0.0017,0.008 -0.0034,0.0157 -0.0052,0.0236 -0.0055,0.025 -0.01109,0.0501 -0.01732,0.075 -0.0719,0.27557 -0.211532,0.53594 -0.42784,0.729 -0.67111,0.61046 -2.40979,-0.0185 -2.421068,-0.93335 -9.79e-4,-0.0272 -0.0018,-0.0543 -0.0024,-0.0815 -8.73e-4,-0.033 -0.0017,-0.066 -0.0026,-0.099 -0.0014,-0.0542 -0.0028,-0.10845 -0.0043,-0.16267 -0.0022,-0.0841 -0.0044,-0.16821 -0.0069,-0.25231 -0.0037,-0.12027 -0.0074,-0.24054 -0.01143,-0.3608 -0.0056,-0.1609 -0.01144,-0.32179 -0.01862,-0.48263 -0.0087,-0.195 -0.01833,-0.38995 -0.03023,-0.58478 -0.01404,-0.22617 -0.02873,-0.45232 -0.04869,-0.67806 -0.02265,-0.24722 -0.04765,-0.49423 -0.07847,-0.74058 -0.0333,-0.27748 -0.05969,-0.55565 -0.09285,-0.83315 -0.03663,-0.29757 -0.07277,-0.59516 -0.104742,-0.89329 -0.03732,-0.3144 -0.06853,-0.62941 -0.104416,-0.94398 -0.03577,-0.32807 -0.06598,-0.65674 -0.102796,-0.98472 -0.02959,-0.3245 -0.0658,-0.64834 -0.09397,-0.97296 -0.03012,-0.32647 -0.06431,-0.65257 -0.08897,-0.97953 -0.02817,-0.31475 -0.05538,-0.62952 -0.07999,-0.94456 -0.02716,-0.30173 -0.05281,-0.6035 -0.07545,-0.9056 -0.02517,-0.27876 -0.05476,-0.55711 -0.07624,-0.83621 -0.02323,-0.25159 -0.05344,-0.50241 -0.07689,-0.75396 -0.02007,-0.20177 -0.04434,-0.40307 -0.07577,-0.60342 -0.02478,-0.16931 -0.04471,-0.33941 -0.07774,-0.50742 -0.02871,-0.14657 -0.05301,-0.29397 -0.08613,-0.43963 -0.02408,-0.10271 -0.0446,-0.20635 -0.0743,-0.30761 -0.03969,-0.12567 -0.07726,-0.25195 -0.116286,-0.37783 -0.02164,-0.0894 -0.06333,-0.17328 -0.08369,-0.26314 -0.548237,-1.91883 2.165397,-2.69415 2.713634,-0.77532 z"
       inkscape:connector-curvature="0" />
    <path
       style="fill:#ffffff;fill-opacity:1;fill-rule:nonzero;stroke:none;stroke-width:0.26458332"
       id="path1311"
       d="m 38.588838,264.38044 c -0.02434,-0.0981 -0.04763,-0.1839 -0.07426,-0.27745 -0.05375,-0.18514 -0.08752,-0.37436 -0.113162,-0.56511 -0.01598,-0.16724 -0.01916,-0.33531 -0.0226,-0.50317 -0.0053,-0.17788 0.0093,-0.3555 0.02093,-0.53285 0.0092,-0.16535 0.03297,-0.32939 0.05087,-0.49392 0.0159,-0.16543 0.04454,-0.32924 0.06487,-0.49414 0.02734,-0.17775 0.05522,-0.35531 0.07717,-0.53382 0.02029,-0.17416 0.03382,-0.34899 0.04556,-0.52391 0.01405,-0.2303 0.03881,-0.45977 0.05769,-0.68971 0.01469,-0.217 0.0339,-0.43405 0.03704,-0.65162 0.0016,-0.24403 -0.0013,-0.48807 -0.0031,-0.7321 -0.0035,-0.27348 -0.0048,-0.5468 0.0038,-0.82018 0.0091,-0.24111 0.01865,-0.4822 0.0269,-0.72335 0.0072,-0.21036 0.01251,-0.42078 0.01754,-0.63121 0.0011,-0.20612 0.01154,-0.41168 0.02878,-0.61703 0.01132,-0.13434 0.02384,-0.26857 0.03502,-0.40293 0.0074,-0.0914 0.01453,-0.18276 0.02164,-0.27415 0.0053,-0.1219 0.02548,-0.24082 0.04397,-0.36155 0.02487,-0.1165 0.06535,-0.22845 0.109784,-0.33862 0.0273,-0.074 -0.03246,0.0924 -0.03389,0.0968 0.03468,-0.092 0.06937,-0.18394 0.104047,-0.27591 0.146384,-0.29938 0.388086,-0.52859 0.680045,-0.68131 0.131096,-0.0683 0.273199,-0.10971 0.417304,-0.13823 0.275307,-0.0631 0.557652,-0.0235 0.820745,0.0649 0.133583,0.0482 0.258787,0.11665 0.37637,0.1959 0.09903,0.0687 -0.03675,-0.0265 0.218604,0.18026 0.04034,0.0327 -0.04721,-0.0444 -0.05219,-0.049 -0.04648,-0.0431 0.09249,0.0867 0.138649,0.13017 -0.127449,-0.14332 0.131316,0.14546 0.154398,0.17246 0.145164,0.19085 0.0259,0.0197 0.211352,0.27152 0.04559,0.0616 0.11671,0.16004 0.170569,0.23623 0.06579,0.0955 0.135181,0.18845 0.202697,0.28276 0.08971,0.12689 0.181255,0.25247 0.27169,0.37885 0.110432,0.16071 0.220038,0.322 0.332965,0.48098 0.147754,0.20851 0.289039,0.42145 0.430281,0.63439 0.171971,0.25783 0.333119,0.52258 0.491363,0.78898 0.16936,0.2881 0.342731,0.5738 0.511622,0.8622 0.193784,0.33101 0.373984,0.66972 0.554247,1.00821 0.179456,0.35013 0.352544,0.70353 0.522716,1.05825 0.164166,0.33687 0.315957,0.67944 0.467159,1.02224 0.140676,0.30975 0.271452,0.62375 0.402524,0.93762 0.114797,0.28062 0.225771,0.56274 0.335957,0.8452 0.08923,0.23367 0.179845,0.46684 0.265631,0.70181 0.06138,0.17376 0.119454,0.34853 0.183285,0.52142 0.06898,0.18426 0.130167,0.37065 0.176297,0.56196 0.03986,0.16914 0.06669,0.34021 0.0788,0.51354 -0.0013,0.0696 -0.0026,0.13912 -0.0038,0.20869 -0.140044,1.99069 -2.955308,1.79263 -2.815262,-0.19806 v 0 c 2.65e-4,0.0471 5.29e-4,0.0942 0.0011,0.14126 0.02344,0.22026 0.01201,0.0444 -0.0098,-0.0273 0.04066,0.0847 -0.07037,-0.19812 -0.07497,-0.22332 -0.06508,-0.17655 -0.125701,-0.35457 -0.187288,-0.53234 -0.07812,-0.21519 -0.161922,-0.42827 -0.243184,-0.64228 -0.102031,-0.26175 -0.204851,-0.52317 -0.310967,-0.78329 -0.123793,-0.29661 -0.247248,-0.59336 -0.380357,-0.88597 -0.139166,-0.31554 -0.278442,-0.63105 -0.429781,-0.94102 -0.152837,-0.31898 -0.30883,-0.6365 -0.468943,-0.95189 -0.162382,-0.30498 -0.324313,-0.61038 -0.498665,-0.90874 -0.165949,-0.2835 -0.336545,-0.56422 -0.502931,-0.84746 -0.134141,-0.22611 -0.270547,-0.45096 -0.416486,-0.66972 -0.125013,-0.18849 -0.249774,-0.37718 -0.380478,-0.5618 -0.111366,-0.15724 -0.220779,-0.31587 -0.328946,-0.47533 -0.0887,-0.12528 -0.179763,-0.24892 -0.268399,-0.37424 -0.07429,-0.10377 -0.150606,-0.20607 -0.222861,-0.31129 -0.0491,-0.0789 -0.112146,-0.14938 -0.163801,-0.22658 0.129027,0.16251 -0.199707,-0.24751 -0.04891,-0.0622 -0.155062,-0.18157 0.15911,0.16405 -0.04945,-0.0563 0.373878,0.34199 -0.393679,-0.34546 0.144463,0.12004 0.07593,0.0494 0.156929,0.0919 0.242234,0.12258 0.229512,0.0749 0.462629,0.0931 0.704418,0.0535 0.003,-5.1e-4 -0.01019,0.002 -0.0089,0.002 0.104283,-0.0242 0.210908,-0.0596 0.307232,-0.10986 0.253304,-0.13429 0.460838,-0.34117 0.587417,-0.60063 0.198112,-0.54332 0.04552,-0.10993 0.01085,-0.003 -0.01796,0.044 0.05278,-0.14851 0.03297,-0.12642 0.04648,-0.34287 0.01236,-0.0921 0.01045,-0.0123 -0.0075,0.0967 -0.01503,0.19343 -0.02291,0.29012 -0.01135,0.13554 -0.02381,0.271 -0.03532,0.40653 -0.01273,0.14854 -0.01931,0.29697 -0.0195,0.44616 -0.0053,0.2201 -0.01088,0.4402 -0.01839,0.66023 -0.0082,0.2391 -0.01754,0.47816 -0.0267,0.71722 -0.0078,0.23624 -0.0048,0.47243 -0.0024,0.70877 0.0021,0.27193 0.0053,0.54389 0.0024,0.81583 -0.0071,0.27393 -0.02437,0.54741 -0.04587,0.82059 -0.01786,0.21619 -0.04094,0.43198 -0.0546,0.64848 -0.01545,0.2271 -0.03344,0.45409 -0.0605,0.68015 -0.02236,0.17982 -0.04736,0.35926 -0.07768,0.53793 -0.019,0.15014 -0.04374,0.29952 -0.05969,0.44998 -0.01357,0.12377 -0.0318,0.24719 -0.04017,0.37133 -0.0065,0.099 -0.0168,0.19795 -0.01553,0.29147 0.0016,0.0829 0.0044,0.16611 0.0059,0.24887 -0.02484,-0.12446 0.01556,0.0875 0.02323,0.10637 0.02556,0.0905 0.05262,0.18068 0.07286,0.27254 0.548238,1.91883 -2.165398,2.69416 -2.713633,0.77533 z"
       inkscape:connector-curvature="0" />
    <path
       style="fill:#ffffff;fill-opacity:1;fill-rule:nonzero;stroke:none;stroke-width:0.26458332"
       id="path1313"
       d="m 39.453208,260.88803 c 0.128926,-0.0896 0.269248,-0.15962 0.410835,-0.2265 0.128749,-0.0652 0.265263,-0.11216 0.399611,-0.16403 0.151074,-0.0562 0.305143,-0.10434 0.459361,-0.15118 0.164619,-0.045 0.329078,-0.0906 0.494803,-0.13145 0.169799,-0.0487 0.341826,-0.0885 0.514699,-0.12448 0.172998,-0.0424 0.347469,-0.0781 0.522653,-0.11007 0.141046,-0.0256 0.283091,-0.0447 0.425331,-0.0621 1.981337,-0.23826 2.318289,2.56378 0.336952,2.80204 v 0 c -0.08656,0.01 -0.172868,0.0219 -0.258702,0.037 -0.153424,0.0275 -0.305313,0.0619 -0.45707,0.0974 -0.139465,0.0282 -0.277003,0.064 -0.414158,0.10185 -0.117501,0.0282 -0.233431,0.0624 -0.350546,0.0921 -0.08687,0.0257 -0.173228,0.0534 -0.258961,0.0825 -0.07131,0.0274 -0.143674,0.0494 -0.211744,0.0838 -0.146304,0.0688 0.0447,-0.0289 -0.04758,0.0214 -1.660451,1.10696 -3.225938,-1.24127 -1.565487,-2.34823 z"
       inkscape:connector-curvature="0" />
    <path
       style="fill:#ffffff;fill-opacity:1;fill-rule:nonzero;stroke:none;stroke-width:0.26458332"
       id="path1315"
       d="m 49.141702,248.1828 c 0.01016,-0.0671 0.01823,-0.13459 0.02649,-0.202 0.0063,-0.0581 0.01214,-0.11631 0.01796,-0.17449 0.0043,-0.0436 0.0087,-0.0871 0.01299,-0.13066 0.126426,-1.2749 0.989981,-0.27052 2.819813,0.001 0.01484,0.16276 0.01196,0.32596 -0.0013,0.48868 -0.01238,0.16971 -0.03045,0.33866 -0.05418,0.50716 -0.03166,0.23455 -0.0695,0.46816 -0.106746,0.70188 -0.05649,0.32922 -0.111466,0.65869 -0.172606,0.98708 -0.07447,0.40095 -0.144794,0.80264 -0.215271,1.2043 -0.07775,0.46032 -0.158422,0.92013 -0.229412,1.38156 -0.07964,0.48264 -0.143764,0.96751 -0.199104,1.45347 -0.05204,0.4837 -0.09503,0.96847 -0.122412,1.45421 -0.02514,0.44426 -0.03351,0.88921 -0.01902,1.33394 0.0083,0.38139 0.0491,0.76054 0.109469,1.13689 0.04966,0.30596 0.126616,0.60592 0.227655,0.89866 0.07228,0.20998 0.168188,0.40984 0.294746,0.59217 0.10382,0.15808 0.237323,0.29127 0.382085,0.41152 0.154625,0.11743 0.327864,0.2073 0.503386,0.28896 0.206012,0.098 0.428476,0.14862 0.649755,0.19852 0.251757,0.0495 0.506791,0.0766 0.762879,0.0885 0.277606,0.0154 0.555281,0.007 0.832638,-0.007 0.259837,-0.019 0.518803,-0.0497 0.776566,-0.0874 0.217855,-0.0318 0.433884,-0.0754 0.648578,-0.12395 0.149998,-0.0324 0.298249,-0.0729 0.443704,-0.12165 0.06385,-0.0154 0.113098,-0.0405 0.162186,-0.0664 -0.0056,0.003 -0.01116,0.005 -0.01672,0.008 1.73024,-0.99435 3.136466,1.45257 1.406226,2.44693 v 0 c -0.03124,0.0174 -0.06249,0.0348 -0.09374,0.0523 -0.184076,0.0945 -0.373499,0.17747 -0.571479,0.2386 -0.233396,0.0767 -0.470117,0.14343 -0.710274,0.19556 -0.287213,0.0645 -0.576196,0.12211 -0.867603,0.16426 -0.341857,0.0485 -0.684937,0.0903 -1.02965,0.11211 -0.375853,0.0195 -0.75225,0.0279 -1.128339,0.007 -0.417915,-0.0234 -0.834739,-0.0671 -1.244441,-0.15575 -0.422635,-0.0976 -0.842484,-0.21236 -1.234628,-0.40204 -0.40173,-0.19382 -0.793131,-0.41265 -1.135219,-0.70196 -0.33492,-0.29417 -0.646255,-0.61435 -0.890285,-0.98991 -0.252582,-0.38921 -0.466419,-0.80056 -0.613143,-1.2422 -0.149471,-0.44565 -0.269441,-0.90031 -0.342644,-1.36521 -0.07689,-0.49352 -0.131511,-0.9903 -0.142599,-1.49012 -0.0154,-0.5275 -0.0086,-1.05521 0.02236,-1.58213 0.03138,-0.53856 0.07724,-1.07621 0.13598,-1.61249 0.05978,-0.52264 0.128389,-1.0442 0.213836,-1.56334 0.07421,-0.48069 0.157612,-0.95986 0.238943,-1.43939 0.07224,-0.41167 0.144375,-0.82337 0.220702,-1.23431 0.0569,-0.30398 0.107098,-0.60914 0.159933,-0.91384 0.03543,-0.22199 0.07151,-0.44385 0.101359,-0.66668 0.01876,-0.11366 0.02445,-0.22858 0.03502,-0.34317 0.01098,-0.0979 -0.0013,0.19256 0.0026,0.0143 1.659446,0.2005 2.655954,1.21719 2.800652,0.004 5.29e-4,-0.005 -0.0011,0.0109 -0.0016,0.0163 -0.0044,0.0443 -0.0088,0.0885 -0.0132,0.13276 -0.0079,0.079 -0.01572,0.15806 -0.02492,0.23695 -0.01056,0.086 -0.02111,0.17198 -0.03388,0.25767 -0.282223,1.97556 -3.07608,1.57644 -2.793857,-0.39912 z"
       inkscape:connector-curvature="0" />
    <path
       style="fill:#ffffff;fill-opacity:1;fill-rule:nonzero;stroke:none;stroke-width:0.26458332"
       id="path1317"
       d="m 45.241606,253.21377 c 0.146452,-0.11932 0.303917,-0.22277 0.467964,-0.31613 0.179149,-0.10037 0.36499,-0.18756 0.552952,-0.26991 0.215509,-0.0926 0.434348,-0.17679 0.652725,-0.26221 0.281183,-0.10804 0.565988,-0.20601 0.850812,-0.30389 0.343501,-0.11844 0.689208,-0.23086 1.036143,-0.33884 0.401709,-0.12419 0.805344,-0.24186 1.208984,-0.35955 0.445757,-0.12569 0.893795,-0.24316 1.342192,-0.35903 0.453594,-0.11469 0.910011,-0.21733 1.367092,-0.31702 0.423722,-0.0922 0.850582,-0.16849 1.278567,-0.2378 0.361053,-0.0615 0.724453,-0.10431 1.089099,-0.13704 0.313042,-0.0253 0.626803,-0.0296 0.940287,-0.013 0.201234,0.0164 0.08667,0.004 0.343013,0.0426 1.964651,0.35017 1.469438,3.12861 -0.495212,2.77844 v 0 c 0.064,0.003 0.05783,0.003 -0.01815,-0.004 -0.172561,-0.0153 -0.346091,-5.1e-4 -0.518668,0.007 -0.298021,0.0265 -0.594923,0.0611 -0.88991,0.11206 -0.377566,0.0609 -0.754147,0.12804 -1.127956,0.20924 -0.422063,0.0919 -0.843528,0.18651 -1.26243,0.2921 -0.420232,0.10848 -0.840065,0.2187 -1.257964,0.33588 -0.388035,0.11314 -0.776097,0.22613 -1.16228,0.34549 -0.320122,0.099 -0.638725,0.20349 -0.955572,0.3125 -0.247668,0.0851 -0.495469,0.1698 -0.740159,0.26326 -0.183917,0.0719 -0.368347,0.14239 -0.55009,0.21972 -0.09874,0.043 -0.197045,0.0868 -0.291361,0.139 -0.122786,0.0692 0.09546,-0.0764 -0.06022,0.0375 -0.0065,0.005 -0.02495,0.0203 -0.01974,0.0141 0.0074,-0.009 0.01775,-0.0149 0.02661,-0.0223 -1.533073,1.27756 -3.339815,-0.89053 -1.806745,-2.16809 z"
       inkscape:connector-curvature="0" />
    <path
       style="fill:#ffffff;fill-opacity:1;fill-rule:nonzero;stroke:none;stroke-width:0.26458332"
       id="path1319"
       d="m 49.071654,247.73831 c 0.03632,-0.09 0.08111,-0.1761 0.120901,-0.2645 0.02222,-0.0686 0.05438,-0.14211 0.08288,-0.21205 0.02782,-0.0823 0.06356,-0.16166 0.09494,-0.24266 0.02114,-0.0732 0.0541,-0.14245 0.07685,-0.21511 0.02707,-0.0901 0.05849,-0.17879 0.08742,-0.26831 0.02638,-0.0988 0.06175,-0.19473 0.09359,-0.29177 0.02043,-0.0745 0.03861,-0.14951 0.05855,-0.22425 0.02347,-0.0776 0.04649,-0.15529 0.06721,-0.23369 0.02432,-0.10788 0.05722,-0.21325 0.09352,-0.31767 0.0205,-0.0567 0.02236,-0.0656 0.02995,-0.0933 0.02905,-0.11379 0.07559,-0.22168 0.121423,-0.32933 -0.0072,0.0181 0.02503,-0.0596 0.01905,-0.0446 -0.07765,0.19555 0.07641,-0.16991 0.09646,-0.20861 0.09617,-0.17984 -0.02954,0.0665 0.01252,-0.0258 -0.09142,0.21671 0.0308,-0.079 0.06758,-0.16739 0.0186,-0.0362 0.03733,-0.0724 0.05605,-0.10859 -0.01035,-0.002 -0.07196,0.1705 -0.04922,0.10259 0.0065,-0.0196 0.01302,-0.0392 0.0195,-0.0588 0.0069,-0.11195 -0.0494,0.20326 -0.03826,0.13775 0.01341,-0.0882 0.04019,-0.17143 0.06234,-0.25923 2.573121,1.70027 2.893835,0.88296 2.194634,1.58583 -0.02119,0.0213 0.0447,-0.0402 0.06618,-0.0613 -1.375043,1.44628 -3.420394,-0.49832 -2.045351,-1.9446 v 0 c 0.04065,-0.0421 0.163094,-0.16743 0.125722,-0.12243 -0.03093,0.0372 -0.06795,0.069 -0.103079,0.10232 -0.01196,0.0113 0.02222,-0.0244 0.03355,-0.0364 0.01347,-0.0143 0.02384,-0.0522 0.04085,-0.0424 0.796571,0.45821 1.573808,0.94924 2.360711,1.42387 0.09635,-0.38565 0.05922,-0.25793 0.04652,-0.17138 -0.01582,0.0926 -0.03408,0.18481 -0.06432,0.27408 -0.0078,0.0235 -0.01556,0.047 -0.02339,0.0705 -0.03394,0.10103 -0.07023,0.2014 -0.11964,0.29619 -0.01656,0.032 -0.03315,0.0641 -0.04965,0.0961 0.183849,-0.45836 0.0213,-0.0344 -0.01336,0.0553 -0.01005,0.022 -0.142386,0.29712 -0.10463,0.20961 0.06368,-0.12844 -0.01778,0.0398 0.07829,-0.18524 0.02297,-0.0538 -0.02585,0.0739 -0.05524,0.14813 -0.0054,0.0136 -0.01191,0.0267 -0.01725,0.0403 -0.08796,0.20649 0.04947,-0.16354 0.0016,-0.0227 -0.02551,0.0915 -0.05356,0.18229 -0.08581,0.2717 -0.0052,0.0149 -0.0097,0.0301 -0.01569,0.0447 -0.0034,0.008 0.0054,-0.0167 0.0076,-0.0252 0.0064,-0.0245 0.01103,-0.0495 0.01826,-0.0738 0.01185,-0.0398 -0.04579,0.18645 -0.02868,0.12133 -0.0036,0.0138 -0.0072,0.0277 -0.01087,0.0415 -0.02535,0.0955 -0.05223,0.19052 -0.08132,0.28494 0.0021,-0.0101 0.0088,-0.0401 0.0063,-0.0301 -0.02959,0.12128 -0.05779,0.243 -0.09777,0.36146 -0.03225,0.098 -0.063,0.1812 -0.08984,0.28029 -0.03334,0.10273 -0.06907,0.20455 -0.10056,0.30787 -0.03945,0.1141 -0.07902,0.21674 -0.118594,0.32958 -0.03723,0.0954 -0.07706,0.18773 -0.11144,0.28408 -0.04235,0.1039 -0.06735,0.17257 -0.125873,0.31196 -0.03854,0.0847 -0.0674,0.13907 -0.09732,0.21102 -0.786109,1.83425 -3.380142,0.72253 -2.594031,-1.11173 z"
       inkscape:connector-curvature="0" />
    <path
       style="fill:#ffffff;fill-opacity:1;fill-rule:nonzero;stroke:none;stroke-width:0.26458332"
       id="path1321"
       d="m 50.079714,244.78061 c -0.05776,0.0882 0.06877,-0.12217 0.0853,-0.15326 0.06441,-0.10849 0.134559,-0.21324 0.204396,-0.31826 0.05913,-0.0862 0.116986,-0.17141 0.177922,-0.25651 0.08627,-0.11369 0.09803,-0.14047 0.179398,-0.2543 0.01654,-0.0577 -0.004,0.0376 0.0146,-0.0308 0.0019,-0.006 -0.0066,0.0116 -0.0099,0.0174 -0.01341,0.0302 -0.02684,0.0604 -0.04025,0.0906 0.684602,-1.87451 3.33556,-0.90633 2.650959,0.96818 v 0 c -0.0223,0.0545 -0.04462,0.10906 -0.06692,0.16359 -0.07564,0.1523 -0.157591,0.30162 -0.2578,0.43947 -0.04926,0.0669 -0.100242,0.14813 -0.153291,0.21877 -0.0021,0.003 0.0034,-0.006 0.0051,-0.009 -0.05477,0.0781 -0.09644,0.13528 -0.150699,0.21637 -0.07512,0.11273 -0.03829,0.0602 -0.115779,0.17773 -0.003,0.005 0.0051,-0.01 0.0077,-0.0148 -0.06188,0.10613 -0.108082,0.19028 -0.182539,0.30998 -1.106966,1.66045 -3.455196,0.095 -2.34823,-1.56549 z"
       inkscape:connector-curvature="0" />
    <path
       style="fill:#ffffff;fill-opacity:1;fill-rule:nonzero;stroke:none;stroke-width:0.26458332"
       id="path1323"
       d="m 4.357071,277.45983 c 0.096652,-0.22789 0.2415434,-0.42854 0.3944979,-0.62114 0.1807221,-0.22478 0.401669,-0.41013 0.6248414,-0.59065 0.2620658,-0.21193 0.5437539,-0.39704 0.8262638,-0.58006 0.341698,-0.21753 0.6896703,-0.42483 1.0369217,-0.63329 0.4214119,-0.24206 0.8428566,-0.48399 1.2611663,-0.73139 0.078203,-0.0468 0.156405,-0.0935 0.2346076,-0.1403 1.7127873,-1.02412 3.1611163,1.39812 1.4483293,2.42225 v 0 c -0.08213,0.0491 -0.164265,0.0982 -0.2463968,0.1473 -0.412991,0.24419 -0.8285734,0.48385 -1.2451535,0.72186 -0.3196579,0.19189 -0.6400731,0.38253 -0.9549908,0.58218 -0.1996548,0.12934 -0.4006971,0.25729 -0.5865844,0.40628 -0.073226,0.0591 -0.151629,0.11454 -0.2155809,0.184 -0.034546,0.0369 -0.00407,1.4e-4 0.01611,-0.0553 -0.7861102,1.83426 -3.3801418,0.72253 -2.5940313,-1.11173 z"
       inkscape:connector-curvature="0" />
    <path
       style="fill:#ffffff;fill-opacity:1;fill-rule:nonzero;stroke:none;stroke-width:0.26458332"
       id="path1325"
       d="m 5.6806901,283.45376 c 0.1269505,-0.0365 0.2713746,-0.0722 0.4056023,-0.10968 0.3003968,-0.0805 0.6035738,-0.1501 0.9073073,-0.21665 0.444011,-0.0996 0.8913688,-0.1825 1.3393877,-0.26168 0.5977131,-0.10244 1.1993631,-0.17861 1.8010636,-0.25298 0.707874,-0.0888 1.418613,-0.15104 2.130059,-0.20237 1.990473,-0.14312 2.192881,2.67183 0.202408,2.81496 v 0 c -0.663435,0.0475 -1.326189,0.10566 -1.986281,0.18831 -0.5532578,0.0684 -1.1065513,0.13771 -1.656253,0.23127 -0.4110202,0.0726 -0.8215048,0.14816 -1.2287835,0.23984 -0.2528033,0.0549 -0.5049258,0.11328 -0.7551412,0.179 -0.1580504,0.0436 -0.3169616,0.0839 -0.4748797,0.12794 -1.9360285,0.48401 -2.620518,-2.25395 -0.6844895,-2.73796 z"
       inkscape:connector-curvature="0" />
    <path
       style="fill:#ffffff;fill-opacity:1;fill-rule:nonzero;stroke:none;stroke-width:0.26458332"
       id="path1327"
       d="m 6.7484487,288.19795 c 0.2523378,0.0372 0.4896241,0.1311 0.7214396,0.2335 0.252948,0.11281 0.4932002,0.25145 0.7324153,0.39039 0.3185544,0.18853 0.6268442,0.39377 0.9362326,0.59681 0.4040103,0.26996 0.8011454,0.5499 1.1939788,0.83581 0.453272,0.32561 0.896302,0.66478 1.336664,1.00751 0.315289,0.24142 0.626188,0.48836 0.934518,0.73856 1.549176,1.25799 -0.229881,3.44885 -1.779057,2.19087 v 0 c -0.293079,-0.23817 -0.589075,-0.47262 -0.8888861,-0.70228 -0.4166643,-0.32431 -0.8356598,-0.64549 -1.2647245,-0.95334 -0.3556444,-0.25921 -0.7154804,-0.51256 -1.0810139,-0.75767 -0.2674599,-0.17554 -0.5337318,-0.35335 -0.8083103,-0.51765 -0.1506776,-0.0882 -0.3015663,-0.17734 -0.4600062,-0.25091 -0.1221435,-0.0554 -0.078156,-0.0314 0.027627,-0.0177 -1.9755553,-0.28222 -1.576433,-3.07608 0.3991227,-2.79386 z"
       inkscape:connector-curvature="0" />
    <path
       style="fill:#ffffff;fill-opacity:1;fill-rule:nonzero;stroke:none;stroke-width:0.26458332"
       id="path1331"
       d="m 57.5453,277.66802 c -0.137901,-0.0198 -0.274286,-0.0497 -0.410162,-0.0801 -0.185412,-0.0433 -0.364924,-0.1075 -0.542523,-0.17532 -0.182539,-0.0678 -0.357865,-0.15302 -0.533128,-0.2374 -0.212333,-0.10463 -0.417716,-0.22241 -0.622493,-0.34092 -0.218191,-0.1195 -0.432813,-0.24531 -0.648867,-0.3686 -0.244099,-0.13824 -0.48851,-0.27632 -0.741373,-0.398 -0.301746,-0.14272 -0.609547,-0.2712 -0.921276,-0.39025 -0.352751,-0.13037 -0.715989,-0.22852 -1.081506,-0.31542 -0.26647,-0.0578 -0.132397,-0.031 -0.402233,-0.0803 -1.961951,-0.36498 -1.445794,-3.13961 0.51616,-2.77463 v 0 c 0.374251,0.0705 0.193244,0.0334 0.543222,0.11027 0.484698,0.11667 0.966194,0.24872 1.433319,0.42437 0.388916,0.14917 0.773184,0.3098 1.149244,0.48923 0.306692,0.15071 0.607166,0.31326 0.903404,0.48363 0.220977,0.12614 0.440618,0.25459 0.663646,0.3771 0.144002,0.0833 0.287907,0.16706 0.436394,0.24228 0.107436,0.0522 0.214463,0.10623 0.326622,0.14762 0.06258,0.0258 0.125016,0.0471 0.164561,0.0584 0.13164,0.0279 0.116385,0.0276 0.166113,0.0342 1.975554,0.28223 1.576432,3.07608 -0.399124,2.79386 z"
       inkscape:connector-curvature="0" />
    <path
       style="fill:#ffffff;fill-opacity:1;fill-rule:nonzero;stroke:none;stroke-width:0.26458332"
       id="path1333"
       d="m 57.53359,284.15109 c -0.04326,-0.009 -0.08692,-0.0157 -0.130617,-0.022 -0.106945,-0.0152 -0.214736,-0.023 -0.322464,-0.0301 -0.195545,-0.0119 -0.391382,-0.018 -0.58719,-0.0236 -0.272595,-0.0111 -0.545351,-0.002 -0.817964,0.003 -0.375571,0.008 -0.750835,0.0266 -1.126228,0.0403 -0.460479,0.0236 -0.920999,0.046 -1.38171,0.0645 -0.25051,0.0125 -0.500986,0.0257 -0.751504,0.038 -1.993191,0.0983 -2.132171,-2.72052 -0.13898,-2.8188 v 0 c 0.259053,-0.0128 0.518051,-0.0265 0.77711,-0.0392 0.464156,-0.0186 0.928092,-0.0417 1.392036,-0.0649 0.391298,-0.0143 0.782455,-0.0339 1.173949,-0.0416 0.317883,-0.006 0.635926,-0.0149 0.953783,-0.002 0.232473,0.007 0.464973,0.0142 0.697106,0.0288 0.185589,0.0127 0.371144,0.0279 0.555201,0.0556 0.162409,0.025 0.32453,0.0537 0.482796,0.0987 1.918827,0.54824 1.143503,3.26187 -0.775324,2.71363 z"
       inkscape:connector-curvature="0" />
    <path
       style="fill:#ffffff;fill-opacity:1;fill-rule:nonzero;stroke:none;stroke-width:0.26458332"
       id="path1335"
       d="m 58.653505,290.01638 c 0.07559,-0.0323 -0.09632,0.0611 -0.113628,0.0729 -0.138068,0.0913 -0.272376,0.18798 -0.405789,0.2859 -0.22833,0.16184 -0.445836,0.33805 -0.667364,0.50889 -0.290933,0.23519 -0.583893,0.46793 -0.872858,0.70553 -0.371025,0.3062 -0.740534,0.61424 -1.109435,0.923 -0.42478,0.35387 -0.839411,0.71955 -1.254432,1.08475 -0.442878,0.38631 -0.882364,0.77647 -1.315098,1.17412 -0.400119,0.36967 -0.796136,0.74374 -1.191583,1.1184 -0.154873,0.14704 -0.306395,0.2973 -0.455046,0.45059 -1.392303,1.42967 -3.414162,-0.53934 -2.021858,-1.96901 v 0 c 0.175657,-0.17981 0.353107,-0.35768 0.535879,-0.53032 0.405929,-0.38459 0.812469,-0.76855 1.223253,-1.14795 0.447678,-0.4112 0.901989,-0.81506 1.360109,-1.21459 0.432525,-0.38058 0.864833,-0.76144 1.307479,-1.13028 0.375668,-0.31438 0.751911,-0.62808 1.129752,-0.93984 0.311682,-0.25565 0.626554,-0.50743 0.940961,-0.75971 0.239887,-0.18477 0.475449,-0.37532 0.722638,-0.55043 0.186714,-0.13653 0.374703,-0.27141 0.569079,-0.39693 0.16373,-0.10149 0.330068,-0.2004 0.506212,-0.27907 1.834258,-0.78611 2.945984,1.80792 1.111729,2.59403 z"
       inkscape:connector-curvature="0" />
  </g>
</svg>
