<?xml version="1.0" encoding="UTF-8" standalone="no"?>
<svg
   xmlns:dc="http://purl.org/dc/elements/1.1/"
   xmlns:cc="http://creativecommons.org/ns#"
   xmlns:rdf="http://www.w3.org/1999/02/22-rdf-syntax-ns#"
   xmlns:svg="http://www.w3.org/2000/svg"
   xmlns="http://www.w3.org/2000/svg"
   xmlns:sodipodi="http://sodipodi.sourceforge.net/DTD/sodipodi-0.dtd"
   xmlns:inkscape="http://www.inkscape.org/namespaces/inkscape"
   inkscape:version="1.0 (1.0+r73+1)"
   sodipodi:docname="computers.svg"
   id="svg8"
   version="1.1"
   viewBox="0 0 64 64"
   height="64mm"
   width="64mm">
  <defs
     id="defs2" />
  <sodipodi:namedview
     inkscape:document-rotation="0"
     inkscape:window-maximized="1"
     inkscape:window-y="27"
     inkscape:window-x="0"
     inkscape:window-height="1016"
     inkscape:window-width="1920"
     inkscape:snap-page="true"
     showgrid="false"
     inkscape:current-layer="layer1"
     inkscape:document-units="mm"
     inkscape:cy="110.27027"
     inkscape:cx="68.750268"
     inkscape:zoom="3"
     inkscape:pageshadow="2"
     inkscape:pageopacity="0.0"
     borderopacity="1.0"
     bordercolor="#666666"
     pagecolor="#ffffff"
     id="base" />
  <metadata
     id="metadata5">
    <rdf:RDF>
      <cc:Work
         rdf:about="">
        <dc:format>image/svg+xml</dc:format>
        <dc:type
           rdf:resource="http://purl.org/dc/dcmitype/StillImage" />
        <dc:title></dc:title>
      </cc:Work>
    </rdf:RDF>
  </metadata>
  <g
     transform="translate(0,-233)"
     id="layer1"
     inkscape:groupmode="layer"
     inkscape:label="Layer 1">
    <rect
       y="233"
       x="0"
       height="64"
       width="64"
       id="rect3713"
       style="fill:#607d8b;stroke-width:0.26458332;fill-opacity:1" />
    <path
       d="m 16.073881,235.70324 c -0.591679,-0.32591 -1.260889,-0.41841 -1.927645,-0.34281 -0.168452,0.0191 -0.334042,0.0581 -0.501062,0.0872 -1.302005,0.3171 -2.462179,1.01599 -3.609738,1.68271 -1.0981307,0.66338 -2.1681211,1.38823 -3.1188412,2.25411 -0.7030614,0.64032 -0.808646,0.80324 -1.4300274,1.51725 -0.8371075,1.07737 -1.5500109,2.27646 -1.8793203,3.61363 -0.2272726,0.92285 -0.173174,1.09033 -0.1811742,2.0369 0.049941,0.33694 0.074124,0.67871 0.1498235,1.01081 0.3211785,1.40903 1.0599848,2.74547 2.0325159,3.80885 0.2672897,0.29226 0.5708856,0.54912 0.8563284,0.82367 0.3121112,0.23848 0.612094,0.49372 0.9363334,0.71543 1.2835988,0.87767 2.7604939,1.53908 4.2791499,1.87958 0.377996,0.0847 0.763983,0.12879 1.145974,0.19318 1.88165,0.20897 3.733918,-0.17602 5.509285,-0.77857 0.280758,-0.0953 0.556252,-0.20543 0.834378,-0.30815 0.804589,-0.33978 0.433926,-0.17205 1.115221,-0.49598 1.799924,-0.86183 0.581118,-3.4073 -1.218806,-2.54548 v 0 c -0.526363,0.25436 -0.234401,0.11996 -0.879212,0.39589 -1.573867,0.58873 -3.209382,1.09745 -4.911645,0.94605 -0.282224,-0.0427 -0.567306,-0.0695 -0.846673,-0.12809 -1.178676,-0.24702 -2.326865,-0.75124 -3.330587,-1.41339 -0.2414125,-0.15926 -0.465577,-0.34324 -0.6983656,-0.51485 -0.2004055,-0.18307 -0.4133281,-0.35332 -0.6012167,-0.54921 -0.6614977,-0.68968 -1.1847626,-1.56321 -1.4380146,-2.48781 -0.052069,-0.1901 -0.074941,-0.38702 -0.1124119,-0.58053 -0.023003,-0.52419 -0.060867,-0.64005 0.052647,-1.16585 0.2092598,-0.96929 0.7328914,-1.83088 1.3225825,-2.61245 0.473342,-0.55468 0.5769679,-0.70941 1.1170957,-1.20719 0.8239913,-0.75939 1.7581876,-1.38895 2.7139196,-1.96823 0.871782,-0.50769 1.747194,-1.05026 2.717234,-1.34959 0.152547,-0.0348 0.349104,-0.11824 0.505567,-0.0647 1.7341,0.9876 3.130786,-1.46479 1.396685,-2.45239 z"
       id="path2307"
       style="fill:#ffffff;fill-opacity:1;fill-rule:nonzero;stroke:none;stroke-width:0.264583" />
    <path
       d="m 37.214984,238.84391 c -0.116102,-0.12205 -0.218702,-0.25855 -0.348303,-0.36616 -0.844579,-0.70129 -1.986552,-0.97109 -3.069076,-0.87242 -0.336863,0.0307 -0.665012,0.12422 -0.997519,0.18633 -0.347239,0.14782 -0.712481,0.259 -1.041718,0.44347 -1.61544,0.90513 -2.931527,2.79095 -3.710117,4.42726 -0.249901,0.5252 -0.431622,1.08021 -0.647435,1.62032 -0.128606,0.57748 -0.307716,1.146 -0.385818,1.73246 -0.227111,1.70534 0.01595,3.46897 0.729387,5.03874 0.633254,1.39336 0.960075,1.5992 1.95425,2.73507 0.449908,0.33975 0.867592,0.72703 1.349727,1.01926 1.432345,0.86817 3.156886,1.27336 4.823941,0.99679 1.46935,-0.24376 1.882518,-0.62049 3.143126,-1.33238 0.438949,-0.38867 0.911884,-0.74205 1.316849,-1.16602 1.160021,-1.21444 2.05227,-2.74525 2.56122,-4.34392 0.437785,-1.37513 0.377388,-1.71849 0.47343,-3.13136 -0.05909,-0.51701 -0.07327,-1.04115 -0.177269,-1.55103 -0.299185,-1.4668 -0.98153,-2.84779 -2.11278,-3.85187 -0.938225,-0.83275 -1.34245,-0.87666 -2.475637,-1.31783 -1.270653,-0.20151 -1.302893,-0.28072 -2.555639,-0.20322 -0.354981,0.022 -0.705734,0.089 -1.058601,0.13344 -1.977734,0.26653 -1.600798,3.06347 0.376936,2.79694 v 0 c 0.246094,-0.0362 0.490593,-0.0858 0.738288,-0.10873 0.755814,-0.0699 0.80337,-0.0314 1.54554,0.0378 0.60933,0.18517 0.849069,0.20043 1.37205,0.59376 0.743426,0.55912 1.154967,1.39644 1.371166,2.28344 0.08221,0.33729 0.105428,0.68627 0.158141,1.02941 -0.03924,1.00269 0.01074,1.26415 -0.280289,2.25186 -0.357767,1.21425 -1.00662,2.35449 -1.844117,3.30132 -0.259106,0.29294 -0.562401,0.54359 -0.8436,0.81538 -0.682281,0.43024 -1.070168,0.75847 -1.865357,0.94509 -1.03046,0.24183 -2.088883,0.0408 -3.006813,-0.46089 -0.325506,-0.17791 -0.611428,-0.42022 -0.917141,-0.63032 -0.685691,-0.72228 -0.9403,-0.88214 -1.389107,-1.78983 -0.53439,-1.08078 -0.754039,-2.30977 -0.626523,-3.50714 0.04632,-0.43496 0.168495,-0.85845 0.252743,-1.28767 0.162867,-0.42744 0.29771,-0.86663 0.488604,-1.2823 0.347676,-0.75708 0.807543,-1.4846 1.317199,-2.14298 0.348363,-0.45003 0.646504,-0.77391 1.107326,-1.0889 0.141467,-0.0967 0.300826,-0.1642 0.451242,-0.24629 0.147968,-0.0412 0.292708,-0.0966 0.443907,-0.12357 0.359751,-0.0643 0.759717,-0.0294 1.105141,0.09 1.183222,1.607 3.455865,-0.0663 2.272646,-1.67333 z"
       id="path2309"
       style="fill:#ffffff;fill-opacity:1;fill-rule:nonzero;stroke:none;stroke-width:0.264583" />
    <path
       d="m 48.644817,252.19129 c 0.134713,-1.05678 0.533885,-2.07363 0.869294,-3.07809 0.670938,-1.92852 1.325179,-3.86297 1.902259,-5.82198 0.360161,-1.22265 0.460584,-1.62602 0.782309,-2.8278 0.185233,-0.66488 0.328094,-1.34074 0.506961,-2.00724 0.04944,-0.18422 0.09725,-0.36941 0.162261,-0.54872 0.01098,-0.0303 0.09165,-0.0882 0.06318,-0.0731 -1.696767,0.89926 -0.893125,1.0302 -2.184516,0.38003 0.363177,1.30533 0.646546,2.63606 1.080844,3.92104 0.08392,0.2483 0.184147,0.49079 0.276222,0.73619 0.274458,0.47678 0.618802,1.28365 1.31639,1.31362 0.615042,0.0264 1.245523,-0.21765 1.762392,-0.55205 0.321365,-0.20792 0.431506,-0.63512 0.602144,-0.97774 0.251312,-0.5046 0.623893,-1.69675 0.795343,-2.21465 0.123317,-0.39622 0.247554,-0.79215 0.369953,-1.18865 0.01098,-0.0356 0.603965,-1.97499 0.642245,-2.09617 0.07829,-0.24786 0.155315,-0.49627 0.242903,-0.741 0.219122,-0.61226 0.197683,-0.54473 0.153077,-0.30445 -0.657389,3.04383 -1.429887,-0.14651 -2.009799,0.19517 -0.1486,0.0876 0.075,0.33673 0.109146,0.50579 0.25404,1.25802 0.458788,2.52565 0.679448,3.78979 0.412861,2.33286 0.972116,4.63711 1.653624,6.90568 0.317503,1.05689 0.691619,2.17753 1.036177,3.22847 0.49148,1.56126 0.29722,0.83268 0.610839,2.17807 0.460626,1.94173 3.206639,1.2903 2.746012,-0.65142 v 0 c -0.373361,-1.55169 -0.153035,-0.74837 -0.675134,-2.40605 -0.326965,-0.99687 -0.703443,-2.1254 -1.004854,-3.12647 -0.654095,-2.17244 -1.191273,-4.37906 -1.586478,-6.61357 -0.168402,-0.96476 -0.325734,-1.93151 -0.504659,-2.89438 -0.05674,-0.30537 -0.330091,-1.79212 -0.508838,-2.11402 -0.222137,-0.40003 -0.418166,-0.94777 -0.85888,-1.07083 -0.613169,-0.17121 -1.256953,0.20304 -1.885429,0.30456 -0.132077,0.19663 -0.284924,0.38081 -0.396229,0.5899 -0.14976,0.28133 -0.418904,1.14337 -0.499002,1.39691 -0.339225,1.0738 -0.649885,2.15656 -0.994352,3.22875 -0.113299,0.34501 -0.221794,0.69164 -0.339899,1.03503 -0.08713,0.25335 -0.196771,0.49895 -0.275722,0.75496 -0.02188,0.0709 -0.09844,0.2082 -0.02535,0.22132 0.388515,0.0697 0.804138,-0.12028 1.184101,-0.0133 0.05201,0.0146 0.690848,0.78395 0.2994,0.3153 -0.07222,-0.18746 -0.152001,-0.37218 -0.216649,-0.56238 -0.48537,-1.42804 -0.742193,-2.92259 -1.248741,-4.34352 -0.380889,-0.37003 -0.616804,-1.03614 -1.142666,-1.1101 -1.573779,-0.22134 -1.892176,0.8966 -2.165676,1.91445 -0.175337,0.65253 -0.315124,1.31429 -0.496096,1.96537 -0.310809,1.16219 -0.408451,1.55462 -0.75633,2.73684 -0.56937,1.93491 -1.216959,3.8449 -1.879214,5.74964 -0.240681,0.72267 -0.497835,1.45889 -0.699989,2.19471 -0.20374,0.74159 -0.378773,1.51843 -0.26705,2.29011 0.363411,1.96225 3.138443,1.44831 2.775032,-0.51394 z"
       id="path2311"
       style="fill:#ffffff;fill-opacity:1;fill-rule:nonzero;stroke:none;stroke-width:0.264583" />
    <path
       d="m 8.1291945,259.36829 c -0.032159,0.14284 -0.073362,0.28393 -0.096476,0.4285 -0.059203,0.37029 -0.1056336,1.09533 -0.1251247,1.42508 -0.079125,1.33864 -0.095284,2.675 -0.1030147,4.01563 0.019807,2.37506 0.094481,4.74959 0.1997922,7.12232 0.00788,0.34304 0.014084,0.42397 0.00254,0.24352 -0.2242267,1.98297 2.5801247,2.30008 2.8043507,0.3171 v 0 c 0.03065,-0.43498 0.0244,-0.20641 0.01256,-0.68584 -0.103374,-2.32581 -0.176485,-4.65338 -0.197056,-6.98146 0.0068,-1.28032 0.0226,-2.55617 0.0962,-3.83465 0.01426,-0.24769 0.03208,-0.49518 0.05102,-0.74256 0.0093,-0.12196 0.02792,-0.24321 0.03381,-0.36538 2.64e-4,-0.006 -0.01058,-0.005 -0.01586,-0.007 0.661373,-1.88284 -2.0013538,-2.81816 -2.6627261,-0.93533 z"
       id="path2313"
       style="fill:#ffffff;fill-opacity:1;fill-rule:nonzero;stroke:none;stroke-width:0.264583" />
    <path
       d="m 8.8603972,260.85392 c 0.7531725,-0.25299 1.5327658,-0.47351 2.3318408,-0.50588 0.243591,-0.01 0.487454,0.0112 0.731181,0.0168 0.241216,0.0406 0.486956,0.0602 0.723648,0.12192 0.668693,0.17447 1.286515,0.53653 1.765127,1.03551 0.392042,0.40873 0.422536,0.5556 0.671226,1.04566 0.04922,0.17959 0.116282,0.35521 0.147661,0.53875 0.07403,0.43298 0.0381,0.94106 -0.195989,1.32605 -0.114697,0.18864 -0.393147,0.39342 -0.550896,0.52472 -0.923053,0.59111 -2.01998,0.6444 -3.080778,0.71603 -0.173325,0.0261 -0.34665,0.0523 -0.519975,0.0784 -1.9696729,0.32072 -1.5161144,3.10625 0.453558,2.78554 v 0 c 0.08606,-0.0161 0.17213,-0.0322 0.258194,-0.0483 1.407523,-0.0966 2.746281,-0.22099 4.009822,-0.93098 0.299601,-0.16834 0.567431,-0.38784 0.851147,-0.58177 0.634216,-0.66093 0.887585,-0.81117 1.266283,-1.68169 0.412384,-0.94795 0.437415,-2.07346 0.191097,-3.06518 -0.08908,-0.35864 -0.246797,-0.69666 -0.370195,-1.04499 -0.524313,-0.88492 -0.591742,-1.13975 -1.356427,-1.85668 -0.873464,-0.81891 -1.958097,-1.37136 -3.123358,-1.63245 -0.366694,-0.0822 -0.744644,-0.10182 -1.116966,-0.15273 -0.36012,6.6e-4 -0.720858,-0.0191 -1.080361,0.002 -1.0237718,0.0601 -2.0247112,0.33271 -2.9898225,0.66407 -1.8703898,0.69579 -0.8864071,3.34092 0.9839827,2.64514 z"
       id="path2315"
       style="fill:#ffffff;fill-opacity:1;fill-rule:nonzero;stroke:none;stroke-width:0.264583" />
    <path
       d="m 52.709841,258.5253 c -0.14719,2.18026 -0.257844,4.36287 -0.383447,6.54446 -0.105606,1.78613 -0.217257,3.57204 -0.275101,5.36054 -0.09546,2.95161 0.02721,-0.10468 -0.06144,2.02006 -0.08259,1.99391 2.737213,2.11071 2.819805,0.1168 v 0 c 0.09452,-2.29774 -0.03399,0.94998 0.06168,-2.0259 0.05695,-1.77142 0.168267,-3.54022 0.272616,-5.30928 0.125047,-2.17201 0.235196,-4.34503 0.381645,-6.51572 0.135033,-1.99104 -2.680721,-2.182 -2.815754,-0.19096 z"
       id="path2319"
       style="fill:#ffffff;fill-opacity:1;fill-rule:nonzero;stroke:none;stroke-width:0.264583" />
    <path
       d="m 48.035149,261.87345 c 1.514482,-0.14165 3.017644,-0.38474 4.529555,-0.55258 0.5378,-0.0597 1.076579,-0.11021 1.614869,-0.16531 1.526156,-0.11581 3.057091,-0.27362 4.590256,-0.24428 0.325757,0.006 0.650131,0.0442 0.975196,0.0663 1.991622,0.12611 2.16998,-2.69047 0.178355,-2.81659 v 0 c -0.400574,-0.0238 -0.800497,-0.0647 -1.201719,-0.0715 -1.61323,-0.0277 -3.22408,0.13487 -4.829897,0.25859 -0.555175,0.057 -1.110848,0.10931 -1.665523,0.17097 -1.438727,0.15992 -2.869808,0.38208 -4.309112,0.53467 -1.993866,0.0835 -1.875846,2.90321 0.11802,2.81976 z"
       id="path2321"
       style="fill:#ffffff;fill-opacity:1;fill-rule:nonzero;stroke:none;stroke-width:0.264583" />
    <path
       d="m 7.4056551,281.38491 c -0.044614,1.65822 -0.1131226,3.31566 -0.1811832,4.97312 -0.077715,2.35917 -0.1909172,4.72018 -0.1311084,7.08097 0.025045,0.22107 0.020965,0.44742 0.075136,0.6632 0.1826133,0.72745 0.4447521,1.21375 1.2219947,1.55094 0.7670239,0.33276 2.0534648,-0.0512 2.8380338,-0.22226 0.974105,-0.21149 1.963771,-0.34025 2.956815,-0.4196 0.73913,-0.0591 1.480717,-0.0838 2.219942,-0.14163 0.343644,-0.0269 0.686461,-0.0635 1.029691,-0.0952 1.987041,-0.18477 1.725739,-2.99487 -0.261302,-2.8101 v 0 c -0.317508,0.0297 -0.634602,0.0642 -0.952524,0.0891 -0.77109,0.0604 -1.544671,0.0862 -2.315523,0.14952 -1.101431,0.0905 -2.198773,0.23673 -3.279421,0.47072 -0.260857,0.0571 -0.521909,0.11331 -0.7825735,0.17129 -0.149089,0.0332 -0.3449646,-0.0118 -0.4466736,0.10211 -0.059068,0.0662 0.1541672,0.0935 0.2122271,0.16053 0.1425839,0.16468 0.2786517,0.33805 0.3843543,0.52851 0.019918,0.0359 -0.012539,0.16018 -0.024024,0.12077 -0.036876,-0.12652 -0.036595,-0.26102 -0.054892,-0.39153 -0.061939,-2.2975 0.058404,-4.59557 0.1296927,-6.89154 0.06659,-1.62158 0.138465,-3.24302 0.174713,-4.86563 0.157887,-1.98935 -2.6554882,-2.21264 -2.8133754,-0.22328 z"
       id="path2323"
       style="fill:#ffffff;fill-opacity:1;fill-rule:nonzero;stroke:none;stroke-width:0.264583" />
    <path
       d="m 8.785698,288.2824 c 1.338167,-0.2413 2.683322,-0.44393 4.027303,-0.6501 1.246747,-0.17359 0.645957,-0.10021 1.801818,-0.2246 1.983988,-0.21509 1.67981,-3.02087 -0.304177,-2.80579 v 0 c -1.25408,0.13686 -0.612089,0.0576 -1.925617,0.24081 -0.953655,0.14632 -1.906898,0.29506 -2.859383,0.44884 -0.3174801,0.0513 -0.8526211,0.13598 -1.1911528,0.20472 -0.1205979,0.0245 -0.2398294,0.0553 -0.3597442,0.0829 -1.9114515,0.57342 -1.1004986,3.27663 0.810953,2.7032 z"
       id="path2325"
       style="fill:#ffffff;fill-opacity:1;fill-rule:nonzero;stroke:none;stroke-width:0.264583" />
    <path
       d="m 8.0466384,282.87371 c 1.2299614,-0.53478 2.5496116,-0.8219 3.8525576,-1.11447 0.998905,-0.17854 1.47586,-0.29157 2.480017,-0.36459 0.346072,-0.0252 0.693755,-0.0174 1.040632,-0.0261 1.994714,-0.0599 1.910053,-2.88082 -0.08466,-2.82096 v 0 c -0.427053,0.0145 -0.855141,0.0105 -1.281159,0.0436 -1.127838,0.0876 -1.662258,0.21361 -2.775991,0.41499 -1.152047,0.26107 -1.3579366,0.28812 -2.4475823,0.60538 -0.7066341,0.20574 -1.4248363,0.43128 -2.0845134,0.76408 -0.1033799,0.0521 -0.2004026,0.11605 -0.300604,0.17408 -1.6432839,1.13229 -0.04198,3.45624 1.6013041,2.32395 z"
       id="path2327"
       style="fill:#ffffff;fill-opacity:1;fill-rule:nonzero;stroke:none;stroke-width:0.264583" />
    <path
       d="m 31.256845,279.73881 c -0.810815,-1.612 -1.749298,-0.78806 -2.807504,0.43475 -0.167457,0.1935 -0.0041,0.51199 0.0065,0.76767 0.01633,0.39318 0.146643,1.9946 0.167169,2.25596 0.259218,2.73436 0.37654,5.48537 0.744202,8.20853 0.0428,0.18981 0.08561,0.37961 0.128413,0.56942 0.461584,1.94149 3.207274,1.28872 2.745692,-0.65278 v 0 c -0.0259,-0.0992 -0.0518,-0.19838 -0.07771,-0.29757 -0.147735,-1.07362 -0.237987,-2.14993 -0.329785,-3.22981 -0.136519,-1.60596 -0.266303,-3.21249 -0.397266,-4.81891 -0.05595,-0.71142 -0.103809,-1.42347 -0.160266,-2.13486 -0.0075,-0.0951 0.05797,-0.31949 -0.03083,-0.28458 -2.360451,0.92775 -1.117185,1.55784 -2.576148,0.30892 0.796719,1.82967 3.38427,0.70294 2.587549,-1.12674 z"
       id="path2329"
       style="fill:#ffffff;fill-opacity:1;fill-rule:nonzero;stroke:none;stroke-width:0.264583" />
    <path
       d="m 29.235484,281.04086 c 0.927577,-0.45779 1.961441,-0.7088 2.982918,-0.84797 0.32253,-0.0439 0.648248,-0.06 0.972373,-0.0899 0.53667,0.0158 0.99863,-0.0206 1.509278,0.16013 0.112134,0.0397 0.217583,0.11006 0.29568,0.19977 0.02968,0.0341 0.03793,0.11814 -0.0038,0.13556 -0.04169,0.0174 -0.271555,-0.0975 -0.318455,-0.11941 -0.05484,0.0163 -0.114298,0.0215 -0.164505,0.0489 -0.714814,0.39034 0.105894,0.0756 -0.843486,0.47236 -0.650206,0.27175 -1.298062,0.40665 -1.986365,0.53434 -1.660554,0.23279 -2.219553,-0.0103 -1.759929,2.79571 0.0097,0.0591 1.487067,0.76001 1.535179,0.78327 1.876507,0.99408 3.605987,2.23603 5.376825,3.40129 1.799384,1.18405 1.509916,0.98761 3.315102,2.10251 1.914422,1.09661 0.990693,0.59026 2.766269,1.52798 1.765181,0.93092 3.081692,-1.56543 1.316511,-2.49634 v 0 c -1.663012,-0.8757 -0.794589,-0.40103 -2.600275,-1.43312 -1.755097,-1.08296 -1.470958,-0.89035 -3.233525,-2.0502 -1.878563,-1.23617 -3.71438,-2.55262 -5.713037,-3.59324 -0.265867,-0.12842 -0.525669,-0.27024 -0.797605,-0.38526 -0.04466,-0.0189 -0.130291,-0.0596 -0.144849,-0.0134 -0.235931,0.74957 -0.347308,1.53397 -0.570886,2.28732 -0.01042,0.0351 -0.145838,0.0117 -0.109688,0.006 0.382672,-0.0617 0.770728,-0.0871 1.151689,-0.16078 0.287718,-0.0566 0.578053,-0.10119 0.863152,-0.16976 1.327394,-0.31926 2.933084,-0.91987 3.787066,-2.04901 0.247201,-0.32685 0.389941,-0.7209 0.584909,-1.08135 0.02797,-0.40256 0.150876,-0.80975 0.08391,-1.20768 -0.210447,-1.25052 -1.189437,-1.98238 -2.331151,-2.31318 -0.81226,-0.23534 -1.446397,-0.18243 -2.28265,-0.19116 -0.403283,0.0411 -0.808609,0.0656 -1.209847,0.12341 -1.391801,0.20037 -2.796614,0.57086 -4.025403,1.26787 -1.665565,1.09926 -0.110987,3.45472 1.554578,2.35547 z"
       id="path2331"
       style="fill:#ffffff;fill-opacity:1;fill-rule:nonzero;stroke:none;stroke-width:0.264583" />
    <path
       d="m 54.642813,277.32229 c -1.235184,0.18344 -2.460278,0.55506 -3.55732,1.16091 -0.290801,0.1606 -0.561147,0.35573 -0.841722,0.5336 -0.23318,0.20758 -0.498057,0.38426 -0.69954,0.62273 -0.502504,0.59473 -0.836623,1.27452 -0.640598,2.10306 0.104185,0.44036 0.386715,0.83163 0.684509,1.17235 0.420859,0.48154 1.340784,0.86644 1.892501,1.13749 1.224576,0.53502 2.48431,1.05276 3.487676,1.96274 0.5681,0.51522 0.584118,0.61211 0.997736,1.22018 0.241559,0.4785 0.472085,1.01982 0.284102,1.56433 -0.04518,0.13087 -0.126873,0.24791 -0.21168,0.35733 -0.323787,0.41776 -0.531863,0.5181 -0.975199,0.84845 -0.784817,0.48891 -1.649354,0.81815 -2.56264,0.96765 -0.531786,0.087 -0.800791,0.0595 -1.315974,0.0469 -1.995522,-0.019 -2.022306,2.80315 -0.02678,2.82209 v 0 c 0.827921,-1.9e-4 1.157174,0.0336 2.01485,-0.12798 1.330581,-0.25075 2.572541,-0.76999 3.689651,-1.53424 0.850845,-0.74382 1.307277,-0.9914 1.817987,-2.03024 0.557538,-1.13411 0.532336,-2.38018 0.09338,-3.54276 -0.133694,-0.3541 -0.341466,-0.6756 -0.512202,-1.01339 -0.658931,-0.89309 -0.716124,-1.0727 -1.56429,-1.80897 -1.17307,-1.01832 -2.579601,-1.67646 -3.997019,-2.27721 -0.225051,-0.1039 -0.448505,-0.21134 -0.675158,-0.31171 -0.09661,-0.0428 -0.208796,-0.17959 -0.294349,-0.11759 -0.09397,0.0681 0.01228,0.23676 -0.02275,0.34739 -0.04361,0.13769 -0.11352,0.27077 -0.207695,0.38028 -0.02307,0.0268 -0.05199,-0.0717 -0.03235,-0.10115 0.08316,-0.12473 0.209513,-0.21447 0.314269,-0.3217 0.175977,-0.11899 0.343622,-0.25135 0.527931,-0.35697 0.811295,-0.46495 1.724874,-0.75042 2.644235,-0.89862 1.983415,-0.2203 1.67186,-3.02527 -0.311554,-2.80497 z"
       id="path2333"
       style="fill:#ffffff;fill-opacity:1;fill-rule:nonzero;stroke:none;stroke-width:0.264583" />
    <path
       d="m 25.655552,261.68789 c 0.0758,1.05476 0.08787,2.11323 0.129917,3.16977 0.110589,1.6713 0.2017,3.37898 0.701312,4.99065 0.09691,0.31263 0.227256,0.61389 0.340887,0.92084 0.153855,0.28345 0.283175,0.58166 0.461565,0.85034 0.52636,0.79278 1.24029,1.40898 2.07509,1.85725 0.641853,0.34466 0.928323,0.39991 1.618335,0.6182 0.282495,0.0599 0.562573,0.13267 0.847489,0.17976 1.103519,0.18239 2.367754,0.2298 3.453085,-0.0834 0.301956,-0.0872 0.587301,-0.22397 0.880954,-0.33595 0.277265,-0.17374 0.574347,-0.31928 0.831795,-0.52123 0.882594,-0.69233 1.502687,-1.63898 1.961689,-2.64929 0.400685,-0.88195 0.479907,-1.29904 0.741908,-2.22889 0.08108,-0.38511 0.169375,-0.76877 0.243242,-1.15534 0.122422,-0.64066 0.274989,-1.63065 0.370472,-2.27943 0.07849,-0.53328 0.211624,-1.47475 0.267274,-2.02631 0.0268,-0.2656 0.04034,-0.53238 0.06051,-0.79857 -5.29e-4,-0.20856 -0.0013,-0.41713 -0.0019,-0.6257 -0.0223,-1.99549 -2.844339,-1.96396 -2.822046,0.0315 v 0 c 0.0031,0.12883 0.0063,0.25766 0.0094,0.38649 -0.01585,0.22187 -0.02537,0.44429 -0.04753,0.66563 -0.05322,0.53136 -0.180451,1.42941 -0.255463,1.94023 -0.09023,0.61445 -0.229536,1.51965 -0.343815,2.1316 -0.06109,0.32712 -0.133567,0.65201 -0.200351,0.97802 -0.08012,0.29724 -0.147743,0.59813 -0.240352,0.89171 -0.26797,0.84951 -0.645028,1.76419 -1.307614,2.3895 -0.10406,0.0982 -0.227573,0.17349 -0.34136,0.26024 -0.125566,0.0606 -0.244715,0.13678 -0.376692,0.18168 -0.891445,0.30327 -2.007614,0.14807 -2.907779,-0.0318 -0.175247,-0.0502 -0.353293,-0.0916 -0.525738,-0.15072 -0.576696,-0.19778 -1.161637,-0.51164 -1.532633,-1.01202 -0.108283,-0.14605 -0.187833,-0.31136 -0.281752,-0.46703 -0.08174,-0.20656 -0.177173,-0.40822 -0.245229,-0.61969 -0.455838,-1.41639 -0.508074,-2.92999 -0.614746,-4.4007 -0.04571,-1.14364 -0.05158,-2.29049 -0.152522,-3.43096 -0.264221,-1.97805 -3.061597,-1.60438 -2.797377,0.37366 z"
       id="path2335"
       style="fill:#ffffff;fill-opacity:1;fill-rule:nonzero;stroke:none;stroke-width:0.264583" />
  </g>
</svg>
