<?xml version="1.0" encoding="UTF-8" standalone="no"?>
<!-- Created with Inkscape (http://www.inkscape.org/) -->

<svg
   xmlns:dc="http://purl.org/dc/elements/1.1/"
   xmlns:cc="http://creativecommons.org/ns#"
   xmlns:rdf="http://www.w3.org/1999/02/22-rdf-syntax-ns#"
   xmlns:svg="http://www.w3.org/2000/svg"
   xmlns="http://www.w3.org/2000/svg"
   xmlns:sodipodi="http://sodipodi.sourceforge.net/DTD/sodipodi-0.dtd"
   xmlns:inkscape="http://www.inkscape.org/namespaces/inkscape"
   width="64mm"
   height="64mm"
   viewBox="0 0 64 64"
   version="1.1"
   id="svg8"
   sodipodi:docname="cpp.svg"
   inkscape:version="0.92.5 (2060ec1f9f, 2020-04-08)">
  <defs
     id="defs2" />
  <sodipodi:namedview
     id="base"
     pagecolor="#ffffff"
     bordercolor="#666666"
     borderopacity="1.0"
     inkscape:pageopacity="0.0"
     inkscape:pageshadow="2"
     inkscape:zoom="3"
     inkscape:cx="43.826349"
     inkscape:cy="115.27027"
     inkscape:document-units="mm"
     inkscape:current-layer="layer1"
     showgrid="false"
     inkscape:snap-page="true"
     inkscape:window-width="1920"
     inkscape:window-height="1016"
     inkscape:window-x="0"
     inkscape:window-y="27"
     inkscape:window-maximized="1"
     units="mm" />
  <metadata
     id="metadata5">
    <rdf:RDF>
      <cc:Work
         rdf:about="">
        <dc:format>image/svg+xml</dc:format>
        <dc:type
           rdf:resource="http://purl.org/dc/dcmitype/StillImage" />
        <dc:title></dc:title>
      </cc:Work>
    </rdf:RDF>
  </metadata>
  <g
     inkscape:label="Layer 1"
     inkscape:groupmode="layer"
     id="layer1"
     transform="translate(0,-233)">
    <rect
       style="fill:#ffffff;fill-opacity:1;stroke-width:0.26458332"
       id="rect3713"
       width="64"
       height="64"
       x="0"
       y="233" />
    <path
       style="fill:#000000;fill-opacity:1;fill-rule:nonzero;stroke:none;stroke-width:0.26458332"
       id="path1205"
       d="m 16.87595,258.5747 c -0.04957,-0.0157 -0.100052,-0.0276 -0.150827,-0.0385 -0.111861,-0.021 -0.219475,-0.0582 -0.328604,-0.0895 -0.03235,-0.01 -0.06549,-0.0166 -0.09866,-0.023 -0.03452,-0.007 -0.06944,-0.0114 -0.104354,-0.0158 -0.04228,-0.005 -0.08461,-0.008 -0.127033,-0.0113 -0.05818,-0.004 -0.116458,-0.007 -0.174736,-0.009 -0.128923,-0.004 -0.25482,-0.0315 -0.382032,-0.049 -0.05837,-0.008 -0.117193,-0.0132 -0.175939,-0.0181 -0.126623,-0.006 -0.252234,-0.0225 -0.377403,-0.0423 -0.07353,-0.0122 -0.147381,-0.0224 -0.221462,-0.0307 -0.125009,-0.0102 -0.248793,-0.0294 -0.372049,-0.0523 -0.06525,-0.0128 -0.130909,-0.0233 -0.196863,-0.0317 -0.06449,-0.009 -0.129248,-0.0149 -0.194057,-0.0206 -0.122973,-0.007 -0.243408,-0.0338 -0.364745,-0.053 -0.06398,-0.0108 -0.128489,-0.0176 -0.193017,-0.0241 -0.0793,-0.007 -0.158782,-0.0123 -0.238275,-0.0168 -0.09571,-0.005 -0.191494,-0.008 -0.287291,-0.0114 -0.115906,-0.005 -0.07959,-0.002 -0.206359,0.008 -0.136973,0.01 -0.274113,0.0175 -0.41129,0.0241 -0.103888,2.7e-4 -0.191763,0.0134 -0.296336,0.0251 -0.111288,0.008 -0.220552,0.0287 -0.33062,0.0459 -0.08228,0.0114 -0.182598,0.0353 -0.249363,0.0501 -0.09599,0.0231 -0.190071,0.0522 -0.284498,0.0808 -0.08291,0.0232 -0.148185,0.0504 -0.203165,0.0726 -0.01619,0.007 -0.03231,0.0134 -0.04857,0.0198 -0.03904,0.0154 -0.210644,0.089 -0.134288,0.0586 -0.04517,0.0226 -0.09367,0.0508 -0.177467,0.10215 0.115466,-0.0774 -0.159935,0.11734 -0.102448,0.0798 -0.05538,0.0414 -0.0982,0.0792 -0.154044,0.13199 0.03915,-0.038 -0.101278,0.11822 -0.10386,0.1212 -0.05488,0.0649 -0.104585,0.13341 -0.154755,0.20193 -0.051381,0.0782 -0.1035345,0.15587 -0.1544144,0.23443 -0.056842,0.088 -0.1181071,0.17368 -0.1699419,0.26484 -0.076089,0.11909 -0.1470332,0.24112 -0.2232356,0.36017 -0.060928,0.0971 -0.1201015,0.19531 -0.1807363,0.29262 -0.064044,0.10078 -0.1239507,0.20411 -0.1862331,0.30598 -0.057339,0.0973 -0.1135938,0.19524 -0.171368,0.29229 -0.054774,0.0974 -0.1110062,0.194 -0.166358,0.29109 -0.049431,0.0861 -0.096032,0.17375 -0.1413637,0.26203 -0.049307,0.0933 -0.09289,0.18925 -0.1384382,0.28437 -0.04208,0.0885 -0.085951,0.17651 -0.1232128,0.2672 -0.036002,0.0906 -0.07541,0.1798 -0.1104172,0.27082 -0.039358,0.10342 -0.076984,0.20743 -0.1148059,0.31141 -0.0373,0.10793 -0.076996,0.21508 -0.1121582,0.32373 -0.043001,0.12994 -0.08452,0.26036 -0.126506,0.39064 -0.041663,0.13482 -0.082076,0.27003 -0.1231734,0.40505 -0.035127,0.13135 -0.07437,0.26157 -0.1096928,0.39288 -0.026135,0.10049 -0.045526,0.20249 -0.06381,0.30464 -0.028351,0.13877 -0.060852,0.27657 -0.087619,0.41567 -0.0176,0.0939 -0.0313,0.1884 -0.044031,0.28305 0.01102,-0.12302 0.00666,0.12317 0.0067,0.13084 9.525e-4,0.0114 0.00106,0.35312 0.00209,0.22792 0.011372,0.0892 0.019878,0.17893 0.028464,0.26851 -0.011308,-0.0817 0.022349,0.10467 0.026864,0.1225 0.021312,0.1007 0.045394,0.19788 0.071486,0.29652 0.027905,0.099 0.050978,0.20013 0.083724,0.29769 0.036234,0.0947 0.051288,0.20109 0.095841,0.29254 0.041657,0.11367 0.081996,0.22791 0.1278747,0.33998 0.045229,0.11257 0.094187,0.22376 0.1437584,0.33458 0.053984,0.11117 0.103341,0.22436 0.1591292,0.33467 0.058462,0.1156 0.124579,0.22692 0.1863304,0.34076 0.059259,0.10652 0.1229098,0.21044 0.1853575,0.31509 0.05577,0.0788 0.1064969,0.16139 0.166224,0.23739 0.072817,0.10173 0.1513186,0.19907 0.2298337,0.29637 0.066379,0.0773 0.138108,0.1495 0.2089902,0.22258 0.08082,0.0804 0.1568444,0.16679 0.2444345,0.24014 0.084019,0.0782 0.1704972,0.15401 0.2634192,0.22151 0.1077867,0.0843 0.2168398,0.16716 0.3308377,0.24293 0.112299,0.0791 0.230749,0.14824 0.349689,0.21661 0.128598,0.0732 0.260201,0.14067 0.39309,0.20571 0.134813,0.0647 0.271682,0.12453 0.410372,0.18037 0.146013,0.0538 0.291856,0.1082 0.440198,0.15532 0.14133,0.0448 0.28747,0.071 0.431954,0.10321 0.160832,0.0382 0.323023,0.07 0.486043,0.0972 0.158274,0.0257 0.317823,0.0425 0.477346,0.0583 0.151551,0.0154 0.303107,0.0274 0.455411,0.0285 0.191884,-3e-5 0.383761,-0.002 0.575638,-0.004 0.180712,-0.002 0.361858,-0.0105 0.541936,-0.0263 0.208056,-0.0177 0.415961,-0.036 0.622739,-0.0653 0.236183,-0.0337 0.472076,-0.0699 0.707059,-0.11125 0.243406,-0.0411 0.485259,-0.0909 0.725854,-0.14595 0.2671,-0.0578 0.533319,-0.11926 0.799041,-0.18305 0.261732,-0.0626 0.523554,-0.12481 0.784973,-0.18872 0.251294,-0.0588 0.501731,-0.12114 0.752144,-0.18353 0.241256,-0.0563 0.481242,-0.11777 0.722545,-0.17387 0.197762,-0.0511 0.397056,-0.0958 0.594676,-0.14744 0.173858,-0.0409 0.344915,-0.092 0.516985,-0.13961 0.08308,-0.025 0.16318,-0.0575 0.243166,-0.0907 0.122788,-0.0652 -0.05777,0.0373 -0.09331,0.063 -0.15088,0.12137 -0.248096,0.28232 -0.324046,0.45779 -0.02215,0.0816 -0.04431,0.16322 -0.06646,0.24483 0.316396,-1.97037 3.102922,-1.52292 2.786526,0.44745 v 0 c -0.02442,0.0958 -0.04885,0.19149 -0.07327,0.28724 -0.119468,0.29011 -0.287039,0.55184 -0.536756,0.74791 -0.187131,0.14749 -0.389433,0.2724 -0.612262,0.35897 -0.187362,0.0774 -0.377259,0.14868 -0.572507,0.20396 -0.185249,0.051 -0.369476,0.10575 -0.556472,0.1502 -0.222259,0.0578 -0.446072,0.10914 -0.668659,0.16566 -0.226439,0.0523 -0.451434,0.11068 -0.677856,0.16312 -0.254433,0.0634 -0.508908,0.12671 -0.764214,0.1865 -0.265249,0.0648 -0.530924,0.1279 -0.796469,0.19151 -0.276546,0.0664 -0.553591,0.13048 -0.831561,0.19065 -0.288112,0.0653 -0.577421,0.12555 -0.868781,0.17462 -0.267527,0.0461 -0.535695,0.0887 -0.804544,0.12644 -0.259583,0.0352 -0.52004,0.0617 -0.781166,0.0827 -0.248641,0.0192 -0.497993,0.0336 -0.747419,0.0354 -0.209539,0.002 -0.41908,0.004 -0.628627,0.004 -0.235003,-0.003 -0.469306,-0.0175 -0.703078,-0.0421 -0.223184,-0.0222 -0.446272,-0.0468 -0.667591,-0.0837 -0.212809,-0.0361 -0.424789,-0.0768 -0.63491,-0.12641 -0.227278,-0.0517 -0.456636,-0.0959 -0.678094,-0.17026 -0.214308,-0.0694 -0.426324,-0.1457 -0.636557,-0.22659 -0.2012579,-0.082 -0.4003926,-0.16875 -0.5959816,-0.26353 -0.1869988,-0.0923 -0.3724794,-0.18762 -0.5535531,-0.29119 -0.1787469,-0.10275 -0.3555497,-0.20881 -0.5251767,-0.32623 -0.1516099,-0.10339 -0.3009249,-0.21021 -0.4447749,-0.32424 -0.1536576,-0.11675 -0.3040816,-0.23788 -0.4448495,-0.37009 -0.1366631,-0.12341 -0.2684677,-0.25191 -0.3955566,-0.38518 -0.1297609,-0.13474 -0.2603698,-0.26887 -0.378352,-0.41433 -0.1006404,-0.12524 -0.2010034,-0.25074 -0.2953102,-0.38088 -0.11504,-0.1564 -0.2264169,-0.31568 -0.3286435,-0.48082 -0.082824,-0.1401 -0.1679598,-0.27885 -0.2457709,-0.42189 -0.073071,-0.1398 -0.1576631,-0.27356 -0.2254337,-0.41625 -0.072878,-0.14694 -0.1410666,-0.296 -0.2109605,-0.44436 -0.064714,-0.14514 -0.1278792,-0.29112 -0.1876282,-0.43835 -0.05453,-0.13785 -0.1070158,-0.27649 -0.1569919,-0.41605 -0.052127,-0.14633 -0.102072,-0.29353 -0.1460642,-0.44254 -0.039208,-0.13175 -0.076959,-0.26404 -0.1119273,-0.39697 -0.031822,-0.12039 -0.061841,-0.24116 -0.088171,-0.36287 -0.039362,-0.16783 -0.070601,-0.33753 -0.091116,-0.50875 -0.011004,-0.11523 -0.024543,-0.23018 -0.034768,-0.34547 -0.00658,-0.13469 -0.00914,-0.26926 -0.00858,-0.40412 -9.525e-4,-0.1749 -0.00273,-0.35028 0.018645,-0.52425 0.01996,-0.14737 0.042008,-0.29448 0.069863,-0.44059 0.024641,-0.12722 0.050745,-0.25417 0.080997,-0.38018 0.032925,-0.18233 0.069531,-0.36407 0.1174779,-0.54313 0.043507,-0.15979 0.089957,-0.31876 0.1342978,-0.47831 0.046301,-0.15145 0.091248,-0.30327 0.1387139,-0.45436 0.044382,-0.13365 0.086448,-0.26812 0.1302096,-0.40194 0.045906,-0.13794 0.094379,-0.27503 0.1429346,-0.41206 0.044753,-0.11902 0.086962,-0.23901 0.1323099,-0.35782 0.048943,-0.12593 0.1023615,-0.24956 0.153039,-0.37472 0.054767,-0.12463 0.1115433,-0.24838 0.1707364,-0.37097 0.057402,-0.11643 0.1116044,-0.23441 0.1710613,-0.34979 0.064179,-0.12438 0.130175,-0.24792 0.1996469,-0.36943 0.06503,-0.11359 0.1302306,-0.22706 0.195322,-0.34062 0.066679,-0.11018 0.1289198,-0.22293 0.1960722,-0.3328 0.070268,-0.0995 0.1192381,-0.21411 0.1906531,-0.31308 0.07082,-0.11238 0.1383049,-0.2268 0.2100972,-0.33856 0.055379,-0.089 0.1085726,-0.17984 0.1655733,-0.268 0.07347,-0.12119 0.1491861,-0.24105 0.2285551,-0.35847 0.07882,-0.12007 0.1569905,-0.24061 0.2399233,-0.35795 0.085567,-0.11681 0.1727147,-0.23238 0.265574,-0.34354 0.1080322,-0.12712 0.2187413,-0.25232 0.3378752,-0.36924 0.102583,-0.096 0.2079075,-0.18907 0.3189426,-0.27526 0.1295505,-0.10117 0.2611987,-0.20003 0.3998415,-0.28858 0.120623,-0.0734 0.2428949,-0.1445 0.368614,-0.20881 0.1319787,-0.0647 0.2652427,-0.12659 0.4028427,-0.17854 0.1462738,-0.0592 0.2944763,-0.11395 0.4460123,-0.15823 0.136967,-0.0412 0.274025,-0.082 0.41294,-0.11627 0.165982,-0.0395 0.333064,-0.0756 0.501807,-0.10139 0.14943,-0.0232 0.29853,-0.0492 0.449368,-0.0618 0.158926,-0.0179 0.317973,-0.0364 0.478043,-0.0397 0.11406,-0.005 0.228089,-0.0116 0.341979,-0.0199 0.165075,-0.0119 0.330518,-0.0228 0.496071,-0.0136 0.121534,0.004 0.243055,0.008 0.364467,0.0148 0.119373,0.007 0.238723,0.0148 0.357755,0.0263 0.120776,0.0122 0.241383,0.0263 0.361186,0.0461 0.149593,0.0245 0.166713,0.0287 0.161777,0.0277 0.105221,0.009 0.210328,0.0199 0.315048,0.0339 0.115262,0.0154 0.230266,0.0329 0.344439,0.0551 0.05859,0.0109 0.04228,0.0109 0.17708,0.023 0.113485,0.0132 0.226774,0.0281 0.339501,0.0468 0.08278,0.0131 0.02528,0.006 0.17485,0.0178 0.11383,0.01 0.227635,0.0203 0.340699,0.0369 0.0336,0.005 0.290941,0.0407 0.09332,0.0225 0.08886,0.004 0.177702,0.008 0.266407,0.0142 0.09384,0.007 0.187591,0.0153 0.281003,0.0268 0.0988,0.0128 0.197412,0.0274 0.29513,0.0469 0.111279,0.0223 0.222025,0.0475 0.33099,0.0794 0.140661,0.0407 0.113097,0.0366 0.148352,0.0439 0.109083,0.024 0.217663,0.0502 0.324683,0.0822 1.918829,0.54824 1.143505,3.26187 -0.775324,2.71363 z"
       inkscape:connector-curvature="0" />
    <path
       style="fill:#000000;fill-opacity:1;fill-rule:nonzero;stroke:none;stroke-width:0.26458332"
       id="path1207"
       d="m 32.331657,257.43694 c 0.04427,0.17556 0.06982,0.35492 0.09206,0.53436 0.03142,0.1989 0.05461,0.39893 0.07496,0.59923 0.02677,0.28251 0.04174,0.56593 0.05499,0.84934 0.01611,0.32379 0.01966,0.64803 0.03365,0.97188 0.01884,0.37712 0.03505,0.75435 0.0488,1.13169 0.01474,0.41702 0.0245,0.83418 0.03319,1.25136 0.0075,0.42284 0.0127,0.84564 0.02724,1.26831 0.01574,0.41955 0.02981,0.83917 0.04208,1.25883 0.01146,0.39679 0.01982,0.79366 0.02745,1.19053 0.0081,0.37435 0.014,0.74862 0.0087,1.12303 -0.0054,0.33606 -0.01243,0.672 -0.02937,1.00769 -0.01267,0.29543 -0.03434,0.59016 -0.06036,0.88467 -0.01857,0.24652 -0.04455,0.49217 -0.07551,0.73742 -0.02122,0.16625 -0.04295,0.33245 -0.06465,0.49864 -0.01373,0.0398 -0.02798,0.31452 -0.01466,0.0973 0.0011,-0.0542 -0.0079,-0.10711 -0.01294,-0.16147 0.289378,1.97452 -2.503016,2.38376 -2.792394,0.40924 v 0 c -0.0081,-0.0843 -0.01876,-0.16785 -0.01691,-0.25262 0.0016,-0.15354 0.01516,-0.30607 0.03842,-0.45782 0.02119,-0.16228 0.0424,-0.32455 0.06313,-0.48689 0.02658,-0.21028 0.04873,-0.42083 0.06423,-0.63227 0.02294,-0.25948 0.04233,-0.51907 0.05304,-0.7794 0.01545,-0.30163 0.02077,-0.60351 0.02604,-0.90548 0.0051,-0.34267 -0.0013,-0.68518 -0.0085,-1.02779 -0.0074,-0.38747 -0.01558,-0.77493 -0.02676,-1.16231 -0.01212,-0.41492 -0.02606,-0.82977 -0.04162,-1.24457 -0.01487,-0.43534 -0.02082,-0.8708 -0.02829,-1.30632 -0.0084,-0.40253 -0.01775,-0.80506 -0.03193,-1.20744 -0.01352,-0.37209 -0.02968,-0.74407 -0.04818,-1.11596 -0.01312,-0.31956 -0.01823,-0.6394 -0.03308,-0.95891 -0.0108,-0.23278 -0.02265,-0.46559 -0.04382,-0.69769 -0.01797,-0.1805 -0.04101,-0.36036 -0.06832,-0.53969 -0.0077,-0.0644 -0.01458,-0.12904 -0.02866,-0.19239 -0.484008,-1.93603 2.253951,-2.62052 2.737959,-0.68449 z"
       inkscape:connector-curvature="0" />
    <path
       style="fill:#000000;fill-opacity:1;fill-rule:nonzero;stroke:none;stroke-width:0.26458332"
       id="path1211"
       d="m 24.460152,262.9165 c 0.134584,-0.0927 0.280298,-0.16669 0.428372,-0.23496 0.163761,-0.0746 0.336369,-0.12577 0.510553,-0.16918 0.148244,-0.0363 0.299185,-0.0593 0.450307,-0.0796 0.145751,-0.0188 0.292307,-0.0301 0.438852,-0.0405 0.147245,-0.0101 0.294713,-0.0163 0.442189,-0.0218 0.156488,-0.006 0.313037,-0.009 0.469591,-0.0124 0.163639,-0.003 0.3273,-0.005 0.49096,-0.007 0.176568,-0.002 0.35314,-0.003 0.529712,-0.004 0.215995,-0.003 0.431686,0.0121 0.64729,0.0229 0.189434,0.009 0.378973,0.0164 0.568542,0.0224 0.197485,0.006 0.395018,0.0103 0.592558,0.014 0.222335,0.009 0.444164,0.0266 0.666255,0.0398 0.21399,0.011 0.427855,0.0209 0.641364,0.0393 0.188515,0.0182 0.377346,0.0325 0.566306,0.0451 0.18851,0.0125 0.377261,0.0208 0.566023,0.0284 0.203308,0.008 0.406702,0.0131 0.610108,0.0177 0.22492,0.005 0.449874,0.008 0.674828,0.011 0.227594,0.007 0.454903,0.002 0.682363,-0.006 0.256048,-0.0117 0.512543,-0.0129 0.768482,-0.0266 0.271486,-0.0167 0.54302,-0.0324 0.814684,-0.0459 0.252272,-0.019 0.504417,-0.0396 0.756753,-0.0578 0.255971,-0.0179 0.512207,-0.0317 0.768496,-0.0441 0.215685,-0.0107 0.43148,-0.0189 0.64729,-0.0265 0.175725,-0.006 0.35148,-0.0112 0.527245,-0.016 0.17375,-0.002 0.347181,0.0102 0.520409,0.022 0.08413,0.006 0.168233,0.0118 0.252341,0.0177 0.190691,0.0184 0.551874,0.0851 0.703482,0.21289 0.162666,0.13717 0.311087,0.2904 0.46663,0.4356 0.31106,0.91961 0.285692,0.47204 0.144222,1.3371 -0.728234,1.85799 -3.355835,0.82811 -2.627601,-1.02988 v 0 c -0.126402,0.82978 -0.153823,0.39878 0.154157,1.28641 0.441203,0.4049 0.455467,0.49845 0.974529,0.57429 0.0052,7.9e-4 -0.01042,-8e-4 -0.01564,-10e-4 -0.08108,-0.006 -0.162155,-0.0115 -0.243244,-0.0171 -0.0843,-0.006 -0.168826,-0.0104 -0.253003,-0.0165 -0.168008,0.005 -0.336008,0.009 -0.503976,0.0153 -0.203448,0.007 -0.406881,0.0149 -0.610211,0.0249 -0.234185,0.0113 -0.468323,0.0238 -0.702223,0.0401 -0.27337,0.0197 -0.546457,0.043 -0.819901,0.0617 -0.271195,0.0134 -0.542234,0.0295 -0.813268,0.0459 -0.271233,0.013 -0.542756,0.0178 -0.814089,0.0285 -0.2712,0.009 -0.542366,0.0143 -0.81371,0.007 -0.234246,-0.003 -0.468492,-0.006 -0.702704,-0.0115 -0.22016,-0.005 -0.440309,-0.0107 -0.660366,-0.0193 -0.213447,-0.009 -0.426871,-0.0182 -0.640032,-0.0324 -0.20778,-0.0139 -0.415438,-0.0295 -0.622742,-0.0494 -0.188169,-0.0166 -0.37687,-0.0227 -0.565436,-0.0337 -0.183755,-0.011 -0.367374,-0.024 -0.551111,-0.0353 -0.209426,-0.004 -0.418843,-0.008 -0.628208,-0.0149 -0.206978,-0.007 -0.413919,-0.0142 -0.620747,-0.0245 -0.162496,-0.008 -0.325083,-0.0208 -0.487828,-0.0194 -0.171649,0.001 -0.3433,0.002 -0.514945,0.004 -0.155496,0.002 -0.310994,0.004 -0.466474,0.007 -0.14092,0.003 -0.281837,0.006 -0.422701,0.011 -0.116189,0.004 -0.232378,0.009 -0.348395,0.0168 -0.0891,0.006 -0.178251,0.0126 -0.266966,0.0231 -0.05302,0.007 -0.106268,0.0133 -0.158429,0.0252 -0.04659,0.005 0.0069,-0.003 -0.02124,0.002 0.03734,-0.021 -0.01318,5.3e-4 -0.01421,0.006 -1.660451,1.10696 -3.225938,-1.24127 -1.565488,-2.34823 z"
       inkscape:connector-curvature="0" />
    <path
       style="fill:#000000;fill-opacity:1;fill-rule:nonzero;stroke:none;stroke-width:0.26458332"
       id="path1213"
       d="m 44.90194,257.93054 c -0.01185,-0.0812 -0.02328,-0.16253 -0.0335,-0.244 -0.0078,-0.0632 -0.01519,-0.12646 -0.02262,-0.18971 -0.0044,-0.0373 -0.0088,-0.0746 -0.01315,-0.11187 -0.0026,-0.0226 -0.0053,-0.0452 -0.008,-0.0678 -0.113056,-0.96194 0.003,-0.0371 2.746301,-0.61605 0.0057,0.0177 0.02479,0.0702 0.01714,0.0532 -0.003,-0.007 -0.04176,-0.12235 -0.0062,-0.0231 0.02315,0.0646 0.02821,0.0797 0.04649,0.13843 0.0043,0.0137 -0.0087,-0.0274 -0.0131,-0.0411 0.04016,0.10807 0.07204,0.20896 0.109797,0.3214 0.05059,0.14937 0.098,0.29976 0.143843,0.45069 0.06161,0.18348 0.11199,0.37044 0.167622,0.55575 0.06602,0.23144 0.12941,0.46364 0.192878,0.69579 0.06907,0.26107 0.133916,0.52319 0.197853,0.78555 0.0736,0.30416 0.138671,0.61002 0.193958,0.91802 0.06436,0.32328 0.114083,0.6491 0.157732,0.97573 0.04595,0.35851 0.08069,0.71837 0.1027,1.07911 0.01683,0.37131 0.02697,0.74298 0.02746,1.11467 1.8e-4,0.37827 -0.01394,0.75616 -0.03074,1.13398 -0.01262,0.3693 -0.03856,0.7379 -0.0614,1.10666 -0.02787,0.35891 -0.05742,0.71766 -0.08256,1.07677 -0.0223,0.34415 -0.05389,0.68762 -0.08049,1.03146 -0.02323,0.30313 -0.04097,0.60664 -0.05688,0.91023 -0.01087,0.29784 -0.03477,0.59489 -0.05662,0.89206 -0.01841,0.24728 -0.03329,0.4948 -0.04726,0.74236 -0.0114,0.20359 -0.0205,0.40731 -0.02917,0.61103 -0.0066,0.1582 -0.01236,0.31643 -0.01789,0.47467 -0.0028,0.15827 -0.01164,0.31582 -0.0322,0.47284 0.0051,-0.0448 -0.02887,0.19759 -0.02577,0.14771 0.004,-0.0649 0.0208,-0.12727 0.02178,-0.19282 5.29e-4,-0.0842 -0.01606,-0.16549 -0.02726,-0.24953 0.400719,1.95496 -2.364021,2.52166 -2.76474,0.5667 v 0 c -0.01326,-0.0981 -0.03124,-0.19333 -0.03011,-0.29204 2.3e-5,-0.12107 0.0092,-0.28636 0.03195,-0.37698 -0.0087,0.18639 0.0069,-0.15853 0.0059,-0.17449 0.0058,-0.1654 0.01183,-0.33079 0.01873,-0.49615 0.0092,-0.21673 0.01894,-0.43344 0.03111,-0.65003 0.0149,-0.26354 0.03078,-0.52702 0.05037,-0.79026 0.0204,-0.27748 0.04317,-0.5548 0.05289,-0.83293 0.01717,-0.3269 0.03635,-0.6537 0.06142,-0.9801 0.02609,-0.33702 0.05704,-0.67368 0.07898,-1.011 0.02466,-0.35151 0.05287,-0.70274 0.08105,-1.05399 0.02183,-0.35242 0.04694,-0.70467 0.05879,-1.05763 0.01497,-0.33617 0.02821,-0.67236 0.02795,-1.00895 7.94e-4,-0.31651 -0.01008,-0.633 -0.02262,-0.94923 -0.01593,-0.29156 -0.04753,-0.58207 -0.08287,-0.87186 -0.03778,-0.28541 -0.08196,-0.56989 -0.138509,-0.85226 -0.04433,-0.25048 -0.09826,-0.49884 -0.157745,-0.74616 -0.05765,-0.23706 -0.116144,-0.47388 -0.178297,-0.7098 -0.05748,-0.21085 -0.115467,-0.42157 -0.174633,-0.63195 -0.054,-0.18164 -0.104196,-0.36446 -0.164171,-0.54428 -0.03943,-0.13048 -0.08002,-0.26053 -0.1245,-0.38938 -0.02323,-0.0714 -0.04498,-0.14226 -0.07269,-0.2155 -0.09274,-0.2639 0.03016,0.0805 -0.07299,-0.20791 2.759845,-0.66228 2.616957,-1.57766 2.729733,-0.61843 0.0026,0.0226 0.0053,0.0451 0.008,0.0677 0.0043,0.037 0.0087,0.0741 0.01307,0.11112 0.0067,0.0567 0.01333,0.11345 0.02027,0.17014 0.008,0.0649 0.01757,0.12963 0.02686,0.19438 0.282223,1.97556 -2.511634,2.37468 -2.793857,0.39913 z"
       inkscape:connector-curvature="0" />
    <path
       style="fill:#000000;fill-opacity:1;fill-rule:nonzero;stroke:none;stroke-width:0.26458332"
       id="path1215"
       d="m 43.525532,263.23892 c 0.07033,0.009 0.141036,0.0147 0.211759,0.0197 0.136946,0.009 0.274132,0.014 0.411298,0.0186 0.173741,0.004 0.347673,-0.005 0.521366,-0.0108 0.246013,-0.003 0.491549,-0.0155 0.737172,-0.0289 0.302906,-0.0129 0.605409,-0.0314 0.907918,-0.0514 0.345519,-0.0185 0.690366,-0.0468 1.035489,-0.0713 0.374703,-0.0253 0.748892,-0.0574 1.123519,-0.0839 0.383,-0.0327 0.766103,-0.0639 1.149553,-0.0908 0.379966,-0.0261 0.760339,-0.0457 1.140786,-0.0631 0.338058,-0.0152 0.676254,-0.027 1.014468,-0.038 0.277349,-0.009 0.554749,-0.0161 0.832157,-0.023 0.231891,-0.008 0.463894,0.002 0.695597,0.0107 0.177327,0.005 0.353928,0.0146 0.529773,0.0386 1.97426,0.29114 1.56252,3.08317 -0.41174,2.79202 v 0 c 0.147564,0.003 -0.217979,-0.008 -0.230293,-0.0106 -0.171251,-0.007 -0.342768,-0.0158 -0.514157,-0.009 -0.269933,0.007 -0.539858,0.0136 -0.809736,0.0223 -0.325654,0.0106 -0.651288,0.0219 -0.976789,0.0365 -0.357621,0.0164 -0.715171,0.0347 -1.072343,0.0592 -0.383039,0.0269 -0.765675,0.0586 -1.148304,0.0907 -0.374473,0.0264 -0.748496,0.0587 -1.123048,0.0839 -0.349779,0.0248 -0.699289,0.0534 -1.049465,0.0723 -0.313372,0.0206 -0.626763,0.0398 -0.940538,0.0533 -0.267634,0.0145 -0.535249,0.0275 -0.803285,0.0317 -0.233847,0.007 -0.467937,0.019 -0.701898,0.0106 -0.173529,-0.006 -0.347072,-0.0122 -0.520303,-0.0243 -0.136348,-0.01 -0.272645,-0.0217 -0.40808,-0.0407 -1.975554,-0.28223 -1.576432,-3.07608 0.399124,-2.79386 z"
       inkscape:connector-curvature="0" />
    <path
       style="fill:#000000;fill-opacity:1;fill-rule:nonzero;stroke:none;stroke-width:0.26458332"
       id="path1217"
       d="m 55.786755,258.736 c -0.02368,-0.0822 -0.04725,-0.16439 -0.06925,-0.24704 -0.01823,-0.0718 -0.03493,-0.14392 -0.05169,-0.21605 -0.0089,-0.0382 -0.01767,-0.0763 -0.02651,-0.11449 -0.0053,-0.0229 -0.01061,-0.0459 -0.01593,-0.0688 0.03414,0.11448 0.07748,0.29071 0.151389,0.38333 0.488966,0.61277 2.108208,2.12353 2.59574,-0.4532 0.0086,-0.0513 0.01267,-0.10318 0.01373,-0.15514 -0.55295,-1.16316 -0.211852,-0.92444 -0.933966,-1.30882 0.233217,-0.31436 -1.158412,0.0856 -0.857001,-0.0157 0.131966,-0.0155 0.50492,-0.18376 -0.09353,0.0407 -0.05698,0.0214 -0.115157,0.0589 -0.168124,0.0915 -0.121746,0.0467 0.259469,-0.14063 0.297053,-0.15674 -0.01378,0.007 0.03937,-0.018 0.02997,-0.0126 -0.184751,0.10612 -0.333733,0.17907 -0.47443,0.33088 -0.01646,0.0189 -0.01048,0.0118 -0.0013,6.9e-4 -0.210042,0.91747 -0.435848,1.13176 -0.06969,1.67647 0.320093,0.29107 0.497544,0.48412 0.850075,0.55385 1.501597,-1.71014 2.007359,-1.19443 1.346176,-2.24161 -0.266991,-0.27751 -0.0093,-0.0137 0.0596,0.0612 1.293678,1.5195 -0.855213,3.34904 -2.14889,1.82954 v 0 c 0.224795,0.23317 0.04769,0.0471 -0.07019,-0.0737 -0.06945,-0.10698 -0.145748,-0.20981 -0.208343,-0.32093 -0.438116,-0.77782 0.654595,-2.19674 1.526275,-2.03123 0.390586,0.0721 0.581713,0.24136 0.936406,0.57494 0.389522,0.57629 0.180292,0.78428 -0.04055,1.76277 -0.02297,0.028 -0.04607,0.0559 -0.0701,0.0829 -0.15608,0.17137 -0.33674,0.31597 -0.556728,0.40236 0.02498,-0.0121 0.294312,-0.17387 0.14791,-0.0824 -0.06629,0.0416 -0.141764,0.0917 -0.212968,0.11942 -0.680323,0.26536 -0.260525,0.0714 -0.179689,0.0672 -0.363808,0.12223 -0.571416,0.0895 -0.951675,0.012 -0.558885,-0.29255 -0.987507,-0.43949 -0.978413,-1.37532 5.29e-4,-0.0894 0.0061,-0.17873 0.01995,-0.2671 0.138983,-0.79841 1.608881,-1.58337 2.174986,-1.00902 0.154705,0.15696 0.318961,0.30597 0.457118,0.47767 0.07627,0.0948 0.123418,0.28273 0.158922,0.40008 0.0053,0.0229 0.01061,0.0458 0.0159,0.0687 0.0086,0.0373 0.01725,0.0746 0.0259,0.11183 0.01119,0.0482 0.02241,0.0965 0.0341,0.14457 0.01656,0.0607 0.03422,0.12132 0.05148,0.18193 0.548238,1.91883 -2.165397,2.69415 -2.713632,0.77532 z"
       inkscape:connector-curvature="0" />
    <path
       style="fill:#000000;fill-opacity:1;fill-rule:nonzero;stroke:none;stroke-width:0.26458332"
       id="path1219"
       d="m 58.285559,270.10002 c 0.0195,0.13773 0.03099,0.27638 0.04088,0.41507 0.01551,0.21692 0.0075,0.4348 -0.0051,0.65164 -0.01484,0.22851 -0.04338,0.45581 -0.07645,0.6823 -0.03631,0.23469 -0.08335,0.46758 -0.131622,0.70005 -0.05353,0.24761 -0.121034,0.49179 -0.190289,0.73535 -0.07332,0.25462 -0.159427,0.50496 -0.258339,0.7507 -0.091,0.22528 -0.191092,0.44652 -0.300786,0.66327 -0.11149,0.22125 -0.242258,0.43176 -0.377574,0.639 -0.134665,0.20097 -0.280789,0.39402 -0.434665,0.5806 -0.128947,0.16075 -0.265652,0.31515 -0.406905,0.46514 -0.12042,0.13038 -0.247722,0.25424 -0.378611,0.37402 -0.0847,0.0734 -0.0442,0.0389 -0.121365,0.10391 -1.527849,1.2838 -3.34342,-0.8769 -1.81557,-2.16071 v 0 c 0.03613,-0.0302 0.01926,-0.016 0.0506,-0.0424 0.07638,-0.0712 0.151818,-0.14427 0.221964,-0.22189 0.09942,-0.0998 0.187228,-0.21119 0.277231,-0.31931 0.08756,-0.10455 0.169206,-0.2139 0.246697,-0.32608 0.08024,-0.12177 0.158745,-0.245 0.224513,-0.37535 0.07534,-0.14495 0.139088,-0.29539 0.201377,-0.44634 0.06262,-0.14843 0.109884,-0.30249 0.156829,-0.45646 0.05067,-0.1782 0.101121,-0.35651 0.141644,-0.53736 0.03754,-0.18072 0.07481,-0.36163 0.103751,-0.54395 0.02344,-0.14852 0.04031,-0.29815 0.05132,-0.44809 0.0088,-0.0913 0.0093,-0.18342 0.0061,-0.26978 -0.0049,-0.0715 -0.01011,-0.14307 -0.01947,-0.21419 -0.282223,-1.97555 2.511634,-2.37467 2.793857,-0.39912 z"
       inkscape:connector-curvature="0" />
    <path
       style="fill:#000000;fill-opacity:1;fill-rule:nonzero;stroke:none;stroke-width:0.26458332"
       id="path1221"
       d="m 45.171815,258.02226 c -0.04059,-0.0925 -0.07936,-0.18574 -0.115049,-0.28026 -0.03688,-0.0966 -0.06887,-0.19484 -0.09785,-0.29406 -0.02519,-0.0835 -0.0449,-0.16852 -0.0634,-0.25373 -0.01447,-0.0649 -0.02721,-0.13016 -0.03801,-0.19579 -0.0064,-0.0408 -0.01225,-0.0817 -0.0181,-0.12262 -0.003,-0.0209 -0.006,-0.0417 -0.0089,-0.0626 -0.0019,-0.0125 -0.0036,-0.025 -0.0053,-0.0376 -0.0011,-0.008 -0.0021,-0.0152 -0.0033,-0.0228 -0.140107,-0.9348 2.838826,-1.03318 2.802835,-0.0865 5.29e-4,-0.0272 2.64e-4,0.007 2.64e-4,0.0135 -2.6e-5,0.0299 -2.9e-5,0.0597 -3.7e-5,0.0896 -5e-6,0.0369 -1e-5,0.0739 -1.6e-5,0.11079 -2e-6,0.0391 -5e-6,0.0781 -8e-6,0.11721 -2e-6,0.0391 -2e-6,0.0782 -5e-6,0.11734 0,0.0354 -3e-6,0.0709 -3e-6,0.10628 0,0.0235 -2e-6,0.047 -2e-6,0.0704 0,0.0205 0,0.041 0,0.0615 0,0.0176 0,0.0353 -3e-6,0.0529 0,0.0135 0,0.027 0,0.0405 0,0.0165 0,0.0331 0,0.0496 0,0.0202 0,0.0404 0,0.0606 0,0.0142 0,0.0284 0,0.0426 0,0.009 0,0.0173 0,0.026 0,0.005 0,0.0105 0,0.0158 -5e-6,1.99561 -2.822226,1.99561 -2.822223,0 v 0 c 0,-0.005 0,-0.0105 0,-0.0158 0,-0.009 0,-0.0173 0,-0.026 0,-0.0142 0,-0.0284 0,-0.0426 0,-0.0202 0,-0.0404 0,-0.0606 3e-6,-0.0165 3e-6,-0.0331 3e-6,-0.0496 0,-0.0135 0,-0.027 0,-0.0406 0,-0.0176 0,-0.0353 0,-0.0529 0,-0.0205 0,-0.041 0,-0.0615 2e-6,-0.0235 2e-6,-0.047 2e-6,-0.0705 3e-6,-0.0354 3e-6,-0.0709 3e-6,-0.10632 3e-6,-0.0391 5e-6,-0.0783 5e-6,-0.1174 3e-6,-0.0391 6e-6,-0.0782 1.1e-5,-0.11731 2e-6,-0.0371 8e-6,-0.0741 1.3e-5,-0.11115 8e-6,-0.031 1.1e-5,-0.0621 4.2e-5,-0.0931 6.1e-5,-0.0384 1.62e-4,-0.0768 0.0016,-0.11511 0.03825,-0.97002 2.650392,-1.15855 2.811444,-0.20552 0.0011,0.008 0.0021,0.0152 0.0032,0.0228 0.0019,0.0125 0.0036,0.025 0.0053,0.0375 0.0029,0.0203 0.0058,0.0405 0.0087,0.0608 0.0036,0.025 0.0072,0.05 0.01087,0.075 -0.01439,-0.0684 0.0064,0.0307 0.0097,0.0457 0.01598,0.074 -0.0058,-0.0162 0.01521,0.0634 0.0088,0.0305 0.01,0.0373 0.03083,0.0922 0.0163,0.0448 0.04373,0.10538 0.06604,0.15812 0.786112,1.83425 -1.807922,2.94598 -2.59403,1.11172 z"
       inkscape:connector-curvature="0" />
  </g>
</svg>
