<?xml version="1.0" encoding="UTF-8" standalone="no"?>
<!-- Created with Inkscape (http://www.inkscape.org/) -->

<svg
   xmlns:dc="http://purl.org/dc/elements/1.1/"
   xmlns:cc="http://creativecommons.org/ns#"
   xmlns:rdf="http://www.w3.org/1999/02/22-rdf-syntax-ns#"
   xmlns:svg="http://www.w3.org/2000/svg"
   xmlns="http://www.w3.org/2000/svg"
   xmlns:sodipodi="http://sodipodi.sourceforge.net/DTD/sodipodi-0.dtd"
   xmlns:inkscape="http://www.inkscape.org/namespaces/inkscape"
   width="64mm"
   height="64mm"
   viewBox="0 0 64 64"
   version="1.1"
   id="svg8"
   sodipodi:docname="everything-nothing.svg"
   inkscape:version="0.92.5 (2060ec1f9f, 2020-04-08)">
  <defs
     id="defs2" />
  <sodipodi:namedview
     id="base"
     pagecolor="#ffffff"
     bordercolor="#666666"
     borderopacity="1.0"
     inkscape:pageopacity="0.0"
     inkscape:pageshadow="2"
     inkscape:zoom="2.1213203"
     inkscape:cx="-88.850824"
     inkscape:cy="73.103696"
     inkscape:document-units="mm"
     inkscape:current-layer="layer1"
     showgrid="false"
     inkscape:snap-page="true"
     inkscape:window-width="1920"
     inkscape:window-height="1016"
     inkscape:window-x="0"
     inkscape:window-y="27"
     inkscape:window-maximized="1"
     units="px"
     scale-x="3.7795275" />
  <metadata
     id="metadata5">
    <rdf:RDF>
      <cc:Work
         rdf:about="">
        <dc:format>image/svg+xml</dc:format>
        <dc:type
           rdf:resource="http://purl.org/dc/dcmitype/StillImage" />
        <dc:title />
      </cc:Work>
    </rdf:RDF>
  </metadata>
  <g
     inkscape:label="Layer 1"
     inkscape:groupmode="layer"
     id="layer1"
     transform="translate(0,-233)">
    <rect
       style="fill:#e91e63;stroke-width:0.26458332;fill-opacity:1"
       id="rect3713"
       width="64"
       height="64"
       x="0"
       y="233" />
    <path
       style="fill:#ffffff;fill-opacity:1;fill-rule:nonzero;stroke:none;stroke-width:0.26458332"
       id="path1001"
       d="m 8.7953928,264.097 c 0.1521328,0.0159 0.3035681,0.0362 0.4544878,0.0612 0.011623,0.004 0.4433604,0.0677 0.311245,0.0446 0.1505741,5.3e-4 0.3011611,2.7e-4 0.4517414,-1.4e-4 0.190629,-5.3e-4 0.381009,0.002 0.571264,-0.01 0.232373,-0.0207 0.466453,-0.0215 0.698567,-0.0444 0.238438,-0.0236 0.47704,-0.0438 0.71474,-0.074 0.309578,-0.0401 0.620135,-0.0714 0.931098,-0.0983 0.313577,-0.0268 0.627749,-0.0454 0.942013,-0.0618 0.302582,-0.0156 0.605356,-0.0268 0.908176,-0.0365 0.286589,-0.009 0.573235,-0.0155 0.859892,-0.0217 0.248179,-0.005 0.496379,-0.009 0.744584,-0.0131 0.203691,-0.003 0.407392,-0.005 0.611092,-0.008 0.153809,-0.002 0.30762,-0.003 0.461431,-0.005 0.105951,-10e-4 0.211904,-0.002 0.317857,-0.003 0.07119,-5.2e-4 0.142374,-0.001 0.213561,-0.002 0.04339,-2.6e-4 0.08678,-7.9e-4 0.130169,-10e-4 0.02635,-2.1e-4 0.05269,-5.3e-4 0.07904,-5.3e-4 0.01599,-1.3e-4 0.03199,-2.6e-4 0.04798,-2.6e-4 0.0097,-8e-5 0.01942,-1.6e-4 0.02913,-2.4e-4 0.0059,-4e-5 0.01179,-9e-5 0.01769,-1.4e-4 0.0036,-3e-5 0.0072,-6e-5 0.01074,-9e-5 0.0022,-1e-5 0.0043,-3e-5 0.0065,-5e-5 0.0013,-10e-6 0.0026,-2e-5 0.004,-3e-5 7.94e-4,-10e-6 0.0016,-10e-6 0.0024,-2e-5 4.76e-4,0 9.79e-4,-10e-6 0.0015,-10e-6 2.91e-4,0 5.82e-4,-1e-5 8.73e-4,-1e-5 1.79e-4,0 3.71e-4,0 5.29e-4,0 1.09e-4,0 2.18e-4,0 3.18e-4,-10e-6 0.0092,-1.4e-4 0.0184,-4e-5 0.02761,-6e-5 0.01409,-10e-6 0.02818,-10e-6 0.04227,-10e-6 0.0093,0 0.01869,0 0.02804,0 0.01925,0 0.03851,0 0.05776,0 0.0144,0 0.02879,0 0.04319,0 0.0088,0 0.01762,0 0.02643,0 0.0053,0 0.0107,0 0.01605,0 0.0032,0 0.0065,0 0.0097,0 0.002,0 0.0039,0 0.0059,0 0.0012,0 0.0024,0 0.0036,0 7.15e-4,0 0.0015,0 0.0022,0 4.5e-4,0 8.73e-4,0 0.0013,0 0.0065,0 0.01298,0 0.01947,0 0.01361,0 0.02721,0 0.04082,0 0.01021,0 0.02042,0 0.03063,0 0.01952,0 0.03904,0 0.05855,0 0.01484,0 0.02968,0 0.04451,0 -0.01141,0.003 0.047,-0.002 0.03541,0 -0.58684,0.11406 -0.738036,0.0871 -1.174508,0.38709 -0.144316,0.13009 -0.415754,0.2662 0.266404,-0.17893 0.05839,-0.0381 0.162721,-0.0817 0.234043,-0.11282 0.221088,-0.0893 -0.09198,0.0349 -0.399279,0.22806 -0.06019,0.0378 -0.218517,0.18194 -0.163816,0.13654 0.113185,-0.0939 0.215582,-0.17981 0.336806,-0.25938 0.143362,-0.0908 -0.0486,0.0294 -0.234571,0.18124 -0.03661,0.0299 -0.135759,0.13155 -0.101132,0.0994 0.104948,-0.0975 0.199467,-0.19068 0.31186,-0.27746 -0.06001,0.0515 -0.121448,0.10128 -0.180032,0.15435 -0.0236,0.0214 -0.04448,0.0456 -0.06629,0.0688 -0.01097,0.0117 -0.04262,0.0478 -0.03166,0.0361 0.230809,-0.24562 0.26418,-0.27684 0.130641,-0.14495 -0.06251,0.0675 0.02792,-0.0475 -0.127333,0.15786 -0.01327,0.0175 -0.04973,0.0726 -0.0369,0.0547 0.17822,-0.24839 0.07055,-0.11204 0.210781,-0.28346 -0.08721,0.0854 -0.300275,0.47181 -0.04961,0.0427 0.0555,-0.11054 -0.05151,0.10216 -0.06187,0.12484 0.108347,-0.23908 0.03734,-0.0899 0.12679,-0.26611 0.0027,-0.005 -0.0042,0.0114 -0.0086,0.0153 -0.0035,0.003 0.0078,-0.0171 0.0058,-0.0129 -0.0073,0.0156 -0.01463,0.0312 -0.02194,0.0468 -3.17e-4,2.7e-4 -6.35e-4,5.3e-4 -9.52e-4,10e-4 0.01973,-0.0794 -0.123018,0.39882 0.0516,-0.18289 0.02103,-0.0493 0.05075,-0.15151 0.05314,-0.1603 0.0033,-0.0144 0.0099,-0.0526 0.01599,-0.0906 0.009,-0.053 0.01375,-0.10658 0.01925,-0.16001 0.0055,-0.21214 0.0079,0.25123 -0.006,0.10811 -0.0115,-0.11353 -0.02075,-0.22727 -0.02897,-0.34109 0.0018,-0.0615 -0.03521,-0.43532 -0.0054,-0.12876 -0.0097,-0.0359 -0.07819,-0.50408 -0.03974,-0.24762 -0.01121,-0.0223 -0.08864,-0.43567 -0.06644,-0.30624 -0.0447,-0.15454 -0.07889,-0.31193 -0.11122,-0.46946 0.0012,0.008 0.01021,0.0189 0.0036,0.0229 -7.14e-4,5.3e-4 -0.01023,-0.0349 -0.02766,-0.0996 -0.0229,-0.085 -0.04395,-0.17042 -0.06436,-0.25607 0.0013,0.007 0.006,0.0272 0.0038,0.0206 -0.04653,-0.13684 -0.07882,-0.28012 -0.113131,-0.42035 0.03461,0.13618 -0.05986,-0.18729 -0.07732,-0.24522 -0.04207,-0.12472 -0.102773,-0.30365 -0.110143,-0.32378 -0.0574,-0.16797 -0.04409,-0.11752 -0.118653,-0.29865 -0.05035,-0.12269 -0.03349,-0.0991 -0.102252,-0.23547 0.0065,0.0125 -0.190712,-0.40544 -0.146771,-0.30428 -0.0959,-0.17145 -0.03031,-0.0749 -0.142027,-0.24767 -0.06659,-0.10198 -0.129877,-0.19363 -0.193183,-0.28686 0.0021,0.004 0.0088,0.015 0.0062,0.0115 -0.05382,-0.0722 -0.07606,-0.0999 -0.137846,-0.17108 -0.09066,-0.10609 -0.163433,-0.17927 -0.243282,-0.2617 -0.06315,-0.067 -0.136379,-0.13347 -0.203238,-0.19272 -0.117137,-0.10604 -0.240855,-0.20445 -0.361678,-0.30623 -0.115121,-0.0946 -0.232979,-0.18599 -0.349794,-0.27858 -0.118532,-0.0977 -0.245221,-0.18474 -0.368822,-0.27573 -0.13118,-0.0927 -0.258847,-0.19014 -0.391163,-0.28121 -0.146404,-0.0983 -0.28817,-0.20369 -0.436432,-0.2992 -0.136983,-0.0902 -0.275987,-0.17706 -0.41767,-0.25968 -0.132606,-0.0802 -0.268063,-0.15672 -0.408917,-0.2216 -0.169761,-0.0866 -0.343814,-0.16373 -0.518893,-0.23879 -0.150166,-0.0594 -0.305492,-0.10481 -0.459187,-0.15416 -0.157041,-0.0512 -0.318514,-0.086 -0.479912,-0.12006 -0.140116,-0.0293 -0.282571,-0.0519 -0.424149,-0.0667 -0.140518,-0.007 -0.281865,-0.011 -0.422066,-0.0109 -0.147473,0.008 -0.295704,0.016 -0.442352,0.0279 -0.122681,0.0116 -0.213948,0.031 -0.326412,0.0545 -0.07406,0.0156 -0.108788,0.0258 -0.1895893,0.0501 -0.00943,0.003 0.018949,-0.007 0.028795,-0.007 0.0058,8e-5 -0.01067,0.005 -0.016,0.007 -0.1260151,0.0468 -0.1013015,0.0404 -0.1844754,0.0826 0.1501863,-0.0882 -0.2489006,0.15571 -0.098384,0.0656 -0.095211,0.0664 -0.097814,0.0731 -0.1764316,0.14135 -0.037157,0.0209 -0.2734995,0.23791 -0.1847635,0.16015 -0.080711,0.0765 -0.152544,0.16125 -0.2282468,0.24535 -0.087139,0.096 -0.1202145,0.13098 -0.2040924,0.23556 -0.097518,0.11857 -0.1722753,0.21859 -0.2774059,0.34863 -0.055509,0.0719 -0.099572,0.13271 -0.1635924,0.22483 -0.079955,0.11203 -0.1594503,0.22403 -0.2366102,0.33805 -0.0576,0.0849 -0.1285026,0.20481 -0.1896034,0.30426 -0.064025,0.0976 -0.1235403,0.19844 -0.1843018,0.29791 -0.064564,0.10733 -0.1243904,0.217 -0.18557,0.32623 -0.062334,0.10691 -0.094215,0.17817 -0.1525265,0.29243 -0.045587,0.0985 -0.095969,0.19563 -0.1393693,0.2954 -0.048637,0.10312 -0.1072697,0.24681 -0.1587113,0.36575 -0.045974,0.11751 -0.096109,0.23365 -0.1384938,0.35255 -0.046629,0.13843 -0.098051,0.27533 -0.1420969,0.41465 -0.063654,0.17181 -0.1141634,0.34786 -0.1689711,0.52255 -0.057349,0.17892 -0.1072041,0.35994 -0.1639565,0.53906 -0.037745,0.11714 -0.068236,0.23625 -0.09425,0.35648 -0.03107,0.17635 -0.076283,0.34971 -0.115707,0.52427 -0.025953,0.11772 -0.045329,0.23667 -0.062511,0.35594 -0.018137,0.13077 -0.031154,0.26214 -0.042847,0.39362 -0.012346,0.14416 -0.021127,0.28857 -0.028995,0.43303 -0.00801,0.15274 -0.013698,0.30558 -0.018775,0.45843 -0.00108,0.21959 -0.025686,0.43778 -0.050074,0.6557 -0.015981,0.14231 -0.028164,0.28498 -0.038837,0.42777 -0.010586,0.14688 -0.018108,0.29395 -0.024836,0.44105 -0.0068,0.15436 -0.011618,0.3088 -0.015917,0.46325 -0.00427,0.15905 -0.00729,0.31813 -0.00998,0.47721 -0.00265,0.1619 -0.00451,0.32381 -0.00618,0.48573 0.00517,-0.082 -0.010499,0.52713 -0.00156,0.38136 0.013512,0.1484 0.025733,0.29691 0.037019,0.4455 0.00589,0.14649 0.017214,0.25093 0.034696,0.37792 0.012856,0.12749 0.037857,0.22964 0.063697,0.35823 0.022185,0.0791 0.056148,0.20661 0.076019,0.27047 0.010141,0.034 0.020397,0.068 0.030426,0.10207 0.021495,0.073 0.091481,0.29012 0.072373,0.21647 0.056952,0.14946 0.095664,0.23963 0.1526882,0.37285 0.051185,0.10003 0.094673,0.2037 0.1450091,0.30415 0.051838,0.11242 0.1121024,0.21877 0.1852914,0.35693 0.063057,0.12321 0.1292183,0.24008 0.1935718,0.35339 0.052053,0.0977 0.1134782,0.19038 0.1723255,0.2835 0.087271,0.13995 0.1813237,0.27535 0.2730056,0.41237 0.073844,0.10703 0.1541915,0.2091 0.2331053,0.31243 0.088691,0.11081 0.1817431,0.21805 0.2733688,0.32651 0.1022916,0.11681 0.2074228,0.23109 0.3111574,0.34666 0.1110636,0.12007 0.2239587,0.23844 0.3354202,0.35817 0.096669,0.0958 0.1942801,0.19074 0.2917926,0.28573 -0.059837,-0.0586 0.2811439,0.27134 0.2372251,0.22122 0.1053169,0.0781 0.1998671,0.17656 0.3118044,0.24554 0.099087,0.0693 0.1958361,0.14381 0.3008444,0.2042 0.099377,0.0642 0.211079,0.1157 0.318209,0.17054 0.118723,0.058 0.240542,0.11003 0.362542,0.1609 0.133114,0.0442 0.265028,0.0921 0.398192,0.13628 0.15576,0.0449 0.31069,0.0927 0.466743,0.1366 0.173283,0.0475 0.348947,0.0848 0.522827,0.13022 0.13667,0.0366 0.274834,0.0667 0.4139,0.0925 0.185008,0.0397 0.368951,0.0836 0.554693,0.11979 0.12703,0.0236 0.25502,0.0414 0.383343,0.0562 0.147166,0.0171 0.294842,0.0294 0.442596,0.0401 0.160595,0.0113 0.321404,0.019 0.482232,0.0261 0.138559,0.0109 0.208291,0.001 0.354713,-0.007 0.170102,-0.01 0.341059,-0.0164 0.510659,-0.0273 0.162819,-0.0279 0.332349,-0.0208 0.494157,-0.0536 0.183702,-0.0371 0.373738,-0.0416 0.556977,-0.0798 0.221971,-0.0409 0.445133,-0.0747 0.668679,-0.10566 0.192684,-0.0371 0.386223,-0.0697 0.580111,-0.0999 0.186301,-0.027 0.370637,-0.0663 0.556137,-0.0988 0.169637,-0.0283 0.337007,-0.0694 0.505762,-0.10358 0.134678,-0.0399 0.276063,-0.0733 0.414301,-0.107 0.0814,-0.0318 0.213919,-0.0693 0.313937,-0.099 0.35774,-0.12258 -0.265874,0.1126 0.100547,-0.04 0.129106,-0.0383 0.359508,-0.19879 -0.131898,0.077 -0.08995,0.0505 -0.144379,0.0979 -0.219776,0.15884 -0.273376,0.23488 -0.434412,0.5655 -0.541324,0.90288 -0.13701,0.47647 -0.03207,0.90633 0.157316,1.33402 0.04338,0.0767 0.0255,0.0469 0.052,0.0903 -1.526484,-2.37377 1.830534,-4.53254 3.357018,-2.15877 v 0 c 0.05997,0.0949 0.02576,0.0392 0.100879,0.16833 0.225006,0.49386 0.357386,0.99363 0.201949,1.54565 -0.131071,0.42885 -0.346059,0.82502 -0.69325,1.11572 -0.226013,0.18867 -0.47186,0.35113 -0.750896,0.45157 -0.162936,0.0675 -0.325699,0.13643 -0.496934,0.18074 -0.168385,0.0499 -0.334707,0.10662 -0.504842,0.15055 -0.190843,0.0465 -0.380296,0.0983 -0.571808,0.14201 -0.201405,0.0401 -0.40092,0.09 -0.603876,0.12204 -0.212062,0.0371 -0.422845,0.0818 -0.636051,0.112 -0.215438,0.0329 -0.429277,0.075 -0.644479,0.10932 -0.189232,0.0259 -0.377876,0.0556 -0.565734,0.0901 -0.221433,0.0347 -0.443943,0.0616 -0.66542,0.0962 -0.228754,0.0293 -0.458305,0.0511 -0.687665,0.0752 -0.210711,0.0161 -0.421703,0.0248 -0.632724,0.036 -0.251045,0.014 -0.502576,0.0263 -0.753873,0.01 -0.199426,-0.009 -0.398814,-0.0186 -0.597938,-0.0328 -0.206629,-0.0152 -0.413135,-0.0327 -0.618929,-0.0569 -0.228211,-0.0272 -0.455888,-0.0593 -0.681633,-0.10286 -0.177697,-0.0349 -0.35502,-0.0718 -0.530842,-0.1152 -0.228693,-0.0437 -0.456335,-0.0926 -0.68137,-0.15264 -0.201183,-0.0527 -0.405402,-0.0933 -0.604976,-0.15264 -0.216315,-0.0619 -0.4321861,-0.12545 -0.6469556,-0.19246 -0.228791,-0.0774 -0.4580501,-0.15431 -0.6823471,-0.24401 -0.2164864,-0.0923 -0.4333272,-0.18477 -0.6426449,-0.29251 -0.1993847,-0.1083 -0.4043243,-0.2066 -0.5960525,-0.3289 -0.1834108,-0.11611 -0.3645302,-0.23605 -0.5391079,-0.36518 -0.1606216,-0.11904 -0.3192251,-0.24113 -0.4726964,-0.36929 -0.1764088,-0.14689 -0.3468168,-0.30058 -0.5091924,-0.46299 -0.1476711,-0.14384 -0.2964675,-0.28667 -0.4383974,-0.43625 -0.125404,-0.1389 -0.2581069,-0.2712 -0.3830148,-0.41061 -0.1279581,-0.14627 -0.2623098,-0.28695 -0.3879159,-0.43535 -0.1316067,-0.15876 -0.2680272,-0.31357 -0.3938247,-0.47713 -0.1299382,-0.17204 -0.2618044,-0.34266 -0.3820197,-0.52181 -0.08976,-0.13859 -0.1876454,-0.27199 -0.2735439,-0.41318 -0.1111144,-0.17092 -0.2201902,-0.34338 -0.3187557,-0.52195 -0.086361,-0.15284 -0.172457,-0.30588 -0.2529044,-0.46196 -0.076075,-0.14668 -0.157916,-0.29056 -0.2279579,-0.44032 -0.083317,-0.16834 -0.1608073,-0.33943 -0.2399987,-0.50974 -0.068515,-0.16007 -0.1352561,-0.32079 -0.1979909,-0.48322 -0.074145,-0.19657 -0.1448667,-0.39457 -0.2006326,-0.59731 -0.067805,-0.21939 -0.1257289,-0.44161 -0.1766473,-0.66553 -0.040112,-0.1996 -0.081204,-0.39915 -0.1048135,-0.60156 -0.02822,-0.20589 -0.050672,-0.41228 -0.060443,-0.61994 -0.013855,-0.18419 -0.031742,-0.36805 -0.043661,-0.55238 -0.00674,-0.20556 -0.00663,-0.41093 -0.00294,-0.61658 0.00176,-0.17078 0.00374,-0.34155 0.00654,-0.51231 0.00295,-0.17367 0.00627,-0.34733 0.010962,-0.52096 0.005,-0.17843 0.010624,-0.35683 0.018575,-0.53516 0.00859,-0.18602 0.018284,-0.37201 0.031917,-0.55775 0.014474,-0.19081 0.03089,-0.38149 0.052309,-0.57167 0.018571,-0.16591 0.026907,-0.18499 0.027526,-0.34479 0.00607,-0.18133 0.012901,-0.36264 0.022539,-0.54381 0.010512,-0.19086 0.022376,-0.38165 0.039054,-0.57208 0.018651,-0.20587 0.039753,-0.41155 0.06918,-0.6162 0.032912,-0.22177 0.070165,-0.44293 0.1196718,-0.66168 0.038545,-0.16855 0.081389,-0.33583 0.1116291,-0.50616 0.052747,-0.234 0.111876,-0.4665 0.1854005,-0.69494 0.057112,-0.18004 0.1058371,-0.36261 0.164936,-0.54215 0.059452,-0.18015 0.1069311,-0.36439 0.1751142,-0.54171 0.063134,-0.19337 0.1310754,-0.38512 0.1985087,-0.57702 0.071396,-0.18968 0.1463442,-0.37814 0.2245465,-0.56511 0.074399,-0.15799 0.1260274,-0.30059 0.1924715,-0.44062 0.068842,-0.14676 0.1376447,-0.29356 0.2094039,-0.43892 0.062728,-0.12193 0.1389391,-0.28087 0.2281087,-0.43279 0.073907,-0.12753 0.1432967,-0.25774 0.2189842,-0.38428 0.079759,-0.1336 0.1611929,-0.26631 0.2447465,-0.39754 0.085724,-0.14216 0.1777629,-0.28599 0.2697048,-0.42699 0.087492,-0.12855 0.1769375,-0.25534 0.2669929,-0.38214 0.113827,-0.16237 0.2304135,-0.32301 0.3552823,-0.47713 0.080722,-0.10232 0.1693635,-0.21697 0.2568138,-0.32344 0.1090052,-0.13385 0.2213266,-0.26503 0.3380052,-0.39227 0.1116904,-0.12407 0.2221846,-0.24957 0.3416932,-0.36623 0.1320104,-0.13075 0.3013258,-0.29174 0.4268401,-0.38778 0.1484033,-0.12806 0.3007017,-0.25112 0.460202,-0.36513 0.1993307,-0.13857 0.4039746,-0.26891 0.6190668,-0.382 0.1990193,-0.101 0.4023627,-0.19398 0.6126591,-0.26926 0.2406584,-0.0868 0.4862012,-0.1605 0.7372376,-0.21113 0.2421941,-0.0507 0.4858089,-0.0924 0.7320698,-0.11787 0.253595,-0.0236 0.507891,-0.0382 0.7624,-0.0482 0.287092,-0.003 0.574291,0.004 0.860723,0.0249 0.304135,0.0303 0.606553,0.0743 0.905585,0.13847 0.294131,0.0626 0.587118,0.13154 0.873317,0.22473 0.275103,0.0885 0.551931,0.17344 0.817446,0.2886 0.223911,0.0968 0.447174,0.19526 0.665002,0.30527 0.237883,0.11551 0.472797,0.23779 0.698697,0.37554 0.202946,0.11901 0.402736,0.24313 0.599227,0.37254 0.17113,0.11378 0.339151,0.23201 0.508739,0.34803 0.170431,0.11811 0.336799,0.24175 0.505053,0.36293 0.152594,0.11922 0.31801,0.22233 0.46472,0.3494 0.148447,0.11768 0.297064,0.23507 0.443505,0.35521 0.12865,0.10866 0.260569,0.21359 0.385539,0.32651 0.166517,0.14564 0.327296,0.29717 0.481769,0.45556 0.130254,0.13776 0.263515,0.2727 0.385799,0.41783 0.149121,0.17264 0.292795,0.34979 0.421802,0.53816 0.09263,0.13944 0.189997,0.2757 0.278121,0.41816 0.09276,0.15118 0.184494,0.30332 0.265373,0.46126 0.07288,0.14046 0.145358,0.28134 0.209508,0.42609 0.07781,0.15879 0.15084,0.32007 0.214847,0.48479 0.06035,0.14725 0.124239,0.29308 0.175097,0.44401 0.05507,0.15056 0.103027,0.30333 0.155517,0.45477 0.05773,0.18321 0.112513,0.36742 0.164357,0.55239 0.03128,0.13908 0.07912,0.27377 0.112351,0.41238 0.03589,0.15267 0.0824,0.30254 0.115597,0.4559 0.02125,0.1053 0.04582,0.20974 0.07599,0.31292 0.0332,0.14439 0.06231,0.28951 0.09566,0.43387 0.02614,0.1409 0.04972,0.28191 0.07285,0.42331 0.02524,0.16369 0.04215,0.32814 0.04858,0.49363 0.0058,0.0812 0.0124,0.16234 0.02073,0.24332 0.02198,0.22821 0.03212,0.45805 0.0033,0.68633 -0.01396,0.13458 -0.02914,0.26909 -0.05187,0.40252 -0.02704,0.16135 -0.05812,0.32217 -0.100789,0.4802 -0.03725,0.13314 -0.07644,0.26583 -0.124634,0.39551 0.104226,-0.38134 -0.07803,0.31047 -0.109005,0.34161 -0.01403,0.0357 -0.260494,0.60028 -0.121278,0.26708 -0.07978,0.18624 -0.16749,0.36867 -0.279488,0.53808 0.02534,-0.0453 0.04807,-0.0921 0.07602,-0.13582 0.0199,-0.0311 -0.03332,0.066 -0.05179,0.0979 -0.0865,0.14974 -0.181132,0.29332 -0.292666,0.42579 0.04675,-0.0593 0.08419,-0.12553 0.131025,-0.18474 0.02619,-0.0331 -0.0443,0.072 -0.06903,0.10622 -0.07425,0.10274 -0.149836,0.20125 -0.236457,0.29307 -0.0355,0.0361 -0.138221,0.1478 -0.106488,0.10834 0.05028,-0.0625 0.107196,-0.11943 0.162302,-0.17775 0.01314,-0.0139 -0.02402,0.0298 -0.03634,0.0444 -0.112315,0.13354 -0.233488,0.25686 -0.373133,0.36323 0.02233,-0.0178 0.04884,-0.0387 0.06811,-0.057 0.04501,-0.0426 0.07064,-0.12661 0.1325,-0.13047 0.172215,-0.0107 -0.903286,0.56824 -0.427436,0.36004 0.02519,-0.017 0.05665,-0.0379 0.07799,-0.0553 0.05448,-0.0444 0.214709,-0.18157 0.160718,-0.13655 -0.348435,0.29055 -0.0645,0.0853 -0.659304,0.42477 -0.0067,0.004 0.01419,-0.006 0.02129,-0.009 0.05672,-0.0252 0.134692,-0.0587 0.18048,-0.0893 0.684927,-0.4573 0.329372,-0.25501 0.192374,-0.12181 -0.379898,0.26462 -0.784723,0.44156 -1.273216,0.42442 -0.01484,0 -0.02968,0 -0.04451,0 -0.01952,0 -0.03904,0 -0.05855,0 -0.01021,0 -0.02042,0 -0.03063,0 -0.01361,0 -0.02721,0 -0.04082,0 -0.0065,0 -0.01297,0 -0.01946,0 -4.49e-4,0 -8.73e-4,0 -0.0013,0 -7.15e-4,0 -0.0015,0 -0.0022,0 -0.0012,0 -0.0024,0 -0.0036,0 -0.002,0 -0.0039,0 -0.0059,0 -0.0032,0 -0.0065,0 -0.0097,0 -0.0053,0 -0.0107,0 -0.01605,0 -0.0088,0 -0.01762,0 -0.02643,0 -0.0144,0 -0.02879,0 -0.04319,0 -0.01924,0 -0.03848,0 -0.05772,0 -0.0093,0 -0.01869,0 -0.02804,0 -0.01407,0 -0.02814,0 -0.0422,0 0.0016,-2e-5 0.0031,-6e-5 0.0047,-6e-5 -1.09e-4,0 -2.18e-4,0 -3.18e-4,0 -1.79e-4,0 -3.7e-4,0 -5.29e-4,0 -2.91e-4,10e-6 -5.82e-4,10e-6 -8.73e-4,10e-6 -4.76e-4,1e-5 -9.79e-4,1e-5 -0.0015,1e-5 -7.94e-4,10e-6 -0.0016,2e-5 -0.0024,2e-5 -0.0013,1e-5 -0.0026,2e-5 -0.004,3e-5 -0.0022,2e-5 -0.0043,4e-5 -0.0065,6e-5 -0.0036,3e-5 -0.0072,5e-5 -0.01074,8e-5 -0.0059,5e-5 -0.01179,10e-5 -0.01769,1.5e-4 -0.0097,8e-5 -0.01942,1.6e-4 -0.02913,2.3e-4 -0.01599,1.3e-4 -0.03199,2.6e-4 -0.04799,2.7e-4 -0.02634,2.1e-4 -0.05269,5.3e-4 -0.07904,5.3e-4 -0.04338,2.6e-4 -0.08676,7.9e-4 -0.13014,0.001 -0.07095,5.3e-4 -0.141899,10e-4 -0.212848,0.002 -0.103706,7.9e-4 -0.207413,0.002 -0.311117,0.003 -0.151716,0.002 -0.303432,0.003 -0.455145,0.005 -0.199094,0.002 -0.398188,0.005 -0.597272,0.008 -0.239773,0.004 -0.479541,0.008 -0.71929,0.0126 -0.272684,0.006 -0.545358,0.0122 -0.817979,0.0206 -0.275906,0.009 -0.551771,0.019 -0.827463,0.0331 -0.269268,0.014 -0.538469,0.0297 -0.807157,0.0525 -0.258638,0.0222 -0.51691,0.0483 -0.774368,0.0817 -0.292744,0.0367 -0.586394,0.0635 -0.880096,0.0914 -0.266246,0.021 -0.533042,0.033 -0.799471,0.0516 -0.263832,0.0149 -0.527679,0.0183 -0.791903,0.0166 -0.2388404,8e-4 -0.4778559,0.003 -0.7165146,-0.008 -0.2405925,-0.0197 -0.4798219,-0.0484 -0.7175209,-0.0913 -0.071064,-0.0121 -0.2283164,-0.03 -0.3604897,-0.0466 -2.7938574,-0.39912 -2.2294131,-4.35023 0.5644443,-3.95111 z"
       inkscape:connector-curvature="0" />
    <path
       style="fill:#ffffff;fill-opacity:1;fill-rule:nonzero;stroke:none;stroke-width:0.26458332"
       id="path1003"
       d="m 21.307275,279.40196 c -0.01934,0.0353 0.122851,-0.19727 0.0843,-0.14044 0.0684,-0.12485 0.13623,-0.2503 0.196589,-0.37932 0.05714,-0.12695 0.109731,-0.25604 0.161888,-0.38519 0.06893,-0.18809 0.14909,-0.37181 0.219629,-0.55927 0.08667,-0.22772 0.1643,-0.45869 0.249253,-0.68707 0.08841,-0.24072 0.175526,-0.48186 0.258429,-0.72455 0.101818,-0.27959 0.19075,-0.56359 0.285515,-0.8456 0.106131,-0.31434 0.210765,-0.62921 0.320395,-0.94235 0.111524,-0.33418 0.23709,-0.66343 0.356974,-0.99465 0.129364,-0.34819 0.248543,-0.69999 0.375754,-1.04895 0.129782,-0.36323 0.2658,-0.72421 0.395648,-1.08741 0.142986,-0.38999 0.279378,-0.78236 0.418821,-1.17363 0.151285,-0.41397 0.299229,-0.82916 0.445442,-1.24495 0.148948,-0.4383 0.300415,-0.87579 0.454316,-1.31239 0.150962,-0.44061 0.298619,-0.88239 0.443221,-1.32513 0.155054,-0.46436 0.294687,-0.93363 0.44226,-1.40037 0.148316,-0.46183 0.291,-0.92538 0.432613,-1.38928 0.150032,-0.4787 0.29604,-0.95866 0.449305,-1.43635 0.145473,-0.45716 0.289134,-0.9149 0.434753,-1.37201 0.14505,-0.44463 0.293317,-0.88819 0.436496,-1.33342 0.137673,-0.42213 0.278186,-0.84333 0.41475,-1.26582 0.13388,-0.39623 0.255273,-0.79649 0.383503,-1.19455 0.114144,-0.36363 0.22328,-0.72878 0.333463,-1.09361 0.09804,-0.33023 0.197241,-0.66014 0.286451,-0.99289 0.09285,-0.32206 0.177485,-0.64634 0.266594,-0.96943 0.07115,-0.27839 0.143632,-0.55636 0.216614,-0.83428 0.05662,-0.2455 0.126024,-0.48774 0.186288,-0.73233 0.05026,-0.22303 0.103709,-0.44519 0.158075,-0.66726 0.04849,-0.20254 0.09064,-0.40635 0.141534,-0.60833 0.03736,-0.14231 0.06949,-0.28582 0.0985,-0.43003 0.02921,-0.18073 0.07438,-0.3582 0.116959,-0.5361 0.02397,-0.097 0.04394,-0.19487 0.06182,-0.29313 0.0154,-0.085 0.02721,-0.17057 0.03966,-0.25601 0.0083,-0.0666 0.01603,-0.13329 0.02376,-0.19997 -0.04605,0.40879 0.04016,0.56592 0.178916,0.97695 0.06687,0.10528 0.127601,0.21473 0.200615,0.31585 0.283274,0.3923 0.804114,0.68143 1.286034,0.72527 0.242321,0.022 0.487513,-0.0122 0.728541,-0.0455 0.09562,-0.0132 0.182808,-0.0621 0.274214,-0.0932 0.157186,-0.096 0.314373,-0.19194 0.471559,-0.28791 -2.156603,1.82044 -4.731094,-1.22946 -2.574491,-3.0499 v 0 c 0.171127,-0.10774 0.342257,-0.21549 0.513387,-0.32323 0.102685,-0.036 0.200488,-0.0915 0.308059,-0.10784 0.251815,-0.0382 0.508321,-0.0754 0.762138,-0.0543 0.695015,0.0577 1.253866,0.52482 1.584412,1.10533 0.174416,0.50021 0.283136,0.77247 0.231265,1.29825 -0.01222,0.1054 -0.02432,0.21083 -0.03893,0.31593 -0.01953,0.13394 -0.0389,0.26795 -0.06354,0.40106 -0.03101,0.16799 -0.06527,0.33539 -0.105825,0.50136 -0.0326,0.13621 -0.0661,0.25926 -0.08644,0.3978 -0.04221,0.20815 -0.08856,0.4154 -0.142002,0.62099 -0.0492,0.19139 -0.08449,0.386 -0.133824,0.57743 -0.05539,0.22546 -0.109035,0.45107 -0.160591,0.67746 -0.0654,0.26246 -0.138436,0.52287 -0.20007,0.78628 -0.07721,0.29331 -0.153075,0.58685 -0.229061,0.88048 -0.0869,0.31506 -0.16923,0.63135 -0.260029,0.94534 -0.10042,0.37216 -0.20986,0.74174 -0.320212,1.11106 -0.117576,0.38824 -0.233318,0.77703 -0.355418,1.16388 -0.129005,0.39909 -0.250018,0.80076 -0.384627,1.19803 -0.136226,0.42046 -0.275593,0.83989 -0.412872,1.25999 -0.142237,0.44136 -0.288507,0.88139 -0.432858,1.32206 -0.146611,0.45994 -0.2911,0.92056 -0.437489,1.38057 -0.147653,0.4593 -0.287486,0.92106 -0.432072,1.38133 -0.145569,0.47681 -0.292304,0.95323 -0.44463,1.42794 -0.151627,0.47884 -0.294598,0.96043 -0.45398,1.4368 -0.154421,0.47178 -0.311288,0.9428 -0.472805,1.4122 -0.153644,0.43539 -0.30439,0.87183 -0.453096,1.30892 -0.148178,0.42138 -0.298112,0.84215 -0.451374,1.26171 -0.140359,0.39319 -0.277173,0.78765 -0.420958,1.1796 -0.133032,0.37037 -0.270761,0.73905 -0.403635,1.10949 -0.126439,0.34563 -0.243583,0.69457 -0.372282,1.0394 -0.115636,0.31903 -0.236548,0.63623 -0.343961,0.95817 -0.104762,0.2968 -0.202467,0.59607 -0.303776,0.89406 -0.0974,0.28795 -0.187389,0.57845 -0.291766,0.864 -0.09546,0.2783 -0.195085,0.55507 -0.296642,0.8312 -0.08915,0.23524 -0.165619,0.47509 -0.257647,0.70928 -0.08193,0.21348 -0.170094,0.42445 -0.250778,0.63842 -0.08589,0.21097 -0.172818,0.42152 -0.269825,0.62768 -0.07713,0.1572 -0.15527,0.31444 -0.240616,0.46722 -0.09531,0.17899 -0.197203,0.35419 -0.309683,0.52305 -1.565488,2.34823 -4.886387,0.1343 -3.3209,-2.21393 z"
       inkscape:connector-curvature="0" />
    <path
       style="fill:#ffffff;fill-opacity:1;fill-rule:nonzero;stroke:none;stroke-width:0.26458332"
       id="path1017"
       d="m 39.039167,256.37576 c 0,0.12004 0,0.24008 0,0.36013 0,0.11161 0,0.22322 0,0.33483 0,0.10043 0,0.20085 0,0.30128 0,0.10255 0,0.2051 0,0.30765 0,0.11472 0,0.22944 0,0.34415 0,0.12901 0,0.25802 0,0.38703 0,0.14802 0,0.29604 0,0.44406 0,0.15809 0,0.31617 0,0.47426 0,0.15649 0,0.31298 0,0.46946 0,0.15126 0,0.30251 0,0.45377 0,0.13492 0,0.26983 0,0.40474 0,0.12442 0,0.24884 0,0.37326 0,0.1148 0,0.22959 0,0.34439 0,0.10826 0,0.21651 0,0.32477 0.0019,0.19579 -0.03325,0.38813 -0.05839,0.58132 -0.0096,0.0725 -0.0164,0.14523 -0.02278,0.21803 -0.007,0.0773 -0.01125,0.15482 -0.01558,0.23232 -0.0043,0.0819 -0.0074,0.16384 -0.0104,0.24579 -0.0028,0.0817 -0.0048,0.16334 -0.0066,0.24503 -0.0019,0.0824 -0.0031,0.16489 -0.0042,0.24734 -0.0011,0.0893 -0.0019,0.17859 -0.0026,0.26789 -7.94e-4,0.0929 -0.0011,0.1859 -0.0016,0.27885 -5.29e-4,0.098 -7.94e-4,0.19594 -0.0011,0.29391 -2.65e-4,0.10947 -5.29e-4,0.21894 -5.29e-4,0.3284 -1.64e-4,0.12181 -2.65e-4,0.24361 -2.65e-4,0.3654 -1.03e-4,0.13455 -1.67e-4,0.2691 -2.25e-4,0.40365 -6.1e-5,0.14687 -1e-4,0.29375 -1.37e-4,0.44063 -3.7e-5,0.15919 -6.1e-5,0.31838 -8.2e-5,0.47756 0.0052,0.22445 -0.0068,0.44829 -0.02717,0.67174 -0.01426,0.148 -0.02646,0.29618 -0.03697,0.44449 -0.0093,0.13957 -0.01659,0.27926 -0.02265,0.419 -0.0061,0.14196 -0.01061,0.28398 -0.0146,0.42602 -0.0016,0.20618 -0.03236,0.41025 -0.05748,0.6144 -0.01413,0.11074 -0.02408,0.22194 -0.03395,0.33312 -0.0088,0.10187 -0.01495,0.20392 -0.02061,0.306 -0.0054,0.10518 -0.0099,0.2104 -0.01355,0.31565 -5.3e-4,0.19267 -0.02768,0.38338 -0.05551,0.57354 -0.01339,0.0882 -0.02355,0.17683 -0.03193,0.26563 -0.0096,0.0975 -0.0155,0.19523 -0.02101,0.293 -0.0061,0.11532 -0.01066,0.23073 -0.01437,0.34616 -0.0021,0.20042 -0.03364,0.39855 -0.05902,0.59684 -0.01286,0.10666 -0.02297,0.2136 -0.03112,0.32071 -0.0093,0.12212 -0.01601,0.24441 -0.02193,0.36673 -0.006,0.12993 -0.01016,0.25992 -0.01405,0.38992 -0.0038,0.12915 -0.0064,0.25832 -0.0089,0.3875 -0.0024,0.12712 -0.004,0.25424 -0.0055,0.38137 -0.0013,0.12604 -0.0024,0.25209 -0.0034,0.37814 -7.93e-4,0.11847 -0.0016,0.23696 -0.0021,0.35543 -5.29e-4,0.11354 -0.0011,0.22707 -0.0013,0.3406 0.0035,0.20265 -0.02604,0.40333 -0.05483,0.60324 -0.0097,0.0728 -0.01871,0.14562 -0.02625,0.21865 -0.007,0.0688 -0.01204,0.13784 -0.01744,0.20682 -0.0034,0.0557 -0.0074,0.11137 -0.01005,0.16711 -0.0026,0.0553 -0.005,0.11053 -0.0074,0.1658 -0.0013,0.0428 -0.0027,0.0856 -0.004,0.12846 -0.0011,0.041 -0.0016,0.0821 -0.0026,0.12311 -7.94e-4,0.0332 -0.0013,0.0664 -0.0016,0.0996 -2.65e-4,0.0322 -7.94e-4,0.0643 -0.0011,0.0965 -2.25e-4,0.0203 -5.29e-4,0.0407 -7.94e-4,0.061 -1.74e-4,0.0192 -2.22e-4,0.0384 -2.64e-4,0.0576 -8.2e-5,0.0192 -1.64e-4,0.0384 -2.46e-4,0.0576 -5.6e-5,0.0237 -9.5e-5,0.0474 -1.35e-4,0.0712 -5.3e-5,0.0263 -6.9e-5,0.0526 -9e-5,0.0789 -1.9e-5,0.0237 -3.7e-5,0.0474 -5.6e-5,0.0711 -10e-6,0.0147 -2.1e-5,0.0293 -3.4e-5,0.0439 -5e-6,0.009 -1.3e-5,0.0178 -1.9e-5,0.0267 -0.0168,1.35658 -3.991109,1.27389 -3.991247,-0.0967 0.0092,0.3541 0.06261,0.48301 0.08726,0.56141 -0.984874,-2.6448 2.755437,-4.03762 3.740312,-1.39282 v 0 c 0.08095,0.24224 0.164084,0.5008 0.163652,0.83101 1.38e-4,1.3705 -3.976872,1.45054 -3.991202,0.0941 5e-6,-0.009 1.3e-5,-0.0178 1.8e-5,-0.0267 1.4e-5,-0.0147 2.4e-5,-0.0293 3.5e-5,-0.044 1.8e-5,-0.0238 3.7e-5,-0.0475 5.5e-5,-0.0713 2.4e-5,-0.0275 4e-5,-0.055 9.6e-5,-0.0824 4.4e-5,-0.0271 8.4e-5,-0.0542 1.64e-4,-0.0813 8.2e-5,-0.0194 1.66e-4,-0.0389 2.51e-4,-0.0583 1.24e-4,-0.028 2.14e-4,-0.0559 5.29e-4,-0.0839 2.25e-4,-0.0204 5.29e-4,-0.0408 7.94e-4,-0.0612 2.64e-4,-0.0335 7.94e-4,-0.067 0.0011,-0.10053 5.29e-4,-0.0429 0.0011,-0.0858 0.0021,-0.12868 0.0011,-0.0546 0.0021,-0.10925 0.0035,-0.16387 0.0019,-0.061 0.0035,-0.12209 0.006,-0.18312 0.0029,-0.0661 0.0057,-0.13214 0.0089,-0.1982 0.0048,-0.0909 0.01035,-0.18181 0.01688,-0.27263 0.0081,-0.10359 0.01603,-0.20722 0.02689,-0.31056 0.0131,-0.1248 0.02824,-0.24937 0.04549,-0.37366 0.0056,-0.0386 0.0045,-0.091 0.01812,-0.12765 0.0032,-0.009 -0.0016,0.0181 -0.0019,0.0272 -0.0011,0.0362 -0.0011,0.0724 -0.0024,0.10848 -7.94e-4,0.018 1.05e-4,-0.036 1.58e-4,-0.054 2.65e-4,-0.11568 7.94e-4,-0.23136 0.0013,-0.34704 5.29e-4,-0.12207 0.0013,-0.24415 0.0021,-0.36622 0.0011,-0.13209 0.0021,-0.26419 0.0036,-0.39628 0.0016,-0.13664 0.0034,-0.27328 0.006,-0.40991 0.0028,-0.14379 0.0058,-0.28757 0.01,-0.43133 0.0047,-0.155 0.0098,-0.31001 0.01701,-0.46492 0.0079,-0.16065 0.01685,-0.32126 0.02921,-0.48163 0.01373,-0.17411 0.03005,-0.34802 0.05185,-0.52132 0.02627,-0.20282 0.02784,-0.17946 0.02835,-0.21559 0.0048,-0.14789 0.01064,-0.29574 0.01871,-0.44349 0.0086,-0.15133 0.01855,-0.3026 0.03339,-0.45346 0.01511,-0.15295 0.03237,-0.3057 0.05535,-0.4577 0.04183,-0.28483 -0.006,0.21105 0.01574,-0.13441 0.0047,-0.13279 0.01027,-0.26555 0.0173,-0.39823 0.0082,-0.14601 0.01738,-0.29196 0.03015,-0.43764 0.01397,-0.15653 0.02864,-0.31301 0.0484,-0.46894 0.02109,-0.16986 0.03006,-0.19644 0.02889,-0.23723 0.0046,-0.1624 0.0098,-0.32477 0.0168,-0.48708 0.0078,-0.17653 0.01691,-0.353 0.02898,-0.52929 0.01262,-0.17599 0.02684,-0.35185 0.04376,-0.52748 0.01021,-0.10757 0.0141,-0.14103 0.01027,-0.30522 2.4e-5,-0.15933 4.8e-5,-0.31866 8.5e-5,-0.47799 3.4e-5,-0.14713 7.7e-5,-0.29425 1.35e-4,-0.44138 6.1e-5,-0.13504 1.24e-4,-0.27007 2.27e-4,-0.4051 9.8e-5,-0.12257 2.09e-4,-0.24513 2.65e-4,-0.3677 1.53e-4,-0.11116 2.65e-4,-0.22232 5.29e-4,-0.33348 2.65e-4,-0.1008 5.29e-4,-0.20161 0.0011,-0.30241 5.3e-4,-0.0968 0.0011,-0.19366 0.0016,-0.29048 7.94e-4,-0.0963 0.0016,-0.19263 0.0029,-0.28893 0.0013,-0.0958 0.0028,-0.19166 0.0049,-0.28747 0.0024,-0.0994 0.0048,-0.1987 0.0082,-0.29802 0.0039,-0.10841 0.0082,-0.21681 0.01408,-0.32514 0.0067,-0.11949 0.01386,-0.23898 0.02466,-0.3582 0.0118,-0.1332 0.02508,-0.26631 0.04286,-0.39887 0.0044,-0.0324 0.0041,-0.16943 0.02778,-0.19751 0.03164,-0.0375 -0.137655,0.41863 -0.0048,0.14711 0,-0.10826 0,-0.21651 0,-0.32477 0,-0.1148 0,-0.22959 0,-0.34439 0,-0.12442 0,-0.24884 0,-0.37326 0,-0.13491 0,-0.26982 0,-0.40474 0,-0.15126 0,-0.30251 0,-0.45377 0,-0.15648 0,-0.31297 0,-0.46946 0,-0.15809 0,-0.31617 0,-0.47426 0,-0.14802 0,-0.29604 0,-0.44406 0,-0.12901 0,-0.25802 0,-0.38703 0,-0.11471 0,-0.22943 0,-0.34415 0,-0.10255 0,-0.2051 0,-0.30765 0,-0.10043 0,-0.20085 0,-0.30128 0,-0.11161 0,-0.22322 0,-0.33483 0,-0.12005 0,-0.24009 0,-0.36013 0,-2.82222 3.991223,-2.82222 3.991223,0 z"
       inkscape:connector-curvature="0" />
    <path
       style="fill:#ffffff;fill-opacity:1;fill-rule:nonzero;stroke:none;stroke-width:0.26458332"
       id="path1021"
       d="m 35.904625,260.39349 c 0.106272,-0.11097 0.222797,-0.21109 0.34082,-0.30919 0.0149,-0.0124 -0.02986,0.0247 -0.04479,0.037 0.198388,-0.18178 0.164759,-0.14811 0.251378,-0.22698 0.193988,-0.16386 -0.0019,-0.003 0.22864,-0.20512 -0.276611,0.26005 0.265941,-0.26728 0.02951,-0.0356 0.108892,-0.11086 0.0937,-0.0987 0.19019,-0.18733 0.01815,-0.0167 0.07228,-0.0669 0.05504,-0.0493 -0.0235,0.024 -0.0952,0.0943 -0.07379,0.0685 0.01961,-0.0237 0.116848,-0.11227 0.148604,-0.14154 0.163629,-0.15889 0.04462,0.01 -0.0066,0.01 -0.04028,5e-5 0.05696,-0.057 0.0859,-0.085 0.03133,-0.0303 0.06942,-0.0648 0.10214,-0.0946 0.01201,-0.0108 0.04755,-0.0439 0.03606,-0.0325 -0.239186,0.23687 0.07243,-0.0733 0.128944,-0.12487 0.432605,-0.36145 -0.176662,0.14793 0.274643,-0.23492 0.03105,-0.0233 0.117763,-0.0999 0.09315,-0.0698 -0.02611,0.0318 -0.06557,0.0499 -0.0978,0.0755 -0.01119,0.009 -0.04334,0.0374 -0.03248,0.0281 0.08374,-0.0719 0.166476,-0.14116 0.254585,-0.2073 0.07669,-0.0557 0.04843,-0.0348 0.111736,-0.0853 0.0891,-0.0736 0.185618,-0.13733 0.283903,-0.19768 0.02119,-0.013 0.08484,-0.0519 0.06429,-0.0379 -0.410871,0.28029 -0.109595,0.0672 -0.08868,0.0523 0.06333,-0.0542 0.506519,-0.31384 0.202013,-0.13277 -0.160563,0.0993 0.241921,-0.16017 0.276555,-0.1802 0.01492,-0.008 0.02953,-0.0172 0.04474,-0.025 0.537239,-0.27501 -0.345715,0.21457 0.111982,-0.0655 0.05726,-0.0348 0.280424,-0.14709 0.118076,-0.0644 0.07186,-0.051 0.633031,-0.34018 0.160102,-0.0855 0.128497,-0.0827 0.262313,-0.15627 0.400031,-0.22248 0.264967,-0.18672 -0.283662,0.16216 -0.215053,0.11775 0.08676,-0.0562 0.175125,-0.10832 0.265324,-0.15858 0.01566,-0.0404 0.789911,-0.32599 0.329827,-0.15031 -0.223491,0.1017 0.176152,-0.0845 0.216191,-0.1018 0.129492,-0.0504 0.110913,-0.0453 0.218982,-0.0815 0.01897,-0.006 0.07567,-0.0259 0.05712,-0.0184 -0.377402,0.15195 -0.236519,0.0927 -0.155165,0.0541 0.161557,-0.0787 0.331274,-0.13805 0.503317,-0.18893 0.268327,-0.16249 -0.303469,0.12721 -0.233053,0.0841 0.08884,-0.0544 0.211013,-0.091 0.306538,-0.12798 0.09731,-0.0293 0.322064,-0.11576 0.05792,-0.0174 0.154776,-0.0702 0.314536,-0.12811 0.476901,-0.17793 0.121581,-0.0375 0.24567,-0.0656 0.37016,-0.0915 0.299447,-0.0537 0.222803,-0.0395 -0.04228,0.0175 0.126883,-0.0472 0.257836,-0.0813 0.389101,-0.11364 0.13421,-0.0316 0.270431,-0.053 0.40694,-0.0716 0.341903,-0.0632 -0.315873,0.0805 -0.02962,0.002 0.135687,-0.0374 0.273656,-0.0652 0.412092,-0.0901 -0.173178,0.0286 0.353343,-0.062 0.19549,-0.0295 -0.06981,0.0144 -0.138917,0.0449 -0.210027,0.0401 -0.01762,-10e-4 0.03399,-0.01 0.05098,-0.0145 0.132569,-0.0395 0.267475,-0.07 0.402892,-0.0978 0.130971,-0.0261 0.263226,-0.0448 0.395716,-0.0612 0.120023,-0.0142 0.240527,-0.0238 0.361074,-0.0323 0.111006,-0.008 0.222184,-0.0129 0.333378,-0.0172 0.106402,-0.004 0.212846,-0.007 0.319296,-0.009 0.349951,-0.0235 -0.239477,0.037 0.03287,-0.007 0.187217,-0.0357 0.376063,-0.0486 0.565971,-0.0612 0.0847,0.0165 0.659101,-8.5e-4 0.191177,0.0106 0.662964,-0.0291 -0.184211,-0.003 0.434949,-0.0204 0.136953,0.003 0.273245,0.0171 0.409535,0.0297 0.0554,0.005 0.110826,0.009 0.166306,0.0118 0.05852,0.004 0.117097,0.006 0.17567,0.008 0.183423,10e-4 0.364988,0.0257 0.544965,0.0596 0.0709,0.0175 0.142254,0.0331 0.213567,0.0488 -0.09798,-0.0241 0.247864,0.0499 0.27545,0.0556 0.151865,0.0454 0.183605,0.0592 0.256468,0.0815 -0.21055,-0.0674 0.264123,0.0826 0.352666,0.11832 0.08349,0.0348 0.169595,0.0684 0.01754,0.009 0.145341,0.0549 0.287776,0.1176 0.428352,0.18378 0.0067,0.003 0.02698,0.0124 0.02016,0.009 -0.204377,-0.0884 -0.03911,-0.0215 0.12577,0.0599 0.08028,0.0396 0.156626,0.0886 0.232257,0.13646 0.01198,0.008 0.04828,0.0304 0.03596,0.0232 -0.419825,-0.24527 0.161009,0.0996 0.262011,0.17651 0.01569,0.0125 0.06337,0.0492 0.04705,0.0375 -0.04174,-0.0298 -0.08168,-0.062 -0.123315,-0.0919 -0.01535,-0.011 -0.06296,-0.0417 -0.04752,-0.0308 0.230605,0.16238 0.145356,0.0909 0.307744,0.22577 0.02609,0.0217 -0.05267,-0.0428 -0.079,-0.0642 -0.164441,-0.14014 0.533514,0.432 0.180833,0.14126 0.126227,0.10254 0.172085,0.13924 0.275235,0.24315 0.03208,0.0323 -0.132977,-0.12449 -0.09932,-0.0938 0.04916,0.0448 0.09855,0.0893 0.14783,0.13399 0.02668,0.0272 0.05368,0.0542 0.08004,0.0818 0.21703,0.22679 -0.376926,-0.36797 0.05892,0.054 0.02609,0.0253 0.0504,0.0523 0.0756,0.0785 0.05633,0.0616 0.111753,0.12402 0.167688,0.18598 -0.170736,-0.20249 0.276834,0.32865 0.198501,0.25479 -0.03097,-0.0292 -0.05015,-0.0688 -0.07598,-0.10262 -0.105603,-0.13828 0.118618,0.14814 0.13103,0.16449 0.05372,0.0757 0.05771,0.0801 0.106566,0.14302 0.100171,0.14164 0.08996,0.12146 0.164438,0.24261 0.01275,0.0207 0.05094,0.0829 0.03725,0.0628 -0.199826,-0.29344 -0.0527,-0.088 -0.0067,-0.0206 0.05167,0.073 0.09526,0.15089 0.142192,0.227 0.02389,0.0388 -0.09669,-0.15425 -0.0713,-0.11647 0.02604,0.0387 0.05192,0.0775 0.07788,0.11631 0.03916,0.0607 0.316823,0.53559 0.112604,0.19176 0.02484,0.0237 0.338339,0.60658 0.148614,0.26148 0.07147,0.11607 0.130178,0.23876 0.189048,0.36144 0.01349,0.0281 -0.03177,-0.0544 -0.04023,-0.0845 -0.0069,-0.0245 0.02365,0.0451 0.03547,0.0676 0.05036,0.0911 0.138083,0.28817 0.143624,0.29891 0.01371,0.0205 0.101121,0.21746 0.100134,0.21565 -0.113697,-0.20749 -0.01342,-0.0372 0.0093,0.006 0.0077,0.0148 0.01572,0.0295 0.0231,0.0445 0.06235,0.12667 0.104556,0.22002 0.09608,0.20562 -0.119448,-0.20293 -0.0141,-0.0381 0.0097,0.007 0.01921,0.0134 0.181464,0.40397 0.133781,0.28163 0.08083,0.15418 0.146989,0.31529 0.206343,0.47875 0.06114,0.16948 -0.02238,-0.0508 -0.03174,-0.0769 -0.0041,-0.0114 0.01011,0.022 0.01519,0.033 0.01654,0.0358 0.03314,0.0716 0.04975,0.10731 0.07761,0.16871 0.136811,0.3447 0.187659,0.52305 -0.08697,-0.26437 0.02701,0.0489 0.0515,0.11865 0.02066,0.0768 0.193643,0.60228 0.05481,0.18389 0.05224,0.13671 0.09624,0.27623 0.135829,0.41707 -0.08789,-0.28494 0.06644,0.17756 0.07597,0.20727 0.0075,0.0255 0.01545,0.0508 0.02252,0.0764 0.01042,0.0376 0.02035,0.0754 0.02997,0.1132 0.0066,0.0261 0.02689,0.10436 0.01886,0.0786 -0.07395,-0.23728 -0.02897,-0.11205 -0.01193,-0.0636 0.0589,0.16905 0.104828,0.34198 0.144659,0.51637 0.0053,0.0255 0.02281,0.10143 0.0159,0.0764 -0.07481,-0.27062 0.02059,0.0379 0.03808,0.0992 0.04544,0.15541 0.07808,0.31402 0.107712,0.47306 0.0414,0.23236 -0.0041,-0.0127 -0.0052,-0.0193 -0.003,-0.0176 0.0096,0.0343 0.01442,0.0514 0.02119,0.0758 0.004,0.0125 0.03512,0.13099 0.03811,0.14543 0.06743,0.29288 0.09369,0.44083 0.0226,0.13018 0.03925,0.26127 0.05392,0.39254 0.01246,0.11405 0.02151,0.22843 0.02943,0.34288 0.007,0.10274 0.01199,0.2056 0.01635,0.30849 0.004,0.0953 0.0068,0.19074 0.0093,0.28614 0.0024,0.0907 0.004,0.18135 0.0054,0.27203 0.0013,0.0878 0.0024,0.17552 0.0032,0.26328 7.94e-4,0.086 0.0013,0.17192 0.0019,0.25788 5.29e-4,0.0831 7.94e-4,0.16614 0.0011,0.24921 2.65e-4,0.0796 5.3e-4,0.15918 7.94e-4,0.23877 1.7e-4,0.0783 2.65e-4,0.15651 5.29e-4,0.23476 1.06e-4,0.0752 1.83e-4,0.15046 2.52e-4,0.22569 6.6e-5,0.0751 1.14e-4,0.15029 1.51e-4,0.22544 3.9e-5,0.0741 6.8e-5,0.14816 9.2e-5,0.22224 2.7e-5,0.0802 4.3e-5,0.1605 5.6e-5,0.24076 1.6e-5,0.0828 2.6e-5,0.16561 3.4e-5,0.24842 1.1e-5,0.0877 1.6e-5,0.17532 2.1e-5,0.26298 0.0061,0.20674 -0.02066,0.41185 -0.05549,0.61502 -0.0078,0.05 -0.01614,0.1 -0.0209,0.15042 -0.0068,0.0638 -0.01212,0.12779 -0.01635,0.19182 -0.0048,0.071 -0.0085,0.14207 -0.01151,0.21316 -0.0033,0.0792 -0.0055,0.15841 -0.0075,0.23763 -0.0021,0.0806 -0.0036,0.16121 -0.0049,0.24182 -0.0013,0.0776 -0.0024,0.15529 -0.003,0.23295 -7.94e-4,0.0796 -0.0013,0.15925 -0.0019,0.23889 -5.29e-4,0.0831 -7.94e-4,0.16623 -0.0011,0.24935 -2.64e-4,0.0889 -5.29e-4,0.17779 -7.93e-4,0.26668 -1.91e-4,0.0935 -2.65e-4,0.18695 -5.29e-4,0.28042 -1.22e-4,0.0997 -1.99e-4,0.19931 -2.65e-4,0.29897 -6.9e-5,0.1028 -1.19e-4,0.2056 -1.61e-4,0.3084 -4.5e-5,0.10105 -7.2e-5,0.2021 -9.8e-5,0.30315 -2.7e-5,0.0994 -4.3e-5,0.1988 -6.1e-5,0.2982 -1.3e-5,0.0908 -2.7e-5,0.18151 -3.5e-5,0.27227 -1e-5,0.0805 -1.5e-5,0.16106 -2.3e-5,0.24159 -6e-6,0.0739 -8e-6,0.14783 -1.4e-5,0.22175 -2e-6,0.0674 -5e-6,0.13474 -8e-6,0.20212 0,0.0614 -2e-6,0.12286 -5e-6,0.18429 0,0.0572 0,0.11438 -3e-6,0.17156 0,0.0543 0,0.10854 0,0.1628 -2e-6,0.0522 -2e-6,0.10442 -2e-6,0.15662 0,0.0507 0,0.10141 0,0.15212 0,0.0511 0,0.10217 0,0.15326 0,0.0509 0,0.1018 0,0.1527 0,0.0505 0,0.1009 0,0.15135 0,0.0473 0,0.0947 0,0.14207 0,0.0389 0,0.0777 0,0.11662 0.01857,0.49494 -0.163542,0.9067 -0.434155,1.29103 -0.427368,0.56718 -1.237819,0.85898 -1.9373,0.7688 0.01291,0.002 0.05132,0.008 0.03869,0.005 -0.456258,-0.11099 -0.368493,-0.056 -0.68239,-0.19831 -0.05802,-0.0263 -0.225814,-0.11803 -0.168669,-0.0899 0.05168,0.0255 0.102161,0.0533 0.153239,0.0799 0.06167,0.0297 0.122478,0.0486 0.187994,0.0715 -2.702925,-0.81187 -1.554766,-4.63438 1.148159,-3.82251 v 0 c 0.106567,0.0358 0.213099,0.069 0.314863,0.11723 0.460592,0.23414 -0.01426,-0.008 -0.08525,-0.0274 -0.14541,-0.0402 -0.295082,-0.0631 -0.441616,-0.099 -0.02339,-0.006 0.04785,0.006 0.07177,0.008 -0.639807,-0.0773 -1.369427,0.23658 -1.759735,0.74839 -0.306684,0.44131 -0.284388,0.60064 -0.39683,1.18727 -0.0026,0.0133 0.0031,-0.0537 0,-0.0405 0,-0.0389 0,-0.0777 0,-0.11662 0,-0.0474 0,-0.0947 0,-0.14207 0,-0.0505 0,-0.1009 0,-0.15135 0,-0.0509 0,-0.10181 0,-0.15271 0,-0.0511 0,-0.10218 0,-0.15327 0,-0.0507 2e-6,-0.10141 2e-6,-0.15212 0,-0.0522 0,-0.10442 0,-0.15663 0,-0.0543 0,-0.10855 3e-6,-0.16282 0,-0.0572 0,-0.11439 2e-6,-0.17159 0,-0.0615 3e-6,-0.1229 6e-6,-0.18435 2e-6,-0.0674 5e-6,-0.13479 8e-6,-0.20218 2e-6,-0.074 8e-6,-0.1479 1.3e-5,-0.22185 5e-6,-0.0806 1.3e-5,-0.16116 2.1e-5,-0.24173 1.1e-5,-0.0908 2.1e-5,-0.18168 3.7e-5,-0.27252 1.6e-5,-0.0995 3.5e-5,-0.19905 5.8e-5,-0.29857 2.9e-5,-0.10126 5.6e-5,-0.20251 1.01e-4,-0.30376 4.2e-5,-0.10314 9e-5,-0.20628 1.61e-4,-0.30942 6.6e-5,-0.1004 1.46e-4,-0.2008 2.65e-4,-0.3012 1.16e-4,-0.0947 2.49e-4,-0.18945 5.29e-4,-0.28417 1.98e-4,-0.0908 2.65e-4,-0.18157 7.94e-4,-0.27236 2.64e-4,-0.0866 7.94e-4,-0.17327 0.0013,-0.2599 5.29e-4,-0.0851 0.0011,-0.17013 0.0021,-0.2552 7.94e-4,-0.0864 0.0019,-0.17285 0.0034,-0.25927 0.0016,-0.0924 0.0034,-0.18471 0.0057,-0.27704 0.0026,-0.10273 0.0056,-0.20546 0.01,-0.30814 0.0047,-0.1056 0.01003,-0.21117 0.01736,-0.31663 0.0084,-0.11869 0.01802,-0.23732 0.03114,-0.3556 0.01495,-0.1307 0.0326,-0.26106 0.05501,-0.39071 0.02588,-0.1456 -0.0168,0.36752 -0.003,0.066 -6e-6,-0.0876 -1.1e-5,-0.1752 -1.9e-5,-0.2628 -10e-6,-0.0827 -2.1e-5,-0.16543 -3.4e-5,-0.24814 -1.6e-5,-0.08 -3.2e-5,-0.16006 -5.6e-5,-0.24009 -2.6e-5,-0.0738 -5.3e-5,-0.1477 -9.2e-5,-0.22154 -4e-5,-0.0747 -8.5e-5,-0.1493 -1.51e-4,-0.22395 -6.6e-5,-0.0745 -1.43e-4,-0.149 -2.49e-4,-0.22351 -1.11e-4,-0.077 -2.43e-4,-0.15403 -5.29e-4,-0.23105 -1.83e-4,-0.0775 -2.65e-4,-0.15502 -7.94e-4,-0.23253 -2.64e-4,-0.0806 -5.29e-4,-0.16123 -0.0011,-0.24184 -5.29e-4,-0.081 -0.0011,-0.16203 -0.0019,-0.24304 -7.94e-4,-0.0796 -0.0016,-0.15931 -0.0029,-0.23896 -0.0013,-0.0774 -0.0026,-0.1549 -0.0046,-0.23235 -0.0019,-0.0739 -0.0041,-0.14788 -0.0071,-0.22179 -0.0028,-0.0685 -0.0062,-0.13691 -0.01069,-0.20529 -0.0039,-0.0603 -0.0088,-0.12047 -0.01511,-0.18053 -0.0047,-0.0491 -0.01154,-0.098 -0.01939,-0.14671 -0.0075,-0.0419 -0.01442,-0.083 -0.0258,-0.12413 -0.03833,-0.14206 -0.08012,-0.28365 -0.103183,-0.42934 -0.0088,-0.0478 -0.01109,-0.0717 -0.02312,-0.11175 -0.03778,-0.13536 -0.08852,-0.26736 -0.112136,-0.40662 -0.0044,-0.0186 -0.0083,-0.0374 -0.01381,-0.0557 -0.03349,-0.0958 -0.107691,-0.34202 -0.105339,-0.3439 0.0026,0.007 0.0098,0.0275 0.0076,0.0206 -0.03469,-0.11223 -0.08815,-0.21803 -0.114562,-0.33312 -0.01273,-0.0462 0.0057,0.008 -0.02363,-0.0757 -0.01939,-0.0534 -0.153895,-0.46316 -0.08133,-0.25511 0.0032,0.009 -0.0063,-0.0182 -0.0094,-0.0273 -0.01873,-0.0541 -0.09215,-0.23006 -0.124503,-0.34976 -0.0098,-0.0357 0.01955,0.0543 0.03298,0.0718 -0.06143,-0.13229 -0.125,-0.26412 -0.172091,-0.40245 0.05477,0.12113 -0.02513,-0.0542 0.01802,0.0332 -0.01032,-0.0201 -0.02064,-0.0401 -0.03095,-0.0602 -0.05332,-0.10727 -0.03759,-0.0736 -0.09685,-0.20418 -0.0033,-0.007 -0.01249,-0.029 -0.0087,-0.022 0.0066,0.012 0.02453,0.0488 0.01902,0.0363 -0.0058,-0.0132 -0.01336,-0.0257 -0.02003,-0.0385 -0.05874,-0.11259 -0.134144,-0.26834 -0.130072,-0.25984 -0.06066,-0.11646 -0.124523,-0.24923 -0.151918,-0.30596 -0.07336,-0.1506 -0.07405,-0.16575 -0.100777,-0.21429 -0.13439,-0.26542 -0.091,-0.17197 -0.05685,-0.11839 -0.0819,-0.13825 -0.21177,-0.37554 -0.08724,-0.16361 -0.02791,-0.0442 -0.239585,-0.42017 -0.105579,-0.17714 0.0046,0.008 -0.02927,-0.0493 -0.01257,-0.0232 0.145124,0.20604 -0.272896,-0.43542 -0.06526,-0.10094 0.0093,0.0149 -0.03628,-0.0555 -0.02928,-0.0439 -0.130397,-0.19546 -0.195747,-0.2881 -0.04637,-0.0802 -0.05263,-0.0679 -0.105568,-0.13559 -0.154551,-0.20613 0.02217,0.0274 0.09208,0.10685 0.06871,0.0804 -0.112461,-0.12711 -0.06649,-0.0762 -0.198858,-0.2466 -0.03705,-0.0477 0.278283,0.36755 0.115025,0.14001 -0.03326,-0.0368 -0.09296,-0.10219 -0.113364,-0.12701 0.0089,0.009 0.01754,0.0181 0.0268,0.0266 0.304583,0.27945 -0.305054,-0.28424 -0.111609,-0.10901 0.334346,0.29176 -0.284078,-0.24302 -0.05878,-0.0529 0.0432,0.0365 0.08873,0.0701 0.131863,0.10667 0.01656,0.014 -0.03473,-0.026 -0.0521,-0.0391 -0.02529,-0.0199 -0.05121,-0.039 -0.07588,-0.0596 -0.422336,-0.35323 0.36576,0.27468 -0.04823,-0.0388 -0.43494,-0.34109 0.34231,0.23185 -0.01273,-0.0124 -0.0561,-0.0386 -0.231262,-0.1681 -0.165608,-0.11962 0.08942,0.0655 0.179652,0.10756 0.276585,0.16615 0.08785,0.0531 -0.362898,-0.19129 -0.268788,-0.1503 0.132797,0.0745 0.437991,0.19701 0.06282,0.0376 -0.04545,-0.0215 -0.09107,-0.0428 -0.135823,-0.0657 -0.0304,-0.0156 -0.124312,-0.0538 -0.09075,-0.0475 0.114589,0.0215 0.185637,0.17367 0.323347,0.1333 -0.114466,-0.0358 -0.227689,-0.0753 -0.337902,-0.12274 -0.09106,-0.0372 -0.06215,-0.0256 0.208823,0.0585 0.01664,0.005 -0.03398,-0.008 -0.05092,-0.0118 -0.09093,-0.0218 -0.07519,-0.0186 -0.183462,-0.0487 -0.06907,-0.0213 -0.409151,-0.13002 -0.114538,-0.0408 0.483659,0.0926 -0.0053,0.006 -0.104537,-0.014 -0.02154,-0.005 -0.289586,-0.0643 -0.187155,-0.0431 0.194016,0.0326 0.468672,0.0359 0.120639,0.0247 -0.08224,-0.003 -0.164478,-0.007 -0.246634,-0.0121 -0.09902,-0.006 -0.197977,-0.013 -0.296801,-0.0217 -0.03365,-0.003 -0.240438,-0.0193 -0.09278,-0.0131 0.05077,-0.003 0.101481,-0.008 0.152318,-0.008 0.08109,-2.6e-4 -0.319654,0.0396 -0.242914,0.0134 0.268748,-0.0918 0.166484,0.0212 -0.0016,0.004 -0.04091,0.002 -0.603752,0.009 -0.392607,-10e-4 0.357849,-0.0329 0.05313,-0.005 -0.02402,0.0119 -0.189624,0.0303 -0.380146,0.0584 -0.572823,0.056 -0.08623,0.002 -0.172466,0.004 -0.258659,0.007 -0.06979,0.003 -0.139568,0.006 -0.209233,0.0105 -0.05417,0.004 -0.10836,0.008 -0.162346,0.0134 -0.03606,0.004 -0.06308,0.007 -0.09732,0.0139 -0.0088,0.002 -0.03124,0.004 -0.08635,0.0217 -0.146762,0.0415 -0.294902,0.0786 -0.446535,0.0973 -0.02339,0.004 -0.0079,-10e-4 -0.06059,0.0129 -0.159192,0.0441 -0.320119,0.0847 -0.485338,0.0996 -0.04198,0.005 0.0046,-0.002 -0.02104,0.002 0.03762,-0.0102 0.148926,-0.0487 -0.0016,0.003 -0.09214,0.0312 -0.524108,0.14296 -0.438685,0.11383 -0.09274,0.0191 0.04946,-0.0144 -0.0307,0.006 0.159843,-0.059 -0.06556,0.0267 0.05108,-0.0224 -0.09697,0.0444 -0.297725,0.13045 -0.359965,0.14249 0.01815,-0.007 0.03624,-0.0151 0.05441,-0.0225 0.0122,-0.005 -0.0236,0.0122 -0.03639,0.0153 -0.12437,0.0299 -0.230425,0.12808 -0.35792,0.13831 0.0011,-2.7e-4 0.195956,-0.0758 0.09827,-0.0389 -0.106508,0.0505 -0.517085,0.21256 -0.252746,0.10544 -0.06422,0.0274 0.0398,-0.0189 0.04336,-0.0254 -0.08115,0.0448 -0.09663,0.0506 -0.190642,0.0967 -0.42172,0.1697 -0.140343,0.0668 -0.0366,0.003 -0.04798,0.0266 -0.01257,0.006 0.0274,-0.0211 -0.204785,0.13013 -0.03689,0.032 -0.328694,0.19016 0.09181,-0.0467 0.18941,-0.10863 0.05205,-0.0254 -0.0825,0.0461 -0.164994,0.0923 -0.247491,0.13842 -0.04089,0.0189 0.189021,-0.11298 0.05925,-0.0352 -0.03058,0.019 -0.310335,0.1844 -0.233378,0.13366 0.313029,-0.19952 -0.575276,0.34529 -0.175366,0.10128 0.304062,-0.19494 0.07053,-0.058 -0.04077,0.0345 -0.506264,0.3133 0.123087,-0.0798 -0.126891,0.0814 0.08378,-0.0635 0.02614,-0.0193 -0.196871,0.13018 -0.01717,0.0115 0.03516,-0.0218 0.05191,-0.0339 0.08103,-0.0586 0.155733,-0.1188 0.08288,-0.0606 -0.07062,0.0563 -0.141364,0.11242 -0.214945,0.16478 0.288245,-0.25293 -0.298386,0.25726 -0.123282,0.10122 0.347853,-0.30668 -0.433282,0.38612 -0.06438,0.0562 -0.04067,0.037 -0.02653,0.017 -0.167444,0.15958 -0.0099,0.009 -0.04889,0.0445 0.0081,-0.0115 -0.06126,0.0589 -0.11901,0.12071 -0.183513,0.17581 0.09247,-0.10111 -0.24807,0.24619 -0.06065,0.0499 -0.245952,0.26548 -0.100092,0.0959 -0.349467,0.3496 -0.05295,0.0462 -0.119386,0.1108 -0.197615,0.17762 -0.210529,0.18927 -0.05396,0.0424 -0.204232,0.18409 -0.332645,0.29598 0.03235,-0.0388 -0.183314,0.16376 -1.995612,1.99562 -4.817835,-0.8266 -2.82222,-2.82222 z"
       inkscape:connector-curvature="0" />
    <path
       style="fill:#ffffff;fill-opacity:1;fill-rule:nonzero;stroke:none;stroke-width:0.26458332"
       id="path1023"
       d="m 60.57389,277.97415 c -0.03748,0.0186 -0.290195,0.20375 -0.103309,0.0671 0.176115,-0.1379 0.211931,-0.20487 0.332198,-0.37616 0.229287,-0.37167 0.251666,-0.7625 0.229629,-1.19788 -0.06745,-0.47274 -0.322279,-0.91009 -0.688208,-1.21349 -0.350078,-0.28832 -0.600911,-0.29935 -1.04897,-0.3932 -0.393882,-0.01 -0.463063,0.0414 -0.861901,0.17348 -0.689351,0.40537 0.707803,-0.43205 -0.227261,0.14279 -0.314894,0.22307 -0.452435,0.52085 -0.613265,0.86397 -0.124573,0.37651 -0.108574,0.73528 -0.0094,1.12071 0.104169,0.38004 0.356336,0.64214 0.637342,0.89337 0.269798,0.1917 -0.0724,-0.0569 -0.109964,-0.0834 -0.02339,-0.0165 0.04369,0.0372 0.0676,0.053 0.119555,0.0788 0.082,0.0564 0.158165,0.0998 0.06268,0.0326 0.128347,0.0594 0.194448,0.0843 0.0623,0.015 0.0075,0.005 -0.01331,0.002 -0.03904,-0.006 -0.08275,-0.0104 -0.127301,-0.0155 -0.03614,-0.004 -0.07454,-0.007 -0.114062,-0.0101 0.01712,-2.6e-4 -0.06126,-0.003 -0.04591,-0.004 0.284186,-0.007 0.519004,-0.008 0.784555,-0.10015 0.0088,-0.004 0.01786,-0.007 0.02679,-0.01 0.377455,-0.4346 0.754907,-0.86919 1.132358,-1.30379 0.109625,-0.39199 0.03183,-0.65592 -0.03965,-1.06748 -0.0285,-0.0705 -0.05509,-0.14181 -0.08551,-0.21151 -0.01328,-0.0304 -0.02992,-0.0593 -0.04548,-0.0886 -0.007,-0.0132 -0.02888,-0.0522 -0.02215,-0.0389 0.04537,0.0894 0.357717,0.71983 0.0034,0.0158 -0.123635,-0.20211 -0.294233,-0.37136 -0.487095,-0.50799 -0.12118,-0.0897 -0.254834,-0.14335 -0.394095,-0.19291 0.245531,0.0951 0.214294,0.0735 0.396052,0.16799 0.04303,0.0224 0.169548,0.0942 0.12658,0.0718 -0.212241,-0.11113 -0.03965,-0.0263 -0.142846,-0.0766 -0.174228,-0.0953 -0.478761,-0.15127 -0.652489,-0.16423 0.03411,4e-5 0.06821,-1.2e-4 0.102314,-2.3e-4 0.03877,-1.1e-4 0.07754,-2.2e-4 0.116308,-2.6e-4 0.954334,-0.003 0.02935,0.015 -1.936027,1.92623 0.0113,0.1353 0.0055,0.27312 0.03389,0.4059 0.09666,0.45242 0.363186,0.96134 0.776092,1.20761 0.152321,0.0908 0.314021,0.16495 0.471032,0.24743 0.11796,0.0436 0.237554,0.072 0.361715,0.0885 -0.202917,-0.005 -0.470429,-0.0974 -0.68068,-0.18897 -0.0081,-0.004 -0.03266,-0.0131 -0.02421,-0.0106 0.570561,0.16547 0.615773,0.19075 1.145421,0.11882 -2.746642,0.64876 -3.66413,-3.23558 -0.917485,-3.88434 v 0 c 0.482844,-0.072 0.927939,-0.10873 1.393672,0.11854 0.02936,0.0132 -0.0068,-0.004 -0.0214,-0.008 -0.845241,-0.20554 -0.634188,-0.12727 -0.440174,-0.11087 0.180496,0.0221 0.357772,0.058 0.5295,0.11942 0.164309,0.0851 0.333629,0.16114 0.492929,0.25527 0.43743,0.2585 0.723472,0.79302 0.828649,1.27103 0.03198,0.14537 0.02771,0.29641 0.04156,0.44461 -1.795219,1.8025 -1.056743,1.98947 -2.043803,1.99041 -0.03816,10e-5 -0.07632,2e-4 -0.114477,2.6e-4 -0.04792,1.5e-4 -0.09583,2.7e-4 -0.143751,1.5e-4 -0.331602,-0.003 -0.655555,-0.0518 -0.961972,-0.1897 -0.02903,-0.0135 -0.05855,-0.0261 -0.08709,-0.0406 -0.427363,-0.21779 0.146725,0.0713 0.175988,0.0547 -0.227783,-0.0777 -0.452131,-0.164 -0.650859,-0.30445 -0.266769,-0.18417 -0.501314,-0.41152 -0.673725,-0.68722 -0.380545,-0.73622 -0.109172,-0.20987 -0.04992,-0.0917 0.03111,0.062 -0.07106,-0.11956 -0.09953,-0.18284 -0.03566,-0.0793 -0.06648,-0.16063 -0.09973,-0.24095 -0.09004,-0.49558 -0.165312,-0.75385 -0.04197,-1.22709 0.835554,-0.98459 0.645409,-1.16238 1.301893,-1.41271 0.316537,-0.11293 0.647891,-0.17481 0.986832,-0.13639 0.08143,0.007 0.162899,0.0132 0.244052,0.0229 0.09928,0.0114 0.198615,0.0228 0.297294,0.0387 0.150281,0.024 0.30004,0.0518 0.447072,0.0916 0.207343,0.0577 0.41163,0.12783 0.6018,0.23011 0.115493,0.0627 0.229518,0.12812 0.335153,0.20673 0.03508,0.0261 0.141314,0.10284 0.104251,0.0796 -0.05942,-0.0372 -0.11797,-0.0765 -0.171485,-0.12173 -0.04322,-0.0366 0.09365,0.0637 0.140478,0.0955 0.347377,0.30347 0.654778,0.63106 0.783572,1.09231 0.123319,0.45859 0.141811,0.89565 -0.0011,1.34817 -0.06579,0.14421 -0.126343,0.29092 -0.197381,0.43261 -0.127712,0.25474 -0.35424,0.45438 -0.569098,0.63407 -1.047279,0.65985 0.329271,-0.20079 -0.444587,0.26875 -0.402548,0.13741 -0.65862,0.23775 -1.080916,0.21992 -0.487836,-0.0984 -0.834652,-0.14016 -1.223936,-0.46322 -0.412459,-0.33692 -0.709845,-0.81077 -0.784749,-1.34376 -0.0072,-0.12356 -0.03231,-0.2474 -0.02148,-0.3707 0.03514,-0.39973 0.119274,-0.70483 0.309708,-1.04103 0.176356,-0.25868 0.353065,-0.50426 0.6028,-0.70013 0.124466,-0.0977 0.25354,-0.18865 0.38649,-0.2744 2.34823,-1.56548 4.562163,1.75542 2.213933,3.3209 z"
       inkscape:connector-curvature="0" />
  </g>
</svg>
