<?xml version="1.0" encoding="UTF-8" standalone="no"?>
<!-- Created with Inkscape (http://www.inkscape.org/) -->

<svg
   xmlns:dc="http://purl.org/dc/elements/1.1/"
   xmlns:cc="http://creativecommons.org/ns#"
   xmlns:rdf="http://www.w3.org/1999/02/22-rdf-syntax-ns#"
   xmlns:svg="http://www.w3.org/2000/svg"
   xmlns="http://www.w3.org/2000/svg"
   xmlns:sodipodi="http://sodipodi.sourceforge.net/DTD/sodipodi-0.dtd"
   xmlns:inkscape="http://www.inkscape.org/namespaces/inkscape"
   width="64mm"
   height="64mm"
   viewBox="0 0 64 64"
   version="1.1"
   id="svg8"
   sodipodi:docname="games.svg"
   inkscape:version="0.92.5 (2060ec1f9f, 2020-04-08)">
  <defs
     id="defs2" />
  <sodipodi:namedview
     id="base"
     pagecolor="#ffffff"
     bordercolor="#666666"
     borderopacity="1.0"
     inkscape:pageopacity="0.0"
     inkscape:pageshadow="2"
     inkscape:zoom="3"
     inkscape:cx="13.493015"
     inkscape:cy="110.27027"
     inkscape:document-units="mm"
     inkscape:current-layer="layer1"
     showgrid="false"
     inkscape:snap-page="true"
     inkscape:window-width="1920"
     inkscape:window-height="1016"
     inkscape:window-x="0"
     inkscape:window-y="27"
     inkscape:window-maximized="1" />
  <metadata
     id="metadata5">
    <rdf:RDF>
      <cc:Work
         rdf:about="">
        <dc:format>image/svg+xml</dc:format>
        <dc:type
           rdf:resource="http://purl.org/dc/dcmitype/StillImage" />
        <dc:title />
      </cc:Work>
    </rdf:RDF>
  </metadata>
  <g
     inkscape:label="Layer 1"
     inkscape:groupmode="layer"
     id="layer1"
     transform="translate(0,-233)">
    <rect
       style="fill:#00bcd4;stroke-width:0.26458332;fill-opacity:1"
       id="rect3713"
       width="64"
       height="64"
       x="0"
       y="233" />
    <path
       style="fill:#ffffff;fill-opacity:1;fill-rule:nonzero;stroke:none;stroke-width:0.26458332"
       id="path4655"
       d="m 5.5928908,289.54471 c -0.094589,-0.12007 -0.1682507,-0.30749 -0.262726,-0.42019 -0.097849,-0.15639 -0.1795526,-0.32202 -0.2652884,-0.48511 -0.077678,-0.15702 -0.1463673,-0.31676 -0.219922,-0.47578 -0.06313,-0.14333 -0.1260745,-0.28698 -0.1957181,-0.42732 -0.085419,-0.18565 -0.165871,-0.37358 -0.2474679,-0.56095 -0.073641,-0.16258 -0.1515058,-0.32315 -0.2274729,-0.48464 -0.091579,-0.17572 -0.1631934,-0.36076 -0.2463628,-0.54039 -0.073586,-0.16691 -0.1505564,-0.33227 -0.227266,-0.49775 -0.084072,-0.16096 -0.1482709,-0.33117 -0.2246582,-0.49568 -0.087223,-0.19102 -0.1585526,-0.38858 -0.2360838,-0.58352 -0.079922,-0.17161 -0.1234929,-0.36028 -0.2011224,-0.53207 -0.063166,-0.16105 -0.1161246,-0.326 -0.1783059,-0.48738 -0.067847,-0.19177 -0.1357397,-0.38345 -0.1956393,-0.5779 -0.05349,-0.1522 -0.1066129,-0.30472 -0.1561859,-0.45831 -0.055443,-0.14415 -0.1025567,-0.29122 -0.1522944,-0.43738 -0.053616,-0.1779 -0.1148086,-0.35278 -0.1648896,-0.53181 -0.030089,-0.0825 -0.081893,-0.23197 -0.1185986,-0.33747 -0.052242,-0.17103 -0.1059394,-0.34166 -0.1540669,-0.51395 -0.04544,-0.17375 -0.092437,-0.34677 -0.1299807,-0.52262 -0.044691,-0.21112 -0.066016,-0.42595 -0.081815,-0.64084 -0.011616,-0.17657 -0.017501,-0.35343 -0.021882,-0.5303 -0.00376,-0.16664 -0.00517,-0.33333 -0.00648,-0.5 -0.00116,-0.15503 -0.00161,-0.31006 -0.00202,-0.46509 -0.00478,-0.2019 0.00135,-0.40287 0.024336,-0.60361 0.020552,-0.16004 0.038776,-0.31996 0.063341,-0.47944 0.033356,-0.16836 0.066254,-0.33657 0.1121805,-0.50206 0.047252,-0.16328 0.1041618,-0.32423 0.1627847,-0.48384 0.053619,-0.15277 0.1159402,-0.30231 0.1801395,-0.45089 0.057095,-0.14084 0.1286807,-0.27496 0.1952802,-0.41139 0.076981,-0.16214 0.1653974,-0.31835 0.2575022,-0.47228 0.067157,-0.12695 0.1408351,-0.25012 0.2144202,-0.37339 0.074287,-0.1346 0.1552033,-0.27062 0.2370415,-0.40315 0.083612,-0.13641 0.1698067,-0.27116 0.2578965,-0.40474 0.066801,-0.11253 0.1321967,-0.22583 0.199158,-0.33828 0.087798,-0.14067 0.1735436,-0.28248 0.2603447,-0.42377 0.08369,-0.139 0.1738799,-0.27428 0.2572038,-0.41347 0.08088,-0.13939 0.1751309,-0.27096 0.2556341,-0.41052 0.1009848,-0.16463 0.2155127,-0.32037 0.3226718,-0.48096 0.1015833,-0.16 0.2171462,-0.30986 0.3285747,-0.46284 0.094736,-0.13003 0.1953167,-0.25559 0.2896071,-0.38589 0.1082503,-0.15463 0.2325161,-0.2964 0.3556449,-0.4391 0.099904,-0.1136 0.1982028,-0.22747 0.2966509,-0.34116 0.083708,-0.10178 0.1738455,-0.19794 0.259425,-0.29815 0.096789,-0.11536 0.1968021,-0.22793 0.2983418,-0.33911 0.078137,-0.0892 0.1643983,-0.17088 0.244058,-0.25857 0.00744,-0.008 -0.015769,0.0155 -0.023654,0.0233 0.086389,-0.0975 0.1687862,-0.19167 0.2620153,-0.29414 0.093148,-0.0988 0.1874023,-0.19866 0.279686,-0.29406 0.092756,-0.0927 0.1834965,-0.18707 0.2702026,-0.27472 0.1146378,-0.11324 0.2163122,-0.21997 0.3381684,-0.33205 0.1078672,-0.0978 0.2156643,-0.19534 0.3266996,-0.28951 0.1273876,-0.11459 0.2660782,-0.21727 0.4084068,-0.31328 0.1026145,-0.0736 0.2084017,-0.14248 0.3131794,-0.21294 0.1332243,-0.0904 0.1562666,-0.0966 0.2931972,-0.19177 0.1850234,-0.11435 0.2714101,-0.15903 0.4189222,-0.2381 0.074091,-0.0511 0.1576716,-0.0876 0.2349693,-0.13344 0.1551701,-0.0849 0.2951291,-0.15432 0.4616971,-0.22563 -0.01653,0.007 -0.06377,0.0311 -0.04959,0.0203 0.07661,-0.0586 0.186807,-0.0854 0.273348,-0.12697 0.13649,-0.0614 0.275778,-0.11297 0.414945,-0.1666 0.115061,-0.0372 0.206173,-0.0831 0.423396,-0.15119 0.119023,-0.0285 0.215121,-0.0664 0.417616,-0.11747 0.09558,-0.0178 0.184115,-0.0522 0.392,-0.0989 0.158607,-0.0292 0.269537,-0.0456 0.396537,-0.0733 0.03177,-0.006 0.06346,-0.0131 0.09532,-0.019 0.106446,-0.0198 0.213404,-0.0349 0.320943,-0.0474 0.08399,-0.01 0.120152,-0.011 0.05984,-0.008 0.179761,-0.0388 0.361979,-0.0634 0.544641,-0.0834 0.139874,-0.0315 0.284372,-0.0532 0.42723,-0.0729 0.158078,-0.039 0.32427,-0.063 0.487142,-0.0851 0.1654,-0.0123 0.256976,-0.0363 0.426485,-0.0647 0.199479,-0.0321 0.400806,-0.0503 0.602239,-0.0645 0.174835,-0.0113 0.349996,-0.0161 0.52512,-0.0202 0.157049,-0.003 0.314131,-0.005 0.471209,-0.006 0.153265,-0.001 0.306534,-0.002 0.459802,-0.002 0.149878,-2.7e-4 0.299755,-5.3e-4 0.449633,-5.3e-4 0.147974,-1.2e-4 0.295947,-1.6e-4 0.443921,-1.9e-4 0.144451,-4e-5 0.288901,-5e-5 0.433352,-7e-5 0.142182,-1e-5 0.284365,-1e-5 0.426548,-2e-5 0.211156,-0.002 0.104712,0.006 0.215514,-0.0102 0.165331,-0.0243 0.331774,-0.0395 0.498399,-0.0513 0.145287,-0.01 0.290852,-0.0148 0.436412,-0.0186 0.133379,-0.003 0.266786,-0.004 0.400192,-0.006 0.126381,-10e-4 0.252765,-10e-4 0.379148,-0.002 0.129127,-2.6e-4 0.258254,-5.2e-4 0.38738,-5.2e-4 0.136507,-1e-4 0.273013,-1.5e-4 0.40952,-1.8e-4 0.143182,-3e-5 0.286365,-5e-5 0.429547,-6e-5 -0.01321,-5.3e-4 -0.02877,0.006 -0.03964,-0.001 -2.16e-4,-1.5e-4 0.02011,-0.003 0.100184,-0.0125 0.09453,-0.011 0.189119,-0.0204 0.283899,-0.029 0.196116,-0.0169 0.392829,-0.0249 0.589525,-0.0312 0.184142,-0.005 0.368354,-0.008 0.55256,-0.01 0.183926,-0.002 0.36786,-0.002 0.551793,-0.003 0.192338,-5.3e-4 0.384678,-7.9e-4 0.577017,-10e-4 0.182852,-1.7e-4 0.365704,-2.5e-4 0.548557,-2.6e-4 0.180551,-6e-5 0.361102,-8e-5 0.541652,-10e-5 0.235156,-0.004 0.468912,0.0261 0.702749,0.0464 0.210092,0.0139 0.419793,0.0256 0.629036,0.05 0.178985,0.0238 0.358965,0.0386 0.539149,0.0493 0.237234,0.009 0.473946,0.0184 0.71042,0.0405 0.206544,0.0224 0.41366,0.0376 0.621062,0.049 0.241588,0.009 0.482597,0.0169 0.723286,0.0406 0.193908,0.0212 0.388352,0.0365 0.583046,0.0481 0.229587,0.009 0.45715,0.0436 0.685525,0.067 0.210688,0.014 0.419145,0.0481 0.628444,0.0746 0.203737,0.0212 0.407445,0.0379 0.610285,0.0672 0.164938,0.0247 0.331007,0.04 0.497274,0.052 0.204044,0.0213 0.406114,0.0563 0.610359,0.0757 0.213714,0.012 0.426024,0.0356 0.638082,0.0643 0.180097,0.0231 0.360916,0.0373 0.540981,0.0606 0.143126,0.0254 0.286752,0.0467 0.431461,0.0605 0.17095,0.0205 0.338365,0.0609 0.509196,0.0818 0.160142,0.0264 0.317502,0.0649 0.477951,0.0892 0.147341,0.0294 0.292865,0.0647 0.441357,0.0875 0.14397,0.0267 0.28489,0.0659 0.430083,0.0854 0.191547,0.0391 0.384368,0.0709 0.57622,0.10818 0.177937,0.0388 0.357502,0.0681 0.535482,0.10682 0.166944,0.0337 0.335375,0.0576 0.502439,0.0911 0.176781,0.0287 0.35007,0.0745 0.525753,0.10869 0.204317,0.0471 0.40781,0.0975 0.609367,0.15525 0.18025,0.0425 0.357542,0.0959 0.533458,0.15354 0.189725,0.057 0.373534,0.12913 0.555393,0.20732 0.148407,0.0583 0.295158,0.12065 0.441851,0.18313 0.172961,0.0763 0.341958,0.161 0.513136,0.24106 0.173376,0.0836 0.344614,0.17154 0.518178,0.25471 0.21608,0.1059 0.423389,0.22825 0.627952,0.35465 0.174477,0.10269 0.34662,0.2096 0.516173,0.32024 0.15699,0.1018 0.319735,0.19403 0.479128,0.29188 0.181012,0.12376 0.367094,0.23939 0.546635,0.36521 0.153323,0.10753 0.306361,0.21482 0.457017,0.32613 0.148331,0.10598 0.291177,0.21913 0.436108,0.32972 0.159731,0.12274 0.318492,0.24667 0.471141,0.37813 0.139025,0.10958 0.274896,0.22308 0.40882,0.33882 0.179272,0.15385 0.349835,0.31655 0.510559,0.48963 0.152339,0.1508 0.292793,0.31304 0.428008,0.47921 0.143296,0.17022 0.272064,0.3513 0.395645,0.5361 0.122904,0.18812 0.231087,0.38501 0.341038,0.58076 0.105981,0.18041 0.196648,0.36864 0.285506,0.55782 0.08954,0.19187 0.159528,0.39182 0.236929,0.5886 0.07341,0.18222 0.145193,0.36454 0.206134,0.55139 0.05716,0.15359 0.09708,0.31257 0.148487,0.46765 0.0801,0.23494 0.126638,0.47866 0.161594,0.7238 0.03947,0.17101 0.06502,0.34513 0.088,0.51906 0.02696,0.21551 0.03983,0.43239 0.04924,0.64926 0.0176,0.2506 -0.0028,0.50085 -0.0232,0.75051 -0.01521,0.1931 -0.02297,0.38648 -0.0397,0.57945 -0.02257,0.18592 -0.0436,0.37193 -0.05814,0.55866 -0.02758,0.24335 -0.06453,0.48552 -0.113387,0.72549 -0.03317,0.18232 -0.06606,0.36461 -0.100047,0.54682 -0.04517,0.22512 -0.10844,0.4457 -0.166394,0.66763 -0.05713,0.19412 -0.115438,0.38792 -0.167439,0.5835 -0.06593,0.24137 -0.152223,0.47602 -0.241922,0.70932 -0.0667,0.20737 -0.142512,0.41179 -0.223144,0.61414 -0.08496,0.21402 -0.178612,0.42454 -0.276061,0.63313 -0.09283,0.19022 -0.193421,0.37663 -0.294013,0.56284 -0.113607,0.20349 -0.236752,0.40135 -0.36708,0.5945 -0.124166,0.18939 -0.262147,0.37 -0.404582,0.54595 -0.130374,0.16889 -0.278186,0.32311 -0.425728,0.47683 -0.156313,0.15942 -0.323287,0.30797 -0.493533,0.45225 -0.17345,0.15285 -0.363921,0.28402 -0.554162,0.41466 -0.203615,0.13536 -0.415845,0.25646 -0.634608,0.36534 -0.223888,0.11429 -0.460637,0.20115 -0.698309,0.28182 -0.206751,0.0787 -0.419804,0.13879 -0.632439,0.19911 -0.235583,0.0606 -0.471133,0.12085 -0.709369,0.17026 -0.226886,0.0451 -0.452652,0.0937 -0.681292,0.1299 -0.207465,0.0246 -0.413848,0.0529 -0.620487,0.0833 -0.234313,0.0347 -0.470244,0.0559 -0.706443,0.0722 -0.242785,0.017 -0.485717,0.0238 -0.728956,0.0183 -0.231995,-0.0155 -0.464043,-0.0314 -0.695235,-0.0561 -0.226373,-0.0293 -0.452769,-0.0558 -0.67767,-0.0952 -0.232751,-0.0397 -0.462126,-0.0973 -0.689528,-0.16026 -0.237969,-0.0687 -0.467561,-0.16127 -0.696462,-0.2549 -0.215382,-0.0939 -0.422725,-0.20417 -0.627283,-0.31933 -0.202334,-0.11256 -0.391255,-0.2461 -0.574497,-0.38708 -0.177618,-0.1424 -0.33678,-0.30465 -0.49244,-0.47014 -0.11987,-0.13267 -0.231794,-0.27199 -0.345885,-0.40958 -0.136961,-0.17417 -0.267078,-0.35281 -0.385228,-0.54022 -0.08555,-0.12786 -0.162525,-0.26122 -0.242408,-0.39267 -0.08882,-0.13382 -0.162142,-0.27677 -0.244832,-0.41431 -0.0797,-0.14051 -0.154768,-0.28351 -0.234726,-0.42388 -0.08415,-0.15418 -0.162904,-0.31116 -0.241284,-0.4683 -0.0708,-0.15213 -0.141054,-0.30472 -0.204798,-0.45998 -0.05629,-0.14844 -0.11481,-0.2955 -0.164068,-0.44655 -0.04802,-0.10906 -0.08938,-0.24944 -0.123312,-0.37248 0.03605,0.1481 -0.07805,-0.22454 -0.09663,-0.29297 0.0021,-0.0624 -0.041,-0.12118 -0.04032,-0.18395 2.64e-4,-0.0291 0.02037,0.0563 0.01828,0.0854 -2.09e-4,0.003 -0.0024,-0.005 -0.0033,-0.008 -0.0098,-0.0288 -0.01921,-0.0578 -0.02881,-0.0867 -0.0053,-0.0172 -0.05668,-0.18192 -0.04833,-0.17208 0.02548,0.0301 0.0232,0.0753 0.03277,0.11357 0.0029,0.0114 -0.0084,-0.0219 -0.01259,-0.0329 -0.01072,-0.0279 -0.01648,-0.0426 -0.02722,-0.0703 0.0019,-0.0634 -0.05846,-0.11763 -0.06007,-0.18126 -7.93e-4,-0.0286 0.0263,0.0531 0.02625,0.0817 -3e-6,0.003 -0.0028,-0.005 -0.0039,-0.008 -0.01479,-0.0348 -0.02925,-0.0698 -0.04388,-0.10471 -0.0088,-0.0235 -0.03737,-0.093 -0.02649,-0.0704 0.172789,0.35879 -0.04075,-0.066 -0.0704,-0.13858 -0.0075,-0.0197 -0.0316,-0.078 -0.02238,-0.0591 0.09953,0.20458 -0.03558,-0.0595 -0.05957,-0.1154 0.244465,0.50418 -0.216897,-0.41317 -0.01278,-0.006 0.101282,0.19572 -0.189257,-0.34401 -0.08276,-0.14087 -0.04353,-0.0595 0.03729,0.0471 -0.0186,-0.021 -0.03912,-0.0554 -0.07717,-0.11159 -0.117364,-0.16622 -0.04465,-0.0607 0.121246,0.15876 0.08877,0.12675 -0.04596,-0.0509 -0.141476,-0.1179 0.09157,0.078 0.01712,0.0144 0.07194,0.053 0.05432,0.0393 -0.227393,-0.17739 -0.103576,-0.0679 -0.259461,-0.21244 0.09355,0.0953 0.204528,0.16677 0.327107,0.21955 -0.0867,-0.0743 -0.514945,-0.2418 -0.15717,-0.0835 0.0537,0.024 0.110368,0.0374 0.167529,0.049 -0.142756,-0.0278 -0.282853,-0.0599 -0.416261,-0.11657 -0.02495,-0.0106 0.0752,0.0256 0.03345,0.0144 0.01574,0.009 0.088,0.019 0.04404,0.0145 -0.0079,5.2e-4 -0.06199,-0.002 -0.08596,-0.003 -0.05856,-0.002 -0.117149,-0.002 -0.175731,-0.003 -0.06304,-5.3e-4 -0.126084,-8e-4 -0.189126,-10e-4 -0.06508,-1.9e-4 -0.130154,-2.7e-4 -0.195234,-2.7e-4 -0.06552,-6e-5 -0.131032,-9e-5 -0.196551,-1.1e-4 -0.103449,-0.006 -0.392776,0.0169 0.04946,-0.0164 0.127442,-0.0208 -0.179845,0.0431 -0.220914,0.0507 -0.06907,0.0119 -0.13871,0.0201 -0.20842,0.0271 -0.01566,0.002 -0.06255,0.007 -0.04703,0.004 0.225004,-0.0383 0.08762,-0.006 0.210058,-0.0364 -0.155837,0.0508 -0.316923,0.0803 -0.478869,0.10307 -0.02222,0.003 -0.08868,0.0123 -0.06671,0.008 0.03139,-0.006 0.06341,-0.009 0.09505,-0.0136 0.0078,-10e-4 0.03081,-0.007 0.02326,-0.005 -0.06539,0.0205 -0.134229,0.0347 -0.20075,0.0503 -0.150003,0.0344 -0.302811,0.0531 -0.455856,0.0671 -0.08093,0.006 -0.03903,0.003 -0.125693,0.009 -0.01807,0.001 -0.07217,0.005 -0.05421,0.003 0.04068,-0.005 0.08169,-0.007 0.122425,-0.0111 0.01257,-10e-4 0.04865,-0.0121 0.0374,-0.006 -0.01405,0.007 -0.03077,0.007 -0.04616,0.0108 -0.14147,0.0352 -0.285662,0.0568 -0.430286,0.0738 -0.122232,0.0135 -0.245081,0.0199 -0.367917,0.0247 -0.09408,0.003 -0.188208,0.005 -0.282336,0.006 0.0436,-0.004 -0.175028,0.005 -0.131382,10e-4 0.06106,-0.005 0.12233,-0.007 0.183462,-0.0117 -0.150206,0.036 -0.303263,0.0563 -0.45675,0.0716 -0.02082,0.002 -0.04164,0.004 -0.06248,0.005 -0.230272,0.0179 0.137776,-0.0269 0.03297,-0.002 -0.02503,0.006 -0.05014,0.0115 -0.07522,0.0173 -0.163322,0.036 -0.329343,0.0564 -0.495771,0.0709 0.0388,-0.005 -0.183965,0.0159 -0.138261,0.009 0.238464,-0.0348 0.03683,0.006 -0.01119,0.0155 -0.148495,0.0297 -0.298778,0.0483 -0.44944,0.0625 0.04585,-0.006 -0.196633,0.0179 -0.14782,0.0103 0.244618,-0.0378 0.03258,0.007 0.0031,0.0136 -0.131347,0.0287 -0.264351,0.0479 -0.397928,0.0624 -0.114787,0.0115 -0.230036,0.0172 -0.345278,0.0215 -0.08913,0.003 -0.178312,0.004 -0.267486,0.006 0.05882,-0.004 0.11763,-0.009 0.176445,-0.0129 0.02185,-0.004 0.04342,-0.01 0.06554,-0.0121 0.02622,-0.002 -0.05107,0.013 -0.07676,0.0188 -0.08141,0.0184 -0.07756,0.0172 -0.150174,0.0313 -0.06158,0.0146 -0.580364,0.076 -0.198957,0.0237 -0.111281,0.0318 -0.225148,0.0534 -0.339137,0.0729 -0.2773,0.0498 0.144677,-0.0389 -0.0061,0.004 -0.02877,0.008 -0.05757,0.0161 -0.08646,0.0237 -0.02136,0.006 -0.04285,0.0108 -0.06427,0.0162 -0.08677,0.0213 -0.174715,0.0367 -0.262943,0.0505 0.02253,-0.004 0.04506,-0.007 0.06758,-0.0111 0.0017,-1.2e-4 0.0069,-8e-4 0.0052,-2.7e-4 -0.02218,0.006 -0.04457,0.0121 -0.06685,0.0181 -0.08531,0.0238 -0.171938,0.0422 -0.259027,0.0581 -0.02569,0.005 0.05091,-0.0121 0.07681,-0.0154 0.02431,-0.003 -0.04687,0.0144 -0.07028,0.0216 -0.17615,0.0468 -0.198328,0.0525 -0.307898,0.0863 -0.158373,0.0413 -0.156744,0.0496 -0.344621,0.10464 -0.07602,0.0187 -0.108007,0.0358 -0.252593,0.0819 -0.122241,0.042 -0.244326,0.0835 -0.366516,0.1256 -0.117579,0.0452 -0.230592,0.0936 -0.348872,0.139 -0.115411,0.0521 -0.238065,0.09 -0.351184,0.14712 -0.165191,0.0765 -0.33197,0.14932 -0.50002,0.21943 -0.134841,0.0596 -0.2668,0.1241 -0.399775,0.18851 -0.154334,0.0643 -0.304456,0.13627 -0.45523,0.2083 -0.144989,0.0772 -0.300146,0.13347 -0.447918,0.20433 -0.02982,0.0127 -0.0594,0.026 -0.08945,0.0382 -0.403791,0.16324 0.08048,-0.0339 -0.183904,0.0771 -0.106647,0.0448 -0.154091,0.058 -0.09697,0.0414 -0.118938,0.0586 -0.243936,0.10305 -0.364616,0.15751 -0.01155,0.005 0.02362,-0.009 0.03543,-0.0138 -0.131428,0.0683 -0.267675,0.12687 -0.399896,0.19351 -0.09533,0.0408 -0.171278,0.0889 -0.27175,0.14573 -0.121525,0.0718 -0.240478,0.14573 -0.35817,0.22322 -0.110892,0.0734 -0.218306,0.15007 -0.326489,0.22717 -0.116632,0.0846 -0.240268,0.15881 -0.357787,0.24214 0.0031,0.0171 -0.27428,0.20533 -0.226186,0.17926 -0.125897,0.0957 -0.1069,0.0871 -0.244588,0.20983 0.05538,-0.0487 -0.118402,0.12959 -0.121447,0.13279 0.136183,-0.15322 -0.165744,0.21318 -0.08144,0.11463 -0.07954,0.0996 -0.144122,0.19437 -0.185681,0.25799 -0.0668,0.10642 -0.136764,0.21843 -0.204149,0.32863 -0.0839,0.12891 -0.163434,0.26029 -0.24214,0.39237 -0.08405,0.16871 -0.1997,0.31852 -0.298216,0.47842 -0.09697,0.15444 -0.191874,0.3102 -0.288167,0.46511 -0.09531,0.16792 -0.206603,0.32599 -0.31013,0.48874 -0.109531,0.17091 -0.230519,0.33392 -0.346428,0.50044 -0.130382,0.17456 -0.264725,0.34599 -0.403846,0.51366 -0.12665,0.16972 -0.296302,0.30107 -0.436423,0.45782 -0.154369,0.1549 -0.318943,0.29894 -0.485461,0.44047 -0.149159,0.12957 -0.309218,0.24542 -0.465512,0.366 -0.160083,0.12383 -0.334466,0.22688 -0.501021,0.3413 -0.148701,0.0946 -0.295117,0.19266 -0.442739,0.28894 -0.155174,0.10066 -0.319802,0.1853 -0.479278,0.27853 -0.16202,0.0901 -0.330144,0.16873 -0.498756,0.24554 -0.158736,0.0605 -0.314658,0.12578 -0.474962,0.18219 -0.19494,0.0573 -0.239792,0.0681 -0.360398,0.10558 -0.154875,0.0479 -0.314065,0.079 -0.473909,0.10465 -0.01968,0.003 0.03934,-0.006 0.05901,-0.01 -0.134418,0.0376 -0.270832,0.0666 -0.408152,0.0912 -0.144632,0.0249 -0.290795,0.0383 -0.437093,0.0483 -0.104937,0.007 -0.21001,0.0102 -0.3151071,0.0128 -0.082833,0.002 -0.1656842,0.003 -0.2485358,0.004 -0.1578901,0.008 -0.311345,-0.0108 -0.469188,-0.0259 -0.1676122,-0.0329 -0.3317928,-0.0787 -0.4918763,-0.13846 -0.2355373,-0.10383 -0.1911416,-0.0796 -0.3921688,-0.18132 0.00547,0.003 0.022085,0.0123 0.016412,0.01 -0.1552446,-0.0765 -0.3049336,-0.15855 -0.4518284,-0.25012 -0.1436624,-0.072 -0.2609123,-0.18597 -0.3970748,-0.26914 -0.157127,-0.0999 -0.2958147,-0.2258 -0.4478774,-0.33259 -0.1581565,-0.114 -0.3134421,-0.23189 -0.4668554,-0.35212 -0.1285719,-0.0954 -0.2533851,-0.19554 -0.3821787,-0.29058 -0.1151517,-0.0791 -0.2220926,-0.17198 -0.3417912,-0.2444 -0.1393391,-0.0901 -0.2677956,-0.19759 -0.4075631,-0.28683 -0.1520026,-0.10283 -0.2901206,-0.22374 -0.4344664,-0.33641 -0.1604169,-0.12087 -0.3013314,-0.26375 -0.438803,-0.40943 -0.1764652,-0.17915 -0.3155958,-0.38788 -0.4406691,-0.60464 -0.1237472,-0.21082 -0.2089595,-0.43965 -0.2790354,-0.67283 -0.043693,-0.16793 -0.07003,-0.33872 -0.1078564,-0.5077 -0.040802,-0.18515 -0.067155,-0.37298 -0.08809,-0.56127 -0.00994,-0.096 -0.018113,-0.19223 -0.026024,-0.28844 0.012872,-0.15438 0.025741,-0.30877 0.038614,-0.46315 0.4673513,-1.94012 3.2110902,-1.27918 2.7437389,0.66093 v 0 c 0.010128,-0.14299 0.020256,-0.28598 0.030383,-0.42898 0.0059,0.0718 0.011938,0.14368 0.019066,0.21542 0.00851,0.0837 0.019873,0.16719 0.036532,0.24969 0.025387,0.11372 0.060165,0.23502 0.067459,0.34883 0.00619,0.0309 0.015142,0.0647 0.037716,0.0867 -0.023275,-0.0336 -0.037207,-0.0268 0.021717,0.0295 0.1009494,0.10721 0.035832,0.0519 0.1616911,0.15238 0.087845,0.0719 0.1513494,0.12788 0.2501546,0.19915 0.1242663,0.0862 0.2470078,0.17475 0.370491,0.26193 0.1630947,0.10955 0.3216973,0.22537 0.4799634,0.3417 0.1494893,0.11289 0.2980595,0.22693 0.4469783,0.34065 0.1195166,0.10235 0.2535201,0.1879 0.3778877,0.28412 0.1235232,0.0917 0.2444581,0.18998 0.3608803,0.27127 0.1880357,0.12952 0.1742065,0.13421 0.3315005,0.22607 0.1303811,0.0823 0.05948,0.0363 0.2017699,0.10695 0.233613,0.11971 -0.2466459,-0.10961 0.1203846,0.0584 0.015674,0.007 0.062786,0.0282 0.04643,0.0228 -0.037329,-0.0124 -0.074146,-0.0267 -0.1095967,-0.0438 -0.024786,-0.0119 0.051664,0.0189 0.077496,0.0284 -0.3603003,-0.11546 0.1478,0.0429 -0.047946,-0.0123 -0.4382106,-0.031 -0.1436441,-0.009 -0.040657,-0.0161 0.06833,-5.3e-4 0.136661,-0.001 0.2049761,-0.003 0.064554,-0.002 0.1290841,-0.004 0.1935626,-0.007 0.04546,-0.003 0.09092,-0.006 0.136126,-0.0117 0.07774,-0.0131 0.153752,-0.0332 0.229903,-0.0538 0.07928,-0.017 0.165657,-0.0369 0.245886,-0.0483 0.09535,-0.0296 0.213781,-0.0673 0.295879,-0.0847 0.0043,-10e-4 0.240597,-0.0984 0.226267,-0.085 0.08731,-0.0338 0.16661,-0.0799 0.249811,-0.11925 0.112959,-0.064 0.226943,-0.12584 0.338376,-0.19248 0.132574,-0.0863 0.263557,-0.17502 0.397678,-0.25896 0.121447,-0.082 0.245901,-0.15934 0.365821,-0.2435 0.124547,-0.0957 0.252431,-0.18688 0.371005,-0.29001 0.09769,-0.0789 0.189065,-0.16497 0.280889,-0.25056 0.09623,-0.097 0.197802,-0.18903 0.286912,-0.29194 0.08791,-0.10521 0.172154,-0.21393 0.257114,-0.32106 0.09705,-0.1394 0.198137,-0.27598 0.291225,-0.41808 0.09678,-0.149 0.197546,-0.29556 0.285581,-0.45001 0.101058,-0.16207 0.200523,-0.3251 0.301902,-0.48695 0.09311,-0.14505 0.179716,-0.26083 0.256901,-0.41133 0.08444,-0.14126 0.169335,-0.28217 0.258971,-0.42021 0.08756,-0.14268 0.168703,-0.26816 0.248165,-0.39821 0.07901,-0.12095 0.16159,-0.23926 0.249732,-0.35377 0.0038,-0.005 -0.0066,0.0106 -0.0099,0.0159 0.108897,-0.14907 0.22123,-0.29607 0.343452,-0.43457 0.106253,-0.1119 0.210677,-0.22591 0.32653,-0.32814 -0.09459,0.0976 0.308137,-0.29238 0.296521,-0.25347 0.117702,-0.0939 0.241854,-0.19525 0.388623,-0.30292 0.11497,-0.0809 0.23358,-0.15615 0.348876,-0.23583 0.138082,-0.0981 0.276442,-0.19574 0.417621,-0.28935 0.140989,-0.0919 0.283304,-0.1816 0.428028,-0.26747 0.165939,-0.0983 0.33402,-0.19411 0.508852,-0.27589 0.116083,-0.0561 0.233026,-0.11044 0.348382,-0.16771 0.136454,-0.0662 0.274787,-0.12705 0.41447,-0.1857 0.141986,-0.0641 0.285032,-0.12602 0.429644,-0.1838 0.127977,-0.0558 0.257111,-0.10748 0.380558,-0.17336 0.148368,-0.07 0.29535,-0.14315 0.447522,-0.20462 0.178694,-0.0852 0.356207,-0.17294 0.538447,-0.25046 0.13989,-0.0574 0.277927,-0.11835 0.414873,-0.18246 0.174096,-0.0774 0.350345,-0.14985 0.527461,-0.22005 0.145611,-0.0465 0.281686,-0.12286 0.428369,-0.16743 0.120055,-0.0397 0.239311,-0.0809 0.358469,-0.12284 0.133065,-0.0441 0.266383,-0.0901 0.406557,-0.13007 0.09347,-0.0246 0.191015,-0.0656 0.286827,-0.0877 0.10055,-0.0298 0.204549,-0.0648 0.299571,-0.0837 0.118074,-0.0363 0.238029,-0.0679 0.350892,-0.0927 0.09535,-0.0253 0.225157,-0.0751 0.312958,-0.0723 0.003,10e-5 -0.0057,0.002 -0.0086,0.003 0.125343,-0.0304 0.246662,-0.0779 0.376587,-0.0893 0.05416,-0.008 0.126361,-0.0275 0.187443,-0.0432 0.09518,-0.016 0.189965,-0.0426 0.286466,-0.0419 0.116269,-0.0207 0.338852,-0.0889 0.477473,-0.075 0.06681,-8e-4 0.133627,-0.002 0.200406,-0.004 0.05037,-0.002 0.100715,-0.004 0.15099,-0.008 0.0409,-0.004 0.08145,-0.009 0.12152,-0.019 0.151635,-0.0305 0.302816,-0.0679 0.458512,-0.071 0.05129,-0.005 0.10254,-0.009 0.153197,-0.019 0.156363,-0.0315 0.31297,-0.0655 0.473056,-0.0706 0.03611,-0.002 0.07229,-0.006 0.107932,-0.0114 0.15159,-0.0317 0.302059,-0.0734 0.458247,-0.077 0.03068,-0.002 0.0586,-0.004 0.08876,-0.0117 0.178223,-0.0402 0.359614,-0.0662 0.542779,-0.0618 0.07213,-0.001 0.144254,-0.002 0.216347,-0.005 0.05389,-0.002 0.107823,-0.004 0.161513,-0.009 0.03367,-0.004 0.06686,-0.006 0.09968,-0.0168 0.153064,-0.0359 0.30792,-0.0637 0.465402,-0.0689 0.03079,-0.002 0.0567,-0.004 0.0807,-0.009 0.126601,-0.0303 0.264023,-0.0743 0.397677,-0.0845 0.05969,-0.005 -0.107035,0.0275 0.02212,-0.003 0.114229,-0.0322 0.31282,-0.0803 0.394221,-0.0784 -0.109405,0.0253 0.187944,-0.0472 0.199832,-0.047 0.152352,-0.0152 0.29976,-0.0346 0.452004,-0.0283 0.06613,2e-5 0.132257,5e-5 0.198384,1.1e-4 0.06733,7e-5 0.134668,1.7e-4 0.202002,2.7e-4 0.06922,2.3e-4 0.138443,5.3e-4 0.207663,0.001 0.07795,7.9e-4 0.155909,0.002 0.233836,0.004 0.101693,0.003 0.20343,0.007 0.304681,0.018 0.14102,0.0156 0.281422,0.0374 0.418402,0.0753 0.135525,0.0387 0.495038,0.15774 -0.01857,0.0197 0.17014,0.0233 0.338889,0.0587 0.498941,0.1228 0.09764,0.0404 0.679862,0.34074 0.142134,0.0776 0.231238,0.0923 0.444786,0.21838 0.625017,0.39156 -0.05387,-0.0477 -0.118324,-0.0827 -0.170918,-0.13178 -0.03077,-0.0287 0.07099,0.0455 0.103992,0.0716 0.08058,0.0638 0.155249,0.12677 0.225139,0.19978 0.05633,0.0577 0.467278,0.55367 0.199268,0.22991 0.07535,0.0923 0.148569,0.18657 0.211863,0.28772 0.03621,0.0575 0.148471,0.22679 0.103539,0.17576 -0.01453,-0.0165 -0.04791,-0.0737 -0.03613,-0.0552 0.02048,0.0322 0.04149,0.0642 0.06223,0.0962 0.209331,0.3916 0.07512,0.14139 0.05065,0.0936 -0.008,-0.0156 0.01712,0.0305 0.02569,0.0457 0.04409,0.0782 0.03401,0.0646 0.115948,0.22302 -0.01056,-0.0214 -0.04613,-0.0834 -0.033,-0.0635 0.05732,0.0869 0.08882,0.19128 0.133593,0.28375 -0.01421,-0.0292 -0.0034,-0.007 -0.03334,-0.0658 -0.0096,-0.0194 0.02109,0.0378 0.03032,0.0574 0.03325,0.0706 0.06561,0.14154 0.09841,0.21231 -1.67e-4,3e-5 -2.65e-4,6e-5 -5.29e-4,9e-5 -0.06984,-0.14986 0.175651,0.40842 0.09128,0.23665 0.04228,0.10892 0.07821,0.21635 0.114562,0.32827 0.0013,0.004 -0.01738,-0.0556 -0.0041,-0.0115 0.0037,0.0109 0.135236,0.40111 0.09546,0.3336 0.0065,0.0275 0.07504,0.2132 0.09334,0.28071 0.01767,0.0704 0.0658,0.18308 0.09258,0.26724 0.01344,0.0429 0.07219,0.18542 0.08435,0.22491 0.03721,0.0929 0.08052,0.18326 0.121214,0.27435 0.05283,0.10931 0.109439,0.21683 0.165052,0.32469 0.07086,0.12488 0.139581,0.25094 0.207685,0.37733 0.07702,0.13047 0.146994,0.26386 0.230341,0.39018 0.08025,0.13218 0.157731,0.26594 0.243596,0.39463 -0.038,-0.0408 0.137988,0.18537 0.146381,0.20432 0.07525,0.0911 0.158041,0.19563 0.227473,0.27536 0.04908,0.0522 0.239773,0.24935 0.166015,0.17333 0.07323,0.058 0.148397,0.11314 0.230352,0.15843 0.102431,0.0578 0.205608,0.11433 0.311134,0.16627 0.125984,0.0516 0.251254,0.10498 0.380849,0.14698 0.140441,0.0389 0.281493,0.0771 0.425442,0.10055 0.170826,0.0304 0.343374,0.0473 0.515271,0.0714 0.156136,0.0262 0.317561,0.0185 0.474586,0.0391 0.08797,0.0308 0.32545,-0.0247 0.429696,-0.0137 0.163698,-0.011 0.32725,-0.0251 0.489646,-0.0489 0.198014,-0.029 0.395901,-0.0577 0.594858,-0.0794 0.185057,-0.0281 0.366757,-0.0713 0.550542,-0.10634 0.170622,-0.034 0.338272,-0.0802 0.507301,-0.12108 0.170284,-0.0479 0.340588,-0.0958 0.505664,-0.16002 0.124979,-0.0401 0.246404,-0.0838 0.362254,-0.1449 0.0959,-0.0369 0.177663,-0.10442 0.26791,-0.15223 0.112241,-0.077 0.227224,-0.15088 0.328509,-0.24241 0.100777,-0.0851 0.200337,-0.17139 0.293108,-0.2652 0.100031,-0.0981 0.192392,-0.20259 0.278434,-0.31298 0.100738,-0.0862 0.159525,-0.22814 0.2423,-0.33045 0.0791,-0.11378 0.150207,-0.23249 0.219496,-0.35235 0.07585,-0.1388 0.150077,-0.27866 0.221554,-0.41972 0.07657,-0.1598 0.146365,-0.32297 0.21236,-0.48738 0.07787,-0.18656 0.137967,-0.37989 0.205822,-0.57019 0.05457,-0.14188 0.110038,-0.28335 0.150889,-0.43001 0.0516,-0.19024 0.105638,-0.38001 0.163425,-0.56843 0.04127,-0.15587 0.08563,-0.31067 0.121486,-0.46792 0.03711,-0.1979 0.07244,-0.39589 0.109255,-0.59383 0.02614,-0.12666 0.0436,-0.25442 0.06484,-0.38202 0.01633,-0.20443 0.03683,-0.40845 0.06286,-0.61189 0.03241,-0.17411 0.0057,-0.35869 0.03559,-0.53378 0.01106,-0.13516 0.02917,-0.2656 0.01635,-0.40076 -0.0056,-0.1357 -0.01278,-0.27145 -0.02839,-0.40643 -0.02072,-0.16644 -0.05614,-0.33013 -0.08481,-0.4953 -0.0095,-0.0753 -0.01974,-0.15081 -0.04504,-0.22279 -0.05522,-0.16686 -0.09987,-0.33667 -0.159631,-0.50203 -0.03612,-0.13404 -0.104487,-0.25763 -0.149088,-0.38886 -0.0521,-0.13637 -0.101602,-0.27377 -0.159819,-0.40769 -0.05939,-0.12719 -0.118573,-0.2543 -0.191484,-0.37466 -0.07353,-0.13145 -0.145412,-0.2638 -0.225089,-0.39166 -0.0752,-0.11249 -0.151265,-0.22387 -0.240628,-0.32599 -0.09737,-0.12038 -0.20067,-0.23564 -0.311208,-0.34429 -0.08807,-0.0968 -0.185349,-0.18395 -0.284057,-0.27011 -0.134866,-0.11724 -0.274653,-0.22848 -0.41257,-0.34207 -0.105539,-0.0942 -0.220927,-0.17655 -0.331639,-0.26446 -0.134485,-0.10262 -0.265573,-0.20915 -0.404424,-0.3059 -0.140078,-0.10402 -0.283879,-0.20276 -0.4265,-0.30382 -0.103116,-0.10583 -0.281805,-0.15715 -0.39116,-0.26085 -0.173628,-0.11553 -0.363215,-0.20736 -0.534379,-0.32726 -0.148442,-0.0989 -0.302141,-0.18978 -0.455176,-0.28128 -0.119914,-0.0751 -0.24117,-0.14765 -0.367556,-0.21141 -0.165182,-0.0802 -0.329325,-0.1626 -0.494282,-0.24329 -0.139594,-0.0662 -0.278289,-0.13424 -0.418716,-0.1986 -0.148175,-0.0636 -0.296976,-0.12556 -0.446807,-0.18527 -0.113067,-0.0486 -0.226761,-0.0945 -0.346967,-0.1273 -0.126884,-0.0586 -0.274966,-0.0651 -0.405064,-0.11338 -0.126727,-0.0364 -0.254746,-0.067 -0.382436,-0.10021 -0.177062,-0.0357 -0.351984,-0.0799 -0.530202,-0.10959 -0.182247,-0.0368 -0.367122,-0.0589 -0.54856,-0.10073 -0.166127,-0.0364 -0.334365,-0.0615 -0.500301,-0.0994 -0.134411,-0.0389 -0.280665,-0.0368 -0.414523,-0.0799 -0.157419,-0.0234 -0.32299,-0.0431 -0.47553,-0.0905 -0.0046,-0.001 0.0096,2.6e-4 0.01431,5.3e-4 -0.148556,-0.0234 -0.306284,-0.041 -0.450011,-0.0871 -0.0052,-0.002 0.01085,5.3e-4 0.01627,8e-4 -0.138367,-0.0214 -0.296694,-0.0314 -0.428803,-0.0801 -0.0059,-0.002 0.01251,2.6e-4 0.01876,5.3e-4 -0.143055,-0.0188 -0.300167,-0.0288 -0.438721,-0.0714 -0.0041,-0.001 0.0087,-5.3e-4 0.01296,-0.001 -0.187388,-0.0188 -0.374295,-0.0422 -0.55963,-0.0761 -0.154075,-0.0169 -0.345946,-0.033 -0.514282,-0.0568 -0.177649,-0.024 -0.354856,-0.0422 -0.534087,-0.0522 -0.181634,-0.018 -0.363231,-0.0387 -0.543103,-0.07 -0.233561,-0.0174 -0.466815,-0.0395 -0.698537,-0.0741 -0.185269,-0.0277 -0.372769,-0.0349 -0.558599,-0.0601 -0.187378,-0.024 -0.373459,-0.0554 -0.562165,-0.0669 -0.188233,-0.0196 -0.375798,-0.0482 -0.564833,-0.0572 -0.232788,-0.0142 -0.46532,-0.0322 -0.697203,-0.0573 -0.19784,-0.0209 -0.396793,-0.0188 -0.595413,-0.0306 -0.244055,-0.0136 -0.487836,-0.0312 -0.730922,-0.0572 -0.204978,-0.0198 -0.410639,-0.0215 -0.616294,-0.0331 -0.234135,-0.0145 -0.468061,-0.0334 -0.700733,-0.0638 -0.179564,-0.0221 -0.360549,-0.0241 -0.540808,-0.0409 -0.152353,-0.0133 -0.304692,-0.0352 -0.457287,-0.0358 -0.180328,2e-5 -0.360657,5e-5 -0.540985,10e-5 -0.18222,6e-5 -0.36444,1.4e-4 -0.54666,2.7e-4 -0.190441,1.9e-4 -0.380882,5.3e-4 -0.571322,0.001 -0.177101,5.3e-4 -0.354202,10e-4 -0.531297,0.003 -0.1641,0.002 -0.328207,0.004 -0.492254,0.008 -0.14262,0.004 -0.285276,0.01 -0.42752,0.0214 -0.198648,0.0174 -0.395911,0.0494 -0.595584,0.0541 -0.143021,10e-6 -0.286041,2e-5 -0.429062,5e-5 -0.135963,4e-5 -0.271926,8e-5 -0.407889,1.8e-4 -0.127369,10e-5 -0.254738,2.3e-4 -0.382107,5.3e-4 -0.121004,2.6e-4 -0.242009,7.9e-4 -0.36301,0.002 -0.11773,0.001 -0.235461,0.002 -0.353169,0.005 -0.104136,0.003 -0.20829,0.006 -0.312242,0.0127 -0.100908,0.007 -0.201701,0.0159 -0.301766,0.0308 -0.201338,0.0277 -0.403624,0.044 -0.607008,0.0375 -0.142126,10e-6 -0.284253,10e-6 -0.426379,2e-5 -0.144286,10e-6 -0.288572,3e-5 -0.432859,6e-5 -0.147461,4e-5 -0.294923,8e-5 -0.442385,2e-4 -0.148327,1.1e-4 -0.296654,2.4e-4 -0.444981,5.2e-4 -0.148251,2.7e-4 -0.296503,8e-4 -0.444752,0.002 -0.14236,0.001 -0.284723,0.002 -0.427058,0.005 -0.132314,0.003 -0.264664,0.006 -0.396794,0.0143 -0.112257,0.008 -0.224514,0.0169 -0.33586,0.0333 -0.172049,0.028 -0.342833,0.0653 -0.517026,0.0781 -0.161236,0.0204 -0.319355,0.0568 -0.479512,0.084 -0.169382,0.0217 -0.33564,0.0621 -0.505301,0.0823 -0.118883,0.012 -0.236657,0.0308 -0.353454,0.0563 -0.122234,0.0191 -0.244828,0.0326 -0.366758,0.0528 -0.127855,0.0278 -0.255756,0.0563 -0.385919,0.071 -0.112151,0.0242 -0.220558,0.062 -0.332962,0.0851 -0.09992,0.0176 -0.201865,0.0596 -0.298022,0.0868 -0.0043,0.001 0.0084,-0.003 0.01255,-0.005 0.09928,-0.0422 -0.364779,0.14592 -0.228184,0.0855 -0.06822,0.022 -0.202062,0.0823 -0.203715,0.0768 -0.16202,0.0763 -0.178582,0.0778 -0.364501,0.16876 0.08021,-0.0416 -0.174933,0.0892 -0.108593,0.0516 -0.134733,0.078 -0.197301,0.10585 -0.325582,0.18403 -0.08204,0.0436 -0.169635,0.0959 -0.182188,0.0963 -0.107923,0.0713 -0.213087,0.13749 -0.298284,0.19517 -0.104493,0.0691 -0.208052,0.13859 -0.310381,0.21108 -0.02297,0.0144 -0.139704,0.0998 -0.1855308,0.14842 0.065872,-0.0682 -0.2132092,0.19722 -0.2137371,0.19193 -0.056801,0.0498 -0.1360765,0.13644 -0.1887987,0.18548 -0.088021,0.0909 -0.1796994,0.18264 -0.2522096,0.25552 -0.092718,0.0977 -0.1486908,0.15589 -0.2382366,0.25036 -0.00342,0.004 0.00593,-0.008 0.00889,-0.012 -0.091381,0.10176 -0.12739,0.13834 -0.2198785,0.24515 -0.096901,0.11068 -0.1975604,0.21744 -0.2985336,0.32439 -0.080644,0.0879 -0.1595829,0.17743 -0.2362229,0.2689 -0.097835,0.11421 -0.1902706,0.2117 -0.2861416,0.32892 -0.099404,0.0991 -0.1795394,0.21869 -0.2777037,0.31943 -0.105672,0.12247 -0.1236515,0.13346 -0.2243027,0.2749 -0.097321,0.13032 -0.1955358,0.25992 -0.2928895,0.39031 -0.084908,0.11328 -0.1704514,0.2253 -0.2458588,0.34547 -0.085365,0.1279 -0.1772697,0.25615 -0.2523997,0.37017 -0.088735,0.14552 -0.1824472,0.28761 -0.2698547,0.43388 -0.086846,0.13974 -0.1751451,0.27859 -0.2607042,0.41914 -0.079218,0.12754 -0.1560338,0.25653 -0.2360444,0.38376 -0.089698,0.15035 -0.1756894,0.3029 -0.2697482,0.45063 -0.079925,0.12014 -0.1564016,0.24155 -0.2319274,0.36476 -0.058488,0.0987 -0.1370746,0.2255 -0.1973667,0.33904 -0.066931,0.11106 -0.1412034,0.24137 -0.2182945,0.37982 -0.061898,0.0995 -0.084709,0.14314 -0.1465054,0.2704 -0.078071,0.1556 -0.088606,0.16653 -0.1540057,0.32481 0.043682,-0.13273 -0.1450613,0.36643 -0.1135314,0.29219 0.00888,-0.0408 0.00274,-0.0105 -0.022008,0.0633 -0.010848,0.0323 -0.021937,0.0646 -0.033265,0.0967 -0.00524,0.0149 -0.013396,0.0599 -0.016449,0.0444 -0.00369,-0.0187 0.019394,-0.0737 0.014301,-0.0553 -0.00778,0.028 -0.014915,0.0562 -0.022373,0.0844 -0.00336,0.0117 -0.00953,0.0472 -0.010078,0.0351 -8.202e-4,-0.0184 0.012652,-0.0726 0.0092,-0.0545 -0.01646,0.0863 -0.030851,0.17309 -0.05099,0.25871 0.00132,-0.0156 0.00589,-0.0623 0.00394,-0.0468 -0.015399,0.12291 -0.024299,0.24671 -0.043598,0.36918 -0.00108,0.006 -0.00251,0.0258 -0.00328,0.0193 -0.00209,-0.0177 -1.56e-5,-0.0715 -7.408e-4,-0.0536 -0.00392,0.0959 0.00334,0.19233 5.027e-4,0.2883 3.969e-4,0.15016 8.202e-4,0.30031 0.00193,0.45046 0.00119,0.15097 0.00241,0.30194 0.00572,0.45289 0.00321,0.13256 0.0074,0.26512 0.015491,0.39749 0.00593,0.0864 0.011832,0.17306 0.027852,0.25829 0.025281,0.12125 0.058963,0.24003 0.090419,0.35977 0.029249,0.11242 0.069341,0.22186 0.098232,0.33432 0.060401,0.17375 0.1221391,0.34701 0.1760326,0.52295 0.029738,0.12424 0.083243,0.2417 0.1141309,0.36575 0.055384,0.1635 0.1101051,0.32702 0.1693376,0.4892 0.05021,0.16385 0.1127509,0.32379 0.1651347,0.48696 0.043322,0.14246 0.09424,0.28231 0.1431631,0.4229 0.057328,0.15661 0.1125077,0.31398 0.1717461,0.46989 0.062007,0.16858 0.1199144,0.33838 0.1902687,0.50387 0.057538,0.14838 0.1126506,0.29772 0.1768914,0.4434 0.072154,0.16022 0.1375868,0.32342 0.2174883,0.48004 0.078215,0.17023 0.1579626,0.33978 0.2334591,0.51125 0.077407,0.17126 0.1479526,0.34562 0.2337012,0.51298 0.086721,0.18623 0.177348,0.37063 0.260754,0.5584 0.064987,0.15047 0.1309142,0.30059 0.196737,0.45064 0.079017,0.16399 0.1555903,0.32922 0.2280658,0.4962 0.050899,0.11326 0.1017349,0.2268 0.1536007,0.33934 0.049459,0.0957 0.099007,0.19518 0.1497832,0.28362 0.073074,0.11886 0.1499399,0.25004 0.2223159,0.35781 1.1069664,1.66045 -1.2412644,3.22594 -2.348231,1.56549 z"
       inkscape:connector-curvature="0" />
    <path
       style="fill:#ffffff;fill-opacity:1;fill-rule:nonzero;stroke:none;stroke-width:0.26458332"
       id="path4657"
       d="m 12.575164,273.05807 c 0.15002,0.22637 0.254238,0.47716 0.359803,0.72598 0.114862,0.28557 0.204813,0.58005 0.27842,0.87867 0.06972,0.28203 0.13249,0.56594 0.187851,0.85114 0.05841,0.3105 0.105659,0.62274 0.156417,0.93451 0.0535,0.31129 0.08932,0.62511 0.134062,0.93769 0.04947,0.29455 0.06351,0.59347 0.101054,0.88934 0.03449,0.24754 0.06355,0.49572 0.08639,0.7446 0.0082,0.1415 0.03867,0.28052 0.06163,0.4203 0.02262,0.14071 0.03969,0.28217 0.05379,0.42396 0.0056,0.0582 0.01085,0.1164 0.01595,0.17464 0.115524,0.94952 -2.414605,0.76627 -2.64515,0.83509 -0.11323,-0.19388 -0.179635,-0.4054 -0.217102,-0.62561 -0.01194,-0.0714 -0.01741,-0.14342 -0.02281,-0.21547 -0.133729,-1.99112 2.68215,-2.18025 2.815879,-0.18912 v 0 c -0.0026,-0.0169 -0.0044,-0.0337 -0.0078,-0.0506 -0.02609,-0.12794 -0.07252,-0.2458 -0.140102,-0.35772 0.49209,0.8358 -2.548423,1.81393 -2.594367,0.84974 -0.0042,-0.0477 -0.0084,-0.0954 -0.013,-0.14301 -0.008,-0.0819 -0.01742,-0.16355 -0.03026,-0.24482 -0.03386,-0.20648 -0.07422,-0.41251 -0.08727,-0.6217 -0.02009,-0.22358 -0.04819,-0.44622 -0.07844,-0.66864 -0.03122,-0.27361 -0.05039,-0.54862 -0.09213,-0.82103 -0.04239,-0.29612 -0.07635,-0.59338 -0.12655,-0.88834 -0.04552,-0.28431 -0.08851,-0.5689 -0.141837,-0.85191 -0.04546,-0.24131 -0.100821,-0.48086 -0.159271,-0.71931 -0.03497,-0.15066 -0.08211,-0.29764 -0.134673,-0.44307 -0.03294,-0.0781 -0.07903,-0.19016 -0.108707,-0.25979 -1.1069666,-1.66044 1.241264,-3.22593 2.348231,-1.56548 z"
       inkscape:connector-curvature="0" />
    <path
       style="fill:#ffffff;fill-opacity:1;fill-rule:nonzero;stroke:none;stroke-width:0.26458332"
       id="path4659"
       d="m 8.6018163,277.1047 c 0.1473308,-0.10308 0.2997536,-0.19828 0.4526634,-0.29279 0.1969918,-0.12844 0.4009377,-0.24606 0.6071243,-0.35901 0.22493,-0.12533 0.452901,-0.24533 0.682483,-0.36192 0.239041,-0.12286 0.480454,-0.24116 0.721996,-0.35907 0.260585,-0.12298 0.528069,-0.23003 0.7931,-0.34272 0.260067,-0.10147 0.522912,-0.1961 0.786192,-0.28897 0.226635,-0.0813 0.45762,-0.14891 0.686805,-0.22223 0.193183,-0.0655 0.393242,-0.10576 0.588865,-0.16193 0.206879,-0.0602 0.418102,-0.10236 0.630766,-0.13567 0.154406,-0.0229 0.309871,-0.0374 0.465497,-0.0489 0.159393,-0.0169 0.316431,-0.007 0.476484,2.5e-4 1.983576,0.21885 1.674078,3.02405 -0.309498,2.8052 v 0 c 0.35617,0.006 0.116073,2.6e-4 0.03444,0.01 -0.0787,0.005 -0.15728,0.0127 -0.235499,0.0229 -0.09615,0.0145 -0.191779,0.032 -0.285168,0.0598 -0.173404,0.0496 -0.349618,0.0874 -0.521607,0.14176 -0.19892,0.0617 -0.398309,0.12126 -0.594501,0.19154 -0.208364,0.073 -0.41561,0.14941 -0.622767,0.2257 -0.21899,0.0924 -0.439348,0.1815 -0.655647,0.28016 -0.228455,0.1114 -0.457044,0.22261 -0.6827,0.33952 -0.204378,0.10353 -0.407138,0.21043 -0.607105,0.32224 -0.162249,0.0881 -0.321711,0.18148 -0.476048,0.28282 -0.12525,0.0773 -0.250396,0.15454 -0.370391,0.23998 -1.6604494,1.10697 -3.2259366,-1.24126 -1.5654867,-2.34823 z"
       inkscape:connector-curvature="0" />
    <path
       style="fill:#ffffff;fill-opacity:1;fill-rule:nonzero;stroke:none;stroke-width:0.26458332"
       id="path4661"
       d="m 38.295156,270.72625 c 0.182616,-0.0354 -0.0795,0.0246 0.0359,-0.0124 0.0326,-0.0104 0.03277,-0.0106 0.06527,-0.0213 -0.287179,0.0896 -0.512387,0.30974 -0.67351,0.55616 -0.32479,0.57312 -0.189466,1.19524 0.221199,1.65056 0.180356,0.1764 0.41184,0.31036 0.6594,0.36194 0.03707,0.005 0.07393,0.0122 0.111054,0.0171 -0.02909,-10e-4 -0.0582,-10e-4 -0.0873,-0.002 0.477145,-0.0362 0.474819,-0.0631 0.853065,-0.31612 -0.05056,0.046 -0.104336,0.0882 -0.158941,0.1292 -0.0082,0.006 -0.03223,0.0254 -0.02471,0.0184 0.256947,-0.23956 0.143992,-0.10832 0.286372,-0.28676 -0.05359,0.0635 -0.108852,0.12556 -0.160761,0.19041 -0.02037,0.0255 0.04432,-0.0478 0.06607,-0.0721 0.07316,-0.0817 -0.103119,0.173 0.105018,-0.16288 0.0419,-0.0774 0.06992,-0.16088 0.0896,-0.24653 -0.0037,0.0303 0.0048,-0.038 0.0081,-0.0538 7.94e-4,-0.004 -5.29e-4,0.009 -7.94e-4,0.0132 -7.94e-4,-0.007 -7.94e-4,0.0262 -0.0013,0.0196 -0.03011,-0.28185 -0.01749,-0.4653 -0.135271,-0.69819 -0.118888,-0.22086 -0.301985,-0.40799 -0.521626,-0.5266 -0.128164,-0.0653 -0.256751,-0.10998 -0.397459,-0.12836 -0.09051,-0.0426 -0.388872,0.0391 -0.532173,0.0766 -0.01617,0.004 0.03138,-0.0115 0.04707,-0.0172 0.152011,-0.0495 0.587962,-0.18288 0.01632,0.005 -0.109442,0.0578 -0.101756,0.049 -0.182806,0.10381 -0.01058,0.007 -0.04176,0.0294 -0.03099,0.0225 0.125402,-0.0798 0.231397,-0.1498 0.364736,-0.20904 0.01487,-0.006 0.05837,-0.0266 0.04459,-0.0184 -0.260617,0.15634 -0.407538,0.20954 -0.577099,0.44337 -0.08872,0.12716 -0.1,0.21906 -0.18289,0.41307 -0.110577,0.45099 0.01167,0.92488 0.317743,1.259 0.173927,0.18159 0.402347,0.31218 0.64484,0.37217 0.05045,0.0119 0.102087,0.0181 0.153633,0.0232 -0.01077,-5.3e-4 -0.05447,-0.002 -0.0081,-5.3e-4 -0.01736,-2.4e-4 -0.03473,-5.3e-4 -0.05209,-5.3e-4 -0.0093,-1.1e-4 -0.01865,-2e-4 -0.02799,-2.7e-4 -0.0032,-3e-5 -0.0064,-6e-5 -0.0096,-9e-5 -1.995508,-0.0203 -1.966835,-2.84236 0.02868,-2.82208 v 0 c 0.0033,3e-5 0.0066,7e-5 0.0099,1e-4 0.01011,10e-5 0.02019,2.1e-4 0.03029,2.7e-4 0.02919,2.6e-4 0.05838,5.3e-4 0.08756,10e-4 0.03956,0.001 0.07911,0.003 0.11861,0.005 0.09856,0.007 0.196882,0.0186 0.293156,0.0411 0.28766,0.0682 0.562631,0.20399 0.766982,0.42567 0.344384,0.36999 0.512088,0.86978 0.383249,1.38435 -0.08404,0.20082 -0.121307,0.34753 -0.233971,0.50512 -0.217586,0.30689 -0.341517,0.36041 -0.686398,0.56661 -0.0036,0.002 0.0076,-0.003 0.0114,-0.005 0.09335,-0.0434 0.161272,-0.0976 0.251847,-0.15416 0.02156,-0.0135 -0.04018,0.0312 -0.06097,0.0458 -0.116893,0.0822 -0.108977,0.0716 -0.25748,0.15322 -0.106505,0.037 -0.21301,0.074 -0.319516,0.11107 0.05417,-0.0138 0.161504,-0.0504 0.06336,-0.0166 -0.243911,0.0746 -0.497107,0.12923 -0.753441,0.0937 -0.213638,-0.0231 -0.415867,-0.0727 -0.610526,-0.16938 -0.280532,-0.14751 -0.522779,-0.35511 -0.672843,-0.6441 -0.141531,-0.26941 -0.226936,-0.56236 -0.193432,-0.87579 0.0071,-0.0918 0.01672,-0.18354 0.03471,-0.27394 0.0351,-0.17744 0.08853,-0.35062 0.171249,-0.51199 0.05811,-0.0978 0.104256,-0.18273 0.170151,-0.26973 0.04718,-0.0623 0.193021,-0.2452 0.150942,-0.17935 -0.03623,0.0567 -0.08505,0.10428 -0.127569,0.15642 0.03367,-0.0436 0.06292,-0.091 0.100997,-0.13072 0.07558,-0.0789 0.159073,-0.14991 0.239001,-0.22445 0.0036,-0.003 0.01548,-0.0121 0.01193,-0.009 -0.01654,0.0161 -0.04233,0.0221 -0.05215,0.0457 0.443386,-0.30563 0.522089,-0.37137 1.086628,-0.42356 0.05039,5.3e-4 0.100783,0.001 0.151146,0.003 0.107164,0.004 0.21423,0.0115 0.319852,0.0313 0.296244,0.058 0.58152,0.18564 0.797333,0.4052 0.460838,0.5043 0.588258,1.13181 0.234455,1.76939 -0.213543,0.33556 -0.505979,0.58963 -0.887722,0.71017 -0.19041,0.0623 -0.383109,0.12148 -0.582682,0.14627 -1.975556,0.28222 -2.37468,-2.51164 -0.399123,-2.79386 z"
       inkscape:connector-curvature="0" />
    <path
       style="fill:#ffffff;fill-opacity:1;fill-rule:nonzero;stroke:none;stroke-width:0.26458332"
       id="path4663"
       d="m 34.462111,275.75651 c 0.04905,-0.16131 0.122132,-0.31305 0.180655,-0.47075 0.01918,-0.0795 0.107037,-0.29797 0.17146,-0.42561 0.03968,-0.0713 0.0846,-0.1394 0.132226,-0.20556 0.0083,-0.0116 0.03287,-0.0467 0.02545,-0.0345 -0.148963,0.24451 -0.07774,0.10284 -0.152453,0.25978 -0.0076,0.0186 -0.01513,0.0372 -0.02228,0.0559 0.443156,0.54813 1.048263,2.18194 1.906355,1.7017 0.147896,-0.0828 0.25396,-0.14759 0.366157,-0.25806 0.0778,-0.0809 0.06023,-0.0617 0.190576,-0.25471 0.02051,-0.0304 0.0703,-0.12848 0.0505,-0.0976 -0.306917,0.47788 -0.208706,0.3371 -0.132442,0.23154 0.254703,-0.43211 -0.257681,0.42031 -0.05124,0.0857 0.180539,-0.36491 -0.145478,0.29851 -0.02671,0.0517 0.01815,-0.0373 0.02893,-0.0807 0.03681,-0.11796 -0.0035,0.0387 2.65e-4,-0.004 -0.0021,0.035 -0.0011,0.0188 -0.0026,0.0376 -0.003,0.0564 -1.03e-4,0.004 2.64e-4,0.0164 -2.65e-4,0.0124 -0.06632,-0.43023 -0.05581,-0.61333 -0.330949,-0.92931 -0.382735,-0.4249 -1.106651,-0.53844 -1.611746,-0.30545 -0.180282,0.0782 0.229672,-0.0957 0.276757,-0.11022 0.01868,-0.006 0.07416,-0.024 0.05647,-0.0157 -0.500502,0.23461 -0.264787,0.0737 -0.554786,0.29543 0.08973,-0.0809 0.188291,-0.14751 0.292163,-0.20772 0.0118,-0.007 0.04646,-0.0283 0.03561,-0.0201 -0.348594,0.26427 -0.192963,0.1101 -0.386905,0.32015 -0.283705,0.35684 0.432363,-0.45777 0.09447,-0.11285 -0.01685,0.0172 -0.01815,0.0208 -0.0294,0.0337 0.07277,-0.15161 -0.155091,0.28314 -0.177755,0.34106 -0.0039,0.007 -0.01908,0.0618 -0.02133,0.0699 -0.06403,0.37312 -0.02127,0.19926 0.111916,0.86655 0.106868,0.20244 0.244666,0.37758 0.432197,0.50675 -0.150212,-0.16392 -0.312452,-0.31759 -0.450638,-0.49178 -0.03914,-0.0493 -0.09368,-0.20029 -0.119671,-0.27799 -0.01,-0.0299 -0.04217,-0.11836 -0.02653,-0.0909 0.112167,0.19669 0.21894,0.39641 0.328409,0.59461 0.115403,0.11814 0.244184,0.21989 0.393927,0.28894 0.12165,0.0546 0.245063,0.0884 0.374433,0.106 -0.02445,-0.002 -0.06639,-0.005 0.04353,0.002 0.369369,-0.0366 0.682138,-0.0901 0.949169,-0.33253 0.0011,-7.9e-4 0.0019,-0.002 0.003,-0.003 0.232111,-1.01456 0.548807,-1.09744 0.251844,-1.65353 -0.01249,-0.0234 -0.09239,-0.15332 -0.121261,-0.18003 -0.119304,-0.11035 -0.246002,-0.21241 -0.369004,-0.31862 -0.145968,-0.0848 -0.305377,-0.14292 -0.47298,-0.16394 0.08449,0.0153 0.168976,0.0307 0.253463,0.046 1.933596,0.49363 1.235496,3.22815 -0.698103,2.73452 v 0 c 0.06424,0.0102 0.128482,0.0203 0.19272,0.0305 -0.244139,-0.0256 -0.483119,-0.0827 -0.696907,-0.2091 -0.131538,-0.11118 -0.267611,-0.21721 -0.394613,-0.33355 -0.03622,-0.0332 -0.137242,-0.19323 -0.1538,-0.22334 -0.320453,-0.58266 -0.04337,-0.70415 0.221205,-1.7326 0.01857,-0.0184 0.03722,-0.0367 0.0563,-0.0545 0.307208,-0.28454 0.628698,-0.39643 1.073986,-0.42725 0.0447,0.002 0.08939,0.004 0.133903,0.009 0.173837,0.0172 0.345689,0.0511 0.505945,0.12699 0.189457,0.0858 0.360886,0.1985 0.506243,0.35055 0.11494,0.204 0.228695,0.40868 0.344821,0.61201 0.0085,0.0148 -0.0093,-0.0329 -0.01487,-0.0491 -0.02336,-0.0673 -0.06942,-0.19035 -0.103113,-0.23171 -0.136002,-0.16693 -0.293368,-0.31526 -0.440053,-0.47289 0.222901,0.15165 0.399725,0.34319 0.52613,0.58624 0.09573,0.45883 0.201279,0.62235 0.112312,1.00214 -0.01593,0.0707 -0.03369,0.141 -0.05667,0.20979 -0.06808,0.18035 -0.155366,0.35457 -0.277972,0.5043 -0.05079,0.0639 -0.325003,0.39308 -0.204546,0.22514 0.41207,-0.57453 0.215913,-0.23226 0.11965,-0.12101 -0.0427,0.0476 -0.07964,0.10099 -0.128106,0.14266 -0.332211,0.28561 -0.401738,0.31234 -0.246701,0.1929 0.04295,-0.0331 0.08442,-0.0681 0.12663,-0.10209 -0.0605,0.0475 -0.114236,0.1051 -0.181486,0.14238 -0.14079,0.078 -0.618371,0.28774 -0.34018,0.16673 0.06359,-0.0277 0.124868,-0.0605 0.188532,-0.088 0.02151,-0.009 -0.04126,0.0222 -0.0619,0.0333 -0.567761,0.26951 -1.297662,0.1932 -1.744466,-0.30393 -0.263078,-0.29677 -0.429689,-0.66506 -0.409874,-1.07571 0.0016,-0.0546 0.0045,-0.10918 0.0083,-0.16369 0.0069,-0.0998 0.01656,-0.19933 0.03259,-0.29809 0.03076,-0.17076 0.07061,-0.34012 0.138473,-0.50053 0.03392,-0.0763 0.06638,-0.14958 0.105034,-0.22297 0.01214,-0.0231 0.04566,-0.0935 0.03695,-0.0689 -0.01302,0.0367 -0.06704,0.14075 -0.04998,0.10571 0.02611,-0.0536 0.05142,-0.10766 0.07713,-0.16149 0.0669,-0.11724 0.02445,-0.0461 0.120547,-0.19468 0.01048,-0.0162 -0.02223,0.0317 -0.03162,0.0485 -0.02529,0.0454 -0.09599,0.18425 -0.07242,0.13796 0.08296,-0.16291 0.05898,-0.12201 0.112001,-0.2083 0.07273,-0.11422 0.260604,-0.35479 -0.05029,0.10942 -0.02754,0.0411 0.03945,-0.0913 0.06634,-0.13282 0.06169,-0.0953 0.131064,-0.18536 0.198684,-0.27652 0.0091,-0.0123 0.02093,-0.0224 0.0314,-0.0337 0.168812,-0.17071 0.365395,-0.30731 0.591677,-0.39167 0.04363,-0.0163 0.09901,-0.0736 0.133218,-0.042 0.607216,0.56078 1.158145,1.1796 1.737217,1.7694 -0.02215,0.0722 -0.04614,0.14394 -0.07531,0.21368 -0.03377,0.0737 -0.289253,0.51282 -0.134327,0.2471 0.08178,-0.17261 -5.29e-4,0.01 0.09534,-0.24947 0.0071,-0.0193 -0.01069,0.0399 -0.01632,0.0597 -0.02305,0.0808 -0.04811,0.16119 -0.07822,0.23971 -0.03077,0.0824 -0.06215,0.16436 -0.09589,0.24558 -0.01048,0.0252 -0.03659,0.10209 -0.03277,0.0751 0.0029,-0.0205 0.01132,-0.0399 0.01699,-0.0598 -0.548238,1.91883 -3.261871,1.14351 -2.713633,-0.77532 z"
       inkscape:connector-curvature="0" />
    <path
       style="fill:#ffffff;fill-opacity:1;fill-rule:nonzero;stroke:none;stroke-width:0.26458332"
       id="path4665"
       d="m 40.371138,275.75651 c 0.02754,-0.0992 0.05874,-0.19735 0.08223,-0.29758 0.01461,-0.0577 0.01794,-0.0825 0.0209,-0.10351 0.0039,-0.0277 0.0075,-0.0555 0.01103,-0.0833 0.10609,0.44469 0.161997,1.13992 0.677879,1.37177 0.101425,0.0456 0.205808,0.0843 0.308713,0.12641 0.276389,0.0792 0.574561,0.029 0.841854,-0.0667 -0.09462,0.048 0.103095,-0.0485 0.07714,-0.0368 -0.059,0.0267 -0.230497,0.11706 -0.176506,0.0813 0.110117,-0.073 0.217847,-0.10212 0.320035,-0.18045 -0.05686,0.0402 -0.114306,0.0796 -0.170588,0.1206 -0.04082,0.0297 0.08347,-0.0569 0.12419,-0.0868 0.08087,-0.0593 0.138785,-0.14658 0.201698,-0.22148 0.248539,-0.3862 -0.222608,0.29668 -0.07135,0.10967 -0.0024,0.003 -0.0088,0.0141 -0.0068,0.0104 0.06906,-0.12135 0.112149,-0.20392 0.150807,-0.33227 0.03443,-0.3526 0.0599,-0.31265 0.01307,-0.58568 -0.01209,-0.0705 -0.06665,-0.22717 -0.04362,-0.15472 0.04944,0.15552 0.02442,0.0671 0.05444,0.17804 0.0034,0.0138 0.01561,0.0546 0.01027,0.0414 -0.113123,-0.278 -0.137816,-0.40377 -0.330867,-0.60943 0.148804,0.11982 -0.191127,-0.13865 -0.243596,-0.16672 -0.09603,-0.0492 -0.198398,-0.0813 -0.304134,-0.0996 -0.0394,-0.004 0.01228,-8e-4 0.02736,-2.7e-4 0.13467,0.0124 0.293793,-0.0549 -0.244134,0.032 -0.05642,0.009 -0.10967,0.0322 -0.164504,0.0483 -0.25966,0.0989 0.135937,-0.0517 0.185097,-0.0677 0.188021,-0.0604 -0.133692,0.0416 -0.42975,0.23437 -0.06464,0.0421 -0.221234,0.21507 -0.166748,0.16047 0.111532,-0.11178 0.207264,-0.20138 0.334052,-0.28792 -0.384341,0.26679 -0.635087,0.71474 -0.615653,1.18441 0.08598,0.42809 0.565118,1.15946 0.209235,0.64593 -0.0046,-0.007 -0.01921,-0.0261 -0.01373,-0.0201 0.291941,0.32055 0.293621,0.34968 0.643895,0.5019 0.307427,0.0924 -0.190042,-0.0587 -0.368969,-0.16222 -0.15071,-0.0785 0.158477,0.0711 0.213675,0.0885 0.161898,0.0562 0.543523,0.003 0.651671,-0.002 0.142161,-0.0387 0.279321,-0.0933 0.400278,-0.17762 0.147256,-0.10384 -0.335503,0.13707 -0.486913,0.23474 -0.13647,0.088 0.294373,-0.13725 0.441558,-0.20587 0.204814,-0.14976 0.227764,-0.2266 0.394687,-0.46984 0.05351,-0.10189 0.09029,-0.2346 0.110087,-0.33984 0.0013,-0.0107 0.0024,-0.0214 0.0037,-0.0322 0.0011,-5.3e-4 -0.0032,0.0136 5.29e-4,-0.003 -0.09243,1.99347 -2.911626,1.86275 -2.819193,-0.13072 v 0 c 0.0031,-0.059 0.0061,-0.11804 0.01347,-0.17673 0.02381,-0.1907 0.06801,-0.3788 0.153284,-0.55223 0.168677,-0.2513 0.265797,-0.42348 0.504118,-0.59329 1.492687,-0.71393 -0.376346,0.20547 0.03818,-0.0237 0.16582,-0.11799 0.344818,-0.21143 0.543581,-0.26354 0.294966,-0.0181 0.5519,-0.0689 0.825294,0.0216 0.14932,0.0444 0.294862,0.1021 0.427982,0.18414 0.297415,0.17275 -0.672928,-0.21822 -0.256754,-0.10382 0.03474,0.01 0.06915,0.0203 0.103727,0.0304 0.332049,0.1389 0.579358,0.28396 0.799835,0.59398 -0.30675,-0.4069 0.282573,0.4535 0.283528,0.7812 0.02677,0.52596 -0.197493,1.03359 -0.640149,1.34076 0.08956,-0.0631 0.323043,-0.29619 0.243102,-0.22125 -0.233775,0.21912 -0.290103,0.33274 -0.669049,0.44705 -0.06384,0.0205 0.317537,-0.13435 -0.05355,0.0214 -0.228505,0.0712 -0.463971,0.12245 -0.704771,0.10227 -0.09763,-0.004 -0.195315,-0.009 -0.292227,-0.0224 -0.196591,-0.028 -0.38993,-0.0756 -0.568468,-0.16576 -0.170071,-0.0871 -0.330454,-0.19303 -0.465005,-0.33007 -0.21989,-0.21347 -0.374288,-0.45882 -0.455454,-0.75668 0.0093,0.0318 0.04298,0.12546 0.03136,0.0944 -0.110578,-0.29535 -0.126903,-0.5893 -0.06764,-0.90344 0.05756,-0.2038 0.124143,-0.4031 0.24873,-0.57857 0.02064,-0.0309 0.238837,-0.37983 0.117769,-0.16527 -0.291812,0.51714 -0.09144,0.1072 -0.02553,0.0246 0.178692,-0.22065 0.279522,-0.32883 0.509543,-0.4933 0.04296,-0.0307 -0.08512,0.0625 -0.127675,0.0938 0.05447,-0.0434 0.120423,-0.0981 0.178687,-0.1316 0.280344,-0.16115 0.353613,-0.17158 0.118684,-0.067 -0.04818,0.0215 0.246036,-0.12507 0.141578,-0.0706 0.325133,-0.12137 0.681345,-0.16903 1.018024,-0.0757 0.11162,0.0445 0.224981,0.0848 0.33486,0.13337 0.508351,0.22485 0.808349,0.96253 0.75162,1.45181 -0.006,0.0471 -0.01217,0.0942 -0.01902,0.14125 -0.01754,0.11658 -0.03973,0.23232 -0.068,0.3468 -0.03375,0.13957 -0.07296,0.27758 -0.113157,0.41541 -0.548235,1.91883 -3.261871,1.14351 -2.713633,-0.77532 z"
       inkscape:connector-curvature="0" />
    <path
       style="fill:#ffffff;fill-opacity:1;fill-rule:nonzero;stroke:none;stroke-width:0.26458332"
       id="path4667"
       d="m 38.577612,280.54888 c -0.01111,-0.0211 -0.10927,-0.13691 -0.02246,-0.0283 0.140655,0.13929 0.326578,0.19739 0.517848,0.23499 0.108691,0.0186 0.220816,0.001 0.340989,-0.023 -0.08149,0.0274 -0.06806,0.0231 0.210826,-0.0862 0.05441,-0.0213 -0.103267,0.0618 -0.06686,0.0372 0.0589,-0.0398 0.11865,-0.0783 0.177975,-0.11747 0.135025,-0.10794 0.245454,-0.24727 0.319307,-0.40361 0.03627,-0.0643 0.06414,-0.18435 0.07744,-0.24748 -2.65e-4,0.003 -0.0013,0.0128 -0.0011,0.01 0.02741,-0.20789 -0.0089,-0.42177 -0.08675,-0.61424 0.01701,0.0441 0.07324,0.1741 0.05106,0.13234 -0.03835,-0.0722 -0.0636,-0.15076 -0.09979,-0.22408 -0.07881,-0.15971 -0.220556,-0.28352 -0.358669,-0.39037 -0.198919,-0.12318 0.36131,0.22837 0.01042,0.01 -0.01214,-0.008 -0.02508,-0.0137 -0.03761,-0.0206 -0.07597,-0.0399 -0.1543,-0.068 -0.23807,-0.084 0.0919,0.005 -0.164735,-0.008 -0.247158,-0.007 -0.02855,1.3e-4 -0.0568,0.006 -0.08515,0.009 -0.0075,7.9e-4 -0.02958,0.005 -0.02225,0.004 0.01934,-0.004 0.07931,-0.0155 0.101795,-0.0198 -0.0313,0.008 0.09319,-0.0188 0.07017,-0.0129 -0.05587,0.0144 -0.112517,0.0259 -0.168209,0.041 -0.03928,0.0107 -0.203324,0.0802 0.03117,-0.0161 0.10786,-0.0257 0.315196,-0.15419 -0.110207,0.0575 -0.06695,0.0333 -0.128711,0.0814 -0.185936,0.12947 0.0647,-0.0487 0.130858,-0.0954 0.194083,-0.14597 0.05736,-0.0458 -0.120256,0.0849 -0.174741,0.13416 -0.10612,0.0959 -0.215564,0.30177 -0.25535,0.35917 -0.114276,0.38218 -0.128259,0.31228 -0.137022,0.58979 -7.94e-4,0.0249 0.0013,0.0498 0.0027,0.0747 0.0011,0.0183 0.0075,0.073 0.0053,0.0548 -0.0026,-0.0221 -0.0051,-0.0441 -0.0077,-0.0662 0.07839,0.32639 0.04294,0.28482 0.151344,0.50048 0.01064,0.0212 0.02357,0.0411 0.03588,0.0614 0.0061,0.0101 0.02529,0.04 0.01945,0.0297 -0.03772,-0.0662 -0.08703,-0.1266 -0.115046,-0.19743 -0.0265,-0.067 0.07362,0.12386 0.110437,0.18578 0.103878,0.14407 0.242369,0.26406 0.398799,0.34787 0.04824,0.0208 0.191899,0.0857 0.144703,0.0626 -0.268676,-0.13153 -0.171783,-0.0616 -0.355621,-0.18 -0.02342,-0.0151 -0.09263,-0.0618 -0.06857,-0.0478 0.03859,0.0225 0.07431,0.0496 0.112215,0.0732 0.01349,0.008 0.02791,0.0152 0.04187,0.0228 0.06133,0.0318 0.127635,0.0535 0.194079,0.0719 -0.02529,-0.005 0.05091,0.009 0.07638,0.0132 0.444257,-0.007 0.791361,-0.0877 1.095314,-0.40323 0.157594,-0.16996 0.165235,-0.29729 0.313754,-0.59062 0.0086,-0.0169 0.02381,-0.11762 0.02768,-0.14646 0.0055,-0.0873 0.0045,-0.0632 0.0037,-0.0283 -2.25e-4,0.0148 -2.65e-4,0.0347 -2.65e-4,0.0527 -0.0058,0.19951 0.11393,0.27725 -0.099,-0.48014 -0.02127,-0.0757 -0.0714,-0.14015 -0.107098,-0.21023 0.02416,0.0426 0.0483,0.0853 0.07245,0.1279 0.91557,1.77319 -1.592098,3.068 -2.507668,1.29481 v 0 c 0.01797,0.0307 0.03594,0.0613 0.05391,0.092 -0.136924,-0.26141 -0.262345,-0.53015 -0.23477,-0.84152 2.04e-4,-0.033 2.65e-4,-0.066 0.0011,-0.099 0.0013,-0.0585 0.0027,-0.11703 0.0082,-0.17533 0.0084,-0.0879 0.02003,-0.17543 0.04152,-0.26125 0.155397,-0.31175 0.175247,-0.45935 0.356036,-0.65223 0.364628,-0.38381 0.662715,-0.46018 1.216668,-0.4909 0.09569,0.008 0.191236,0.02 0.284975,0.0416 0.155623,0.0347 0.308856,0.0818 0.451485,0.15413 0.02933,0.0152 0.05952,0.0288 0.088,0.0455 0.362731,0.21285 0.108373,0.0613 0.05486,0.0359 -0.08512,-0.0404 -0.426688,-0.17997 -0.006,-0.007 0.241591,0.12349 0.460875,0.29074 0.620342,0.51284 0.322551,0.52201 0.07702,0.1265 0.04213,0.0643 -0.01159,-0.0207 0.02711,0.0389 0.03976,0.0589 0.04742,0.0751 0.116805,0.19251 0.141642,0.2689 0.04266,0.13121 0.06837,0.26734 0.10256,0.401 -0.01275,-0.0966 0.01524,0.15451 0.01463,0.19725 -0.0045,0.31658 -0.02207,0.24625 -0.140931,0.66318 -0.162748,0.24028 -0.315486,0.50903 -0.581628,0.65496 -0.05779,0.0317 0.104045,-0.0809 0.156067,-0.12138 -0.164936,0.14336 -0.383606,0.28773 -0.569074,0.34289 0.01514,-0.007 0.0606,-0.0268 0.04544,-0.0201 -0.152006,0.0668 -0.30843,0.12502 -0.473892,0.14919 -0.218133,0.0408 -0.43846,0.0771 -0.661308,0.0357 -0.212317,-0.033 -0.420505,-0.0837 -0.614992,-0.17813 -0.165547,-0.0852 -0.264179,-0.157 -0.31596,-0.18912 -0.192678,-0.14358 -0.381844,-0.31199 -0.495435,-0.52843 -0.04579,-0.0873 -0.0812,-0.17963 -0.125124,-0.26785 -0.01429,-0.0287 0.02405,0.0594 0.03609,0.0891 -0.116549,-0.27549 -0.179535,-0.57243 -0.134379,-0.87358 0.02283,-0.18589 0.06192,-0.36841 0.135996,-0.54149 0.113138,-0.25425 0.271563,-0.48712 0.489894,-0.66308 0.212683,-0.14722 0.405088,-0.28203 0.661633,-0.35079 0.256178,-0.0731 0.522124,-0.10409 0.787459,-0.072 0.39139,0.0636 0.742751,0.20768 1.040765,0.47255 0.180578,0.16721 0.34568,0.35062 0.479734,0.55786 1.106967,1.66045 -1.241266,3.22593 -2.348232,1.56548 z"
       inkscape:connector-curvature="0" />
    <path
       style="fill:#ffffff;fill-opacity:1;fill-rule:nonzero;stroke:none;stroke-width:0.26458332"
       id="path4669"
       d="m 10.558391,246.82098 c -0.01922,-0.0273 -0.08283,-0.0418 -0.08692,-0.0433 -0.03335,-0.0108 -0.06903,-0.0109 -0.103957,-0.0146 -0.01638,-0.002 -0.06554,-0.007 -0.04915,-0.005 0.204332,0.0203 -0.07468,0.021 -0.110804,0.0235 0.0065,2.3e-4 0.02602,-7.7e-4 0.01963,6.9e-4 -0.118456,0.0268 -0.2415279,0.0428 -0.3609076,0.0673 -0.1142622,0.0369 -0.2359022,0.0558 -0.3449648,0.10753 -0.1342305,0.0526 -0.2642166,0.1172 -0.3882242,0.19075 -0.1193773,0.0891 -0.256145,0.16045 -0.3658822,0.26143 -0.1138666,0.10578 -0.239722,0.20167 -0.3368649,0.32388 -0.1308208,0.14237 -0.2312739,0.30712 -0.3377432,0.46764 -0.1007335,0.16649 -0.1773182,0.34484 -0.2512505,0.52425 -0.097077,0.23085 -0.1684578,0.47037 -0.2337035,0.71176 -0.066911,0.25695 -0.094465,0.52153 -0.1197348,0.78514 -0.035421,0.30972 -0.033674,0.62034 -0.027758,0.93134 0.011446,0.31645 0.05794,0.62963 0.1034614,0.94249 0.052219,0.31732 0.1326631,0.62967 0.22132,0.93859 0.1014698,0.31809 0.2045943,0.6357 0.3252311,0.94711 0.1089977,0.28588 0.243731,0.56036 0.384415,0.83165 0.1422077,0.24817 0.2550453,0.5134 0.411562,0.75331 0.1065829,0.16863 0.2375916,0.31749 0.3732548,0.46267 0.088563,0.0905 0.1829816,0.19243 0.2995658,0.24797 0.1012557,0.0484 0.2050187,0.0882 0.31306,0.11818 0.1169396,0.0339 0.2360636,0.0473 0.3567746,0.0486 0.174421,0.0111 0.345888,-0.0128 0.517721,-0.038 0.192476,-0.0325 0.378828,-0.0891 0.564541,-0.148 0.184192,-0.0641 0.3599,-0.14937 0.529965,-0.24428 0.217174,-0.12133 0.429173,-0.25165 0.633937,-0.3929 0.200841,-0.12388 0.377998,-0.27826 0.55295,-0.43531 0.179806,-0.14784 0.329712,-0.32374 0.480743,-0.49941 0.156367,-0.17961 0.292426,-0.37357 0.429267,-0.56791 0.11687,-0.17018 0.212508,-0.35345 0.312093,-0.53393 0.100523,-0.18776 0.196914,-0.37766 0.295518,-0.56642 0.08032,-0.16651 0.154489,-0.3359 0.23462,-0.50256 0.07347,-0.16316 0.153174,-0.32338 0.236039,-0.48193 0.07541,-0.14168 0.154091,-0.28134 0.235094,-0.41985 0.02827,-0.0419 0.153118,-0.26619 0.0478,-0.0742 -0.005,0.0107 -0.02053,0.0426 -0.01503,0.0321 0.09684,-0.18396 0.190681,-0.34589 0.327109,-0.50127 0.02823,-0.0316 0.05735,-0.0624 0.08678,-0.0929 0.0072,-0.007 0.0144,-0.0148 0.02162,-0.0222 0.598728,-0.62189 1.757753,2.43405 0.890882,2.38809 0.0138,8.7e-4 0.02957,8.7e-4 -0.0041,8.7e-4 -0.180232,0.007 -0.357127,-0.0291 -0.53003,-0.0749 0.08602,0.0261 -0.160718,-0.0268 -0.21802,-0.0397 -0.127794,-0.0235 -0.256684,-0.04 -0.384726,-0.0629 -0.196625,-0.0279 -0.391412,-0.0667 -0.587934,-0.0954 -0.233086,-0.0433 -0.467167,-0.0793 -0.702984,-0.10365 -0.272096,-0.0182 -0.543359,-0.0434 -0.814549,-0.072 -0.225209,-0.0246 -0.451306,-0.0394 -0.677476,-0.0515 -0.179272,-0.009 -0.358678,-0.0147 -0.538103,-0.0193 -0.06192,-0.002 -0.123845,-0.003 -0.185771,-0.004 -0.01544,-3.2e-4 -0.06173,-9e-5 -0.04631,-9.8e-4 0.248609,-0.0143 0.0884,0.007 0.27939,-0.0241 0.819337,-0.21079 0.900427,-0.81486 0.966876,-1.74077 0.01164,-0.16219 -0.148891,-0.28912 -0.223336,-0.43368 0.07516,-0.15352 -0.130091,-0.10141 -0.162207,-0.17387 -0.0053,-0.0119 0.02014,0.0165 0.03011,0.0249 0.05292,0.0445 0.104934,0.09 0.156707,0.13586 0.02421,0.0222 0.04842,0.0444 0.07263,0.0667 1.466773,1.35316 -0.446887,3.42749 -1.91366,2.07433 v 0 c -0.01131,-0.0106 -0.02263,-0.0211 -0.03394,-0.0317 -0.127377,-0.11401 -0.266105,-0.2148 -0.369793,-0.35387 -0.08361,-0.15624 -0.259271,-0.29171 -0.250827,-0.46871 0.0527,-1.10471 0.174089,-1.59379 1.081157,-1.84643 0.222745,-0.0428 0.44628,-0.0592 0.672642,-0.0447 0.205446,0.005 0.41087,0.0121 0.616132,0.0225 0.274586,0.0149 0.549049,0.0333 0.822481,0.063 0.271181,0.0287 0.542368,0.0521 0.814348,0.072 0.274278,0.0294 0.547713,0.0661 0.818702,0.1183 0.225369,0.0336 0.449128,0.076 0.674486,0.10952 0.170725,0.0308 0.343715,0.0485 0.512822,0.0889 0.01409,0.003 0.05664,0.008 0.04226,0.01 -0.01971,0.002 -0.07848,-0.011 -0.05889,-0.008 0.121042,0.0183 0.242241,0.0362 0.360305,0.0697 0.126841,0.0355 0.0026,-9e-5 -0.0261,-0.004 -0.459868,-0.0573 -0.299875,-0.0181 -0.193418,-0.0236 0.05139,7e-5 0.102818,3.4e-4 0.154146,0.003 0.869059,0.0477 1.585,1.77943 0.975258,2.4018 -0.0036,0.004 -0.0071,0.007 -0.01067,0.011 -0.0013,0.001 -0.01226,0.0131 -0.0075,0.007 0.04435,-0.0533 0.268313,-0.46816 0.131777,-0.20328 -0.06478,0.1257 -0.131996,0.24956 -0.208502,0.36865 0.103693,-0.19848 -0.101371,0.18849 -0.127133,0.23156 -0.06388,0.12193 -0.131471,0.25865 -0.193905,0.39806 -0.09419,0.19501 -0.178072,0.39488 -0.2773,0.58748 -0.108725,0.20662 -0.213393,0.41537 -0.324691,0.62065 -0.149285,0.27026 -0.296827,0.54226 -0.475307,0.79486 -0.189236,0.26873 -0.382262,0.5343 -0.597196,0.78342 -0.231324,0.26881 -0.468769,0.53218 -0.739208,0.76288 -0.26591,0.2371 -0.538609,0.46721 -0.839231,0.65983 -0.283299,0.19317 -0.574267,0.37484 -0.874558,0.54059 -0.333767,0.1807 -0.677231,0.34449 -1.039318,0.46099 -0.329446,0.10267 -0.661979,0.19603 -1.003778,0.24813 -0.33529,0.0484 -0.672595,0.0809 -1.011889,0.0659 -0.3654577,-0.014 -0.7279599,-0.0607 -1.079322,-0.16631 -0.3537604,-0.10886 -0.6990038,-0.24525 -1.015691,-0.43941 -0.3102872,-0.20378 -0.6061863,-0.42941 -0.8533421,-0.70885 -0.258073,-0.27875 -0.5009718,-0.57108 -0.7027767,-0.89399 -0.1877242,-0.30759 -0.352571,-0.62714 -0.5208598,-0.9456 -0.1878981,-0.36348 -0.3657018,-0.73229 -0.5118047,-1.1149 -0.1500248,-0.39128 -0.2824763,-0.78893 -0.4061164,-1.18929 -0.1213119,-0.42934 -0.2317279,-0.863 -0.299576,-1.30439 -0.062519,-0.42999 -0.1209344,-0.86118 -0.1323597,-1.29621 -0.00766,-0.41993 -0.00473,-0.83976 0.040609,-1.2579 0.041765,-0.42257 0.094645,-0.84524 0.2064723,-1.25597 0.097809,-0.35459 0.2055273,-0.70644 0.3481046,-1.04603 0.1440728,-0.34707 0.3025744,-0.68868 0.5070952,-1.00505 0.1758743,-0.26516 0.3525139,-0.53058 0.5666197,-0.76717 0.216553,-0.242 0.4505939,-0.4668 0.7022296,-0.67246 0.2317983,-0.17999 0.4713247,-0.35136 0.7225927,-0.50331 0.2434941,-0.1374 0.4929327,-0.26591 0.7542238,-0.3664 0.264694,-0.10091 0.5352833,-0.18454 0.8119555,-0.2464 0.2362298,-0.0484 0.472563,-0.0972 0.713167,-0.11892 0.233432,-0.0162 0.468361,-0.0384 0.701536,-0.004 0.245466,0.0316 0.489647,0.0764 0.72244,0.16317 0.24094,0.0916 0.476385,0.1989 0.688406,0.3475 1.66045,1.10697 0.09496,3.4552 -1.565487,2.34823 z"
       inkscape:connector-curvature="0" />
    <path
       style="fill:#ffffff;fill-opacity:1;fill-rule:nonzero;stroke:none;stroke-width:0.26458332"
       id="path4671"
       d="m 17.857589,258.36378 c -0.09091,-0.34372 -0.09452,-0.69597 -0.06702,-1.04775 0.03153,-0.30519 0.108024,-0.60316 0.191069,-0.89772 0.0887,-0.29085 0.191009,-0.57714 0.295459,-0.86263 0.110489,-0.28583 0.214598,-0.57406 0.31639,-0.86308 0.12361,-0.33078 0.240607,-0.664 0.350989,-0.99944 0.127049,-0.37589 0.2498,-0.75322 0.378351,-1.1286 0.116351,-0.37974 0.244833,-0.75554 0.370417,-1.13229 0.109109,-0.35299 0.227698,-0.70294 0.333491,-1.05696 0.101458,-0.33926 0.201244,-0.67905 0.299632,-1.01923 0.0801,-0.27589 0.146423,-0.55508 0.215671,-0.83375 0.05982,-0.22917 0.09905,-0.46282 0.149286,-0.69416 0.0365,-0.14682 0.06054,-0.29585 0.07983,-0.44571 0.01548,-0.1745 0.03539,-0.34774 0.06943,-0.51975 0.01734,-0.078 0.034,-0.15591 0.04699,-0.2347 0.02962,-0.28771 0.155656,-0.53999 0.318721,-0.77162 0.323539,-0.41797 0.884141,-0.67279 1.414978,-0.56415 0.147477,0.0302 0.285518,0.0955 0.428277,0.14325 0.38888,0.20926 0.564445,0.46143 0.743314,0.77828 0.08409,0.15788 0.155957,0.32181 0.22585,0.48635 0.107953,0.24891 0.197029,0.50519 0.27917,0.76358 0.0972,0.29309 0.192547,0.58684 0.285728,0.88124 0.118384,0.35785 0.222786,0.72002 0.33585,1.07955 0.137716,0.40637 0.272731,0.8135 0.405086,1.22165 0.142767,0.43889 0.292016,0.8757 0.444624,1.31126 0.152885,0.46051 0.337023,0.90933 0.515684,1.36015 0.183683,0.45825 0.364243,0.91776 0.550938,1.3748 0.161118,0.42798 0.31959,0.8568 0.491884,1.28045 0.15975,0.37701 0.316839,0.75517 0.469649,1.13505 0.126807,0.30341 0.253653,0.60677 0.380873,0.91 0.09395,0.23132 0.192159,0.46084 0.291573,0.68984 0.06962,0.16411 0.131427,0.33077 0.199687,0.49533 0.103131,0.22719 0.15417,0.47019 0.171452,0.71783 0.02395,0.67553 -0.263856,1.02966 -0.834541,1.41753 -0.184237,0.12522 -0.430657,0.12492 -0.642643,0.13858 -0.361818,-0.0223 -0.633921,-0.12402 -0.936116,-0.30183 -0.131885,-0.0901 -0.07818,-0.0529 -0.161547,-0.11091 -1.636874,-1.14154 -0.02249,-3.45643 1.614381,-2.31489 v 0 c 0.07573,0.0529 0.0898,0.0604 0.03772,0.0293 -0.21095,-0.11277 -0.176202,-0.0592 -0.550074,-0.1239 -0.190069,0.0147 -0.406829,0.0179 -0.570712,0.13349 -0.475619,0.33547 -0.812141,0.69267 -0.774553,1.28543 0.0055,0.0589 0.119354,0.47117 0.03729,0.20467 -0.06059,-0.14909 -0.119003,-0.29876 -0.179566,-0.44775 -0.103878,-0.23983 -0.206945,-0.48001 -0.305352,-0.72216 -0.132466,-0.31654 -0.265524,-0.6328 -0.397155,-0.9497 -0.15051,-0.37642 -0.307742,-0.75013 -0.465076,-1.12373 -0.171337,-0.42217 -0.332174,-0.8483 -0.489953,-1.27571 -0.190288,-0.46613 -0.374693,-0.93462 -0.561885,-1.402 -0.192666,-0.48621 -0.390036,-0.97073 -0.55559,-1.46712 -0.159694,-0.45626 -0.316175,-0.91373 -0.465595,-1.37346 -0.134983,-0.41626 -0.273268,-0.83124 -0.41285,-1.24596 -0.112659,-0.35861 -0.21699,-0.71973 -0.334937,-1.07666 -0.093,-0.29602 -0.190046,-0.59077 -0.287062,-0.88548 -0.05325,-0.17421 -0.115062,-0.34568 -0.187305,-0.51296 -0.04713,-0.11395 -0.07398,-0.17759 -0.130553,-0.2831 0.03758,0.0611 0.152954,0.26651 0.489926,0.44207 0.129176,0.0409 0.254398,0.0975 0.38753,0.12267 0.472842,0.0895 0.989296,-0.12899 1.280884,-0.50318 0.06106,-0.0893 0.113886,-0.15835 0.152713,-0.26577 0.19442,-0.53791 0.08489,-0.36852 0.07309,-0.21626 -0.01965,0.11717 -0.04253,0.23368 -0.0686,0.3496 8.73e-4,-0.0174 0.0045,-0.0695 0.0026,-0.0522 -0.01262,0.11911 -0.01841,0.23902 -0.03568,0.35768 -0.03001,0.22845 -0.06708,0.4559 -0.120505,0.6802 -0.05656,0.26015 -0.100424,0.52304 -0.169447,0.78042 -0.07887,0.31149 -0.1525,0.6242 -0.24241,0.93286 -0.101096,0.34915 -0.203539,0.69792 -0.307578,1.04619 -0.11477,0.38093 -0.240415,0.75838 -0.359183,1.13807 -0.128166,0.38437 -0.258494,0.76798 -0.378137,1.15513 -0.125469,0.36533 -0.244389,0.73288 -0.368303,1.09875 -0.116892,0.35252 -0.238322,0.70359 -0.36871,1.05135 -0.105974,0.3009 -0.214389,0.60099 -0.329181,0.89864 -0.08186,0.22163 -0.161089,0.44421 -0.232306,0.66949 -0.03867,0.12834 -0.07315,0.25926 -0.09443,0.39113 -0.0019,0.0132 -2.45e-4,0.0275 -0.0056,0.0397 -0.0037,0.008 -0.0052,-0.0357 -0.0053,-0.0267 -8.73e-4,0.0413 0.01697,0.105 0.0061,0.0724 -0.0095,-0.0283 -0.01558,-0.0576 -0.02338,-0.0863 0.548236,1.91883 -2.165398,2.69416 -2.713634,0.77533 z"
       inkscape:connector-curvature="0" />
    <path
       style="fill:#ffffff;fill-opacity:1;fill-rule:nonzero;stroke:none;stroke-width:0.26458332"
       id="path4673"
       d="m 19.998221,254.32526 c 0.08204,-0.32901 0.259534,-0.6123 0.462269,-0.87815 0.251279,-0.29168 0.574964,-0.48407 0.923626,-0.63484 0.239975,-0.0939 0.493287,-0.14639 0.744316,-0.20145 0.267851,-0.0564 0.540337,-0.0836 0.812858,-0.10459 0.249438,-0.0174 0.499406,-0.0248 0.749329,-0.0308 0.236538,-0.005 0.473122,-0.007 0.709704,-0.009 0.255393,-0.006 0.509642,0.0234 0.763956,0.042 0.25413,0.0173 0.507084,0.053 0.758167,0.0953 0.06131,0.0139 0.122621,0.0278 0.183931,0.0417 1.940231,0.46687 1.279982,3.21078 -0.660252,2.74391 v 0 c -0.0067,-0.002 -0.01342,-0.005 -0.02014,-0.007 -0.152527,-0.0359 -0.313681,-0.0425 -0.469061,-0.0589 -0.178089,-0.0132 -0.356193,-0.0358 -0.53475,-0.0345 -0.221232,0.002 -0.442467,0.004 -0.66366,0.009 -0.201134,0.005 -0.402309,0.0103 -0.603102,0.0235 -0.142851,0.0106 -0.285883,0.0221 -0.426921,0.0482 -0.05184,0.0111 -0.266747,0.0713 -0.272434,0.0545 0.06495,-0.0419 0.10286,-0.0911 0.178086,-0.17583 0.01714,-0.0256 0.03531,-0.0505 0.05143,-0.0767 0.0079,-0.0128 0.03245,-0.0494 0.02047,-0.0403 -0.01274,0.01 -0.0268,0.0577 -0.02297,0.0422 0.0074,-0.0298 0.02361,-0.0568 0.03372,-0.0858 0.0052,-0.015 0.0175,-0.061 0.01221,-0.0461 -0.0069,0.0196 -0.01144,0.04 -0.01716,0.0601 -0.548237,1.91883 -3.261871,1.14351 -2.713634,-0.77532 z"
       inkscape:connector-curvature="0" />
    <path
       style="fill:#ffffff;fill-opacity:1;fill-rule:nonzero;stroke:none;stroke-width:0.26458332"
       id="path4675"
       d="m 32.014583,246.68891 c 0,0.21742 0,0.43485 0,0.65228 0.01857,0.28493 0.03472,0.56997 0.04715,0.85523 0.01561,0.38261 0.02209,0.7655 0.0275,1.14836 0.0053,0.41541 0.0074,0.83084 0.0092,1.24627 0.0016,0.42429 0.0024,0.84859 0.003,1.27289 5.3e-4,0.40874 7.94e-4,0.81749 0.0011,1.22624 1.61e-4,0.36253 2.43e-4,0.72507 2.64e-4,1.0876 5.1e-5,0.29748 8e-5,0.59496 1.01e-4,0.89245 10e-6,0.16112 1.8e-5,0.32224 2.6e-5,0.48337 3e-6,0.10585 -0.0097,0.0694 0.0033,0.11316 0.01138,0.14664 0.0164,0.15359 0.03755,0.24141 -0.0301,-0.17487 -0.133612,-0.31438 -0.250801,-0.44161 -0.134982,-0.13404 -0.29069,-0.20664 -0.47204,-0.24337 -0.100494,0.006 0.177755,-0.0257 0.18397,-0.0265 0.16951,-0.0183 0.337039,-0.0515 0.50379,-0.0866 0.208299,-0.0502 0.414764,-0.10713 0.622869,-0.15805 0.195151,-0.0514 0.388334,-0.10928 0.582634,-0.16366 0.210383,-0.0724 0.426191,-0.12612 0.643493,-0.17289 0.16579,-0.0493 0.335089,-0.0862 0.50488,-0.11868 0.243282,-0.0491 0.489355,-0.0649 0.737008,-0.0542 0.237831,0.009 0.469024,0.0633 0.696992,0.12746 0.187769,0.0597 0.370411,0.13644 0.55027,0.21679 0.189642,0.0879 0.370062,0.19351 0.547076,0.30424 0.155988,0.10064 0.301276,0.21115 0.443828,0.31853 0.18215,0.11121 -0.303432,-0.18755 0.189748,0.11225 0.03472,0.0252 0.0692,0.0508 0.104164,0.0757 0.01069,0.008 -0.02005,-0.0171 -0.03131,-0.0238 -0.06187,-0.0371 -0.123243,-0.0753 -0.187817,-0.10741 -0.04099,-0.0204 -0.08535,-0.0331 -0.128027,-0.0497 1.907656,0.58593 1.079032,3.28376 -0.828627,2.69783 v 0 c -0.191389,-0.0695 -0.367223,-0.15075 -0.533149,-0.27091 -0.01326,-0.01 0.02715,0.0183 0.04073,0.0275 0.03087,0.0173 0.06322,0.0323 0.0926,0.052 0.02212,0.0149 -0.04734,-0.0245 -0.07071,-0.0373 -0.131998,-0.0724 -0.25853,-0.1541 -0.377571,-0.24635 0.05512,0.0292 -0.204682,-0.14694 -0.213746,-0.15769 -0.103376,-0.0652 -0.125569,-0.0802 -0.203727,-0.12053 -0.05573,-0.0253 -0.108873,-0.0467 -0.166428,-0.07 -0.01614,-0.007 -0.06395,-0.0133 -0.04808,-0.0205 0.01773,-0.008 0.07084,0.0293 0.05583,0.017 -0.01527,-0.0126 -0.03777,-0.0118 -0.05665,-0.0176 0.120245,0.0236 -0.151149,-0.0138 0.03564,-0.003 0.02469,0.001 -0.06992,-0.006 -0.07386,-0.007 0.224372,-0.0269 0.0036,0.002 -0.05794,0.0113 -0.146288,0.0246 -0.287597,0.0716 -0.432115,0.10415 -0.16143,0.034 -0.319323,0.0793 -0.475842,0.13172 -0.22451,0.0619 -0.447294,0.12997 -0.673119,0.18723 -0.23668,0.0568 -0.47063,0.12454 -0.708321,0.17741 -0.240856,0.0505 -0.48328,0.0958 -0.727811,0.12441 -0.268147,0.0341 -0.5378,0.0597 -0.808246,0.0364 -0.426657,-0.0617 -0.826135,-0.18124 -1.156401,-0.47568 -0.282739,-0.28323 -0.507527,-0.60341 -0.59976,-0.99983 -0.05528,-0.23612 -0.09393,-0.47509 -0.107889,-0.71747 -0.01204,-0.25632 -0.0089,-0.5127 -0.0087,-0.76929 -2.1e-5,-0.29738 -5e-5,-0.59476 -10e-5,-0.89214 -6.6e-5,-0.36225 -1.46e-4,-0.7245 -2.65e-4,-1.08675 -1.96e-4,-0.40788 -5.29e-4,-0.81576 -0.0011,-1.22364 -5.29e-4,-0.42159 -0.0013,-0.84318 -0.0029,-1.26476 -0.0019,-0.4062 -0.0038,-0.8124 -0.0089,-1.21856 -0.005,-0.35536 -0.01085,-0.71076 -0.02513,-1.06589 -0.01405,-0.326 -0.03785,-0.65143 -0.0498,-0.9775 0,-0.21743 0,-0.43486 0,-0.65229 0,-1.99561 2.822223,-1.99561 2.822223,0 z"
       inkscape:connector-curvature="0" />
    <path
       style="fill:#ffffff;fill-opacity:1;fill-rule:nonzero;stroke:none;stroke-width:0.26458332"
       id="path4677"
       d="m 31.021364,249.74795 c 0.218299,0.0278 0.43213,0.0804 0.644829,0.13536 0.222739,0.0652 0.444984,0.13193 0.665496,0.2043 0.207536,0.0695 0.417414,0.13112 0.627912,0.19105 0.209372,0.0493 0.42097,0.0901 0.632833,0.1274 0.227586,0.038 0.457673,0.0562 0.687694,0.0714 0.268047,0.0161 0.536514,0.0231 0.804947,0.029 0.244472,-0.0107 0.488762,-0.0251 0.73319,-0.0368 0.227621,-0.0237 0.455152,-0.0479 0.683143,-0.0677 0.128474,-0.007 0.254638,-0.0356 0.381151,-0.0584 0.02453,-5.6e-4 0.234048,-0.0483 0.08565,-0.0142 1.93026,-0.50652 2.646593,2.22328 0.71633,2.7298 v 0 c -0.100023,0.0248 -0.200903,0.045 -0.302543,0.0621 -0.21118,0.038 -0.422611,0.0785 -0.637077,0.0924 -0.264279,0.0227 -0.527574,0.0554 -0.79212,0.0751 -0.309769,0.0148 -0.619345,0.037 -0.92955,0.0393 -0.310819,-0.007 -0.621676,-0.0153 -0.932019,-0.0346 -0.33288,-0.0226 -0.665636,-0.0517 -0.99464,-0.10898 -0.305512,-0.055 -0.611269,-0.11244 -0.911487,-0.19185 -0.249356,-0.0713 -0.497776,-0.14535 -0.743976,-0.22689 -0.159229,-0.0545 -0.321686,-0.0983 -0.481767,-0.15006 -0.116107,-0.0301 -0.227166,-0.0623 -0.337121,-0.0738 -1.975557,-0.28222 -1.576433,-3.07608 0.399124,-2.79386 z"
       inkscape:connector-curvature="0" />
    <path
       style="fill:#ffffff;fill-opacity:1;fill-rule:nonzero;stroke:none;stroke-width:0.26458332"
       id="path4679"
       d="m 27.524858,248.03332 c -0.03978,-0.23734 -0.03728,-0.47792 -0.02933,-0.71751 -0.0016,-0.32047 0.0878,-0.62374 0.204441,-0.91825 0.13244,-0.3248 0.362974,-0.58308 0.620112,-0.81397 0.258395,-0.21812 0.563407,-0.36006 0.875538,-0.48227 0.328028,-0.11616 0.669049,-0.18968 1.011259,-0.24927 0.392258,-0.0634 0.789345,-0.0864 1.185746,-0.10549 0.431062,-0.0189 0.862531,-0.0255 1.293926,-0.0313 0.464294,-0.006 0.928622,-0.008 1.392941,-0.01 0.453861,-0.002 0.907728,-0.003 1.361589,-0.003 0.414792,-0.009 0.828979,0.0127 1.243041,0.0337 0.365752,0.023 0.728562,0.0703 1.086647,0.14763 0.284257,0.0722 0.573286,0.16513 0.812464,0.34202 0.105494,0.078 0.196958,0.17342 0.295439,0.26013 1.373005,1.44821 -0.675079,3.38993 -2.048084,1.94172 v 0 c 0.111241,0.0869 0.223266,0.19694 0.368218,0.22719 0.0026,5.3e-4 -0.004,-0.003 -0.006,-0.005 -0.01714,-0.005 -0.03427,-0.01 -0.05141,-0.0147 -0.193201,-0.0588 -0.402111,-0.0514 -0.600374,-0.0802 -0.365072,-0.0185 -0.730131,-0.0394 -1.095877,-0.03 -0.451306,6.6e-4 -0.902611,10e-4 -1.35391,0.003 -0.455502,0.002 -0.911006,0.004 -1.366481,0.01 -0.399232,0.005 -0.798536,0.0113 -1.197477,0.0284 -0.282522,0.0133 -0.565717,0.0272 -0.845815,0.0685 -0.159041,0.0261 -0.315669,0.0611 -0.471755,0.10097 -0.03551,0.013 -0.06962,0.0299 -0.105608,0.0415 -0.01651,0.005 0.05846,-0.0329 0.04114,-0.0319 -0.01437,8.2e-4 -0.09596,0.0761 0.0053,-0.0129 0.06328,-0.0673 0.106471,-0.14335 0.146355,-0.22625 0.0054,-0.0111 -0.01056,0.0224 -0.01582,0.0335 0.06797,-0.20197 0.005,0.0445 0.04027,-0.16381 0.0011,-0.006 -0.0033,0.0221 -0.0037,0.0165 -0.0013,-0.0172 0.0024,-0.069 0.0011,-0.0518 -0.0019,0.0239 -0.0019,0.0479 -0.0027,0.0719 -0.0054,0.15372 -0.01363,0.0959 0.0026,0.22245 0.282223,1.97555 -2.511637,2.37467 -2.793857,0.39912 z"
       inkscape:connector-curvature="0" />
    <path
       style="fill:#ffffff;fill-opacity:1;fill-rule:nonzero;stroke:none;stroke-width:0.26458332"
       id="path4681"
       d="m 40.213044,261.07992 c 0.09504,-0.13605 0.18515,-0.27502 0.270359,-0.41729 0.121833,-0.1916 0.219681,-0.39613 0.319953,-0.59943 0.146449,-0.30114 0.297532,-0.60002 0.44138,-0.90241 0.169019,-0.35106 0.32661,-0.70735 0.482619,-1.06432 0.174149,-0.39714 0.345525,-0.79548 0.516647,-1.19393 0.173823,-0.40619 0.357272,-0.80812 0.543925,-1.20854 0.168362,-0.34285 0.333017,-0.6874 0.500914,-1.03048 0.127738,-0.26329 0.276765,-0.51539 0.413856,-0.7737 0.100301,-0.18906 0.208262,-0.37364 0.323154,-0.55415 0.108575,-0.18307 0.248963,-0.34255 0.404061,-0.48709 0.410628,-0.32246 0.722125,-0.41798 1.29758,-0.35513 0.162505,0.0178 0.319741,0.0913 0.454862,0.18332 0.420512,0.28635 0.422637,0.38595 0.612595,0.76846 0.103894,0.29559 0.10922,0.60222 0.08105,0.91074 -0.01238,0.20723 -0.03563,0.41332 -0.05815,0.61964 -0.02225,0.27908 -0.05806,0.55678 -0.08461,0.83546 -0.03892,0.31189 -0.07703,0.62371 -0.102527,0.93702 -0.01963,0.30021 -0.06036,0.59847 -0.08863,0.8979 -0.01802,0.15689 -0.0057,0.31545 1.56e-4,0.47287 -0.0016,-0.0672 0.01712,0.0708 0.01492,0.0583 -0.0072,-0.0412 -0.01373,-0.0776 -0.0232,-0.11728 -0.145185,-0.37893 -0.471795,-0.62238 -0.855994,-0.73189 -0.284778,-0.0754 -0.643696,0.0175 -0.789672,0.0948 -0.08396,0.0637 0.03358,-0.0557 0.05717,-0.0816 0.11775,-0.11468 0.210589,-0.24893 0.309332,-0.37937 0.121835,-0.16653 0.221866,-0.34797 0.327001,-0.52525 0.127228,-0.22707 0.246081,-0.45853 0.362876,-0.69106 0.130133,-0.24921 0.254339,-0.50122 0.373354,-0.75592 0.104772,-0.236 0.209428,-0.47207 0.318801,-0.70598 0.09702,-0.21098 0.202282,-0.41768 0.317823,-0.61906 0.148095,-0.22827 0.307335,-0.46592 0.544275,-0.61317 0.135659,-0.0843 0.288049,-0.13808 0.432075,-0.20713 0.108474,-0.0196 0.215209,-0.0609 0.325421,-0.0588 0.761781,0.0145 1.163945,0.30956 1.493338,0.93871 0.110961,0.25597 0.173249,0.52939 0.224591,0.80256 0.04914,0.2255 0.08623,0.45335 0.134676,0.67902 0.06136,0.31895 0.126563,0.63713 0.189767,0.95571 0.06861,0.34341 0.148357,0.68435 0.232622,1.02422 0.08796,0.39355 0.19505,0.78239 0.291168,1.17397 0.09593,0.38002 0.203166,0.75705 0.307049,1.13494 0.09902,0.33943 0.208952,0.67548 0.319498,1.01129 0.08781,0.27437 0.200356,0.53947 0.310957,0.80512 0.07515,0.18146 0.164973,0.35572 0.258151,0.52828 0.05708,0.10539 0.125188,0.20827 0.191773,0.31722 -0.215723,-0.33049 0.100179,0.13558 0.134204,0.19391 0.970756,1.74358 -1.495052,3.11644 -2.465808,1.37285 v 0 c 0.02453,0.0404 0.03533,0.0603 0.06556,0.0998 0.01736,0.0227 0.07285,0.088 0.05443,0.0662 -0.115806,-0.13726 -0.07456,-0.0876 -0.196509,-0.26101 -0.09064,-0.14831 -0.185076,-0.29467 -0.266991,-0.44803 -0.138194,-0.25594 -0.268626,-0.51599 -0.380386,-0.78476 -0.138128,-0.33202 -0.276058,-0.6644 -0.386112,-1.00712 -0.125224,-0.38047 -0.249407,-0.76137 -0.360238,-1.14633 -0.110593,-0.40319 -0.2252,-0.80535 -0.326787,-1.21094 -0.09519,-0.38972 -0.202705,-0.77638 -0.289716,-1.16808 -0.09445,-0.383 -0.184404,-0.76708 -0.261482,-1.154 -0.06036,-0.30648 -0.123902,-0.61233 -0.182293,-0.91919 -0.053,-0.25305 -0.09747,-0.50767 -0.150688,-0.76066 -0.01601,-0.10211 -0.110286,-0.39321 -0.0011,-0.10325 0.310882,0.54193 0.95214,0.7881 1.557184,0.61821 0.335602,-0.16916 0.426889,-0.1848 0.648901,-0.46227 0.0096,-0.012 -0.03405,0.0505 -0.02837,0.0362 0.05361,-0.12658 -0.09787,0.18813 -0.141685,0.28108 -0.01336,0.0284 -0.02733,0.0564 -0.04099,0.0847 -0.109739,0.23181 -0.210812,0.46762 -0.316582,0.70124 -0.130326,0.27858 -0.26597,0.5545 -0.407964,0.82731 -0.146322,0.2913 -0.295746,0.58116 -0.457584,0.86423 -0.159303,0.26846 -0.314637,0.54047 -0.504348,0.78912 -0.150837,0.19911 -0.300006,0.39981 -0.475208,0.57868 -0.186806,0.20425 -0.382558,0.40129 -0.615894,0.55307 -0.420963,0.25016 -0.816682,0.37655 -1.314752,0.29284 -0.585361,-0.15119 -0.951516,-0.45656 -1.193895,-1.00398 -0.104693,-0.27745 -0.168436,-0.56577 -0.182994,-0.86257 -0.01042,-0.28157 -0.02111,-0.56438 0.01061,-0.8451 0.02755,-0.28746 0.06575,-0.5739 0.08545,-0.86204 0.02708,-0.3259 0.06281,-0.65084 0.105913,-0.97503 0.02811,-0.29121 0.06471,-0.58146 0.08848,-0.87308 0.02085,-0.18981 0.04274,-0.3789 0.05314,-0.5697 0.0019,-0.0211 0.0031,-0.0423 0.0058,-0.0633 5.29e-4,-0.004 5.29e-4,0.008 7.94e-4,0.0124 0.0079,0.1289 0.01572,0.2248 0.06547,0.34792 0.178382,0.34344 0.18233,0.42964 0.574979,0.69031 0.501648,0.33303 1.190379,0.22236 1.624624,-0.15731 0.05004,-0.0521 0.194262,-0.26306 0.06815,-0.0756 -0.0766,0.11975 -0.147873,0.24245 -0.214315,0.3682 -0.122452,0.2277 -0.251891,0.45172 -0.367456,0.68309 -0.160139,0.32698 -0.316809,0.65555 -0.4778,0.98211 -0.174538,0.37428 -0.346125,0.74995 -0.508606,1.12965 -0.173495,0.40397 -0.347279,0.80783 -0.523814,1.21048 -0.16836,0.3852 -0.338789,0.76951 -0.521018,1.1484 -0.149764,0.3137 -0.305585,0.62444 -0.45807,0.93682 -0.134279,0.27208 -0.269661,0.54377 -0.430184,0.80162 -0.10855,0.18099 -0.222779,0.35828 -0.342828,0.53186 -1.106966,1.66045 -3.455196,0.095 -2.34823,-1.56549 z"
       inkscape:connector-curvature="0" />
    <path
       style="fill:#ffffff;fill-opacity:1;fill-rule:nonzero;stroke:none;stroke-width:0.26458332"
       id="path4683"
       d="m 58.3811,262.31464 c 0.06474,-0.10973 0.152323,-0.2306 0.22171,-0.349 0.04413,-0.0807 0.01754,-0.0278 0.04084,-0.095 -0.0284,0.10758 0.03991,-0.43364 -0.02933,0.22519 -0.0038,0.31848 0.134498,0.59513 0.341199,0.83078 0.07793,0.0869 0.236304,0.1756 0.371109,0.22682 0.103487,0.0251 -0.09392,0.004 -0.106246,0.003 -0.143422,-0.01 -0.28616,-0.012 -0.429276,-0.003 -0.192333,0.0126 -0.385664,0.0273 -0.575415,0.0627 -0.20614,0.029 -0.408636,0.0748 -0.610288,0.12546 -0.118372,0.0286 -0.224354,0.0723 -0.330362,0.12821 -0.04576,0.0229 -0.08985,0.0493 -0.132858,0.0771 -0.0091,0.006 -0.03465,0.0112 -0.02674,0.0187 0.0085,0.008 0.04355,-0.0332 0.02196,-0.009 0.0641,-0.0522 0.05904,-0.0388 0.108482,-0.11955 0.04062,-0.0678 0.04027,-0.0748 0.05621,-0.19279 0.01947,0.17436 -0.01426,-0.0297 0.01326,0.0571 -0.0344,-0.0711 0.02898,0.0417 0.04215,0.0592 0.04251,0.0961 0.106484,0.16129 0.170707,0.22331 0.109736,0.10685 0.231309,0.20173 0.356658,0.28958 0.165036,0.11227 0.336579,0.21444 0.510439,0.31236 0.22773,0.12776 0.460304,0.2463 0.687274,0.3754 0.237599,0.12755 0.463423,0.27507 0.689904,0.42102 0.279061,0.17407 0.527116,0.38932 0.760735,0.61937 0.237673,0.23452 0.425889,0.51011 0.591804,0.79808 0.154117,0.29366 0.264351,0.60489 0.347332,0.92516 0.09108,0.35801 0.09589,0.72724 0.07229,1.09339 -0.01841,0.35402 -0.09924,0.69989 -0.198289,1.03885 -0.11108,0.35929 -0.272963,0.69886 -0.444236,1.03255 -0.173921,0.35191 -0.387244,0.68172 -0.613553,1.00168 -0.231986,0.33273 -0.494792,0.64108 -0.76301,0.94462 -0.29028,0.33635 -0.616569,0.63899 -0.947616,0.93439 -0.323019,0.29038 -0.662649,0.56089 -1.014553,0.8152 -0.340947,0.2545 -0.703249,0.47646 -1.077642,0.67764 -0.358267,0.18973 -0.735725,0.33924 -1.12013,0.46628 -0.388022,0.13205 -0.794192,0.17818 -1.200809,0.20442 -0.372543,0.016 -0.743725,-0.0149 -1.111681,-0.0706 -0.330202,-0.0485 -0.648464,-0.14951 -0.963009,-0.25774 -0.251989,-0.0913 -0.499301,-0.19465 -0.742688,-0.30676 -0.186915,-0.0829 -0.356616,-0.19729 -0.534892,-0.29597 -0.107889,-0.062 -0.20955,-0.13368 -0.308184,-0.20928 -0.01656,-0.0127 -0.06581,-0.0512 -0.04934,-0.0384 0.0049,0.004 0.0098,0.007 0.01466,0.0106 -1.637901,-1.14007 -0.02561,-3.45641 1.612297,-2.31635 v 0 c 0.01214,0.009 0.02429,0.0172 0.03642,0.0258 0.01532,0.0113 0.159539,0.11406 0.07081,0.064 0.115007,0.0646 0.226145,0.13536 0.342241,0.19781 0.156605,0.0727 0.315878,0.13911 0.47743,0.20012 0.160952,0.0554 0.32157,0.1156 0.491012,0.13959 0.161546,0.0307 0.3254,0.0365 0.48945,0.0405 0.171222,-0.0101 0.342976,-0.0152 0.506579,-0.0725 0.229909,-0.0711 0.452874,-0.16498 0.667083,-0.27445 0.264057,-0.13652 0.512913,-0.29877 0.751949,-0.47534 0.274301,-0.19617 0.536395,-0.40839 0.787609,-0.63345 0.247525,-0.21904 0.492037,-0.4435 0.70816,-0.69417 0.204581,-0.23153 0.407749,-0.46436 0.583482,-0.71924 0.150712,-0.20474 0.284764,-0.42205 0.398437,-0.64953 0.09356,-0.18124 0.186909,-0.36337 0.252042,-0.55724 0.04528,-0.13467 0.07705,-0.27538 0.08448,-0.41742 0.008,-0.10052 0.01667,-0.1681 0.0057,-0.21247 -0.01982,-0.0899 -0.05884,-0.16657 -0.08771,-0.25344 -0.0024,-0.007 0.0095,0.0125 0.01429,0.0187 -0.02691,-0.0705 -0.08095,-0.13059 -0.130363,-0.18586 -0.08249,-0.0938 -0.184886,-0.16846 -0.288534,-0.23689 -0.184417,-0.11913 -0.367747,-0.24036 -0.561985,-0.34323 -0.223229,-0.12919 -0.455636,-0.24182 -0.679093,-0.37073 -0.261062,-0.14903 -0.519589,-0.30291 -0.765617,-0.47602 -0.24579,-0.17891 -0.48632,-0.36649 -0.701241,-0.5823 -0.212833,-0.21491 -0.409546,-0.44441 -0.559821,-0.70845 -0.165381,-0.26689 -0.305607,-0.54688 -0.388173,-0.85132 -0.07054,-0.2763 -0.116104,-0.55789 -0.10596,-0.84412 0.01519,-0.33935 0.08162,-0.66767 0.227843,-0.9762 0.154146,-0.2962 0.341672,-0.57014 0.595895,-0.79082 0.219024,-0.18314 0.455353,-0.34201 0.712517,-0.46722 0.28947,-0.14167 0.587772,-0.26232 0.901573,-0.33929 0.276704,-0.0693 0.555242,-0.13053 0.837549,-0.17265 0.286372,-0.0452 0.574445,-0.0805 0.864166,-0.0952 0.259173,-0.015 0.518219,-0.0149 0.77732,0.003 0.244676,0.0159 0.48999,0.039 0.726739,0.10665 0.305128,0.0997 0.591844,0.24168 0.817668,0.47557 0.303221,0.33017 0.491786,0.71815 0.494617,1.17212 -0.0199,0.25077 -0.04548,0.49329 -0.136493,0.72984 -0.0775,0.21371 -0.168754,0.42245 -0.290224,0.61533 -0.09198,0.14839 -0.188891,0.29309 -0.280493,0.44098 -1.106966,1.66046 -3.455196,0.095 -2.34823,-1.56548 z"
       inkscape:connector-curvature="0" />
  </g>
</svg>
