<?xml version="1.0" encoding="UTF-8" standalone="no"?>
<svg
   xmlns:dc="http://purl.org/dc/elements/1.1/"
   xmlns:cc="http://creativecommons.org/ns#"
   xmlns:rdf="http://www.w3.org/1999/02/22-rdf-syntax-ns#"
   xmlns:svg="http://www.w3.org/2000/svg"
   xmlns="http://www.w3.org/2000/svg"
   xmlns:sodipodi="http://sodipodi.sourceforge.net/DTD/sodipodi-0.dtd"
   xmlns:inkscape="http://www.inkscape.org/namespaces/inkscape"
   inkscape:version="1.0 (1.0+r73+1)"
   sodipodi:docname="gross.svg"
   id="svg8"
   version="1.1"
   viewBox="0 0 64 64"
   height="64mm"
   width="64mm">
  <defs
     id="defs2" />
  <sodipodi:namedview
     inkscape:document-rotation="0"
     inkscape:window-maximized="1"
     inkscape:window-y="27"
     inkscape:window-x="0"
     inkscape:window-height="1016"
     inkscape:window-width="1920"
     inkscape:snap-page="true"
     showgrid="false"
     inkscape:current-layer="layer1"
     inkscape:document-units="mm"
     inkscape:cy="129.30506"
     inkscape:cx="103.96535"
     inkscape:zoom="3"
     inkscape:pageshadow="2"
     inkscape:pageopacity="0.0"
     borderopacity="1.0"
     bordercolor="#666666"
     pagecolor="#ffffff"
     id="base" />
  <metadata
     id="metadata5">
    <rdf:RDF>
      <cc:Work
         rdf:about="">
        <dc:format>image/svg+xml</dc:format>
        <dc:type
           rdf:resource="http://purl.org/dc/dcmitype/StillImage" />
        <dc:title />
      </cc:Work>
    </rdf:RDF>
  </metadata>
  <g
     transform="translate(0,-233)"
     id="layer1"
     inkscape:groupmode="layer"
     inkscape:label="Layer 1">
    <rect
       y="233"
       x="0"
       height="64"
       width="64"
       id="rect3713"
       style="fill:#795548;stroke-width:0.26458332;fill-opacity:1" />
    <path
       d="m 13.372739,238.45838 c -0.443953,0.80389 -0.471852,1.72672 -0.483545,2.62165 0.05347,1.81518 0.194456,3.62689 0.371597,5.43378 0.234195,2.02164 0.530562,4.03494 0.727183,6.06087 0.06735,1.04565 0.149568,2.1166 -0.05635,3.15353 -0.02301,0.11589 -0.05815,0.22904 -0.08723,0.34357 -0.06811,0.16665 -0.09408,0.27113 -0.204677,0.40829 -0.184413,0.2287 -0.522267,0.38114 -0.77522,0.50916 -0.685618,0.30345 -1.415892,0.50913 -2.16254,0.58856 -0.18307,0.0195 -0.367374,0.0247 -0.551061,0.0371 -0.9068773,0.0246 -1.8258633,-0.0893 -2.6467953,-0.49752 -0.1369854,-0.0681 -0.2650911,-0.15281 -0.3976365,-0.22921 -0.3360441,-0.25337 -0.8736396,-0.61273 -0.9186018,-1.07783 -0.019209,-0.19869 0.057223,-0.40921 0.1041418,-0.59387 0.3182359,-0.92793 0.7812612,-1.832 1.4545337,-2.55623 0.4189566,-0.45066 0.5805805,-0.51324 1.0837145,-0.84053 0.8151733,-0.42661 1.7182406,-0.58978 2.6146356,-0.74453 1.60018,-0.27626 -0.142444,0.0335 1.434047,-0.24908 0.735956,-0.11544 0.38971,-0.0694 1.037964,-0.14377 1.982056,-0.23222 1.653649,-3.03527 -0.328406,-2.80305 v 0 c -0.778522,0.0927 -0.375759,0.0375 -1.207831,0.16893 -1.791443,0.32155 -3.5415791,0.5032 -5.1506434,1.44681 -0.301343,0.2145 -0.6204707,0.40598 -0.9040289,0.64349 -1.1096683,0.92946 -2.025819,2.32605 -2.5255595,3.67996 -0.1303317,0.3531 -0.2088129,0.72322 -0.3132193,1.08484 -0.02422,0.36551 -0.096169,0.73097 -0.072659,1.09653 0.07865,1.22295 0.7706384,2.18534 1.6993936,2.92195 0.2013831,0.15972 0.4222583,0.29319 0.6333876,0.43978 0.6258213,0.3342 0.7494045,0.4338 1.4269839,0.66029 1.0270093,0.34331 2.110387,0.4504 3.188271,0.40731 0.256895,-0.0208 0.514728,-0.0321 0.770686,-0.0623 1.065561,-0.12576 2.105315,-0.43511 3.073315,-0.89493 0.456891,-0.25511 0.659301,-0.3402 1.064695,-0.67998 0.650806,-0.54546 1.089377,-1.25189 1.318606,-2.06656 0.04449,-0.19448 0.09737,-0.38723 0.133462,-0.58345 0.232846,-1.26593 0.167309,-2.56499 0.07357,-3.84057 -0.197688,-2.02672 -0.48929,-4.04144 -0.72744,-6.0635 -0.168162,-1.70772 -0.299749,-3.4198 -0.358165,-5.1351 3.96e-4,-0.41771 -0.03415,-0.87815 0.128469,-1.27377 0.969169,-1.74447 -1.497887,-3.11508 -2.467055,-1.37061 z"
       id="path851"
       style="fill:#ffffff;fill-opacity:1;fill-rule:nonzero;stroke:none;stroke-width:0.264583" />
    <path
       d="m 21.015134,249.7691 c 0.101229,0.92187 0.100606,1.85184 0.21683,2.77286 0.04325,0.34273 0.106493,0.68263 0.15974,1.02395 0.09071,0.3524 0.15667,0.71211 0.272116,1.05719 0.355546,1.06278 0.91663,2.05581 1.86074,2.70566 0.813994,0.56028 1.118433,0.51699 2.055706,0.69221 0.348683,-0.0284 0.704188,-0.0109 1.046048,-0.0852 1.103699,-0.2398 1.94286,-0.89337 2.570374,-1.8141 0.475107,-0.69711 0.592564,-1.17372 0.875097,-1.95463 0.38282,-1.35445 0.577275,-2.76744 0.490937,-4.17561 -0.01056,-0.17218 -0.03366,-0.34335 -0.05049,-0.51503 -0.20715,-1.98483 -3.014126,-1.69188 -2.806978,0.29295 v 0 c 0.133244,1.16434 0.0029,2.33983 -0.298892,3.47006 -0.206449,0.63183 -0.456935,1.59561 -1.138792,1.89703 -0.09714,0.0429 -0.204137,0.0588 -0.306205,0.0881 -0.266261,0.009 -0.378712,0.0417 -0.634588,-0.0677 -0.74246,-0.31738 -0.965139,-1.34624 -1.147816,-2.03385 -0.04568,-0.28132 -0.1007,-0.56129 -0.137048,-0.84397 -0.131985,-1.02648 -0.102409,-2.06734 -0.264791,-3.08994 -0.410092,-1.95302 -3.172081,-1.37306 -2.76199,0.57996 z"
       id="path853"
       style="fill:#ffffff;fill-opacity:1;fill-rule:nonzero;stroke:none;stroke-width:0.264583" />
    <path
       d="m 37.102375,241.73523 c 0.07841,1.07092 0.224605,2.13559 0.337328,3.20316 0.153617,1.45486 0.152027,1.52274 0.28026,3.01152 0.148952,2.36431 0.316148,4.74687 0.13087,7.11496 -0.02532,0.3236 -0.07185,0.6452 -0.107775,0.9678 -0.106902,0.42609 -0.11957,1.11452 -0.564563,1.38644 -0.153413,0.0937 -0.334631,-0.01 -0.470278,-0.0727 -0.710321,-0.26579 -1.514295,-0.76887 -1.887611,-1.45064 -0.06227,-0.11372 -0.08953,-0.24336 -0.134303,-0.36505 -0.0019,-0.10994 -0.01537,-0.22032 -0.0054,-0.32982 0.06525,-0.71431 0.455581,-1.51 0.853885,-2.09014 0.146163,-0.21288 0.314975,-0.4093 0.472463,-0.61395 0.477322,-0.50111 0.961777,-1.05192 1.631112,-1.29943 0.313991,-0.11611 0.436644,-0.0766 0.745992,-0.0528 1.993784,-0.0854 1.872996,-2.90504 -0.120787,-2.81963 v 0 c -0.335582,0.0279 -0.676979,0.0155 -1.006745,0.0837 -1.459534,0.30169 -2.562109,1.30726 -3.507727,2.39536 -0.218556,0.29697 -0.454993,0.58158 -0.655669,0.89091 -0.742051,1.14384 -1.321676,2.60147 -1.192869,3.9904 0.03328,0.35888 0.157292,0.70348 0.235937,1.05522 0.155379,0.30015 0.280347,0.61811 0.466135,0.90045 0.670097,1.01832 1.92106,1.93467 3.075239,2.31356 0.31383,0.10302 0.64511,0.14228 0.967663,0.21342 0.910262,-0.0419 1.192514,0.0572 2.003153,-0.41459 0.910185,-0.52971 1.427067,-1.43401 1.703776,-2.41829 0.09167,-0.32608 0.13081,-0.6647 0.196218,-0.99705 0.04028,-0.37761 0.09206,-0.75418 0.120853,-1.13284 0.189807,-2.49587 0.0231,-5.00601 -0.137816,-7.49772 -0.174802,-2.0252 -0.394822,-4.04493 -0.608713,-6.06608 -0.06635,-1.99451 -2.887015,-1.90067 -2.820662,0.0938 z"
       id="path855"
       style="fill:#ffffff;fill-opacity:1;fill-rule:nonzero;stroke:none;stroke-width:0.264583" />
    <path
       d="m 46.595733,254.59259 c -0.0038,0.008 -0.02021,0.0239 -0.0114,0.0238 0.09316,-9.3e-4 0.185364,-0.0191 0.27823,-0.0265 0.177406,-0.0142 0.354976,-0.0263 0.53254,-0.0384 0.567328,-0.0385 1.015429,-0.0582 1.588945,-0.12213 0.311121,-0.0347 0.620511,-0.0834 0.93077,-0.12508 0.66853,-0.14894 1.199856,-0.22182 1.817436,-0.53887 1.138108,-0.58428 1.866339,-1.5773 1.324181,-2.93601 -0.164886,-0.41323 -0.590219,-0.6659 -0.885327,-0.99885 -0.379934,-0.16436 -0.740701,-0.38317 -1.139804,-0.49309 -1.576282,-0.43412 -3.569478,-0.0189 -4.909487,0.88733 -0.351779,0.23791 -0.644326,0.5534 -0.966488,0.83009 -0.244967,0.36794 -0.544642,0.70482 -0.734904,1.1038 -0.761185,1.59619 -0.482881,3.55071 0.658471,4.89631 0.292894,0.3453 0.674603,0.60415 1.011904,0.90623 0.409363,0.20936 0.800497,0.45905 1.228093,0.62809 0.812125,0.32106 1.689338,0.46018 2.552139,0.54318 0.376041,0.0362 0.754684,0.0363 1.132027,0.0545 1.993723,0.0869 2.116575,-2.73268 0.122854,-2.81955 v 0 c -1.140679,-0.0431 -2.189686,-0.0822 -3.242278,-0.5858 -0.156951,-0.10447 -0.330438,-0.18759 -0.470855,-0.31342 -0.505177,-0.45267 -0.773446,-1.18944 -0.57676,-1.85011 0.04999,-0.16792 0.146852,-0.31815 0.220276,-0.47723 0.146196,-0.15012 0.274633,-0.31987 0.438587,-0.45037 0.573775,-0.45668 1.295672,-0.65748 2.016749,-0.70784 0.146175,-0.0102 0.653357,0.0187 0.869561,0.0299 0.007,-0.34149 -0.01349,-0.53375 0.19648,-0.89247 0.05027,-0.0859 0.161978,-0.16259 0.260157,-0.14639 0.07157,0.0118 -0.0784,0.12874 -0.140565,0.16612 -0.366607,0.22047 -0.751925,0.27036 -1.16323,0.36805 -0.873774,0.1208 -0.720363,0.11307 -1.603791,0.18089 -0.635952,0.0488 -1.290254,0.0473 -1.919507,0.16432 -0.153942,0.0286 -0.303472,0.0773 -0.455208,0.11596 -1.855112,0.73554 -0.814895,3.35907 1.040218,2.62352 z"
       id="path857"
       style="fill:#ffffff;fill-opacity:1;fill-rule:nonzero;stroke:none;stroke-width:0.264583" />
    <path
       d="m 53.510777,257.01094 c -0.0077,0.68782 -0.183822,1.37186 -0.51666,1.97781 -0.120226,0.21889 -0.277058,0.41557 -0.415588,0.62335 -0.721691,0.76553 -0.331121,0.41594 -1.171716,1.04874 -1.563073,1.24067 0.191503,3.45119 1.754577,2.21051 v 0 c 1.304012,-1.06945 0.701894,-0.48367 1.806469,-1.75724 0.211375,-0.34883 0.450175,-0.68245 0.634127,-1.04649 0.492313,-0.97427 0.78972,-2.17368 0.709186,-3.27028 -0.01228,-0.16703 -0.04618,-0.33177 -0.06927,-0.49765 -0.50293,-1.9312 -3.234057,-1.21995 -2.731127,0.71125 z"
       id="path859"
       style="fill:#ffffff;fill-opacity:1;fill-rule:nonzero;stroke:none;stroke-width:0.264583" />
    <path
       d="m 13.154937,270.24911 c -0.751116,-0.43419 -1.587152,-0.72502 -2.460885,-0.76204 -0.296482,-0.0126 -0.593181,0.0193 -0.8897717,0.029 -0.3113061,0.0649 -0.6312625,0.0971 -0.9339183,0.19467 -1.196181,0.38565 -2.0559596,1.11752 -2.7868806,2.12747 -0.6567963,0.90754 -0.8042544,1.38788 -1.2520879,2.40418 -0.119089,0.4256 -0.2805697,0.84157 -0.3572669,1.27682 -0.2301028,1.30581 -0.067254,2.66962 0.9517277,3.63309 0.8863838,0.83809 1.4325308,0.8001 2.5564263,1.0486 0.4683395,-0.0178 0.9409007,0.0118 1.4050182,-0.0534 1.3661652,-0.19198 2.6881372,-0.8052 3.7205382,-1.71958 0.874919,-0.7749 0.953817,-1.07188 1.540545,-2.04885 0.137393,-0.37508 0.303167,-0.74096 0.412179,-1.12524 0.404607,-1.42633 0.347387,-2.94035 0.214796,-4.39916 -0.04898,-0.40864 -0.109186,-0.81699 -0.207321,-1.2171 -0.0188,-0.0767 -0.03896,-0.1531 -0.06304,-0.22827 -0.02339,-0.073 -0.0048,-0.23414 -0.07923,-0.21592 -0.914172,0.22362 -1.786138,0.59379 -2.679206,0.89069 0.0289,0.13218 0.05625,0.26471 0.08669,0.39655 0.141266,0.6118 0.294908,1.21991 0.422016,1.83508 0.182254,0.88205 0.198371,1.02489 0.354064,1.93441 0.225787,1.47954 0.331593,2.97893 0.234439,4.47448 -0.06495,0.99983 -0.13667,1.31483 -0.290655,2.3061 -0.211215,1.06776 -0.445312,2.13991 -0.840823,3.15768 -0.190163,0.48935 -0.412403,0.97228 -0.74547,1.38383 -0.109943,0.13586 -0.253754,0.24038 -0.380631,0.36057 -0.106371,0.0378 -0.208539,0.0907 -0.319112,0.11353 -0.209708,0.0433 -0.517063,0.0119 -0.718326,-0.0231 -0.5391524,-0.0938 -1.0238381,-0.29445 -1.5214344,-0.51323 -0.6294501,-0.33903 -0.3207787,-0.16397 -0.9263372,-0.52461 -1.7178446,-1.01561 -3.154145,1.41379 -1.4363007,2.4294 v 0 c 0.7932164,0.46626 0.3751294,0.23394 1.2570664,0.69187 0.2565746,0.10686 0.5078807,0.22737 0.7697242,0.32057 0.91836,0.3269 1.9275337,0.54342 2.9061477,0.38352 1.046663,-0.17103 1.158674,-0.3712 2.035094,-0.93453 0.241261,-0.26749 0.508789,-0.51345 0.723784,-0.80247 0.446103,-0.59971 0.768948,-1.29917 1.03325,-1.99302 0.445468,-1.16945 0.716564,-2.39715 0.953022,-3.62245 0.173165,-1.14364 0.252046,-1.49092 0.321902,-2.64729 0.101746,-1.68423 -0.01706,-3.37251 -0.27377,-5.03809 -0.237262,-1.37965 -0.499724,-2.75481 -0.853745,-4.11006 -3.245531,0.71546 -2.878501,-0.19875 -2.680052,0.77537 0.05797,0.28453 0.06413,0.36736 0.108184,0.67816 0.12399,1.29355 0.174135,2.62391 -0.269696,3.8668 -0.282624,0.55026 -0.326665,0.74026 -0.784225,1.18941 -0.607987,0.59681 -1.381995,0.98104 -2.2103235,1.15893 -0.2425044,0.0521 -0.4925562,0.0589 -0.7388344,0.0884 -0.1549106,-0.008 -0.924579,0.01 -1.0816066,-0.15969 -0.467265,-0.50394 -0.071203,-1.37152 0.042569,-1.90073 0.1292571,-0.30923 0.2415392,-0.62612 0.3877712,-0.9277 0.2922153,-0.60264 0.7246768,-1.33189 1.2788471,-1.74293 0.3207102,-0.23788 0.4936916,-0.24992 0.8670719,-0.35456 0.1417783,-0.014 0.2828803,-0.0399 0.4253363,-0.0422 0.481155,-0.008 0.931832,0.1501 1.342132,0.38986 1.720219,1.01159 3.150825,-1.42117 1.430607,-2.43276 z"
       id="path861"
       style="fill:#ffffff;fill-opacity:1;fill-rule:nonzero;stroke:none;stroke-width:0.264583" />
    <path
       d="m 18.440225,271.79301 c 0.683596,1.25311 1.152793,2.60273 1.596141,3.95465 0.241264,0.80022 0.469576,1.60716 0.620018,2.43028 0.02852,0.15606 0.05281,0.31311 0.06857,0.47097 0.0071,0.0711 -0.0024,0.28582 -1.57e-4,0.21439 0.0028,-0.0867 0.0011,-0.17343 0.0016,-0.26014 5.078822,-2.87657 0.170066,-0.75134 2.27603,-0.67634 0.102082,0.004 -0.07002,-0.19214 -0.09751,-0.29052 -0.04848,-0.17345 -0.09669,-0.34742 -0.130237,-0.52437 -0.124067,-0.65432 -0.09384,-0.68466 -0.10156,-1.36157 0.07931,-1.00777 0.350711,-1.99706 0.857152,-2.87652 0.334855,-0.58149 0.466996,-0.69058 0.902421,-1.20733 0.668822,-0.65771 1.62841,-1.6471 2.653995,-1.6287 0.092,0.002 0.180674,0.035 0.27101,0.0525 0.03327,0.0324 0.06655,0.0648 0.09982,0.0972 1.880444,0.66813 2.825321,-1.99122 0.944874,-2.65935 v 0 c -0.29823,-0.0854 -0.59646,-0.17075 -0.894693,-0.25612 -0.859311,-0.0104 -1.025581,-0.0803 -1.866515,0.18954 -1.352824,0.43404 -2.435544,1.4028 -3.390216,2.41464 -0.607868,0.75467 -0.799428,0.9221 -1.261339,1.76874 -0.70295,1.28844 -1.069205,2.72092 -1.13767,4.18278 0.01349,0.35395 0.006,0.70933 0.04046,1.06186 0.05599,0.57249 0.204502,1.25644 0.395426,1.80302 0.08346,0.23894 0.148593,0.49505 0.301096,0.69704 0.250064,0.33121 0.470752,0.87796 0.885751,0.87495 0.720739,-0.005 1.31203,-0.59711 1.968045,-0.89567 0.03403,-0.20551 0.08881,-0.40863 0.102091,-0.61651 0.01923,-0.30088 -0.07594,-0.88309 -0.126923,-1.15664 -0.172272,-0.92429 -0.427454,-1.83123 -0.700607,-2.7299 -0.495478,-1.50255 -1.023278,-3.00065 -1.783168,-4.394 -0.934158,-1.76347 -3.428078,-0.44237 -2.49392,1.32109 z"
       id="path863"
       style="fill:#ffffff;fill-opacity:1;fill-rule:nonzero;stroke:none;stroke-width:0.264583" />
    <path
       d="m 37.101748,269.05321 c -0.4474,-0.16325 -0.924282,-0.27557 -1.40343,-0.27278 -0.153318,7.9e-4 -0.306091,0.0183 -0.459136,0.0275 -0.937898,0.13553 -1.803929,0.5494 -2.492992,1.20402 -0.171376,0.16282 -0.321241,0.34687 -0.481862,0.5203 -0.14756,0.19949 -0.304863,0.39213 -0.442682,0.59847 -0.658577,0.98601 -1.226246,2.18067 -1.537737,3.32428 -0.08995,0.33023 -0.142888,0.66945 -0.214331,1.00416 -0.02426,0.34148 -0.0818,0.68222 -0.07282,1.02444 0.02887,1.10027 0.366834,2.18134 1.067207,3.04395 0.646819,0.79665 0.960224,0.87935 1.826845,1.39606 0.360847,0.12757 0.711266,0.28976 1.082538,0.38271 1.529431,0.38293 3.25814,0.23626 4.608094,-0.62452 0.358984,-0.2289 0.657228,-0.54139 0.985843,-0.81209 0.256439,-0.33255 0.548465,-0.64047 0.769318,-0.99764 0.652346,-1.05501 0.994659,-2.31106 1.083172,-3.54052 0.07441,-1.03352 -0.01632,-1.30319 -0.156815,-2.31443 -0.09699,-0.3497 -0.169506,-0.70712 -0.290952,-1.04909 -0.350898,-0.98805 -0.924814,-1.97332 -1.758016,-2.63506 -0.826283,-0.65625 -1.088438,-0.63976 -2.069978,-0.94655 -1.463297,-0.10436 -0.746509,-0.12622 -2.150774,0.0504 -1.973528,0.29608 -1.554811,3.08707 0.418716,2.79099 v 0 c 0.664247,-0.13264 0.333751,-0.0948 0.990933,-0.11819 0.31722,0.0551 0.561256,0.0631 0.84006,0.24326 0.710819,0.45925 1.012455,1.31666 1.229429,2.0857 0.04204,0.24805 0.101772,0.49375 0.126111,0.74416 0.09884,1.0169 -0.06514,2.1131 -0.541253,3.0252 -0.100695,0.1929 -0.238487,0.36404 -0.357732,0.54606 -0.349335,0.35848 -0.429602,0.51137 -0.901031,0.7145 -0.59913,0.25816 -1.309735,0.27497 -1.942724,0.15712 -0.202838,-0.0378 -0.396857,-0.11304 -0.595284,-0.16956 -0.377195,-0.17713 -0.559424,-0.2224 -0.8588,-0.50965 -0.351433,-0.3372 -0.552048,-0.82027 -0.587222,-1.30284 -0.01505,-0.20663 0.01373,-0.41413 0.02058,-0.62119 0.04325,-0.22846 0.07193,-0.46016 0.129738,-0.68538 0.269547,-1.05006 0.784646,-2.03931 1.402887,-2.92298 0.326801,-0.39291 0.59957,-0.67104 1.111327,-0.79405 0.182973,-0.0377 0.364069,-0.0132 0.542375,0.0405 1.843598,0.76394 2.923982,-1.8433 1.080381,-2.60724 z"
       id="path867"
       style="fill:#ffffff;fill-opacity:1;fill-rule:nonzero;stroke:none;stroke-width:0.264583" />
    <path
       d="m 48.583717,268.07856 c -0.1958,-0.0514 -0.386495,-0.12936 -0.587396,-0.15428 -0.774023,-0.096 -1.649981,0.29511 -2.285725,0.69808 -0.197509,0.12519 -0.380357,0.27213 -0.570537,0.4082 -0.178271,0.16379 -0.367726,0.3162 -0.534813,0.49139 -0.666818,0.69915 -1.248476,1.65073 -1.166003,2.6597 0.02384,0.29157 0.136846,0.56887 0.205267,0.8533 0.157977,0.24401 0.28802,0.50857 0.473932,0.73203 0.443529,0.53312 1.083329,0.87592 1.64388,1.26422 0.472356,0.3272 0.368216,0.25445 0.761878,0.60684 0.0127,-0.005 0.389904,0.42633 0.164598,0.47095 -0.03405,0.007 -0.07157,-0.0382 -0.101923,-0.0213 -0.06666,0.037 -0.104275,0.11126 -0.15788,0.16547 -0.09305,0.0941 -0.188018,0.18625 -0.28203,0.27938 -0.635769,0.57403 -1.421037,0.89162 -2.23757,1.10655 -1.926831,0.51942 -1.192255,3.24437 0.734573,2.72495 v 0 c 1.408536,-0.38565 2.562326,-0.93158 3.624445,-1.97021 0.471604,-0.57017 0.830038,-0.89278 1.057878,-1.6275 0.31015,-1.00016 0.135247,-1.85265 -0.4524,-2.69377 -0.143293,-0.2051 -0.330957,-0.37531 -0.496432,-0.56297 -0.177054,-0.1515 -0.348094,-0.31032 -0.531162,-0.45449 -0.286959,-0.22599 -0.678532,-0.47849 -0.985383,-0.68315 -0.113696,-0.0758 -0.226274,-0.15337 -0.340915,-0.22777 -0.05511,-0.0358 -0.103661,-0.0906 -0.168254,-0.10266 -0.02506,-0.005 -0.02844,0.0423 -0.04265,0.0634 -0.01603,0.0425 -0.01937,0.0923 -0.04808,0.12743 -0.01199,0.0147 -0.04954,0.0186 -0.05683,10e-4 -0.04757,-0.11407 0.0992,-0.33065 0.131601,-0.38169 0.167275,-0.26351 0.255037,-0.32577 0.477922,-0.54883 0.09787,-0.0761 0.191625,-0.15777 0.293603,-0.22824 0.241737,-0.16707 0.270526,-0.159 0.502613,-0.28149 0.02532,-0.0134 0.07352,-0.016 0.07339,-0.0446 -5.29e-4,-0.12569 -0.672782,0.20965 -0.350083,-0.14006 1.789022,0.88423 3.039515,-1.64583 1.250492,-2.53006 z"
       id="path869"
       style="fill:#ffffff;fill-opacity:1;fill-rule:nonzero;stroke:none;stroke-width:0.264583" />
    <path
       d="m 56.583,269.39462 c 0.696198,-0.87299 0.996669,-1.98133 -0.06858,-2.84626 -0.286777,-0.23285 -0.708499,-0.20943 -1.062749,-0.31415 -0.277128,0.0497 -0.561491,0.0689 -0.831387,0.14903 -0.894292,0.2656 -1.974414,1.07622 -2.577068,1.77633 -0.176573,0.20512 -0.321644,0.43538 -0.482465,0.65307 -0.118465,0.24854 -0.265137,0.48549 -0.355389,0.7456 -0.265694,0.76575 -0.265144,1.58273 -0.04427,2.35791 0.185875,0.65233 0.327017,0.79423 0.679228,1.37178 0.454134,0.61564 1.054008,1.07141 1.677395,1.49982 0.233265,0.16031 0.731708,0.47468 0.971471,0.65141 0.117083,0.0863 0.226033,0.18313 0.33905,0.2747 0.200758,0.20675 0.497816,0.49433 0.423598,0.82308 -0.01365,0.0605 -0.137388,0.2641 -0.155686,0.29598 -0.434983,0.61531 -0.997302,1.13612 -1.694789,1.43744 -0.139562,0.0603 -0.286432,0.10202 -0.429649,0.15303 -0.286514,0.0823 -0.570367,0.11615 -0.864587,0.0802 -1.99423,-0.0742 -2.099151,2.74608 -0.104918,2.82027 v 0 c 0.190082,0.002 0.380508,0.0185 0.570249,0.007 0.629716,-0.0386 0.788178,-0.11324 1.415489,-0.27445 0.686422,-0.27646 0.888635,-0.31922 1.519251,-0.73445 0.712949,-0.46945 1.374867,-1.10009 1.841053,-1.8185 0.167108,-0.25752 0.290755,-0.54077 0.436136,-0.81116 0.200634,-0.74886 0.323027,-0.92398 0.234699,-1.70957 -0.0848,-0.75425 -0.460669,-1.44334 -0.952408,-2.00658 -0.147571,-0.16903 -0.320852,-0.31376 -0.481279,-0.47064 -0.169022,-0.13284 -0.333823,-0.27123 -0.507064,-0.39851 -0.621054,-0.4563 -1.326541,-0.80695 -1.87308,-1.3591 -0.05628,-0.0722 -0.119679,-0.13944 -0.168834,-0.2167 -0.14502,-0.22793 -0.285734,-0.57193 -0.241437,-0.85088 0.01315,-0.0827 0.04798,-0.16052 0.07196,-0.24079 0.06525,-0.10279 0.120179,-0.21292 0.195752,-0.30839 0.182486,-0.23053 0.447841,-0.4706 0.682035,-0.64574 0.115855,-0.0866 0.240151,-0.16148 0.36295,-0.23796 0.07795,-0.0486 0.175673,-0.0705 0.239032,-0.13696 0.0181,-0.019 -0.03524,-0.0389 -0.05286,-0.0583 -0.174096,-0.0946 -0.399523,-0.12834 -0.52229,-0.28388 -0.198025,-0.25089 -0.31905,-0.56381 -0.392343,-0.87492 -0.03216,-0.13653 0.04944,-0.27674 0.08934,-0.41123 0.0071,-0.0238 0.025,-0.0613 0.04923,-0.0559 0.01045,0.002 -0.05123,0.0998 -0.05459,0.10534 -1.317461,1.49892 0.802333,3.36209 2.119797,1.86317 z"
       id="path871"
       style="fill:#ffffff;fill-opacity:1;fill-rule:nonzero;stroke:none;stroke-width:0.264583" />
    <path
       d="m 58.23414,280.00325 c -0.08312,0.41328 -0.195466,1.20227 0.271452,1.39668 0.678963,0.28269 1.477314,0.0829 2.206339,-0.0142 0.0914,-0.0122 0.303205,-0.50378 0.340381,-0.5832 -0.812106,-0.45675 -1.624213,-0.9135 -2.43632,-1.37025 -1.263412,1.54475 0.9212,3.33149 2.184612,1.78674 v 0 c -0.792525,-0.4807 -1.585048,-0.96139 -2.37757,-1.44208 0.405707,-0.76257 1.014529,-0.7456 2.274925,-0.15423 0.320688,0.15047 0.197683,0.68041 0.287975,1.02294 0.003,0.0115 -0.01117,0.0461 -0.0093,0.0344 0.0053,-0.0323 0.01289,-0.0642 0.01931,-0.0962 0.41053,-1.95293 -2.351328,-2.53351 -2.761859,-0.58058 z"
       id="path873"
       style="fill:#ffffff;fill-opacity:1;fill-rule:nonzero;stroke:none;stroke-width:0.264583" />
  </g>
</svg>
