<?xml version="1.0" encoding="UTF-8" standalone="no"?>
<svg
   xmlns:dc="http://purl.org/dc/elements/1.1/"
   xmlns:cc="http://creativecommons.org/ns#"
   xmlns:rdf="http://www.w3.org/1999/02/22-rdf-syntax-ns#"
   xmlns:svg="http://www.w3.org/2000/svg"
   xmlns="http://www.w3.org/2000/svg"
   xmlns:sodipodi="http://sodipodi.sourceforge.net/DTD/sodipodi-0.dtd"
   xmlns:inkscape="http://www.inkscape.org/namespaces/inkscape"
   inkscape:version="1.0 (1.0+r73+1)"
   sodipodi:docname="heart.svg"
   id="svg8"
   version="1.1"
   viewBox="0 0 64 64"
   height="64mm"
   width="64mm">
  <defs
     id="defs2" />
  <sodipodi:namedview
     inkscape:document-rotation="0"
     inkscape:window-maximized="1"
     inkscape:window-y="27"
     inkscape:window-x="0"
     inkscape:window-height="1016"
     inkscape:window-width="1920"
     inkscape:snap-page="true"
     showgrid="false"
     inkscape:current-layer="layer1"
     inkscape:document-units="mm"
     inkscape:cy="110.27027"
     inkscape:cx="68.750268"
     inkscape:zoom="3"
     inkscape:pageshadow="2"
     inkscape:pageopacity="0.0"
     borderopacity="1.0"
     bordercolor="#666666"
     pagecolor="#ffffff"
     id="base" />
  <metadata
     id="metadata5">
    <rdf:RDF>
      <cc:Work
         rdf:about="">
        <dc:format>image/svg+xml</dc:format>
        <dc:type
           rdf:resource="http://purl.org/dc/dcmitype/StillImage" />
        <dc:title></dc:title>
      </cc:Work>
    </rdf:RDF>
  </metadata>
  <g
     transform="translate(0,-233)"
     id="layer1"
     inkscape:groupmode="layer"
     inkscape:label="Layer 1">
    <rect
       y="233"
       x="0"
       height="64"
       width="64"
       id="rect3713"
       style="fill:#e91e63;stroke-width:0.26458332;fill-opacity:1" />
    <path
       d="m 26.64193,250.36703 c -1.303271,0.6216 -2.449516,1.51849 -3.602537,2.37538 -2.519348,1.92655 -5.147185,3.7024 -7.787573,5.45689 -2.582201,1.67841 -5.096837,3.45601 -7.5955645,5.25526 -0.6322221,0.49056 -1.328421,0.91081 -1.9114108,1.46432 -0.1226127,0.11641 -0.2296478,0.24821 -0.3444719,0.37231 -1.3125551,1.50322 0.8133183,3.35945 2.1258731,1.85623 v 0 c 0.1252844,-0.19307 0.063682,-0.11558 0.3776895,-0.36579 0.3693001,-0.29428 1.0530647,-0.78345 1.4014735,-1.03683 2.4700201,-1.77863 4.9555911,-3.53612 7.5083861,-5.19493 2.681695,-1.78209 5.350252,-3.58644 7.909476,-5.54262 0.967468,-0.71962 1.924313,-1.47084 2.996553,-2.03195 1.844326,-0.76218 0.766434,-3.37045 -1.077894,-2.60827 z"
       id="path2111"
       style="fill:#ffffff;fill-opacity:1;fill-rule:nonzero;stroke:none;stroke-width:0.264583" />
    <path
       d="m 5.576758,267.78087 c 0.7806929,0.41586 1.5719274,0.81031 2.3696838,1.19225 1.2999291,0.60519 2.6386802,1.12074 3.9590712,1.67838 1.1259,0.4755 1.240127,0.53408 2.36409,1.03773 2.46684,1.10829 4.838631,2.40871 7.210282,3.70386 1.81831,0.99428 3.680045,1.9069 5.475973,2.94182 1.729544,0.99556 3.137482,-1.45038 1.407938,-2.44595 v 0 c -1.81523,-1.04381 -3.692568,-1.97171 -5.531265,-2.97282 -2.436631,-1.33062 -4.874422,-2.66467 -7.409182,-3.80252 -1.165454,-0.52189 -1.271308,-0.5769 -2.43665,-1.06903 -1.274411,-0.5382 -2.56642,-1.03593 -3.8222627,-1.61734 -0.7610552,-0.36382 -1.5154529,-0.7404 -2.2601015,-1.13686 -1.7610338,-0.93874 -3.0886103,1.55174 -1.3275768,2.49048 z"
       id="path2115"
       style="fill:#ffffff;fill-opacity:1;fill-rule:nonzero;stroke:none;stroke-width:0.264583" />
    <path
       d="m 41.559421,248.26765 c 0.879446,-0.24616 1.756736,-0.50305 2.654118,-0.67775 0.313917,-0.0611 0.630232,-0.10919 0.945348,-0.16378 1.419749,-0.21458 2.8658,-0.2635 4.292052,-0.0764 0.940218,0.12334 1.22432,0.22437 2.138603,0.45705 1.277689,0.37838 2.468637,0.97866 3.460827,1.87726 0.600054,0.54346 0.734531,0.77002 1.228945,1.40128 0.641874,0.94144 1.031293,1.96215 1.099656,3.10498 0.04127,0.68996 -0.02143,0.84007 -0.132067,1.51236 -0.07907,0.23189 -0.137509,0.47188 -0.237204,0.69568 -0.311076,0.69831 -0.828665,1.28793 -1.458426,1.71798 -0.621943,0.42471 -1.121907,0.597 -1.819831,0.89911 -0.388466,0.1341 -0.773768,0.27774 -1.165397,0.4023 -0.796676,0.25338 -1.885696,0.54441 -2.688846,0.7565 -0.775534,0.2048 -2.095151,0.54496 -2.876876,0.72392 -0.456416,0.10448 -0.915979,0.19472 -1.37397,0.29208 -0.406001,0.0643 -0.812001,0.12863 -1.218004,0.19294 -1.970561,0.3152 -1.524807,3.10199 0.445756,2.7868 v 0 c 0.453443,-0.0732 0.906889,-0.14632 1.360332,-0.21947 0.485479,-0.10365 0.972563,-0.20004 1.456436,-0.31095 0.792715,-0.1817 2.154076,-0.53227 2.9416,-0.74056 0.856176,-0.22644 2.041994,-0.54384 2.884768,-0.81709 0.464336,-0.15055 0.920539,-0.32511 1.38081,-0.48767 1.053817,-0.47804 1.603939,-0.65734 2.534986,-1.35688 1.023581,-0.76907 1.818916,-1.80475 2.289681,-2.99487 0.145597,-0.36808 0.225147,-0.75897 0.337719,-1.13845 0.135787,-1.04223 0.222091,-1.26593 0.131353,-2.32005 -0.142637,-1.65706 -0.738884,-3.10592 -1.68714,-4.45975 -0.687914,-0.8491 -0.856559,-1.13054 -1.690118,-1.85893 -1.306571,-1.14173 -2.860056,-1.91481 -4.519578,-2.39625 -1.121651,-0.27696 -1.429224,-0.38776 -2.58444,-0.53136 -1.668317,-0.20738 -3.358428,-0.14556 -5.017421,0.10833 -0.355999,0.0627 -0.713348,0.11814 -1.068003,0.18803 -0.945455,0.18631 -1.871218,0.45299 -2.798001,0.7135 -1.923399,0.53198 -1.171069,3.25208 0.752332,2.7201 z"
       id="path2119"
       style="fill:#ffffff;fill-opacity:1;fill-rule:nonzero;stroke:none;stroke-width:0.264583" />
    <path
       d="m 44.622053,263.97029 c 0.48533,0.0545 0.966239,0.14039 1.447165,0.22399 0.919538,0.16976 1.84812,0.31151 2.748266,0.57091 0.190889,0.055 0.378545,0.12068 0.567817,0.18101 0.907704,0.34019 1.783297,0.78821 2.552785,1.38227 0.136522,0.1054 0.264504,0.22142 0.396759,0.33213 0.793847,0.71893 1.319408,1.65943 1.835144,2.58377 0.464905,0.90516 0.994506,1.78632 1.354233,2.74176 0.06526,0.17333 0.117242,0.35138 0.175863,0.52706 0.251235,1.00542 0.41818,2.04006 0.424911,3.07858 0.0011,0.17778 -0.0089,0.35546 -0.01328,0.5332 -0.03761,0.59221 -0.133606,1.18329 -0.32822,1.74545 -0.101325,0.29268 -0.167167,0.41226 -0.299276,0.69152 -0.296884,0.57173 -0.65664,1.10949 -1.084979,1.59062 -0.296998,0.31245 -0.666571,0.53258 -1.053529,0.71402 -0.562621,0.22303 -1.161055,0.33728 -1.75338,0.45034 -0.700874,0.13003 -1.410592,0.19558 -2.121535,0.23564 -0.73651,0.0388 -1.473531,0.0394 -2.20957,-0.005 -0.826146,-0.0565 -1.634419,-0.23676 -2.436662,-0.43205 -0.893619,-0.22497 -1.791681,-0.43225 -2.673006,-0.70249 -0.489797,-0.1519 -0.953481,-0.3611 -1.341533,-0.69884 -0.19455,-0.18824 -0.362563,-0.40254 -0.5134,-0.62688 -0.06855,-0.1182 -0.01222,-0.0245 -0.195096,-0.26369 -1.300892,-1.51332 -3.441054,0.32642 -2.140161,1.83974 v 0 c -0.110776,-0.16357 -0.106241,-0.15944 0.0059,0.0174 0.303975,0.44061 0.642364,0.85921 1.047922,1.21139 0.280017,0.22541 0.343559,0.29003 0.65449,0.4837 0.515882,0.32133 1.0825,0.54847 1.658419,0.73658 0.934103,0.28371 1.883137,0.51035 2.830361,0.74556 0.966944,0.23437 1.942489,0.44314 2.938124,0.50698 0.844606,0.048 1.690206,0.0518 2.535224,0.005 0.83534,-0.0483 1.66918,-0.1272 2.492436,-0.28163 0.83417,-0.16083 1.674249,-0.33439 2.453854,-0.68305 0.721334,-0.35673 1.401834,-0.78888 1.944021,-1.39331 0.598763,-0.69039 1.118584,-1.44522 1.523942,-2.26628 0.209595,-0.46065 0.284623,-0.59315 0.445087,-1.07962 0.264668,-0.80236 0.39751,-1.64215 0.44219,-2.48421 0.0039,-0.23355 0.01482,-0.4671 0.01169,-0.70067 -0.01746,-1.31034 -0.229627,-2.6162 -0.573611,-3.87858 -0.08238,-0.23806 -0.15693,-0.47898 -0.247137,-0.71419 -0.402839,-1.05038 -0.97318,-2.0268 -1.491155,-3.02186 -0.689213,-1.22979 -1.422005,-2.45227 -2.503104,-3.38383 -0.187803,-0.15314 -0.370141,-0.31323 -0.563406,-0.45941 -1.008076,-0.76249 -2.147252,-1.34089 -3.333395,-1.76916 -0.238014,-0.0743 -0.4742,-0.15466 -0.714042,-0.22278 -0.972844,-0.27635 -1.973429,-0.43702 -2.966842,-0.61788 -0.534254,-0.0928 -1.06866,-0.18689 -1.607804,-0.24717 -1.982539,-0.22805 -2.30505,2.57568 -0.322511,2.80374 z"
       id="path2131"
       style="fill:#ffffff;fill-opacity:1;fill-rule:nonzero;stroke:none;stroke-width:0.264583" />
  </g>
</svg>
