<?xml version="1.0" encoding="UTF-8" standalone="no"?>
<svg
   xmlns:dc="http://purl.org/dc/elements/1.1/"
   xmlns:cc="http://creativecommons.org/ns#"
   xmlns:rdf="http://www.w3.org/1999/02/22-rdf-syntax-ns#"
   xmlns:svg="http://www.w3.org/2000/svg"
   xmlns="http://www.w3.org/2000/svg"
   xmlns:sodipodi="http://sodipodi.sourceforge.net/DTD/sodipodi-0.dtd"
   xmlns:inkscape="http://www.inkscape.org/namespaces/inkscape"
   inkscape:version="1.0 (1.0+r73+1)"
   sodipodi:docname="help.svg"
   id="svg8"
   version="1.1"
   viewBox="0 0 64 64"
   height="64mm"
   width="64mm">
  <defs
     id="defs2" />
  <sodipodi:namedview
     inkscape:document-rotation="0"
     inkscape:window-maximized="1"
     inkscape:window-y="27"
     inkscape:window-x="0"
     inkscape:window-height="1016"
     inkscape:window-width="1920"
     inkscape:snap-page="true"
     showgrid="false"
     inkscape:current-layer="layer1"
     inkscape:document-units="mm"
     inkscape:cy="119.18926"
     inkscape:cx="123.4137"
     inkscape:zoom="3"
     inkscape:pageshadow="2"
     inkscape:pageopacity="0.0"
     borderopacity="1.0"
     bordercolor="#666666"
     pagecolor="#ffffff"
     id="base" />
  <metadata
     id="metadata5">
    <rdf:RDF>
      <cc:Work
         rdf:about="">
        <dc:format>image/svg+xml</dc:format>
        <dc:type
           rdf:resource="http://purl.org/dc/dcmitype/StillImage" />
        <dc:title></dc:title>
      </cc:Work>
    </rdf:RDF>
  </metadata>
  <g
     transform="translate(0,-233)"
     id="layer1"
     inkscape:groupmode="layer"
     inkscape:label="Layer 1">
    <rect
       y="233"
       x="0"
       height="64"
       width="64"
       id="rect3713"
       style="fill:#ffc107;stroke-width:0.26458332;fill-opacity:1" />
    <path
       d="m 3.4843989,242.98551 c -0.029648,0.72803 0.1170683,1.44145 0.2924354,2.14325 0.2906401,1.02821 0.7433062,1.99871 1.2117017,2.95549 0.4732459,0.87603 0.861186,1.78914 1.1997484,2.72418 0.405925,1.16902 0.760803,2.35488 1.1191401,3.5391 0.441166,1.47188 0.911154,2.93483 1.385003,4.39644 0.552074,1.70158 1.1670437,3.38141 1.7152245,5.08424 0.625214,1.93926 1.031211,3.93697 1.423514,5.93323 0.293649,1.53713 0.59677,3.07246 0.886831,4.61028 0.05112,0.26695 0.09618,0.53505 0.148927,0.8017 0.0078,0.0394 0.01622,0.0786 0.02448,0.11792 0.0038,0.0182 0.0115,0.0732 0.01181,0.0546 0.0033,-0.19504 -0.002,-0.39013 -0.003,-0.5852 0.831612,-0.18995 1.663224,-0.3799 2.494837,-0.56984 0.01452,0.0192 0.02005,0.0524 0.04357,0.0577 0.01963,0.004 -0.01796,-0.036 -0.02694,-0.054 -0.926437,-1.76754 -3.42611,-0.45736 -2.499673,1.31018 v 0 c 0.570283,1.07032 0.485226,0.43465 2.747798,-0.15278 4.23e-4,-0.20168 0.0033,-0.40337 0.0013,-0.60503 -3.44e-4,-0.0354 -0.01541,-0.0691 -0.02229,-0.1039 -0.05234,-0.26422 -0.09663,-0.52997 -0.147551,-0.79446 -0.29144,-1.5449 -0.595841,-3.08732 -0.890921,-4.63151 -0.41387,-2.10474 -0.846216,-4.20997 -1.506466,-6.25424 -0.549403,-1.70429 -1.162647,-3.38651 -1.716836,-5.08923 -0.468156,-1.444 -0.932592,-2.88931 -1.368405,-4.34348 -0.3732025,-1.23329 -0.7431215,-2.46824 -1.1677045,-3.6851 -0.374758,-1.02915 -0.798867,-2.03718 -1.318286,-3.00294 -0.3838699,-0.78203 -0.7600986,-1.57286 -1.0108649,-2.40957 -0.1187056,-0.45403 -0.2260851,-0.916 -0.2058016,-1.38895 0.041048,-1.99519 -2.7805769,-2.05324 -2.8216251,-0.0581 z"
       id="path1120"
       style="fill:#000000;fill-opacity:1;fill-rule:nonzero;stroke:none;stroke-width:0.264583" />
    <path
       d="m 14.051336,275.98771 c 0.82684,0.0123 1.653413,0.008 2.479926,-0.0175 1.052849,-0.0456 2.098791,-0.18487 3.152938,-0.19944 0.491969,0.004 0.982092,0.0485 1.471929,0.0898 0.363472,0.0412 0.719047,0.009 1.074312,-0.0675 0.285191,-0.22704 0.570382,-0.45409 0.855573,-0.68113 1.013418,-1.71914 -1.417815,-3.15234 -2.431235,-1.43319 v 0 c 0.269581,-0.20057 0.539162,-0.40114 0.808743,-0.6017 0.381593,-0.0669 0.01951,-2.4e-4 -0.07036,-0.0287 -0.583869,-0.0492 -1.168313,-0.0999 -1.75483,-0.0994 -1.06839,0.0194 -2.129078,0.14079 -3.195461,0.20045 -0.781925,0.0249 -1.563922,0.0276 -2.346172,0.0165 -1.995355,-0.0321 -2.040721,2.78978 -0.04537,2.82186 z"
       id="path1122"
       style="fill:#000000;fill-opacity:1;fill-rule:nonzero;stroke:none;stroke-width:0.264583" />
    <path
       d="m 23.772725,273.37069 c 0.09123,-0.62592 0.209192,-1.24755 0.330567,-1.86819 0.310796,-1.42934 0.618988,-2.85834 0.881436,-4.29748 0.371448,-2.25974 0.737132,-4.5205 1.101167,-6.78147 0.395867,-2.59206 0.805611,-5.18152 1.268862,-7.76244 0.371652,-1.99964 0.776422,-3.99271 1.110885,-5.99907 0.169066,-1.15607 0.37034,-2.30623 0.605128,-3.45063 0.08866,-0.41801 0.165987,-0.83823 0.240753,-1.2589 0.01339,-0.0488 -0.01265,0.0617 -0.02186,0.0918 -0.143661,0.47053 0.154313,-0.75941 0.06286,-0.82483 -0.668546,-0.4783 -1.574646,-0.47262 -2.361972,-0.70893 -1.506762,1.30848 0.34372,3.43937 1.85048,2.13088 v 0 c -0.747969,-0.27049 -1.619459,-0.31883 -2.243908,-0.81146 -0.06311,-0.0498 0.258176,-1.39882 0.0036,-0.64264 -0.03823,0.11353 -0.04675,0.16678 -0.06789,0.27137 -0.0704,0.3962 -0.142992,0.79201 -0.22674,1.18567 -0.241652,1.1787 -0.45017,2.36316 -0.624306,3.55386 -0.332108,1.99483 -0.736574,3.97604 -1.104879,5.96435 -0.46604,2.59755 -0.879229,5.20354 -1.277352,7.81231 -0.360951,2.24191 -0.723943,4.48353 -1.091369,6.72436 -0.259672,1.42747 -0.568413,2.8441 -0.874761,4.26212 -0.137245,0.70328 -0.272325,1.40779 -0.367868,2.11816 -0.205851,1.98497 2.601317,2.27609 2.807168,0.29112 z"
       id="path1124"
       style="fill:#000000;fill-opacity:1;fill-rule:nonzero;stroke:none;stroke-width:0.264583" />
    <path
       d="m 28.035043,239.88561 c -0.488826,-0.0238 -0.976921,-0.0605 -1.465458,-0.0897 -0.934051,-0.0607 -1.869218,-0.0615 -2.803745,-0.0174 -1.044462,0.0776 -2.085109,0.1943 -3.13023,0.26406 -0.960784,0.0581 -1.923492,0.0702 -2.885767,0.073 -1.065674,-0.002 -2.13121,-0.0217 -3.19676,-0.0365 -1.036075,-0.0113 -2.072161,-0.0219 -3.107853,-0.0533 -0.816355,-0.0311 -1.6317818,-0.0812 -2.4481385,-0.11231 -0.589637,-0.0233 -1.179687,-0.0191 -1.769442,-0.005 -0.4119237,0.0104 -0.8234008,0.0317 -1.2345538,0.0583 -0.1754973,0.009 -0.3504576,0.0242 -0.523711,0.054 0.00337,-7.7e-4 0.012404,2.5e-4 0.01011,-0.002 -0.00101,-10e-4 -0.2245942,0.0184 -0.2505774,0.0207 -0.635336,0.0563 -0.9458478,0.29248 -1.3239638,0.92391 -0.1027322,0.17156 -0.067678,0.39416 -0.1015175,0.59124 0.029255,1.9954 2.8511733,1.95403 2.8219191,-0.0414 v 0 c -0.03426,0.16837 -0.0092,0.36101 -0.1027803,0.50512 -0.2908808,0.44794 -0.5830454,0.78909 -1.0969003,0.83813 -0.01951,0.002 0.086861,-0.009 0.058449,-0.006 0.1630164,-0.0148 0.3268422,-0.0241 0.4883306,-0.052 -0.096286,0.0124 0.1567453,-0.0176 0.2034267,-0.0148 0.3731782,-0.0242 0.746636,-0.0438 1.1205187,-0.0532 0.531184,-0.013 1.06263,-0.0174 1.593723,0.004 0.823662,0.0311 1.6463375,0.0828 2.4700405,0.11305 1.051042,0.0316 2.102461,0.0432 3.153892,0.0543 1.081375,0.0149 2.162736,0.0345 3.244238,0.0367 1.022439,-0.003 2.045324,-0.0166 3.06613,-0.0793 1.027551,-0.0692 2.051118,-0.17914 3.077599,-0.26103 0.833115,-0.0414 1.666825,-0.0376 2.499574,0.0157 0.513853,0.0306 1.027208,0.07 1.541471,0.0932 1.99455,0.065 2.08653,-2.75568 0.09198,-2.82072 z"
       id="path1126"
       style="fill:#000000;fill-opacity:1;fill-rule:nonzero;stroke:none;stroke-width:0.264583" />
    <path
       d="m 11.794113,281.79143 c 0.01093,0.67219 0.03701,1.3435 0.07639,2.01461 0.07392,0.97816 0.132356,1.95709 0.168842,2.93734 0.01179,0.38788 0.02224,0.7759 0.02325,1.16399 -6.3e-5,0.0687 -0.0011,0.1374 -0.0017,0.2061 -0.102275,0.82703 2.821955,1.01493 2.821681,-0.006 -5.29e-4,-1.99561 -2.822763,-1.99484 -2.822222,8e-4 v 0 c 2.91e-4,1.02219 2.904977,1.06175 2.822654,0.0297 6.88e-4,-0.0797 0.0019,-0.15939 0.0017,-0.23909 -0.0013,-0.42047 -0.01203,-0.84086 -0.0252,-1.2611 -0.03745,-1.00057 -0.09595,-1.99989 -0.171779,-2.99831 -0.03954,-0.66603 -0.06177,-1.33228 -0.07553,-1.9993 -0.10672,-1.99276 -2.924904,-1.84183 -2.818184,0.15093 z"
       id="path1128"
       style="fill:#000000;fill-opacity:1;fill-rule:nonzero;stroke:none;stroke-width:0.264583" />
    <path
       d="m 13.972169,289.37303 c 0.606923,-0.14458 1.229026,-0.1926 1.849333,-0.23946 1.010258,-0.0685 2.02292,-0.0847 3.035085,-0.0983 0.739437,-0.0142 1.478762,-0.004 2.217266,0.0344 -0.366275,-0.0669 0.389908,0.0385 0.292621,0.027 -0.04243,-0.005 -0.08969,0.003 -0.12692,-0.0178 -0.230371,-0.12956 -0.444668,-0.28582 -0.667002,-0.42873 1.238424,1.56485 3.451466,-0.18654 2.21304,-1.7514 v 0 c -0.247896,-0.17521 -0.479154,-0.37673 -0.74369,-0.52563 -0.192752,-0.10851 -0.599352,-0.0943 -0.821859,-0.12196 -0.799856,-0.0412 -1.600573,-0.0534 -2.401423,-0.0379 -1.071062,0.0145 -2.142634,0.0325 -3.211602,0.10622 -0.720701,0.0553 -1.443565,0.11475 -2.14947,0.27862 -1.962154,0.36389 -1.447534,3.1388 0.514621,2.77491 z"
       id="path1130"
       style="fill:#000000;fill-opacity:1;fill-rule:nonzero;stroke:none;stroke-width:0.264583" />
    <path
       d="m 23.187107,286.90399 c -0.05587,-0.6935 -0.124535,-1.38572 -0.196981,-2.07766 -0.106107,-0.92903 -0.183673,-1.86075 -0.26158,-2.79244 -0.04111,-0.49608 -0.09175,-0.99181 -0.192935,-1.47957 -0.07898,-0.29011 -0.03151,-0.14129 -0.145638,-0.44543 -0.760757,-1.84492 -3.369864,-0.76904 -2.609106,1.07587 v 0 c -0.0038,-0.0163 -0.0076,-0.0327 -0.01143,-0.049 0.0019,0.002 0.0038,0.004 0.0056,0.005 0.08311,0.37019 0.101501,0.75166 0.141059,1.1279 0.07956,0.95126 0.158985,1.90255 0.267108,2.85113 0.07128,0.68071 0.138723,1.36171 0.193657,2.04397 0.183992,1.98711 2.994193,1.72691 2.810201,-0.26021 z"
       id="path1132"
       style="fill:#000000;fill-opacity:1;fill-rule:nonzero;stroke:none;stroke-width:0.264583" />
    <path
       d="m 20.153818,279.37471 c -0.436966,0.008 -0.873999,0.0128 -1.31087,0.0251 -0.627442,0.0341 -1.254533,0.0692 -1.882684,0.0878 -0.668732,0.0173 -1.33771,0.0187 -2.006607,0.0232 -0.533596,-0.007 -1.063014,0.0637 -1.592903,0.11507 -0.262421,0.0366 -0.530757,0.0256 -0.793214,0.0598 -0.09386,0.0122 -0.191287,0.0133 -0.280326,0.0454 -0.196209,0.0708 -0.379166,0.17399 -0.568749,0.26099 -1.623614,1.16032 0.01733,3.45645 1.640944,2.29613 v 0 c -0.163121,0.0681 -0.322917,0.14476 -0.489363,0.20426 -0.03344,0.012 -0.141663,0.0101 -0.106182,0.009 0.290444,-0.0117 0.579977,-0.0471 0.869901,-0.0662 0.445494,-0.0434 0.890509,-0.10666 1.339101,-0.1019 0.690563,-0.005 1.381208,-0.006 2.071594,-0.0244 0.626817,-0.0188 1.252753,-0.0514 1.878758,-0.0877 0.415904,-0.012 0.831994,-0.0157 1.247988,-0.024 1.995575,-0.0123 1.978187,-2.83446 -0.01739,-2.82217 z"
       id="path1134"
       style="fill:#000000;fill-opacity:1;fill-rule:nonzero;stroke:none;stroke-width:0.264583" />
    <path
       d="m 15.44931,281.47598 c -0.138701,0.008 -0.280273,-0.004 -0.416101,0.0248 -0.607942,0.13105 -1.048107,0.44842 -1.402758,0.95438 -0.259636,0.37042 -0.294297,0.55417 -0.443287,0.97135 -0.114614,0.46962 -0.170864,0.95883 -0.06494,1.43719 0.03624,0.16367 0.0758,0.33081 0.155582,0.47824 0.110266,0.20375 0.211392,0.43995 0.40781,0.5628 0.341515,0.21361 0.759156,0.26968 1.138735,0.40451 0.36011,-0.17928 0.764288,-0.28897 1.080329,-0.53785 0.183265,-0.14432 0.267165,-0.38567 0.362678,-0.59849 0.248276,-0.55319 0.23966,-1.27231 0.224383,-1.86783 -0.03918,-0.48704 -0.117501,-1.49933 -0.772804,-1.57729 -0.701146,-0.0834 -1.406613,0.2786 -2.026543,0.61661 -0.161669,0.0881 -0.234438,0.91828 -0.255981,1.08949 -0.03346,0.89419 0.06782,1.83862 0.496665,2.64171 0.08648,0.16194 0.198769,0.30871 0.298154,0.46307 0.517397,0.46482 0.730266,0.80686 1.611809,0.69 0.368177,-0.0488 0.703782,-0.27621 0.987675,-0.51567 0.339637,-0.28649 0.523525,-0.88306 0.605578,-1.30156 0.03667,-0.18704 0.03918,-0.37918 0.05877,-0.56877 -0.0036,-0.46586 -0.0065,-0.96032 -0.179792,-1.40268 -0.06695,-0.17093 -0.119026,-0.36097 -0.247782,-0.49181 -0.243333,-0.24727 -0.49528,-0.57847 -0.840379,-0.61395 -0.506732,-0.0521 -0.987618,0.25015 -1.481427,0.37523 -0.139708,0.21644 -0.311205,0.4154 -0.419125,0.64931 -0.07944,0.17219 -0.112087,0.36436 -0.135363,0.55255 -0.07758,0.62731 0.100346,1.27851 0.515163,1.76224 0.15166,0.17685 0.354495,0.3024 0.531743,0.4536 0.209583,0.0886 0.406821,0.21561 0.628748,0.2659 0.892136,0.20215 1.665036,-0.10292 2.245792,-0.79822 0.407999,-0.48847 0.433037,-0.82376 0.594042,-1.41182 0.07468,-0.63335 0.04835,-1.27559 -0.212712,-1.86828 -0.07716,-0.17518 -0.147981,-0.3661 -0.287616,-0.49703 -0.255673,-0.23973 -0.520457,-0.58148 -0.870856,-0.58921 -0.555616,-0.0122 -1.052691,0.35676 -1.579037,0.53514 -0.121542,0.28624 -0.291788,0.55639 -0.364625,0.8587 -0.05615,0.23305 -0.03355,0.47994 -0.01548,0.71897 0.04942,0.65388 0.32202,1.31162 0.711462,1.83463 0.131739,0.17692 0.295228,0.32782 0.442842,0.49173 0.18433,0.13117 0.350065,0.29348 0.552989,0.39351 0.86574,0.42674 1.754811,0.34894 2.446899,-0.38163 0.460209,-0.48579 0.430125,-0.87724 0.514097,-1.47262 -0.01674,-0.18864 -0.02145,-0.37874 -0.05021,-0.56592 -0.172776,-1.12427 -0.810332,-1.94669 -2.189396,-1.70512 -0.358638,0.0628 -0.559964,0.46552 -0.839946,0.69828 -0.0814,0.21414 -0.194662,0.41875 -0.244186,0.64243 -0.128285,0.57939 0.02716,1.20158 0.314511,1.70703 0.22429,0.39454 0.3384,0.46458 0.654046,0.77425 0.20386,0.11072 0.385738,0.27912 0.611581,0.33215 0.770408,0.18089 1.251476,0.0542 1.828985,-0.51332 0.333454,-0.32766 0.471401,-0.88549 0.519759,-1.33046 0.01944,-0.17884 9e-4,-0.35979 0.0013,-0.53968 -0.02366,-0.22964 -0.192286,-1.33516 -0.478031,-1.38039 -0.758095,-0.12 -1.575853,-0.12425 -2.298712,0.13378 -0.242109,0.0864 -0.318534,1.00576 -0.351629,1.27331 -0.02185,0.44999 -0.07608,0.91237 1.34e-4,1.36125 0.02758,0.16243 0.03645,0.33768 0.120588,0.47932 0.171303,0.28838 0.319002,0.65927 0.630159,0.78452 0.459507,0.18497 0.989677,0.0445 1.484515,0.0667 0.210703,-0.189 0.447845,-0.35216 0.632109,-0.56702 0.11075,-0.12915 0.171977,-0.29447 0.240306,-0.45028 0.202145,-0.46093 0.261916,-0.96976 0.29859,-1.46579 -3e-5,-1.51877 -0.295648,-1.15313 -2.829805,-0.71897 -0.04967,0.009 -0.0821,0.67451 -0.08517,0.72172 -0.03073,0.65269 0.07107,1.29846 0.25944,1.9214 0.261031,0.52734 0.441229,1.07172 1.306933,1.06368 0.50994,-0.005 0.957556,-0.38349 1.366119,-0.68868 0.23271,-0.17382 0.324371,-0.96895 0.359334,-1.25338 0.04152,-0.56588 0.0017,-1.13332 -0.06479,-1.69552 -0.03501,-0.22938 -0.05612,-0.46042 -0.07968,-0.69114 -0.0084,-0.18339 -0.04418,-0.35779 -0.08172,-0.53832 -0.07588,-0.14934 -0.127397,-0.31381 -0.227645,-0.44801 -0.214261,-0.28682 -0.645275,-0.58903 -1.016138,-0.58141 -0.346292,0.007 -0.669185,0.17907 -1.003777,0.2686 -1.637434,1.14074 -0.02419,3.45642 1.613245,2.31568 v 0 c -0.311016,0.0731 -0.613561,0.22142 -0.933046,0.21933 -0.345832,-0.002 -0.738469,-0.28014 -0.935463,-0.55232 -0.08933,-0.12342 -0.133561,-0.27387 -0.200342,-0.41081 -0.09541,-0.50927 -0.0216,-0.11737 -0.02269,0.0144 0.02529,0.24677 0.04798,0.4939 0.08503,0.7393 0.04273,0.35175 0.07119,0.70606 0.06074,1.06071 -0.0021,0.0384 -0.0059,0.0768 -0.0063,0.11531 -1.06e-4,0.0114 -0.0022,0.0427 0.0049,0.0337 0.04728,-0.0597 0.05404,-0.1582 0.121571,-0.19336 0.400779,-0.20865 0.800197,-0.54796 1.251251,-0.52134 0.804024,0.0474 0.903723,0.42062 1.090577,0.88388 -0.116927,-0.28093 -0.122225,-0.60617 -0.129694,-0.90479 0.0017,-0.0492 0.01076,-0.0987 0.0051,-0.14759 -0.0012,-0.0108 -0.0082,0.0268 -0.01913,0.0265 -2.204648,-0.0749 -2.591946,0.76704 -2.716147,-0.27944 -2.65e-4,-0.002 0.0036,0.003 0.0054,0.004 0.0018,0.0185 0.0036,0.037 0.0055,0.0555 -0.0057,0.13793 -0.02236,0.27048 -0.04158,0.407 -0.0031,0.022 -0.02911,0.0639 -0.0071,0.0661 0.205129,0.0207 -0.06012,-1.30578 0.499025,-0.36541 0.43187,0.0517 0.902006,-0.0301 1.29561,0.15501 0.247411,0.11634 0.328525,0.43849 0.467376,0.674 0.02192,0.0372 0.03193,0.16399 0.0062,0.12932 -0.03002,-0.0405 -0.01892,-0.0994 -0.02135,-0.14972 -0.01063,-0.21967 0.0052,-0.41128 0.01661,-0.63122 0.0065,-0.0758 0.08894,-0.25837 0.01941,-0.22746 -0.109589,0.0487 -0.07296,0.29033 -0.192082,0.30421 -2.042634,0.23811 -1.924601,0.57561 -2.367653,-0.41914 -0.0027,-0.006 0.01116,0.007 0.01675,0.0103 0.0088,0.0299 0.01768,0.0597 0.02651,0.0896 0.0074,0.0224 0.0011,0.0566 0.02213,0.0673 0.01675,0.008 0.0326,-0.0195 0.04569,-0.033 0.07089,-0.0729 0.118324,-0.17316 0.205549,-0.22544 0.18632,-0.11168 0.383521,-0.22897 0.598959,-0.25677 0.481857,-0.0622 0.567386,0.0669 0.862728,0.29429 0.0045,0.0689 -0.02449,0.0132 -0.04065,0.0627 -0.01053,0.0323 -0.0085,0.0676 -0.0172,0.10036 -0.04934,0.18537 -0.0735,0.18598 -0.192188,0.38358 -0.220873,0.14381 -0.399256,0.42102 -0.662619,0.43145 -0.445769,0.0177 -0.887274,-0.16356 -1.290673,-0.35406 -0.126896,-0.0599 -0.151729,-0.23636 -0.21964,-0.35917 -0.003,-0.005 0.01197,-0.0161 0.01505,-0.0108 0.01836,0.0318 0.02332,0.0698 0.03834,0.10341 0.008,0.0178 0.02024,0.0333 0.03035,0.0499 0.08068,-0.12893 0.163634,-0.27579 0.295031,-0.3595 0.308358,-0.19645 0.766517,-0.33481 1.060254,-0.0282 0.0095,0.01 -0.02011,0.0188 -0.03017,0.0283 -0.131376,-0.0869 -0.232257,-0.19521 -0.30211,-0.33948 -0.02337,-0.0483 -0.0198,-0.11028 -0.05406,-0.15156 -0.01192,-0.0144 -0.03234,0.0187 -0.0485,0.028 -0.08589,0.12581 -0.171786,0.25163 -0.257679,0.37744 -0.462175,0.10434 -0.91505,0.35997 -1.386525,0.31302 -0.268349,-0.0267 -0.431688,-0.32563 -0.625289,-0.51336 -0.03092,-0.03 -0.03614,-0.082 -0.03294,-0.12493 0.0013,-0.0172 0.03147,0.0179 0.03978,0.033 0.04794,0.087 0.05005,0.16702 0.06468,0.26376 0.04599,0.2086 0.06624,0.085 0.262681,0.0542 0.245604,-0.0385 0.45866,-0.009 0.636536,0.1715 0.03543,0.0527 0.07921,0.10066 0.106297,0.1581 0.175429,0.37203 -0.07719,0.56749 -0.314033,0.83384 -0.433734,0.0707 -0.868256,0.28731 -1.301202,0.21198 -0.447478,-0.0779 -0.634384,-0.42623 -0.73063,-0.7741 -0.0043,-0.0154 0.02145,0.0249 0.02611,0.0402 0.0383,0.12534 0.03626,0.21307 0.04654,0.34669 7.94e-4,0.0544 -0.0048,0.10928 0.0024,0.1632 0.0021,0.0158 0.01141,0.0492 0.02491,0.0408 0.07444,-0.0466 0.114747,-0.14069 0.194287,-0.17789 0.219048,-0.10244 0.444895,-0.2397 0.686647,-0.23408 0.639721,0.0149 0.678745,0.14549 0.939119,0.48145 -0.0764,0.026 -0.03812,0.0225 -0.105754,-0.13931 -0.136252,-0.32599 -0.183375,-0.68235 -0.179363,-1.03323 0.0018,-0.0515 0.05658,-0.14777 0.0055,-0.15453 -0.0559,-0.007 -0.05985,0.0956 -0.08977,0.14337 -0.638666,0.13925 -1.277333,0.2785 -1.916,0.41775 -0.629417,-0.11622 -0.631735,-1.33607 -0.572216,-0.74035 0.0075,0.18516 0.01305,0.24924 0.0091,0.4327 -0.0012,0.055 -0.01442,0.11024 -0.0082,0.16493 0.01034,0.0913 0.123535,-0.14264 0.20603,-0.18309 0.277038,-0.13581 0.579157,-0.21297 0.868736,-0.31946 0.308023,0.13681 0.646443,0.21933 0.924068,0.41044 0.119973,0.0826 0.159491,0.24499 0.220345,0.37732 0.06796,0.14778 -0.03258,0.24162 -0.01567,0.0104 0.0049,-0.0508 0.01478,-0.1208 0.0033,-0.12494 -0.01905,-0.007 -0.0387,0.0122 -0.05747,0.0198 -0.05544,0.0225 -0.107489,0.0542 -0.165066,0.0705 -0.216193,0.0611 -0.224282,0.0477 -0.419278,0.0385 1.989944,0.15029 2.202489,-2.66391 0.212544,-2.8142 z"
       id="path1136"
       style="fill:#000000;fill-opacity:1;fill-rule:nonzero;stroke:none;stroke-width:0.264583" />
    <path
       d="m 20.996852,272.96742 c 0.401137,-0.31256 0.684348,-0.72984 0.927537,-1.1697 0.159975,-0.29595 0.280852,-0.60992 0.401537,-0.92319 0.118705,-0.31432 0.208363,-0.63861 0.290202,-0.96417 0.09891,-0.39379 0.163598,-0.79395 0.211629,-1.19675 0.04286,-0.48399 0.11117,-0.96506 0.162556,-1.44811 0.05395,-0.54887 0.06423,-1.10055 0.07074,-1.6516 -0.0062,-0.37335 0.0082,-0.74525 0.051,-1.11606 0.06193,-0.39936 0.142316,-0.79492 0.197054,-1.19556 0.06622,-0.55752 0.09727,-1.11852 0.123435,-1.67912 0.01329,-0.52197 0.02888,-1.04347 0.05844,-1.5648 0.02604,-0.50901 0.03785,-1.01822 0.08626,-1.52575 0.04536,-0.51975 0.128079,-1.03256 0.258527,-1.53748 0.20347,-0.63368 0.431003,-1.25641 0.584755,-1.90482 0.136351,-0.64372 0.154422,-1.30264 0.164124,-1.95799 0.0043,-0.45812 -0.01595,-0.91649 0.04752,-1.37133 0.0458,-0.24672 0.07167,-0.49782 0.135752,-0.74082 0.111773,-0.34944 0.191998,-0.70705 0.264459,-1.06633 0.103664,-0.53894 0.183393,-1.08199 0.267478,-1.6242 0.03255,-0.17889 0.05722,-0.36213 0.125322,-0.5319 0.136129,-0.32676 0.206479,-0.67371 0.281245,-1.01805 0.146637,-0.55539 0.262334,-1.11673 0.350837,-1.68413 0.07552,-0.34754 0.04867,-0.71307 0.124661,-1.05993 0.05757,-0.10951 -0.131672,0.31146 -0.01497,0.0872 0.15028,-0.26737 0.219223,-0.56327 0.248436,-0.86606 0.04353,-0.56599 -0.120142,-1.01481 -0.591162,-1.4051 -0.159366,-0.13205 -0.378698,-0.16712 -0.568047,-0.25068 -0.385995,-0.0753 -0.742685,0.008 -1.095719,0.15258 -0.119927,0.0465 -0.230216,0.11261 -0.341828,0.17563 -0.06236,0.0246 -0.130416,0.0814 -0.191549,0.0902 0.0034,-0.002 0.01424,-0.005 0.01034,-0.006 -0.08656,-0.0128 -0.483209,0.14509 -0.576436,0.18119 -0.188569,0.0764 -0.371015,0.16679 -0.558069,0.24667 -0.121669,0.0502 -0.245997,0.0939 -0.371095,0.13475 -0.0038,0.001 -0.01524,0.004 -0.01145,0.003 0.07714,-0.0234 0.154353,-0.0351 0.234102,-0.0448 -0.199024,-0.009 -0.397267,-0.0303 -0.595466,-0.0499 -0.369261,-0.0402 -0.739218,-0.0726 -1.109877,-0.0966 -0.417197,-0.0231 -0.834812,-0.0373 -1.252269,-0.0547 -0.479581,-0.0208 -0.959516,-0.0296 -1.439504,-0.0323 -0.416242,-0.004 -0.832282,0.009 -1.248117,0.0256 -0.197189,0.004 -0.393183,0.0248 -0.588091,0.0539 -0.07254,0.0102 -0.144896,0.0215 -0.217915,0.0276 -0.306458,0.0213 -0.613285,0.0353 -0.920283,0.0456 -0.428946,0.0117 -0.858134,0.0196 -1.287234,0.0143 -0.392024,-0.0138 -0.783601,-0.0375 -1.175513,-0.0543 -0.234486,-0.01 -0.469027,-0.0185 -0.703609,-0.0255 -0.133182,-0.005 -0.266465,-0.005 -0.399694,-0.003 -0.15261,0.005 -0.305236,0.01 -0.457892,0.014 -0.277107,0.01 -0.554206,0.0191 -0.831432,0.0246 -0.3697995,0.007 -0.7396755,0.009 -1.1095385,0.0108 -0.374968,10e-4 -0.7499,-0.002 -1.124776,0.008 -0.30963,0.01 -0.617645,0.0451 -0.9210914,0.10687 -0.081662,0.0172 -0.1619682,0.04 -0.2417684,0.0642 -0.010671,0.003 -0.042766,0.0127 -0.031969,0.01 0.017738,-0.005 0.035074,-0.0106 0.052713,-0.0156 -0.1248741,0.0252 -0.2505411,0.0462 -0.3756578,0.0701 -0.1894668,0.0427 -0.4268327,0.063 -0.5796156,0.18664 -0.2206844,0.17856 -0.3946945,0.40811 -0.592042,0.61216 -0.036778,0.33466 -0.1254357,0.66764 -0.1103328,1.00398 0.017126,0.3814 0.515511,0.85284 0.7850592,1.11428 0.2373218,0.2335 0.4862253,0.45469 0.7283479,0.68308 0.071362,0.0811 0.1685878,0.1539 0.2145792,0.25484 0.034428,0.0853 0.069357,0.17196 0.1032148,0.25802 0.086821,0.23174 0.2006253,0.45069 0.3289459,0.66176 0.114416,0.17891 0.247772,0.34438 0.36951,0.51819 0.06244,0.10569 0.154406,0.2015 0.186821,0.32254 0.0882,0.2524 0.154164,0.512 0.216409,0.7718 0.07853,0.38043 0.181275,0.75427 0.306933,1.12165 0.101827,0.294 0.235518,0.57525 0.345441,0.86607 0.07639,0.27121 0.136686,0.54683 0.197968,0.82179 0.06922,0.37225 0.157111,0.74047 0.251119,1.10711 0.09744,0.36951 0.186094,0.74118 0.286045,1.11004 0.132427,0.50195 0.332677,0.98058 0.5504447,1.45044 0.2170178,0.44614 0.4461198,0.88617 0.6581498,1.33474 0.218602,0.48019 0.417556,0.96907 0.61467,1.45838 0.16613,0.39539 0.266216,0.81218 0.361303,1.22888 0.07439,0.3592 0.15559,0.71674 0.253563,1.07026 0.100031,0.36793 0.194141,0.73727 0.29886,1.10394 0.119112,0.40957 0.242946,0.81769 0.358249,1.22837 0.108471,0.38614 0.219208,0.77167 0.331697,1.15666 0.116317,0.38737 0.239334,0.77254 0.343277,1.16348 0.108809,0.42432 0.190182,0.85493 0.283076,1.28287 0.08078,0.30888 0.124406,0.62353 0.151481,0.94094 0.02709,0.37446 0.04458,0.74952 0.06966,1.12412 0.02485,0.3738 0.07951,0.74469 0.13324,1.11517 0.06989,0.46312 0.193811,0.91559 0.318892,1.36619 0.107166,0.3795 0.220088,0.75739 0.336599,1.13412 0.07915,0.28391 0.213557,0.54285 0.379978,0.78412 0.26832,0.35466 0.554842,0.52538 0.969616,0.67055 0.412719,0.11831 0.827211,0.0619 1.233931,-0.0469 0.189227,-0.0548 0.372472,-0.13583 0.570022,-0.15512 0.226139,-0.0212 0.453442,-0.0252 0.680416,-0.0281 0.431567,-10e-4 0.90861,-0.0284 1.220462,-0.41478 0.243886,-0.30216 0.295219,-0.71832 0.442828,-1.07747 -0.02824,-0.47638 -0.128636,-0.94314 -0.158369,-1.41952 -0.006,-0.44278 0.05771,-0.88332 0.122177,-1.32036 0.07739,-0.4853 0.185813,-0.96478 0.268252,-1.44918 0.05788,-0.37843 0.08755,-0.7605 0.11671,-1.142 0.0063,-0.3022 0.04938,-0.60058 0.0883,-0.89966 0.04821,-0.37038 0.06493,-0.74372 0.08313,-1.11647 0.01959,-0.37033 0.0267,-0.74111 0.03206,-1.11187 -0.01036,-0.29518 0.04609,-0.58214 0.10504,-0.86929 0.07685,-0.36795 0.129607,-0.74042 0.184842,-1.11208 0.06598,-0.4731 0.09222,-0.95057 0.114188,-1.42738 0.01875,-0.44314 0.02325,-0.88665 0.02174,-1.33012 0.0041,-0.42567 -0.03321,-0.84972 -0.06588,-1.27364 -0.02318,-0.33699 -0.03442,-0.67469 -0.03554,-1.01244 0.01332,-0.29014 0.0702,-0.57902 0.137657,-0.86126 0.127119,-0.39763 0.21342,-0.8046 0.275578,-1.21689 0.02877,-0.33393 0.13442,-0.65172 0.226347,-0.97177 0.07505,-0.27958 0.184105,-0.54803 0.281531,-0.82017 0.09052,-0.2783 0.210951,-0.54512 0.317213,-0.81746 0.104933,-0.27618 0.177164,-0.56241 0.226244,-0.85328 0.0192,-0.14308 0.05623,-0.28268 0.09156,-0.42237 0.24335,-0.90481 -0.09012,0.13519 -2.564987,0.0411 -0.102468,-0.004 -0.0677,-0.19358 -0.101554,-0.29038 0.02501,0.43749 -0.03222,0.87191 -0.0898,1.30454 -0.13097,0.85427 -0.306552,1.70081 -0.460715,2.55105 -0.109621,0.58847 -0.185283,1.18219 -0.247387,1.7773 -0.12264,1.25695 -0.0309,0.78197 2.732883,0.86716 0.121386,0.004 0.07917,-0.2297 0.113741,-0.34612 0.03825,-0.12882 0.06975,-0.25955 0.104626,-0.38932 0.28932,-1.18998 0.478074,-2.40072 0.620855,-3.61602 0.0997,-0.97214 0.155388,-1.94797 0.237481,-2.92163 0.03847,-0.49742 0.147045,-0.98419 0.256475,-1.46958 0.07597,-0.43245 0.187482,-0.85139 0.343892,-1.26094 0.154448,-0.38087 0.286358,-0.76992 0.398795,-1.16509 0.0654,-0.22466 0.106061,-0.45425 0.121454,-0.68749 0.02727,-0.70798 -0.270003,-1.08155 -0.864041,-1.45275 -0.219377,-0.13709 -0.528932,-0.133 -0.774238,-0.15051 -0.628798,0.0147 -1.231437,0.20338 -1.814649,0.42347 -0.567434,0.23446 -1.100242,0.54152 -1.636572,0.83803 -0.329829,0.18256 -0.659454,0.37294 -1.027662,0.46474 -0.353256,0.0753 -0.714411,0.0648 -1.07257,0.0453 -0.575754,-0.0428 -1.151887,-0.079 -1.728495,-0.10793 -0.470701,-0.0236 -0.941912,-0.032 -1.413123,-0.0358 -0.324533,0.006 -0.647578,-0.005 -0.969998,-0.0417 -0.468325,-0.0609 -0.937288,-0.11613 -1.406964,-0.16552 -0.360336,-0.0382 -0.721754,-0.0652 -1.08375,-0.081 -0.5008885,-0.028 -0.9145695,0.14662 -1.3083815,0.44084 -0.187371,0.15768 -0.362937,0.32904 -0.53248,0.5056 -0.361519,0.37087 -0.520262,0.86421 -0.45074,1.3818 0.01828,0.13611 0.07896,0.26307 0.118444,0.39461 0.206097,0.45455 0.559942,0.80214 0.913997,1.14256 0.327469,0.31549 0.682463,0.60131 0.9796697,0.94662 0.193317,0.2326 0.3524798,0.48766 0.4642668,0.7683 0.09882,0.26486 0.191728,0.53167 0.295529,0.79467 0.137659,0.3476 0.306688,0.68137 0.454458,1.02454 0.153821,0.41327 0.275205,0.83772 0.415858,1.25567 0.161859,0.47238 0.316121,0.94717 0.487045,1.41639 0.195721,0.532 0.405323,1.05854 0.626553,1.58039 0.248274,0.55618 0.444257,1.13275 0.634947,1.71049 0.178239,0.54444 0.317539,1.10052 0.467185,1.65323 0.138373,0.48496 0.24238,0.97807 0.337799,1.4729 0.09393,0.50707 0.173176,1.01677 0.250739,1.52656 0.06814,0.51148 0.147072,1.02138 0.221918,1.53189 0.07847,0.63624 0.169604,1.27063 0.266587,1.90427 0.08404,0.53966 0.178333,1.07754 0.253442,1.61856 0.05326,0.41554 0.112315,0.83015 0.185968,1.24259 0.02859,0.16844 0.06472,0.33538 0.100524,0.50238 9e-4,0.005 0.0019,0.01 0.0027,0.0144 0.0026,0.0168 -0.0059,-0.0334 -0.0088,-0.05 0.0016,0.0898 0.0037,0.17955 0.0055,0.26934 0.0022,0.1226 0.0026,0.24519 0.0087,0.36767 0.0025,0.1842 0.06936,0.35602 0.112757,0.53209 0.236656,1.18098 1.236275,0.74914 2.642002,0.40697 0.136371,-0.0332 0.194926,-0.70796 0.214737,-0.87714 0.09262,-1.26306 0.113579,-2.53033 0.12837,-3.79629 0.0066,-1.51658 -0.01608,-3.03358 -0.15067,-4.54468 -0.07238,-0.74181 -0.190004,-1.47886 -0.252082,-2.22171 -0.02129,-0.1591 0.0192,-0.30272 0.06127,-0.4536 0.08942,-0.32125 0.191761,-0.63827 0.272724,-0.96181 0.08064,-0.4181 0.134274,-0.83962 0.230602,-1.2547 0.10029,-0.39116 0.176941,-0.78733 0.242153,-1.18563 0.05964,-0.37504 0.08294,-0.75434 0.12753,-1.1313 0.04794,-0.44095 0.10271,-0.8798 0.194478,-1.31387 0.08945,-0.37675 0.126696,-0.76459 0.243997,-1.13432 0.158384,-0.38588 0.347483,-0.75822 0.51812,-1.13881 0.23324,-0.52549 0.426294,-1.06659 0.582478,-1.61957 0.139451,-0.50017 0.196408,-1.01649 0.245677,-1.53169 0.03525,-0.38326 0.06891,-0.76651 0.05684,-1.15145 -0.100548,-0.48009 -0.09546,-0.7352 -0.593166,-1.11 -0.231992,-0.1747 -0.533243,-0.24341 -0.818236,-0.29927 -0.367759,-0.0721 -0.796587,0.15048 -1.108637,0.31058 -0.686848,0.44084 -1.232249,1.05889 -1.796706,1.64004 -0.184709,0.18441 -0.366522,0.37379 -0.572141,0.53558 -0.09024,0.071 -0.156018,0.11994 -0.153162,0.0898 0.09987,-0.0694 0.218464,-0.0793 0.334837,-0.0946 0.0123,-0.002 0.04122,0.006 0.03675,-0.006 -0.0063,-0.0164 -0.03147,-0.0156 -0.04765,-0.0224 -0.0431,-0.0181 -0.08676,-0.0349 -0.130139,-0.0523 -0.460434,-0.20086 -0.936966,-0.35178 -1.427863,-0.45578 -0.425435,-0.087 -0.85808,-0.0938 -1.289267,-0.0621 -0.430542,0.0374 -0.846734,0.15355 -1.254203,0.29197 -0.515526,0.19893 -1.036646,0.47613 -1.321858,0.97713 -0.09735,0.17101 -0.142631,0.3668 -0.213947,0.5502 -0.0046,0.21563 -0.04437,0.43339 -0.01374,0.64688 0.131031,0.91319 0.892742,1.48454 1.601358,1.95704 0.514996,0.33013 1.060681,0.60803 1.585272,0.92173 0.260729,0.17802 0.139047,0.16052 0.0265,-0.0224 -0.04594,-0.12264 -0.02109,0.11341 -0.02138,0.12759 -0.0013,0.0648 -0.0065,0.0998 -0.01344,0.16533 -0.07683,0.54311 -0.108624,1.08946 -0.10648,1.63751 0.03228,0.6133 0.109915,1.23614 0.336886,1.81152 0.04479,0.11356 0.101545,0.22203 0.152318,0.33304 0.0711,0.1129 0.134168,0.23128 0.213303,0.3387 0.324183,0.44006 0.840305,0.83312 1.4064,0.87024 0.225371,0.0148 0.449658,-0.043 0.674486,-0.0645 0.211258,-0.11993 0.442224,-0.2104 0.633774,-0.35981 0.14271,-0.11131 0.250495,-0.26312 0.354634,-0.41115 0.362267,-0.51494 0.471955,-1.14793 0.559613,-1.75462 0.07247,-0.89318 -0.06459,-1.78323 -0.153151,-2.6701 -0.0084,-0.0948 -0.01765,-0.18962 -0.02526,-0.28453 -0.0074,-0.0923 -0.06275,-0.57924 -0.02378,-0.66101 0.0066,-0.0139 0.0034,0.0306 0.0051,0.0458 -0.05562,0.339 0.119633,-0.16658 0.196007,-0.12998 -0.0797,0.16757 -0.275587,0.15607 -0.439248,0.14395 -0.0025,0.006 -0.01167,0.0135 -0.0074,0.0187 0.07027,0.0867 0.163958,0.15212 0.237261,0.23629 0.233422,0.26803 0.413431,0.5629 0.592975,0.86818 0.365874,0.66289 0.530898,1.39228 0.589094,2.14014 0.0128,0.73035 0.03731,1.4589 0.101565,2.18671 0.04332,0.49445 0.120894,0.98986 0.06946,1.48634 -0.01855,0.0979 -0.02203,0.20126 -0.05316,0.29679 -0.0015,0.005 -0.0019,-0.01 -6.88e-4,-0.0144 0.0068,-0.0273 0.01379,-0.0547 0.02445,-0.0807 0.01686,-0.0411 0.03859,-0.0801 0.05788,-0.12016 0.02667,-0.0385 0.05132,-0.0784 0.08001,-0.11544 0.05657,-0.0729 0.11196,-0.10724 -0.006,-0.0372 -0.133253,0.0791 -0.149122,0.09 -0.288111,0.17641 -0.366457,0.23173 -0.69629,0.51324 -1.010943,0.80997 -0.178423,0.17783 -0.35322,0.35902 -0.535281,0.53317 -0.01777,0.0172 -0.07297,0.0665 -0.0533,0.0516 0.546859,-0.41624 0.405099,-0.61757 1.767511,-0.11226 0.281039,0.10424 0.347215,0.48884 0.512659,0.7388 0.01263,0.0191 0.01179,0.0872 0.01985,0.0657 0.01307,-0.0347 -0.0018,-0.0742 -0.0027,-0.11127 -0.0012,-0.32107 0.136789,-0.61594 0.251831,-0.90908 0.211857,-0.47941 0.341,-0.94214 0.372543,-1.46611 -0.0028,-0.10393 -0.01299,-0.58856 -0.07309,-0.67211 -0.217542,-0.30241 -0.456758,-0.58861 -0.685137,-0.88292 -0.501709,0.0252 -1.003417,0.0505 -1.505125,0.0757 -1.651514,1.12025 -0.06723,3.45585 1.58428,2.33559 v 0 c -0.487981,0.0159 -0.975962,0.0319 -1.463943,0.0478 -0.184847,-0.24278 -0.688034,-0.59757 -0.677433,-1.00401 0.0099,-0.0224 0.02686,-0.045 0.01003,0.0201 -0.04644,0.17971 -0.129802,0.34787 -0.192014,0.52193 -0.253413,0.65461 -0.473344,1.32603 -0.442186,2.03847 0.02113,0.48685 0.0566,1.22044 0.599631,1.46101 0.884617,0.39189 1.411294,0.34216 1.928268,-0.16035 0.178688,-0.17118 0.352824,-0.3468 0.525588,-0.52393 0.175311,-0.1678 0.357766,-0.32884 0.561139,-0.46233 0.39766,-0.24839 0.816881,-0.47154 1.084201,-0.87496 0.05142,-0.0892 0.108764,-0.17524 0.154261,-0.2676 0.171859,-0.34887 0.219252,-0.7424 0.267407,-1.12281 0.04941,-0.65975 0.0087,-1.31604 -0.07079,-1.97247 -0.06556,-0.72613 -0.07593,-1.45324 -0.101108,-2.18153 -0.04126,-0.44185 -0.04413,-0.59097 -0.132676,-1.03509 -0.161871,-0.81187 -0.449501,-1.59345 -0.851348,-2.31723 -0.108967,-0.17776 -0.211083,-0.3599 -0.326903,-0.53327 -0.480257,-0.7189 -1.077782,-1.3652 -1.861461,-1.75136 -0.431216,-0.14222 -0.515674,-0.20855 -0.984862,-0.20258 -0.60225,0.008 -1.145078,0.28146 -1.597928,0.65795 -0.08596,0.0895 -0.17573,0.17545 -0.25788,0.26844 -0.346789,0.39255 -0.609069,0.86721 -0.743017,1.37229 -0.01621,0.11286 -0.0378,0.22507 -0.04862,0.33857 -0.04281,0.44928 0.03541,0.90351 0.06027,1.35092 0.06734,0.67339 0.166927,1.34715 0.162798,2.02497 -0.0067,0.0691 -0.01089,0.1384 -0.02015,0.20715 -0.0074,0.0547 -0.01876,0.10877 -0.02968,0.16286 -0.0067,0.0333 -0.0234,0.0652 -0.02319,0.0991 4.76e-4,0.081 0.642798,-0.6909 0.584319,-0.30269 0.153255,-0.002 0.307936,-0.0272 0.459763,-0.006 0.140516,0.0194 0.511418,0.14863 0.524909,0.35449 -0.177584,-0.2697 -0.164985,-0.63056 -0.206686,-0.93849 -0.0079,-0.46308 0.03867,-0.92287 0.09715,-1.38191 0.03642,-0.49627 0.03091,-0.99583 -0.121058,-1.4753 -0.04222,-0.10351 -0.07663,-0.21056 -0.126672,-0.31052 -0.245317,-0.49002 -0.651832,-0.85796 -1.113459,-1.14062 -0.490146,-0.29063 -0.995262,-0.5554 -1.47977,-0.85575 -0.118637,-0.0758 -0.233065,-0.15815 -0.353432,-0.23114 -0.01533,-0.009 -0.04181,-0.0363 -0.04981,-0.0202 -0.0126,0.0252 0.01392,0.0548 0.01872,0.0826 0.05845,0.33832 0.04414,0.19249 -0.01076,0.59588 -0.05133,0.10183 -0.08887,0.21186 -0.153977,0.30548 -0.142428,0.2048 -0.441558,0.31586 -0.127996,0.16239 0.183029,-0.0659 0.370577,-0.12284 0.564351,-0.14632 0.162526,-0.0185 0.326558,-0.0143 0.487899,0.014 0.340241,0.0653 0.661706,0.18973 0.980219,0.32446 0.72826,0.27522 1.303604,0.40011 2.055705,0.0801 0.08838,-0.046 0.179049,-0.0879 0.265143,-0.13803 0.475051,-0.27676 0.86481,-0.67412 1.250659,-1.05922 0.380243,-0.39149 0.750692,-0.79484 1.164622,-1.15154 -0.428098,0.0984 -0.821308,0.0692 -1.203014,-0.24215 -0.200867,-0.16384 -0.317822,-0.41314 -0.436456,-0.64361 -0.04663,-0.0906 -0.03337,-0.20103 -0.05005,-0.30154 0.0011,-0.0157 0.0029,-0.0629 0.0034,-0.0472 0.0059,0.18617 -0.02032,0.37896 -0.0355,0.56412 -0.0054,0.066 -0.01138,0.13197 -0.01706,0.19795 -0.03309,0.34874 -0.06346,0.69962 -0.154111,1.03928 -0.115656,0.41972 -0.265942,0.82815 -0.440635,1.227 -0.219874,0.49257 -0.475908,0.97042 -0.646181,1.48371 -0.13039,0.44907 -0.212336,0.90659 -0.302434,1.36499 -0.106926,0.51637 -0.179668,1.03717 -0.234823,1.56157 -0.03916,0.335 -0.06272,0.6716 -0.109867,1.0055 -0.05546,0.33999 -0.121264,0.67788 -0.208043,1.0115 -0.09118,0.40266 -0.163488,0.8081 -0.221655,1.2168 -0.06992,0.30737 -0.184986,0.60295 -0.259422,0.90935 -0.119115,0.46332 -0.193137,0.93429 -0.144287,1.41421 0.06513,0.74678 0.174239,1.48875 0.253169,2.23409 0.129269,1.41573 0.142133,2.83779 0.139472,4.25872 -0.0135,1.17642 -0.03401,2.35368 -0.112451,3.52786 -0.03224,0.38427 0.0012,-0.1779 0.126066,-0.19549 2.47267,-0.34846 2.12573,-0.72201 2.578614,0.35521 0.0023,0.005 -0.0029,-0.0113 -0.0044,-0.0169 -0.0063,-0.0266 -0.01268,-0.0531 -0.01902,-0.0797 -0.01988,-0.0755 -0.03665,-0.15447 -0.06446,-0.22764 -0.0037,-0.01 0.0055,0.0204 0.0075,0.0307 0.02635,0.13837 0.02051,0.0971 0.02971,0.20796 0.0013,0.0914 -0.0059,-0.35381 -0.0044,-0.25955 -0.0022,-0.1107 -0.0044,-0.22141 -0.0075,-0.33209 -0.007,-0.14759 -0.02176,-0.2947 -0.05467,-0.43901 -0.02912,-0.13476 -0.05856,-0.26945 -0.08142,-0.40547 -0.06762,-0.37643 -0.119612,-0.75517 -0.168756,-1.13441 -0.07729,-0.55357 -0.171959,-1.10427 -0.258964,-1.65634 -0.09611,-0.62783 -0.185675,-1.25646 -0.263968,-1.88679 -0.07565,-0.51562 -0.155091,-1.03066 -0.22421,-1.54722 -0.0833,-0.54658 -0.168301,-1.09306 -0.269731,-1.63661 -0.108765,-0.56288 -0.228391,-1.12361 -0.384725,-1.67554 -0.163076,-0.60228 -0.315773,-1.20796 -0.511486,-1.80077 -0.215198,-0.65115 -0.438293,-1.30026 -0.716736,-1.92769 -0.202671,-0.47724 -0.394063,-0.95901 -0.573384,-1.44555 -0.163451,-0.44698 -0.308609,-0.90012 -0.463752,-1.35001 -0.166247,-0.4928 -0.304152,-0.99557 -0.501151,-1.47748 -0.137212,-0.31481 -0.288446,-0.62323 -0.41967,-0.94065 -0.111748,-0.28096 -0.205143,-0.56859 -0.317788,-0.84922 -0.24028,-0.55944 -0.550753,-1.08173 -0.950966,-1.54331 -0.355684,-0.39713 -0.745908,-0.75596 -1.140341,-1.11407 -0.0091,-0.009 -0.190772,-0.18239 -0.223317,-0.21459 -0.05652,-0.0559 -0.149777,-0.18442 -0.03787,0.0275 0.02173,0.0887 0.05811,0.17508 0.0652,0.26613 0.02761,0.35433 -0.056,0.72622 -0.298489,0.98654 0.07657,-0.0815 0.16056,-0.15772 0.237438,-0.23728 -0.167302,0.10102 -0.372587,0.17207 -0.5589858,0.16193 0.3038798,0.0128 0.6072038,0.0362 0.9096748,0.0681 0.466153,0.0489 0.931451,0.10469 1.396343,0.16438 0.416499,0.0443 0.833913,0.0664 1.252944,0.0582 0.43158,0.003 0.863164,0.0108 1.294282,0.0323 0.577079,0.0289 1.15358,0.0663 1.729871,0.10801 0.665224,0.0309 1.334436,0.0225 1.983056,-0.14907 0.570053,-0.16913 1.11061,-0.40597 1.622693,-0.70987 0.422528,-0.23359 0.841387,-0.47641 1.282779,-0.67327 0.248343,-0.0983 0.502395,-0.1794 0.763193,-0.23618 -0.127165,-0.0233 -0.289919,-0.0464 -0.392465,-0.12009 -0.444086,-0.31904 -0.790222,-0.64803 -0.748015,-1.24309 0.01742,-0.16008 0.002,0.0339 -0.01857,0.0637 -0.08933,0.3185 -0.19907,0.63033 -0.323583,0.93684 -0.19948,0.53287 -0.35661,1.07629 -0.456671,1.63714 -0.137764,0.61176 -0.26701,1.22652 -0.315545,1.85315 -0.07933,0.94349 -0.13465,1.88894 -0.2284,2.8312 -0.125358,1.08195 -0.293515,2.15935 -0.545583,3.21976 -0.02355,0.0905 -0.04705,0.18109 -0.07066,0.27162 -0.0099,0.0379 -0.06736,0.10248 -0.02982,0.11366 2.756248,0.82101 2.592105,1.44613 2.684199,0.49871 0.05446,-0.52445 0.120335,-1.04775 0.217326,-1.56629 0.162315,-0.89611 0.348678,-1.78811 0.482233,-2.68921 0.0899,-0.70008 0.169379,-1.40882 0.07839,-2.11352 -0.04288,-0.15346 0.02953,-0.44107 -0.128624,-0.46036 -2.458802,-0.29976 -2.445714,-0.62778 -2.728179,0.46221 -0.05491,0.21756 -0.108381,0.43582 -0.140535,0.65815 -0.0143,0.0983 -0.03905,0.19425 -0.07217,0.28802 -0.113984,0.29639 -0.246719,0.58562 -0.343682,0.8885 -0.117159,0.32858 -0.246803,0.65319 -0.336492,0.9909 -0.126688,0.44121 -0.259417,0.8828 -0.306161,1.34154 -0.04693,0.33738 -0.136654,0.66322 -0.232722,0.98975 -0.112684,0.49585 -0.20613,1.00045 -0.210312,1.51051 0.0022,0.40585 0.01483,0.81165 0.04387,1.21655 0.02739,0.35504 0.06134,0.71007 0.05755,1.06663 0.0015,0.39727 -0.0023,0.79457 -0.01882,1.19156 -0.01718,0.3811 -0.03664,0.76286 -0.0865,1.14133 -0.04773,0.32158 -0.09235,0.64407 -0.15849,0.96249 -0.09327,0.45933 -0.168529,0.92235 -0.161724,1.39289 -0.0048,0.33845 -0.01099,0.67692 -0.029,1.01499 -0.01448,0.29714 -0.02586,0.59494 -0.06296,0.89036 -0.04523,0.34869 -0.09358,0.69719 -0.103695,1.04921 -0.0224,0.29606 -0.04496,0.59253 -0.08554,0.88673 -0.08407,0.50481 -0.203044,1.00328 -0.277795,1.50977 -0.09259,0.63657 -0.176034,1.27875 -0.145226,1.92355 0.02039,0.27876 0.0478,0.55388 0.08694,0.83065 0.01081,0.0764 0.0224,0.15271 0.03403,0.229 0.0075,0.0491 0.0074,0.10003 0.02328,0.14702 0.0058,0.0172 0.0056,-0.0358 0.0083,-0.0537 0.146097,-0.29999 0.21368,-0.65322 0.438291,-0.89997 0.341466,-0.37512 0.557059,-0.32196 0.916015,-0.35851 0.150896,-0.0154 -0.377031,0.018 -0.233898,7.9e-4 -0.350802,0.005 -0.70238,0.0132 -1.050826,0.0575 -0.316687,0.0499 -0.62843,0.12068 -0.929868,0.23194 -0.0081,0.003 -0.03221,0.006 -0.0242,0.01 0.04649,0.0198 0.278965,-0.0189 0.331792,0.0387 0.214171,0.0832 0.409287,0.1884 0.539861,0.38459 0.0277,0.0441 0.109341,0.22909 0.03291,0.0404 -0.108609,-0.35057 -0.213486,-0.70235 -0.313506,-1.05548 -0.09341,-0.33552 -0.189084,-0.67185 -0.245111,-1.01606 -0.04347,-0.29871 -0.08909,-0.59764 -0.110294,-0.89894 -0.02665,-0.3939 -0.04374,-0.78841 -0.07416,-1.18206 -0.03913,-0.43529 -0.0981,-0.86813 -0.204944,-1.29266 -0.102491,-0.47138 -0.191901,-0.94581 -0.314491,-1.41261 -0.110521,-0.41167 -0.236445,-0.8186 -0.360836,-1.22625 -0.109765,-0.37553 -0.217744,-0.75161 -0.323565,-1.12828 -0.116629,-0.41497 -0.241122,-0.82758 -0.361924,-1.24134 -0.103506,-0.36112 -0.194659,-0.7254 -0.294238,-1.08759 -0.08782,-0.3098 -0.152643,-0.62519 -0.220432,-0.93984 -0.128794,-0.56164 -0.272658,-1.12095 -0.494763,-1.65429 -0.218019,-0.54085 -0.438211,-1.0812 -0.681592,-1.61124 -0.209935,-0.44271 -0.433312,-0.87871 -0.650313,-1.31802 -0.151613,-0.32375 -0.294189,-0.65243 -0.385485,-0.99917 -0.09706,-0.3563 -0.181241,-0.71585 -0.276179,-1.07271 -0.08695,-0.3374 -0.165951,-0.67664 -0.230027,-1.01922 -0.09105,-0.40768 -0.178133,-0.818 -0.31559,-1.21312 -0.100751,-0.26254 -0.215361,-0.5192 -0.314937,-0.78214 -0.09898,-0.28112 -0.168854,-0.57013 -0.230793,-0.86154 -0.09669,-0.39868 -0.20006,-0.79733 -0.348588,-1.18039 -0.131956,-0.309 -0.290746,-0.60319 -0.4893258,-0.87512 -0.09249,-0.13125 -0.1878527,-0.26032 -0.2838727,-0.38896 -0.04951,-0.0555 -0.06376,-0.13693 -0.09715,-0.20124 -0.100867,-0.25637 -0.20612,-0.51211 -0.352724,-0.74656 -0.188825,-0.28663 -0.403849,-0.55382 -0.656433,-0.78754 -0.232635,-0.21881 -0.470875,-0.43165 -0.699104,-0.65514 -0.03574,-0.0346 -0.07154,-0.0692 -0.10722,-0.10382 -0.02533,-0.0246 -0.05002,-0.0499 -0.07582,-0.074 -0.0055,-0.005 -0.02151,-0.0204 -0.01797,-0.0137 0.02375,0.0447 0.05915,0.083 0.07944,0.12931 0.237117,0.54134 0.104626,0.42093 -0.0076,1.26145 -0.191751,0.19317 -0.362401,0.40987 -0.5752522,0.57951 -0.087281,0.0696 -0.5342676,0.16653 -0.2275684,0.10185 0.1495703,-0.0293 0.3003386,-0.0524 0.4492166,-0.0853 0.01644,-0.004 0.239626,-0.0567 0.187558,-0.0513 0.137316,-0.0307 0.278025,-0.0412 0.41832,-0.0485 0.354155,-0.009 0.708418,-0.005 1.062662,-0.007 0.38532,-0.001 0.7706517,-0.004 1.1559055,-0.0113 0.283376,-0.006 0.566642,-0.0148 0.849889,-0.0251 0.147876,-0.004 0.29574,-0.008 0.443559,-0.0136 0.08496,-0.003 0.17012,4e-4 0.255058,0.002 0.222204,0.006 0.444353,0.0152 0.666466,0.0242 0.421576,0.018 0.842753,0.0448 1.264565,0.0568 0.471632,0.005 0.943333,-0.002 1.414784,-0.0158 0.363603,-0.0125 0.727131,-0.0287 1.089929,-0.0565 0.124028,-0.0122 0.2476,-0.0275 0.370808,-0.0463 0.094,-0.0142 0.187928,-0.0258 0.283459,-0.025 0.372944,-0.0151 0.746059,-0.0268 1.119377,-0.0234 0.445908,0.002 0.891765,0.0105 1.337294,0.0299 0.396431,0.0165 0.792999,0.0302 1.189218,0.0514 0.337983,0.0214 0.675191,0.0521 1.011882,0.0886 0.272032,0.0269 0.544299,0.0548 0.817687,0.0631 0.241301,0.002 0.482913,-0.0162 0.712274,-0.0981 0.205928,-0.0676 0.410259,-0.14074 0.609955,-0.22518 0.1613,-0.07 0.320629,-0.14422 0.481568,-0.215 0.146536,-0.0644 0.307747,-0.079 0.457742,-0.13503 0.224287,-0.082 0.44155,-0.17971 0.649316,-0.29793 0.111141,-0.0631 0.160282,-0.0867 0.02029,-0.0196 0.01185,-0.005 0.04787,-0.0175 0.03529,-0.0151 -0.206052,0.0388 -0.3888,0.0662 -0.602655,0.01 -0.172193,-0.0799 -0.372964,-0.1155 -0.516583,-0.23961 -0.361963,-0.31279 -0.540971,-0.64861 -0.544008,-1.10384 -3e-5,-0.004 -3.2e-5,0.0139 7.41e-4,0.0134 0.0033,-0.017 0.110939,-0.3607 0.06115,-0.20994 -0.117835,0.22646 -0.221323,0.46042 -0.259036,0.71527 -0.06427,0.37448 -0.08488,0.7538 -0.136384,1.13007 -0.0777,0.5114 -0.190252,1.01469 -0.319553,1.51548 -0.04786,0.22043 -0.08334,0.444 -0.175355,0.65175 -0.12262,0.3456 -0.209169,0.70144 -0.26215,1.06461 -0.07778,0.50172 -0.151249,1.00424 -0.245998,1.50314 -0.06246,0.31591 -0.139249,0.62751 -0.234951,0.93514 -0.08596,0.35138 -0.141922,0.70857 -0.197066,1.06593 -0.06886,0.56178 -0.07814,1.1248 -0.07023,1.69041 -0.0063,0.45526 -0.01062,0.91361 -0.09195,1.36304 -0.139408,0.63159 -0.404001,1.22432 -0.57112,1.84846 -0.161102,0.64679 -0.27621,1.30144 -0.332346,1.96625 -0.05,0.54219 -0.06955,1.08556 -0.09404,1.62935 -0.02998,0.53084 -0.04756,1.06185 -0.05991,1.59337 -0.0221,0.47905 -0.04801,0.95842 -0.101467,1.43514 -0.05476,0.42084 -0.152675,0.83412 -0.204426,1.25543 -0.05122,0.46456 -0.07608,0.93051 -0.06844,1.39808 -0.0053,0.4631 -0.01208,0.92678 -0.05534,1.38823 -0.04946,0.47286 -0.118296,0.94354 -0.15914,1.41736 -0.03192,0.28298 -0.07772,0.56351 -0.146572,0.8401 -0.05278,0.21354 -0.110454,0.42649 -0.185618,0.63336 -0.07639,0.19831 -0.149062,0.39871 -0.246516,0.588 -0.05469,0.10401 -0.102619,0.21582 -0.189329,0.29767 -1.571013,1.2306 0.169324,3.45235 1.740337,2.22175 z"
       id="path1138"
       style="fill:#000000;fill-opacity:1;fill-rule:nonzero;stroke:none;stroke-width:0.264583" />
    <path
       d="m 27.573248,260.86908 c -0.02553,0.12532 -0.05664,0.24964 -0.07659,0.37597 -0.10378,0.65732 -0.121971,1.33401 -0.15289,1.99712 -0.04548,0.97549 -0.04752,1.21574 -0.07657,2.22798 -0.04231,1.94057 -0.02663,3.88177 -0.06014,5.82247 -0.0245,1.41887 -0.03953,1.69128 -0.08736,3.10939 -0.09004,2.20756 -0.18305,4.41499 -0.26883,6.62272 -0.01865,0.39425 -0.0271,0.78911 -0.05105,1.18311 1.46e-4,-0.003 2.65e-4,-0.006 5.29e-4,-0.008 0.0013,-0.0156 0.0029,-0.0312 0.0043,-0.0468 -0.224134,1.98299 2.580232,2.29996 2.804366,0.31697 v 0 c 0.0066,-0.0683 0.004,-0.0369 0.0081,-0.0942 0.02432,-0.41341 0.03555,-0.82752 0.05391,-1.2412 0.08597,-2.2126 0.179271,-4.42489 0.269356,-6.63732 0.04876,-1.45046 0.06377,-1.71992 0.08875,-3.17058 0.03316,-1.92506 0.01812,-3.8506 0.05919,-5.77554 0.03697,-1.29622 0.0639,-2.59566 0.192892,-3.88671 0.562205,-1.91479 -2.14571,-2.70986 -2.707913,-0.79508 z"
       id="path1140"
       style="fill:#000000;fill-opacity:1;fill-rule:nonzero;stroke:none;stroke-width:0.264583" />
    <path
       d="m 30.699848,274.77866 c 0.226383,-0.23307 0.471286,-0.45643 0.770509,-0.59288 0.07734,-0.0353 0.160776,-0.0553 0.241167,-0.0829 0.362437,-0.0738 0.729137,0.0232 0.966785,0.31911 0.05422,0.0675 0.09708,0.1434 0.145622,0.2151 0.05538,0.10631 0.11839,0.20898 0.16615,0.31893 0.255238,0.58757 0.376195,1.23237 0.466717,1.86236 0.111104,0.77323 0.150217,1.37896 0.216972,2.1639 0.07929,1.1057 0.143959,2.21242 0.201776,3.31943 0.03033,0.58067 0.0616,1.15709 0.04518,1.73824 -0.04631,1.99508 2.775146,2.06058 2.821461,0.0655 v 0 c 0.01286,-0.65521 -0.01445,-1.30356 -0.04864,-1.95822 -0.05936,-1.13593 -0.125783,-2.27156 -0.207868,-3.4061 -0.148539,-1.71879 -0.254873,-3.69524 -1.083061,-5.24957 -0.136633,-0.25643 -0.314812,-0.48847 -0.472215,-0.7327 -0.531897,-0.55135 -0.628539,-0.74569 -1.318945,-1.09471 -0.706276,-0.35704 -1.520254,-0.46298 -2.29842,-0.34435 -0.235201,0.0359 -0.460539,0.1197 -0.690808,0.17955 -0.208968,0.0934 -0.424945,0.17256 -0.626899,0.28032 -0.723945,0.38628 -1.350835,0.97417 -1.784233,1.66816 -0.941015,1.75982 1.547743,3.09062 2.488758,1.3308 z"
       id="path1142"
       style="fill:#000000;fill-opacity:1;fill-rule:nonzero;stroke:none;stroke-width:0.264583" />
    <path
       d="m 39.470187,278.98245 c 0.570995,0.018 1.142362,0.0189 1.713585,0.0213 0.560059,0.002 1.120121,0.002 1.680183,0.002 0.240789,-5.3e-4 0.481552,-10e-4 0.72227,0.005 0.09338,0.002 0.186756,0.005 0.280157,0.007 0.06361,7.9e-4 0.12723,7.9e-4 0.190847,7.9e-4 0.01466,1e-5 0.02929,-3e-5 0.04393,-1.4e-4 1.433713,-1.27018 1.380347,-0.73964 1.503825,-2.035 0.04353,-0.62145 0.04566,-1.25111 -0.07231,-1.86536 -0.02656,-0.13828 -0.06431,-0.27417 -0.09647,-0.41126 -0.19087,-0.66358 -0.535673,-1.27138 -1.051663,-1.73625 -0.09737,-0.0877 -0.204708,-0.1637 -0.307065,-0.24555 -0.511103,-0.36854 -1.106958,-0.55767 -1.71377,-0.69558 -0.473104,-0.10197 -0.956371,-0.13297 -1.438775,-0.14888 -0.466616,-0.01 -0.941628,0.0431 -1.369208,0.24316 -0.108945,0.051 -0.210359,0.11669 -0.315539,0.17504 -0.546749,0.37243 -0.900123,0.93009 -1.233461,1.48699 -0.35814,0.60762 -0.597451,1.2712 -0.801235,1.9433 -0.246034,0.85619 -0.294511,1.74724 -0.308073,2.63261 0.01656,0.93836 0.133837,1.88745 0.461073,2.77254 0.07121,0.19262 0.161248,0.37773 0.241872,0.5666 0.446664,0.87492 1.10904,1.61427 1.94084,2.13986 0.152027,0.0961 0.313444,0.17639 0.470167,0.26459 0.734687,0.34434 1.536843,0.55886 2.350929,0.58287 0.156575,0.005 0.313243,-0.005 0.469866,-0.008 0.43752,-0.0101 0.847471,-0.1647 1.270209,-0.25206 1.948114,-0.43282 1.336021,-3.18786 -0.61209,-2.75505 v 0 c -0.251479,0.0576 -0.498062,0.13166 -0.749993,0.18639 -0.470718,0.0342 -0.942785,-0.0559 -1.379519,-0.23289 -0.486876,-0.24603 -0.909312,-0.58241 -1.178989,-1.06644 -0.0455,-0.0966 -0.09708,-0.1905 -0.136519,-0.28971 -0.235863,-0.59328 -0.307444,-1.23881 -0.325864,-1.87183 0.0063,-0.62339 0.02811,-1.25338 0.1895,-1.85924 0.133376,-0.45258 0.288369,-0.90131 0.52424,-1.31222 0.09409,-0.16026 0.191368,-0.31603 0.296468,-0.46928 0.01693,-0.0247 0.0718,-0.086 0.04266,-0.0791 -0.01894,0.005 -0.03555,0.0159 -0.05333,0.0238 -0.240694,0.0776 -0.01521,-0.0395 0.11662,-10e-4 0.306589,0.009 0.614299,0.0228 0.915916,0.0831 0.210442,0.0448 0.422902,0.094 0.617988,0.18726 0.167391,0.0914 0.27119,0.231 0.327628,0.41496 0.123531,0.43881 0.132781,0.89325 0.09682,1.34608 -0.0787,1.0138 -0.562406,1.13673 1.278954,-0.53639 -0.0055,-10e-6 -0.01098,-3e-5 -0.01648,-10e-6 -0.04847,2e-5 -0.09694,-2e-5 -0.145407,-2.6e-4 -0.08413,-10e-4 -0.168214,-0.005 -0.25233,-0.006 -0.264838,-0.007 -0.52972,-0.007 -0.794637,-0.006 -0.556075,-10e-6 -1.112152,-2.5e-4 -1.668227,-0.002 -0.540922,-0.002 -1.081984,-0.003 -1.622705,-0.0195 -1.994286,-0.0728 -2.09718,2.74758 -0.102894,2.82034 z"
       id="path1152"
       style="fill:#000000;fill-opacity:1;fill-rule:nonzero;stroke:none;stroke-width:0.264583" />
    <path
       d="m 48.615224,262.90134 c -0.3213,1.24654 -0.576832,2.5088 -0.847863,3.7669 -0.329681,1.49203 -0.652801,2.98725 -0.848688,4.50395 -0.11738,0.90885 -0.145227,1.38721 -0.218244,2.29379 -0.02822,0.35186 -0.0518,0.70411 -0.08465,1.05556 -0.06765,0.72367 -0.128423,1.22507 -0.245652,1.93872 -0.140078,0.85274 -0.324165,1.69867 -0.493173,2.54597 -0.160843,0.8453 -0.311777,1.69625 -0.347022,2.55776 -0.01876,0.45821 -0.0045,0.54203 0.01852,0.98811 0.08717,0.65585 0.1466,1.44644 0.546052,2.00355 0.141139,0.19685 0.329118,0.35547 0.493676,0.5332 0.263165,0.12334 0.508312,0.29649 0.789492,0.37001 0.265735,0.0695 0.548368,0.0702 0.822397,0.0514 0.941999,-0.0643 1.778288,-0.61149 2.534475,-1.12229 1.647714,-1.12583 0.05554,-3.45605 -1.592172,-2.33022 v 0 c -0.237403,0.16495 -0.404675,0.28914 -0.654,0.43226 -0.0839,0.0482 -0.173193,0.0863 -0.258498,0.13193 -0.03894,0.0208 -0.108249,0.0236 -0.11408,0.0674 -0.01857,0.13943 0.551722,0.0345 0.324366,0.26992 0.03445,0.0646 0.07684,0.12551 0.103333,0.19374 0.0067,0.0173 0.0033,0.0711 -0.0066,0.0554 -0.02741,-0.0437 -0.03649,-0.0967 -0.05044,-0.14636 -0.06167,-0.21969 -0.09406,-0.44707 -0.120483,-0.67315 -0.06501,-0.95367 0.09223,-1.8972 0.278706,-2.83058 0.178594,-0.89537 0.371878,-1.78927 0.518145,-2.69072 0.127005,-0.78273 0.192256,-1.32974 0.266168,-2.12042 0.03287,-0.35159 0.05646,-0.70398 0.08469,-1.05597 0.06466,-0.81312 0.09329,-1.29395 0.196789,-2.10551 0.185721,-1.45625 0.500348,-2.89072 0.815848,-4.32308 0.264774,-1.22906 0.513834,-2.46234 0.827725,-3.68011 0.481639,-1.93662 -2.257153,-2.61776 -2.738792,-0.68114 z"
       id="path1154"
       style="fill:#000000;fill-opacity:1;fill-rule:nonzero;stroke:none;stroke-width:0.264583" />
    <path
       d="m 58.494409,274.33778 c -0.703985,-0.56804 -1.611876,-0.76614 -2.505596,-0.65956 -0.265988,0.0317 -0.524407,0.10963 -0.786609,0.16445 -0.716796,0.32247 -0.999022,0.3721 -1.572152,0.95447 -0.747813,0.75988 -1.192339,1.81855 -1.276577,2.87665 -0.03124,0.39238 0.02334,0.7869 0.03499,1.18035 0.102491,0.3872 0.157736,0.7901 0.307469,1.1616 0.664187,1.64787 2.167213,2.87936 3.933558,3.15357 0.458396,0.0712 0.92759,0.0185 1.391383,0.0278 0.432231,-0.0992 0.878485,-0.14996 1.296699,-0.29746 1.189694,-0.41959 2.285016,-1.26134 2.834375,-2.42066 0.181925,-0.38392 0.320506,-0.79917 0.362297,-1.22195 0.04566,-0.46187 -0.0695,-0.92564 -0.104254,-1.38846 -0.184073,-0.42111 -0.309655,-0.87298 -0.552222,-1.26334 -0.914241,-1.47128 -2.718999,-2.49898 -4.36036,-2.92977 -0.359698,-0.0944 -0.73283,-0.12703 -1.099246,-0.19054 -0.33301,0.008 -0.66602,0.0159 -0.999029,0.0239 -1.992691,0.10793 -1.840048,2.92602 0.152643,2.81809 v 0 c 0.13875,-0.0176 0.277498,-0.0352 0.416245,-0.0528 0.209548,0.0253 0.423056,0.0281 0.628642,0.0759 0.965631,0.22454 2.073005,0.75943 2.735638,1.51488 0.111104,0.12667 0.190593,0.27791 0.285888,0.41686 0.04984,0.10866 0.128162,0.20835 0.149524,0.32596 0.130106,0.71634 -0.596053,1.30404 -1.161989,1.56088 -0.203422,0.0923 -0.425,0.1378 -0.6375,0.2067 -0.206095,0.0217 -0.411205,0.0734 -0.618284,0.0653 -0.811943,-0.032 -1.572689,-0.50949 -1.948677,-1.22869 -0.08769,-0.16773 -0.130678,-0.35528 -0.19602,-0.53293 -0.02365,-0.1745 -0.06904,-0.34743 -0.07096,-0.52352 -0.0019,-0.17247 0.02716,-0.34461 0.05968,-0.51399 0.0849,-0.4423 0.272204,-0.82828 0.671992,-1.05575 0.250642,-0.0857 0.243544,-0.10232 0.499147,-0.12013 0.05766,-0.004 0.11562,0.005 0.173387,0.003 0.01804,-5.3e-4 0.03527,-0.008 0.05306,-0.0107 0.0084,-0.001 0.02429,0.006 0.02537,-0.003 0.0016,-0.0119 -0.01418,-0.0195 -0.02127,-0.0292 1.476444,1.34261 3.375173,-0.7454 1.898729,-2.088 z"
       id="path1156"
       style="fill:#000000;fill-opacity:1;fill-rule:nonzero;stroke:none;stroke-width:0.264583" />
    <path
       d="m 52.921506,274.06089 c -0.590367,1.56219 -0.775083,3.2416 -0.988655,4.88669 -0.382738,3.40451 -0.691608,6.81706 -0.920546,10.23528 -0.07914,1.26303 -0.126363,2.52761 -0.170157,3.79223 -0.06898,1.99442 2.751561,2.09196 2.820536,0.0975 v 0 c 0.04263,-1.23432 0.08857,-2.4686 0.165547,-3.70138 0.224549,-3.36025 0.528992,-6.71478 0.903531,-10.06169 0.178726,-1.38759 0.326106,-2.80267 0.782185,-4.13324 0.78873,-1.83313 -1.80371,-2.94856 -2.592441,-1.11543 z"
       id="path1158"
       style="fill:#000000;fill-opacity:1;fill-rule:nonzero;stroke:none;stroke-width:0.264583" />
  </g>
</svg>
