<?xml version="1.0" encoding="UTF-8" standalone="no"?>
<svg
   xmlns:dc="http://purl.org/dc/elements/1.1/"
   xmlns:cc="http://creativecommons.org/ns#"
   xmlns:rdf="http://www.w3.org/1999/02/22-rdf-syntax-ns#"
   xmlns:svg="http://www.w3.org/2000/svg"
   xmlns="http://www.w3.org/2000/svg"
   xmlns:sodipodi="http://sodipodi.sourceforge.net/DTD/sodipodi-0.dtd"
   xmlns:inkscape="http://www.inkscape.org/namespaces/inkscape"
   inkscape:version="1.0 (1.0+r73+1)"
   sodipodi:docname="html.svg"
   id="svg8"
   version="1.1"
   viewBox="0 0 64 64"
   height="64mm"
   width="64mm">
  <defs
     id="defs2" />
  <sodipodi:namedview
     inkscape:document-rotation="0"
     inkscape:window-maximized="1"
     inkscape:window-y="27"
     inkscape:window-x="0"
     inkscape:window-height="1016"
     inkscape:window-width="1920"
     inkscape:snap-page="true"
     showgrid="false"
     inkscape:current-layer="layer1"
     inkscape:document-units="mm"
     inkscape:cy="110.27027"
     inkscape:cx="68.750268"
     inkscape:zoom="3"
     inkscape:pageshadow="2"
     inkscape:pageopacity="0.0"
     borderopacity="1.0"
     bordercolor="#666666"
     pagecolor="#ffffff"
     id="base" />
  <metadata
     id="metadata5">
    <rdf:RDF>
      <cc:Work
         rdf:about="">
        <dc:format>image/svg+xml</dc:format>
        <dc:type
           rdf:resource="http://purl.org/dc/dcmitype/StillImage" />
        <dc:title></dc:title>
      </cc:Work>
    </rdf:RDF>
  </metadata>
  <g
     transform="translate(0,-233)"
     id="layer1"
     inkscape:groupmode="layer"
     inkscape:label="Layer 1">
    <rect
       y="233"
       x="0"
       height="64"
       width="64"
       id="rect3713"
       style="fill:#9e9e9e;stroke-width:0.26458332;fill-opacity:1" />
    <path
       d="m 2.4821108,236.69306 c 0.065356,1.08483 0.1088011,2.17132 0.1416762,3.25785 0.0493,2.05145 -0.020844,4.10297 -0.068389,6.15373 -0.041527,1.27427 -0.025821,2.5486 0.031176,3.82193 0.041094,0.448 0.032662,0.89181 -0.019042,1.33743 -0.049578,0.39558 -0.093135,0.79195 -0.1261004,1.18927 -0.024283,0.32094 -0.023715,0.64306 -0.024789,0.96472 -0.00555,0.38729 -0.00657,0.77165 0.039365,1.15638 2.3595636,1.19061 1.5224159,1.58683 2.7720974,0.18907 0.7874363,-1.83368 -1.8057904,-2.94729 -2.5932269,-1.1136 v 0 c 1.1886173,-1.11371 0.3876521,-0.74801 2.6030343,0.44919 0.00143,0.038 -0.00312,0.15137 0.00428,0.11405 0.00778,-0.0392 -0.0027,-0.0798 -0.00315,-0.11975 -0.00254,-0.22201 0.00122,-0.44409 -1.94e-4,-0.6661 7.938e-4,-0.24745 -7.673e-4,-0.4953 0.015282,-0.74233 0.030059,-0.36853 0.072132,-0.73597 0.1176456,-1.10287 0.066128,-0.59304 0.084204,-1.18627 0.034183,-1.78191 -0.05436,-1.20942 -0.069172,-2.41974 -0.029099,-3.63007 0.048707,-2.10111 0.1198337,-4.203 0.067846,-6.30479 -0.037753,-1.23924 -0.067202,-2.48261 -0.1933496,-3.71644 -0.3848367,-1.95815 -3.1540854,-1.41391 -2.7692487,0.54424 z"
       id="path2005"
       style="fill:#000000;fill-opacity:1;fill-rule:nonzero;stroke:none;stroke-width:0.264583" />
    <path
       d="m 4.4198553,236.8023 c 0.081016,0.4906 0.098194,0.98922 0.1169054,1.48527 0.036203,0.61688 4.762e-4,1.23111 -0.068154,1.84395 -0.087606,0.67792 -0.1471882,1.35865 -0.1872125,2.04089 -0.03427,0.70232 -0.042454,1.40556 -0.038341,2.10859 0.00552,0.69259 0.069042,1.38237 0.1420608,2.07049 0.068643,0.55028 0.1120326,1.10268 0.1379099,1.65647 0.022402,0.54402 0.026766,1.08853 0.029533,1.63294 0.00546,0.47948 -2.439e-4,0.95874 -0.016245,1.43794 -0.01773,0.47221 -0.032551,0.94453 -0.046963,1.41686 -0.011959,0.43842 -0.019106,0.87696 -0.029305,1.31543 -0.00795,0.35123 -0.011729,0.70253 -0.013959,1.05385 0.020627,1.25838 0.278238,0.37569 2.8035062,0.49656 0.498997,-1.93222 -2.2335736,-2.63791 -2.7325709,-0.70569 v 0 c 2.7873659,0.25433 2.7670269,0.71058 2.7512309,0.22699 0.0021,-0.3354 0.0057,-0.67079 0.01325,-1.00612 0.01003,-0.43164 0.01714,-0.86335 0.02875,-1.29495 0.01433,-0.4698 0.02909,-0.93959 0.04672,-1.40929 0.01702,-0.51521 0.02352,-1.0305 0.01776,-1.546 -0.003,-0.584 -0.0081,-1.16811 -0.03264,-1.75169 -0.02903,-0.60889 -0.07557,-1.21647 -0.150575,-1.82161 -0.06333,-0.59475 -0.120646,-1.19079 -0.126305,-1.78945 -0.0041,-0.64259 0.0034,-1.28536 0.03363,-1.92734 0.03653,-0.63335 0.09343,-1.26508 0.174846,-1.89435 0.08244,-0.75183 0.124723,-1.50607 0.08322,-2.26253 -0.02427,-0.62493 -0.05115,-1.2524 -0.158146,-1.86974 -0.348272,-1.96499 -3.1271845,-1.47246 -2.7789127,0.49253 z"
       id="path2007"
       style="fill:#000000;fill-opacity:1;fill-rule:nonzero;stroke:none;stroke-width:0.264583" />
    <path
       d="m 13.514051,236.19194 c 0.07311,0.2279 0.10142,0.4674 0.116395,0.70532 -0.0034,0.41175 -0.04893,0.82211 -0.07695,1.23277 -0.02973,0.45906 -0.06693,0.91762 -0.116376,1.37498 -0.08209,0.60351 -0.157704,1.20782 -0.234325,1.81205 -0.110621,0.71752 -0.215937,1.43482 -0.286345,2.15752 -0.06709,0.72178 -0.08852,1.44603 -0.08848,2.17053 0.0023,0.67071 -0.04467,1.34018 -0.07447,2.00992 -0.02645,0.66057 -0.04486,1.32165 -0.01924,1.98244 0.0305,0.49922 0.0944,0.99562 0.165094,1.49049 0.06493,0.40414 0.124029,0.809 0.175244,1.21511 0.03948,0.36178 0.07463,0.72406 0.109951,1.08627 0.02503,0.23945 0.03848,0.47985 0.05766,0.71977 0.131864,1.13635 0.415354,0.52519 2.530145,-0.92242 0.119125,-0.0815 -0.205309,-0.203 -0.307964,-0.3045 -1.583364,-1.21467 -3.301168,1.02454 -1.717803,2.23922 v 0 c -0.08016,-0.0842 -0.339816,-0.19229 -0.240475,-0.25273 0.953282,-0.58003 2.475066,-2.07813 2.549157,-0.9868 -0.02097,-0.25551 -0.03445,-0.51165 -0.06184,-0.76664 -0.03796,-0.38875 -0.07533,-0.77761 -0.118849,-1.16578 -0.05331,-0.42156 -0.113741,-0.84202 -0.181496,-1.26151 -0.05756,-0.4009 -0.109945,-0.80289 -0.139008,-1.207 -0.0261,-0.58003 -5.29e-4,-1.16074 0.01886,-1.74065 0.03158,-0.71185 0.08095,-1.42342 0.07726,-2.13634 -5.02e-4,-0.63348 0.0173,-1.26669 0.07539,-1.89787 0.06655,-0.695 0.173809,-1.38377 0.277025,-2.07408 0.07885,-0.62212 0.157614,-1.2442 0.240613,-1.86577 0.0527,-0.49392 0.09429,-0.98892 0.125989,-1.48465 0.03705,-0.54635 0.102897,-1.09305 0.07509,-1.64143 -0.04292,-0.5104 -0.115256,-1.02127 -0.296919,-1.50335 -0.717804,-1.86205 -3.351139,-0.84692 -2.633335,1.01513 z"
       id="path2011"
       style="fill:#000000;fill-opacity:1;fill-rule:nonzero;stroke:none;stroke-width:0.264583" />
    <path
       d="m 15.110856,236.12031 c 0.109086,0.45555 0.137754,0.92342 0.164294,1.38941 0.03076,0.66588 0.07984,1.3308 0.08965,1.99744 -0.0039,0.59988 -0.08893,1.19513 -0.156095,1.79019 -0.06989,0.60012 -0.100745,1.20354 -0.116838,1.80718 -0.01712,0.53471 0.03371,1.06785 0.06229,1.6012 0.02036,0.48576 0.04663,0.97171 0.03649,1.45798 -0.03594,0.54618 -0.108031,1.08947 -0.164541,1.63389 -0.04663,0.45334 -0.10168,0.90562 -0.176565,1.35517 -0.08591,0.45866 -0.15888,0.91882 -0.209052,1.38275 -0.0442,0.46165 -0.06237,0.9252 -0.07153,1.3887 -0.01796,0.42424 0.02293,0.84515 0.0864,1.26385 0.04639,0.28702 0.0776,0.57601 0.103202,0.86551 0.104957,1.38945 -0.300804,0.55216 2.848237,0.51118 0.169709,-1.98838 -2.642289,-2.22839 -2.811998,-0.24 v 0 c 2.864312,0.0793 2.885566,0.94379 2.774869,-0.5214 -0.03113,-0.3479 -0.06899,-0.6952 -0.12426,-1.04021 -0.03988,-0.2603 -0.07137,-0.52015 -0.05475,-0.78458 0.0071,-0.38162 0.02162,-0.76327 0.05611,-1.14353 0.04299,-0.41002 0.112715,-0.81562 0.187051,-1.22105 0.08344,-0.50605 0.147558,-1.01476 0.199425,-1.52502 0.06489,-0.62519 0.15073,-1.24904 0.179214,-1.87726 0.0079,-0.553 -0.01334,-1.1055 -0.04017,-1.65784 -0.02481,-0.45812 -0.06976,-0.91607 -0.05917,-1.37528 0.01347,-0.52265 0.0394,-1.04515 0.100007,-1.56475 0.0807,-0.71514 0.178475,-1.43087 0.173532,-2.15215 -0.01218,-0.70613 -0.05912,-1.41059 -0.09404,-2.11585 -0.03505,-0.59231 -0.07781,-1.18642 -0.211806,-1.76621 -0.382315,-1.95864 -3.152262,-1.41797 -2.769947,0.54068 z"
       id="path2013"
       style="fill:#000000;fill-opacity:1;fill-rule:nonzero;stroke:none;stroke-width:0.264583" />
    <path
       d="m 6.4678925,247.35665 c 0.8979266,0.10422 1.8006666,0.15704 2.7027016,0.21056 1.1737039,0.0707 2.3479399,0.13153 3.5225769,0.18426 0.146926,0.006 0.293849,0.0119 0.440777,0.0177 0.307766,0.0123 0.615627,0.0225 0.923369,0.0353 0.172004,0.007 0.215177,-0.005 0.145789,0.0117 -0.14112,-0.0428 -0.28224,-0.0856 -0.42336,-0.12846 1.744011,0.97 3.115793,-1.4964 1.371782,-2.4664 v 0 c -0.183499,-0.0664 -0.366998,-0.13278 -0.550498,-0.19917 -0.590846,-0.069 -1.188026,-0.0528 -1.78132,-0.09 -1.161139,-0.0521 -2.321879,-0.1123 -3.4820939,-0.18216 -0.853618,-0.0506 -1.707997,-0.0996 -2.557733,-0.19821 -1.9833807,-0.22061 -2.2953715,2.58432 -0.3119906,2.80492 z"
       id="path2015"
       style="fill:#000000;fill-opacity:1;fill-rule:nonzero;stroke:none;stroke-width:0.264583" />
    <path
       d="m 2.7136244,236.95949 c 0.3908935,-0.0898 0.79327,-0.1163 1.1921243,-0.14636 0.8371258,-0.0643 1.6745927,-0.006 2.5083699,0.0709 0.7052515,0.0785 1.4088715,0.16794 2.1189515,0.18241 0.05833,3.7e-4 0.117221,0.009 0.175002,0.001 0.04831,-0.007 -0.09968,0.009 -0.146226,-0.005 -0.176171,-0.0552 -0.343751,-0.13472 -0.515626,-0.20208 1.630293,1.15092 3.2579359,-1.15466 1.627642,-2.30558 v 0 c -0.482073,-0.21269 -0.607107,-0.32782 -1.092969,-0.31016 -0.639893,-0.007 -1.272656,-0.11129 -1.908751,-0.171 -0.9915001,-0.0905 -1.9875243,-0.15226 -2.9825653,-0.0744 -0.6209057,0.0484 -1.2484508,0.0976 -1.8482596,0.27626 -1.89789586,0.61681 -1.02558866,3.30084 0.8723072,2.68403 z"
       id="path2017"
       style="fill:#000000;fill-opacity:1;fill-rule:nonzero;stroke:none;stroke-width:0.264583" />
    <path
       d="m 13.287715,236.39456 c 0.665971,-0.0212 1.331088,0.0221 1.994847,0.0709 1.001692,0.0895 2.005135,0.15248 3.009854,0.19447 0.582677,0.0371 1.16901,0.0117 1.751127,0.0567 -1.050797,-0.25723 -0.413089,0.033 -1.196908,-1.72786 -0.595011,1.90484 2.098846,2.74631 2.693856,0.84147 v 0 c -0.756732,-1.9395 -0.08378,-1.55326 -1.302652,-1.92913 -0.608453,-0.0393 -1.218902,-0.0318 -1.827888,-0.0609 -0.975483,-0.0405 -1.949628,-0.10259 -2.922159,-0.18945 -0.770431,-0.0558 -1.542578,-0.10316 -2.315424,-0.076 -1.993945,0.0816 -1.878598,2.90142 0.115347,2.81986 z"
       id="path2019"
       style="fill:#000000;fill-opacity:1;fill-rule:nonzero;stroke:none;stroke-width:0.264583" />
    <path
       d="m 1.1517408,255.8058 c 0.6440726,0.29996 1.354695,0.38129 2.053445,0.4509 0.750039,0.0709 1.5033691,0.0541 2.255107,0.0314 0.5664446,-0.0193 1.1331868,-0.0263 1.6999133,-0.0302 0.349005,-0.005 0.69743,0.0165 1.045261,0.0422 0.01476,0.002 0.05835,0.0112 0.04429,0.006 -1.056861,-0.37162 -0.453862,0.0463 -1.193434,-1.59675 -0.363494,1.96223 2.411516,2.47629 2.775011,0.51406 v 0 c -0.502908,-1.20095 -0.248907,-1.61558 -1.419081,-1.73821 -0.423054,-0.031 -0.846879,-0.0556 -1.271303,-0.0497 -0.5887691,0.004 -1.1775514,0.0115 -1.7660286,0.0314 -0.631765,0.0192 -1.264915,0.0381 -1.8955107,-0.0193 -0.3683281,-0.035 -0.7476691,-0.0592 -1.0992469,-0.18288 -1.79665356,-0.86862 -3.02507136,1.67223 -1.2284181,2.54086 z"
       id="path2021"
       style="fill:#000000;fill-opacity:1;fill-rule:nonzero;stroke:none;stroke-width:0.264583" />
    <path
       d="m 12.979217,255.57597 c 0.712143,0.14705 1.435279,0.21357 2.159653,0.26215 0.900951,0.0423 1.802368,0.0624 2.702345,0.12383 0.521751,0.0368 1.043582,0.0733 1.566115,0.097 0.0515,0.003 0.103009,0.005 0.154514,0.008 0.0094,0.002 0.03727,0.0104 0.02814,0.007 -1.033886,-0.36566 -0.48826,-0.001 -1.166226,-1.51627 -0.379395,1.95922 2.391355,2.49576 2.77075,0.53655 v 0 c -0.18269,-0.50756 -0.24068,-1.0794 -0.54807,-1.52269 -0.208705,-0.30097 -0.767339,-0.31031 -1.111912,-0.33166 -0.501097,-0.0224 -1.001452,-0.0585 -1.501806,-0.0934 -0.90192,-0.0611 -1.805077,-0.0851 -2.708086,-0.1242 -0.626643,-0.0405 -1.251674,-0.098 -1.867264,-0.22747 -1.966762,-0.33811 -2.444918,2.44331 -0.478157,2.78142 z"
       id="path2023"
       style="fill:#000000;fill-opacity:1;fill-rule:nonzero;stroke:none;stroke-width:0.264583" />
    <path
       d="m 27.775016,235.79564 c 0.01659,0.89686 -0.01008,1.79365 -0.02347,2.69036 -0.01243,1.20861 0.05065,2.41577 0.04595,3.62432 -0.02453,1.13559 -0.06521,2.27059 -0.07305,3.4065 0.0021,0.95603 0.02164,1.9119 0.03262,2.86785 0.01876,0.89645 -0.01693,1.79199 -0.07774,2.68612 -0.05279,0.77861 -0.135308,1.5547 -0.196868,2.3326 -0.0217,0.26871 -0.03529,0.53797 -0.05297,0.80694 -0.0027,0.0408 -0.01905,0.16215 -0.0093,0.12241 0.01423,-0.0579 -0.02855,-0.14703 0.02278,-0.17726 0.611108,-0.35989 1.26728,-0.63709 1.90092,-0.95563 -1.829038,-0.79818 -2.95783,1.78847 -1.128792,2.58665 v 0 c 0.653814,-0.30974 1.345446,-0.5498 1.961446,-0.92922 0.09082,-0.0559 0.04259,-0.20914 0.05805,-0.31467 0.04432,-0.30243 0.01852,-0.61438 0.06131,-0.91713 0.06207,-0.7884 0.146685,-1.57488 0.199173,-2.36407 0.06529,-0.96839 0.103714,-1.93831 0.084,-2.90916 -0.0108,-0.93879 -0.02978,-1.8775 -0.0325,-2.81636 0.0075,-1.13906 0.05051,-2.27715 0.07309,-3.41594 0.0036,-1.19779 -0.05446,-2.39416 -0.04625,-3.59196 0.0136,-0.91468 0.04057,-1.82944 0.02376,-2.74428 -0.0084,-1.99559 -2.830632,-1.98367 -2.822197,0.0119 z"
       id="path2025"
       style="fill:#000000;fill-opacity:1;fill-rule:nonzero;stroke:none;stroke-width:0.264583" />
    <path
       d="m 29.639627,236.02651 c 0.04247,0.46517 0.03387,0.93242 0.01418,1.39841 -0.03453,0.65298 -0.08997,1.30463 -0.144285,1.95619 -0.05288,0.69392 -0.108813,1.38762 -0.15603,2.08194 -0.04691,0.72394 -0.07078,1.44901 -0.08433,2.17424 -0.01122,0.71813 -0.01715,1.43631 -0.02384,2.15448 -0.0031,0.74253 -0.0267,1.48459 -0.05631,2.22644 -0.03163,0.67543 -0.04741,1.3514 -0.06371,2.02732 -0.01627,0.43808 -0.05232,0.87502 -0.07536,1.31277 -0.02413,0.51782 -0.03684,1.03608 -0.04851,1.5543 -0.0075,0.39343 -0.01206,0.78691 -0.01606,1.18039 0.01159,0.41593 -0.112162,0.58244 0.242951,-0.48011 0.594439,-0.15046 1.188876,-0.30092 1.783315,-0.45137 -1.74517,-0.96791 -3.114,1.50014 -1.368827,2.46804 v 0 c 0.630796,-0.13029 1.261594,-0.26058 1.89239,-0.39087 0.23114,-0.66217 0.281702,-0.62936 0.272248,-1.11694 0.0039,-0.38191 0.0083,-0.76383 0.01551,-1.14569 0.01101,-0.49008 0.02297,-0.9802 0.04535,-1.46992 0.02426,-0.46433 0.06386,-0.92776 0.07841,-1.39257 0.01593,-0.66109 0.03124,-1.32224 0.06228,-1.98285 0.03073,-0.77058 0.05504,-1.54139 0.05843,-2.31265 0.0066,-0.70947 0.01244,-1.41895 0.02347,-2.12837 0.01251,-0.67896 0.0347,-1.35776 0.07833,-2.03551 0.04606,-0.67991 0.10123,-1.35916 0.152757,-2.03867 0.05764,-0.6917 0.116351,-1.3835 0.151741,-2.07678 0.02432,-0.62551 0.03305,-1.25344 -0.03553,-1.8768 -0.257799,-1.97889 -3.056374,-1.61431 -2.798574,0.36458 z"
       id="path2027"
       style="fill:#000000;fill-opacity:1;fill-rule:nonzero;stroke:none;stroke-width:0.264583" />
    <path
       d="m 23.906218,236.46825 c 0.679995,0.13723 1.368843,0.21765 2.058619,0.28535 1.089166,0.10275 2.182797,0.13811 3.275767,0.17195 1.239837,0.0354 2.478217,0.10718 3.716163,0.18227 1.065273,0.052 2.125096,0.16677 3.178336,0.33214 0.69773,0.11954 1.396336,0.23363 2.095254,0.34595 0.351618,0.0594 0.174199,0.0347 -0.299371,-0.18034 1.571141,1.23044 3.31125,-0.99149 1.740112,-2.22193 v 0 c -0.433393,-0.22547 -0.560033,-0.33946 -0.992942,-0.38419 -0.702894,-0.11296 -1.405429,-0.22795 -2.107181,-0.34785 -1.141267,-0.17769 -2.28927,-0.30429 -3.443383,-0.36082 -1.265785,-0.0767 -2.53202,-0.14989 -3.799739,-0.18611 -1.030531,-0.0318 -2.061747,-0.0639 -3.088775,-0.15994 -0.608274,-0.059 -1.215779,-0.12886 -1.815222,-0.25082 -1.961756,-0.36603 -2.479397,2.40832 -0.517638,2.77434 z"
       id="path2029"
       style="fill:#000000;fill-opacity:1;fill-rule:nonzero;stroke:none;stroke-width:0.264583" />
    <path
       d="m 38.064072,237.87552 c 0.02048,0.24073 0.03764,0.48243 0.04164,0.72409 7.94e-4,0.0511 -0.0048,0.20446 -0.0026,0.15338 0.0028,-0.0642 0.0028,-0.12845 0.0043,-0.19268 -0.517657,1.92731 2.207961,2.65939 2.725619,0.73208 v 0 c 0.03076,-0.17347 0.07209,-0.34541 0.09229,-0.52043 0.01082,-0.0937 0.0021,-0.18858 5.29e-4,-0.28285 -0.006,-0.32547 -0.03001,-0.65101 -0.06268,-0.97476 -0.255381,-1.9792 -3.054397,-1.61803 -2.799016,0.36117 z"
       id="path2031"
       style="fill:#000000;fill-opacity:1;fill-rule:nonzero;stroke:none;stroke-width:0.264583" />
    <path
       d="m 21.848536,235.44209 c 0.01062,0.57323 -0.02316,1.14555 -0.06326,1.71704 -0.03064,0.30865 -0.02915,0.61748 -0.01691,0.92673 0.105106,1.99285 2.92341,1.84421 2.818304,-0.14864 v 0 c -0.01995,-0.19351 0.0045,-0.38821 0.01397,-0.58158 0.0447,-0.64347 0.08129,-1.2879 0.07004,-1.93327 -0.01394,-1.99557 -2.836102,-1.97584 -2.822153,0.0197 z"
       id="path2033"
       style="fill:#000000;fill-opacity:1;fill-rule:nonzero;stroke:none;stroke-width:0.264583" />
    <path
       d="m 26.175478,256.40833 c 0.599305,-0.002 1.198382,-0.0194 1.797409,-0.0362 0.813181,-0.0249 1.626725,-0.0341 2.440244,-0.0375 0.606354,3e-5 1.212596,0.0132 1.818841,0.0233 0.258702,0.008 0.518957,0.004 0.77691,0.0297 0.009,8e-4 0.01749,0.005 0.02625,0.007 -0.241972,-0.10777 -0.483946,-0.21554 -0.725918,-0.3233 1.468932,1.35081 3.379274,-0.72657 1.910342,-2.07739 v 0 c -0.268288,-0.13196 -0.528529,-0.28173 -0.80486,-0.39589 -0.06723,-0.0278 -0.144241,-0.0193 -0.216662,-0.0261 -0.305398,-0.0289 -0.613162,-0.0265 -0.919427,-0.0356 -0.625801,-0.0103 -1.251604,-0.0239 -1.877521,-0.0236 -0.835916,0.004 -1.671859,0.0131 -2.507432,0.0386 -0.577853,0.0163 -1.15575,0.033 -1.73387,0.0352 -1.995583,0.0111 -1.979891,2.83328 0.01569,2.82218 z"
       id="path2037"
       style="fill:#000000;fill-opacity:1;fill-rule:nonzero;stroke:none;stroke-width:0.264583" />
    <path
       d="m 43.203479,237.42557 c 0.896022,-0.0348 1.792851,-0.0464 2.689492,-0.0457 0.315863,0.0123 0.635215,-0.007 0.949987,0.0317 0.03823,0.005 -0.08126,0.0119 -0.115403,-0.006 -0.235525,-0.12292 -0.45533,-0.27386 -0.682996,-0.41078 1.27417,1.53589 3.446248,-0.26606 2.172081,-1.80195 v 0 c -0.256913,-0.17218 -0.495377,-0.37573 -0.770734,-0.51654 -0.119441,-0.0611 -0.261749,-0.0604 -0.394552,-0.0794 -0.381783,-0.0545 -0.773475,-0.0184 -1.156766,-0.0394 -0.950026,-3.7e-4 -1.900296,0.0114 -2.849607,0.0501 -1.992461,0.11208 -1.833962,2.92985 0.158498,2.81777 z"
       id="path2039"
       style="fill:#000000;fill-opacity:1;fill-rule:nonzero;stroke:none;stroke-width:0.264583" />
    <path
       d="m 42.689854,257.67097 c 0.813732,-0.14783 1.64229,-0.17497 2.467171,-0.19001 0.342995,0.004 0.534241,0.001 0.865439,0.0224 0.222226,0.014 0.163917,-0.01 0.258754,0.0355 1.958327,0.38397 2.501334,-2.38553 0.543007,-2.76949 v 0 c -0.569285,-0.0976 -1.144595,-0.11873 -1.722133,-0.11009 -0.971965,0.0199 -1.947526,0.0573 -2.906032,0.23301 -1.96483,0.34917 -1.471036,3.12786 0.493794,2.77869 z"
       id="path2041"
       style="fill:#000000;fill-opacity:1;fill-rule:nonzero;stroke:none;stroke-width:0.264583" />
    <path
       d="m 56.1386,258.12743 c 0.479391,-0.0213 0.957776,-0.0584 1.437209,-0.0798 0.555411,-0.0324 1.11052,0.003 1.664661,0.0383 0.575376,0.0404 1.151866,0.059 1.728432,0.0705 0.19263,0.008 0.385779,-1.9e-4 0.578321,0.009 1.994197,0.0752 2.10052,-2.74503 0.106326,-2.82021 v 0 c -0.209362,-0.007 -0.418809,-0.007 -0.628248,-0.0106 -0.534784,-0.0106 -1.069504,-0.0276 -1.603169,-0.0652 -0.656881,-0.0423 -1.315021,-0.0785 -1.973278,-0.0413 -0.454395,0.0206 -0.907986,0.0522 -1.362085,0.0774 -1.995276,0.0367 -1.943444,2.8584 0.05183,2.82174 z"
       id="path2045"
       style="fill:#000000;fill-opacity:1;fill-rule:nonzero;stroke:none;stroke-width:0.264583" />
    <path
       d="m 56.290781,237.89735 c 0.622112,0.0145 1.243155,0.0508 1.863561,0.0978 0.627501,0.0571 1.253006,0.13229 1.881409,0.1794 0.471263,0.0342 0.943841,0.0387 1.416048,0.0301 0.182163,0.001 0.09197,0.003 -0.267536,-0.0408 1.922862,0.53392 2.677938,-2.18542 0.755076,-2.71933 v 0 c -0.452835,-0.0681 -0.271479,-0.0615 -0.540928,-0.0616 -0.384564,0.008 -0.76945,0.005 -1.153297,-0.0228 -0.627431,-0.0462 -1.251554,-0.12549 -1.878333,-0.17918 -0.648639,-0.0488 -1.297914,-0.0879 -1.948328,-0.1029 -1.993569,-0.0903 -2.121241,2.72906 -0.127672,2.81933 z"
       id="path2047"
       style="fill:#000000;fill-opacity:1;fill-rule:nonzero;stroke:none;stroke-width:0.264583" />
    <path
       d="m 42.410337,236.81681 c -0.03006,0.44816 -0.06206,0.89614 -0.08514,1.34472 -0.02246,0.45122 -0.02537,0.90302 -0.03062,1.35467 -0.0069,0.26372 -0.01437,0.52813 -0.05567,0.78903 -0.07068,0.33783 -0.116673,0.67955 -0.148349,1.02302 -0.02548,0.31233 -0.02913,0.62581 -0.03101,0.939 -0.0016,0.24484 -0.0021,0.4895 0.01,0.73406 0.0078,0.28634 0.108672,0.55731 0.147841,0.83845 0.03054,0.23593 0.02545,0.47369 0.0181,0.7108 -0.01164,0.49257 -0.05435,0.98309 -0.09861,1.47352 -0.03921,0.40452 -0.06326,0.80997 -0.07744,1.21604 -0.01289,0.39005 -0.01955,0.78025 -0.02368,1.17047 -0.0048,0.56325 -0.0052,1.12646 0.0043,1.68965 0.01672,0.53732 0.01455,1.07511 0.04325,1.61198 0.04433,0.39082 0.08177,0.78107 0.09847,1.1741 0.01371,0.37952 0.01416,0.75933 0.01648,1.13905 0.0057,0.25545 0.0063,0.51111 0.01617,0.76645 0.125907,1.44834 0.771189,0.3565 2.822887,-0.1654 -0.210166,-1.98451 -3.016694,-1.68729 -2.806528,0.29722 v 0 c 0.901822,-0.20792 2.790701,-1.59513 2.803171,-0.25508 -0.01312,-0.21966 -0.0044,-0.44065 -0.01352,-0.66051 -0.0026,-0.41486 -0.0034,-0.82982 -0.0191,-1.24446 -0.01794,-0.40438 -0.04692,-0.80767 -0.100213,-1.2091 -0.02991,-0.49999 -0.01976,-1.00157 -0.03924,-1.502 -0.0092,-0.53741 -0.0084,-1.07484 -0.004,-1.6123 0.0038,-0.36739 0.01008,-0.73476 0.02212,-1.10198 0.01225,-0.35415 0.03309,-0.7077 0.06772,-1.06047 0.04945,-0.54807 0.0954,-1.09641 0.108886,-1.64681 0.01103,-0.41309 0.01024,-0.82738 -0.05239,-1.23704 -0.03099,-0.18517 -0.06176,-0.37132 -0.116861,-0.55122 -0.01416,-0.18581 -0.0013,-0.37282 -0.0056,-0.55895 0.0013,-0.23466 0.0028,-0.46957 0.01982,-0.70373 0.02484,-0.29197 0.07411,-0.58 0.130066,-0.86755 0.05403,-0.38571 0.08087,-0.7739 0.08501,-1.16348 0.0048,-0.41452 0.007,-0.82919 0.02713,-1.24334 0.02188,-0.43107 0.0534,-0.8615 0.08196,-1.29217 0.139044,-1.99076 -2.676321,-2.1874 -2.815365,-0.19664 z"
       id="path2049"
       style="fill:#000000;fill-opacity:1;fill-rule:nonzero;stroke:none;stroke-width:0.264583" />
    <path
       d="m 44.491973,238.76431 c 0.679537,0.64651 1.307042,1.34665 1.940036,2.03825 0.891564,0.97383 1.703152,2.01585 2.500948,3.06658 0.23876,0.31397 0.469341,0.634 0.701569,0.95279 0.309348,0.40646 0.643001,0.54272 1.126328,0.61749 0.140005,0.0217 0.297802,0.003 0.440042,10e-4 0.122838,0.0131 -0.01794,0.003 -0.0394,-0.003 -0.07265,-0.0186 -0.08585,-0.0277 -0.151889,-0.0572 -0.123904,-0.0979 0.0083,0.0407 -0.03941,-0.01 -0.143934,-0.16061 0.213899,0.24956 0.109463,0.13511 0.628608,0.70181 0.0061,0.0603 2.501442,-0.91176 0.0314,-1.99537 -2.790468,-2.03978 -2.821874,-0.0444 v 0 c 2.496,-0.89987 2.238354,-1.13849 2.460223,-0.88399 -0.158871,-0.1796 0.117147,0.1595 -0.01082,-0.0108 -0.0222,-0.0296 -0.04518,-0.0585 -0.06777,-0.0878 -0.190116,-0.22297 -0.401688,-0.42745 -0.648491,-0.58786 -0.437748,-0.24745 -0.826664,-0.36909 -1.333323,-0.36048 -0.06477,9.8e-4 -0.132133,-0.0144 -0.194294,0.004 -0.01423,0.004 0.02973,0.002 0.04415,0.005 0.111081,0.0266 0.229945,0.0334 0.332058,0.0846 0.387731,0.19429 0.385193,0.21656 0.574093,0.44669 -0.24334,-0.33345 -0.484304,-0.66867 -0.734507,-0.99706 -0.850183,-1.11934 -1.716614,-2.2281 -2.666805,-3.26534 -0.751316,-0.82063 -1.489122,-1.66432 -2.331894,-2.39302 -1.598324,-1.19492 -3.288197,1.06545 -1.689873,2.26037 z"
       id="path2051"
       style="fill:#000000;fill-opacity:1;fill-rule:nonzero;stroke:none;stroke-width:0.264583" />
    <path
       d="m 53.627821,244.91938 c 0.515956,-0.42888 0.992404,-0.90146 1.470403,-1.3714 0.728504,-0.74809 1.526173,-1.41822 2.363312,-2.04004 0.710771,-0.48136 1.362844,-1.03468 1.990053,-1.61857 0.323024,-0.31297 0.678989,-0.5904 0.992944,-0.91256 1.365908,-1.45491 -0.691642,-3.38659 -2.057551,-1.93169 v 0 c 0.03483,-0.0254 0.03581,-0.027 -0.05107,0.0511 -0.185155,0.16643 -0.373239,0.32936 -0.557112,0.49728 -0.08395,0.0767 -0.167319,0.15396 -0.250981,0.23093 -0.551156,0.51389 -1.123926,0.9994 -1.751465,1.41967 -0.939268,0.70045 -1.836996,1.4524 -2.656863,2.29156 -0.457018,0.44944 -0.913297,0.89991 -1.406356,1.31037 -1.466107,1.35388 0.448577,3.42727 1.914681,2.07338 z"
       id="path2053"
       style="fill:#000000;fill-opacity:1;fill-rule:nonzero;stroke:none;stroke-width:0.264583" />
    <path
       d="m 46.15009,237.08768 c 0.216043,0.31686 0.456107,0.6167 0.698773,0.91339 0.23731,0.28179 0.502631,0.53807 0.769665,0.79124 0.195275,0.16982 0.380881,0.349 0.553151,0.54206 0.135612,0.15179 0.254606,0.31665 0.370297,0.48374 0.168185,0.2524 0.3535,0.49236 0.543629,0.72843 0.193871,0.24678 0.419862,0.46427 0.648912,0.67766 0.158128,0.14634 0.307377,0.30163 0.453332,0.45998 0.245949,0.26867 0.451308,0.56972 0.656275,0.86972 0.107453,0.20123 0.290523,0.35979 0.39619,0.56147 -0.316093,-0.67744 -0.175022,-0.21626 -0.01476,-1.44673 -1.06879,1.68528 1.314553,3.19677 2.383343,1.51149 v 0 c 0.211254,-1.32229 0.346167,-0.81147 0.0092,-1.58497 -0.140806,-0.21647 -0.299583,-0.42011 -0.44417,-0.63403 -0.28281,-0.41346 -0.572473,-0.82359 -0.913246,-1.19223 -0.194281,-0.20988 -0.392861,-0.41578 -0.602874,-0.6101 -0.130961,-0.12189 -0.264811,-0.24165 -0.375013,-0.3835 -0.148037,-0.18343 -0.292737,-0.36949 -0.422452,-0.56656 -0.183764,-0.26422 -0.375711,-0.52282 -0.591066,-0.76248 -0.223697,-0.24723 -0.457639,-0.48458 -0.709948,-0.7029 -0.181108,-0.17136 -0.362289,-0.34357 -0.527273,-0.53074 -0.179723,-0.21896 -0.357116,-0.44043 -0.521189,-0.67143 -1.093536,-1.66933 -3.454321,-0.12283 -2.360785,1.54649 z"
       id="path2055"
       style="fill:#000000;fill-opacity:1;fill-rule:nonzero;stroke:none;stroke-width:0.264583" />
    <path
       d="m 56.334294,237.93219 c -0.0038,0.29347 -0.0075,0.58695 -0.01008,0.88043 -0.0027,0.41781 -0.0024,0.83564 -0.0027,1.25346 -0.0043,0.51932 0.02006,1.03824 0.03637,1.55716 0.02191,0.61187 0.03134,1.22408 0.04459,1.83618 0.0056,0.6671 0.04515,1.33291 0.08138,1.99881 0.03088,0.6098 0.06023,1.2198 0.04899,1.83047 -0.03314,0.64488 -0.07294,1.28919 -0.08751,1.93485 -0.0066,0.467 0.0079,0.93391 0.0034,1.40091 -0.01034,0.41677 -0.02622,0.83351 -0.04785,1.24986 -0.02569,0.41117 -0.05223,0.82227 -0.07502,1.23363 -0.02159,0.35017 -0.05124,0.69973 -0.07097,1.05003 -0.01495,0.30097 -0.01775,0.6024 -0.01778,0.9037 -0.0031,0.29159 0.02985,0.58131 0.07829,0.86831 0.03644,0.14682 0.127794,0.76958 0.260532,0.78015 0.83316,0.0663 1.667844,-0.11189 2.501765,-0.16784 0.873631,-1.79422 -1.663787,-3.02972 -2.537417,-1.23549 v 0 c 2.556248,-0.0623 2.135751,-0.81309 2.586307,0.26859 0.01728,0.0415 -0.05428,-0.16971 -0.03109,-0.13121 -0.02442,-0.12622 -0.03754,-0.25454 -0.03616,-0.38321 -1.56e-4,-0.24852 0.0019,-0.49715 0.01339,-0.74544 0.01945,-0.35082 0.05064,-0.70081 0.07106,-1.05157 0.02297,-0.41491 0.05003,-0.82953 0.07558,-1.24427 0.02339,-0.45646 0.04139,-0.9133 0.05148,-1.37025 0.0038,-0.45469 -0.0077,-0.90927 -0.004,-1.36397 0.01381,-0.65107 0.05963,-1.30048 0.08782,-1.95097 0.0099,-0.67713 -0.01606,-1.35353 -0.05279,-2.02966 -0.03458,-0.63516 -0.073,-1.27019 -0.07787,-1.90652 -0.01344,-0.62133 -0.0231,-1.24276 -0.04533,-1.86387 -0.0154,-0.48897 -0.0388,-0.97794 -0.03497,-1.46728 1.58e-4,-0.40996 -6.1e-5,-0.81992 0.0026,-1.22987 0.0024,-0.28211 0.0061,-0.56422 0.0096,-0.84632 0.04158,-1.99518 -2.780032,-2.05398 -2.821609,-0.0588 z"
       id="path2057"
       style="fill:#000000;fill-opacity:1;fill-rule:nonzero;stroke:none;stroke-width:0.264583" />
    <path
       d="m 58.091834,237.76407 c 0.07023,0.32554 0.08786,0.65821 0.102664,0.98989 0.01302,0.38003 0.01164,0.76031 0.0089,1.14049 -0.0054,0.25389 0.0024,0.50772 0.0047,0.76158 2.64e-4,0.28101 0.0057,0.56199 0.01196,0.84292 0.0097,0.39338 0.04905,0.78516 0.08878,1.17639 0.03469,0.33803 0.07833,0.67513 0.132919,1.01051 0.05444,0.27284 0.107455,0.5449 0.130606,0.82233 0.02106,0.29301 0.02011,0.58685 0.01614,0.88038 -0.0058,0.36362 -0.01357,0.7272 -0.01969,1.09081 -0.0083,0.36116 -0.0064,0.72251 -0.01974,1.08354 -0.02789,0.42483 -0.0552,0.84969 -0.08113,1.27466 -0.03159,0.46591 -0.04653,0.93263 -0.06407,1.3992 -0.02297,0.52494 -0.03679,1.05017 -0.04639,1.5755 -0.0021,0.32882 -0.01987,0.65714 -0.03472,0.98553 -0.01159,0.2731 -0.02421,0.54613 -0.03405,0.8193 -0.01167,0.34116 -0.02387,0.68229 -0.0326,1.02355 -0.006,0.25743 -0.01061,0.51499 -0.0034,0.77243 0.01725,0.14102 -5.29e-4,0.30226 0.05039,0.4377 0.06247,0.166 0.14396,0.3242 0.215939,0.4863 0.12904,0.1267 0.266801,0.24511 0.387126,0.38012 0.1759,0.19737 -0.2231,-0.18437 -0.205248,-0.16884 0.712539,0.61996 -0.0054,0.2056 2.182032,-0.0886 1.245245,-1.55943 -0.960126,-3.32048 -2.205371,-1.76105 v 0 c 2.952305,-0.32354 1.363083,-0.6449 2.091341,-0.0709 0.04742,0.0374 -0.429861,-0.42608 -0.287187,-0.25214 0.109072,0.13297 0.24311,0.24334 0.364664,0.36501 0.06857,0.15712 0.145553,0.31083 0.205706,0.47137 0.0033,0.009 0.03218,0.22685 0.02154,0.1153 -0.0072,-0.20485 7.94e-4,-0.40995 0.0038,-0.6148 0.0084,-0.33146 0.02043,-0.6628 0.03169,-0.99418 0.0095,-0.26453 0.02183,-0.52893 0.033,-0.79339 0.01593,-0.35365 0.03447,-0.70724 0.03712,-1.06134 0.0092,-0.50717 0.02265,-1.01424 0.04487,-1.52102 0.01669,-0.44459 0.0306,-0.88934 0.06082,-1.3333 0.02738,-0.44908 0.0574,-0.89799 0.08461,-1.34707 0.01288,-0.37838 0.01373,-0.75697 0.02109,-1.13549 0.0062,-0.36712 0.0141,-0.73421 0.01984,-1.10134 0.005,-0.39064 0.004,-0.78174 -0.02736,-1.17145 -0.03256,-0.34528 -0.08351,-0.6874 -0.156613,-1.02656 -0.0465,-0.27774 -0.08011,-0.55753 -0.10991,-0.83751 -0.03226,-0.31716 -0.06587,-0.63467 -0.07501,-0.95354 -0.006,-0.26897 -0.01109,-0.53798 -0.01138,-0.80703 -0.0024,-0.23825 -0.0097,-0.47646 -0.0047,-0.71474 0.0031,-0.4303 0.0041,-0.86074 -0.01183,-1.29085 -0.02148,-0.45328 -0.05114,-0.90744 -0.143084,-1.3529 -0.348731,-1.96491 -3.127528,-1.47173 -2.778797,0.49318 z"
       id="path2059"
       style="fill:#000000;fill-opacity:1;fill-rule:nonzero;stroke:none;stroke-width:0.264583" />
    <path
       d="m 4.5292576,261.85309 c 0.046204,0.38274 0.076191,0.76663 0.095414,1.15157 0.019132,0.4316 0.020114,0.86373 0.019696,1.29568 -0.00939,0.50114 -0.057155,1.00047 -0.086051,1.50071 -0.031658,0.59765 -0.033949,1.19629 -0.036796,1.79461 -0.00193,0.66593 -0.00119,1.33187 -9.261e-4,1.99781 0.00156,0.73377 -0.00196,1.46754 -0.012123,2.20125 -0.015454,0.72965 -0.029261,1.4593 -0.039218,2.18904 -0.010245,0.63052 -0.025516,1.26095 -0.040751,1.89136 -0.00998,0.45635 -0.022974,0.91262 -0.032666,1.36898 -0.00466,0.21351 -0.00859,0.42705 -0.01057,0.64061 -8.996e-4,0.16605 -0.01755,0.33163 -0.027995,0.49728 0.026778,-0.18379 -0.021595,0.24714 -0.011475,0.18589 0.1731711,-1.04817 -0.5458616,-0.0801 2.6020019,-0.61984 -1.0012828,-1.72624 -3.4425538,-0.31021 -2.4412712,1.41603 v 0 c 2.2687266,-0.32105 2.6048638,0.44391 2.6674452,-0.80562 0.013412,-0.2158 0.033968,-0.43146 0.033399,-0.64787 0.00183,-0.20227 0.00568,-0.40451 0.010057,-0.60674 0.00957,-0.45354 0.022614,-0.90701 0.032475,-1.36054 0.01547,-0.64031 0.030972,-1.28063 0.041312,-1.92103 0.00995,-0.7296 0.023879,-1.4591 0.039212,-2.1886 0.010279,-0.74707 0.014015,-1.4942 0.012393,-2.24135 -2.646e-4,-0.6611 -0.00101,-1.32221 8.995e-4,-1.98331 0.00259,-0.54871 0.00401,-1.09774 0.032169,-1.64588 0.031686,-0.55335 0.085909,-1.10571 0.090708,-1.6603 3.969e-4,-0.4803 -0.00127,-0.96081 -0.023297,-1.44071 -0.021706,-0.42474 -0.052904,-0.84869 -0.104,-1.27103 -0.185262,-1.98699 -2.9952965,-1.72499 -2.8100345,0.262 z"
       id="path2061"
       style="fill:#000000;fill-opacity:1;fill-rule:nonzero;stroke:none;stroke-width:0.264583" />
    <path
       d="m 6.3017119,261.22027 c -0.018013,0.36808 -0.010872,0.73684 -0.00953,1.10522 0.00156,0.461 0.00183,0.92201 0.00206,1.38302 3.44e-4,0.46385 -0.00108,0.92768 0.00265,1.39151 0.011144,0.57097 0.023503,1.14194 0.040192,1.71276 0.020585,0.66191 0.079844,1.32188 0.1431875,1.98083 0.065851,0.55464 0.1200674,1.10984 0.147555,1.66772 0.026135,0.59899 0.022283,1.19863 -0.01012,1.79719 -0.044429,0.62132 -0.094475,1.24222 -0.1413259,1.86337 -0.053567,0.69445 -0.095469,1.38973 -0.1317006,2.08529 -0.020857,0.53672 -0.045135,1.07307 -0.086699,1.60861 -0.033454,0.38887 -0.079083,0.77651 -0.1139526,1.16525 -0.1087101,1.27495 -0.1648637,0.39336 2.7496762,0.32433 -0.2463673,-1.98035 -3.0470001,-1.63193 -2.8006328,0.34841 v 0 c 2.9325937,0.15445 2.7427647,0.97675 2.8619447,-0.42118 0.035715,-0.40012 0.083893,-0.799 0.1167992,-1.19939 0.043033,-0.55913 0.070164,-1.119 0.091273,-1.67937 0.035018,-0.67368 0.075637,-1.34708 0.1275199,-2.01968 0.048458,-0.64245 0.1007211,-1.28462 0.1454203,-1.92733 0.035732,-0.69511 0.042548,-1.39135 0.010478,-2.08687 -0.030585,-0.60091 -0.084942,-1.19949 -0.1570072,-1.79688 -0.057552,-0.59648 -0.1120544,-1.19388 -0.131405,-1.79304 -0.016211,-0.55093 -0.02785,-1.102 -0.039074,-1.65306 -0.00378,-0.45662 -0.00209,-0.91326 -0.00254,-1.3699 -2.365e-4,-0.46398 -5.291e-4,-0.92795 -0.00209,-1.39193 -0.00111,-0.30356 -0.00653,-0.60737 0.00353,-0.91081 0.1301546,-1.99136 -2.6860587,-2.17543 -2.8162134,-0.18407 z"
       id="path2063"
       style="fill:#000000;fill-opacity:1;fill-rule:nonzero;stroke:none;stroke-width:0.264583" />
    <path
       d="m 2.8036369,262.15459 c 0.7674422,0.0786 1.5390177,0.0968 2.3097468,0.11268 1.0959246,0.0176 2.1920044,0.011 3.2879893,0.005 0.7945556,-0.005 1.5891226,-0.008 2.383694,-0.008 0.182089,4e-5 0.191253,10e-6 0.360597,1.5e-4 0.04106,3e-5 0.163689,0.007 0.123165,1.3e-4 -0.645027,-0.10472 0.492266,0.41081 -1.045115,-0.53853 1.165912,1.6196 3.456379,-0.0292 2.290468,-1.64885 v 0 c -0.300931,-0.19836 -0.581839,-0.43109 -0.902791,-0.59509 -0.163076,-0.0833 -0.627295,-0.0236 -0.827424,-0.04 -0.7993742,3.2e-4 -1.5987432,0.003 -2.3981005,0.008 -1.0715715,0.006 -2.1432337,0.0124 -3.2147496,-0.004 -0.69816,-0.0142 -1.3972103,-0.0288 -2.0924324,-0.0999 -1.9861126,-0.19448 -2.26116027,2.6143 -0.2750476,2.80879 z"
       id="path2065"
       style="fill:#000000;fill-opacity:1;fill-rule:nonzero;stroke:none;stroke-width:0.264583" />
    <path
       d="m 2.9663162,280.72044 c 0.7768683,0.0919 1.5634123,0.0287 2.3413119,-0.022 0.8089511,-0.0722 1.6190849,-0.12309 2.4302947,-0.16049 0.9241478,-0.0493 1.8491965,-0.0722 2.7744572,-0.0855 0.978363,-0.01 1.956756,-0.0165 2.934567,-0.0524 0.72493,-0.0292 1.446553,-0.10163 2.164343,-0.20497 0.676778,-0.10825 1.361718,-0.14257 2.045912,-0.15976 0.570569,-0.003 1.140955,0.0219 1.710445,0.0549 0.332867,0.0204 0.665814,0.0413 0.999213,0.0506 0.0032,2.4e-4 0.0065,5.3e-4 0.0097,8e-4 1.993508,0.0916 2.123072,-2.72763 0.129564,-2.81925 v 0 c -0.02148,-7.9e-4 -0.04296,-0.002 -0.06445,-0.003 -0.304216,-0.007 -0.607907,-0.0296 -0.91165,-0.0469 -0.647962,-0.0372 -1.296974,-0.0653 -1.946157,-0.0586 -0.794806,0.0212 -1.590237,0.0632 -2.376565,0.18787 -0.618386,0.0899 -1.240169,0.15194 -1.864793,0.17783 -0.956547,0.0357 -1.913739,0.0405 -2.870826,0.0507 -0.9550653,0.0138 -1.9099188,0.0376 -2.8638435,0.0882 -0.8292489,0.0383 -1.657518,0.0894 -2.4844372,0.1635 -0.5349074,0.0352 -1.0771857,0.0669 -1.610483,0.0694 -1.957825,-0.38651 -2.5044345,2.38227 -0.5466096,2.76878 z"
       id="path2071"
       style="fill:#000000;fill-opacity:1;fill-rule:nonzero;stroke:none;stroke-width:0.264583" />
    <path
       d="m 22.197762,278.17753 c 0.0088,-0.57285 0.0016,-1.14506 -0.03117,-1.71704 -0.03907,-0.46462 -0.06191,-0.93097 -0.151933,-1.38886 -0.49376,-1.93356 -3.228232,-1.23528 -2.734472,0.69828 v 0 c -0.007,-0.0473 -0.0082,-0.0958 -0.02087,-0.14195 -0.0095,-0.0347 0.0078,0.0715 0.01134,0.1073 0.02924,0.29676 0.0548,0.5939 0.07859,0.89114 0.03113,0.51172 0.03294,1.02379 0.02633,1.53633 -0.01046,1.99559 2.811721,2.01038 2.822183,0.0148 z"
       id="path2073"
       style="fill:#000000;fill-opacity:1;fill-rule:nonzero;stroke:none;stroke-width:0.264583" />
  </g>
</svg>
