<?xml version="1.0" encoding="UTF-8" standalone="no"?>
<svg
   xmlns:dc="http://purl.org/dc/elements/1.1/"
   xmlns:cc="http://creativecommons.org/ns#"
   xmlns:rdf="http://www.w3.org/1999/02/22-rdf-syntax-ns#"
   xmlns:svg="http://www.w3.org/2000/svg"
   xmlns="http://www.w3.org/2000/svg"
   xmlns:sodipodi="http://sodipodi.sourceforge.net/DTD/sodipodi-0.dtd"
   xmlns:inkscape="http://www.inkscape.org/namespaces/inkscape"
   width="64mm"
   height="64mm"
   viewBox="0 0 64 64"
   version="1.1"
   id="svg8"
   sodipodi:docname="js.svg"
   inkscape:version="1.0 (1.0+r73+1)">
  <defs
     id="defs2" />
  <sodipodi:namedview
     id="base"
     pagecolor="#ffffff"
     bordercolor="#666666"
     borderopacity="1.0"
     inkscape:pageopacity="0.0"
     inkscape:pageshadow="2"
     inkscape:zoom="3"
     inkscape:cx="100.74131"
     inkscape:cy="128.96633"
     inkscape:document-units="mm"
     inkscape:current-layer="layer1"
     showgrid="false"
     inkscape:snap-page="true"
     inkscape:window-width="1920"
     inkscape:window-height="1016"
     inkscape:window-x="0"
     inkscape:window-y="27"
     inkscape:window-maximized="1"
     inkscape:document-rotation="0" />
  <metadata
     id="metadata5">
    <rdf:RDF>
      <cc:Work
         rdf:about="">
        <dc:format>image/svg+xml</dc:format>
        <dc:type
           rdf:resource="http://purl.org/dc/dcmitype/StillImage" />
        <dc:title />
      </cc:Work>
    </rdf:RDF>
  </metadata>
  <g
     inkscape:label="Layer 1"
     inkscape:groupmode="layer"
     id="layer1"
     transform="translate(0,-233)">
    <rect
       style="fill:#ffffff;stroke-width:0.26458332;fill-opacity:1"
       id="rect3713"
       width="64"
       height="64"
       x="0"
       y="233" />
    <path
       style="fill:#2196f3;fill-opacity:1;fill-rule:nonzero;stroke:none;stroke-width:0.264583"
       id="path3507"
       d="m 8.0196501,267.17001 c -0.344412,0.42544 -0.745622,0.80273 -1.135048,1.18632 -0.811177,0.76199 -1.4430767,1.6784 -1.9173338,2.68284 -0.1313667,0.27823 -0.2433387,0.5652 -0.3650078,0.8478 -0.653787,1.70393 -1.1083669,3.48603 -1.3608958,5.29371 -0.05652,0.40459 -0.092477,0.81178 -0.1387152,1.21768 -0.16852,1.95334 -0.064547,3.92401 0.2491058,5.85795 0.059437,0.36648 0.1355314,0.73007 0.2032971,1.0951 0.3282135,1.51856 0.788512,3.02206 1.5060048,4.40553 0.091737,0.17688 0.1962203,0.34686 0.2943307,0.52029 0.082176,0.12514 0.1643513,0.25028 0.2465266,0.37542 1.1075156,1.66009 3.4552287,0.0938 2.3477136,-1.56626 v 0 c -0.04846,-0.0707 -0.09692,-0.14135 -0.145385,-0.21203 -0.727807,-1.24733 -1.171321,-2.63479 -1.475051,-4.04169 -0.06088,-0.32293 -0.129217,-0.64454 -0.18263,-0.96878 -0.279975,-1.6996 -0.3808983,-3.43227 -0.23935,-5.1503 0.03966,-0.35833 0.07019,-0.71779 0.118978,-1.07499 0.216462,-1.58492 0.609413,-3.14833 1.17241,-4.6453 0.219841,-0.52281 0.290302,-0.73175 0.553657,-1.21267 0.290574,-0.53063 0.673903,-0.99968 1.113115,-1.41396 0.5601301,-0.55203 1.1469139,-1.09519 1.5811259,-1.75606 1.018662,-1.71604 -1.4081858,-3.15664 -2.4268479,-1.4406 z" />
    <path
       style="fill:#2196f3;fill-opacity:1;fill-rule:nonzero;stroke:none;stroke-width:0.264583"
       id="path3509"
       d="m 13.317759,269.13321 c 0.406236,0.8278 0.909901,1.60467 1.373033,2.40152 0.641936,1.12895 1.21428,2.30492 1.606015,3.54612 0.08769,0.27783 0.157065,0.56111 0.235597,0.84167 0.380055,1.5359 0.511351,3.1202 0.453884,4.69938 -0.01183,0.32498 -0.0402,0.64915 -0.0603,0.97373 -0.138252,1.46683 -0.369817,2.94192 -0.883675,4.32961 -0.08461,0.2285 -0.187963,0.44961 -0.281945,0.67442 -0.429751,0.91791 -1.036094,1.74458 -1.850863,2.35337 -0.153559,0.0825 -0.08658,0.057 -0.194454,0.0918 -1.802724,0.85595 -0.592225,3.40539 1.210499,2.54944 v 0 c 0.464598,-0.23343 0.22296,-0.098 0.719552,-0.41582 0.143344,-0.11432 0.292229,-0.22203 0.430032,-0.34297 0.991318,-0.87007 1.747397,-1.96752 2.295215,-3.16211 0.118857,-0.29254 0.248871,-0.5808 0.356571,-0.87763 0.586096,-1.61535 0.862587,-3.32588 1.016215,-5.03097 0.02175,-0.37235 0.05297,-0.74426 0.06526,-1.11705 0.06089,-1.84803 -0.106964,-3.70074 -0.560843,-5.49525 -0.09713,-0.33884 -0.183809,-0.68085 -0.291387,-1.01651 -0.450406,-1.40537 -1.096939,-2.7398 -1.825576,-4.01983 -0.390543,-0.67145 -0.792148,-1.33696 -1.183245,-2.00776 -0.72465,-1.8594 -3.354233,-0.83459 -2.629582,1.02481 z" />
    <path
       style="fill:#2196f3;fill-opacity:1;fill-rule:nonzero;stroke:none;stroke-width:0.264583"
       id="path3511"
       d="m 23.310711,278.44941 c 1.455677,-0.0226 2.91142,-0.0254 4.367125,-0.006 0.920023,0.0364 0.499738,-0.002 1.262542,0.096 1.981422,0.23755 2.317369,-2.56461 0.335947,-2.80216 v 0 c -1.013659,-0.11525 -0.493194,-0.0748 -1.561815,-0.11579 -1.478224,-0.0191 -2.956483,-0.0168 -4.434676,0.006 -1.995493,0.0218 -1.964615,2.84389 0.03088,2.82206 z" />
    <path
       style="fill:#2196f3;fill-opacity:1;fill-rule:nonzero;stroke:none;stroke-width:0.264583"
       id="path3513"
       d="m 23.345861,283.80112 c 0.95182,-0.0481 1.893922,-0.20587 2.84198,-0.29704 0.303614,-0.0292 0.607917,-0.0507 0.911878,-0.0761 1.112115,-0.081 2.227329,-0.0878 3.34173,-0.0866 1.995612,0.002 1.99826,-2.82035 0.0026,-2.82222 v 0 c -1.194107,-9.3e-4 -2.389058,0.008 -3.580596,0.0965 -0.328284,0.0277 -0.65692,0.0516 -0.98485,0.0832 -0.855644,0.0826 -1.706026,0.21668 -2.563395,0.28022 -1.995494,0.0216 -1.96489,2.8437 0.03061,2.82206 z" />
    <path
       style="fill:#2196f3;fill-opacity:1;fill-rule:nonzero;stroke:none;stroke-width:0.264583"
       id="path3515"
       d="m 31.876311,275.79386 c 0.771755,0.37972 1.501415,0.83725 2.235721,1.28325 1.281644,0.77064 2.571827,1.52664 3.835236,2.32708 0.248843,0.16131 0.50237,0.31688 0.729631,0.50816 1.555742,1.24985 3.323301,-0.9503 1.767559,-2.20015 v 0 c -0.316166,-0.2491 -0.642715,-0.48295 -0.987157,-0.69227 -1.278575,-0.8095 -2.582985,-1.57607 -3.880247,-2.35501 -0.809805,-0.4918 -1.615977,-0.99358 -2.46825,-1.40994 -1.795259,-0.8715 -3.027752,1.66737 -1.232493,2.53888 z" />
    <path
       style="fill:#2196f3;fill-opacity:1;fill-rule:nonzero;stroke:none;stroke-width:0.264583"
       id="path3517"
       d="m 34.604805,286.96343 c 1.286719,-0.77065 2.360843,-1.82962 3.415168,-2.88253 1.03913,-1.08889 2.016053,-2.23556 2.93651,-3.42599 1.219753,-1.57945 -1.013931,-3.30444 -2.233684,-1.72499 v 0 c -0.845815,1.09676 -1.746292,2.15105 -2.699361,3.15629 -0.881251,0.88431 -1.77223,1.78336 -2.843081,2.44085 -1.72277,1.00724 -0.298325,3.44361 1.424448,2.43637 z" />
    <path
       style="fill:#2196f3;fill-opacity:1;fill-rule:nonzero;stroke:none;stroke-width:0.264583"
       id="path3527"
       d="m 48.655503,267.0151 c -0.537671,0.15799 -1.058823,0.35578 -1.570038,0.5847 -0.779044,0.38383 -1.458732,0.93664 -1.97294,1.63858 -0.102864,0.14042 -0.19151,0.29072 -0.287266,0.43608 -0.453781,0.78613 -0.737893,1.65496 -0.874149,2.55094 -0.0283,0.18613 -0.04391,0.37397 -0.06586,0.56096 -0.12024,1.26222 0.207774,2.36836 0.616217,3.54208 0.146415,0.41312 0.303998,0.82227 0.451448,1.23501 0.07899,0.22112 0.10459,0.25719 0.05301,0.1763 0.421352,1.95063 3.179951,1.35475 2.758599,-0.59588 v 0 c -0.149288,-0.5985 -0.396221,-1.165 -0.598937,-1.74676 -0.26099,-0.74253 -0.536752,-1.49698 -0.47552,-2.29785 0.0677,-0.65918 0.190664,-1.31283 0.511133,-1.9017 0.272714,-0.45059 0.569867,-0.78528 1.048652,-1.02693 0.428689,-0.19749 0.871876,-0.35006 1.323443,-0.48671 1.887141,-0.64898 0.969346,-3.3178 -0.917794,-2.66882 z" />
    <path
       style="fill:#2196f3;fill-opacity:1;fill-rule:nonzero;stroke:none;stroke-width:0.264583"
       id="path3529"
       d="m 45.992061,277.1598 c -0.701931,0.4448 -1.341337,0.97973 -1.96964,1.52125 -0.512233,0.45811 -1.006015,0.93902 -1.451382,1.46294 -0.150101,0.19514 -0.07492,0.0894 -0.222793,0.3191 -1.017413,1.71678 1.410483,3.15562 2.427896,1.43884 v 0 c -0.01667,0.0229 -0.03334,0.0458 -0.05001,0.0687 5.29e-4,-0.002 0.0011,-0.004 0.0019,-0.007 0.344945,-0.41438 0.742333,-0.7828 1.138711,-1.14675 0.494744,-0.42788 0.99767,-0.84888 1.540256,-1.2156 1.72674,-1.00042 0.311936,-3.4424 -1.414804,-2.44198 z" />
    <path
       style="fill:#2196f3;fill-opacity:1;fill-rule:nonzero;stroke:none;stroke-width:0.264583"
       id="path3531"
       d="m 42.587165,282.40606 c 0.840224,0.35724 1.699868,0.66834 2.556293,0.9844 0.56043,0.20514 1.126876,0.39334 1.683935,0.60759 1.863402,0.71429 2.87355,-1.92096 1.010148,-2.63524 v 0 c -0.568537,-0.21734 -1.144792,-0.41302 -1.717109,-0.62008 -0.775602,-0.28614 -1.552276,-0.57113 -2.317665,-0.88368 -1.801006,-0.85956 -3.01661,1.68744 -1.215602,2.54701 z" />
    <path
       style="fill:#2196f3;fill-opacity:1;fill-rule:nonzero;stroke:none;stroke-width:0.264583"
       id="path3533"
       d="m 46.500913,282.7644 c -0.187909,0.5566 -0.377145,1.11271 -0.568624,1.6681 -0.393139,1.08477 -0.648898,2.20972 -0.881483,3.33754 -0.175247,0.9097 -0.319,1.84285 -0.216921,2.77155 0.07844,0.7136 0.150259,0.80562 0.378537,1.4865 0.126452,0.23725 0.232296,0.48669 0.379359,0.71174 0.486812,0.74496 1.16523,1.28681 1.970111,1.65678 0.556943,0.25599 0.884087,0.30994 1.460164,0.45119 0.165669,0.0321 0.331341,0.0643 0.49701,0.0964 1.960006,0.37529 2.490753,-2.39658 0.530746,-2.77187 v 0 c -0.127815,-0.0241 -0.255627,-0.0481 -0.38344,-0.0722 -0.46492,-0.10074 -1.014505,-0.20466 -1.394785,-0.51606 -0.20437,-0.16735 -0.261522,-0.29248 -0.403233,-0.5104 -0.04417,-0.10639 -0.09773,-0.20936 -0.132503,-0.31919 -0.248476,-0.78473 -0.05534,-1.63055 0.07921,-2.41534 0.207359,-1.00914 0.432038,-2.01665 0.785331,-2.98675 0.191804,-0.55633 0.381405,-1.11338 0.569605,-1.67094 0.648436,-1.88733 -2.020646,-2.80435 -2.669082,-0.91703 z" />
    <path
       style="fill:#2196f3;fill-opacity:1;fill-rule:nonzero;stroke:none;stroke-width:0.264583"
       id="path3535"
       d="m 54.931522,269.96885 c 0.445847,0.0624 0.854639,0.17199 1.243013,0.40227 0.459168,0.30804 0.606319,0.72392 0.737314,1.23724 0.09029,0.43139 0.116928,0.87309 0.02426,1.30663 -0.05482,0.25649 -0.103355,0.34943 -0.19979,0.5941 -0.289412,0.66137 -0.749747,1.21296 -1.238679,1.73438 -0.570579,0.54695 -1.078989,1.14504 -1.522171,1.79855 -0.05645,0.0889 -0.11289,0.17787 -0.169336,0.2668 -1.066369,1.68681 1.319138,3.19489 2.385509,1.50808 v 0 c 0.04192,-0.0667 0.08385,-0.13334 0.125773,-0.20001 0.355081,-0.5349 0.785839,-1.00363 1.246185,-1.45072 0.746511,-0.80666 1.411597,-1.66059 1.824582,-2.6914 0.06888,-0.19733 0.148887,-0.39113 0.20665,-0.59199 0.288005,-1.00149 0.272526,-2.04611 0.02928,-3.05447 -0.155863,-0.51346 -0.189955,-0.71183 -0.443706,-1.19357 -0.385091,-0.73107 -0.958654,-1.3179 -1.662282,-1.74548 -0.155305,-0.0809 -0.306753,-0.16964 -0.465918,-0.24262 -0.518988,-0.23796 -1.07882,-0.3636 -1.638816,-0.45857 -1.966306,-0.34074 -2.448189,2.44004 -0.481883,2.78078 z" />
    <path
       style="fill:#2196f3;fill-opacity:1;fill-rule:nonzero;stroke:none;stroke-width:0.264583"
       id="path3537"
       d="m 54.570014,280.01956 c 0.502261,0.26243 0.972537,0.5799 1.440035,0.89866 0.682418,0.50654 1.396494,0.97045 2.079244,1.47616 -0.01701,-0.0102 -0.03401,-0.0204 -0.05101,-0.0305 1.426657,1.39539 3.400042,-0.6222 1.973385,-2.0176 v 0 c -0.08343,-0.0751 -0.166855,-0.15029 -0.250283,-0.22543 -0.713603,-0.52223 -1.450364,-1.01308 -2.163704,-1.53592 -0.647301,-0.43963 -1.300504,-0.88554 -2.019414,-1.20132 -1.863916,-0.71295 -2.872171,1.92302 -1.008256,2.63597 z" />
    <path
       style="fill:#2196f3;fill-opacity:1;fill-rule:nonzero;stroke:none;stroke-width:0.264583"
       id="path3539"
       d="m 58.718982,280.03783 c -0.723569,0.38782 -1.371512,0.90393 -2.032809,1.38731 -0.564044,0.41206 -1.126075,0.82695 -1.678292,1.25478 -1.577189,1.22268 0.151942,3.45316 1.729132,2.23048 v 0 c 0.530947,-0.4119 1.072287,-0.81011 1.614619,-1.20684 0.502516,-0.36733 1.00235,-0.73903 1.517497,-1.0885 1.822373,-0.81327 0.672229,-3.3905 -1.150147,-2.57723 z" />
    <path
       style="fill:#2196f3;fill-opacity:1;fill-rule:nonzero;stroke:none;stroke-width:0.264583"
       id="path3541"
       d="m 54.509411,285.25444 c 0.504611,0.39502 1.011071,0.78686 1.501921,1.19908 0.340061,0.28374 0.663117,0.58804 0.786508,1.02312 0.05364,0.24476 0.06253,0.49604 0.06308,0.7457 -0.0065,0.1779 0.0088,0.3549 0.02331,0.53191 0.0062,0.0752 0.02048,0.0866 -0.0027,0.0632 -0.05977,0.23075 -0.153095,0.44887 -0.252981,0.66492 -0.236926,0.47394 -0.487677,0.94192 -0.766458,1.39267 -0.207399,0.30405 -0.420746,0.61602 -0.712655,0.84567 -0.102802,0.0748 -0.208749,0.0606 -0.326419,0.0605 -0.06161,0.002 -0.123209,0.005 -0.184812,0.007 -1.993834,0.0842 -1.874702,2.90395 0.119131,2.81971 v 0 c 0.08217,-0.004 0.164352,-0.007 0.246529,-0.0107 0.305591,-0.0247 0.410823,-0.0217 0.718052,-0.0974 0.463426,-0.11424 0.888445,-0.33989 1.261518,-0.63445 0.500912,-0.43973 0.931272,-0.94669 1.283644,-1.51395 0.338072,-0.55339 0.650235,-1.12293 0.932987,-1.70662 0.247309,-0.55422 0.46559,-1.12554 0.502261,-1.73816 0.0013,-0.23592 -0.01799,-0.4673 -0.01929,-0.70245 -0.005,-0.57391 -0.05338,-1.1492 -0.234913,-1.69783 -0.05373,-0.13792 -0.0995,-0.2792 -0.161179,-0.41376 -0.328652,-0.71704 -0.863843,-1.29883 -1.461984,-1.80175 -0.478912,-0.40126 -0.967451,-0.79018 -1.465252,-1.16778 -1.506847,-1.30839 -3.357189,0.82261 -1.850342,2.131 z" />
    <path
       style="fill:#2196f3;fill-opacity:1;fill-rule:nonzero;stroke:none;stroke-width:0.264583"
       id="path4917"
       d="m 26.431399,254.62418 c -0.107275,0.006 -0.216606,-0.004 -0.321823,0.0176 -0.393812,0.0813 -0.853542,0.23054 -1.094852,0.59278 -0.43822,0.65783 -0.51471,1.24395 -0.06586,1.93069 0.162744,0.249 0.46579,0.37012 0.698684,0.55518 0.218919,0.0506 0.432698,0.13497 0.656757,0.1518 0.904338,0.0679 1.864112,-0.5432 2.072803,-1.45443 0.06283,-0.27433 0.0027,-0.56285 0.004,-0.84427 -0.13919,-0.25686 -0.207189,-0.56787 -0.41757,-0.77058 -0.693351,-0.66807 -1.551373,-0.65152 -2.305756,-0.15498 -0.343705,0.22624 -0.426724,0.41952 -0.6473,0.74843 -0.241198,0.86794 -0.572075,1.43238 0.887815,2.12503 0.786698,0.37325 1.532113,-0.35639 1.781978,-0.95024 0.08068,-0.19176 0.06915,-0.41029 0.103727,-0.61543 -0.02229,-1.99548 -2.844338,-1.96396 -2.822046,0.0315 v 0 c 0.03507,-0.16074 0.03353,-0.33414 0.105216,-0.48223 0.246836,-0.50993 0.962759,-1.05238 1.602765,-0.69831 1.36089,0.75288 1.085962,1.1564 0.818023,1.94133 -0.04767,0.0564 -0.08866,0.11916 -0.14302,0.16912 -0.09607,0.0883 -0.309968,0.1741 -0.421041,0.18136 -0.466025,0.0304 -0.767635,-0.0622 -1.09733,-0.45216 -0.124681,-0.14747 -0.144279,-0.35827 -0.21642,-0.5374 0.02255,-0.17165 0.0092,-0.35198 0.06763,-0.51494 0.04812,-0.13419 0.142822,-0.25056 0.243161,-0.35183 0.16694,-0.16849 0.439615,-0.24189 0.667282,-0.1779 0.09876,0.0277 0.190491,0.0762 0.285737,0.11428 0.1414,0.14091 0.335721,0.24379 0.4242,0.42274 0.116877,0.23639 0.198995,0.51147 0.167141,0.77324 -0.07112,0.58449 -0.558501,1.11467 -1.159873,1.06903 1.993624,0.0891 2.1196,-2.73034 0.125977,-2.81942 z" />
    <path
       style="fill:#2196f3;fill-opacity:1;fill-rule:nonzero;stroke:none;stroke-width:0.264583"
       id="path4919"
       d="m 34.116429,244.7709 c 0.02951,0.12569 0.05377,0.25272 0.08853,0.37705 0.152617,0.5459 0.361168,1.07723 0.52319,1.62057 0.248892,0.83465 0.252022,0.89732 0.465632,1.77175 0.430549,1.95058 0.588186,3.9515 0.535075,5.94662 -0.01267,0.47626 -0.04671,0.95172 -0.07007,1.42758 -0.15003,1.91016 -0.431818,3.81843 -0.958893,5.66386 -0.314753,1.10202 -0.438364,1.33466 -0.85664,2.37636 -0.497653,1.07133 -1.087407,2.1497 -2.122028,2.79076 -0.469728,0.29105 -0.765466,0.35223 -1.289034,0.52381 -1.052591,0.25098 -2.149462,0.28251 -3.190298,-0.0502 -0.591442,-0.18907 -0.724255,-0.31521 -1.225787,-0.63342 -1.715204,-1.02007 -3.157802,1.4056 -1.442598,2.42566 v 0 c 0.881067,0.50405 1.074549,0.68274 2.083612,0.96874 1.166632,0.33066 2.403915,0.3809 3.599057,0.1965 0.376766,-0.0581 0.74454,-0.1643 1.116809,-0.24645 0.928534,-0.3435 1.281356,-0.4095 2.112,-0.9814 1.417647,-0.97605 2.286137,-2.41208 2.980118,-3.94953 0.480055,-1.21342 0.612617,-1.46104 0.973373,-2.73882 0.571582,-2.02451 0.879522,-4.11611 1.039284,-6.21044 0.02445,-0.51927 0.06078,-1.03811 0.07332,-1.55781 0.05362,-2.22331 -0.13082,-4.45206 -0.616341,-6.62419 -0.08514,-0.34575 -0.1644,-0.693 -0.255423,-1.03725 -0.159098,-0.60168 -0.302279,-1.05844 -0.490556,-1.64093 -0.085,-0.26296 -0.160801,-0.52941 -0.261674,-0.78671 -0.0021,-0.006 -0.0071,0.01 -0.01058,0.0149 -0.249647,-1.97993 -3.049701,-1.62688 -2.800053,0.35306 z" />
    <path
       style="fill:#2196f3;fill-opacity:1;fill-rule:nonzero;stroke:none;stroke-width:0.264583"
       id="path4921"
       d="m 33.820434,238.75355 c -0.08386,0.12793 -0.188388,0.24449 -0.251584,0.38379 -0.32832,0.72369 -0.25971,1.50189 0.311491,2.09788 0.462875,0.48296 0.747871,0.45297 1.337175,0.56782 0.220413,-0.0331 0.460378,-0.003 0.661244,-0.0994 0.968197,-0.46564 1.183566,-0.96506 0.909148,-2.15729 -0.09807,-0.42607 -0.736054,-0.77032 -1.109279,-0.92679 -0.13384,-0.0561 -0.27753,-0.085 -0.416292,-0.12751 -0.838197,-0.0733 -0.362067,-0.1059 -1.406358,0.2684 -1.623477,1.16052 0.01775,3.45646 1.641217,2.29594 v 0 c -0.808981,0.23325 -0.484722,0.26485 -0.963851,0.16211 0.04434,-0.0249 0.01741,-0.001 -0.03046,-0.0719 -0.09626,-0.1418 -0.275353,-0.25816 -0.282838,-0.42938 -0.01929,-0.44108 0.0071,-0.91455 0.206868,-1.30826 0.237966,-0.46893 0.625831,-0.41621 0.999027,-0.42052 0.259821,0.0992 0.3854,0.1115 0.569602,0.37832 0.272433,0.39463 0.268486,0.91631 -0.06577,1.26171 1.325821,-1.49153 -0.783522,-3.36653 -2.109343,-1.875 z" />
    <path
       style="fill:#2196f3;fill-opacity:1;fill-rule:nonzero;stroke:none;stroke-width:0.264583"
       id="path4923"
       d="m 54.001967,239.64512 c -0.732353,-0.31767 -1.550014,-0.31794 -2.32668,-0.18768 -0.235571,0.0395 -0.46677,0.10171 -0.700153,0.15256 -1.307669,0.35975 -2.47237,1.07337 -3.440994,2.01695 -0.182162,0.17745 -0.347912,0.37102 -0.521866,0.55652 -0.630346,0.76038 -1.162452,1.65304 -1.17433,2.67431 -0.0085,0.72952 0.11534,0.92011 0.33913,1.5853 0.127233,0.23032 0.238204,0.4704 0.381699,0.69096 0.745437,1.14575 1.888738,2.01334 2.961544,2.82991 1.052486,0.812 2.243331,1.44358 3.243228,2.32492 0.143949,0.12688 0.275905,0.26675 0.413856,0.40013 0.09956,0.12375 0.212437,0.23787 0.29867,0.37124 0.237831,0.36784 0.394147,0.97839 0.337568,1.41608 -0.01122,0.0868 -0.04414,0.16933 -0.06621,0.25399 -0.03599,0.0634 -0.06449,0.1317 -0.107976,0.19022 -0.315606,0.4247 -1.005589,0.5278 -1.476227,0.63136 -1.617343,0.25859 -3.257569,0.10155 -4.872472,-0.0889 -0.782428,-0.0903 -1.548423,-0.27774 -2.325269,-0.40124 -0.196763,-0.0313 -0.394941,-0.0529 -0.59241,-0.0793 -1.978677,-0.25944 -2.345582,2.53883 -0.366906,2.79827 v 0 c 0.991512,0.12642 1.964063,0.36319 2.956647,0.48541 1.948551,0.22629 3.927605,0.39276 5.871573,0.0271 0.690877,-0.17928 1.05119,-0.22856 1.684893,-0.56574 0.761138,-0.40498 1.379315,-1.00162 1.751272,-1.78596 0.11616,-0.24495 0.176181,-0.51276 0.264274,-0.76915 0.03315,-0.26358 0.09042,-0.52524 0.09945,-0.79075 0.03784,-1.11348 -0.353994,-2.23014 -0.993511,-3.13211 -0.153598,-0.21664 -0.345424,-0.40346 -0.518136,-0.60519 -0.195405,-0.18375 -0.383659,-0.37542 -0.586216,-0.55125 -1.028155,-0.89255 -2.222191,-1.5638 -3.309678,-2.37695 -0.876824,-0.66356 -1.791908,-1.3385 -2.40798,-2.26618 -0.03531,-0.0679 -0.06913,-0.13661 -0.105931,-0.20373 -0.02066,-0.0377 -0.0538,-0.0694 -0.06636,-0.11051 -0.11708,-0.38286 0.246156,-0.76125 0.438026,-1.03619 0.115682,-0.12775 0.225836,-0.26073 0.347046,-0.38326 0.608975,-0.61555 1.338611,-1.10461 2.171813,-1.35475 0.381304,-0.0937 0.807974,-0.21989 1.204645,-0.15909 1.808223,0.84428 3.002203,-1.71294 1.19398,-2.55721 z" />
  </g>
</svg>
