<?xml version="1.0" encoding="UTF-8" standalone="no"?>
<!-- Created with Inkscape (http://www.inkscape.org/) -->

<svg
   xmlns:dc="http://purl.org/dc/elements/1.1/"
   xmlns:cc="http://creativecommons.org/ns#"
   xmlns:rdf="http://www.w3.org/1999/02/22-rdf-syntax-ns#"
   xmlns:svg="http://www.w3.org/2000/svg"
   xmlns="http://www.w3.org/2000/svg"
   xmlns:sodipodi="http://sodipodi.sourceforge.net/DTD/sodipodi-0.dtd"
   xmlns:inkscape="http://www.inkscape.org/namespaces/inkscape"
   width="64mm"
   height="64mm"
   viewBox="0 0 64 64"
   version="1.1"
   id="svg8"
   sodipodi:docname="life.svg"
   inkscape:version="0.92.5 (2060ec1f9f, 2020-04-08)">
  <defs
     id="defs2" />
  <sodipodi:namedview
     id="base"
     pagecolor="#ffffff"
     bordercolor="#666666"
     borderopacity="1.0"
     inkscape:pageopacity="0.0"
     inkscape:pageshadow="2"
     inkscape:zoom="3"
     inkscape:cx="13.493015"
     inkscape:cy="110.27027"
     inkscape:document-units="mm"
     inkscape:current-layer="layer1"
     showgrid="false"
     inkscape:snap-page="true"
     inkscape:window-width="1920"
     inkscape:window-height="1016"
     inkscape:window-x="0"
     inkscape:window-y="27"
     inkscape:window-maximized="1" />
  <metadata
     id="metadata5">
    <rdf:RDF>
      <cc:Work
         rdf:about="">
        <dc:format>image/svg+xml</dc:format>
        <dc:type
           rdf:resource="http://purl.org/dc/dcmitype/StillImage" />
        <dc:title />
      </cc:Work>
    </rdf:RDF>
  </metadata>
  <g
     inkscape:label="Layer 1"
     inkscape:groupmode="layer"
     id="layer1"
     transform="translate(0,-233)">
    <rect
       style="fill:#673ab7;stroke-width:0.26458332;fill-opacity:1"
       id="rect3713"
       width="64"
       height="64"
       x="0"
       y="233" />
    <path
       style="fill:#ffffff;fill-opacity:1;fill-rule:nonzero;stroke:none;stroke-width:0.26458332"
       id="path4704"
       d="m 6.7470969,240.18322 c -0.030238,0.0718 -0.051805,0.14568 -0.066931,0.22191 -0.019508,0.10572 -0.028393,0.21298 -0.036467,0.32005 -0.011642,0.1719 -0.01511,0.34421 -0.018537,0.51642 0.00228,0.28759 -0.024376,0.57403 -0.042889,0.86073 -0.014242,0.34433 -0.047415,0.68738 -0.071795,1.03106 -0.043582,0.4169 -0.070256,0.8352 -0.1058249,1.25277 -0.03716,0.46335 -0.077128,0.92642 -0.1164899,1.38959 -0.032305,0.47889 -0.065852,0.95762 -0.1005555,1.43636 -0.033594,0.4708 -0.051818,0.94247 -0.06594,1.41419 -0.013316,0.47227 -0.01927,0.9447 -0.024254,1.41711 -0.00445,0.45599 -0.00645,0.912 -0.00809,1.36801 -0.00143,0.42504 -0.00209,0.85009 -0.00265,1.27514 -4.497e-4,0.38177 -6.879e-4,0.76354 -8.466e-4,1.14531 -1.445e-4,0.32539 -2.186e-4,0.65078 -2.646e-4,0.97617 -0.00293,0.22054 0.021212,0.4404 0.037297,0.66016 0.0152,0.20903 0.025072,0.4184 0.033506,0.6278 -0.00254,-0.0878 0.042608,0.21955 0.043488,0.22508 0.012628,0.083 0.02382,0.16629 0.034785,0.24957 0.010067,0.0699 0.015425,0.14036 0.019714,0.21083 0.00497,0.16196 0.00209,-0.21525 -0.038693,-0.23859 -1.6041351,-0.91796 -2.6597014,-0.72104 -1.6864306,-1.03606 0.085218,-0.0152 0.1699104,-0.0338 0.255655,-0.0457 0.4178898,-0.0581 -0.4046524,0.10718 -0.3891581,0.0994 0.050045,-0.0251 0.104264,-0.0409 0.1565203,-0.061 0.0249,-0.008 0.098905,-0.0333 0.074698,-0.0235 -0.036826,0.0148 -0.074205,0.0288 -0.1126289,0.0388 -0.023138,0.006 0.04431,-0.018 0.066542,-0.0268 0.024813,-0.01 0.2434053,-0.0826 0.1346346,-0.0496 0.099669,-0.0359 0.2066806,-0.087 0.3257822,-0.13925 0.2138424,-0.0893 0.4279601,-0.17768 0.6423385,-0.26573 0.3048169,-0.11951 0.6143069,-0.22619 0.921939,-0.33804 0.3916802,-0.13733 0.7913971,-0.24866 1.1923374,-0.35503 0.452316,-0.115 0.9103556,-0.20547 1.3713642,-0.27736 0.4513974,-0.0787 0.906269,-0.13285 1.3624,-0.17456 0.453053,-0.046 0.907653,-0.0535 1.362535,-0.0474 0.34622,0.007 0.692423,0.0138 1.038662,0.0192 0.286184,-0.004 0.571059,0.0199 0.855492,0.0482 0.125863,0.0128 0.251637,0.0264 0.377393,0.0402 0.146008,0.0161 0.04316,0.003 -0.310778,0.008 1.973597,-0.2956 2.391647,2.49549 0.41805,2.79109 v 0 c -0.394521,0.0104 -0.256764,0.0242 -0.415273,0.007 -0.116492,-0.0128 -0.233001,-0.0254 -0.349589,-0.0373 -0.206229,-0.0206 -0.411999,-0.0411 -0.619711,-0.0346 -0.344437,-0.005 -0.688841,-0.0126 -1.033257,-0.0192 -0.35674,-0.005 -0.713007,-0.002 -1.068318,0.0361 -0.397714,0.0358 -0.7940951,0.084 -1.1875311,0.15317 -0.3624757,0.055 -0.7220428,0.12774 -1.0779021,0.216 -0.3200207,0.0848 -0.639441,0.17203 -0.9526651,0.27989 -0.2712797,0.0984 -0.5438934,0.19288 -0.8134157,0.29608 -0.1934853,0.0794 -0.3868952,0.15864 -0.5798584,0.2392 -0.1459064,0.064 -0.2908438,0.13066 -0.4401537,0.18649 -0.1928426,0.0709 -0.013817,0.003 -0.2937238,0.10812 -0.0078,0.003 0.015764,-0.005 0.023646,-0.008 0.2209638,-0.09 0.058747,-0.0161 0.02673,-0.009 -0.1760524,0.0411 -0.3545184,0.0716 -0.5299602,0.11516 -0.028988,0.007 0.059905,-10e-4 0.089427,-0.006 0.076089,-0.0117 0.1512806,-0.0286 0.226921,-0.043 0.9256009,-0.3087 -0.2470073,-0.14221 -1.7982282,-0.99071 -0.060724,-0.0332 -0.025969,-0.13601 -0.036468,-0.20442 -0.00308,-0.0201 -0.00498,-0.0555 -0.00646,-0.0818 -0.00291,-0.0499 0.00843,0.0677 -6.615e-4,-0.0119 -0.00796,-0.0605 -0.016028,-0.12099 -0.024958,-0.18136 -0.027332,-0.18241 -0.06775,-0.36321 -0.07517,-0.54822 -0.00716,-0.17855 -0.01537,-0.35707 -0.028266,-0.53531 -0.021071,-0.28842 -0.04946,-0.57699 -0.044814,-0.86652 5.95e-5,-0.32567 1.336e-4,-0.65133 2.91e-4,-0.977 1.823e-4,-0.38252 3.969e-4,-0.76504 8.467e-4,-1.14756 5.556e-4,-0.42723 0.00122,-0.85446 0.00266,-1.28169 0.00167,-0.46256 0.0037,-0.92513 0.00823,-1.38768 0.00519,-0.49073 0.011454,-0.98147 0.025371,-1.47204 0.015417,-0.51157 0.035471,-1.02307 0.072063,-1.53363 0.035597,-0.49042 0.069576,-0.98084 0.1033158,-1.47138 0.039516,-0.46409 0.079562,-0.92808 0.116727,-1.39236 0.035186,-0.4037 0.058939,-0.80839 0.1025694,-1.21139 0.024154,-0.33763 0.056651,-0.67462 0.070561,-1.01291 0.015909,-0.2449 0.040575,-0.48933 0.037555,-0.735 0.0046,-0.22655 0.00993,-0.45321 0.02652,-0.67926 0.019246,-0.24174 0.044804,-0.48341 0.096889,-0.72063 0.056575,-0.24357 0.1271175,-0.4834 0.2261454,-0.7135 0.7861102,-1.83425 3.3801418,-0.72253 2.5940316,1.11173 z"
       inkscape:connector-curvature="0" />
    <path
       style="fill:#ffffff;fill-opacity:1;fill-rule:nonzero;stroke:none;stroke-width:0.26458332"
       id="path4706"
       d="m 21.784027,247.56486 c 0.0019,0.20045 -0.02934,0.39896 -0.04654,0.59821 -0.01128,0.21857 -0.03374,0.43598 -0.05832,0.6534 -0.02024,0.24729 -0.05725,0.49268 -0.08467,0.73919 -0.04524,0.29079 -0.07539,0.58345 -0.112236,0.8753 -0.03979,0.28062 -0.06635,0.56271 -0.08677,0.84531 -0.01816,0.26819 -0.0271,0.53686 -0.03441,0.80552 -0.01184,0.19806 -0.0066,0.39464 0.0081,0.59208 0.01052,0.15022 0.04112,0.29846 0.06462,0.4472 9.4e-5,-0.004 -0.002,-0.0146 2.91e-4,-0.0115 0.02602,0.035 0.05232,0.20357 0.06247,0.24663 0.448996,1.94445 -2.300866,2.57942 -2.749863,0.63498 v 0 c -0.03077,-0.14387 -0.07964,-0.28366 -0.100563,-0.42979 -0.03571,-0.22623 -0.07823,-0.45202 -0.09161,-0.68103 -0.02115,-0.29164 -0.0288,-0.58333 -0.01459,-0.87559 0.0085,-0.31135 0.01931,-0.6227 0.04081,-0.93348 0.02449,-0.33416 0.05578,-0.66779 0.102295,-0.9997 0.03648,-0.27687 0.06141,-0.55529 0.106904,-0.83102 0.02798,-0.24716 0.06436,-0.49322 0.0849,-0.74117 0.02195,-0.19407 0.04171,-0.38759 0.05124,-0.58281 0.0088,-0.0994 0.01815,-0.19868 0.02971,-0.29782 0.0016,-0.0138 -0.0047,-0.0513 0.005,-0.0414 0.01107,0.0114 -2.65e-4,0.0634 10e-4,0.0476 0.0016,-0.02 0,-0.04 0,-0.0601 0,-1.99561 2.822222,-1.99561 2.822222,0 z"
       inkscape:connector-curvature="0" />
    <path
       style="fill:#ffffff;fill-opacity:1;fill-rule:nonzero;stroke:none;stroke-width:0.26458332"
       id="path4708"
       d="m 29.699611,243.21276 c 0.05118,-0.18404 0.107572,-0.36667 0.165441,-0.54873 0.04787,-0.16109 0.104267,-0.31939 0.150077,-0.48111 0.03479,-0.1237 0.08779,-0.24132 0.12074,-0.36541 0.04306,-0.14214 0.101235,-0.27871 0.158364,-0.41553 0.01511,-0.0361 0.03032,-0.0722 0.04554,-0.10834 0.371452,-0.88074 0.07853,-0.15697 2.700483,0.76742 0.0063,0.002 -0.02934,0.14857 -0.04003,0.19328 -0.003,0.0125 -0.0063,0.0249 -0.0092,0.0375 -0.0032,0.0141 0.01307,-0.0562 0.01003,-0.0421 -0.0063,0.0294 -0.03736,0.17256 -0.0509,0.23081 -0.036,0.17572 -0.0716,0.35164 -0.105881,0.52779 -0.06734,0.32431 -0.143285,0.64668 -0.219091,0.96909 -0.08986,0.44657 -0.198683,0.88894 -0.296113,1.33382 -0.128302,0.60041 -0.259509,1.20019 -0.393494,1.79936 -0.162078,0.69186 -0.297135,1.38947 -0.439354,2.08556 -0.149299,0.72343 -0.283366,1.44991 -0.414284,2.17686 -0.115517,0.6712 -0.2276,1.34307 -0.323967,2.01731 -0.07049,0.56629 -0.138057,1.13305 -0.195688,1.70082 -0.04296,0.39707 -0.04327,0.79713 -0.04632,1.19603 0.0049,0.2346 -0.0011,0.47472 0.03564,0.70734 0.0088,0.0974 0.02207,0.12651 0.04904,0.20408 -0.128183,-0.38521 -0.43406,-0.6257 -0.80866,-0.76874 -0.08382,-0.032 -0.175842,-0.0357 -0.263763,-0.0536 -0.177503,0.0184 -0.362759,1e-4 -0.532513,0.0551 -0.393769,0.12768 -0.668555,0.42667 -0.777571,0.6373 -0.02553,0.0736 -0.05106,0.1473 -0.07658,0.22095 0.408911,-1.95327 3.171251,-1.37498 2.76234,0.57829 v 0 c -0.03318,0.11017 -0.06635,0.22034 -0.09952,0.33051 -0.196442,0.42767 -0.47407,0.7579 -0.946848,0.92036 -0.18269,0.0628 -0.383609,0.0459 -0.575413,0.0689 -0.103847,-0.0193 -0.21209,-0.0222 -0.311539,-0.0578 -0.52813,-0.1889 -0.847707,-0.51686 -1.043866,-1.02854 -0.08352,-0.25001 -0.148183,-0.50552 -0.176922,-0.76814 -0.03948,-0.35434 -0.06031,-0.71129 -0.05595,-1.06793 0.0038,-0.48697 0.0079,-0.97503 0.06072,-1.4597 0.06175,-0.60605 0.133347,-1.21113 0.209727,-1.81549 0.101581,-0.7076 0.218318,-1.41292 0.340127,-2.1173 0.134818,-0.74858 0.273069,-1.49665 0.426731,-2.24162 0.145716,-0.7131 0.284395,-1.42771 0.450257,-2.13652 0.133263,-0.59583 0.263636,-1.19229 0.391271,-1.78934 0.101042,-0.45822 0.211402,-0.91437 0.305297,-1.37418 0.06771,-0.28766 0.135615,-0.57526 0.196557,-0.86443 0.0372,-0.18952 0.07709,-0.37846 0.113985,-0.56771 0.0092,-0.0412 0.01794,-0.0825 0.02744,-0.12359 0.0033,-0.0143 0.01215,-0.0572 0.01098,-0.0426 -0.0021,0.0265 -0.01794,0.10465 -0.01381,0.0784 0.01138,-0.0725 0.02453,-0.14471 0.04285,-0.21579 0.01775,-0.0732 -0.01482,0.059 -0.0088,0.0608 2.706118,0.80037 3.063523,-0.14454 2.693069,0.73393 -0.01397,0.0332 -0.02794,0.0663 -0.04183,0.0995 -0.019,0.0455 -0.108545,0.27413 -0.04232,0.0796 -0.03667,0.13101 -0.07552,0.26227 -0.127149,0.38823 -0.05407,0.18858 -0.117162,0.37412 -0.174376,0.56169 -0.04949,0.15562 -0.09908,0.31131 -0.141375,0.46896 -0.548238,1.91883 -3.26187,1.14351 -2.713632,-0.77532 z"
       inkscape:connector-curvature="0" />
    <path
       style="fill:#ffffff;fill-opacity:1;fill-rule:nonzero;stroke:none;stroke-width:0.26458332"
       id="path4710"
       d="m 30.164791,242.35002 c 0.246708,-0.25663 0.553974,-0.43802 0.866479,-0.60147 0.346434,-0.17264 0.713734,-0.29663 1.083489,-0.40814 0.381514,-0.10236 0.764583,-0.19928 1.151147,-0.28061 0.391824,-0.0752 0.784505,-0.1443 1.180018,-0.19696 0.334581,-0.0533 0.670319,-0.0977 1.007314,-0.13245 0.291427,-0.0297 0.583932,-0.046 0.876501,-0.059 0.216291,-0.009 0.432697,-0.0147 0.649126,-0.0189 0.221594,-0.008 0.44214,-0.005 0.662657,0.0192 0.103391,0.0131 0.206176,0.0312 0.309906,0.0416 0.229666,0.01 0.446667,0.0793 0.657717,0.1659 0.322988,0.16033 0.561502,0.41612 0.711814,0.74418 0.05233,0.11421 0.104095,0.23757 0.100827,0.36316 -0.0072,0.27875 -0.06859,0.55451 -0.131765,0.82611 -0.01543,0.0663 -0.06771,0.11806 -0.101571,0.17709 -0.166991,0.2398 -0.36495,0.39164 -0.603811,0.5378 -0.06741,0.0365 -0.133992,0.0744 -0.200996,0.11164 -1.74444,0.96923 -3.115132,-1.49778 -1.370692,-2.46701 v 0 c 0.0016,-9.5e-4 0.212127,-0.11985 0.111046,-0.0595 0.04833,-0.0291 0.124912,-0.0765 -0.02936,0.024 -0.02341,0.0153 0.08936,-0.0671 0.06807,-0.049 -0.222509,0.18927 0.02854,-0.0679 -0.332949,0.35234 -0.41352,0.74232 -0.201927,1.58801 0.546621,1.97789 0.266751,0.1042 0.07954,0.0424 0.44531,0.11765 0.01093,0.002 -0.02222,-0.002 -0.03334,-0.003 -0.04863,-0.004 -0.09725,-0.009 -0.145807,-0.0141 -0.116144,-0.0131 -0.231997,-0.0286 -0.347578,-0.046 0.184338,-0.009 -0.24811,0.004 -0.261601,0.002 -0.193056,0.004 -0.386093,0.009 -0.57903,0.0166 -0.238025,0.0104 -0.476028,0.0231 -0.713145,0.047 -0.310025,0.0315 -0.618421,0.0749 -0.926309,0.12296 -0.326919,0.0426 -0.650954,0.10177 -0.974979,0.16219 -0.308755,0.0629 -0.613209,0.14465 -0.918593,0.2219 -0.209439,0.0613 -0.418161,0.12878 -0.615897,0.22185 -0.0556,0.0225 -0.01775,0.006 -0.09069,0.0464 -0.115122,0.0645 0.09285,-0.0941 -0.05431,0.0325 -1.411113,1.41111 -3.406725,-0.5845 -1.995612,-1.99561 z"
       inkscape:connector-curvature="0" />
    <path
       style="fill:#ffffff;fill-opacity:1;fill-rule:nonzero;stroke:none;stroke-width:0.26458332"
       id="path4712"
       d="m 30.933167,245.16184 c 0.143,0.0195 0.287131,0.0288 0.431134,0.0371 0.249777,0.025 0.498959,0.0541 0.7494,0.0719 0.315082,0.0361 0.631344,0.06 0.946772,0.0923 0.339116,0.0383 0.679233,0.0656 1.018638,0.10119 0.361167,0.0366 0.723357,0.06 1.084797,0.0937 0.374134,0.0295 0.747704,0.0634 1.121121,0.1009 0.33274,0.0266 0.664755,0.058 0.996448,0.0955 0.264093,0.0286 0.528592,0.0488 0.791487,0.0875 0.309838,0.0305 0.592598,0.13341 0.875036,0.25745 0.151741,0.0964 0.351761,0.20748 0.450752,0.3605 0.250888,0.3878 0.388903,0.6474 0.351266,1.08448 -0.01249,0.14491 -0.03924,0.29207 -0.09768,0.42526 -0.07545,0.17192 -0.199028,0.31841 -0.298543,0.47761 -0.141086,0.1613 -0.317846,0.27509 -0.497951,0.38628 -1.720659,1.01084 -3.150208,-1.42253 -1.429552,-2.43338 v 0 c -0.06023,0.0516 -0.123446,0.0984 -0.172709,0.16188 -0.08125,0.13886 -0.182973,0.26761 -0.243742,0.41657 -0.241546,0.59208 0.07039,1.31644 0.615325,1.6138 0.299458,0.11889 0.188045,0.0591 0.02887,0.0405 -0.228449,-0.0356 -0.459978,-0.0441 -0.689266,-0.074 -0.320153,-0.0362 -0.640593,-0.0658 -0.961744,-0.0918 -0.366681,-0.0368 -0.733481,-0.0699 -1.100871,-0.0989 -0.372202,-0.0347 -0.745273,-0.0581 -1.11711,-0.0969 -0.339537,-0.0356 -0.679828,-0.0626 -1.019061,-0.10124 -0.284946,-0.0309 -0.57136,-0.048 -0.855814,-0.0843 -0.237778,-0.0174 -0.475392,-0.0383 -0.711813,-0.0695 -0.221983,-0.0133 -0.444016,-0.0292 -0.664303,-0.0606 -1.975556,-0.28222 -1.576432,-3.07608 0.399121,-2.79386 z"
       inkscape:connector-curvature="0" />
    <path
       style="fill:#ffffff;fill-opacity:1;fill-rule:nonzero;stroke:none;stroke-width:0.26458332"
       id="path4714"
       d="m 20.116259,244.86184 c -0.0087,-0.047 -0.190057,-0.4016 -0.06275,-0.15317 -0.04936,-0.0532 0.299959,0.35092 0.0031,0.0175 -0.06449,-0.0917 -0.246828,-0.23175 0.09943,0.0872 0.04099,0.0378 0.08865,0.0668 0.135209,0.0967 0.002,0.002 0.04116,0.0235 0.0416,0.0238 0.02376,0.0388 0.288036,0.10269 0.406326,0.11811 -0.003,-1.5e-4 -0.01052,-8.2e-4 -0.01507,-10e-4 -0.0041,-3.4e-4 -0.0083,-6.6e-4 -0.01239,-9.8e-4 -0.0014,-1e-4 -0.0028,-2.1e-4 -0.0042,-3.1e-4 -0.433771,-0.45506 -0.867542,-0.91011 -1.301314,-1.36516 0.02128,-0.48111 0.138539,-0.81173 0.482665,-1.1458 0.0498,-0.0483 0.210743,-0.17958 0.163917,-0.12836 -0.513328,0.56149 -0.173087,0.09 -0.398856,0.41539 -0.279974,0.45747 0.640474,-0.78781 0.15883,-0.226 -0.05782,0.071 -0.008,-0.006 -0.135167,0.21325 -0.01448,0.025 -0.05055,0.10384 -0.0361,0.0788 0.227362,-0.39369 0.06857,-0.17411 0.259012,-0.42026 0.0835,-0.0711 0.270317,-0.33763 -0.05063,0.0726 -0.03318,0.0424 -0.06034,0.0945 -0.08474,0.14315 -0.04294,0.0843 -0.06926,0.19239 -0.08974,0.2918 -0.0013,0.001 -0.0064,0.0444 -0.0036,0.0183 0.0022,0.003 -7.41e-4,-0.0133 0.0011,-0.0104 0.655702,1.05356 0.402489,1.38176 1.12114,1.52617 0.189489,0.0291 0.302614,0.003 0.546439,-0.0331 0.05065,-0.007 0.09746,-0.0315 0.14552,-0.0492 0.01957,-0.007 0.07641,-0.0334 0.0572,-0.0253 -0.04358,0.0183 -0.08688,0.0374 -0.13032,0.056 -0.023,0.008 -0.04591,0.0169 -0.06899,0.0251 -0.05883,0.0207 -0.237215,0.0764 -0.179564,0.0526 0.377072,-0.15568 0.221658,-0.0738 0.139703,-0.0383 -0.0188,0.007 -0.0366,0.0167 -0.05537,0.0239 -0.103592,0.0398 -0.293973,0.10978 -0.212726,0.0748 0.334038,-0.1439 0.103077,-0.0214 0.307536,-0.13495 0.07117,-0.0537 0.247625,-0.14769 -0.112151,0.0725 -0.06605,0.0404 -0.138959,0.0714 -0.209974,0.10213 0.07459,-0.0399 0.154996,-0.0705 0.223781,-0.11969 0.105887,-0.0758 0.516092,-0.42399 0.494151,-0.58062 -0.191492,-1.36704 -0.04719,-1.61123 -0.822707,-1.90842 -0.868667,-0.0145 -0.54092,-0.1065 -1.01844,0.0758 1.782813,-0.89669 3.05092,1.62459 1.268107,2.52128 v 0 c -0.517185,0.2049 -0.169586,0.10526 -1.08015,0.10021 -0.824301,-0.3077 -0.69621,-0.52794 -0.917117,-1.95438 -0.02464,-0.15907 0.402278,-0.52404 0.507494,-0.59996 0.07468,-0.0539 0.161706,-0.0882 0.24256,-0.13225 -0.08646,0.0397 -0.153964,0.094 -0.235536,0.14587 -0.04958,0.0315 0.233594,-0.16925 0.143371,-0.10249 0.04709,-0.0274 0.09196,-0.059 0.14126,-0.0822 0.449909,-0.21146 0.285739,-0.11657 0.162011,-0.0686 -0.01766,0.007 0.07342,-0.0308 0.05217,-0.0225 0.119589,-0.0518 0.496013,-0.17483 0.205807,-0.0792 -0.02839,0.0128 -0.112512,0.0534 -0.08518,0.0385 0.277577,-0.15189 0.615911,-0.19047 0.926223,-0.14585 0.679861,0.12622 1.358393,0.63192 1.248088,1.58003 -0.0055,0.0502 -0.01162,0.10025 -0.02003,0.15002 -0.02923,0.15018 -0.07243,0.29812 -0.139348,0.43599 -0.04,0.0828 -0.08142,0.17024 -0.136647,0.24385 -0.320961,0.42783 -0.213389,0.24685 -0.127294,0.16113 0.175027,-0.23379 -0.05022,0.0779 0.205769,-0.35043 0.02184,-0.0365 -0.03087,0.0796 -0.05144,0.11693 -0.06213,0.11265 -0.11821,0.21012 -0.195848,0.30568 -0.01718,0.0207 -0.03314,0.0424 -0.05153,0.062 -0.500082,0.53271 0.387473,-0.66067 0.156489,-0.2302 -0.01494,0.0278 -0.03082,0.0552 -0.04623,0.0828 -0.230912,0.34007 0.05622,-0.06 -0.429701,0.46053 -0.0425,0.0455 0.101941,-0.0725 0.146215,-0.11631 0.303206,-0.29995 0.433486,-0.64456 0.437691,-1.07366 -0.585075,-0.59318 -1.914906,-1.36689 -1.293967,-1.31666 0.0064,5.1e-4 0.01272,0.001 0.01908,0.002 0.02446,0.002 0.04892,0.004 0.07334,0.006 0.180162,0.019 0.358644,0.0583 0.522508,0.14169 0.06185,0.0295 0.123007,0.0606 0.182095,0.0954 0.167271,0.10378 0.325142,0.22244 0.446849,0.38048 -0.112447,-0.10806 0.269611,0.29976 0.275587,0.35778 0.101474,0.16975 0.186153,0.34709 0.259467,0.53067 0.78611,1.83426 -1.807922,2.94599 -2.594032,1.11173 z"
       inkscape:connector-curvature="0" />
    <path
       style="fill:#ffffff;fill-opacity:1;fill-rule:nonzero;stroke:none;stroke-width:0.26458332"
       id="path4716"
       d="m 44.105411,244.15276 c -0.02859,-0.20311 -0.04559,-0.40756 -0.05974,-0.6121 -0.024,-0.24055 -0.0076,-0.48135 0.01206,-0.72142 0.0085,-0.18574 0.05484,-0.36628 0.08368,-0.54913 0.0384,-0.19765 0.09872,-0.39005 0.16015,-0.58141 0.07545,-0.19711 0.149259,-0.34946 0.276095,-0.53956 0.137152,-0.21164 0.327366,-0.37756 0.538821,-0.51071 0.598567,-0.35963 1.20731,-0.25045 1.730206,0.14288 0.324689,0.28875 0.486661,0.65226 0.553744,1.07299 0.02484,0.18753 0.03118,0.37677 0.03651,0.56566 0.01299,0.27439 -0.0016,0.5483 -0.01852,0.82211 -0.0259,0.36531 -0.05587,0.73056 -0.08889,1.09534 -0.04391,0.48678 -0.08687,0.97366 -0.134292,1.46012 -0.06011,0.6004 -0.11948,1.20086 -0.178573,1.80137 -0.07362,0.64068 -0.128592,1.28324 -0.186541,1.92547 -0.04859,0.61826 -0.103167,1.23605 -0.148424,1.85458 -0.03147,0.53886 -0.06432,1.0775 -0.102163,1.61596 -0.02928,0.40987 -0.04975,0.82027 -0.06574,1.23085 -0.01701,0.275 -0.01484,0.54917 -0.0013,0.82404 0.01281,0.2352 0.02479,0.47042 0.03369,0.7058 0.02106,0.11469 0.0359,0.23208 0.05098,0.34822 0.01746,0.11825 0.0476,0.15606 -0.01307,-0.0334 -0.07199,-0.18858 -0.217373,-0.33804 -0.374033,-0.46009 -0.225978,-0.16308 -0.501732,-0.22128 -0.775131,-0.20297 0.07541,-0.0149 0.0639,-0.0174 0.187825,-0.0621 0.252867,-0.0799 0.501367,-0.17243 0.75158,-0.26011 0.34584,-0.13222 0.699545,-0.24178 1.050714,-0.35858 0.445272,-0.15561 0.901954,-0.2745 1.356611,-0.39873 0.522078,-0.13771 1.052182,-0.24169 1.585251,-0.32601 0.529704,-0.0933 1.063181,-0.15348 1.600044,-0.18218 0.505555,-0.0278 1.011317,-0.0197 1.516988,-0.003 0.478169,0.024 0.95512,0.0644 1.42997,0.12533 0.402765,0.0538 0.803066,0.12452 1.202878,0.19665 0.34616,0.0686 0.689613,0.15089 1.030764,0.24101 0.232172,0.0652 0.467024,0.11908 0.697142,0.1914 0.129506,0.0404 0.25935,0.0794 0.387639,0.12347 1.370491,0.54551 0.153871,1.11335 -0.65382,2.74535 -1.98074,-0.24318 -1.636837,-3.04437 0.343903,-2.80119 v 0 c -0.578282,1.2731 -1.95285,2.22045 -0.65478,2.70807 0.01254,0.004 0.05027,0.0153 0.03763,0.0117 -0.107135,-0.0307 -0.212635,-0.067 -0.319376,-0.099 -0.185653,-0.062 -0.380339,-0.0945 -0.567227,-0.1533 -0.265303,-0.0724 -0.534024,-0.13282 -0.802942,-0.19011 -0.354528,-0.064 -0.709366,-0.12739 -1.066458,-0.17546 -0.384585,-0.0513 -0.771345,-0.0805 -1.158592,-0.10322 -0.425871,-0.0141 -0.851667,-0.0232 -1.277493,7.6e-4 -0.439513,0.0219 -0.875411,0.0755 -1.308939,0.15188 -0.430038,0.0667 -0.857329,0.15127 -1.278758,0.26032 -0.405495,0.11078 -0.813323,0.2152 -1.210304,0.35446 -0.336796,0.11186 -0.675979,0.21679 -1.007526,0.34383 -0.246197,0.0863 -0.490609,0.17782 -0.739579,0.25588 -0.225062,0.0794 -0.452199,0.1551 -0.689181,0.19001 -0.462807,0.0506 -0.861907,0.0136 -1.262949,-0.25522 -0.287901,-0.21243 -0.520073,-0.47576 -0.649348,-0.8135 -0.0778,-0.21488 -0.146794,-0.4332 -0.168641,-0.66231 -0.02527,-0.20046 -0.06194,-0.39964 -0.072,-0.60182 -0.0084,-0.2247 -0.02021,-0.44923 -0.0323,-0.67376 -0.01736,-0.35743 -0.01995,-0.71462 3e-6,-1.07212 0.0172,-0.43988 0.03917,-0.87957 0.07053,-1.31869 0.03804,-0.54124 0.07067,-1.08266 0.102759,-1.62428 0.04652,-0.63437 0.102222,-1.268 0.15231,-1.90209 0.05866,-0.6498 0.114234,-1.29995 0.188683,-1.94819 0.05905,-0.59992 0.118443,-1.19979 0.178403,-1.79961 0.04716,-0.48063 0.08913,-0.96176 0.132643,-1.44272 0.03131,-0.33732 0.05831,-0.67528 0.08258,-1.01312 0.0118,-0.18969 0.02588,-0.37872 0.01415,-0.56891 -0.0021,-0.0815 -0.0051,-0.16334 -0.0092,-0.24467 0.06148,0.27974 0.213691,0.50154 0.427426,0.69098 0.456129,0.33252 1.04775,0.42072 1.555422,0.10135 0.123164,-0.0805 0.244565,-0.19823 0.319059,-0.30536 0.02971,-0.0495 0.04832,-0.1125 0.07825,-0.1589 0.01799,-0.0279 -0.0258,0.0611 -0.03899,0.0915 -5.3e-4,0.001 7.93e-4,-0.003 0.0011,-0.004 0.003,-0.009 0.006,-0.0178 0.009,-0.0266 0.08038,-0.29391 -0.0707,0.28446 -0.0318,0.0872 -0.02347,0.13975 -0.05026,0.24734 -0.05543,0.31977 -0.01386,0.16959 -0.02217,0.13966 -0.0093,0.2988 0.0091,0.1355 0.01969,0.27098 0.03796,0.4056 0.28222,1.97555 -2.511637,2.37468 -2.79386,0.39912 z"
       inkscape:connector-curvature="0" />
    <path
       style="fill:#ffffff;fill-opacity:1;fill-rule:nonzero;stroke:none;stroke-width:0.26458332"
       id="path4718"
       d="m 45.574611,249.73915 c 0.0935,-0.40202 0.331295,-0.73104 0.613344,-1.02191 0.302429,-0.27623 0.66584,-0.4576 1.043363,-0.60602 0.335187,-0.12991 0.687562,-0.20379 1.038259,-0.27755 0.358183,-0.0673 0.719577,-0.11751 1.080694,-0.16652 0.364675,-0.0527 0.733096,-0.0666 1.099613,-0.0996 0.358825,-0.0361 0.718505,-0.062 1.078532,-0.0824 0.278169,-0.006 0.554564,-0.0351 0.831315,-0.0611 0.207103,-0.0194 0.414542,-0.0349 0.622033,-0.0494 1.990728,-0.13957 2.18811,2.67574 0.197385,2.81531 v 0 c -0.185095,0.013 -0.370153,0.0266 -0.5549,0.0439 -0.311894,0.0293 -0.623666,0.0607 -0.937036,0.0691 -0.331353,0.0186 -0.66232,0.0429 -0.992542,0.0762 -0.322177,0.0274 -0.645594,0.0419 -0.966335,0.0848 -0.294121,0.0396 -0.588248,0.0811 -0.880575,0.1321 -0.209392,0.0435 -0.421704,0.0817 -0.622673,0.15666 -0.0934,0.0225 -0.222483,0.1244 -0.07018,-0.0116 0.04098,-0.0523 0.213315,-0.41456 0.133332,-0.22663 -0.548238,1.91883 -3.261871,1.14351 -2.713633,-0.77532 z"
       inkscape:connector-curvature="0" />
    <path
       style="fill:#ffffff;fill-opacity:1;fill-rule:nonzero;stroke:none;stroke-width:0.26458332"
       id="path4720"
       d="m 43.323644,244.19461 c 0.03276,-0.31324 0.143629,-0.60727 0.273154,-0.89123 0.185758,-0.38098 0.476046,-0.67782 0.808556,-0.93278 0.323387,-0.23434 0.689924,-0.39131 1.064889,-0.52161 0.38522,-0.13974 0.788848,-0.20822 1.19152,-0.27439 0.480668,-0.0885 0.967785,-0.11457 1.455311,-0.12663 0.520594,-0.0149 1.041337,0.002 1.561042,0.0321 0.508513,0.0307 1.016143,0.0749 1.522772,0.12802 0.464854,0.0489 0.929529,0.10045 1.392563,0.16449 0.389411,0.05 0.773488,0.13152 1.156171,0.21773 0.28457,0.0638 0.559057,0.1526 0.827154,0.26647 1.812507,0.83504 0.631586,3.39831 -1.18092,2.56328 v 0 c 0.166764,0.0495 -0.247918,-0.0771 -0.266886,-0.0766 -0.306665,-0.0692 -0.614021,-0.13677 -0.926301,-0.17584 -0.431495,-0.0612 -0.865177,-0.10616 -1.298416,-0.15293 -0.464148,-0.0495 -0.92942,-0.0889 -1.395325,-0.11746 -0.440722,-0.0273 -0.882528,-0.04 -1.324052,-0.0279 -0.35705,0.008 -0.71366,0.0222 -1.06549,0.0901 -0.252159,0.0414 -0.50723,0.0742 -0.748165,0.16407 -0.09945,0.03 -0.195805,0.0685 -0.287761,0.11617 0.0095,-0.0195 0.04914,-0.0712 0.04776,-0.0947 0.0045,-0.0137 0.01013,-0.0271 0.01352,-0.0412 0.0048,-0.0202 -0.0013,0.055 -0.02188,0.0583 -0.01019,0.002 0.04414,-0.20317 -0.0053,0.0316 -0.282223,1.97556 -3.07608,1.57644 -2.79386,-0.39912 z"
       inkscape:connector-curvature="0" />
    <path
       style="fill:#ffffff;fill-opacity:1;fill-rule:nonzero;stroke:none;stroke-width:0.26458332"
       id="path4722"
       d="m 15.388144,264.71378 c 0.0057,0.0199 0.01409,0.0393 0.01699,0.0598 0.0015,0.0107 -0.01905,-0.0389 -0.01491,-0.0289 0.03116,0.0753 0.07727,0.13514 0.127642,0.19856 0.07224,0.0797 0.159262,0.14413 0.257222,0.18824 -0.100694,-0.0147 -0.142338,-0.006 -0.25325,-0.003 -0.1856,0.0176 -0.36979,0.0464 -0.551406,0.0886 -0.293586,0.0806 -0.587476,0.16499 -0.873995,0.26825 -0.35292,0.13349 -0.701975,0.27605 -1.044516,0.43422 -0.376166,0.16678 -0.744475,0.35064 -1.103875,0.55093 -0.335928,0.18947 -0.670146,0.38213 -0.996403,0.58788 -0.202053,0.1377 -0.411195,0.26996 -0.595244,0.43186 -0.0013,0.0104 -0.05448,0.0655 -0.05178,0.0629 0.06866,-0.0684 0.102367,-0.15009 0.144584,-0.23681 0.168219,-0.49976 0.03006,-1.01841 -0.374477,-1.36416 -0.1050335,-0.0813 -0.2062658,-0.0942 -0.02016,-0.0702 0.259714,0.0334 0.519088,0.0677 0.779951,0.0912 0.311485,0.024 0.623378,0.038 0.934713,0.0644 0.323293,0.0232 0.645578,0.0547 0.967714,0.0903 0.370526,0.0378 0.731479,0.12462 1.085943,0.23619 0.363434,0.12258 0.699964,0.29998 1.015834,0.5153 0.338955,0.2524 0.595271,0.57832 0.802708,0.94306 0.207029,0.36723 0.305817,0.77061 0.354748,1.1858 0.04417,0.38693 0.0098,0.77517 -0.04367,1.15897 -0.04459,0.38041 -0.160154,0.74514 -0.274035,1.10894 -0.124132,0.39859 -0.309159,0.77402 -0.499319,1.14435 -0.191929,0.37561 -0.419017,0.73209 -0.66332,1.07546 -0.261271,0.36094 -0.570405,0.68271 -0.888859,0.99289 -0.322671,0.31507 -0.68892,0.57748 -1.06742,0.82025 -0.379796,0.23987 -0.788532,0.4201 -1.213473,0.5621 -0.398704,0.1333 -0.811534,0.19158 -1.230074,0.20364 -0.4148716,0.008 -0.8102411,-0.086 -1.191084,-0.24313 -0.4230341,-0.19617 -0.7320835,-0.51523 -0.9761426,-0.90441 -0.2353641,-0.43526 -0.267321,-0.90524 -0.188168,-1.3841 0.072871,-0.37525 0.2467761,-0.70627 0.4644189,-1.01561 0.1541391,-0.18597 0.069626,-0.0909 0.255786,-0.28319 1.4221856,-1.39995 3.4020117,0.61132 1.9798267,2.01127 v 0 c 0.0056,-0.008 0.01119,-0.0158 0.01679,-0.0236 7.67e-4,-0.002 0.0015,-0.005 0.0023,-0.007 0.02782,-0.0473 0.02683,-0.0395 0.04025,-0.0752 0.0042,-0.0113 0.01799,-0.0445 0.0122,-0.0339 -0.0086,0.0156 -0.01379,0.0656 -0.02058,0.0492 -0.01557,-0.0376 0.04833,-0.0801 0.02616,-0.11937 2.02e-4,-0.18868 -0.04095,-0.36611 -0.143961,-0.52798 -0.08489,-0.11798 -0.177825,-0.21476 -0.318626,-0.26321 -0.1773601,-0.049 -0.06612,0.002 0.01013,-0.002 0.125597,0.0315 0.266596,-0.0473 0.387553,-0.0653 0.20104,-0.0607 0.388991,-0.1488 0.568829,-0.25766 0.21837,-0.13814 0.432142,-0.28425 0.618357,-0.46484 0.198749,-0.1926 0.395412,-0.38929 0.56103,-0.61185 0.166335,-0.23 0.318603,-0.47089 0.448385,-0.72346 0.116775,-0.22656 0.236665,-0.45412 0.31583,-0.69708 0.06936,-0.22134 0.149954,-0.44079 0.17462,-0.67308 0.02365,-0.14547 0.04315,-0.29408 0.03113,-0.4414 -0.01586,-0.18109 0.04374,0.0899 -0.0099,-0.11303 -0.0094,-0.0173 -0.03359,-0.033 -0.02835,-0.052 0.0047,-0.017 0.03727,0.0549 0.03733,0.0373 7.1e-5,-0.0203 -0.06032,-0.0538 -0.0051,-0.024 0.09952,0.0405 -0.196202,-0.10554 -0.228753,-0.11639 -0.171906,-0.0595 -0.348308,-0.0975 -0.529348,-0.11692 -0.298455,-0.033 -0.596898,-0.0624 -0.896496,-0.0834 -0.317177,-0.027 -0.635178,-0.0387 -0.952371,-0.0659 -0.314402,-0.029 -0.6272498,-0.0691 -0.9402204,-0.11042 -0.4068625,-0.0636 -0.8079361,-0.16092 -1.1564868,-0.39172 -0.5474962,-0.39267 -0.8344458,-0.89295 -0.7655965,-1.58085 0.011507,-0.11496 0.05147,-0.22526 0.077206,-0.33789 0.036109,-0.0849 0.067338,-0.17207 0.1083254,-0.25474 0.151379,-0.30531 0.3914913,-0.55419 0.641481,-0.78011 0.2882455,-0.23799 0.5914223,-0.45739 0.9065186,-0.65864 0.3710246,-0.23281 0.7494357,-0.45344 1.1314757,-0.66767 0.421491,-0.23239 0.850593,-0.45086 1.290909,-0.64561 0.423162,-0.19436 0.853617,-0.37174 1.290284,-0.53367 0.394258,-0.13632 0.793662,-0.26065 1.198715,-0.36079 0.360586,-0.0779 0.725453,-0.13827 1.09464,-0.15448 0.329705,-0.007 0.660081,0.002 0.982193,0.0808 0.405065,0.10674 0.784974,0.27114 1.087625,0.57124 0.260465,0.28692 0.469042,0.60316 0.576669,0.9791 0.548237,1.91883 -2.165398,2.69415 -2.713634,0.77532 z"
       inkscape:connector-curvature="0" />
    <path
       style="fill:#ffffff;fill-opacity:1;fill-rule:nonzero;stroke:none;stroke-width:0.26458332"
       id="path4724"
       d="m 22.489583,265.11987 c -0.0034,-0.26136 0.03997,-0.51921 0.106027,-0.77108 0.08252,-0.33487 0.269411,-0.61063 0.489808,-0.8682 0.230654,-0.24409 0.524286,-0.39139 0.83846,-0.49426 0.335375,-0.0913 0.712605,-0.10562 1.041843,0.0242 0.08623,0.034 0.169643,0.0748 0.254464,0.1122 0.359921,0.19404 0.609377,0.49246 0.808554,0.84304 0.164489,0.29231 0.247029,0.61573 0.306943,0.94287 0.07289,0.35501 0.110416,0.71506 0.129967,1.07648 0.01397,0.47889 0.0051,0.95781 -0.014,1.43638 -0.01848,0.58566 -0.07445,1.1691 -0.119595,1.75306 -0.05177,0.64964 -0.122119,1.29748 -0.192846,1.94525 -0.07562,0.61589 -0.14186,1.23287 -0.22383,1.84797 -0.0634,0.49569 -0.12681,0.99133 -0.191097,1.48691 -0.03989,0.30787 -0.07127,0.61673 -0.09883,0.92591 -0.01332,0.14697 -0.02367,0.2942 -0.03808,0.44107 0.05589,1.29395 -2.793774,-0.19463 -2.771109,-0.50393 0.0093,-0.1425 0.01209,-0.28531 0.01506,-0.42805 -0.0068,-0.0808 -0.0028,-0.028 -0.0096,-0.1586 -0.09965,-1.99312 2.719048,-2.13405 2.818702,-0.14093 v 0 c 0.01112,0.22768 0.0067,0.10801 0.01246,0.35906 -0.0049,0.22998 -0.0096,0.4603 -0.03273,0.68932 -0.0036,0.0298 -0.04891,0.36786 -0.06065,0.3654 -1.495373,-0.31298 -2.65916,-1.66671 -2.780643,-0.46048 0.01389,-0.13776 0.02227,-0.27603 0.03552,-0.41385 0.031,-0.34669 0.06636,-0.693 0.11113,-1.03821 0.06484,-0.4992 0.128595,-0.99846 0.192528,-1.49777 0.07957,-0.59245 0.141913,-1.18698 0.215596,-1.78017 0.06752,-0.61828 0.135001,-1.23659 0.184582,-1.85665 0.04253,-0.54902 0.0958,-1.09754 0.113439,-1.64815 0.01601,-0.39765 0.02396,-0.79541 0.01475,-1.19339 -0.0065,-0.24331 -0.04506,-0.48428 -0.09121,-0.72293 -0.0031,-0.0224 -0.01557,-0.0459 -0.0083,-0.0673 0.0069,-0.0202 0.01101,0.0697 0.01605,0.0225 0.003,-0.0283 -0.05482,-0.0482 -0.0367,-0.0769 0.09701,0.14816 0.212775,0.26947 0.37433,0.3468 0.26264,0.10633 0.54648,0.17276 0.826244,0.0744 0.150365,-0.0552 0.287399,-0.13787 0.395782,-0.25822 0.11577,-0.14529 0.153048,-0.219 0.200641,-0.35633 0.0021,-0.006 -0.0041,0.0122 -0.0061,0.0183 0.0017,-0.0174 0.0043,-0.0348 0.0051,-0.0523 0.0014,-0.0287 -0.0084,0.0702 -0.0095,0.0641 -0.0014,-0.008 -0.001,-0.13898 -0.001,0.0125 0,1.99561 -2.822222,1.99561 -2.822222,0 z"
       inkscape:connector-curvature="0" />
    <path
       style="fill:#ffffff;fill-opacity:1;fill-rule:nonzero;stroke:none;stroke-width:0.26458332"
       id="path4726"
       d="m 19.358458,265.97511 c 0.107908,-0.27622 0.273075,-0.52151 0.453904,-0.75434 0.214683,-0.27782 0.48048,-0.50522 0.762425,-0.71136 0.312586,-0.21609 0.6478,-0.39483 0.992197,-0.55398 0.397878,-0.17988 0.812756,-0.31864 1.228423,-0.45077 0.461537,-0.1457 0.933717,-0.25179 1.407593,-0.34805 0.495305,-0.0992 0.997845,-0.15239 1.500782,-0.19353 0.454837,-0.0327 0.910438,-0.0572 1.366487,-0.059 0.393737,-8e-4 0.786403,0.0305 1.176684,0.0802 0.374052,0.045 0.731925,0.15099 1.072243,0.31069 0.25155,0.14441 0.516871,0.31646 0.685236,0.56094 0.07882,0.11445 0.142428,0.23868 0.213643,0.35803 0.835422,1.81233 -1.727602,2.9938 -2.563021,1.18146 v 0 c 0.124793,0.18834 0.21449,0.3483 0.426619,0.436 0.142513,0.0229 -0.202647,-0.0585 -0.207224,-0.0496 -0.26584,-0.0388 -0.535022,-0.0528 -0.803457,-0.0556 -0.38017,-0.002 -0.760014,0.0264 -1.139257,0.0498 -0.391892,0.0314 -0.783722,0.0707 -1.16986,0.14685 -0.374499,0.0751 -0.747762,0.15764 -1.112653,0.27169 -0.307207,0.0973 -0.614976,0.19688 -0.909727,0.32793 -0.181879,0.0812 -0.356893,0.17537 -0.524411,0.28345 -0.07015,0.0445 -0.135173,0.0964 -0.186519,0.16216 -0.06713,0.0805 -0.01502,-0.0109 -0.07607,0.11867 -0.78611,1.83426 -3.380142,0.72253 -2.594032,-1.11173 z"
       inkscape:connector-curvature="0" />
    <path
       style="fill:#ffffff;fill-opacity:1;fill-rule:nonzero;stroke:none;stroke-width:0.26458332"
       id="path4728"
       d="m 33.227388,266.23151 c 0.03582,-0.15119 0.105592,-0.29171 0.147172,-0.44099 0.01516,-0.045 0.02585,-0.0972 0.03338,-0.14 0.0019,-0.01 0.01886,-0.13893 0.01193,-0.0887 0.0016,-0.0231 0.0031,-0.0462 0.0046,-0.0693 0.103481,-1.03154 -0.0016,-0.33263 2.803546,0.30182 0.01363,0.003 -0.09448,0.39806 -0.04851,0.22396 -0.04104,0.13878 -0.07386,0.27878 -0.107997,0.41925 -0.06356,0.20998 -0.108382,0.42482 -0.160221,0.63784 -0.06334,0.27611 -0.115163,0.5547 -0.153705,0.83536 -0.06339,0.38559 -0.102904,0.77407 -0.131924,1.16355 -0.03155,0.41432 -0.01892,0.83017 -8.2e-5,1.24471 0.02883,0.43183 0.07238,0.8628 0.142523,1.28993 0.07311,0.38042 0.158433,0.75896 0.271931,1.12948 0.09025,0.28715 0.206402,0.56503 0.342207,0.83339 0.111107,0.19256 0.203626,0.3985 0.339953,0.57538 0.02999,0.0476 0.111389,0.12289 0.141314,0.13686 0.143822,0.0882 0.07346,0.0487 -0.0021,-0.006 -0.02318,-0.0329 -0.06976,0.002 -0.06847,-0.0184 2.17e-4,-0.003 0.07154,-0.01 -0.0053,-0.005 -0.0026,-0.01 0.182158,-0.0384 0.178428,-0.0663 -0.0024,-0.0182 -0.0652,0.0405 -0.006,-0.0102 0.129884,-0.0822 0.236411,-0.19097 0.33296,-0.30923 0.183859,-0.20852 0.337667,-0.43921 0.480909,-0.67662 0.190627,-0.33741 0.343173,-0.69468 0.502386,-1.04755 0.206089,-0.43819 0.350525,-0.90078 0.494773,-1.36191 0.176451,-0.53562 0.312481,-1.08255 0.442114,-1.63093 0.12242,-0.52989 0.218051,-1.06462 0.291602,-1.60329 0.05598,-0.43453 0.09475,-0.87073 0.103516,-1.30874 4e-5,-0.23164 0.0048,-0.46913 -0.04854,-0.69626 -0.0053,-0.0225 -0.0093,-0.0453 -0.01606,-0.0674 -0.0026,-0.009 -0.0019,0.0184 0.0013,0.0268 0.01323,0.0348 0.02582,0.07 0.04317,0.10288 0.07866,0.14898 0.108265,0.16126 0.233924,0.30135 0.08314,0.0583 0.157064,0.13267 0.249425,0.17486 0.503015,0.22976 1.057944,0.2036 1.475687,-0.18637 0.05418,-0.0506 0.09719,-0.11194 0.145793,-0.16791 0.0013,9e-5 0.02336,-0.0318 0.0334,-0.0422 -0.676211,1.87756 -3.331472,0.92125 -2.65526,-0.95631 v 0 c 0.07395,-0.19065 0.146436,-0.38186 0.26344,-0.55158 0.158414,-0.20213 0.261266,-0.37351 0.490665,-0.5066 0.520303,-0.30188 0.97143,-0.34201 1.52831,-0.10327 0.118848,0.051 0.216146,0.14201 0.32422,0.21301 0.07711,0.0798 0.160591,0.1539 0.231352,0.23938 0.234465,0.28326 0.349046,0.64373 0.42341,0.99718 0.07576,0.42388 0.112178,0.85316 0.09734,1.28418 -0.01273,0.5458 -0.05748,1.08976 -0.129104,1.6311 -0.08669,0.62769 -0.19767,1.25119 -0.341085,1.86862 -0.145166,0.61369 -0.299125,1.22538 -0.495422,1.82513 -0.178506,0.56911 -0.362264,1.13803 -0.6156,1.67927 -0.206616,0.45762 -0.407054,0.91979 -0.663184,1.3526 -0.224213,0.36695 -0.465965,0.72292 -0.749646,1.0472 -0.264142,0.30298 -0.551088,0.58517 -0.888982,0.80646 -0.316558,0.20874 -0.652904,0.3793 -1.024197,0.46735 -0.401693,0.0978 -0.809683,0.14181 -1.22035,0.0649 -0.373359,-0.0818 -0.732904,-0.20868 -1.043546,-0.43845 -0.318693,-0.22957 -0.605494,-0.49583 -0.83329,-0.81824 -0.213084,-0.30462 -0.399417,-0.62536 -0.56897,-0.95624 -0.204094,-0.41283 -0.384125,-0.83734 -0.518734,-1.27839 -0.146529,-0.49131 -0.265544,-0.99057 -0.356119,-1.49531 -0.08477,-0.53404 -0.143777,-1.07185 -0.175551,-1.61175 -0.02352,-0.52742 -0.0355,-1.05637 0.0052,-1.58338 0.03416,-0.44973 0.07907,-0.89853 0.151355,-1.34395 0.05326,-0.37392 0.120457,-0.74575 0.20709,-1.11348 0.05314,-0.21583 0.09762,-0.43428 0.162472,-0.64696 0.02741,-0.10937 0.05199,-0.21902 0.08286,-0.3284 0.0079,-0.0281 0.02779,-0.11285 0.02537,-0.0838 -0.0033,0.0401 -0.01879,0.0784 -0.02818,0.11753 0.008,-0.0367 0.01516,-0.0735 0.02389,-0.10999 0.0073,-0.0306 0.03044,-0.12206 0.02466,-0.0911 -0.01,0.0535 -0.08417,0.15081 -0.03057,0.16051 2.816783,0.50996 2.711791,1.27213 2.810706,0.24784 -0.0035,0.0553 -0.0072,0.11051 -0.01233,0.16565 -0.01058,0.0988 -0.02341,0.19731 -0.03984,0.29532 -0.03007,0.16555 -0.06681,0.32985 -0.117356,0.49051 -0.04099,0.13008 -0.09035,0.26234 -0.130503,0.38485 -0.548235,1.91883 -3.261871,1.14351 -2.713633,-0.77532 z"
       inkscape:connector-curvature="0" />
    <path
       style="fill:#ffffff;fill-opacity:1;fill-rule:nonzero;stroke:none;stroke-width:0.26458332"
       id="path4730"
       d="m 45.781108,268.14165 c -0.01627,-0.11397 -0.03257,-0.22795 -0.04885,-0.34192 0.007,0.04 -0.02447,-0.16051 -0.01722,-0.12057 0.02447,0.13501 -0.0013,0.0196 0.04401,0.19757 0.398656,1.02333 0.01889,0.2281 2.742885,-0.21866 0.02847,-0.005 -0.02951,-0.45424 0.0042,-0.27655 0.05632,0.27205 0.04219,0.54999 0.03155,0.82548 -0.01098,0.38002 -0.05452,0.75816 -0.100775,1.13522 -0.06428,0.54654 -0.144515,1.09121 -0.229568,1.63488 -0.11185,0.69187 -0.250285,1.37899 -0.391641,2.06531 -0.149749,0.71352 -0.287682,1.42941 -0.437539,2.14293 -0.145119,0.66739 -0.283268,1.33628 -0.427268,2.00392 -0.103211,0.5051 -0.204631,1.01065 -0.289978,1.51912 -0.05242,0.35351 -0.119129,0.70463 -0.171463,1.05816 -0.0104,0.1589 -0.01183,0.31818 -0.01265,0.47736 0.0199,-0.0612 -0.04084,-0.21183 -0.0892,-0.32402 -0.06391,-0.0928 -0.120505,-0.19109 -0.191736,-0.27839 -0.330777,-0.40541 -0.926343,-0.50347 -1.402781,-0.35633 -0.163629,0.0313 -0.432625,0.26606 -0.462463,0.30159 -0.05618,0.0777 0.0338,-0.0785 0.0429,-0.0973 0.892154,-1.78509 3.416646,-0.52339 2.52449,1.2617 v 0 c -0.08095,0.15987 -0.162314,0.32042 -0.264999,0.4678 -0.227507,0.30534 -0.490559,0.5727 -0.856099,0.71144 -0.574516,0.19303 -1.236832,0.11169 -1.652421,-0.37201 -0.08708,-0.10135 -0.156525,-0.2166 -0.234786,-0.3249 -0.14768,-0.31886 -0.237887,-0.65097 -0.235079,-1.00509 0.0016,-0.29272 0.0059,-0.58613 0.04331,-0.87692 0.05541,-0.37125 0.123981,-0.74027 0.179909,-1.11144 0.09292,-0.55087 0.201747,-1.09886 0.314333,-1.64602 0.143047,-0.66259 0.27995,-1.3265 0.424061,-1.98886 0.149175,-0.70991 0.286163,-1.42226 0.4353,-2.13217 0.132371,-0.64233 0.262351,-1.28534 0.367618,-1.93277 0.08061,-0.51344 0.156284,-1.02789 0.21685,-1.5441 0.0372,-0.29822 0.07317,-0.59741 0.08157,-0.89806 5.29e-4,-0.0169 -0.01143,-0.36728 0.01865,-0.1561 0.0016,0.0112 -0.0043,-0.0265 -0.0028,-0.0337 -0.02257,-0.11882 -0.06185,-0.58211 -0.0335,-0.58814 2.711093,-0.57656 2.349322,-1.30988 2.754841,-0.27845 0.03095,0.11852 0.05787,0.23717 0.07124,0.35903 0.01627,0.11397 0.03256,0.22794 0.04885,0.34192 0.282223,1.97555 -2.511637,2.37467 -2.793858,0.39912 z"
       inkscape:connector-curvature="0" />
    <path
       style="fill:#ffffff;fill-opacity:1;fill-rule:nonzero;stroke:none;stroke-width:0.26458332"
       id="path4732"
       d="m 45.427196,267.84995 c 0.206772,-0.0618 0.414112,-0.11917 0.625546,-0.16394 0.299286,-0.0591 0.603623,-0.083 0.907595,-0.10193 0.352261,-0.0266 0.705252,-0.008 1.057587,0.005 0.359603,0.014 0.719418,0.0209 1.079233,0.0266 0.392438,0.006 0.78491,0.008 1.17738,0.0102 0.40378,-0.005 0.806855,0.008 1.209984,0.0292 0.349814,0.0174 0.699553,0.0292 1.048462,0.0606 0.273569,0.0211 0.545333,0.0541 0.816092,0.0981 0.238582,0.0569 0.492773,0.0974 0.712816,0.21261 0.09428,0.0493 0.1846,0.10592 0.2769,0.15888 0.44333,0.32726 0.742447,0.85874 0.691049,1.42292 -0.01392,0.15288 -0.06471,0.30012 -0.09706,0.45018 -0.662096,1.88258 -3.324463,0.94623 -2.662367,-0.93634 v 0 c -0.01971,0.11411 -0.05307,0.22669 -0.05913,0.34234 -0.0218,0.41603 0.198133,0.81482 0.533757,1.05004 0.0043,0.002 0.448117,0.20911 0.149932,0.0848 -0.204989,-0.0335 -0.410342,-0.058 -0.617686,-0.073 -0.312854,-0.0289 -0.626874,-0.035 -0.940512,-0.0528 -0.358894,-0.0188 -0.717536,-0.031 -1.077052,-0.0254 -0.402222,-0.002 -0.804447,-0.005 -1.206638,-0.0104 -0.38173,-0.006 -0.763463,-0.0135 -1.144968,-0.0284 -0.258361,-0.01 -0.5172,-0.028 -0.775547,-0.009 -0.170069,0.0102 -0.340492,0.0208 -0.508759,0.0488 -0.143299,0.0277 -0.280863,0.0743 -0.421294,0.11374 -1.918827,0.54823 -2.694151,-2.1654 -0.775321,-2.71364 z"
       inkscape:connector-curvature="0" />
    <path
       style="fill:#ffffff;fill-opacity:1;fill-rule:nonzero;stroke:none;stroke-width:0.26458332"
       id="path4734"
       d="m 46.190807,271.97295 c 0.116991,0.0172 0.15711,0.006 0.3229,0.002 0.245012,4e-5 0.488725,-0.0258 0.73288,-0.0434 0.324892,-0.0151 0.648332,-0.0489 0.972532,-0.0738 0.384548,-0.0288 0.769932,-0.0432 1.155332,-0.0543 0.361222,-0.01 0.722556,-0.0146 1.083884,-0.0184 0.343852,-0.0118 0.687112,0.009 1.03019,0.0293 0.309194,0.0207 0.614447,0.0713 0.918845,0.12698 0.303733,0.0552 0.594468,0.15589 0.874617,0.28358 0.275103,0.1468 0.558657,0.3252 0.742138,0.58541 0.07286,0.10332 0.131709,0.21583 0.197564,0.32375 0.129839,0.33623 0.06919,0.13942 0.153199,0.59852 0.155281,1.98957 -2.658385,2.20917 -2.813667,0.2196 v 0 c 0.0717,0.3206 0.02466,0.18961 0.115287,0.4013 0.115462,0.17439 0.216199,0.35319 0.418537,0.43191 -0.06087,-0.0301 -0.124471,-0.0565 -0.195043,-0.0678 -0.19063,-0.0348 -0.380728,-0.0704 -0.574278,-0.0857 -0.278977,-0.0161 -0.557866,-0.0363 -0.83752,-0.0247 -0.344265,0.004 -0.688539,0.008 -1.032706,0.0174 -0.340437,0.01 -0.680873,0.022 -1.020577,0.0472 -0.328944,0.0251 -0.657162,0.0595 -0.986796,0.0749 -0.288676,0.0206 -0.577061,0.0491 -0.866743,0.0498 -0.263509,0.006 -0.528539,0.0136 -0.789699,-0.0297 -1.975554,-0.28222 -1.576432,-3.07608 0.399124,-2.79385 z"
       inkscape:connector-curvature="0" />
    <path
       style="fill:#ffffff;fill-opacity:1;fill-rule:nonzero;stroke:none;stroke-width:0.26458332"
       id="path4736"
       d="m 51.836415,280.87179 c 0.03582,-0.15119 0.105592,-0.29171 0.147174,-0.44099 0.01699,-0.0541 0.02936,-0.10553 0.03961,-0.1586 0.007,-0.0369 0.01357,-0.0738 0.02003,-0.11082 0.163973,-0.94549 -0.02344,-0.10318 2.804038,0.11798 0.0026,2e-4 0.0059,0.087 0.0085,0.14714 0.0027,0.11919 0.0019,0.23843 0.0016,0.35764 -2.06e-4,0.20397 -2.64e-4,0.40794 -2.64e-4,0.61191 -2.65e-4,0.35367 0.0029,0.70728 -0.0068,1.06083 -0.01916,0.48505 -0.03733,0.97 -0.06515,1.45464 -0.02582,0.56196 -0.06841,1.12291 -0.10087,1.68449 -0.0297,0.56696 -0.07281,1.13305 -0.102878,1.70001 -0.02529,0.49885 -0.03962,0.99814 -0.05102,1.49747 -0.01156,0.33859 0.0016,0.6774 0.03246,1.01458 0.0079,0.18795 0.05263,0.36928 0.09855,0.55049 0.04557,0.038 -0.07322,-0.1352 -0.0973,-0.16948 -0.174467,-0.19856 -0.42979,-0.36806 -0.700519,-0.39001 -0.13662,-0.0111 -0.274132,-0.002 -0.411197,-0.003 -0.313381,0.0421 -0.485873,0.1873 -0.723051,0.37664 1.365028,-1.45573 3.423748,0.47471 2.05872,1.93045 v 0 c -0.102385,0.0859 -0.194722,0.18555 -0.307154,0.25787 -0.237937,0.15306 -0.333547,0.16104 -0.574448,0.22049 -0.156996,0.002 -0.314319,0.0173 -0.47099,0.007 -0.394144,-0.0261 -0.763172,-0.29404 -1.022228,-0.57233 -0.224436,-0.29201 -0.398603,-0.60718 -0.488328,-0.96742 -0.0817,-0.32498 -0.150649,-0.65335 -0.172985,-0.98859 -0.03918,-0.44256 -0.05731,-0.88703 -0.04302,-1.33135 0.01209,-0.52775 0.02739,-1.05547 0.05426,-1.58271 0.03044,-0.57141 0.07342,-1.14198 0.103618,-1.71338 0.03256,-0.56117 0.07493,-1.12171 0.100799,-1.68325 0.0264,-0.45892 0.04334,-0.91812 0.06178,-1.37742 0.01109,-0.32553 0.003,-0.65136 0.0055,-0.97703 6.7e-5,-0.20452 1.38e-4,-0.40905 2.65e-4,-0.61357 7.9e-5,-0.0856 1.46e-4,-0.17115 3e-6,-0.25672 0.09625,0.95842 2.981827,-0.84169 2.788147,0.12168 -0.01013,0.058 -0.02048,0.11601 -0.03175,0.17382 -0.0298,0.14907 -0.06611,0.29664 -0.111125,0.4419 -0.04099,0.13009 -0.09035,0.26235 -0.130501,0.38486 -0.548238,1.91883 -3.26187,1.1435 -2.713635,-0.77533 z"
       inkscape:connector-curvature="0" />
    <path
       style="fill:#ffffff;fill-opacity:1;fill-rule:nonzero;stroke:none;stroke-width:0.26458332"
       id="path4738"
       d="m 52.659139,280.02078 c -0.0043,8e-4 -0.01717,0.004 -0.01304,0.002 0.190349,-0.0711 0.390697,-0.11757 0.586851,-0.16991 0.267761,-0.0729 0.539568,-0.12697 0.811255,-0.18248 0.324265,-0.0648 0.651417,-0.11327 0.977188,-0.1694 0.371354,-0.0615 0.744204,-0.11447 1.117362,-0.16387 0.376074,-0.0472 0.751406,-0.0987 1.128467,-0.13777 0.327332,-0.0236 0.652978,-0.0636 0.979408,-0.0966 0.299029,-0.0304 0.599072,-0.0485 0.899231,-0.063 0.213066,-0.01 0.426262,-0.0162 0.639485,-0.0213 0.231849,-0.0146 0.461833,0.0125 0.68761,0.0636 0.473606,0.10623 0.560416,0.31324 0.951436,0.68648 1.021175,1.71455 -1.403562,3.15871 -2.424737,1.44416 v 0 c 0.623507,0.58099 0.31728,0.42849 0.825114,0.61614 0.126494,0.0196 0.272928,0.002 0.02721,0.011 -0.190341,0.004 -0.380651,0.0102 -0.570855,0.0188 -0.250687,0.012 -0.5013,0.0266 -0.751051,0.0519 -0.32431,0.0326 -0.647851,0.0727 -0.973045,0.096 -0.350578,0.036 -0.699373,0.0849 -1.049054,0.12843 -0.337574,0.0444 -0.674796,0.0925 -1.010756,0.14773 -0.297146,0.0505 -0.595247,0.0957 -0.891154,0.15331 -0.217673,0.044 -0.4357,0.0854 -0.649957,0.14475 -0.175487,0.046 -0.351139,0.0909 -0.521634,0.15356 -1.91883,0.54823 -2.694154,-2.1654 -0.775324,-2.71364 z"
       inkscape:connector-curvature="0" />
    <path
       style="fill:#ffffff;fill-opacity:1;fill-rule:nonzero;stroke:none;stroke-width:0.26458332"
       id="path4740"
       d="m 51.777196,283.37217 c 0.205134,-0.0522 0.408852,-0.10851 0.61578,-0.15362 0.253101,-0.0591 0.507447,-0.11317 0.762979,-0.1607 0.333354,-0.0664 0.668576,-0.12407 1.00461,-0.17522 0.406244,-0.059 0.812858,-0.11262 1.221531,-0.15179 0.409077,-0.0353 0.817337,-0.0784 1.226743,-0.11001 0.394946,-0.0296 0.790739,-0.0447 1.186532,-0.057 0.321307,-0.009 0.642715,-0.0146 0.964128,-0.0188 0.217602,-0.003 0.435211,-0.004 0.652823,-0.006 0.118874,-7.9e-4 0.237752,-0.001 0.356626,-0.002 0.01355,-6e-5 0.02711,-1.7e-4 0.04067,-2.7e-4 1.995413,-0.0281 2.035125,2.79387 0.03971,2.82195 v 0 c -0.0222,2.6e-4 -0.0444,5.3e-4 -0.0666,5.3e-4 -0.116856,5.3e-4 -0.233712,10e-4 -0.350565,0.002 -0.212072,0.002 -0.424138,0.003 -0.636199,0.006 -0.304371,0.004 -0.608735,0.009 -0.913008,0.0177 -0.352687,0.0109 -0.705395,0.0239 -1.057346,0.05 -0.392563,0.0301 -0.783932,0.0722 -1.17619,0.10566 -0.35737,0.0337 -0.712684,0.0817 -1.067922,0.13291 -0.30639,0.0456 -0.611581,0.1 -0.915405,0.16029 -0.228904,0.0412 -0.455845,0.0928 -0.682517,0.14471 -0.14525,0.0298 -0.286644,0.0741 -0.431059,0.10752 -1.918827,0.54824 -2.694151,-2.16539 -0.775321,-2.71363 z"
       inkscape:connector-curvature="0" />
    <path
       style="fill:#ffffff;fill-opacity:1;fill-rule:nonzero;stroke:none;stroke-width:0.26458332"
       id="path4742"
       d="m 33.315581,266.14332 c 0.02882,-0.10158 0.05872,-0.20299 0.08612,-0.30487 0.01072,-0.0472 0.02056,-0.0946 0.03024,-0.14205 0.01072,-0.069 -0.01302,0.0957 -0.0072,0.0332 0.0013,-0.014 0.0024,-0.0279 0.0037,-0.0419 5.29e-4,-0.006 0.0011,-0.0114 0.0013,-0.0171 1.64e-4,-0.002 2.65e-4,-0.004 5.29e-4,-0.006 0.410806,-0.91678 0.780884,-1.2813 1.43564,-1.29596 -0.380447,0.20827 -0.775163,0.39237 -1.141338,0.62482 -0.05052,0.0321 -0.125815,0.20299 -0.08874,0.15603 0.09649,-0.12219 0.169608,-0.26187 0.267761,-0.38274 0.08032,-0.0989 0.202835,-0.17728 0.310361,-0.24591 0.168593,-0.10596 0.360024,-0.17109 0.554707,-0.21016 0.376449,-0.0457 0.182475,-0.15464 -0.62303,0.30335 -0.09073,0.0516 -0.143063,0.152 -0.214593,0.22799 -0.05797,0.0775 -0.106466,0.16111 -0.144886,0.2497 -0.0011,0.002 -0.0021,0.005 -0.0031,0.007 2.65e-4,-8e-4 7.94e-4,-0.002 0.0011,-0.003 2.01e-4,-5.3e-4 5.29e-4,-10e-4 5.29e-4,-0.002 0.901012,0.25729 1.802021,0.51458 2.703034,0.77186 -0.321932,1.96948 -3.10719,1.5142 -2.785259,-0.45528 v 0 c 0.904873,0.23367 1.809745,0.46733 2.714617,0.701 -2.64e-4,7.9e-4 -7.93e-4,0.002 -0.0011,0.003 -0.0013,0.003 -0.0026,0.007 -0.004,0.0102 -0.0061,0.0155 -0.0122,0.031 -0.01855,0.0463 -0.051,0.12196 -0.112562,0.23916 -0.191484,0.34582 -0.07611,0.0822 -0.131583,0.19009 -0.228312,0.24658 -0.458758,0.26791 -1.050398,0.38065 -0.728948,0.32832 0.155509,-0.0327 0.310764,-0.0822 0.446098,-0.1667 0.285104,-0.18562 0.254333,-0.26796 0.493125,-0.56314 0.04284,-0.053 -0.0663,0.11902 -0.09945,0.17853 -0.385744,0.21635 -0.771488,0.4327 -1.157232,0.64906 -0.653608,0.0147 1.171803,-1.74651 1.315347,-1.29073 -1.8e-4,0.002 -2.65e-4,0.004 -5.29e-4,0.006 -5.29e-4,0.007 -0.0011,0.0138 -0.0019,0.0207 -0.0019,0.0231 -0.0039,0.0461 -0.0061,0.0692 -0.0085,0.0888 -0.01852,0.17768 -0.03724,0.26505 -0.01823,0.0892 -0.03698,0.17835 -0.05866,0.2668 -0.03401,0.131 -0.07202,0.26086 -0.109259,0.39097 -0.548238,1.91882 -3.261871,1.1435 -2.713636,-0.77533 z"
       inkscape:connector-curvature="0" />
    <path
       style="fill:#ffffff;fill-opacity:1;fill-rule:nonzero;stroke:none;stroke-width:0.26458332"
       id="path4744"
       d="m 34.426403,267.0116 c -0.08141,-0.0814 -0.162819,-0.16282 -0.244232,-0.24423 -0.125079,-0.1268 -0.226523,-0.27287 -0.319,-0.42421 -0.113265,-0.1832 -0.171323,-0.38283 -0.218472,-0.58968 -0.03995,-0.31383 -0.01535,-0.57279 0.09843,-0.8574 0.01127,-0.0282 0.02445,-0.0556 0.03738,-0.0831 0.0088,-0.0187 0.03557,-0.0744 0.02773,-0.0553 -0.02199,0.0535 -0.04681,0.10573 -0.07022,0.15859 -0.02474,0.0641 -0.03818,0.12949 -0.04849,0.19741 0.107132,-0.3773 0.06536,-0.34378 0.222398,-0.60909 0.02175,-0.0368 0.09319,-0.14299 0.07276,-0.10548 -0.04161,0.0764 -0.09194,0.1353 -0.128585,0.21201 -0.02506,0.0482 -0.05602,0.15817 -0.07097,0.23258 -0.0021,0.0122 0.0011,-0.0107 0.0016,-0.0136 -0.01352,0.17496 -0.01013,0.10615 -0.009,0.0723 2.65e-4,-0.01 5.29e-4,-0.0197 7.94e-4,-0.0296 -5.29e-4,0.0323 -2.65e-4,0.0368 -2.65e-4,0.002 4.3e-5,-0.0145 7.4e-5,-0.0289 1.06e-4,-0.0434 1.3e-5,-0.006 2.4e-5,-0.0111 3.5e-5,-0.0167 5e-6,-0.002 7e-6,-0.004 1.3e-5,-0.006 0,-5.3e-4 2e-6,-10e-4 2e-6,-0.002 0,-1.9e-4 0,-2.6e-4 3e-6,-5.3e-4 0,-7e-5 0,-1.5e-4 0,-2.3e-4 2.8491,-0.13451 2.822218,-0.88993 2.822218,0.10253 0,0.0183 0,0.0367 0,0.055 0,0.0245 0,0.0489 0,0.0734 0,0.0258 0,0.0515 0,0.0772 0,0.0215 0,0.0431 0,0.0646 0,0.0155 0,0.031 0,0.0465 0,0.006 0,0.011 0,0.0165 0,0.002 0,0.004 0,0.005 -1.994818,0.26245 -3.494979,-0.17914 -2.371384,0.99607 0.205153,0.18046 0.463936,0.27849 0.730901,0.32277 -1.983756,-0.21723 -1.676553,-3.02268 0.3072,-2.80546 v 0 c 0.290518,0.0452 0.574767,0.14304 0.798655,0.33997 0.178798,0.18397 0.221271,0.2031 0.34634,0.42901 0.583734,1.05441 -1.037352,0.43197 -2.633933,0.71764 0,-0.002 0,-0.004 0,-0.005 0,-0.006 0,-0.011 0,-0.0165 0,-0.0155 0,-0.031 0,-0.0465 0,-0.0215 0,-0.0431 0,-0.0646 0,-0.0258 0,-0.0515 0,-0.0772 0,-0.0245 0,-0.0489 0,-0.0734 0,-0.0183 0,-0.0367 0,-0.055 0,-0.99243 -0.02731,-0.23711 2.822218,-0.0967 0,7e-5 0,1.5e-4 0,2.3e-4 0,1.9e-4 0,2.6e-4 0,5.3e-4 -2e-6,5.3e-4 -2e-6,0.001 -5e-6,0.002 -3e-6,0.002 -8e-6,0.004 -1.1e-5,0.006 -1.3e-5,0.006 -2.3e-5,0.0113 -3.7e-5,0.017 -3.4e-5,0.0154 -6.6e-5,0.0309 -1.13e-4,0.0463 -7.7e-5,0.0242 -1.51e-4,0.0483 -0.0011,0.0725 -2.64e-4,0.013 -7.94e-4,0.0259 -0.0011,0.0389 -0.0024,0.0726 -0.0053,0.14528 -0.01545,0.21738 -0.0055,0.04 -0.01127,0.08 -0.01815,0.11977 -0.02679,0.14535 -0.06708,0.28837 -0.128672,0.42302 -0.05309,0.1166 -0.116361,0.21242 -0.183462,0.32379 -0.0159,0.0264 0.03623,-0.05 0.05147,-0.0767 0.132646,-0.233 0.09421,-0.1989 0.18611,-0.54059 -0.01842,0.13637 -0.04724,0.27071 -0.09319,0.40061 -0.02748,0.0643 -0.05555,0.12841 -0.08245,0.19298 -0.0041,0.01 0.0097,-0.0192 0.01413,-0.029 0.02101,-0.0463 0.04593,-0.10587 0.05815,-0.15238 0.07722,-0.29414 0.04306,-0.24586 0.03104,-0.64391 -0.03105,-0.12755 -0.06708,-0.24044 -0.14338,-0.35303 0.0227,0.0389 -0.112554,-0.14819 -0.09674,-0.105 0.08141,0.0814 0.16282,0.16281 0.244229,0.24422 1.411111,1.41111 -0.584501,3.40673 -1.995612,1.99562 z"
       inkscape:connector-curvature="0" />
  </g>
</svg>
