<?xml version="1.0" encoding="UTF-8" standalone="no"?>
<svg
   xmlns:dc="http://purl.org/dc/elements/1.1/"
   xmlns:cc="http://creativecommons.org/ns#"
   xmlns:rdf="http://www.w3.org/1999/02/22-rdf-syntax-ns#"
   xmlns:svg="http://www.w3.org/2000/svg"
   xmlns="http://www.w3.org/2000/svg"
   xmlns:sodipodi="http://sodipodi.sourceforge.net/DTD/sodipodi-0.dtd"
   xmlns:inkscape="http://www.inkscape.org/namespaces/inkscape"
   inkscape:version="1.0 (1.0+r73+1)"
   sodipodi:docname="link.svg"
   id="svg8"
   version="1.1"
   viewBox="0 0 64 64"
   height="64mm"
   width="64mm">
  <defs
     id="defs2" />
  <sodipodi:namedview
     inkscape:document-rotation="0"
     inkscape:window-maximized="1"
     inkscape:window-y="27"
     inkscape:window-x="0"
     inkscape:window-height="1016"
     inkscape:window-width="1920"
     inkscape:snap-page="true"
     showgrid="false"
     inkscape:current-layer="layer1"
     inkscape:document-units="mm"
     inkscape:cy="129.30506"
     inkscape:cx="103.96535"
     inkscape:zoom="3"
     inkscape:pageshadow="2"
     inkscape:pageopacity="0.0"
     borderopacity="1.0"
     bordercolor="#666666"
     pagecolor="#ffffff"
     id="base" />
  <metadata
     id="metadata5">
    <rdf:RDF>
      <cc:Work
         rdf:about="">
        <dc:format>image/svg+xml</dc:format>
        <dc:type
           rdf:resource="http://purl.org/dc/dcmitype/StillImage" />
        <dc:title></dc:title>
      </cc:Work>
    </rdf:RDF>
  </metadata>
  <g
     transform="translate(0,-233)"
     id="layer1"
     inkscape:groupmode="layer"
     inkscape:label="Layer 1">
    <rect
       y="233"
       x="0"
       height="64"
       width="64"
       id="rect3713"
       style="fill:#00bcd4;stroke-width:0.26458332;fill-opacity:1" />
    <path
       d="m 5.0623731,237.19779 c -0.1556612,1.39061 -0.1462497,2.79658 -0.1757439,4.19422 -0.07921,3.15931 -0.1268444,6.31832 -0.089006,9.47847 0.051454,2.97763 0.2289434,5.95126 0.5493925,8.91179 0.1171868,0.87812 0.2044996,1.76366 0.3826716,2.63254 0.2056471,0.67912 0.1682184,0.73937 1.4156957,1.16769 0.1589022,0.0546 1.0988725,-0.35498 1.3607857,-0.44951 0.991784,-0.32059 2.0061053,-0.57144 3.0222353,-0.80168 0.380002,-0.0861 0.75972,-0.17439 1.142664,-0.2463 0.425418,-0.0799 0.854429,-0.13926 1.281644,-0.2089 2.290822,-0.31646 4.604238,-0.39781 6.898042,-0.68577 1.979936,-0.24964 1.626889,-3.0497 -0.353047,-2.80006 v 0 c -2.328313,0.29497 -4.678755,0.36446 -7.002742,0.70098 -0.473115,0.0784 -0.948109,0.1461 -1.419345,0.23506 -0.403066,0.0761 -0.802784,0.16913 -1.202787,0.25996 -1.124117,0.25526 -2.2461479,0.53441 -3.3406826,0.89789 -0.3776731,0.14065 -0.4257709,0.14965 -0.759397,0.30207 -0.073598,0.0336 -0.2987109,0.11212 -0.2179675,0.10685 0.2090008,-0.0137 0.4207981,-0.21319 0.6141628,-0.13271 1.2068309,0.50232 1.1603889,0.45831 1.3230071,1.0758 -0.1702448,-0.77549 -0.2203842,-1.5749 -0.3391694,-2.35819 -0.3119485,-2.87064 -0.482051,-5.75424 -0.5331457,-8.6415 -0.037914,-3.12898 0.010517,-6.25681 0.088583,-9.38495 0.0264,-1.2518 0.028914,-2.50752 0.132112,-3.75589 0.3520385,-1.96432 -2.425924,-2.46217 -2.7779626,-0.49786 z"
       id="path893"
       style="fill:#fffffd;fill-opacity:1;fill-rule:nonzero;stroke:none;stroke-width:0.264583" />
    <path
       d="m 25.052565,238.29531 c -0.0025,1.52639 0.005,3.05272 0.02481,4.57898 0.08185,3.48913 0.367539,6.96874 0.5323,10.45425 0.125296,2.52135 0.02858,5.04609 0.120248,7.56788 0.0072,0.12194 0.06271,0.99778 0.06161,1.19181 -5.29e-4,0.0765 -0.0024,0.15522 -0.02543,0.2282 -0.01251,0.0396 -0.0049,-0.0829 -0.0074,-0.12434 -0.649086,1.8871 2.019681,2.80505 2.668765,0.91795 v 0 c 0.05121,-0.19748 0.121213,-0.39102 0.153643,-0.59244 0.09192,-0.57094 -0.02225,-1.15379 -0.03091,-1.72492 -0.0943,-2.53151 0.01042,-5.06652 -0.121497,-7.59756 -0.163632,-3.45327 -0.444939,-6.90076 -0.529384,-10.35749 -0.01945,-1.4929 -0.02617,-2.98583 -0.02529,-4.47886 0.04488,-1.9951 -2.776632,-2.05857 -2.821507,-0.0635 z"
       id="path895"
       style="fill:#fffffd;fill-opacity:1;fill-rule:nonzero;stroke:none;stroke-width:0.264583" />
    <path
       d="m 36.231652,258.93775 c 0.154771,-0.98124 0.213514,-1.97612 0.206383,-2.96905 -0.0029,-0.40718 -0.02257,-0.81406 -0.03384,-1.22109 -0.03141,-0.46802 -0.0569,-0.93647 -0.09422,-1.40405 -0.129934,-1.62785 -0.320622,-3.25074 -0.478745,-4.87593 -0.14609,-1.50153 -0.175765,-1.88773 -0.305713,-3.38396 -0.116443,-1.38416 -0.229423,-2.76863 -0.359997,-4.15156 -0.06655,-0.70477 -0.144542,-1.40821 -0.202549,-2.11374 0.0021,-0.0194 0.0042,-0.0389 0.0063,-0.0584 0.01617,-1.99555 -2.805956,-2.01842 -2.82213,-0.0229 v 0 c 0.0011,0.10467 0.0021,0.20933 0.0033,0.314 0.174231,2.09325 0.419846,4.1807 0.56352,6.27679 0.131972,1.51882 0.161057,1.89856 0.309364,3.42283 0.155147,1.59459 0.341506,3.18688 0.470982,4.7839 0.03495,0.43109 0.05928,0.86296 0.08892,1.29444 0.03736,1.2372 0.06681,2.48224 -0.145058,3.70746 -0.283691,1.97535 2.509869,2.37654 2.793561,0.4012 z"
       id="path897"
       style="fill:#fffffd;fill-opacity:1;fill-rule:nonzero;stroke:none;stroke-width:0.264583" />
    <path
       d="m 33.188931,239.45338 c 0.879366,2.20384 1.663552,4.44501 2.452679,6.68245 1.249868,3.5876 2.326336,7.23191 3.419388,10.86936 0.37655,1.22312 0.7087,2.45884 1.023482,3.69902 0.491149,1.93423 3.226562,1.23964 2.735414,-0.69459 v 0 c -0.325044,-1.27955 -0.667859,-2.55453 -1.056072,-3.81663 -1.105828,-3.67995 -2.195504,-7.36665 -3.460699,-10.99592 -0.671685,-1.90417 -0.649206,-1.85756 -1.314508,-3.68078 -0.175903,-0.48206 -0.352341,-0.96393 -0.532051,-1.44459 -0.161391,-0.43164 -0.490109,-1.3177 -0.711679,-1.78293 -0.08105,-0.17019 -0.182221,-0.33005 -0.273333,-0.49508 -1.173581,-1.61406 -3.456202,0.0456 -2.282621,1.65969 z"
       id="path899"
       style="fill:#fffffd;fill-opacity:1;fill-rule:nonzero;stroke:none;stroke-width:0.264583" />
    <path
       d="m 43.802117,260.45205 c 0.378142,-1.29608 0.308753,-2.6753 0.31931,-4.01128 0.02262,-2.64905 0.202631,-5.29501 0.147616,-7.94505 -0.01439,-0.69314 -0.05348,-1.38554 -0.08022,-2.07831 -0.05367,-0.69459 -0.09802,-1.38997 -0.161002,-2.08378 -0.186547,-2.05511 -0.202629,-1.72175 -0.396835,-3.67023 -0.08755,-0.87837 -0.145037,-1.50151 -0.142994,-2.35755 5.29e-4,-0.20207 0.02,-0.40366 0.02999,-0.60549 0.08659,-1.99373 -2.732971,-2.11619 -2.819564,-0.12246 v 0 c -0.01048,0.26988 -0.03199,0.53954 -0.03147,0.80962 0.004,2.06498 0.359077,4.11333 0.547143,6.16494 0.06029,0.65762 0.103105,1.31673 0.154657,1.9751 0.02604,0.65806 0.06404,1.31575 0.07807,1.97418 0.05628,2.64062 -0.128061,5.27726 -0.147537,7.91697 -0.0079,1.01584 0.03352,2.04867 -0.143703,3.05313 -0.693116,1.87138 1.953413,2.85159 2.646529,0.98021 z"
       id="path901"
       style="fill:#fffffd;fill-opacity:1;fill-rule:nonzero;stroke:none;stroke-width:0.264583" />
    <path
       d="m 48.279669,238.00502 c -0.07022,1.63822 -0.09079,3.27779 -0.11194,4.91721 -0.04559,4.38683 0.05498,8.7733 0.198424,13.15747 0.0706,2.0697 0.04746,1.10309 0.07676,2.89963 0.0329,1.99535 2.854736,1.94882 2.82184,-0.0465 v 0 c -0.03073,-1.84494 -0.0069,-0.86307 -0.07788,-2.94544 -0.142166,-4.34128 -0.242004,-8.68485 -0.197147,-13.02879 0.02101,-1.63243 0.04219,-3.26496 0.111591,-4.89622 0.04055,-1.9952 -2.781091,-2.05254 -2.821638,-0.0573 z"
       id="path903"
       style="fill:#fffffd;fill-opacity:1;fill-rule:nonzero;stroke:none;stroke-width:0.264583" />
    <path
       d="m 50.650147,248.88647 c 0.0048,0.0108 0.0058,0.0244 0.01455,0.0325 0.369512,0.34007 0.131766,0.0413 0.583552,0.55647 0.705292,0.8042 1.264155,1.71277 1.841876,2.60889 0.255108,0.41748 0.512074,0.83383 0.76532,1.25243 0.937644,1.54991 0.613953,1.04384 1.553949,2.582 0.652309,1.06739 1.320826,2.12376 1.962708,3.1975 0.123372,0.24067 0.246742,0.48133 0.370115,0.722 0.916281,1.77282 3.42343,0.47701 2.507149,-1.29582 v 0 c -0.151728,-0.29159 -0.303458,-0.58319 -0.455186,-0.87479 -0.644663,-1.07738 -1.315006,-2.13789 -1.969707,-3.20915 -0.992894,-1.62462 -0.558432,-0.93783 -1.561266,-2.59402 -0.265523,-0.43851 -0.53511,-0.87456 -0.802664,-1.31183 -0.893903,-1.38051 -1.921865,-3.11306 -3.326609,-4.04331 -0.140311,-0.0929 -0.294129,-0.16361 -0.441193,-0.24542 -1.854448,-0.73721 -2.897031,1.88537 -1.042582,2.62259 z"
       id="path905"
       style="fill:#fffffd;fill-opacity:1;fill-rule:nonzero;stroke:none;stroke-width:0.264583" />
    <path
       d="m 51.692584,248.16098 c 0.113575,-0.0723 0.232035,-0.13746 0.340728,-0.21692 0.681458,-0.49817 1.2924,-1.10644 1.885395,-1.70293 0.844579,-0.84954 1.14704,-1.19481 1.987169,-2.10374 2.003234,-2.21625 3.932129,-4.49864 5.967862,-6.6855 1.359484,-1.46091 -0.706562,-3.38351 -2.066047,-1.9226 v 0 c -2.037307,2.19005 -3.971499,4.4722 -5.974794,6.69298 -1.100183,1.19148 -2.189628,2.41393 -3.45132,3.43947 -1.767229,0.92703 -0.456221,3.42627 1.311007,2.49924 z"
       id="path907"
       style="fill:#fffffd;fill-opacity:1;fill-rule:nonzero;stroke:none;stroke-width:0.264583" />
    <path
       d="m 8.9836289,277.18778 c 0.528189,-0.15232 1.0674961,-0.25649 1.6101721,-0.34053 1.458588,-0.14991 2.925835,-0.20544 4.388975,-0.29981 2.683971,-0.20047 5.369278,-0.37269 8.058431,-0.4846 3.224882,-0.10987 6.452386,-0.0651 9.67836,-0.0466 3.065698,0.0121 6.131378,0.0546 9.19697,0.0122 0.298016,-0.005 0.596032,-0.009 0.894048,-0.0142 1.995363,-0.0316 1.950672,-2.85347 -0.04469,-2.82187 v 0 c -0.29619,0.005 -0.592383,0.009 -0.888574,0.0141 -3.047121,0.0425 -6.094349,-0.001 -9.141576,-0.0124 -3.270552,-0.0188 -6.542654,-0.0636 -9.812068,0.0491 -2.710534,0.11315 -5.417287,0.28557 -8.122594,0.488 -1.549021,0.1 -3.103204,0.15388 -4.645979,0.32826 -0.6539631,0.1042 -1.3046111,0.22878 -1.9413761,0.41327 -1.919921,0.5444 -1.150018,3.25958 0.769902,2.71518 z"
       id="path909"
       style="fill:#fffffd;fill-opacity:1;fill-rule:nonzero;stroke:none;stroke-width:0.264583" />
    <path
       d="m 8.9917159,284.29054 c 0.928813,0.0991 1.8641141,0.0996 2.7969711,0.0938 1.980694,-0.043 3.961827,-0.0545 5.942716,-0.0842 2.086861,-0.0366 4.167296,-0.21073 6.248342,-0.35591 1.748078,-0.12195 1.555414,-0.10564 3.290961,-0.20578 2.965112,-0.13301 5.928466,-0.30215 8.893263,-0.44123 1.958366,-0.0897 3.919056,-0.0564 5.878679,-0.0589 0.677905,-0.002 1.35573,-0.0177 2.032971,-0.0477 0.336013,-0.0149 0.671541,-0.0428 1.007845,-0.0482 1.995146,-0.0432 1.934112,-2.86472 -0.06103,-2.82156 v 0 c -0.994468,0.025 -1.987568,0.11591 -2.983537,0.0953 -2.002485,0.003 -4.006051,-0.0308 -6.007224,0.062 -2.974917,0.13967 -5.948407,0.30907 -8.923636,0.44282 -1.759794,0.10167 -1.56441,0.0851 -3.331739,0.20843 -2.027424,0.14144 -4.054189,0.31224 -6.08725,0.34889 -1.972903,0.0296 -3.946056,0.0407 -5.91876,0.0839 -0.806583,0.006 -1.614941,0.007 -2.4186891,-0.0708 -1.979321,-0.25447 -2.3392,2.54471 -0.359879,2.79918 z"
       id="path911"
       style="fill:#fffffd;fill-opacity:1;fill-rule:nonzero;stroke:none;stroke-width:0.264583" />
    <path
       d="m 45.072503,273.71743 c -0.07229,-0.82864 -0.0159,-1.66159 0.02604,-2.49019 0.07329,-1.20745 0.09395,-2.41702 0.13594,-3.62571 0.06915,-1.99441 -2.751376,-2.09221 -2.820527,-0.0978 v 0 c -0.04132,1.1939 -0.06175,2.38866 -0.134051,3.58134 -0.04933,0.98159 -0.108964,1.96845 -0.01177,2.94923 0.224067,1.983 3.028444,1.66612 2.804377,-0.31688 z"
       id="path913"
       style="fill:#fffffd;fill-opacity:1;fill-rule:nonzero;stroke:none;stroke-width:0.264583" />
    <path
       d="m 44.081567,267.09353 c 0.620175,0.55331 1.330385,0.99153 2.008589,1.46818 1.450803,1.05843 2.72955,2.3259 4.000505,3.58817 1.619573,1.66523 3.265795,3.30383 4.910754,4.94384 0.625735,0.63313 1.265635,1.25545 1.80911,1.96223 1.228923,1.57233 3.452532,-0.16563 2.223609,-1.73796 v 0 c -0.115753,-0.14649 -0.226672,-0.29693 -0.347263,-0.43947 -0.529723,-0.62611 -1.121439,-1.19653 -1.69286,-1.78342 -1.646372,-1.6414 -3.293795,-3.28159 -4.914958,-4.94803 -1.384597,-1.37414 -2.781903,-2.749 -4.366914,-3.89493 -0.588541,-0.41304 -1.205727,-0.79207 -1.750385,-1.26332 -1.48826,-1.3295 -3.368448,0.77522 -1.880187,2.10471 z"
       id="path915"
       style="fill:#fffffd;fill-opacity:1;fill-rule:nonzero;stroke:none;stroke-width:0.264583" />
    <path
       d="m 57.664343,277.8057 c -0.59953,0.60374 -1.171053,1.23486 -1.756039,1.85271 -1.24837,1.33094 -2.602818,2.55479 -3.970174,3.76087 -1.772237,1.52506 -3.607781,2.97332 -5.375013,4.50432 -0.897011,0.79358 -1.780159,1.60334 -2.637353,2.43988 -0.318812,0.35481 -0.588952,0.47987 0.260641,-0.0653 0.945684,0.0391 1.368708,-0.10904 1.776682,0.83724 -0.582644,-1.90866 -3.281902,-1.08468 -2.699258,0.82398 v 0 c 0.146924,0.37782 0.235091,0.71098 0.71414,0.90846 0.353872,0.14589 0.763024,0.0618 1.144537,0.0928 0.497832,-0.31461 0.490572,-0.27882 0.774793,-0.57779 0.816914,-0.7979 1.659562,-1.56925 2.514139,-2.32652 1.772979,-1.5371 3.617656,-2.98754 5.393878,-4.52082 1.430361,-1.26237 2.846327,-2.54418 4.152442,-3.93685 0.545905,-0.57667 1.082022,-1.16283 1.635146,-1.7325 1.456982,-1.3637 -0.47158,-3.42418 -1.928561,-2.06049 z"
       id="path917"
       style="fill:#fffffd;fill-opacity:1;fill-rule:nonzero;stroke:none;stroke-width:0.264583" />
    <path
       d="m 43.578686,281.72341 c -0.05616,0.9067 -0.08197,1.81496 -0.12446,2.72237 -0.107444,1.75031 -0.267605,3.49655 -0.366101,5.24748 -0.0092,0.19894 -0.01831,0.39788 -0.02746,0.59683 -0.09148,1.99351 2.727769,2.12289 2.819254,0.12937 v 0 c 0.0087,-0.18933 0.01733,-0.37867 0.02598,-0.568 0.09858,-1.75974 0.262057,-3.51459 0.367456,-5.27386 0.04097,-0.87732 0.06716,-1.75535 0.118793,-2.63212 0.157025,-1.98942 -2.656446,-2.21149 -2.813473,-0.22207 z"
       id="path919"
       style="fill:#fffffd;fill-opacity:1;fill-rule:nonzero;stroke:none;stroke-width:0.264583" />
    <path
       d="m 7.0258169,276.03365 c -0.06725,1.08631 0.02991,2.16896 0.150335,3.2475 0.112689,1.01688 0.0726,0.51704 0.123733,1.49925 0.109718,1.99259 2.9276721,1.83743 2.8179531,-0.15517 v 0 c -0.06555,-1.13937 -0.01821,-0.58631 -0.1371541,-1.65958 -0.105027,-0.92587 -0.194778,-1.85486 -0.136328,-2.78785 0.101925,-1.99301 -2.716614,-2.13715 -2.818539,-0.14415 z"
       id="path921"
       style="fill:#fffffd;fill-opacity:1;fill-rule:nonzero;stroke:none;stroke-width:0.264583" />
  </g>
</svg>
