<?xml version="1.0" encoding="UTF-8" standalone="no"?>
<svg
   xmlns:dc="http://purl.org/dc/elements/1.1/"
   xmlns:cc="http://creativecommons.org/ns#"
   xmlns:rdf="http://www.w3.org/1999/02/22-rdf-syntax-ns#"
   xmlns:svg="http://www.w3.org/2000/svg"
   xmlns="http://www.w3.org/2000/svg"
   xmlns:sodipodi="http://sodipodi.sourceforge.net/DTD/sodipodi-0.dtd"
   xmlns:inkscape="http://www.inkscape.org/namespaces/inkscape"
   inkscape:version="1.0 (1.0+r73+1)"
   sodipodi:docname="map.svg"
   id="svg8"
   version="1.1"
   viewBox="0 0 64 64"
   height="64mm"
   width="64mm">
  <defs
     id="defs2" />
  <sodipodi:namedview
     inkscape:document-rotation="0"
     inkscape:window-maximized="1"
     inkscape:window-y="27"
     inkscape:window-x="0"
     inkscape:window-height="1016"
     inkscape:window-width="1920"
     inkscape:snap-page="true"
     showgrid="false"
     inkscape:current-layer="layer1"
     inkscape:document-units="mm"
     inkscape:cy="129.30506"
     inkscape:cx="103.96535"
     inkscape:zoom="3"
     inkscape:pageshadow="2"
     inkscape:pageopacity="0.0"
     borderopacity="1.0"
     bordercolor="#666666"
     pagecolor="#ffffff"
     id="base" />
  <metadata
     id="metadata5">
    <rdf:RDF>
      <cc:Work
         rdf:about="">
        <dc:format>image/svg+xml</dc:format>
        <dc:type
           rdf:resource="http://purl.org/dc/dcmitype/StillImage" />
        <dc:title></dc:title>
      </cc:Work>
    </rdf:RDF>
  </metadata>
  <g
     transform="translate(0,-233)"
     id="layer1"
     inkscape:groupmode="layer"
     inkscape:label="Layer 1">
    <rect
       y="233"
       x="0"
       height="64"
       width="64"
       id="rect3713"
       style="fill:#795548;stroke-width:0.26458332;fill-opacity:1" />
    <path
       d="m 45.739092,282.65151 c 0.0934,0.10121 0.189727,0.1998 0.280209,0.30363 0.773338,0.88742 1.49079,1.82439 2.205083,2.75914 0.997767,1.30571 1.043673,1.38139 2.013693,2.70229 0.774893,1.04888 1.489385,2.1391 2.190814,3.23761 1.074634,1.68155 3.452714,0.16179 2.37808,-1.51976 v 0 c -0.73511,-1.14937 -1.48305,-2.29061 -2.294289,-3.3885 -0.982607,-1.33761 -1.0467,-1.43826 -2.055882,-2.75827 -0.766947,-1.00317 -1.536602,-2.01129 -2.373934,-2.95777 -0.12642,-0.1429 -0.261403,-0.27799 -0.392104,-0.41698 -1.441514,-1.38004 -3.393184,0.65857 -1.95167,2.03861 z"
       id="path1163"
       style="fill:#ffffff;fill-opacity:1;fill-rule:nonzero;stroke:none;stroke-width:0.264583" />
    <path
       d="m 47.256953,291.25203 c 0.981261,-0.55182 1.819281,-1.3094 2.649054,-2.06061 1.589886,-1.45872 3.17133,-2.92585 4.722995,-4.42523 0.994362,-0.96773 1.984695,-1.93973 2.963854,-2.92286 0.05872,-0.061 0.117449,-0.12202 0.17617,-0.18303 1.382655,-1.43901 -0.652407,-3.39438 -2.035061,-1.95537 v 0 c -0.04696,0.049 -0.09392,0.098 -0.140883,0.14695 -0.966308,0.97047 -1.943996,1.92959 -2.925286,2.88487 -1.530051,1.47873 -3.089846,2.92525 -4.657532,4.36395 -0.661738,0.60107 -1.322747,1.21624 -2.098555,1.67035 -1.754318,0.95123 -0.409073,3.43221 1.345244,2.48098 z"
       id="path1169"
       style="fill:#ffffff;fill-opacity:1;fill-rule:nonzero;stroke:none;stroke-width:0.264583" />
    <path
       d="m 19.382876,270.42601 c 0.499768,-1.38218 0.879254,-2.80222 1.256579,-4.22136 0.905536,-3.47704 1.648504,-6.99278 2.347036,-10.51626 0.265644,-1.26746 0.466501,-2.54886 0.75634,-3.81141 0.04826,-0.21023 0.09519,-0.42146 0.163019,-0.62622 0.0058,-0.0174 0.06634,-0.0307 0.05118,-0.0204 -0.378582,0.25849 -0.761661,0.51032 -1.142491,0.76548 -0.339948,-0.14011 -0.652679,-0.40067 -1.019842,-0.42032 -0.128977,-0.007 0.07274,0.24787 0.109749,0.37161 0.07947,0.26573 0.162021,0.53054 0.239701,0.79679 0.344938,1.18231 0.658773,2.37318 0.975921,3.56314 0.345125,1.26495 0.673553,2.53773 1.132153,3.76801 0.178209,0.47808 0.490363,1.26497 0.8125,1.69452 0.171603,0.22882 0.399088,0.40983 0.598632,0.61474 0.527864,0.0679 1.077158,0.36727 1.583597,0.20365 0.914471,-0.29543 1.211818,-1.37049 1.438148,-2.13326 0.114734,-0.38668 0.200091,-0.78155 0.290531,-1.17462 0.195826,-0.8511 0.426746,-2.02127 0.598127,-2.86681 0.298022,-1.48482 0.59046,-2.97132 0.945301,-4.44395 0.09177,-0.38087 0.384765,-1.55917 0.549532,-1.99721 0.03728,-0.0991 0.110175,-0.18088 0.165261,-0.27132 -0.78631,0.99844 0.01304,0.26863 -1.778735,0.47366 -0.067,0.008 -0.02934,0.13596 -0.01463,0.20177 0.06186,0.27662 0.166658,0.54193 0.242033,0.81518 0.250963,0.90979 0.481356,1.87245 0.707012,2.78523 1.049125,4.23762 1.936308,8.51249 2.905688,12.76847 0.463749,1.8239 0.513728,2.1359 1.058744,3.86309 0.149711,0.47444 0.319317,0.94238 0.478977,1.41357 0.641718,1.88962 3.314047,0.9821 2.672329,-0.90752 v 0 c -0.14882,-0.43717 -0.306954,-0.87128 -0.44646,-1.3115 -0.521582,-1.64591 -0.565262,-1.93115 -1.011857,-3.68446 -0.973423,-4.27289 -1.863812,-8.56486 -2.917743,-12.81922 -0.193241,-0.78102 -0.519049,-2.13275 -0.748258,-2.93435 -0.100295,-0.35075 -0.539599,-1.90824 -0.885023,-2.13962 -0.540229,-0.36187 -1.219091,-0.60654 -1.867829,-0.56249 -0.391252,0.0266 -0.603824,0.50053 -0.905737,0.75079 -0.11892,0.24902 -0.25944,0.48883 -0.356764,0.74706 -0.172215,0.45693 -0.499256,1.77031 -0.597731,2.17965 -0.359783,1.49555 -0.657754,3.00484 -0.960128,4.51271 -0.254119,1.25454 -0.510918,2.50492 -0.812862,3.74885 -0.04093,0.16861 -0.271544,0.4139 -0.124183,0.50549 0.46302,0.2878 1.206825,-1.46262 1.629946,0.1349 -0.0027,0.23322 0.01521,0.24518 -0.251557,-0.30073 -0.12364,-0.253 -0.227307,-0.5156 -0.32638,-0.7792 -0.439134,-1.16836 -0.745871,-2.38008 -1.075624,-3.58194 -0.325207,-1.22003 -0.645749,-2.4416 -1.001537,-3.65321 -0.02774,-0.0945 -0.458181,-1.57278 -0.570226,-1.69737 -0.384223,-0.42727 -0.909218,-0.70289 -1.363827,-1.05433 -0.4864,0.25153 -1.029187,0.41556 -1.459199,0.75459 -0.205359,0.16191 -0.430494,1.18847 -0.471532,1.36748 -0.29179,1.27286 -0.495551,2.56436 -0.762629,3.84224 -0.686644,3.46444 -1.416533,6.92136 -2.306259,10.34027 -0.368565,1.38809 -0.742419,2.77546 -1.229931,4.12763 -0.57875,1.90984 2.122183,2.72832 2.700933,0.81847 z"
       id="path1173"
       style="fill:#ffffff;fill-opacity:1;fill-rule:nonzero;stroke:none;stroke-width:0.264583" />
    <path
       d="m 42.369034,272.29992 c 0.590021,-1.29574 0.898994,-2.69329 1.199838,-4.0776 0.413081,-2.12498 0.655198,-4.27737 1.017249,-6.41096 0.101685,-0.54498 0.138459,-0.76242 0.247727,-1.27971 0.02835,-0.13421 0.05532,-0.26884 0.08974,-0.40162 0.01291,-0.0499 0.07999,-0.1888 0.05208,-0.1455 -0.692507,1.07436 0.169886,0.51659 -2.174653,0.57265 -0.0049,0.0358 -0.02566,0.0729 -0.01479,0.10727 0.07365,0.23301 0.178779,0.45489 0.264776,0.68363 0.128085,0.34068 0.253784,0.68227 0.377447,1.02458 0.479624,1.32765 0.91921,2.66427 1.340845,4.0113 0.50728,1.66047 0.898435,3.35235 1.253929,5.05068 0.40907,1.95323 3.171362,1.37472 2.762292,-0.57852 v 0 c -0.374591,-1.78768 -0.788122,-3.56822 -1.323049,-5.31582 -0.4362,-1.39141 -0.89001,-2.77249 -1.386025,-4.14389 -0.07974,-0.22047 -0.588732,-1.61704 -0.728816,-1.91694 -0.126539,-0.2709 -0.285924,-0.52521 -0.428886,-0.78782 -0.715442,-0.0873 -1.435341,-0.38004 -2.146327,-0.26183 -0.280138,0.0466 -0.348387,0.45127 -0.486275,0.69953 -0.06546,0.11786 -0.08343,0.25659 -0.117261,0.38709 -0.15553,0.59996 -0.240681,1.21713 -0.365299,1.82339 -0.354026,2.09185 -0.596622,4.20095 -0.993082,6.28561 -0.256564,1.19139 -0.511829,2.39839 -1.014656,3.51536 -0.819624,1.81953 1.753582,2.97865 2.573203,1.15912 z"
       id="path1175"
       style="fill:#ffffff;fill-opacity:1;fill-rule:nonzero;stroke:none;stroke-width:0.264583" />
    <path
       d="m 43.219373,268.83968 c 0.695365,-0.25868 1.435315,-0.35813 2.167382,-0.44877 1.979653,-0.25188 1.623439,-3.05153 -0.356213,-2.79965 v 0 c -1.047565,0.13615 -2.109169,0.29298 -3.08165,0.72834 -1.781969,0.89837 -0.511485,3.41845 1.270481,2.52008 z"
       id="path1177"
       style="fill:#ffffff;fill-opacity:1;fill-rule:nonzero;stroke:none;stroke-width:0.264583" />
    <path
       d="m 50.718199,259.52285 c 0.299257,2.0261 0.462556,4.06939 0.644507,6.10846 0.123447,1.34884 0.235135,2.70045 0.440555,4.04009 0.04481,0.29222 0.103328,0.58217 0.15499,0.87326 0.351565,1.9644 3.129648,1.46722 2.778083,-0.49718 v 0 c -0.04546,-0.25162 -0.09734,-0.50216 -0.136385,-0.75485 -0.200393,-1.29701 -0.305842,-2.60617 -0.426193,-3.91219 -0.185278,-2.07588 -0.352439,-4.15595 -0.656532,-6.21869 -0.255336,-1.97921 -3.054363,-1.61811 -2.799025,0.3611 z"
       id="path1179"
       style="fill:#ffffff;fill-opacity:1;fill-rule:nonzero;stroke:none;stroke-width:0.264583" />
    <path
       d="m 53.066186,260.30653 c -0.0083,0.0114 -0.0389,0.0352 -0.02484,0.0342 0.0531,-0.004 0.10215,-0.0301 0.153691,-0.0435 0.125783,-0.0326 0.251124,-0.0673 0.378224,-0.0943 0.185262,-0.0394 0.370928,-0.0782 0.558467,-0.10464 0.628795,-0.0887 0.697902,-0.0673 1.334944,-0.0704 0.603131,0.0505 1.208625,0.20769 1.581153,0.72342 0.14102,0.19524 0.15525,0.31018 0.221565,0.53364 -6.1e-5,0.0743 0.01852,0.15108 -1.83e-4,0.22303 -0.0063,0.0244 -0.207687,0.23355 -0.216093,0.24194 -0.213675,0.21322 -0.377984,0.36557 -0.632563,0.54962 -0.159337,0.11519 -0.329298,0.21493 -0.493945,0.32239 -0.424929,0.27016 -0.810784,0.37956 -1.292313,0.47273 -1.946021,0.44212 -1.320768,3.19421 0.625253,2.75209 v 0 c 0.234249,-0.0572 0.472977,-0.0985 0.702752,-0.17162 0.739434,-0.23538 0.863486,-0.34583 1.550471,-0.71888 0.610336,-0.4252 0.988301,-0.63761 1.494251,-1.20004 0.70599,-0.7848 1.108122,-1.64733 1.044405,-2.72174 -0.01712,-0.28876 -0.121684,-0.56559 -0.182528,-0.84838 -0.330359,-0.70928 -0.370866,-0.94219 -0.927719,-1.52766 -0.682048,-0.71709 -1.580811,-1.1549 -2.543527,-1.34633 -0.31936,-0.0635 -0.647364,-0.0708 -0.971044,-0.10615 -0.313915,0.007 -0.628452,-10e-4 -0.941748,0.0197 -0.849741,0.0564 -1.965481,0.2436 -2.746565,0.61175 -0.127294,0.06 -0.243607,0.14095 -0.365411,0.21143 -1.596496,1.19736 0.09682,3.45515 1.69332,2.25779 z"
       id="path1181"
       style="fill:#ffffff;fill-opacity:1;fill-rule:nonzero;stroke:none;stroke-width:0.264583" />
    <path
       d="m 66.2439,238.98353 c -0.61619,0.27072 -1.214607,0.58034 -1.819933,0.87429 -1.014188,0.49774 -2.087735,0.85822 -3.186073,1.11783 -0.282242,0.0667 -0.567156,0.12158 -0.850734,0.18236 -1.263123,0.24038 -2.54831,0.37069 -3.834796,0.36005 -0.820248,-0.007 -1.152306,-0.0482 -1.970342,-0.1138 -2.119884,-0.22194 -4.209084,-0.65611 -6.29571,-1.0792 -2.200034,-0.44124 -4.397089,-0.89695 -6.594917,-1.34898 -1.52632,-0.31125 -3.06583,-0.56123 -4.618066,-0.6993 -1.040926,-0.0926 -1.387417,-0.0948 -2.429925,-0.13834 -2.465438,-0.0665 -4.926158,0.13728 -7.382693,0.3164 -1.64276,0.11923 -3.285637,0.25667 -4.915728,0.49795 -1.069976,0.15837 -1.333662,0.22133 -2.385796,0.42512 -1.45665,0.30833 -2.893141,0.714 -4.287485,1.23751 -0.846531,0.31783 -1.094757,0.44134 -1.912977,0.8033 -1.386923,0.6526 -2.734664,1.408 -3.9371386,2.36457 -0.2256083,0.17947 -0.4399277,0.3727 -0.6598917,0.55904 -0.8124068,0.74179 -1.5296705,1.59022 -2.0625374,2.55627 -0.3437377,0.62317 -0.399787,0.83251 -0.6579005,1.49533 -0.5748954,1.63682 -0.7792307,3.36031 -0.9160465,5.07952 -0.1094557,1.92581 -0.2527244,3.84944 -0.3651303,5.77504 -0.085433,1.8507 -0.1676267,3.70149 -0.2616543,5.55179 -0.1167128,1.93104 -0.1983931,3.8634 -0.2453635,5.79733 -0.020042,1.7428 -0.074229,3.48762 -0.00591,5.23012 0.0142,0.36222 0.03904,0.72393 0.05856,1.0859 0.1164741,1.46295 0.3247089,2.92196 0.6862691,4.34577 0.2422287,0.95388 0.3382135,1.17677 0.6539291,2.10693 0.5409901,1.3946 1.1810561,2.7628 1.9937611,4.02226 0.61576,0.95425 0.8298965,1.17691 1.5393791,2.06699 1.0561894,1.21954 2.2511034,2.32913 3.6515014,3.1445 0.830129,0.48334 1.072163,0.54153 1.952078,0.88937 1.256268,0.42131 2.574317,0.58624 3.894814,0.60406 0.73889,0.01 1.091525,-0.0217 1.823554,-0.0619 1.350258,-0.1075 2.701757,-0.2782 4.014981,-0.61943 0.242202,-0.0629 0.481227,-0.13752 0.72184,-0.20628 1.307846,-0.40818 2.551977,-0.98506 3.762372,-1.62091 0.968026,-0.5164 1.872279,-1.13932 2.779779,-1.75298 0.681688,-0.46659 1.377828,-0.91116 2.096211,-1.31901 0.571061,-0.3245 1.193472,-0.53493 1.817259,-0.73099 0.889828,-0.2659 1.799466,-0.45665 2.71421,-0.61278 0.898993,-0.15103 1.811684,-0.11566 2.718504,-0.092 0.495776,0.0148 0.99151,0.0322 1.487061,0.0533 0.07813,0.003 0.649991,0.0166 0.782585,0.0642 0.05471,0.0197 -0.116145,0.006 -0.174215,0.008 1.775126,0.91181 3.064618,-1.5986 1.289492,-2.51041 v 0 c -0.25772,-0.0998 -0.506794,-0.22567 -0.773161,-0.29932 -0.170738,-0.0472 -0.351432,-0.046 -0.527989,-0.0605 -0.668059,-0.0546 -1.341533,-0.0398 -2.010481,-0.077 -1.091306,-0.0282 -2.188554,-0.0557 -3.269295,0.13173 -1.040305,0.17947 -2.07509,0.39675 -3.08633,0.70301 -0.813171,0.25765 -1.62016,0.54377 -2.363401,0.96939 -0.78078,0.44514 -1.540127,0.92566 -2.281373,1.43405 -0.821774,0.55571 -1.638699,1.12289 -2.513589,1.59357 -1.039437,0.54858 -2.107426,1.04754 -3.229014,1.40629 -0.546156,0.15894 -0.651348,0.19995 -1.214348,0.32084 -0.954778,0.20502 -1.927049,0.32023 -2.899504,0.399 -1.523597,0.0879 -3.067817,0.11357 -4.540066,-0.3559 -0.642618,-0.24231 -0.838005,-0.28861 -1.446651,-0.6324 -1.144915,-0.64668 -2.111214,-1.55156 -2.974023,-2.53424 -0.584958,-0.7263 -0.810431,-0.96795 -1.315826,-1.74417 -0.7115754,-1.09287 -1.2716581,-2.28212 -1.7492416,-3.49262 -0.2729235,-0.79418 -0.363175,-1.00563 -0.572648,-1.8201 -0.3263429,-1.26889 -0.5130903,-2.56998 -0.6203839,-3.87438 -0.018415,-0.3341 -0.041894,-0.66795 -0.055245,-1.00228 -0.067745,-1.69635 -0.012512,-3.39509 0.00595,-5.09176 0.046195,-1.90899 0.1273712,-3.81637 0.242556,-5.72251 0.093663,-1.84326 0.1758473,-3.687 0.2605024,-5.53068 0.1111117,-1.90651 0.2536608,-3.81102 0.361206,-5.71777 0.1129257,-1.45055 0.2707698,-2.90698 0.7387293,-4.29343 0.1648841,-0.44302 0.216226,-0.62687 0.4356471,-1.04089 0.375431,-0.70839 0.8939737,-1.3271 1.4794807,-1.87065 0.486193,-0.41771 0.57492,-0.51281 1.105173,-0.8899 0.879221,-0.62527 1.831345,-1.14083 2.805151,-1.60158 0.725327,-0.3226 0.96059,-0.43944 1.709876,-0.72248 1.262934,-0.47708 2.564504,-0.8465 3.884487,-1.12776 0.973205,-0.18957 1.230307,-0.25072 2.220245,-0.39805 1.574462,-0.23432 3.161635,-0.36532 4.748458,-0.48073 2.349608,-0.17135 4.703058,-0.36935 7.06121,-0.31131 0.961681,0.0391 1.291614,0.0412 2.24999,0.12515 1.460876,0.12791 2.90943,0.36407 4.345684,0.65701 2.200418,0.45256 4.400058,0.90882 6.602685,1.35058 2.198608,0.44571 4.400521,0.9006 6.635101,1.12678 0.945386,0.0731 1.298419,0.11763 2.250554,0.12188 1.467017,0.007 2.932105,-0.14497 4.371766,-0.42304 0.323474,-0.0703 0.648507,-0.13383 0.970426,-0.21096 1.276649,-0.30591 2.523278,-0.73223 3.703555,-1.30921 0.539882,-0.26226 1.07542,-0.53379 1.619843,-0.78651 1.85716,-0.73036 0.82428,-3.35678 -1.032881,-2.62642 z"
       id="path1185"
       style="fill:#ffffff;fill-opacity:1;fill-rule:nonzero;stroke:none;stroke-width:0.264583" />
  </g>
</svg>
