<?xml version="1.0" encoding="UTF-8" standalone="no"?>
<svg
   xmlns:dc="http://purl.org/dc/elements/1.1/"
   xmlns:cc="http://creativecommons.org/ns#"
   xmlns:rdf="http://www.w3.org/1999/02/22-rdf-syntax-ns#"
   xmlns:svg="http://www.w3.org/2000/svg"
   xmlns="http://www.w3.org/2000/svg"
   xmlns:sodipodi="http://sodipodi.sourceforge.net/DTD/sodipodi-0.dtd"
   xmlns:inkscape="http://www.inkscape.org/namespaces/inkscape"
   inkscape:version="1.0 (1.0+r73+1)"
   sodipodi:docname="movies.svg"
   id="svg8"
   version="1.1"
   viewBox="0 0 64 64"
   height="64mm"
   width="64mm">
  <defs
     id="defs2" />
  <sodipodi:namedview
     inkscape:document-rotation="0"
     inkscape:window-maximized="1"
     inkscape:window-y="27"
     inkscape:window-x="0"
     inkscape:window-height="1016"
     inkscape:window-width="1920"
     inkscape:snap-page="true"
     showgrid="false"
     inkscape:current-layer="layer1"
     inkscape:document-units="mm"
     inkscape:cy="110.27027"
     inkscape:cx="68.750268"
     inkscape:zoom="3"
     inkscape:pageshadow="2"
     inkscape:pageopacity="0.0"
     borderopacity="1.0"
     bordercolor="#666666"
     pagecolor="#ffffff"
     id="base" />
  <metadata
     id="metadata5">
    <rdf:RDF>
      <cc:Work
         rdf:about="">
        <dc:format>image/svg+xml</dc:format>
        <dc:type
           rdf:resource="http://purl.org/dc/dcmitype/StillImage" />
        <dc:title></dc:title>
      </cc:Work>
    </rdf:RDF>
  </metadata>
  <g
     transform="translate(0,-233)"
     id="layer1"
     inkscape:groupmode="layer"
     inkscape:label="Layer 1">
    <rect
       y="233"
       x="0"
       height="64"
       width="64"
       id="rect3713"
       style="fill:#f44336;stroke-width:0.26458332;fill-opacity:1" />
    <path
       d="m 9.8615356,233.52261 c 0.071051,0.656 0.2097444,1.30204 0.3258584,1.95096 0.153126,0.86548 0.181756,1.74542 0.246923,2.62014 0.115116,0.95605 0.2372,1.90902 0.29798,2.87042 0.04579,0.84988 0.05359,1.70127 0.04242,2.55213 -0.0282,0.91654 -0.05457,1.83317 -0.08502,2.74966 -0.04571,1.05341 -0.07343,2.10743 -0.105982,3.1613 -0.03766,1.00715 -0.05987,2.01469 -0.07386,3.02241 -0.01353,1.17285 -0.01782,2.34578 -0.02133,3.5187 -0.008,1.30971 0.0062,2.61932 0.03098,3.92877 0.02721,1.26885 0.06503,2.53743 0.09165,3.80629 0.02791,1.36305 0.02783,2.72631 0.01204,4.08948 -0.02656,1.6143 -0.04273,3.22874 -0.05432,4.84322 -0.004,1.69201 -0.01752,3.38389 -0.0407,5.07574 -0.02482,1.64929 -0.03567,3.29874 -0.04243,4.94819 -0.0052,1.54412 -0.0054,3.08825 -0.0056,4.63238 0.0028,1.41069 -0.0014,2.82135 -0.01474,4.23198 -0.0084,1.28441 -0.086,2.56675 -0.139626,3.8497 -0.04319,1.10349 -0.05942,2.20777 -0.06886,3.31199 -0.02365,0.97203 -0.250874,0.56047 1.493926,-0.74499 -1.9824985,-0.2284 -2.3055061,2.57527 -0.323007,2.80367 v 0 c 0.525336,-0.37607 1.086632,-0.70641 1.576008,-1.12822 0.0686,-0.0591 0.03335,-0.17817 0.044,-0.2681 0.02687,-0.227 0.02545,-0.40778 0.03119,-0.6383 0.0091,-1.07296 0.02471,-2.146 0.0665,-3.21826 0.05482,-1.31329 0.133959,-2.62598 0.141959,-3.94077 0.01342,-1.41942 0.01773,-2.83886 0.01487,-4.25833 2.01e-4,-1.5404 3.71e-4,-3.0808 0.0055,-4.62119 0.0067,-1.64042 0.01749,-3.28084 0.04219,-4.9211 0.02325,-1.69799 0.03692,-3.39599 0.04089,-5.09414 0.01155,-1.61037 0.02772,-3.2207 0.0542,-4.8309 0.01603,-1.39376 0.01614,-2.78763 -0.01247,-4.18127 -0.0266,-1.26691 -0.06422,-2.53354 -0.09153,-3.80044 -0.02441,-1.28885 -0.03842,-2.57787 -0.03049,-3.86697 0.0035,-1.16269 0.0077,-2.3254 0.02107,-3.48802 0.01372,-0.99171 0.03567,-1.98325 0.07278,-2.97439 0.03248,-1.0517 0.06017,-2.10354 0.105774,-3.15479 0.03104,-0.93564 0.05835,-1.87142 0.08634,-2.80713 0.01156,-0.92291 0.0031,-1.84639 -0.04793,-2.76817 -0.06258,-0.97129 -0.175737,-1.93566 -0.300077,-2.90074 -0.07271,-0.971 -0.107968,-1.94741 -0.283281,-2.90746 -0.102014,-0.5692 -0.222743,-1.13588 -0.293358,-1.71012 -0.181493,-1.98734 -2.9920195,-1.73067 -2.8105264,0.25667 z"
       id="path2171"
       style="fill:#ffffff;fill-opacity:1;fill-rule:nonzero;stroke:none;stroke-width:0.264583" />
    <path
       d="m 51.240692,231.98616 c -0.0058,0.55963 -0.0064,1.1193 -0.0073,1.67896 -0.0011,0.84214 -0.0011,1.68428 -0.0011,2.52643 0.01725,0.96852 -0.05427,1.93453 -0.115483,2.90025 -0.07071,1.31186 -0.13113,2.62435 -0.180231,3.9372 -0.05538,1.77249 -0.08314,3.54573 -0.113105,5.31879 -0.02254,1.67858 -0.100266,3.35559 -0.157006,5.03317 -0.05184,1.55151 -0.06332,3.10385 -0.0633,4.65608 0.0269,1.44599 -0.01847,2.89023 -0.09336,4.33397 -0.102516,1.49139 -0.08916,2.98498 -0.03748,4.47773 0.05963,1.36154 0.08834,2.72397 0.105328,4.08661 0.01521,1.53348 0.05302,3.06657 0.113792,4.59888 0.08605,1.95253 0.259371,3.89959 0.414666,5.84741 0.147973,1.85588 0.21064,3.71697 0.283617,5.57688 0.05742,1.4993 0.10455,2.99893 0.175175,4.49768 0.05283,0.94509 0.08362,1.89106 0.0997,2.83742 0.0055,0.36915 0.0086,0.73835 0.0039,1.10751 -0.0042,0.25965 -0.02791,0.52505 0.04105,0.77978 0.03603,0.13306 0.09455,0.25899 0.141822,0.38849 0.235363,0.35847 0.117483,0.21295 0.333624,0.45136 0.0065,0.007 0.02678,0.0279 0.0195,0.0215 -0.03655,-0.0319 -0.06385,-0.0727 -0.09085,-0.11246 -0.05732,-0.0936 -0.08324,-0.2029 -0.103789,-0.30889 7.94e-4,0.15703 -8e-6,0.31406 -2.64e-4,0.4711 -5.29e-4,0.2205 -7.94e-4,0.44099 -0.0011,0.66149 -8.2e-5,0.18283 -8.7e-5,0.36566 -8.7e-5,0.54849 0.0038,0.0279 -0.0026,0.0562 5e-6,0.0842 0.0088,0.0955 -0.0657,0.27336 0.02936,0.28631 2.678316,0.36503 2.475333,0.9606 2.760704,0.0391 0.589241,-1.90664 -2.107152,-2.73995 -2.696392,-0.83331 v 0 c -0.292161,0.94681 0.0339,-0.19124 2.701449,0.23251 0.09104,0.0145 0.01683,0.1836 0.0271,0.27521 0.0031,0.0278 -0.0047,-0.13976 -3e-6,-0.084 -2e-6,-0.18226 3e-6,-0.36452 8.5e-5,-0.54678 1.3e-4,-0.21881 5.29e-4,-0.43761 0.0011,-0.65641 5.29e-4,-0.20745 0.0034,-0.41501 -0.0033,-0.62239 -0.01958,-0.31757 -0.08416,-0.62904 -0.242978,-0.9087 -0.04944,-0.0844 -0.297603,-0.48528 -0.378097,-0.5155 -0.10219,-0.0383 0.65105,0.53244 0.178112,0.27479 0.02883,0.0919 0.0646,0.18184 0.08648,0.27561 0.01161,0.0498 0.01019,0.10181 0.01349,0.15285 2.57e-4,0.004 -0.0028,0.0155 -0.0028,0.0115 -0.0011,-0.11033 0.0084,-0.22071 0.0079,-0.33103 0.0048,-0.3968 0.0021,-0.79364 -0.0042,-1.19042 -0.01667,-0.97464 -0.04818,-1.9489 -0.102423,-2.92224 -0.07037,-1.49132 -0.116888,-2.98354 -0.174212,-4.4754 -0.07447,-1.89783 -0.13902,-3.79684 -0.290378,-5.69054 -0.152328,-1.91045 -0.322701,-3.82013 -0.407961,-5.73516 -0.06,-1.50671 -0.09671,-3.0142 -0.111786,-4.52205 -0.0173,-1.38358 -0.04641,-2.76696 -0.106812,-4.14943 -0.04927,-1.41141 -0.06301,-2.82352 0.03541,-4.23364 0.07724,-1.4924 0.124124,-2.9854 0.09714,-4.48009 -7.1e-5,-1.52042 0.01095,-3.04094 0.06168,-4.56064 0.05723,-1.69347 0.135647,-3.38636 0.158219,-5.08084 0.02964,-1.75386 0.05708,-3.50788 0.11154,-5.26118 0.04803,-1.28843 0.107641,-2.57649 0.176543,-3.86397 0.06498,-1.02511 0.138478,-2.05061 0.121137,-3.07864 4.5e-5,-0.84057 2.1e-5,-1.68114 0.0011,-2.52171 0.0011,-0.54926 0.0016,-1.09854 0.0071,-1.64777 0.02551,-1.99545 -2.796501,-2.0315 -2.821993,-0.036 z"
       id="path2175"
       style="fill:#ffffff;fill-opacity:1;fill-rule:nonzero;stroke:none;stroke-width:0.264583" />
    <path
       d="m 56.148464,237.42325 c 1.047642,0.16659 2.105083,0.26664 3.158016,0.39499 1.959224,0.25347 3.924398,0.45611 5.887244,0.67855 0.595077,0.0656 1.188863,0.13973 1.779659,0.23638 1.969963,0.31892 2.420988,-2.46703 0.451022,-2.78595 v 0 c -0.635352,-0.10197 -1.273037,-0.18582 -1.91293,-0.25471 -1.954963,-0.22149 -3.912237,-0.42333 -5.863589,-0.67576 -0.982917,-0.11975 -1.969125,-0.21765 -2.948753,-0.36148 -1.957255,-0.38938 -2.507924,2.3786 -0.550669,2.76798 z"
       id="path2177"
       style="fill:#ffffff;fill-opacity:1;fill-rule:nonzero;stroke:none;stroke-width:0.264583" />
    <path
       d="m 54.2965,236.00884 c -0.212521,0.8188 -0.318305,1.66202 -0.448837,2.49685 -0.248086,1.42255 -0.419801,2.85506 -0.532574,4.29419 -0.04588,0.71199 -0.02236,0.38866 -0.0679,0.97019 -0.155125,1.98958 2.658557,2.20896 2.813682,0.21938 v 0 c 0.04716,-0.60724 0.024,-0.28386 0.0679,-0.97024 0.105929,-1.36676 0.27141,-2.72671 0.507233,-4.07754 0.10599,-0.67789 0.206193,-1.35713 0.334783,-2.03111 0.637614,-1.89101 -2.036678,-2.79273 -2.674292,-0.90172 z"
       id="path2179"
       style="fill:#ffffff;fill-opacity:1;fill-rule:nonzero;stroke:none;stroke-width:0.264583" />
    <path
       d="m 54.948293,245.55066 c 1.668804,0.13088 3.344923,0.13852 5.017706,0.17715 1.460286,0.0404 2.920527,0.0838 4.380513,0.13398 0.760339,0.0261 1.730031,0.0539 2.502419,0.11837 0.25727,0.0215 0.512826,0.06 0.769242,0.09 1.982687,0.22675 2.303367,-2.57719 0.320677,-2.80395 v 0 c -0.306903,-0.0344 -0.612934,-0.0778 -0.92071,-0.10324 -0.796444,-0.0658 -1.793142,-0.0949 -2.580685,-0.12197 -1.46858,-0.0505 -2.937417,-0.0942 -4.406299,-0.1347 -1.593975,-0.0368 -3.190793,-0.0454 -4.781476,-0.16177 -1.984201,-0.21311 -2.285587,2.59297 -0.301387,2.80609 z"
       id="path2181"
       style="fill:#ffffff;fill-opacity:1;fill-rule:nonzero;stroke:none;stroke-width:0.264583" />
    <path
       d="m 53.501988,247.12735 c 0.111733,0.0338 0.221943,0.0731 0.3352,0.10137 0.561737,0.1402 1.140863,0.20017 1.71531,0.2596 0.490826,0.0508 1.097722,0.10261 1.584402,0.14575 1.859102,0.16574 3.718491,0.32828 5.579496,0.47124 0.676696,0.0659 1.359038,0.0685 2.035204,0.14076 0.36172,0.0386 0.272598,-0.0161 0.422452,0.10289 1.88612,0.65193 2.808095,-2.01544 0.921975,-2.66738 v 0 c -0.192513,-0.0577 -0.381312,-0.12962 -0.577543,-0.17298 -0.18126,-0.0401 -0.367024,-0.0569 -0.551622,-0.0765 -0.675944,-0.0718 -1.357849,-0.0759 -2.034362,-0.1407 -1.850001,-0.14204 -3.69837,-0.30382 -5.546479,-0.4685 -0.96144,-0.0852 -1.933263,-0.1414 -2.880593,-0.33333 -1.865215,-0.70954 -2.868655,1.92827 -1.00344,2.63781 z"
       id="path2183"
       style="fill:#ffffff;fill-opacity:1;fill-rule:nonzero;stroke:none;stroke-width:0.264583" />
    <path
       d="m 53.154757,247.07332 c 0.0095,0.84588 0.05141,1.69088 0.08738,2.53592 0.06032,1.31155 0.09374,2.62392 0.07809,3.93679 -0.01035,0.49776 -0.03015,0.99526 -0.05123,1.49266 -0.0091,0.21439 7.93e-4,0.47209 -0.03971,0.68621 -0.241925,1.9809 2.559484,2.32303 2.801405,0.34213 v 0 c 0.08892,-0.82541 0.07264,-1.65991 0.111567,-2.48834 0.01535,-1.36377 -0.01722,-2.72706 -0.08045,-4.08946 -0.03542,-0.83227 -0.07673,-1.66447 -0.08601,-2.49756 -0.05774,-1.99478 -2.878775,-1.91313 -2.82104,0.0816 z"
       id="path2185"
       style="fill:#ffffff;fill-opacity:1;fill-rule:nonzero;stroke:none;stroke-width:0.264583" />
    <path
       d="m 55.369581,256.96781 c 1.116817,-0.12676 2.239801,-0.18833 3.359801,-0.28054 2.5009,-0.25412 4.99183,-0.59506 7.489751,-0.87671 1.116671,-0.12241 0.597685,-0.0642 1.55707,-0.17366 1.982737,-0.22632 1.662673,-3.03033 -0.320064,-2.80401 v 0 c -0.949772,0.10843 -0.432051,0.0503 -1.553287,0.17323 -2.469811,0.27859 -4.93287,0.61417 -7.405301,0.86847 -1.157359,0.0955 -2.3179,0.15837 -3.471746,0.29201 -1.98075,0.24309 -1.636974,3.04429 0.343776,2.80121 z"
       id="path2187"
       style="fill:#ffffff;fill-opacity:1;fill-rule:nonzero;stroke:none;stroke-width:0.264583" />
    <path
       d="m 53.7632,256.58762 c -0.210865,-0.0124 -0.421915,-0.0236 -0.633187,-0.024 0.01209,0.94147 -0.04802,1.88664 0.0363,2.82441 0.0065,0.0724 0.145319,0.003 0.21799,0.004 0.11693,0.001 0.233868,0.002 0.350803,0.002 0.645432,0.003 1.290865,0.004 1.936297,0.007 2.079334,0.0299 4.158047,0.0898 6.237317,0.1254 1.010105,0.0147 2.020218,0.0297 3.03041,0.0367 0.411166,0.003 0.937848,-0.0266 1.351175,0.0271 1.986629,0.18913 2.254096,-2.62039 0.267467,-2.80952 v 0 c -0.531945,-0.0435 -1.059289,-0.0359 -1.593157,-0.0396 -1.002609,-0.007 -2.005142,-0.0219 -3.007664,-0.0364 -2.090693,-0.0357 -4.180816,-0.0964 -6.271585,-0.12578 -0.643766,-0.003 -1.287529,-0.004 -1.931292,-0.007 -0.108752,-5e-4 -0.217503,-0.001 -0.326253,-0.002 -0.05024,-4.3e-4 -0.145703,-0.0519 -0.150717,-0.002 -0.09381,0.9356 -0.08775,1.87854 -0.131625,2.81781 0.149138,0.002 0.298437,0.0103 0.447429,0.0189 1.991977,0.12042 2.162268,-2.69666 0.170291,-2.81708 z"
       id="path2189"
       style="fill:#ffffff;fill-opacity:1;fill-rule:nonzero;stroke:none;stroke-width:0.264583" />
    <path
       d="m 60.937835,258.28543 c 1.163037,-0.21404 2.341105,-0.33784 3.518112,-0.44488 0.759185,-0.0308 0.409032,-0.0319 1.050417,-0.01 1.994926,0.0523 2.06892,-2.76893 0.07399,-2.82125 v 0 c -0.88233,-0.0184 -0.421912,-0.0228 -1.381162,0.0208 -1.342744,0.12318 -2.690635,0.25818 -4.011729,0.53476 -1.923783,0.53059 -1.173416,3.25123 0.750369,2.72064 z"
       id="path2191"
       style="fill:#ffffff;fill-opacity:1;fill-rule:nonzero;stroke:none;stroke-width:0.264583" />
    <path
       d="m 52.849327,259.25115 c -0.0016,0.66231 -0.0059,1.32413 -0.03495,1.98586 -0.11529,1.24637 -0.233926,2.49271 -0.364646,3.73759 -0.08043,0.6698 -0.154027,1.34069 -0.254691,2.00785 -0.01381,0.0785 -0.02331,0.15775 -0.03718,0.23625 -0.332992,1.96764 2.449663,2.43856 2.782654,0.47093 v 0 c 0.01595,-0.0957 0.03023,-0.19172 0.04538,-0.28758 0.106254,-0.70884 0.186439,-1.42127 0.270656,-2.13298 0.136522,-1.30245 0.263411,-2.60622 0.377441,-3.91077 0.02912,-0.6896 0.03682,-1.37918 0.03731,-2.06936 0.02672,-1.99543 -2.795249,-2.03322 -2.821969,-0.0378 z"
       id="path2193"
       style="fill:#ffffff;fill-opacity:1;fill-rule:nonzero;stroke:none;stroke-width:0.264583" />
    <path
       d="m 53.728754,267.49741 c 1.40484,0.27942 2.853764,0.22718 4.277889,0.19322 2.406354,-0.0994 4.80282,-0.34796 7.2038,-0.52688 0.878128,-0.0478 0.479721,-0.0387 1.194858,-0.0401 1.995583,-0.0111 1.97996,-2.83322 -0.01564,-2.82218 v 0 c -0.872435,0.007 -0.409311,-0.006 -1.389126,0.0479 -2.354096,0.1757 -4.703816,0.41815 -7.062933,0.51991 -1.153541,0.029 -2.317282,0.0665 -3.463756,-0.0939 -1.924804,-0.52687 -2.669913,2.19521 -0.745109,2.72208 z"
       id="path2195"
       style="fill:#ffffff;fill-opacity:1;fill-rule:nonzero;stroke:none;stroke-width:0.264583" />
    <path
       d="m 53.602855,270.53014 c 0.864439,0.0417 1.729856,0.0553 2.595176,0.0599 1.958451,-0.008 3.913042,-0.14874 5.863775,-0.31047 1.683258,-0.11782 3.352091,-0.40741 5.037093,-0.49749 0.288874,0.0285 0.314372,0.0222 0.0746,0.0252 1.880897,0.66685 2.823972,-1.99314 0.943073,-2.65999 v 0 c -0.796838,-0.20613 -0.404077,-0.15038 -1.175933,-0.18303 -1.709909,0.0997 -3.404626,0.37123 -5.112247,0.50272 -1.86831,0.15521 -3.740269,0.29156 -5.615972,0.30084 -0.808889,-0.004 -1.617757,-0.0172 -2.425906,-0.054 -1.991381,-0.12987 -2.175044,2.68637 -0.183663,2.81624 z"
       id="path2197"
       style="fill:#ffffff;fill-opacity:1;fill-rule:nonzero;stroke:none;stroke-width:0.264583" />
    <path
       d="m 55.299234,269.23985 c 1.217766,-0.21906 2.456664,-0.2822 3.68976,-0.35274 1.42781,-0.0746 2.857129,-0.0524 4.285411,-0.0132 1.994871,0.0544 2.071804,-2.76678 0.07693,-2.82118 v 0 c -1.507916,-0.0408 -3.01693,-0.063 -4.524275,0.0168 -1.359461,0.0785 -2.724893,0.15254 -4.066497,0.39998 -1.958925,0.3809 -1.420257,3.15124 0.538668,2.77034 z"
       id="path2199"
       style="fill:#ffffff;fill-opacity:1;fill-rule:nonzero;stroke:none;stroke-width:0.264583" />
    <path
       d="m 52.977491,270.97365 c 0.124952,0.66825 0.171815,1.34723 0.221398,2.02426 0.07013,1.08055 0.185513,2.15728 0.260564,3.23744 0.06056,0.94281 0.06569,1.88775 0.06205,2.83209 -0.0059,0.72624 -0.02064,1.45237 -0.02861,2.17858 -0.01521,0.29518 0.0345,0.57955 0.09194,0.86704 0.485359,1.93569 3.222839,1.24929 2.737477,-0.6864 v 0 c 0.0026,0.0322 0.01119,0.0644 0.0079,0.0965 -0.0083,0.0818 -0.03751,-0.56795 -0.01529,-0.24628 0.008,-0.73295 0.02307,-1.46582 0.02876,-2.19881 0.0038,-1.0134 -0.003,-2.02743 -0.06887,-3.03912 -0.07585,-1.08368 -0.189923,-2.16406 -0.261326,-3.24809 -0.06835,-0.92583 -0.122563,-1.86538 -0.376883,-2.76274 -0.668555,-1.8803 -3.327691,-0.93482 -2.659137,0.94548 z"
       id="path2201"
       style="fill:#ffffff;fill-opacity:1;fill-rule:nonzero;stroke:none;stroke-width:0.264583" />
    <path
       d="m 55.516798,278.48512 c 1.053044,-0.23413 2.12412,-0.36203 3.195928,-0.47158 1.914909,-0.16096 3.837012,-0.19848 5.75504,-0.30919 0.899771,-0.0382 1.794888,-0.15791 2.694582,-0.19412 1.99371,-0.0871 1.870549,-2.90662 -0.123163,-2.81954 v 0 c -0.912881,0.0421 -1.821627,0.14986 -2.734384,0.19615 -1.959975,0.1136 -3.924366,0.14942 -5.880846,0.31929 -1.188146,0.12293 -2.375498,0.26696 -3.542398,0.52919 -1.944402,0.44918 -1.309164,3.19898 0.635241,2.7498 z"
       id="path2203"
       style="fill:#ffffff;fill-opacity:1;fill-rule:nonzero;stroke:none;stroke-width:0.264583" />
    <path
       d="m 55.821439,280.23127 c 0.554617,-0.1031 1.116264,-0.16001 1.676921,-0.21825 1.322274,-0.12068 2.645214,-0.23152 3.96567,-0.37127 1.518365,-0.17094 3.031723,-0.38262 4.544621,-0.59571 1.026541,-0.1429 2.053807,-0.28844 3.087026,-0.37459 0.04262,-0.002 0.08524,-0.003 0.127868,-0.005 1.993641,-0.0887 1.868244,-2.90811 -0.125396,-2.81944 v 0 c -0.07984,0.004 -0.159671,0.008 -0.239507,0.0118 -1.085432,0.0923 -2.165228,0.2401 -3.243627,0.3922 -1.480849,0.20859 -2.962122,0.41598 -4.448257,0.58384 -1.318763,0.13981 -2.640155,0.24918 -3.960664,0.37073 -0.620729,0.0648 -1.24232,0.12934 -1.856481,0.2428 -1.967526,0.33363 -1.4957,3.11614 0.471826,2.7825 z"
       id="path2205"
       style="fill:#ffffff;fill-opacity:1;fill-rule:nonzero;stroke:none;stroke-width:0.264583" />
    <path
       d="m 53.599037,281.59704 c -0.06171,0.72355 -0.103804,1.44809 -0.129818,2.17375 -0.0083,0.76607 -0.0414,1.53089 -0.09334,2.2951 1.3e-4,0.4079 -0.114284,0.83568 -0.02236,1.2417 0.03273,0.14454 0.08961,0.28254 0.134414,0.42381 0.838242,1.81102 3.399419,0.62557 2.561179,-1.18546 v 0 c 0.09731,0.34742 0.09488,0.23347 0.09832,0.47065 2.38e-4,0.0163 -0.0031,-0.0326 -0.0024,-0.049 0.0024,-0.0608 0.0073,-0.12146 0.01119,-0.18217 0.0093,-0.14557 0.02604,-0.38948 0.03547,-0.52841 0.05386,-0.79441 0.08955,-1.58949 0.09804,-2.38582 0.02545,-0.72038 0.07143,-1.43916 0.129199,-2.15765 0.08239,-1.99391 -2.737422,-2.11043 -2.819815,-0.11652 z"
       id="path2207"
       style="fill:#ffffff;fill-opacity:1;fill-rule:nonzero;stroke:none;stroke-width:0.264583" />
    <path
       d="m 55.065583,287.3558 c 0.886216,0.10793 1.781505,0.078 2.671257,0.0443 1.497642,-0.0974 2.993858,-0.1991 4.494315,-0.24134 0.722366,-0.0158 1.44493,-0.0169 2.167427,-0.0166 0.380559,1.2e-4 0.76244,-0.009 1.142207,0.0179 1.991889,0.12187 2.164241,-2.69508 0.172352,-2.81695 v 0 c -1.185402,-0.0654 -2.375808,-0.003 -3.56208,-0.005 -1.50989,0.0432 -3.015845,0.14127 -4.522756,0.2423 -0.725035,0.0284 -1.454618,0.058 -2.177732,-0.02 -1.976956,-0.27223 -2.361946,2.52361 -0.38499,2.79584 z"
       id="path2209"
       style="fill:#ffffff;fill-opacity:1;fill-rule:nonzero;stroke:none;stroke-width:0.264583" />
    <path
       d="m 53.923464,289.90967 c 0.839941,0.0967 1.689211,0.0399 2.531734,0.0122 0.977927,-0.0322 1.957554,-0.0347 2.933864,-0.10651 0.76843,-0.0565 0.964523,-0.0915 1.73183,-0.1884 1.603897,-0.24709 3.197421,-0.55286 4.807548,-0.75855 0.662856,-0.0722 1.330801,-0.13491 1.998361,-0.10786 -0.02556,-0.001 -0.05109,-0.002 -0.07664,-0.003 1.976461,0.27581 2.366515,-2.51932 0.390057,-2.79514 v 0 c -0.07139,-0.007 -0.142785,-0.0148 -0.214178,-0.0223 -0.820777,-0.0263 -1.641512,0.0326 -2.456431,0.12902 -1.609053,0.2069 -3.202882,0.50465 -4.804849,0.75821 -0.659784,0.0846 -0.871858,0.12088 -1.531488,0.17014 -0.955236,0.0713 -1.913943,0.0711 -2.870772,0.10373 -0.681275,0.0224 -1.367692,0.0704 -2.048097,0.0135 -1.976374,-0.27643 -2.367314,2.51858 -0.39094,2.79502 z"
       id="path2211"
       style="fill:#ffffff;fill-opacity:1;fill-rule:nonzero;stroke:none;stroke-width:0.264583" />
    <path
       d="m 53.541218,289.58852 c 5.29e-4,0.97275 -0.0648,1.94461 -0.103008,2.91648 -0.04986,1.42576 -0.06175,2.8525 -0.06684,4.27902 0.01236,0.88438 -0.02222,1.7704 0.01897,2.65423 0.06324,0.46743 0.0041,0.19405 0.238728,0.8044 1.016781,1.71715 3.445206,0.27921 2.428425,-1.43795 v 0 c 0.158446,0.45697 0.15842,0.28587 0.151437,0.49044 -0.04814,-0.83201 0.007,-1.66845 -0.01535,-2.5011 0.0049,-1.39292 0.01635,-2.78607 0.06469,-4.17827 0.04235,-1.07931 0.123235,-2.15948 0.09716,-3.23988 -0.150349,-1.98993 -2.96455,-1.77731 -2.814201,0.21263 z"
       id="path2213"
       style="fill:#ffffff;fill-opacity:1;fill-rule:nonzero;stroke:none;stroke-width:0.264583" />
    <path
       d="m 56.429277,297.4306 c 0.663109,0.0141 1.325655,-0.0148 1.987772,-0.0472 1.035204,-0.0585 2.071801,-0.0831 3.107807,-0.12218 0.973579,-0.0451 1.947672,-0.0752 2.922105,-0.093 0.08031,-6e-5 0.160616,-1.1e-4 0.240925,-1.7e-4 1.995609,-0.003 1.991328,-2.82525 -0.0043,-2.82222 v 0 c -0.09603,2.1e-4 -0.192068,5.3e-4 -0.288104,5.3e-4 -0.992741,0.0182 -1.985153,0.0486 -2.977026,0.0945 -1.046575,0.0395 -2.093751,0.0644 -3.139514,0.12357 -0.604038,0.0297 -1.208442,0.0573 -1.813417,0.044 -1.995448,-0.0256 -2.031711,2.79635 -0.03626,2.82199 z"
       id="path2217"
       style="fill:#ffffff;fill-opacity:1;fill-rule:nonzero;stroke:none;stroke-width:0.264583" />
    <path
       d="m 56.200558,234.06866 c -0.493927,-0.13223 -1.003872,-0.1821 -1.512017,-0.22218 -0.211659,-0.0146 -0.423516,-0.0279 -0.635664,-0.0325 -1.006242,-0.01 -0.152072,0.27943 0.309771,2.7759 0.0074,0.0402 0.08004,-0.0166 0.120092,-0.0247 0.265488,-0.0537 0.24625,-0.0492 0.54546,-0.10718 1.087506,-0.22409 2.18958,-0.3399 3.29819,-0.37432 1.129958,0.002 2.24822,0.18773 3.364616,0.34177 0.462354,0.0526 0.92125,0.13746 1.384541,0.18175 0.567155,-0.0391 0.568491,0.0194 1.164016,-0.428 0.119671,-0.0899 0.180824,-0.2386 0.269001,-0.35955 0.0123,-0.0169 0.04034,-0.073 0.03228,-0.0537 -0.01487,0.0356 -0.03775,0.0673 -0.05371,0.1024 -0.0013,0.007 -0.01053,0.0197 -0.0038,0.0197 0.07656,4.5e-4 0.578244,-0.26711 0.610994,-0.28473 0.670137,-0.77555 0.955397,-0.77954 0.4845,-2.06848 -0.09655,-0.26427 -0.385043,-0.41535 -0.613077,-0.58015 -0.373914,-0.27023 -1.240076,-0.45772 -1.687137,-0.56911 -1.380384,-0.30753 -2.789989,-0.43579 -4.198977,-0.51815 -1.072541,-0.0572 -2.146776,-0.0411 -3.220183,-0.0624 -0.538318,-0.0443 -1.092927,-0.005 -1.626184,-0.10671 0.77675,0.16579 0.973084,0.16144 1.002429,1.94443 0.0059,0.36044 -0.526941,0.49215 -0.79539,0.73275 -0.01069,0.01 -0.03954,0.002 -0.03996,0.0159 -5.1e-5,0.002 0.05157,-0.004 0.119803,-0.0121 0.293912,-0.0526 0.809644,-0.14012 0.962702,-0.42627 0.22768,-0.42566 0.270008,-0.92692 0.405011,-1.39037 -0.473032,-1.93874 -3.214825,-1.26977 -2.741789,0.66897 v 0 c 0.379274,-1.22792 0.04462,-1.21504 0.87128,-1.61505 0.05593,-0.0271 0.263808,-0.0665 0.18179,-0.0412 -0.504441,0.0586 -1.491342,0.20231 -1.522526,0.87732 -0.08295,1.79548 0.26797,1.80766 1.106432,2.03163 0.66839,0.10206 1.346398,0.11583 2.020927,0.1423 1.037421,0.0202 2.075572,0.006 3.112222,0.0582 1.237642,0.0712 2.476024,0.17917 3.690059,0.44164 0.152131,0.0365 0.304912,0.0705 0.456391,0.1096 0.102711,0.0265 0.202803,0.0629 0.306009,0.0874 0.02072,0.005 0.07513,0.0187 0.0639,5.6e-4 -0.08389,-0.13535 -0.266009,-0.21858 -0.295984,-0.37497 -0.237852,-1.24087 -0.150535,-1.07501 0.518806,-1.77369 0.02477,-0.0101 0.09846,-0.0418 0.07427,-0.0304 -0.410612,0.1934 -0.841444,0.3488 -1.17824,0.66948 -0.26603,0.26922 -0.21803,0.19812 -0.433766,0.50462 -0.02077,0.0295 -0.08014,0.1193 -0.05535,0.0931 0.07579,-0.0802 0.118026,-0.1946 0.209556,-0.25621 0.582088,-0.39183 0.524361,-0.34194 1.03157,-0.36189 0.04196,0.014 0.01199,0.003 -0.097,-0.0116 -0.376439,-0.0518 -0.753102,-0.10184 -1.129641,-0.1529 -1.275043,-0.17593 -2.552944,-0.38189 -3.844089,-0.36671 -0.244192,0.009 -0.488625,0.0118 -0.732571,0.0257 -1.011285,0.0574 -2.014373,0.21089 -3.008773,0.39864 -1.56396,0.30318 -0.71914,-0.0832 -0.467786,2.94839 5.3e-4,0.006 -0.01915,-8e-5 -0.02721,-1.1e-4 0.157811,0.002 0.315328,0.0154 0.472803,0.0245 0.334333,0.0257 0.671145,0.051 0.997236,0.13355 1.926904,0.51915 2.661086,-2.20591 0.734181,-2.72505 z"
       id="path2219"
       style="fill:#ffffff;fill-opacity:1;fill-rule:nonzero;stroke:none;stroke-width:0.264583" />
    <path
       d="m 52.359491,235.97027 c 0.190164,0.3185 0.249602,0.60712 0.278087,0.97085 -7.94e-4,0.23856 0.02849,0.48472 -0.02598,0.71942 -0.294764,1.97372 2.496503,2.39058 2.791267,0.41686 v 0 c 0.06181,-0.47221 0.08429,-0.94567 0.04247,-1.42159 -0.01643,-0.14584 -0.02635,-0.29257 -0.04929,-0.43753 -0.08233,-0.52041 -0.251659,-1.02048 -0.499846,-1.48493 -0.874638,-1.79374 -3.41136,-0.55681 -2.536719,1.23692 z"
       id="path2221"
       style="fill:#ffffff;fill-opacity:1;fill-rule:nonzero;stroke:none;stroke-width:0.264583" />
    <path
       d="m 10.630785,234.0444 c -0.604285,0.003 -1.2085787,0.003 -1.8128687,0.003 -1.0192147,-8.3e-4 -2.0384103,4.6e-4 -3.057597,0.008 -1.1706375,0.001 -2.3401239,0.0499 -3.5094349,0.0996 -0.7937008,0.0342 -1.58770689,0.0602 -2.38202856,0.0737 -0.5058333,0.008 -1.01173504,0.005 -1.51760174,0.008 -0.4958093,0.004 -0.991516,0.0157 -1.4872248,0.0259 -0.057883,0.002 -0.1157666,0.004 -0.1736498,0.006 -1.9945159,0.0661 -1.900963,2.88683 0.093553,2.82067 v 0 c 0.046203,-0.002 0.092406,-0.003 0.1386099,-0.005 0.4810938,-0.01 0.9621845,-0.0212 1.4433738,-0.0254 0.5170164,-0.003 1.03407099,7e-5 1.55105161,-0.008 0.81822318,-0.014 1.63613309,-0.0405 2.45371779,-0.0758 1.1366538,-0.0483 2.2734588,-0.0964 3.4114124,-0.0971 1.0125919,-0.008 2.0251933,-0.009 3.0378133,-0.008 0.6091594,-4.2e-4 1.2183217,-6.3e-4 1.8274767,-0.003 1.995578,-0.0117 1.978975,-2.83392 -0.0166,-2.82218 z"
       id="path2223"
       style="fill:#ffffff;fill-opacity:1;fill-rule:nonzero;stroke:none;stroke-width:0.264583" />
    <path
       d="m 8.0726792,233.44445 c -0.067929,0.41556 -0.084419,0.83715 -0.1131858,1.25665 -0.030146,0.38215 -0.059281,0.76436 -0.079319,1.14719 -0.020878,0.32764 -0.019526,0.65561 -0.00745,0.98348 0.015555,0.32283 0.020309,0.64601 0.023434,0.96916 0.00233,0.33538 0.00375,0.67078 -7.144e-4,1.00615 -0.00475,0.3263 -0.00972,0.6526 -0.012846,0.97892 -0.00314,0.28441 -0.00161,0.56885 -0.00423,0.85326 -0.00456,0.2872 -0.046158,0.57216 -0.073838,0.85772 -0.027696,0.33036 -0.05081,0.66112 -0.073556,0.99186 -0.025254,0.3683 -0.029946,0.73752 -0.033387,1.10653 -0.00183,0.30929 -0.00287,0.61859 -0.00138,0.92788 -0.00485,0.26975 0.024667,0.53797 0.046931,0.80631 0.023765,0.30337 0.048079,0.60668 0.074663,0.90982 0.02972,0.32347 0.040092,0.64829 0.05322,0.97274 0.012054,0.2989 0.01292,0.59806 0.013716,0.89714 3.968e-4,0.28988 -0.00271,0.5798 -0.010443,0.86957 -0.015319,0.31257 -0.034383,0.62486 -0.045068,0.93766 -0.00929,0.30158 -0.010491,0.60333 -0.011173,0.90503 4.233e-4,0.30923 5.9e-5,0.61844 -0.00383,0.92764 -0.00702,0.41052 -0.010115,0.82108 -0.012287,1.23165 -0.00167,0.5337 -0.00388,1.06742 -7.672e-4,1.60112 0.00469,0.47558 0.01434,0.95109 0.017558,1.42669 -0.012367,0.5152 0.041656,1.02599 0.1242039,1.53356 0.1321236,0.67493 0.2874423,1.34497 0.4227798,2.01928 0.1332122,0.64839 0.180807,1.30937 0.2233621,1.96859 0.039162,0.61324 0.047717,1.22776 0.052409,1.84204 0.00425,0.53364 0.00586,1.06716 -0.019457,1.60031 -0.033244,0.56537 -0.087192,1.12921 -0.1270005,1.69412 -0.038865,0.62702 -0.055202,1.25513 -0.068743,1.88311 0.00614,0.57407 -0.051244,1.14469 -0.111394,1.71465 -0.074912,0.72228 -0.133241,1.44611 -0.1802466,2.1707 -0.041347,0.67024 -0.066213,1.34128 -0.081926,2.01256 -0.023188,0.69267 -0.00276,1.38487 0.037516,2.07638 0.05542,0.80704 0.1254257,1.61299 0.1982086,2.41862 0.071181,0.71377 0.1154314,1.42968 0.1434013,2.14633 0.020024,0.55776 0.020079,1.11592 0.023611,1.67395 0.013393,0.63627 0.037175,1.27224 0.050098,1.90854 0.011121,0.61815 0.016627,1.23637 0.021942,1.85458 0.00511,0.49272 0.00894,0.98545 0.00762,1.4782 0.012666,0.46991 -0.017762,0.93681 -0.070744,1.40325 -0.084543,0.66927 -0.1150623,1.34317 -0.134444,2.01692 -0.014171,0.60744 -0.014219,1.21508 -0.014396,1.82265 9.26e-4,0.52569 -0.00159,1.05138 0.0048,1.57704 0.013338,0.58662 0.065111,1.1714 0.098984,1.75702 0.021746,0.48524 0.052883,0.96981 0.090998,1.454 0.039529,0.48765 0.053562,1.22769 0.6731849,1.39678 0.609903,0.16645 1.2497377,-0.19208 1.8746067,-0.28812 1.306395,-1.50858 -0.827054,-3.3561 -2.1334493,-1.84752 v 0 c 0.6049055,-0.073 1.2315943,-0.39562 1.8147163,-0.21897 0.358549,0.10862 0.399911,0.63364 0.599867,0.95045 0.0021,0.0233 -0.0043,0.049 0.0063,0.0699 0.07029,0.13796 -0.103561,-0.40399 -0.02168,-0.28398 -0.0366,-0.46488 -0.06623,-0.93011 -0.08703,-1.396 -0.03159,-0.54284 -0.07852,-1.08492 -0.09446,-1.62854 -0.0065,-0.51371 -0.0034,-1.02748 -0.0046,-1.54122 1.64e-4,-0.58106 7.7e-5,-1.16219 0.01325,-1.74314 0.01676,-0.59536 0.0422,-1.19095 0.117954,-1.78227 0.06327,-0.56855 0.101228,-1.13828 0.08837,-1.7108 0.0013,-0.50332 -0.0024,-1.00661 -0.0077,-1.5099 -0.0054,-0.6293 -0.01104,-1.25861 -0.02243,-1.88784 -0.01275,-0.62308 -0.03507,-1.24587 -0.04957,-1.8689 -0.0037,-0.58901 -0.0041,-1.17816 -0.02573,-1.76688 -0.03022,-0.76441 -0.07698,-1.52809 -0.152676,-2.28949 -0.07015,-0.77618 -0.137594,-1.55266 -0.191616,-2.33015 -0.03646,-0.61452 -0.05463,-1.22959 -0.03342,-1.84517 0.01464,-0.6324 0.03809,-1.26456 0.0768,-1.89598 0.04433,-0.68667 0.0998,-1.3726 0.170584,-2.05709 0.06826,-0.64808 0.130471,-1.29726 0.126296,-1.94982 0.0125,-0.58225 0.02732,-1.16462 0.06245,-1.74603 0.04113,-0.58738 0.09849,-1.17355 0.130928,-1.76154 0.02642,-0.58387 0.02829,-1.16804 0.02239,-1.75244 -0.0052,-0.66803 -0.01536,-1.33629 -0.05826,-2.00316 -0.05121,-0.78452 -0.113541,-1.57032 -0.272745,-2.34174 -0.129323,-0.64282 -0.274058,-1.28228 -0.405435,-1.92464 -0.06153,-0.36121 -0.09805,-0.72435 -0.0863,-1.09154 -0.0033,-0.47472 -0.01256,-0.94935 -0.01754,-1.42405 -0.0032,-0.52316 -7.41e-4,-1.04635 7.94e-4,-1.56952 0.0021,-0.4038 0.0052,-0.8076 0.01211,-1.21135 0.0039,-0.31882 0.0045,-0.63765 0.004,-0.9565 6.09e-4,-0.27205 0.0015,-0.54414 0.0096,-0.81609 0.01066,-0.32003 0.03256,-0.6394 0.04572,-0.95931 0.0081,-0.31684 0.01207,-0.63382 0.01139,-0.95078 -8.99e-4,-0.3346 -0.0024,-0.66926 -0.01601,-1.00364 -0.01492,-0.36867 -0.02775,-0.73769 -0.06171,-1.10524 -0.02625,-0.29919 -0.05012,-0.59856 -0.07365,-0.89797 -0.01635,-0.19488 -0.04085,-0.38959 -0.03719,-0.58553 -0.0015,-0.29596 -3.44e-4,-0.59193 0.0013,-0.88789 0.0029,-0.31316 0.0059,-0.62655 0.02687,-0.93914 0.02091,-0.30478 0.04245,-0.60955 0.06713,-0.91405 0.0353,-0.36736 0.08668,-0.734 0.08679,-1.10379 0.0025,-0.28379 0.0013,-0.56761 0.0042,-0.85141 0.0031,-0.32299 0.0081,-0.64596 0.01273,-0.96894 0.0046,-0.35688 0.0035,-0.71377 8.2e-4,-1.07066 -0.0034,-0.34931 -0.0087,-0.69866 -0.02529,-1.04764 -0.0094,-0.24377 -0.01092,-0.48751 0.0056,-0.73113 0.01889,-0.36736 0.04825,-0.73399 0.07652,-1.10072 0.0214,-0.31314 0.03487,-0.62733 0.07322,-0.93898 0.360962,-1.9627 -2.4147089,-2.47318 -2.775671,-0.51048 z"
       id="path2225"
       style="fill:#ffffff;fill-opacity:1;fill-rule:nonzero;stroke:none;stroke-width:0.264583" />
    <path
       d="m 8.8004159,241.1565 c -0.076631,0.0155 -0.060246,-0.1271 -0.1202822,-0.13796 -0.01434,-0.003 -0.00952,0.0282 -0.00914,0.0428 0.00193,0.0731 0.012031,0.14585 0.016023,0.2189 0.01293,0.23656 0.02989,0.73198 0.037496,0.93794 0.04343,1.46674 0.2384544,2.92218 0.411194,4.37757 0.034641,0.32285 0.07413,0.6644 0.099153,0.98941 0.010652,0.13836 0.046834,0.38826 -2.91e-4,0.53994 -0.2374392,1.98143 2.5647353,2.31722 2.8021743,0.33579 v 0 c 0.01084,-0.11229 0.02716,-0.22418 0.03253,-0.33685 0.02968,-0.62272 -0.07612,-1.24298 -0.131012,-1.86093 -0.163759,-1.37968 -0.351582,-2.7592 -0.393464,-4.14962 -0.03078,-0.82541 0.0097,-1.72875 -0.392019,-2.48041 -0.06022,-0.11268 -0.142528,-0.21208 -0.213791,-0.31812 -1.302203,-1.5122 -3.4407713,0.32939 -2.1385689,1.84159 z"
       id="path2227"
       style="fill:#ffffff;fill-opacity:1;fill-rule:nonzero;stroke:none;stroke-width:0.264583" />
    <path
       d="m 8.6367119,231.87405 c -0.7695507,-0.0587 -1.5397977,0.0244 -2.303725,0.11114 -1.090196,0.15322 -2.1764238,0.32852 -3.2704356,0.45334 -1.0373117,0.10854 -2.07824615,0.17762 -3.11979455,0.22893 -0.57467948,0.0343 -1.15191445,0.0328 -1.71907705,-0.0727 -0.039926,-0.007 -0.079851,-0.0135 -0.1197767,-0.0202 -1.967988,-0.33089 -2.435947,2.45226 -0.4679591,2.78316 v 0 c 0.031763,0.005 0.063526,0.0106 0.095289,0.016 0.7768207,0.13393 1.56394872,0.16442 2.35078661,0.11256 1.10219759,-0.0546 2.20375989,-0.12785 3.30138599,-0.24379 1.0938888,-0.12551 2.1807916,-0.29581 3.2703426,-0.45333 0.563536,-0.065 1.1304349,-0.13248 1.6988567,-0.10718 1.9854752,0.20089 2.2695822,-2.607 0.2841067,-2.80789 z"
       id="path2229"
       style="fill:#ffffff;fill-opacity:1;fill-rule:nonzero;stroke:none;stroke-width:0.264583" />
    <path
       d="m 9.0092693,243.00883 c -0.6834058,-0.22449 -1.4047359,-0.15663 -2.1083519,-0.0981 -1.0809795,0.11571 -2.163963,0.21068 -3.2460138,0.3155 -1.290238,0.14654 -2.5823528,0.26776 -3.8779463,0.35435 -0.68657733,0.0444 -1.3738163,0.0782 -2.0601376,0.12645 -0.048426,0.0117 -0.099212,0.002 -0.1480772,0.0103 -0.014513,0.002 0.029348,-0.002 0.044022,-0.002 -1.9943935,0.0697 -1.8957629,2.89024 0.098631,2.8205 v 0 c 0.067934,-0.003 0.1357671,-0.008 0.2036108,-0.0132 0.6830637,-0.0481 1.3670861,-0.0812 2.05038593,-0.12578 1.32351397,-0.0887 2.64365157,-0.21126 3.96168527,-0.36122 1.0703491,-0.10373 2.141683,-0.19714 3.2109058,-0.31232 0.2582346,-0.0221 0.3320791,-0.0308 0.5787228,-0.0437 0.027655,-0.001 0.2832301,0.008 0.3325125,-0.009 0.00612,-0.002 -0.00956,-0.009 -0.014343,-0.013 1.8728978,0.689 2.8472924,-1.95967 0.9743946,-2.64868 z"
       id="path2231"
       style="fill:#ffffff;fill-opacity:1;fill-rule:nonzero;stroke:none;stroke-width:0.264583" />
    <path
       d="m 8.8228515,242.05733 c -0.7391772,-0.14652 -1.4856256,-0.2388 -2.2360879,-0.3013 -1.0785414,-0.0853 -2.1560678,0.0229 -3.2296575,0.11738 -1.0205514,0.0941 -2.0449874,0.12257 -3.06913072,0.14276 -0.92231172,0.0217 -1.84457068,2.9e-4 -2.76609528,-0.0376 -0.2504605,-0.0153 -0.5022121,-0.0156 -0.7523354,-0.0373 -0.00899,-7.7e-4 -0.01746,-0.005 -0.026191,-0.007 0.1245396,0.0338 0.2490795,0.0675 0.3736192,0.10127 -1.8018384,-0.85781 -3.0149723,1.69037 -1.2131336,2.54819 v 0 c 0.1579364,0.0497 0.3132396,0.10863 0.4738092,0.14897 0.071677,0.018 0.1466376,0.0189 0.220255,0.0254 0.2687291,0.0237 0.5393478,0.0235 0.8084576,0.0402 0.9786396,0.04 1.95806256,0.0622 2.93752179,0.0394 1.08810561,-0.0217 2.17647051,-0.0531 3.26074941,-0.15308 0.9147522,-0.0805 1.8327129,-0.18221 2.7520852,-0.1159 0.6630961,0.053 1.3217401,0.13793 1.9745836,0.26756 1.9651099,0.34758 2.4566609,-2.43151 0.4915508,-2.77909 z"
       id="path2233"
       style="fill:#ffffff;fill-opacity:1;fill-rule:nonzero;stroke:none;stroke-width:0.264583" />
    <path
       d="m 8.5864519,244.16299 c -0.8459142,-0.14399 -1.7051835,-0.17285 -2.5609581,-0.20331 -1.1843449,-0.0242 -2.3680698,-0.0544 -3.5504826,-0.12777 -1.0128804,-0.0843 -2.02812519,-0.13641 -3.04110189,-0.21872 -0.57119941,-0.046 -1.12984311,-0.17091 -1.68260781,-0.31618 -1.9305312,-0.50549 -2.6453994,2.2247 -0.7148682,2.73018 v 0 c 0.7126312,0.18603 1.4340485,0.34006 2.169846,0.39903 1.03084625,0.0831 2.0638109,0.13771 3.0945763,0.22254 1.2072984,0.0744 2.4158339,0.10774 3.6251157,0.13139 0.7402626,0.0259 1.4842796,0.0457 2.2161526,0.16987 1.9707241,0.31418 2.4150521,-2.47284 0.444328,-2.78703 z"
       id="path2235"
       style="fill:#ffffff;fill-opacity:1;fill-rule:nonzero;stroke:none;stroke-width:0.264583" />
    <path
       d="m 8.7870487,251.65261 c -0.3956463,0.0516 -0.7877797,0.12603 -1.1821591,0.18595 -0.5043562,0.067 -1.0143678,0.0712 -1.5222781,0.0775 -1.1123478,8.2e-4 -2.2247339,5.3e-4 -3.3370655,-0.006 -1.0515054,-0.002 -2.10079677,-0.076 -3.14422162,-0.20213 -0.41028746,-0.0479 -0.81432198,-0.13478 -1.22199218,-0.19928 -0.032559,-0.005 -0.065138,-0.0101 -0.097678,-0.0153 -0.01736,-0.003 0.036277,4.2e-4 0.052136,0.008 0.1986522,0.0951 0.3927962,0.19933 0.5891944,0.29899 -1.5029555,-1.31286 -3.3596158,0.81264 -1.8566605,2.1255 v 0 c 0.3538212,0.1849 0.5259183,0.33431 0.875916,0.371 0.4412021,0.0682 0.8778407,0.16567 1.32232254,0.21317 1.14953305,0.13741 2.30520906,0.2203 3.46351086,0.22224 1.1300801,0.007 2.2602181,0.007 3.3903144,0.006 0.6384891,-0.008 1.279284,-0.0187 1.9124972,-0.10956 0.3607628,-0.0553 0.7198688,-0.12092 1.081224,-0.1724 1.9823309,-0.22985 1.6572709,-3.03329 -0.3250604,-2.80344 z"
       id="path2237"
       style="fill:#ffffff;fill-opacity:1;fill-rule:nonzero;stroke:none;stroke-width:0.264583" />
    <path
       d="m 8.5511607,254.32016 c -0.4697489,-0.014 -0.9390845,-0.0397 -1.4085638,-0.0606 -0.9373608,-0.0409 -1.8756276,-0.0471 -2.8132776,-0.0791 -1.1368156,-0.0637 -2.2698649,-0.17993 -3.40488927,-0.26912 -0.93518139,-0.0638 -1.86620524,-0.17246 -2.79750033,-0.27637 -0.5183617,-0.0591 -1.0373942,-0.11133 -1.5573827,-0.15369 -0.2313708,-0.0311 -0.4611918,-0.01 -0.6917603,0.0133 -1.9770841,0.27131 -1.5933965,3.06732 0.3836874,2.79602 v 0 c -0.1691209,-0.003 0.032218,-0.0113 0.079387,0.004 0.4918705,0.0399 0.9827726,0.0898 1.4730969,0.14556 0.9618917,0.10734 1.92356576,0.21891 2.8894383,0.28512 1.1766494,0.0924 2.3511933,0.21421 3.5299819,0.27615 0.9277265,0.0314 1.8560094,0.0385 2.7834677,0.0779 0.5047522,0.0225 1.009352,0.051 1.5144818,0.0633 1.9955633,0.014 2.0153963,-2.80813 0.019833,-2.82215 z"
       id="path2239"
       style="fill:#ffffff;fill-opacity:1;fill-rule:nonzero;stroke:none;stroke-width:0.264583" />
    <path
       d="m 9.9577246,262.65282 c -0.5862159,0.15405 -1.1867372,0.24188 -1.7856144,0.32949 -1.3530924,0.20314 -2.7102924,0.37196 -4.0725013,0.49976 -1.3323303,0.11852 -2.6690264,0.17394 -4.0057739,0.21001 -0.55445143,0.0123 -1.1090521,0.0229 -1.6636554,0.0177 -0.5738667,-0.002 -0.6915163,0.13131 -1.1932969,0.42805 -1.4999059,1.31634 0.3616802,3.43752 1.86158606,2.12119 v 0 c -0.52827056,0.27807 -0.28962386,0.21823 -0.71935556,0.27718 -0.00857,10e-4 0.017068,-0.003 0.025602,-0.004 0.5885404,0.005 1.17707495,-0.005 1.76545156,-0.0186 1.39950224,-0.038 2.79892374,-0.0967 4.19374984,-0.22139 1.4106554,-0.13303 2.8163724,-0.30657 4.2176287,-0.51721 0.7189854,-0.10565 1.4393477,-0.2152 2.1418357,-0.40547 1.92077,-0.54141 1.155113,-3.25778 -0.765656,-2.71638 z"
       id="path2241"
       style="fill:#ffffff;fill-opacity:1;fill-rule:nonzero;stroke:none;stroke-width:0.264583" />
    <path
       d="m 9.8779538,264.88124 c -0.6963172,0.0131 -1.3905892,0.0738 -2.0848108,0.12516 -1.3718556,0.0898 -2.7414302,0.20911 -4.1113244,0.32407 -1.5104493,0.13416 -3.02641519,0.17703 -4.54073708,0.24277 -0.88992012,0.0395 -1.77664582,0.12508 -2.66322752,0.20838 -0.055034,0.005 -0.2028748,0.0211 -0.2821165,0.0183 -0.014938,-5.3e-4 0.029843,-0.002 0.044764,-0.003 -1.9936446,-0.0886 -2.1189436,2.73083 -0.125299,2.81943 v 0 c 0.2094101,0.004 0.4183275,8e-4 0.626654,-0.0252 0.8394999,-0.0789 1.6790658,-0.16086 2.52170865,-0.19866 1.55220295,-0.0675 3.10604995,-0.11213 4.65425935,-0.25 1.3606285,-0.11418 2.7209337,-0.23276 4.0835166,-0.32187 0.6525252,-0.0483 1.3050806,-0.10646 1.9595822,-0.11869 1.9947497,-0.0587 1.9117807,-2.87967 -0.082969,-2.821 z"
       id="path2243"
       style="fill:#ffffff;fill-opacity:1;fill-rule:nonzero;stroke:none;stroke-width:0.264583" />
    <path
       d="m 9.1883345,275.50527 c -0.4434715,-0.0197 -0.8874511,-0.0219 -1.331269,-0.0254 -0.9010758,-0.008 -1.8021649,-0.0121 -2.7032717,-0.0139 -1.5482562,-0.008 -3.0962556,0.002 -4.6439663,0.0439 -1.19673697,0.0357 -2.3922739,0.10337 -3.5890901,0.13627 -1.9948519,0.0551 -1.9169451,2.87623 0.077907,2.82114 v 0 c 1.1964163,-0.0332 2.39159375,-0.0996 3.58790574,-0.13623 1.52030096,-0.0415 3.04089786,-0.0509 4.56173786,-0.0428 0.8954963,0.002 1.7909752,0.006 2.6864408,0.0138 0.4109699,0.003 0.8221048,0.005 1.2327617,0.0229 1.9937825,0.0854 2.1146265,-2.73419 0.1208442,-2.81964 z"
       id="path2245"
       style="fill:#ffffff;fill-opacity:1;fill-rule:nonzero;stroke:none;stroke-width:0.264583" />
    <path
       d="m 9.1575775,277.68025 c -0.3919569,0.0288 -0.7841096,-0.0132 -1.1744648,-0.0449 -1.0509593,-0.0864 -2.1061595,-0.0958 -3.1599787,-0.10787 -1.5710829,-0.0152 -3.1422238,-0.005 -4.71325023,0.011 -1.57530017,0.0277 -3.15045397,0.0249 -4.72560667,-0.006 -0.4597582,-0.0207 -0.9190775,-0.0156 -1.3783952,0.007 -1.9926755,0.10823 -1.8396159,2.9263 0.1530596,2.81807 v 0 c 0.389442,-0.0244 0.7793111,-0.0172 1.1692424,-0.003 1.6031723,0.0318 3.2063575,0.035 4.80967829,0.007 1.55097201,-0.0154 3.10205651,-0.026 4.65308521,-0.0111 0.9885743,0.0113 1.978546,0.0185 2.9644946,0.0989 0.5369179,0.0434 1.0761358,0.09 1.6147997,0.046 1.9899383,-0.15037 1.7772743,-2.96457 -0.2126642,-2.81419 z"
       id="path2247"
       style="fill:#ffffff;fill-opacity:1;fill-rule:nonzero;stroke:none;stroke-width:0.264583" />
    <path
       d="m 8.5306497,284.59627 c 0.1287007,-0.0889 -0.016992,-0.0436 -0.068025,-0.0366 -0.1333798,0.0183 -0.1438362,0.0168 -0.2893414,0.0285 -0.8582969,0.008 -1.7141862,0.05 -2.5700913,0.11459 -1.692766,0.16335 -3.390442,0.25543 -5.08935499,0.32225 -1.26198716,0.0603 -2.52444591,0.0423 -3.78416851,-0.0466 -1.9907636,-0.13903 -2.1873781,2.67634 -0.1966145,2.81536 v 0 c 1.3622242,0.0941 2.72729236,0.11664 4.09188856,0.0513 1.73309404,-0.0684 3.46501274,-0.16183 5.19187404,-0.32816 0.8728741,-0.0667 1.7455194,-0.0961 2.6202684,-0.11884 0.6390603,-0.0645 1.2761429,-0.17854 1.810204,-0.5617 1.583996,-1.21385 -0.132643,-3.45395 -1.7166396,-2.24011 z"
       id="path2249"
       style="fill:#ffffff;fill-opacity:1;fill-rule:nonzero;stroke:none;stroke-width:0.264583" />
    <path
       d="m 9.5881887,286.22428 c -0.7696499,0.0706 -1.5368045,0.16346 -2.3036678,0.25905 -1.8371592,0.26224 -3.6808957,0.45744 -5.5317626,0.58855 -1.87160684,0.11948 -3.7467498,0.16352 -5.6214653,0.19894 -0.5112393,0.009 -1.0225006,0.016 -1.533761,0.0234 -1.9954068,0.0286 -1.9548904,2.85058 0.040516,2.82193 v 0 c 0.5155338,-0.007 1.0310686,-0.0148 1.5465809,-0.0236 1.9236447,-0.0364 3.84771679,-0.0821 5.768125,-0.20553 1.9006513,-0.1354 3.7943589,-0.33377 5.6809979,-0.60315 0.7621669,-0.0951 1.5246921,-0.18627 2.2895358,-0.25732 1.9814954,-0.23695 1.6463964,-3.0392 -0.3350993,-2.80225 z"
       id="path2251"
       style="fill:#ffffff;fill-opacity:1;fill-rule:nonzero;stroke:none;stroke-width:0.264583" />
    <path
       d="m 9.6618971,294.39686 c -0.5360558,0.0383 -1.0716709,0.0802 -1.6082779,0.11083 -1.3542529,0.0813 -2.7096011,0.13434 -4.0657685,0.16939 -1.790094,0.0387 -3.58065423,0.0469 -5.3710989,0.0526 -0.729452,0.002 -0.3865526,-10e-4 -1.0287112,0.008 -1.9954014,0.029 -1.954354,2.85095 0.041047,2.82193 v 0 c 0.6096945,-0.009 0.2774823,-0.006 0.996654,-0.008 1.81181787,-0.006 3.6237529,-0.0142 5.4352121,-0.0535 1.3855046,-0.036 2.770193,-0.09 4.1537487,-0.17304 0.5295048,-0.0304 1.0582008,-0.0698 1.5870261,-0.1097 1.9931615,-0.0989 1.8533305,-2.91763 -0.1398318,-2.81876 z"
       id="path2253"
       style="fill:#ffffff;fill-opacity:1;fill-rule:nonzero;stroke:none;stroke-width:0.264583" />
    <path
       d="m 18.816388,258.75807 c 0.367123,-1.35276 0.803628,-2.686 1.216146,-4.02543 0.588231,-1.94231 1.14255,-3.8974 1.571397,-5.88196 0.278057,-1.28675 0.330484,-1.68797 0.543816,-2.96227 0.181477,-1.00212 0.237964,-2.02318 0.413608,-3.02602 0.02159,-0.12325 0.183407,-0.44558 0.08764,-0.36503 -0.114358,0.0962 -0.102755,0.28064 -0.154132,0.42096 -0.679549,0.0624 -1.359099,0.12475 -2.038648,0.18713 -0.03008,0.0248 -0.09335,0.0355 -0.09026,0.0744 0.02136,0.26866 0.111507,0.52744 0.159192,0.79269 0.06952,0.3867 0.132535,0.77457 0.192363,1.16289 0.219496,1.42463 0.396975,2.85594 0.587997,4.28456 0.178911,1.09088 0.279859,2.20744 0.580297,3.27589 0.06059,0.21547 0.09847,0.44813 0.225282,0.63256 0.210464,0.30609 0.395504,0.83432 0.766117,0.80926 0.784752,-0.053 1.423153,-0.67025 2.134729,-1.00538 0.06602,-0.33957 0.145556,-0.6768 0.198049,-1.01872 0.02802,-0.18251 0.292254,-2.52259 0.299173,-2.58026 0.207128,-1.72647 0.453635,-3.44594 0.710501,-5.16558 0.241278,-1.40474 0.424925,-2.82222 0.720682,-4.21747 0.04773,-0.22517 0.09847,-0.45045 0.169392,-0.66943 0.0095,-0.0293 0.0962,-0.0747 0.06777,-0.0628 -0.563938,0.23517 -1.11951,0.48992 -1.679265,0.73488 -0.190507,-0.10558 -0.415302,-0.46853 -0.571521,-0.31675 -0.181408,0.17625 0.09041,0.4978 0.127692,0.74796 0.05959,0.39988 0.116252,0.8003 0.162896,1.2019 0.216291,1.8622 0.336488,3.73498 0.472913,5.6041 0.277356,3.78782 0.464687,7.5813 0.716641,11.37072 0.13245,1.99121 2.94845,1.8039 2.816,-0.18731 v 0 c -0.252579,-3.79548 -0.439679,-7.59509 -0.717912,-11.38895 -0.14088,-1.92844 -0.26384,-3.86126 -0.491604,-5.78211 -0.02847,-0.24013 -0.278305,-2.18931 -0.421714,-2.49538 -0.227912,-0.48643 -0.614601,-0.88118 -0.921904,-1.32177 -0.673577,0.19302 -1.401053,0.25203 -2.020734,0.57908 -0.195186,0.10302 -0.466947,1.39229 -0.482705,1.46672 -0.302585,1.42918 -0.491065,2.88099 -0.737905,4.31988 -0.241702,1.61935 -0.302932,1.98031 -0.515346,3.59876 -0.188944,1.43961 -0.208787,1.68247 -0.366536,3.05497 -0.04087,0.35561 -0.08718,0.71062 -0.123879,1.06669 -0.01386,0.13445 -0.0185,0.2697 -0.02775,0.40455 2.62754,-0.53957 1.305934,-0.86309 2.355385,0.25263 0.06467,0.0688 -0.08696,-0.16894 -0.112767,-0.25973 -0.06743,-0.23719 -0.117832,-0.47906 -0.166015,-0.7209 -0.169607,-0.85127 -0.239938,-1.42217 -0.36864,-2.30199 -0.195003,-1.4584 -0.375315,-2.91982 -0.601392,-4.37386 -0.05978,-0.38448 -0.298024,-1.87612 -0.436406,-2.31682 -0.11315,-0.36033 -0.288582,-0.69806 -0.432873,-1.0471 -0.77681,-0.0554 -1.567722,-0.32354 -2.33043,-0.16613 -0.272714,0.0563 -0.300598,0.4725 -0.404969,0.73066 -0.07557,0.18693 -0.09449,0.39231 -0.12932,0.5909 -0.172046,0.9809 -0.228683,1.97942 -0.403393,2.96005 -0.197745,1.18783 -0.250546,1.58797 -0.50865,2.78628 -0.41371,1.92074 -0.951078,3.81244 -1.520081,5.69203 -1.073831,3.48686 0.292327,-0.9448 -0.668951,2.16072 -0.199911,0.64584 -0.412457,1.2927 -0.570267,1.95076 -0.02875,0.11989 -0.05059,0.24133 -0.07588,0.362 -0.270558,1.97718 2.525606,2.35981 2.796164,0.38262 z"
       id="path2255"
       style="fill:#ffffff;fill-opacity:1;fill-rule:nonzero;stroke:none;stroke-width:0.264583" />
    <path
       d="m 41.821576,245.55669 c 0.120044,-0.68298 0.177326,-1.58078 -0.135581,-2.21612 -0.154982,-0.31467 -0.323223,-0.65008 -0.601787,-0.86325 -0.365609,-0.27979 -0.840925,-0.37503 -1.261385,-0.56254 -0.451913,0.0511 -0.921374,0.0186 -1.355738,0.15344 -0.985398,0.30579 -1.801225,1.03788 -2.437029,1.81436 -0.770081,0.94047 -1.35617,2.10293 -1.726052,3.25433 -0.201181,0.62626 -0.293685,1.28236 -0.440529,1.92354 -0.03327,0.65042 -0.127153,1.30055 -0.0998,1.95124 0.07492,1.78249 0.610766,3.6095 1.822965,4.96164 0.360027,0.40159 0.776082,0.76449 1.240259,1.03914 0.463325,0.27415 1.003503,0.39026 1.505257,0.58539 0.521697,0.0179 1.048255,0.12702 1.565095,0.0538 2.298406,-0.32577 3.868763,-2.29994 4.729519,-4.30227 0.229738,-0.53443 0.370245,-1.10295 0.555366,-1.65442 0.23065,-1.40695 0.436565,-1.97143 0.217853,-3.40769 -0.182425,-1.19796 -0.592474,-2.14808 -1.268945,-3.14513 -0.744315,-1.09705 -1.108707,-1.28128 -2.097169,-2.08864 -0.35314,-0.19457 -0.706279,-0.38914 -1.059418,-0.58371 -1.766282,-0.92882 -3.079838,1.56908 -1.313556,2.4979 v 0 c 0.208973,0.10102 0.417944,0.20205 0.626917,0.30307 0.23609,0.17524 0.491633,0.32693 0.708274,0.52571 0.469511,0.4308 0.969817,1.05901 1.244899,1.63711 0.33275,0.69929 0.456059,1.36772 0.428675,2.14311 -0.01484,0.42018 -0.115126,0.83296 -0.172688,1.24944 -0.125558,0.4087 -0.219462,0.82851 -0.376672,1.22611 -0.258241,0.65311 -0.669142,1.37831 -1.125654,1.9224 -0.289248,0.34474 -0.700696,0.70884 -1.143129,0.85516 -0.201653,0.0667 -0.420593,0.0596 -0.630889,0.0894 -0.219424,-0.0441 -0.453609,-0.0417 -0.658275,-0.13222 -1.356334,-0.60019 -1.885648,-2.31271 -1.978737,-3.66194 -0.03359,-0.48691 0.02492,-0.97582 0.03739,-1.46373 0.09882,-0.48637 0.157739,-0.98259 0.296468,-1.45911 0.327112,-1.12362 0.898176,-2.21154 1.728859,-3.04559 0.127524,-0.12804 0.298035,-0.2071 0.428358,-0.33229 0.04516,-0.0434 0.05968,-0.11013 0.08952,-0.16519 -0.122886,-0.19963 -0.297847,-0.4089 -0.171019,-0.47366 0.0426,-0.0217 0.06323,0.075 0.07775,0.12061 0.06898,0.21654 0.0181,0.44594 -0.0099,0.66365 -0.415092,1.95196 2.345404,2.53899 2.760495,0.58702 z"
       id="path2257"
       style="fill:#ffffff;fill-opacity:1;fill-rule:nonzero;stroke:none;stroke-width:0.264583" />
    <path
       d="m 18.185275,265.42591 c 0.485695,1.35107 0.830105,2.74859 1.251963,4.12027 0.145728,0.47384 0.300686,0.94479 0.451029,1.41719 0.417798,1.23769 0.857709,2.4726 1.410203,3.65798 0.205489,0.44088 0.566165,1.16815 0.892714,1.5577 0.181856,0.21694 0.410813,0.38957 0.616219,0.58436 0.380478,0.11371 0.746577,0.38334 1.141433,0.34113 1.475849,-0.15776 1.937249,-1.41671 2.380465,-2.57867 0.126842,-0.33254 0.752128,-2.16711 0.846667,-2.44293 0.159477,-0.45239 0.315362,-0.90606 0.478432,-1.35717 0.342641,-0.94788 0.608121,-1.6416 0.97698,-2.57317 0.02641,-0.0667 0.760764,-1.8824 0.818031,-2.03542 0.101025,-0.26992 0.187663,-0.54502 0.281495,-0.81753 0.05431,-0.23171 0.108611,-0.46342 0.162915,-0.69513 0.431471,-1.94841 -2.323995,-2.5586 -2.755467,-0.61019 v 0 c -0.02595,0.13074 -0.05192,0.26148 -0.07788,0.39223 -0.07707,0.22731 -0.14705,0.45715 -0.231217,0.68193 -0.05139,0.13726 -0.818353,2.0363 -0.827845,2.06029 -0.381796,0.96493 -0.654003,1.67716 -1.00873,2.65879 -0.165803,0.45882 -0.324327,0.92024 -0.486491,1.38036 -0.105656,0.3083 -0.651514,1.90759 -0.79518,2.3046 -0.0836,0.23102 -0.190571,0.45374 -0.263361,0.68838 -0.0187,0.0603 -0.07086,0.17744 -0.0088,0.18913 1.437781,0.2709 0.01136,-0.4767 1.167732,0.23896 -0.228467,0.0363 -0.107941,0.0403 -0.356464,-0.38579 -0.275638,-0.47257 -0.57791,-1.17043 -0.777326,-1.65714 -0.418871,-1.0223 -0.523485,-1.37142 -0.895337,-2.43912 -0.493846,-1.54959 -0.376489,-1.14926 -0.827092,-2.68834 -0.279575,-0.95493 -0.527369,-1.92661 -0.876055,-2.85998 -0.05566,-0.14899 -0.12481,-0.29259 -0.187214,-0.43888 -0.923598,-1.76902 -3.425372,-0.46286 -2.501775,1.30616 z"
       id="path2259"
       style="fill:#ffffff;fill-opacity:1;fill-rule:nonzero;stroke:none;stroke-width:0.264583" />
    <path
       d="m 41.39044,263.25245 c -0.603052,-1.27641 -0.929593,-0.77936 -2.818419,0.31572 -0.140837,0.0817 -0.0159,0.32521 -0.02468,0.48777 -0.0123,0.22794 -0.02572,0.45582 -0.03857,0.68372 -0.178293,2.43468 -0.314992,4.87191 -0.321853,7.31348 0.004,0.26817 0.0081,0.53634 0.01215,0.80451 0.0307,1.99537 2.852586,1.95196 2.821889,-0.0434 v 0 c -0.0039,-0.25141 -0.0079,-0.50282 -0.01183,-0.75423 0.0048,-2.39102 0.144759,-4.77755 0.317408,-7.16184 0.01344,-0.23952 0.0285,-0.47895 0.04031,-0.71855 0.0048,-0.0984 0.106748,-0.31247 0.0097,-0.29551 -3.176654,0.5549 -1.831075,1.44137 -2.63743,0.36384 -0.0013,-0.002 0.09215,0.19422 0.09275,0.19549 0.842148,1.80921 3.400764,0.61824 2.558617,-1.19098 z"
       id="path2261"
       style="fill:#ffffff;fill-opacity:1;fill-rule:nonzero;stroke:none;stroke-width:0.264583" />
    <path
       d="m 34.314339,275.29431 c 1.90465,-0.40945 3.836789,-0.66996 5.767998,-0.91575 1.541637,-0.18613 3.089407,-0.32261 4.642295,-0.35124 1.995246,-0.0382 1.941184,-2.85994 -0.05406,-2.82171 v 0 c -1.654029,0.0327 -3.302957,0.173 -4.944967,0.37336 -2.007796,0.25614 -4.016351,0.52834 -5.996506,0.95447 -1.952233,0.41382 -1.366991,3.1747 0.585243,2.76087 z"
       id="path2263"
       style="fill:#ffffff;fill-opacity:1;fill-rule:nonzero;stroke:none;stroke-width:0.264583" />
    <path
       d="m 34.474888,265.5675 c 0.05053,-0.0972 0.09601,-0.19711 0.146738,-0.29423 0.01042,-0.02 0.04024,-0.08 0.03367,-0.0585 -0.0088,0.0287 -0.07918,0.15332 -0.09187,0.17639 1.773587,-0.75845 3.685442,-1.09573 5.574297,-1.42538 1.480026,-0.24133 2.972104,-0.39219 4.466114,-0.5119 1.989198,-0.15987 1.763098,-2.97302 -0.2261,-2.81315 v 0 c -1.581494,0.12748 -3.160921,0.28808 -4.727416,0.54524 -0.525502,0.0925 -1.052954,0.17461 -1.576507,0.27761 -0.930592,0.18307 -1.85866,0.40069 -2.768549,0.66977 -0.55008,0.16267 -1.320276,0.42309 -1.854931,0.67687 -0.20639,0.098 -0.398219,0.22406 -0.597331,0.33608 -0.147465,0.12993 -0.307226,0.24712 -0.442402,0.38979 -0.243623,0.25713 -0.368173,0.60151 -0.52602,0.91104 -0.792218,1.83163 1.798092,2.952 2.590313,1.12037 z"
       id="path2265"
       style="fill:#ffffff;fill-opacity:1;fill-rule:nonzero;stroke:none;stroke-width:0.264583" />
    <path
       d="m 21.145549,281.59845 c -0.09587,0.0303 0.07255,-0.19142 0.0089,-0.19064 -0.940025,0.0115 -1.892251,-0.0513 -2.818064,0.11199 -0.126409,0.0223 -6.09e-4,0.25671 -8.2e-4,0.38507 -0.0015,0.88527 -0.0012,0.52863 9.52e-4,1.55621 0.02045,2.36723 0.06584,4.73443 0.142089,7.10053 0.07126,1.33718 0.03225,2.61181 1.497458,3.26946 0.667106,0.29942 1.512177,0.11562 2.190577,0.0355 0.342336,-0.0543 0.684213,-0.11166 1.027007,-0.16303 0.893008,-0.13381 1.323617,-0.19424 2.229727,-0.2695 0.974533,-0.0809 1.950228,-0.10151 2.927273,-0.1229 0.208804,-0.004 0.417608,-0.009 0.626412,-0.0133 1.995162,-0.0424 1.935122,-2.86403 -0.06004,-2.82158 v 0 c -0.209502,0.004 -0.419007,0.009 -0.628509,0.0134 -1.052087,0.0233 -2.102459,0.0478 -3.151707,0.13681 -0.965075,0.0818 -1.442933,0.14845 -2.386741,0.28999 -0.319972,0.048 -0.639012,0.10199 -0.958517,0.15299 -0.195718,0.0316 -0.403313,0.0206 -0.587152,0.0948 -0.04206,0.017 -0.0014,0.0939 0.01817,0.13485 0.07656,0.16025 0.198962,0.29708 0.266632,0.46128 0.009,0.0219 -0.06147,0.0433 -0.06806,0.0206 -0.04845,-0.16729 -0.05961,-0.34357 -0.07573,-0.51699 -0.02451,-0.26374 -0.0307,-0.52886 -0.04605,-0.79329 -0.07553,-2.33773 -0.120041,-4.67658 -0.140628,-7.01544 -0.0024,-1.11204 -0.0023,-0.59604 -9.52e-4,-1.54528 2.03e-4,-0.14196 0.138961,-0.39407 6.08e-4,-0.4259 -0.919689,-0.21157 -1.87944,-0.18359 -2.822319,-0.22322 -0.06997,-0.003 0.05952,0.21348 -0.0099,0.20985 -0.0904,1.99356 2.728925,2.12141 2.819325,0.12784 z"
       id="path2267"
       style="fill:#ffffff;fill-opacity:1;fill-rule:nonzero;stroke:none;stroke-width:0.264583" />
    <path
       d="m 22.22511,287.92268 c 1.140535,-0.41398 2.3243,-0.68866 3.50849,-0.94303 0.825619,-0.18646 1.667301,-0.24854 2.509239,-0.2976 1.991932,-0.12117 1.820572,-2.93818 -0.171357,-2.81702 v 0 c -0.984102,0.062 -1.968033,0.13885 -2.933218,0.3559 -1.407689,0.30504 -2.826782,0.62531 -4.163859,1.1718 -1.788949,0.88438 -0.538244,3.41433 1.250705,2.52995 z"
       id="path2269"
       style="fill:#ffffff;fill-opacity:1;fill-rule:nonzero;stroke:none;stroke-width:0.264583" />
    <path
       d="m 20.167705,283.36986 c 0.89884,-0.65332 2.024511,-0.90422 3.077324,-1.19082 1.237784,-0.29432 2.497355,-0.48383 3.763849,-0.59823 0.371377,-0.0335 0.74404,-0.0509 1.11606,-0.0763 1.990812,-0.13834 1.795182,-2.95377 -0.19563,-2.81544 v 0 c -0.410734,0.029 -0.822206,0.0488 -1.232202,0.0868 -1.413785,0.13099 -2.819558,0.34688 -4.200093,0.6819 -1.437247,0.39835 -2.936594,0.78978 -4.126643,1.7362 -1.538591,1.27091 0.258745,3.44681 1.797335,2.1759 z"
       id="path2271"
       style="fill:#ffffff;fill-opacity:1;fill-rule:nonzero;stroke:none;stroke-width:0.264583" />
    <path
       d="m 43.195253,278.85388 c -0.12354,-0.14785 -0.221179,-0.32194 -0.370615,-0.44357 -0.829588,-0.67517 -1.992236,-0.70489 -2.994494,-0.50676 -0.315968,0.0625 -0.621382,0.1698 -0.932074,0.2547 -0.858933,0.3407 -1.797428,0.74874 -2.428592,1.4573 -0.212172,0.23819 -0.423442,0.49483 -0.534209,0.79396 -0.130818,0.35327 -0.243531,0.74666 -0.173334,1.11678 0.08479,0.44705 0.410773,0.81206 0.616159,1.21809 0.283705,0.19949 0.55104,0.42457 0.851109,0.59848 0.299791,0.17375 1.2246,0.52252 1.553882,0.6679 0.478652,0.21132 0.92442,0.42867 1.359813,0.721 0.202446,0.13592 0.387667,0.29589 0.581501,0.44383 0.465365,0.48646 0.920147,1.01519 1.150757,1.66028 0.04982,0.13935 0.08767,0.28709 0.08838,0.43508 7.93e-4,0.1591 -0.170596,0.37326 -0.246976,0.48826 -0.701849,0.84441 -1.724723,1.31338 -2.77913,1.5544 -0.270269,0.0618 -0.546563,0.0934 -0.819846,0.14006 -0.842155,0.0307 -0.463711,0.0548 -1.137179,-0.0319 -1.986793,-0.18742 -2.251845,2.62233 -0.265052,2.80975 v 0 c 1.208522,0.0925 0.572233,0.084 1.909033,-0.002 0.986014,-0.18831 1.345064,-0.21044 2.294829,-0.58445 1.057888,-0.41658 2.09369,-1.05377 2.821326,-1.94326 0.239284,-0.29251 0.411964,-0.63368 0.617945,-0.95053 0.112744,-0.36247 0.283244,-0.71183 0.338235,-1.08743 0.213672,-1.45947 -0.537115,-2.85146 -1.460579,-3.91813 -0.256471,-0.29625 -0.551564,-0.55671 -0.827344,-0.83507 -0.282829,-0.20662 -0.554998,-0.42869 -0.848493,-0.61985 -0.555254,-0.36167 -1.103452,-0.62517 -1.706676,-0.89183 -0.232,-0.10256 -0.46931,-0.19265 -0.704194,-0.28843 -0.158393,-0.0646 -0.311663,-0.14391 -0.475631,-0.19264 -0.04302,-0.0128 -0.08944,0.008 -0.134157,0.0114 0.01463,0.17879 0.07373,0.35949 0.04387,0.53637 -0.02111,0.12513 -0.104167,0.23646 -0.190096,0.32984 -0.01976,0.0215 -0.05962,-0.0516 -0.04355,-0.0759 0.274974,-0.41675 0.910482,-0.65533 1.337247,-0.85216 0.508886,-0.16468 0.45575,-0.17498 0.948494,-0.24012 0.09068,-0.012 0.182713,-0.0104 0.273659,-0.0201 0.0303,-0.003 0.09795,0.0105 0.08949,-0.0188 -0.04202,-0.14533 -0.287171,-0.17731 -0.27055,-0.36439 0.969182,1.74447 3.436229,0.37384 2.467047,-1.37062 z"
       id="path2273"
       style="fill:#ffffff;fill-opacity:1;fill-rule:nonzero;stroke:none;stroke-width:0.264583" />
  </g>
</svg>
