<?xml version="1.0" encoding="UTF-8" standalone="no"?>
<svg
   xmlns:dc="http://purl.org/dc/elements/1.1/"
   xmlns:cc="http://creativecommons.org/ns#"
   xmlns:rdf="http://www.w3.org/1999/02/22-rdf-syntax-ns#"
   xmlns:svg="http://www.w3.org/2000/svg"
   xmlns="http://www.w3.org/2000/svg"
   xmlns:sodipodi="http://sodipodi.sourceforge.net/DTD/sodipodi-0.dtd"
   xmlns:inkscape="http://www.inkscape.org/namespaces/inkscape"
   inkscape:version="1.0 (1.0+r73+1)"
   sodipodi:docname="news.svg"
   id="svg8"
   version="1.1"
   viewBox="0 0 64 64"
   height="64mm"
   width="64mm">
  <defs
     id="defs2" />
  <sodipodi:namedview
     inkscape:document-rotation="0"
     inkscape:window-maximized="1"
     inkscape:window-y="27"
     inkscape:window-x="0"
     inkscape:window-height="1016"
     inkscape:window-width="1920"
     inkscape:snap-page="true"
     showgrid="false"
     inkscape:current-layer="layer1"
     inkscape:document-units="mm"
     inkscape:cy="116.37895"
     inkscape:cx="110.47784"
     inkscape:zoom="3"
     inkscape:pageshadow="2"
     inkscape:pageopacity="0.0"
     borderopacity="1.0"
     bordercolor="#666666"
     pagecolor="#ffffff"
     id="base" />
  <metadata
     id="metadata5">
    <rdf:RDF>
      <cc:Work
         rdf:about="">
        <dc:format>image/svg+xml</dc:format>
        <dc:type
           rdf:resource="http://purl.org/dc/dcmitype/StillImage" />
        <dc:title />
      </cc:Work>
    </rdf:RDF>
  </metadata>
  <g
     transform="translate(0,-233)"
     id="layer1"
     inkscape:groupmode="layer"
     inkscape:label="Layer 1">
    <rect
       y="233"
       x="0"
       height="64"
       width="64"
       id="rect3713"
       style="fill:#ffc107;stroke-width:0.26458332;fill-opacity:1" />
    <path
       inkscape:connector-curvature="0"
       d="m 14.604734,259.56656 c -0.03389,0.0729 -0.07056,0.13084 -0.09123,0.19935 -0.03317,0.079 -0.06016,0.16002 -0.0823,0.24269 -0.03313,0.10413 -0.06363,0.20881 -0.08627,0.31571 -0.04044,0.15037 -0.06824,0.30347 -0.100279,0.45569 -0.03515,0.17157 -0.07142,0.34292 -0.105677,0.51468 -0.03593,0.18566 -0.07462,0.37067 -0.105675,0.55723 -0.04237,0.22914 -0.07888,0.45927 -0.118705,0.68885 -0.03819,0.24117 -0.07963,0.48179 -0.115452,0.72333 -0.04432,0.28134 -0.09027,0.5624 -0.134695,0.84372 -0.04511,0.29748 -0.09199,0.59468 -0.139605,0.89177 -0.05727,0.32893 -0.111758,0.65833 -0.170852,0.98694 -0.06299,0.35423 -0.132077,0.70735 -0.203084,1.06005 -0.07356,0.36635 -0.149077,0.73234 -0.227043,1.09779 -0.08111,0.39373 -0.167577,0.78639 -0.259277,1.1778 -0.0961,0.41095 -0.193502,0.82164 -0.295667,1.23114 -0.113625,0.43487 -0.227816,0.86963 -0.347585,1.30286 -0.127208,0.46137 -0.267357,0.91899 -0.408709,1.37617 -0.15912,0.48921 -0.326741,0.9758 -0.503561,1.4589 -0.177973,0.48745 -0.368504,0.96999 -0.560777,1.45192 -0.200849,0.48692 -0.406664,0.97173 -0.6160828,1.45502 -0.2106123,0.48464 -0.4282133,0.96621 -0.6509727,1.44537 -0.2272731,0.47787 -0.4571425,0.95451 -0.6932154,1.4281 -0.2374654,0.47426 -0.4822476,0.94479 -0.728852,1.41435 -0.2571654,0.48484 -0.5252246,0.96361 -0.7958444,1.44101 -0.27789,0.48549 -0.5575609,0.96996 -0.8379335,1.45401 -0.2974414,0.51325 -0.6043994,1.02087 -0.9139775,1.52686 -0.3264823,0.52942 -0.6629074,1.05268 -0.9985039,1.57636 -0.3529359,0.54557 -0.7204765,1.0814 -1.084926,1.61928 -0.370577,0.55463 -0.7578109,1.09777 -1.1447253,1.64103 -0.391495,0.54655 -0.790601,1.08748 -1.19392094,1.62533 -0.39942119,0.52633 -0.80485239,1.04804 -1.21492919,1.56609 -0.39656598,0.50273 -0.80711127,0.99412 -1.22216037,1.48162 -0.3935743,0.46937 -0.8020092,0.92589 -1.2176291,1.37574 -0.3913404,0.42833 -0.7991478,0.84085 -1.2152947,1.24496 -0.3935035,0.38265 -0.8061817,0.74493 -1.2215686,1.10348 -0.2686124,0.22991 -0.5436272,0.45207 -0.8221924,0.66973 -1.5740054,1.22678 -3.3089268,-0.9992 -1.7349213,-2.22597 v 0 c 0.2421665,-0.18814 0.4799375,-0.38184 0.7134989,-0.58058 0.3738899,-0.32243 0.7456011,-0.64798 1.0998285,-0.99208 0.3796958,-0.36813 0.7512854,-0.74441 1.1079871,-1.135 0.3898054,-0.42167 0.7726794,-0.84976 1.1415313,-1.28997 0.393301,-0.46182 0.7823846,-0.92728 1.1580938,-1.40359 0.3948084,-0.49874 0.7851482,-1.00099 1.1698442,-1.50758 0.38947124,-0.51937 0.77494754,-1.04165 1.15303641,-1.56939 0.37417076,-0.52537 0.74887837,-1.05046 1.10712155,-1.58691 0.35094174,-0.51793 0.70497214,-1.03383 1.04516494,-1.55895 0.3250374,-0.50719 0.6509477,-1.01393 0.9673278,-1.52658 0.2977824,-0.48664 0.5930876,-0.97483 0.8792014,-1.46845 0.2759969,-0.47646 0.5512535,-0.95335 0.8248554,-1.43119 0.2557508,-0.45116 0.5093473,-0.90346 0.7524946,-1.3616 0.2374302,-0.45199 0.4730983,-0.90492 0.7017599,-1.36143 0.2247337,-0.45051 0.4431594,-0.90411 0.659738,-1.35859 0.2123797,-0.45667 0.4197443,-0.91569 0.6205315,-1.37759 0.1984698,-0.45801 0.3934958,-0.91746 0.5843363,-1.37871 0.1824903,-0.4574 0.3636634,-0.91525 0.5324615,-1.37795 0.1607749,-0.43721 0.3113312,-0.87827 0.456905,-1.32076 0.1330214,-0.43016 0.2651421,-0.86066 0.3848703,-1.29475 0.1135719,-0.41047 0.2215563,-0.82245 0.3295703,-1.2344 0.099122,-0.39645 0.1930278,-0.7942 0.2862083,-1.19209 0.087679,-0.37292 0.1694641,-0.74727 0.2468761,-1.12246 0.07587,-0.35483 0.148954,-0.71029 0.220452,-1.06603 0.06735,-0.33364 0.132536,-0.66777 0.192175,-1.00289 0.05612,-0.31065 0.107054,-0.62219 0.161686,-0.9331 0.04729,-0.29501 0.09389,-0.59013 0.138613,-0.88554 0.04314,-0.27286 0.08761,-0.5455 0.130804,-0.81834 0.03934,-0.264 0.08411,-0.5271 0.126294,-0.79065 0.03894,-0.22444 0.07449,-0.44943 0.11607,-0.67342 0.03648,-0.21623 0.07979,-0.43104 0.12207,-0.64618 0.03696,-0.18303 0.07522,-0.36577 0.112725,-0.54867 0.03466,-0.15688 0.06046,-0.31581 0.103553,-0.47081 0.03525,-0.15827 0.07418,-0.3158 0.124717,-0.47 0.04344,-0.15334 0.09016,-0.30597 0.150293,-0.45374 0.04506,-0.12051 0.09325,-0.23878 0.150161,-0.35428 0.0091,-0.0184 0.03225,-0.0748 0.0281,-0.0547 -0.0051,0.0245 -0.0206,0.0455 -0.0309,0.0683 0.78611,-1.83426 3.380142,-0.72253 2.594031,1.11173 z"
       id="path5630"
       style="fill:#000000;fill-opacity:1;fill-rule:nonzero;stroke:none;stroke-width:0.26458332" />
    <path
       inkscape:connector-curvature="0"
       d="m 28.322013,264.14721 c 0.123402,-0.13831 -0.111048,0.12904 -0.113985,0.13243 -0.05755,0.0643 -0.107514,0.13502 -0.160152,0.20345 -0.05093,0.0684 -0.100905,0.13772 -0.146397,0.20989 -0.06628,0.10042 -0.130334,0.20214 -0.192278,0.30528 -0.06366,0.11402 -0.129897,0.22669 -0.191519,0.34185 -0.07215,0.13216 -0.143547,0.26478 -0.212428,0.39868 -0.07874,0.1506 -0.157753,0.30107 -0.234371,0.45275 -0.09222,0.17662 -0.187579,0.3516 -0.282892,0.52657 -0.09947,0.18304 -0.208135,0.36079 -0.311772,0.54143 -0.111541,0.19449 -0.228109,0.38595 -0.340662,0.57984 -0.126483,0.22068 -0.264657,0.43425 -0.396599,0.65161 -0.129676,0.22149 -0.264916,0.43967 -0.394508,0.66119 -0.138876,0.23963 -0.282994,0.47615 -0.424456,0.71424 -0.137742,0.23226 -0.272303,0.46633 -0.406432,0.70068 -0.144304,0.24153 -0.282518,0.48657 -0.423622,0.72997 -0.143735,0.24397 -0.284771,0.4895 -0.426513,0.73464 -0.147502,0.24362 -0.284677,0.49316 -0.424102,0.74141 -0.150966,0.2716 -0.30977,0.53871 -0.466551,0.80696 -0.16159,0.27401 -0.324654,0.54715 -0.48629,0.82114 -0.155198,0.26966 -0.303297,0.54332 -0.454387,0.81529 -0.161874,0.29163 -0.326742,0.58159 -0.488449,0.87332 -0.170396,0.30274 -0.339656,0.6061 -0.510762,0.90844 -0.169555,0.30309 -0.342041,0.60452 -0.51215,0.9073 -0.166413,0.2964 -0.335153,0.5913 -0.493007,0.89237 -0.164984,0.31167 -0.329213,0.62373 -0.492407,0.93634 -0.161898,0.31847 -0.334815,0.63121 -0.496769,0.94963 -0.155712,0.3095 -0.307898,0.62066 -0.453341,0.93511 -0.153386,0.3263 -0.299594,0.65576 -0.444222,0.986 -0.140315,0.32955 -0.273683,0.66194 -0.403784,0.99563 -0.137073,0.34692 -0.262427,0.69834 -0.384863,1.05064 -0.132785,0.36857 -0.247361,0.74324 -0.364059,1.11709 -0.121955,0.39871 -0.238051,0.79914 -0.35567,1.19914 -0.118668,0.41086 -0.2301,0.82379 -0.340281,1.237 -0.113871,0.42391 -0.218776,0.85019 -0.319562,1.27739 -0.107928,0.44095 -0.199869,0.88543 -0.290711,1.33012 -0.09242,0.4486 -0.160681,0.90163 -0.229447,1.35431 -0.0715,0.47765 -0.121601,0.95805 -0.165601,1.43889 -0.03909,0.50132 -0.05729,1.00381 -0.06614,1.50646 -0.0093,0.53597 0.0021,1.07202 0.01838,1.60774 0.02228,0.55334 0.05165,1.10634 0.09108,1.65871 0.03785,0.55255 0.09456,1.10352 0.147614,1.65474 0.05314,0.52022 0.110941,1.03998 0.173619,1.55914 0.05175,0.45994 0.124912,0.917 0.200125,1.37356 0.01202,0.0624 0.02404,0.12485 0.03607,0.18728 0.372927,1.96046 -2.399579,2.48786 -2.772506,0.5274 v 0 c -0.01608,-0.0853 -0.03217,-0.17065 -0.04826,-0.25598 -0.08182,-0.49676 -0.16072,-0.99417 -0.217374,-1.49455 -0.06517,-0.5416 -0.125801,-1.08376 -0.180915,-1.62648 -0.0553,-0.5746 -0.114101,-1.14896 -0.153489,-1.72495 -0.04184,-0.59059 -0.07375,-1.1818 -0.09689,-1.77342 -0.01756,-0.58098 -0.02947,-1.16232 -0.01922,-1.74357 0.01033,-0.57186 0.03148,-1.1436 0.07749,-1.71384 0.04931,-0.53648 0.10574,-1.07241 0.185861,-1.60529 0.07603,-0.49977 0.152199,-0.9998 0.2545,-1.49503 0.09656,-0.47266 0.194701,-0.945 0.309122,-1.41375 0.10717,-0.45358 0.218489,-0.90624 0.339417,-1.35637 0.11642,-0.43617 0.233988,-0.87208 0.359547,-1.30572 0.122026,-0.41494 0.242502,-0.83032 0.369226,-1.24386 0.125653,-0.40255 0.249653,-0.80575 0.392294,-1.20271 0.133979,-0.38543 0.271509,-0.76974 0.421251,-1.14936 0.144136,-0.36961 0.292033,-0.73774 0.448017,-1.10255 0.152417,-0.34801 0.306687,-0.69514 0.468136,-1.0391 0.16071,-0.34711 0.328464,-0.6908 0.500638,-1.03238 0.16667,-0.32593 0.342215,-0.64721 0.508904,-0.97314 0.164183,-0.31449 0.32937,-0.62846 0.495368,-0.94199 0.170608,-0.32469 0.351351,-0.64361 0.531432,-0.96311 0.171556,-0.3053 0.345439,-0.60928 0.516438,-0.9149 0.167017,-0.29511 0.332198,-0.59124 0.498588,-0.88671 0.162147,-0.29246 0.327324,-0.58322 0.489691,-0.87556 0.16295,-0.29332 0.322507,-0.58855 0.490797,-0.87887 0.159703,-0.27064 0.320717,-0.54051 0.480422,-0.81114 0.148684,-0.25436 0.299405,-0.50757 0.442566,-0.76511 0.145205,-0.25839 0.288032,-0.51814 0.441432,-0.77182 0.142386,-0.24624 0.284122,-0.49285 0.428444,-0.73797 0.138495,-0.23863 0.273841,-0.47907 0.415485,-0.71584 0.141912,-0.24794 0.284415,-0.4955 0.430095,-0.74125 0.138643,-0.23298 0.279511,-0.46464 0.415558,-0.69916 0.137785,-0.23462 0.280209,-0.46647 0.41825,-0.70094 0.122222,-0.20046 0.249277,-0.39796 0.366709,-0.60133 0.111006,-0.19122 0.225776,-0.38015 0.336021,-0.57181 0.09318,-0.16129 0.189878,-0.32051 0.279486,-0.48385 0.0819,-0.14997 0.163321,-0.30023 0.243276,-0.45124 0.08042,-0.15829 0.162316,-0.31583 0.244773,-0.47307 0.07773,-0.14985 0.156961,-0.29895 0.238018,-0.44702 0.08244,-0.15124 0.167382,-0.30113 0.253448,-0.45033 0.0802,-0.13354 0.163538,-0.26499 0.248731,-0.39539 0.08993,-0.13634 0.182224,-0.2712 0.282348,-0.40033 0.08652,-0.10435 0.160191,-0.2197 0.254279,-0.31801 0.09368,-0.10811 0.166255,-0.19079 0.251247,-0.27986 1.411111,-1.41111 3.406722,0.5845 1.995612,1.99561 z"
       id="path5632"
       style="fill:#000000;fill-opacity:1;fill-rule:nonzero;stroke:none;stroke-width:0.26458332" />
    <path
       inkscape:connector-curvature="0"
       d="m 15.738939,258.18206 c 0.03035,0.10222 0.05599,0.20572 0.07993,0.3096 0.02535,0.11258 0.04473,0.22639 0.06198,0.34046 0.01595,0.10845 0.0269,0.21752 0.03649,0.32669 0.0087,0.10258 0.0147,0.20535 0.01967,0.30817 0.0046,0.0992 0.0079,0.19842 0.0107,0.29766 -0.01132,-0.16718 0.02252,0.12461 0.02465,0.1419 0.01616,0.14384 0.0029,0.0467 0.0297,0.18368 -0.0015,-0.009 -0.0038,-0.0171 -0.0045,-0.0259 -2.59e-4,-0.003 0.0023,0.007 0.0033,0.01 0.005,0.0177 0.0094,0.0355 0.01454,0.0531 0.0038,0.0129 -0.01426,-0.026 -0.01036,-0.0388 0.0075,-0.0245 0.01717,0.0483 0.02582,0.0724 -0.0019,-0.007 0.01041,0.013 0.02617,0.0396 0.03006,0.0465 0.06304,0.0909 0.09609,0.13532 0.02634,0.0286 0.07505,0.0938 0.131606,0.14942 0.05612,0.0622 0.11831,0.1175 0.180616,0.1732 0.08018,0.0685 0.157236,0.14151 0.2421,0.20437 0.09688,0.0736 0.19175,0.14995 0.292589,0.21814 0.112898,0.0751 0.224985,0.15254 0.341846,0.22146 0.132326,0.0804 0.266727,0.15756 0.40251,0.23202 0.16162,0.0945 0.326964,0.18212 0.491943,0.27054 0.173785,0.087 0.346485,0.17594 0.521468,0.26053 0.186435,0.0905 0.376377,0.17349 0.567563,0.25335 0.21319,0.091 0.427789,0.17886 0.644272,0.26174 0.213465,0.0802 0.429725,0.15233 0.646964,0.2215 0.218287,0.065 0.437252,0.12797 0.658216,0.18333 0.203971,0.0496 0.410753,0.0856 0.617956,0.11837 0.209795,0.0327 0.420888,0.056 0.632061,0.0776 0.2006,0.0202 0.40164,0.0355 0.602773,0.0492 0.154999,0.0115 0.310727,0.007 0.466021,0.005 0.103659,-0.007 0.206961,-0.0146 0.309777,-0.0291 0.05139,-0.009 0.09972,-0.0275 0.148616,-0.0452 0.05128,-0.0172 0.09548,-0.0435 0.141319,-0.0714 0.04887,-0.0364 0.101509,-0.0847 0.153496,-0.12818 0.07948,-0.0709 0.151455,-0.14921 0.224179,-0.22687 0.09889,-0.11052 0.191635,-0.22612 0.285217,-0.34109 0.09879,-0.12687 0.194429,-0.25627 0.287321,-0.38752 0.109175,-0.14489 0.212616,-0.29387 0.316222,-0.44274 0.100782,-0.14291 0.200645,-0.28645 0.301203,-0.42953 0.06055,-0.0994 0.135965,-0.19006 0.191485,-0.29243 0.06942,-0.11685 0.143679,-0.231 0.211445,-0.34882 0.03811,-0.0734 0.08354,-0.143 0.115747,-0.21943 0.04744,-0.0915 0.08314,-0.1878 0.120638,-0.28347 0.04021,-0.10654 0.07452,-0.2152 0.110796,-0.32314 0.03627,-0.11323 0.06626,-0.22829 0.09893,-0.3426 0.02896,-0.0972 0.05306,-0.19578 0.07279,-0.29524 0.02925,-0.13259 0.06684,-0.26313 0.09599,-0.39573 0.02458,-0.12863 0.05396,-0.25607 0.08769,-0.38262 0.01857,-0.0654 0.03499,-0.13134 0.04915,-0.1978 0.01019,-0.0493 0.02111,-0.0985 0.02948,-0.14819 0.0075,-0.045 0.01468,-0.09 0.02191,-0.13501 0.005,-0.0311 0.0099,-0.0622 0.0149,-0.0934 0.0016,-0.0107 0.0034,-0.0214 0.0051,-0.0321 0.314325,-1.9707 3.101318,-1.52617 2.786993,0.44453 v 0 c -0.0016,0.0107 -0.0034,0.0214 -0.0051,0.0321 -0.005,0.0316 -0.01008,0.0631 -0.01511,0.0947 -0.009,0.0564 -0.01802,0.11272 -0.02755,0.16899 -0.01537,0.0883 -0.03302,0.17605 -0.05188,0.26362 -0.02426,0.11168 -0.05097,0.22284 -0.08181,0.33291 -0.02381,0.0879 -0.04061,0.17699 -0.05997,0.26996 -0.02601,0.11482 -0.05315,0.22954 -0.08467,0.34293 -0.03521,0.17011 -0.07494,0.33932 -0.124347,0.50594 -0.0446,0.156 -0.08578,0.31302 -0.137575,0.46688 -0.05147,0.15285 -0.100367,0.30668 -0.159554,0.4568 -0.05816,0.14673 -0.11506,0.29405 -0.185656,0.43545 -0.07483,0.15901 -0.157337,0.31376 -0.245036,0.46603 -0.07093,0.11944 -0.143692,0.23783 -0.215966,0.35646 -0.09791,0.16238 -0.203827,0.31949 -0.310417,0.47628 -0.09797,0.13915 -0.195165,0.27883 -0.293121,0.41799 -0.109379,0.15716 -0.218435,0.31459 -0.33369,0.46754 -0.128749,0.18017 -0.25948,0.35906 -0.397555,0.53224 -0.134951,0.16578 -0.269846,0.33168 -0.414576,0.48915 -0.150651,0.16069 -0.304105,0.31899 -0.472396,0.46153 -0.177041,0.14809 -0.355057,0.29651 -0.557177,0.41 -0.19708,0.1119 -0.399806,0.21334 -0.614226,0.28814 -0.228084,0.0791 -0.460812,0.14469 -0.700419,0.17836 -0.220443,0.0297 -0.442203,0.0486 -0.664611,0.055 -0.228787,0.002 -0.457992,0.006 -0.686326,-0.0118 -0.233041,-0.016 -0.465968,-0.0338 -0.698383,-0.0574 -0.263206,-0.0271 -0.526244,-0.0567 -0.787678,-0.0979 -0.289826,-0.0463 -0.578876,-0.0982 -0.863926,-0.16882 -0.277822,-0.0703 -0.553643,-0.14835 -0.827807,-0.23175 -0.269122,-0.0862 -0.537236,-0.17568 -0.801538,-0.2759 -0.241967,-0.0935 -0.482588,-0.19052 -0.721059,-0.29259 -0.23836,-0.10008 -0.475374,-0.20357 -0.70789,-0.31668 -0.209465,-0.10171 -0.41685,-0.20746 -0.624378,-0.31304 -0.174617,-0.0937 -0.349668,-0.18658 -0.520949,-0.28631 -0.173513,-0.096 -0.345965,-0.19407 -0.515136,-0.29756 -0.160387,-0.0996 -0.319709,-0.20105 -0.475029,-0.30839 -0.143037,-0.10012 -0.282805,-0.20459 -0.420323,-0.31216 -0.132767,-0.10489 -0.262034,-0.21405 -0.388321,-0.32665 -0.127972,-0.1147 -0.25314,-0.23242 -0.369523,-0.35903 -0.113449,-0.12428 -0.225631,-0.2502 -0.326839,-0.38479 -0.09627,-0.13005 -0.18963,-0.26242 -0.271523,-0.40214 -0.0929,-0.16149 -0.178058,-0.32757 -0.241254,-0.50323 -0.05631,-0.15747 -0.108017,-0.31671 -0.141545,-0.48083 -0.02463,-0.1261 -0.04998,-0.2523 -0.06097,-0.38051 -0.01654,-0.13516 -0.03979,-0.26963 -0.04458,-0.40601 -0.0023,-0.0811 -0.0049,-0.16221 -0.0086,-0.24327 -0.0031,-0.0657 -0.0069,-0.13136 -0.01216,-0.19692 -0.0044,-0.0512 -0.009,-0.10239 -0.01592,-0.15333 -0.0068,-0.0459 -0.01399,-0.0919 -0.02381,-0.13726 -0.01063,-0.0529 -0.02618,-0.10466 -0.04079,-0.15651 -0.548237,-1.91883 2.165397,-2.69415 2.713634,-0.77532 z"
       id="path5644"
       style="fill:#000000;fill-opacity:1;fill-rule:nonzero;stroke:none;stroke-width:0.26458332" />
    <path
       inkscape:connector-curvature="0"
       d="m 12.986974,257.56003 c 0.05235,-0.0943 0.10835,-0.1864 0.165863,-0.27761 0.07419,-0.11467 0.150701,-0.22631 0.233559,-0.33542 0.09074,-0.11865 0.188745,-0.23122 0.29006,-0.34084 0.103278,-0.11458 0.218787,-0.21713 0.334368,-0.31895 0.123486,-0.10895 0.251505,-0.21225 0.383151,-0.31113 0.124852,-0.10162 0.259571,-0.18955 0.392209,-0.28033 0.141761,-0.0951 0.286672,-0.1853 0.432711,-0.27362 0.155287,-0.0916 0.313386,-0.17834 0.474899,-0.25841 0.142312,-0.0773 0.290642,-0.14268 0.440242,-0.2044 0.18106,-0.0739 0.368835,-0.12856 0.558541,-0.17493 0.162193,-0.0393 0.326959,-0.0661 0.491991,-0.09 0.184346,-0.0268 0.369813,-0.0421 0.555798,-0.0504 0.19158,-0.002 0.383204,0.001 0.574525,0.011 0.191087,0.0107 0.380772,0.0347 0.570125,0.0616 0.197575,0.0227 0.390801,0.0695 0.583887,0.11549 0.210618,0.0505 0.41536,0.12091 0.617258,0.1986 0.192145,0.0711 0.377178,0.15837 0.557434,0.25542 0.172849,0.0952 0.340251,0.19943 0.502246,0.31205 0.163829,0.11397 0.316443,0.2426 0.465877,0.37456 0.162223,0.1453 0.309189,0.30637 0.451734,0.47067 0.159105,0.1826 0.294143,0.38357 0.425984,0.58615 0.145722,0.22988 0.271686,0.47115 0.38692,0.71747 0.126922,0.26532 0.224602,0.5425 0.310305,0.8234 0.08425,0.28464 0.141947,0.57591 0.192553,0.86809 0.05153,0.28853 0.07964,0.57986 0.09758,0.87214 0.02155,0.29799 0.01012,0.59651 -0.01591,0.89368 -0.02428,0.27035 -0.07053,0.53738 -0.13383,0.8011 -0.05975,0.23952 -0.143421,0.47193 -0.235279,0.70072 -0.09521,0.23106 -0.218995,0.44792 -0.352316,0.65867 -0.121836,0.18939 -0.262966,0.3645 -0.411176,0.53362 -0.164246,0.1861 -0.351142,0.34885 -0.548561,0.49841 -0.211912,0.16334 -0.448296,0.28545 -0.692915,0.39091 -0.217528,0.0868 -0.445482,0.13716 -0.675229,0.17773 -1.971622,0.3085 -2.407915,-2.47979 -0.436293,-2.7883 v 0 c -0.0064,0.002 -0.02588,0.007 -0.01916,0.007 0.01993,-0.002 0.07307,-0.0205 0.07606,-0.0137 -0.08721,0.0474 0.0641,-0.0261 0.07154,-0.0438 0.03807,-0.0194 0.07081,-0.0619 0.104641,-0.0908 0.05603,-0.0635 0.112033,-0.12631 0.15786,-0.19791 0.04464,-0.0634 0.08062,-0.13165 0.114067,-0.20144 0.04563,-0.10255 0.07941,-0.21067 0.109673,-0.31859 0.03982,-0.12078 0.04134,-0.25185 0.06101,-0.37649 0.01701,-0.15269 0.01912,-0.30682 0.0087,-0.46009 -0.01117,-0.18897 -0.02744,-0.37717 -0.06181,-0.56363 -0.03042,-0.17832 -0.06352,-0.35641 -0.112856,-0.53065 -0.04597,-0.15495 -0.09838,-0.3078 -0.169498,-0.45335 -0.05675,-0.12519 -0.12105,-0.24653 -0.19163,-0.36448 -0.06169,-0.0948 -0.120596,-0.19164 -0.194025,-0.27799 -0.06328,-0.0733 -0.126757,-0.14688 -0.19777,-0.21282 -0.06643,-0.0618 -0.136939,-0.11896 -0.210614,-0.17189 -0.07074,-0.0523 -0.14791,-0.0944 -0.223502,-0.13917 -0.07278,-0.0402 -0.14774,-0.0748 -0.226363,-0.10264 -0.08429,-0.0325 -0.168498,-0.0651 -0.256495,-0.0867 -0.108341,-0.0258 -0.215747,-0.0562 -0.32706,-0.0668 -0.113549,-0.0161 -0.226734,-0.0329 -0.341468,-0.0386 -0.105876,-0.0127 -0.214286,-8e-4 -0.320637,-0.007 -0.05653,0.003 -0.163894,0.0119 -0.239902,0.023 -0.07941,0.0112 -0.158916,0.0228 -0.237018,0.0413 -0.04862,0.0106 -0.09652,0.024 -0.143341,0.0409 -0.0942,0.0383 -0.186117,0.0812 -0.275239,0.13041 -0.0892,0.0397 -0.17158,0.0938 -0.257291,0.14025 -0.103304,0.0613 -0.204661,0.12595 -0.304964,0.19205 -0.100238,0.0675 -0.201118,0.13377 -0.29442,0.21107 -0.07442,0.0512 -0.139827,0.11409 -0.209369,0.17145 -0.07398,0.0607 -0.07695,0.0663 -0.144294,0.13714 0.04856,-0.0607 -0.08953,0.10424 -0.09543,0.11347 -0.02201,0.0265 -0.05048,0.0725 -0.08538,0.12295 -0.03555,0.0562 -0.0702,0.11283 -0.10198,0.17131 -0.990101,1.73268 -3.440476,0.33246 -2.450375,-1.40021 z"
       id="path5646"
       style="fill:#000000;fill-opacity:1;fill-rule:nonzero;stroke:none;stroke-width:0.26458332" />
    <path
       inkscape:connector-curvature="0"
       d="m 27.086663,257.57776 c -0.01185,-0.0812 -0.02328,-0.16253 -0.0335,-0.24399 0.02183,0.13623 0.02733,0.15173 -0.01286,0.003 -0.0209,-0.077 -0.03975,-0.15453 -0.056,-0.23267 -0.0141,-0.0688 -0.02627,-0.13789 -0.03644,-0.20735 -0.0058,-0.0412 -0.01103,-0.0825 -0.01633,-0.12372 -0.0065,-0.0526 -0.01074,-0.1055 -0.015,-0.15835 -0.0039,-0.12958 -0.04733,-0.36298 0.04037,0.18912 0.02127,0.0839 0.06224,0.18087 0.101756,0.25555 -0.06928,-0.11121 -0.115525,-0.23298 -0.153583,-0.35721 -0.0091,-0.0309 -0.01733,-0.0621 -0.02556,-0.0933 0.105523,0.30163 0.25786,0.57472 0.529089,0.76826 0.01331,0.009 0.01058,0.007 0.0016,0.001 -0.301061,-0.24939 -0.464238,-0.43311 -0.578681,-0.74478 -0.0088,-0.0247 -0.01691,-0.0495 -0.02495,-0.0744 0.0024,0.003 -0.0048,-0.0112 -0.0028,-0.009 0.402902,0.49089 0.384696,0.68783 0.763765,0.8537 0.01003,0.004 0.02008,0.008 0.03018,0.0122 -0.447807,-0.18899 -0.724384,-0.49988 -0.866148,-0.89746 -0.01183,-0.0343 -0.02212,-0.0692 -0.03203,-0.10408 -0.0019,-0.007 -0.0039,-0.0138 -0.0058,-0.0208 -0.0011,-0.003 -0.0019,-0.007 -0.0029,-0.0104 -5.29e-4,-0.002 -0.0011,-0.004 -0.0019,-0.006 -2.65e-4,-10e-4 -7.94e-4,-0.003 -0.0011,-0.004 -2.12e-4,-7.7e-4 -5.3e-4,-0.002 -5.3e-4,-0.002 -1.29e-4,-4.5e-4 -2.59e-4,-9.2e-4 -2.64e-4,-0.001 0.0551,-0.0331 1.86431,1.04483 1.283705,1.03094 -0.0029,-5e-5 -0.0057,-9e-5 -0.0086,-1.3e-4 0.18401,0.0426 0.632444,-0.11302 0.864034,-0.28833 -0.181777,0.12106 -0.14722,0.10879 -0.289589,0.17903 -0.01648,0.008 -0.06648,0.0314 -0.05019,0.0229 0.03501,-0.0183 0.07093,-0.0349 0.106389,-0.0523 -1.741191,0.97505 -3.12012,-1.48737 -1.378929,-2.46241 v 0 c 0.363271,-0.18358 -0.152704,0.0678 -0.14465,0.10416 0.263073,-0.20198 0.58012,-0.34559 0.932879,-0.32498 0.0095,1.4e-4 0.01897,2.7e-4 0.02845,4.8e-4 0.582443,0.0126 0.777706,0.24739 1.3754,1.03395 1.29e-4,4.5e-4 2.59e-4,9.3e-4 2.64e-4,10e-4 2.12e-4,7.7e-4 5.29e-4,0.002 5.29e-4,0.002 2.65e-4,0.001 7.94e-4,0.003 0.0011,0.004 5.29e-4,0.002 0.0011,0.004 0.0019,0.006 0.0011,0.003 0.0019,0.007 0.0028,0.01 0.0013,0.004 0.0024,0.009 0.0036,0.0129 -0.0026,-0.009 -0.01061,-0.035 -0.01471,-0.0458 -0.126175,-0.34759 -1.159936,-0.99698 -0.827133,-0.83565 0.02807,0.0104 0.05607,0.021 0.08367,0.0326 0.397767,0.17163 0.555699,0.40426 0.835261,0.89388 -0.0013,-0.003 -0.0026,-0.007 -0.0038,-0.0103 -0.109784,-0.29381 -0.269148,-0.36561 -0.544648,-0.67474 -0.0021,-0.002 0.01101,0.008 0.0081,0.005 0.02082,0.0136 0.04162,0.0272 0.06207,0.0414 0.299609,0.21113 0.469101,0.47237 0.593931,0.8341 0.0011,0.004 0.0091,0.0337 0.0029,0.0121 -0.01632,-0.0517 -0.176186,-0.3895 -0.107027,-0.25119 0.06992,0.12191 0.130234,0.24897 0.168151,0.38504 0.130773,0.77268 0.04323,0.22621 0.05673,0.35063 7.94e-4,0.01 0.0067,0.0757 0.0013,0.0274 0.0035,0.0273 0.007,0.0546 0.01064,0.0818 -0.0088,-0.0439 0.005,0.0271 0.0079,0.0432 -0.01299,-0.0474 0.01201,0.0476 0.01662,0.0658 0.03181,0.12152 0.07539,0.25014 0.08753,0.37876 0.008,0.0649 0.01757,0.12963 0.02686,0.19439 0.282223,1.97555 -2.511637,2.37467 -2.793857,0.39912 z"
       id="path5648"
       style="fill:#000000;fill-opacity:1;fill-rule:nonzero;stroke:none;stroke-width:0.26458332" />
    <path
       inkscape:connector-curvature="0"
       d="m 28.456514,256.64739 c -0.05205,0.0334 -0.102547,0.069 -0.152712,0.10512 -0.02957,0.0297 -0.283814,0.20118 -0.175639,0.12898 -0.0656,0.0477 -0.132188,0.0939 -0.197294,0.14229 -0.07183,0.0484 -0.128977,0.0954 -0.242459,0.1714 0.150148,-0.10616 -0.07398,0.057 -0.101206,0.0777 -0.235479,0.17163 -0.02707,0.0162 -0.189931,0.13832 0.04571,-0.0323 0.08138,-0.0646 -0.04277,0.0375 -0.0078,0.006 0.0315,-0.025 0.02384,-0.0185 -0.04635,0.0394 -0.06784,0.0557 -0.112811,0.091 0.116279,-0.0931 -0.127674,0.10756 -0.145219,0.12246 -0.05936,0.0503 -0.117139,0.10247 -0.174577,0.15497 0.0037,-0.003 0.01453,-0.0124 0.01117,-0.009 -0.0566,0.0573 -0.114551,0.11299 -0.169688,0.17181 -0.06907,0.0727 -0.134659,0.14833 -0.199644,0.22465 -0.08468,0.0984 -0.176274,0.19149 -0.257253,0.29306 -0.08416,0.0961 -0.164148,0.19571 -0.242257,0.29673 -0.07691,0.10559 -0.153278,0.21174 -0.231049,0.31677 -0.08565,0.11839 -0.171713,0.23657 -0.259264,0.35359 -0.08659,0.11837 -0.173419,0.23663 -0.261701,0.35377 -0.08923,0.13033 -0.194832,0.24813 -0.291807,0.37246 -0.115722,0.14564 -0.24273,0.2814 -0.369529,0.41724 -0.115883,0.12199 -0.236003,0.23971 -0.357131,0.35646 -0.06943,0.0657 -0.141912,0.12802 -0.214075,0.19066 -1.507247,1.30793 -3.356937,-0.82364 -1.84969,-2.13157 v 0 c 0.03506,-0.0304 0.07003,-0.0609 0.105259,-0.0911 0.08653,-0.0834 0.173246,-0.16657 0.255926,-0.25381 0.0743,-0.0791 0.149401,-0.15749 0.218137,-0.24169 0.08436,-0.10564 0.173266,-0.20785 0.250455,-0.31903 0.08656,-0.11437 0.171218,-0.2302 0.255847,-0.34599 0.08502,-0.11312 0.168047,-0.22775 0.250937,-0.34242 0.09196,-0.12362 0.180905,-0.24946 0.273541,-0.37258 0.09639,-0.12281 0.192822,-0.24576 0.295786,-0.36317 0.09112,-0.10847 0.184121,-0.21555 0.279866,-0.31993 0.0953,-0.11174 0.192269,-0.22213 0.293093,-0.32895 0.100887,-0.10684 0.204872,-0.21065 0.310659,-0.31264 0.08418,-0.0767 0.168916,-0.1529 0.255945,-0.22641 0.07583,-0.0639 0.153308,-0.12561 0.228537,-0.19016 0.08378,-0.0639 0.07922,-0.0694 0.20648,-0.16646 -0.08015,0.0648 0.112098,-0.0821 0.146476,-0.10621 8.47e-4,-5.8e-4 -0.0015,0.001 -0.0023,0.002 -0.01038,0.008 -0.02077,0.0158 -0.03115,0.0238 0.0104,-0.009 0.02164,-0.0166 0.03247,-0.0249 0.07967,-0.0604 0.161065,-0.11839 0.241521,-0.17774 0.02571,-0.017 0.214788,-0.15512 0.127484,-0.0904 0.06059,-0.045 0.12138,-0.0897 0.183731,-0.13216 0.118197,-0.0855 0.09716,-0.0679 0.222657,-0.16356 0.07756,-0.0558 0.15581,-0.11056 0.235855,-0.16273 1.660451,-1.10697 3.225937,1.24127 1.565487,2.34823 z"
       id="path5650"
       style="fill:#000000;fill-opacity:1;fill-rule:nonzero;stroke:none;stroke-width:0.26458332" />
    <path
       inkscape:connector-curvature="0"
       d="m 1.4993055,239.29834 c 0,-0.0704 0,-0.14085 0,-0.21127 0,-0.05 0,-0.10009 0,-0.15013 0,-0.0306 0,-0.0611 0,-0.0917 -0.00784,-0.51862 0.2507917,-0.93021 0.6589051,-1.22581 0.0726,-0.0526 0.1591981,-0.0825 0.2387971,-0.12368 1.0893246,-0.39235 1.8141157,0.33766 1.9660354,1.19069 0.031859,0.17378 0.01384,0.34893 -8.202e-4,0.52285 -0.010144,0.12929 -0.031023,0.2574 -0.045985,0.38618 -0.01697,0.15475 -0.041975,0.30847 -0.061458,0.46292 -0.020378,0.17174 -0.049568,0.34228 -0.074361,0.51342 -0.012684,0.0746 -0.012255,0.16238 -0.012544,0.23003 -8.202e-4,0.035 0.013745,0.11805 0.00193,0.0212 -0.055126,-0.25249 -0.2073121,-0.42456 -0.3955618,-0.58692 -0.1467811,-0.10709 -0.3150304,-0.17624 -0.4947944,-0.19705 -0.049863,-0.004 -0.086055,-0.002 -0.1343904,0.003 1.946847,-0.43847 2.5669372,2.31479 0.6200902,2.75326 v 0 c -0.1923621,0.0396 -0.3856011,0.0713 -0.5830136,0.0644 -0.3690715,-0.0184 -0.7245976,-0.10267 -1.0337205,-0.31663 -0.3550045,-0.2879 -0.5765373,-0.54538 -0.70701,-0.99829 -0.057855,-0.2283 -0.094087,-0.46071 -0.095376,-0.69677 -7.382e-4,-0.22751 0.00703,-0.4557 0.041369,-0.681 0.022438,-0.15466 0.048955,-0.30877 0.06763,-0.46391 0.018588,-0.14575 0.04162,-0.29091 0.058272,-0.43686 0.013341,-0.11272 0.030951,-0.22614 0.03706,-0.29839 0.022692,-0.26136 -0.00436,0.0375 0.021133,0.13367 0.154416,0.78851 0.9949704,1.34519 1.8894671,1.00834 0.076018,-0.0398 0.1588309,-0.0686 0.2280533,-0.11932 0.2841091,-0.20802 0.4371181,-0.38102 0.562433,-0.72762 0.050417,-0.13944 0.046168,-0.29295 0.070081,-0.43929 0.00116,-0.007 -0.00127,0.0301 0,0.0217 0,0.0306 0,0.0611 0,0.0917 0,0.05 0,0.10008 0,0.15013 0,0.0704 0,0.14084 0,0.21127 0,1.99561 -2.8222221,1.99561 -2.8222221,0 z"
       id="path5706"
       style="fill:#000000;fill-opacity:1;fill-rule:nonzero;stroke:none;stroke-width:0.26458332" />
    <path
       inkscape:connector-curvature="0"
       d="m 3.7813927,234.64586 c 0.014515,0.0985 0.025514,0.19738 0.036207,0.29631 0.038222,0.26363 -0.029322,-0.11482 0.012555,0.0671 0.011832,0.0694 0.08137,0.33096 2.156e-4,0.0314 -0.053098,-0.14305 -0.030321,-0.0834 -0.138336,-0.25965 -0.2450293,-0.30383 -0.4803569,-0.43919 -0.8652616,-0.5253 -0.081633,-0.0183 -0.1669672,-0.0106 -0.2504509,-0.0159 -0.028867,0.002 -0.05823,0 -0.086602,0.006 -0.1721374,0.0343 -0.3875452,0.0679 -0.5403543,0.17545 -0.1867618,0.1314 -0.3059999,0.23984 -0.1658066,0.11566 -0.1145132,0.0911 -0.1947681,0.20831 -0.2661951,0.33411 -0.032809,0.0628 -0.082509,0.21008 0.00229,-0.0273 0.049825,-0.12198 0.025469,-0.0568 0.04958,-0.12362 0.00224,-0.006 0.0085,-0.0251 0.00671,-0.0187 -0.033148,0.11819 -0.06631,0.23534 -0.074488,0.35529 0.00203,0.0105 -0.00137,-0.0428 -1.888e-4,-0.0322 0.020312,0.18421 0.03207,0.32248 0.094974,0.49118 0.1545793,0.37668 0.488412,0.66151 0.8728012,0.7806 0.3919422,0.10938 0.654521,0.0216 0.8737979,-0.0529 0.3894164,-0.19801 -0.3748792,0.20132 0.08581,-0.0442 0.031213,-0.017 0.058361,-0.0394 0.086988,-0.0599 0.00493,-0.004 -0.00928,0.008 -0.013933,0.0118 0.061703,-0.0624 0.1283661,-0.12027 0.1851091,-0.18721 0.6550014,-0.77279 -0.2205887,-1.32616 -0.8947084,-2.2592 -0.05049,-0.0699 -0.1722882,-0.007 -0.2584323,-0.0104 1.9906009,-0.14134 2.1904841,2.6738 0.1998832,2.81514 v 0 c -0.1033868,-0.002 -0.2465877,0.0748 -0.3101601,-0.007 -0.7624073,-0.97815 -1.61158826,-1.49842 -0.9337379,-2.31012 0.060855,-0.0729 0.1324613,-0.13604 0.198692,-0.20406 0.074333,-0.0623 0.1501259,-0.12301 0.2323088,-0.17483 0.3899964,-0.21488 0.1332816,-0.0728 0.065918,-0.0365 -0.013114,0.007 0.025361,-0.0156 0.038234,-0.0231 0.079875,-0.0465 0.068395,-0.0383 0.1702858,-0.0889 0.3054653,-0.10806 0.6398434,-0.20608 1.0380328,-0.0856 0.4268962,0.12893 0.7994893,0.42807 0.9681774,0.8506 0.079957,0.20794 0.1319731,0.42608 0.1222658,0.65098 -0.00246,0.20375 -0.025987,0.40782 -0.1005711,0.59952 -0.00592,0.0163 -0.092091,0.2478 -0.07251,0.18476 0.00748,-0.0224 0.014266,-0.0451 0.02245,-0.0673 0.00519,-0.0141 -0.0088,0.0287 -0.013446,0.0429 -0.031803,0.0976 -0.068982,0.19353 -0.1145477,0.28564 -0.1119925,0.20598 -0.2422064,0.39836 -0.4226552,0.55142 0.1492338,-0.13603 -0.2340856,0.17572 -0.3021637,0.20935 -0.2143344,0.10588 -0.2423305,0.10589 -0.53107,0.16481 -0.037233,0.008 -0.075787,0.006 -0.1136801,0.009 -0.091994,-0.005 -0.1858605,0.004 -0.2759814,-0.015 -0.4212045,-0.0894 -0.7075883,-0.26025 -0.9794975,-0.59036 -0.099442,-0.15748 -0.1962235,-0.30773 -0.2546326,-0.48585 -0.031945,-0.10956 -0.064676,-0.2178 -0.086097,-0.32983 -0.029525,-0.13014 -0.057853,-0.26074 -0.067475,-0.39422 -0.00721,-0.0668 -0.0142347,-0.1337 -0.0241553,-0.20019 -0.28222223,-1.97556 2.5116352,-2.37468 2.7938574,-0.39912 z"
       id="path5708"
       style="fill:#000000;fill-opacity:1;fill-rule:nonzero;stroke:none;stroke-width:0.26458332" />
    <path
       inkscape:connector-curvature="0"
       d="m 8.7149912,234.46594 c 0.075802,0.17681 0.1260634,0.36265 0.1694897,0.54958 0.05338,0.23129 0.06447,0.46888 0.074469,0.70512 0.011382,0.24675 -0.00159,0.4937 -0.020386,0.73972 -0.019621,0.25522 -0.052274,0.50923 -0.086997,0.76277 -0.040653,0.26817 -0.088345,0.53514 -0.1342422,0.80244 -0.047459,0.24324 -0.092571,0.48684 -0.1303155,0.73178 -0.041942,0.20932 -0.067358,0.42082 -0.089593,0.63293 -0.016354,0.12416 -0.023402,0.24827 -0.017052,0.37312 0.0087,0.0282 -0.00674,-0.0235 0.00792,0.047 6.615e-4,0.003 8.996e-4,-0.006 7.673e-4,-0.01 -8.731e-4,-0.0185 -0.00444,-0.0369 -0.00716,-0.0552 -0.034479,-0.10861 -0.1043273,-0.19939 -0.1836277,-0.2791 -0.0041,-0.009 -0.093759,-0.0692 -0.070692,-0.0638 0.044447,0.0105 0.088649,0.0165 0.1174745,0.0191 0.094418,0.0135 0.1886839,0.0128 0.2836328,0.0116 0.1090091,0.003 0.2167935,-0.0104 0.3250716,-0.0208 0.022717,-0.009 0.1865301,-0.0286 0.1249698,-0.0258 1.9244575,-0.52815 2.6713625,2.19345 0.7469053,2.72159 v 0 c -0.1979512,0.0527 -0.3992952,0.0901 -0.6028661,0.11355 -0.1875867,0.018 -0.3754194,0.035 -0.5640949,0.0335 -0.2222844,0.002 -0.4444317,-0.005 -0.6651471,-0.0334 -0.2613626,-0.0348 -0.5196216,-0.0892 -0.7675647,-0.18082 -0.2681716,-0.10475 -0.5271929,-0.23243 -0.7491743,-0.41901 -0.2702282,-0.24073 -0.4982051,-0.51792 -0.6278751,-0.86059 -0.1066188,-0.28479 -0.1774975,-0.57925 -0.18845,-0.88436 -0.00949,-0.26134 -0.00193,-0.52248 0.030242,-0.78227 0.027183,-0.25762 0.057849,-0.51492 0.1073224,-0.76939 0.040436,-0.26028 0.086256,-0.51962 0.1378527,-0.77793 0.040532,-0.23578 0.082482,-0.47127 0.1196046,-0.70762 0.0272,-0.19847 0.053797,-0.3972 0.069255,-0.59698 0.010544,-0.13452 0.020704,-0.26957 0.014473,-0.40454 -0.00352,-0.0855 -0.008,-0.17905 -0.00663,-0.19703 -0.00217,-0.0103 -0.022136,-0.0753 -0.011609,-0.0638 -0.7861102,-1.83426 1.8079214,-2.94599 2.5940315,-1.11173 z"
       id="path5710"
       style="fill:#000000;fill-opacity:1;fill-rule:nonzero;stroke:none;stroke-width:0.26458332" />
    <path
       inkscape:connector-curvature="0"
       d="m 4.9691797,237.34011 c 0.132919,-0.0931 0.2753765,-0.17146 0.4192048,-0.24615 0.1871914,-0.0961 0.3827574,-0.17343 0.5790314,-0.2485 0.2362083,-0.0877 0.4781304,-0.15826 0.7204302,-0.22674 0.2666061,-0.0745 0.5367118,-0.13603 0.8070808,-0.19515 0.2878132,-0.0628 0.5789607,-0.108 0.8705709,-0.14881 0.2890705,-0.0438 0.5806874,-0.0641 0.8727311,-0.0714 0.2893874,-0.0106 0.5763336,0.0179 0.8606021,0.0696 0.08103,0.0229 0.162051,0.0459 0.243076,0.0688 1.894129,0.62829 1.005598,3.30699 -0.8885314,2.67871 v 0 c 0.033868,0.007 0.067735,0.0146 0.1016034,0.0218 -0.083725,-0.0175 -0.1733992,-0.0213 -0.2616136,-0.0172 -0.1801667,6.9e-4 -0.3597728,0.0196 -0.5379818,0.0449 -0.2209975,0.0307 -0.4417893,0.0639 -0.6599513,0.11125 -0.2143633,0.0464 -0.4284768,0.0952 -0.6399678,0.15337 -0.1611079,0.0455 -0.3223466,0.0908 -0.4801444,0.14703 -0.1035015,0.0396 -0.207836,0.0772 -0.3068095,0.12759 -0.069649,0.0288 -0.071183,0.0397 -0.1338437,0.0792 -1.6604498,1.10697 -3.225937,-1.24126 -1.5654872,-2.34823 z"
       id="path5712"
       style="fill:#000000;fill-opacity:1;fill-rule:nonzero;stroke:none;stroke-width:0.26458332" />
    <path
       inkscape:connector-curvature="0"
       d="m 14.299097,235.7486 c -0.08058,0.10024 0.134799,-0.16864 -0.03104,0.0443 -0.0011,6.9e-4 -0.02751,0.0447 -0.06471,0.10429 -0.0086,0.0208 -0.06244,0.11965 -0.09792,0.18505 -0.01682,0.03 -0.02476,0.0517 -0.04892,0.10622 -0.04362,0.0962 -0.09496,0.18864 -0.146276,0.28091 -0.0043,0.008 -0.0087,0.0155 -0.01298,0.0233 -0.972214,1.74278 -3.436872,0.36786 -2.464659,-1.37492 v 0 c 0.0038,-0.007 0.0075,-0.0135 0.01132,-0.0203 0.0074,-0.0133 0.06497,-0.12142 0.03283,-0.0534 0.04624,-0.10416 0.09291,-0.20832 0.148266,-0.30805 0.05529,-0.10181 0.07036,-0.13256 0.156101,-0.28712 0.07441,-0.12195 0.150064,-0.24361 0.235753,-0.35803 0.08987,-0.11717 0.180163,-0.23477 0.28661,-0.33787 1.411111,-1.41111 3.406723,0.5845 1.995612,1.99561 z"
       id="path5714"
       style="fill:#000000;fill-opacity:1;fill-rule:nonzero;stroke:none;stroke-width:0.26458332" />
    <path
       inkscape:connector-curvature="0"
       d="m 16.82264,238.61528 c -0.159047,0.003 -0.0175,-0.005 -0.126481,0.006 -0.0545,0.004 -0.09124,0.0143 -0.158757,0.0302 -0.08286,0.0261 -0.165812,0.0538 -0.248513,0.0811 -0.07579,0.0285 -0.151061,0.058 -0.224331,0.0932 -0.07251,0.03 -0.149464,0.0731 -0.210995,0.10591 -0.120987,0.0808 0.04326,-0.0363 -0.04808,0.0375 0.06327,-0.0465 0.103604,-0.0934 0.154663,-0.1636 0.241671,-0.37169 0.270153,-0.77341 0.134251,-1.19055 -0.09482,-0.23267 -0.234107,-0.41068 -0.432993,-0.5565 -0.0633,-0.0484 -0.268391,-0.13056 -0.03963,-0.0335 -0.0038,-0.002 -0.01565,-0.005 -0.01144,-0.005 0.03543,-0.002 0.236924,0.0879 0.274638,0.1028 0.137183,0.0549 0.271072,0.11693 0.402443,0.18454 0.183693,0.0973 0.354433,0.21644 0.51759,0.34465 0.163098,0.12913 0.308728,0.27805 0.447214,0.43275 0.161742,0.18371 0.295285,0.38872 0.41545,0.60123 0.09944,0.17775 0.185842,0.36161 0.262076,0.55037 0.09204,0.24325 0.14359,0.49795 0.179918,0.75457 0.03691,0.27371 0.01402,0.54796 -0.02905,0.81904 -0.05487,0.30615 -0.177333,0.58814 -0.335802,0.85374 -0.164024,0.2613 -0.384453,0.47418 -0.62469,0.66416 -0.221881,0.1691 -0.473073,0.28929 -0.731404,0.39071 -0.221068,0.0836 -0.450244,0.14101 -0.681688,0.18667 -0.206774,0.0341 -0.415648,0.0514 -0.624846,0.0601 -0.143584,0.002 -0.287122,-0.003 -0.430599,-0.008 -0.01585,-5.5e-4 -0.03169,-0.001 -0.04754,-0.002 -1.994437,-0.0685 -1.897596,-2.88904 0.09684,-2.82056 v 0 c 0.01515,5.3e-4 0.03031,0.001 0.04546,0.002 0.08694,0.003 0.173892,0.006 0.260863,0.008 -0.02862,0.006 0.128091,-0.01 0.145429,-0.0113 0.0557,-0.006 0.0235,-0.003 0.05721,-0.006 -0.05551,0.0193 0.147615,-0.0361 0.168428,-0.0437 0.01209,-0.004 0.05808,-0.0238 0.02746,0.003 -0.02991,0.0323 -0.02836,0.043 -0.05851,0.0889 -0.02811,0.0604 -0.04736,0.10772 -0.04523,0.14086 -5.82e-4,0.009 0.0011,0.0151 0.0079,0.0425 0.0013,0.005 -3.44e-4,-0.0108 -5.03e-4,-0.0162 0.01437,0.0475 -0.03605,-0.16012 -0.0035,-0.0664 -0.02832,-0.0787 -0.06951,-0.15113 -0.1085,-0.22495 -0.01315,-0.032 -0.04383,-0.07 -0.05271,-0.089 -0.03594,-0.0408 -0.06804,-0.0778 -0.09413,-0.0991 -0.0015,-0.001 -0.137344,-0.0856 -0.05396,-0.0443 0.0026,0.001 -0.0049,-0.003 -0.0073,-0.005 -0.05429,-0.0286 -0.109836,-0.054 -0.167336,-0.0761 -0.0858,-0.033 -0.169446,-0.0631 -0.262623,-0.0972 -0.148823,-0.0617 -0.29843,-0.1241 -0.433426,-0.21321 -0.28455,-0.19886 -0.511381,-0.43033 -0.64944,-0.7573 -0.17818,-0.52223 -0.142007,-0.96643 0.143251,-1.44065 0.118506,-0.1717 0.256544,-0.32809 0.418829,-0.45994 0.134132,-0.10737 0.272887,-0.20915 0.423634,-0.29231 0.141912,-0.0784 0.285618,-0.15344 0.433798,-0.21943 0.166425,-0.0747 0.334694,-0.14561 0.507625,-0.20403 0.161838,-0.0535 0.323611,-0.1076 0.489108,-0.14892 0.170212,-0.0398 0.342054,-0.0743 0.516371,-0.0902 0.137473,-0.0139 0.275317,-0.0238 0.413595,-0.0205 1.995612,0 1.995612,2.82222 0,2.82222 z"
       id="path5716"
       style="fill:#000000;fill-opacity:1;fill-rule:nonzero;stroke:none;stroke-width:0.26458332" />
    <path
       inkscape:connector-curvature="0"
       d="m 8.8469167,246.52197 c -0.017391,0.0865 -0.051412,0.21113 -0.077391,0.31213 -0.05188,0.18473 -0.095965,0.37148 -0.1428996,0.55749 -0.058715,0.23174 -0.1160396,0.46379 -0.1702369,0.69665 -0.05263,0.24848 -0.1061349,0.49679 -0.1534853,0.74634 -0.039179,0.21266 -0.072175,0.42618 -0.091166,0.64157 -0.00537,0.14363 -0.026292,0.29164 -0.00586,0.43493 -0.0048,0.0542 0.019381,0.0971 0.031284,0.1246 -0.016206,-0.0654 -0.051181,-0.11647 -0.093688,-0.1665 0.00485,-0.017 -0.1505098,-0.11333 -0.101628,-0.10009 -0.066499,-0.0195 0.1007517,0.003 0.1218885,0.005 0.1137095,0.007 0.2276287,-0.002 0.340981,-0.0112 0.1354217,-0.01 0.2701753,-0.0293 0.4026302,-0.0591 0.1595099,-0.0361 0.3201956,-0.0692 0.4774279,-0.11447 0.1521598,-0.0392 0.3008887,-0.0897 0.4509368,-0.13602 0.072518,-0.0199 0.1425906,-0.0472 0.2133867,-0.0725 1.879912,-0.66963 2.826908,1.98897 0.946997,2.6586 v 0 c -0.109289,0.0389 -0.218382,0.0788 -0.329864,0.11111 -0.178425,0.0547 -0.355449,0.11409 -0.536237,0.16082 -0.2131279,0.0572 -0.427719,0.10906 -0.643666,0.15461 -0.2506226,0.0512 -0.5033458,0.093 -0.7588425,0.11032 -0.2572359,0.02 -0.5157634,0.0312 -0.7734998,0.0122 -0.2938984,-0.0234 -0.5864183,-0.0673 -0.8664919,-0.16306 -0.3249809,-0.12034 -0.6344793,-0.27479 -0.8911183,-0.51291 -0.2504614,-0.25406 -0.469016,-0.53328 -0.5963417,-0.87124 -0.107397,-0.2949 -0.1892887,-0.59837 -0.2080577,-0.9133 -0.02001,-0.30248 -0.019037,-0.606 0.00923,-0.90811 0.028556,-0.30615 0.072178,-0.61035 0.1292315,-0.91254 0.05484,-0.28746 0.1157251,-0.57371 0.1774886,-0.85974 0.05835,-0.24976 0.1196927,-0.49874 0.1825628,-0.74738 0.048315,-0.19063 0.093226,-0.38217 0.1464847,-0.57151 0.032915,-0.12707 0.065033,-0.25421 0.096305,-0.38169 0.548237,-1.91882 3.2618711,-1.1435 2.7136344,0.77533 z"
       id="path5718"
       style="fill:#000000;fill-opacity:1;fill-rule:nonzero;stroke:none;stroke-width:0.26458332" />
    <path
       inkscape:connector-curvature="0"
       d="m 5.0228846,247.45098 c 0.1272924,-0.05 0.2560989,-0.0963 0.385282,-0.14119 0.1865085,-0.0628 0.3797099,-0.10116 0.5714614,-0.1438 0.2083578,-0.0428 0.418098,-0.0789 0.627803,-0.11445 0.2374943,-0.0395 0.4757232,-0.0744 0.7134469,-0.11248 0.2761125,-0.0421 0.5524934,-0.0826 0.8289012,-0.12276 0.2874385,-0.0409 0.5762315,-0.0706 0.8641484,-0.10775 0.2882422,-0.0427 0.5787938,-0.0634 0.8694775,-0.0802 0.17992,-0.009 0.084127,-0.006 0.287414,-0.0105 1.995219,-0.0396 2.051284,2.78202 0.05607,2.82166 v 0 c -0.107753,10e-4 -0.04727,-5.3e-4 -0.181399,0.006 -0.2243746,0.0128 -0.4486796,0.0272 -0.6710053,0.0617 -0.2728436,0.0351 -0.5464214,0.0639 -0.8189407,0.10156 -0.2639663,0.0383 -0.5278821,0.077 -0.7915756,0.11708 -0.2288024,0.0362 -0.4579435,0.0702 -0.6864842,0.10807 -0.162083,0.0272 -0.3239926,0.0558 -0.485416,0.0866 -0.088678,0.0197 -0.177425,0.0403 -0.2664568,0.0578 -0.053516,0.0177 -0.1697596,0.0651 -0.190994,0.0663 -1.8342573,0.78611 -2.9459851,-1.80792 -1.1117278,-2.59403 z"
       id="path5720"
       style="fill:#000000;fill-opacity:1;fill-rule:nonzero;stroke:none;stroke-width:0.26458332" />
    <path
       inkscape:connector-curvature="0"
       d="m 15.698611,244.54681 c 0,0.012 2.39e-4,0.0482 0,0.0361 -0.003,-0.14898 0.01105,0.0814 0.01561,0.0995 0.01873,0.15106 0.04233,0.30134 0.06465,0.45189 0.03072,0.21564 0.06537,0.43061 0.09308,0.64669 0.03794,0.24341 0.06915,0.48773 0.09689,0.73248 0.02185,0.23799 0.05262,0.47495 0.08096,0.71221 0.02878,0.21406 0.04111,0.43004 0.06854,0.6442 0.02201,0.1639 0.04577,0.32757 0.06792,0.49145 0.0082,0.0956 0.01836,0.13226 0.03848,0.21572 0.0092,0.0373 0.03889,0.11806 0.0027,0.0126 -0.316482,-0.87878 -1.770158,-1.35054 -2.487282,-0.2162 -0.0155,0.0286 -0.03226,0.0566 -0.04649,0.0859 -0.02806,0.0577 -0.04388,0.0997 -0.06284,0.15896 -0.0063,0.0198 -0.0075,0.0413 -0.01631,0.0601 -0.0019,0.004 0.0013,-0.009 0.0019,-0.013 0.02632,-0.11778 0.0492,-0.23616 0.07394,-0.35425 0.03296,-0.15786 0.07344,-0.31394 0.117956,-0.46888 0.04698,-0.16956 0.104989,-0.33551 0.168717,-0.49941 0.06221,-0.17166 0.144454,-0.33478 0.230355,-0.49553 0.133404,-0.25286 0.319133,-0.46633 0.536201,-0.65045 0.27191,-0.20461 0.588245,-0.34984 0.931841,-0.37398 0.09183,-0.006 0.184112,5.3e-4 0.276168,7.9e-4 0.35904,0.024 0.6741,0.18036 0.962731,0.38352 0.197195,0.14926 0.364711,0.3312 0.519228,0.52311 0.115751,0.15021 0.222586,0.3069 0.332544,0.46131 0.100921,0.13971 0.199995,0.28071 0.303038,0.41889 0.08444,0.11201 0.171532,0.22181 0.265702,0.32577 0.06868,0.0675 0.129911,0.14817 0.209696,0.20342 0.03821,0.0332 0.08386,0.0544 0.128175,0.0781 0.05766,0.0124 -0.08124,-0.0341 -0.09353,-0.0379 1.94822,0.43233 1.336813,3.18753 -0.611407,2.7552 v 0 c -0.222749,-0.0568 -0.442541,-0.12383 -0.643839,-0.23829 -0.203699,-0.11164 -0.401914,-0.23405 -0.580109,-0.38401 -0.180287,-0.15241 -0.351987,-0.31479 -0.509145,-0.49125 -0.150919,-0.16892 -0.294118,-0.34429 -0.429489,-0.52597 -0.115048,-0.15478 -0.226508,-0.3121 -0.339196,-0.46859 -0.07951,-0.11196 -0.157802,-0.2248 -0.238187,-0.33612 -0.02917,-0.0375 -0.03194,-0.038 -5.82e-4,-0.008 -0.046,-0.0477 -0.05145,-0.0498 -0.0034,-0.0154 0.153157,0.0981 0.326913,0.15978 0.509654,0.17035 0.296796,-0.007 0.566213,-0.0563 0.796991,-0.25614 0.06271,-0.058 0.144912,-0.14758 0.164642,-0.20134 -0.03343,0.0621 -0.06899,0.12275 -0.08973,0.19073 -0.03528,0.0892 -0.06654,0.17924 -0.09082,0.27216 -0.03182,0.0875 -0.04372,0.18176 -0.06723,0.27149 -0.0062,0.0316 -0.07073,0.35162 -0.04751,0.21731 -0.03976,0.23221 -0.101786,0.46041 -0.222718,0.66508 -0.82646,1.3722 -2.240084,0.71969 -2.590392,-0.21124 -0.04222,-0.1154 -0.07776,-0.23301 -0.106913,-0.35241 -0.03883,-0.1632 -0.07287,-0.32756 -0.09048,-0.4946 -0.02383,-0.17712 -0.05004,-0.35392 -0.07299,-0.53116 -0.02519,-0.21548 -0.04288,-0.43176 -0.0689,-0.64717 -0.02901,-0.24318 -0.06045,-0.48607 -0.08302,-0.72996 -0.02606,-0.23158 -0.05704,-0.46248 -0.09213,-0.69287 -0.02487,-0.19741 -0.0579,-0.39355 -0.08536,-0.59059 -0.02482,-0.1687 -0.05078,-0.33718 -0.07215,-0.50637 -0.0194,-0.16383 -0.0377,-0.32847 -0.03841,-0.49363 0,-1.99562 2.822222,-1.99562 2.822222,0 z"
       id="path5722"
       style="fill:#000000;fill-opacity:1;fill-rule:nonzero;stroke:none;stroke-width:0.26458332" />
    <path
       inkscape:connector-curvature="0"
       d="m 19.693074,245.49445 c 0.106106,0 0.212213,0 0.318319,0 0.124996,0 0.249993,0 0.374989,0 0.102616,0.004 0.187977,-0.006 0.292883,-0.0144 0.08984,-0.004 0.178335,-0.021 0.26656,-0.0379 0.107427,-0.0163 0.210454,-0.0509 0.314693,-0.0804 0.05423,-0.026 0.115655,-0.0407 0.166512,-0.0738 0.0522,-0.0313 0.105412,-0.0642 0.153575,-0.0996 0.0083,-0.007 0.01708,-0.0127 0.02493,-0.0199 0.0019,-0.002 -0.0048,0.002 -0.0069,0.003 -0.02743,0.0195 -0.04284,0.0334 -0.04679,0.0374 -0.01667,0.0199 -0.01636,0.0215 -0.0047,7.7e-4 -0.01136,0.0122 0.01081,-0.0247 0.0077,-0.0187 -0.03935,0.077 -0.0246,0.0447 -0.05035,0.1053 -0.04019,0.098 -0.04726,0.2006 -0.04761,0.30488 0.01489,0.18472 0.09257,0.34978 0.200871,0.49665 0.07957,0.1017 0.180837,0.1703 0.296778,0.22424 0.130485,0.0502 0.04622,0.0296 0.114248,0.0368 -0.05377,0.007 -0.105372,0.0265 -0.160408,0.0427 -0.07378,0.0219 -0.139361,0.0623 -0.205236,0.10096 -0.05104,0.0377 -0.09762,0.0827 -0.139943,0.13016 0.01164,0.0113 -0.04075,0.0539 -0.03439,0.067 0.01076,0.0222 0.02311,-0.0515 0.0156,-0.0121 0.01639,-0.0392 0.01831,-0.0175 0.03133,-0.0425 -0.0012,-0.0588 0.0039,-0.0649 0.02361,-0.0316 0.03746,0.0605 0.08713,0.10868 0.13949,0.15604 0.109896,0.10873 0.239048,0.1944 0.371527,0.27282 0.173207,0.0925 0.353622,0.17096 0.537686,0.23913 0.211848,0.0745 0.430099,0.12836 0.64911,0.17693 0.235005,0.0509 0.472598,0.0886 0.710392,0.12365 0.215547,0.0312 0.431932,0.056 0.648376,0.0799 0.143329,0.0128 0.28586,0.0317 0.428144,0.053 1.973311,0.29751 1.552568,3.08819 -0.420744,2.79068 v 0 c -0.105607,-0.0161 -0.211336,-0.0294 -0.317847,-0.0386 -0.250848,-0.0278 -0.501593,-0.0569 -0.751365,-0.0933 -0.306154,-0.0455 -0.6119,-0.0949 -0.914279,-0.16154 -0.348139,-0.0786 -0.694553,-0.16736 -1.029853,-0.29096 -0.348357,-0.13315 -0.691413,-0.28263 -1.013355,-0.47211 -0.313042,-0.1943 -0.615739,-0.40643 -0.877197,-0.66801 -0.273646,-0.27475 -0.518995,-0.57446 -0.69322,-0.92347 -0.172937,-0.36259 -0.302061,-0.74297 -0.311982,-1.14905 -0.0015,-0.39086 0.04485,-0.77775 0.199557,-1.14083 0.148908,-0.33186 0.336292,-0.64209 0.589381,-0.90611 0.23086,-0.23235 0.478388,-0.44938 0.764428,-0.6123 0.266249,-0.14968 0.541739,-0.28353 0.837466,-0.36495 0.27475,-0.0757 0.553652,-0.14163 0.840245,-0.14668 0.318934,-0.002 0.636922,0.0247 0.939563,0.13405 0.329801,0.13 0.630606,0.30864 0.866378,0.57846 0.242352,0.3002 0.425638,0.63327 0.468856,1.0239 0.03255,0.30908 0.01883,0.61839 -0.07873,0.91602 -0.08938,0.24922 -0.204759,0.48596 -0.362634,0.69968 -0.163689,0.21427 -0.344738,0.41519 -0.566299,0.57179 -0.182082,0.13055 -0.370618,0.25211 -0.570592,0.35383 -0.211869,0.10257 -0.428454,0.19645 -0.655004,0.26209 -0.183321,0.0516 -0.366203,0.106 -0.554535,0.13686 -0.190754,0.036 -0.382911,0.0664 -0.576809,0.0792 -0.169444,0.013 -0.339052,0.0269 -0.509178,0.0227 -0.124996,0 -0.249992,0 -0.374988,0 -0.106107,0 -0.212214,0 -0.31832,0 -1.995612,0 -1.995612,-2.82222 0,-2.82222 z"
       id="path5724"
       style="fill:#000000;fill-opacity:1;fill-rule:nonzero;stroke:none;stroke-width:0.26458332" />
    <path
       inkscape:connector-curvature="0"
       d="m 26.357753,261.50551 c 0.06247,-0.0177 0.192052,-0.0547 0.193324,-0.0523 0.0086,0.0165 -0.03568,0.0108 -0.05397,0.0141 -0.0092,0.002 0.0177,-0.006 0.02655,-0.009 0.03679,-0.0155 0.363601,-0.12047 0.158602,-0.0533 -0.09779,0.0367 0.159959,-0.0693 0.165518,-0.0716 0.09065,-0.0432 -0.09737,0.0494 0.0052,-0.006 0.236,-0.11832 0.05848,-0.0309 7.93e-4,0.002 0.330626,-0.22799 -0.240842,0.17663 0.121415,-0.0863 -0.220655,0.16819 0.165063,-0.14272 -0.03109,0.0187 0.291878,-0.25394 0.0089,-0.002 0.07505,-0.0675 0.01725,-0.0171 0.03447,-0.0342 0.05167,-0.0514 0.0909,-0.0906 -0.185092,0.20442 0.01865,-0.022 0.08561,-0.0741 0.192476,-0.21987 0.02064,-0.0129 -0.01828,0.0239 0.01797,-0.0275 0.02193,-0.0333 0.08439,-0.12961 -0.06749,0.12093 -0.09248,0.17389 -0.03419,0.0839 -0.106283,0.20307 0.174726,-0.32659 -0.186862,0.18324 0.245647,-0.28576 0.185557,-0.21319 -0.06987,0.0844 -0.140234,0.14915 -0.197474,0.23965 -0.210606,0.43082 -0.02519,0.0266 0.09271,-0.15348 0.0145,-0.0195 0.05671,-0.0788 0.0435,-0.0584 -0.06068,0.0935 -0.09972,0.14868 -0.146465,0.24673 -0.0057,-0.009 0.306633,-0.56015 0.110519,-0.20837 -0.0037,0.002 -0.03245,0.0723 -0.04741,0.11239 -0.04472,0.15162 0.0026,-0.008 0.06079,-0.19622 0.189587,-0.41803 0.0032,-0.003 0.06081,-0.13704 -0.07747,0.15726 -0.1114,0.39156 -0.111334,0.54874 -0.0019,-0.0284 -0.0034,-0.0568 -0.0048,-0.0852 -0.0016,-0.0353 -0.0028,-0.0707 -0.0038,-0.106 -7.93e-4,-0.0326 -0.0016,-0.0653 -0.0021,-0.0979 -5.29e-4,-0.0351 -7.94e-4,-0.0701 -0.0011,-0.10516 -2.64e-4,-0.0379 -5.29e-4,-0.0758 -5.29e-4,-0.11364 -1.72e-4,-0.0404 -2.64e-4,-0.0808 -2.64e-4,-0.12112 -1.06e-4,-0.0386 -1.7e-4,-0.0772 -2.33e-4,-0.11574 -6.1e-5,-0.0334 -1.03e-4,-0.0667 -1.4e-4,-0.10011 -2.9e-5,-0.0271 -5.9e-5,-0.0543 -8.5e-5,-0.0814 -2.1e-5,-0.0266 -3.7e-5,-0.0531 -5.3e-5,-0.0797 -1.6e-5,-0.0224 -2.4e-5,-0.0449 -3.2e-5,-0.0673 -8e-6,-0.0249 -1.3e-5,-0.0498 -1.8e-5,-0.0747 -6e-6,-0.0285 -8e-6,-0.0569 -1.1e-5,-0.0854 -5e-6,-0.029 -5e-6,-0.0579 -8e-6,-0.0869 -2e-6,-0.0291 -2e-6,-0.0583 -5e-6,-0.0874 0,-0.0257 0,-0.0514 0,-0.0771 -3e-6,-0.0241 -3e-6,-0.0482 -3e-6,-0.0723 0,-0.0214 0,-0.0428 0,-0.0642 -2e-6,-0.0208 -2e-6,-0.0417 -2e-6,-0.0625 0,-0.0256 0,-0.0511 0,-0.0766 -0.0075,-0.19337 0.03465,-0.38086 0.09548,-0.56212 -0.03406,0.11912 0.01426,-0.0779 -0.02376,0.0791 -0.0016,0.009 0.0064,-0.0345 0.0049,-0.0259 -0.0013,0.007 -0.0029,0.0139 -0.0044,0.0209 0.01297,-0.14797 0.07416,-0.30003 0.115295,-0.41129 -0.0034,0.0101 0.01373,-0.0382 0.0105,-0.0286 -0.009,0.0269 -0.01852,0.0536 -0.02729,0.0806 0.01574,-0.0645 0.006,-0.0296 -0.0043,0.0263 0.0021,-0.0154 0.0043,-0.0308 0.0065,-0.0463 0.0039,-0.0252 0.01243,-0.0969 -7.94e-4,0.0132 -0.0024,0.0272 5.29e-4,-0.0134 7.94e-4,-0.0188 7.93e-4,-0.0127 0.0016,-0.0254 0.0024,-0.0381 0.0016,-0.0334 -0.0019,0.0498 -7.94e-4,0.0131 2.65e-4,-0.0129 5.29e-4,-0.0259 7.94e-4,-0.0388 -5.29e-4,0.003 1.98e-4,-0.0272 2.65e-4,-0.0362 1.74e-4,-0.017 2.24e-4,-0.0339 2.64e-4,-0.0508 7.4e-5,-0.0172 1.4e-4,-0.0344 1.99e-4,-0.0516 4.5e-5,-0.0201 8.2e-5,-0.0401 1.21e-4,-0.0602 3.2e-5,-0.0157 5.8e-5,-0.0314 7.4e-5,-0.0471 1.6e-5,-0.018 2.9e-5,-0.0361 4.5e-5,-0.0541 1.6e-5,-0.0158 2.2e-5,-0.0315 2.7e-5,-0.0473 8e-6,-0.0165 1.3e-5,-0.0331 1.8e-5,-0.0496 6e-6,-0.0182 8e-6,-0.0364 1.1e-5,-0.0546 0,-0.0157 3e-6,-0.0314 5e-6,-0.047 3e-6,-0.019 3e-6,-0.038 3e-6,-0.0571 2e-6,-0.0205 2e-6,-0.041 2e-6,-0.0616 3e-6,-0.0204 3e-6,-0.0408 3e-6,-0.0612 0,-0.0204 0,-0.0408 0,-0.0612 0,-0.0221 0,-0.0442 0,-0.0663 0,-0.0224 0,-0.0448 0,-0.0672 3e-6,-0.0198 3e-6,-0.0396 3e-6,-0.0594 0,-0.0204 0,-0.0409 0,-0.0613 0,-0.014 0,-0.0281 0,-0.0421 0,-0.018 0,-0.0359 0,-0.0539 0,-0.0146 0,-0.0292 0,-0.0437 0,-0.0172 0,-0.0344 0,-0.0516 0,-0.0206 0,-0.0412 0,-0.0618 0,-0.0188 0,-0.0377 0,-0.0565 0,-0.0183 0,-0.0366 0,-0.055 0,-0.0158 0,-0.0317 0,-0.0475 0,-0.0165 0,-0.0329 0,-0.0494 0,-0.0103 0,-0.0206 0,-0.0309 0.02175,0.25854 0.0736,0.52286 0.217633,0.74677 -0.0627,-0.089 -0.103238,-0.18509 -0.157276,-0.28475 -0.03126,-0.0737 -0.05449,-0.15032 -0.07544,-0.22746 -0.0167,-0.15709 -0.152344,-0.45792 0.0557,0.15202 0.02498,0.0732 0.07146,0.14727 0.114445,0.21284 0.0024,0.003 0.0092,0.0139 0.0071,0.0103 -0.07143,-0.11872 -0.136395,-0.22837 -0.187266,-0.35575 -0.03769,-0.0913 -0.06505,-0.18637 -0.08685,-0.28258 -0.0064,-0.0295 -0.01233,-0.0591 -0.01823,-0.0887 -0.03818,-0.23019 -0.003,-0.001 0.06438,0.21769 0.01953,0.0636 0.05615,0.12738 0.08999,0.18549 -0.07143,-0.10479 -0.120608,-0.22058 -0.163317,-0.3388 0.06271,0.1671 0.144515,0.31948 0.26335,0.45097 -0.121562,-0.12693 -0.211415,-0.27351 -0.286358,-0.43024 -0.175858,-0.41674 0.0176,0.0462 0.09345,0.1549 -0.07673,-0.0984 -0.140874,-0.2206 -0.19305,-0.33926 -0.121195,-0.24968 0.311007,0.48939 0.08703,0.16064 -0.01865,-0.0278 -0.03693,-0.0558 -0.05523,-0.0838 0.0084,0.0197 0.08081,0.10964 0.03178,0.0495 -0.01262,-0.0154 -0.02524,-0.0309 -0.03789,-0.0463 0.0042,0.004 -0.01307,-0.0149 -0.0094,-0.0115 0.166555,0.15361 0.274616,0.27639 0.467595,0.36925 0.02019,0.009 0.0031,0.002 -0.0038,-10e-4 -0.0081,-0.003 -0.01617,-0.007 -0.02426,-0.0103 2.65e-4,10e-5 0.268346,0.0844 0.330266,0.0944 -0.04935,-0.006 0.02551,0.003 0.05247,0.005 -0.0108,-5.1e-4 -0.02156,-10e-4 -0.03234,-0.002 0.03107,10e-4 -0.01783,-1.1e-4 -0.02503,-2.6e-4 -0.01275,-3.2e-4 -0.02553,-5.3e-4 -0.0365,-6.6e-4 -0.0176,-1.9e-4 -0.03518,-3.5e-4 -0.05276,-5.1e-4 -0.01183,-1.1e-4 -0.02365,-2.2e-4 -0.03549,-3.4e-4 -0.0052,-6e-5 -0.01543,-1.3e-4 -0.01797,-1.6e-4 -0.01357,-4e-5 -0.02714,-7e-5 -0.0407,-1.1e-4 -0.02498,-3e-5 0.01198,2e-5 -0.01765,-2e-5 -1.995611,-0.003 -1.991761,-2.82495 0.0038,-2.82222 v 0 c 0.01408,2e-5 0.0071,0 0.02103,3e-5 0.01532,4e-5 0.03064,7e-5 0.04595,1.3e-4 0.01061,6e-5 0.02119,1.4e-4 0.03179,2.5e-4 0.01191,1.1e-4 0.02381,2.2e-4 0.0357,3.4e-4 0.01963,1.9e-4 0.03927,3.7e-4 0.0589,5.9e-4 0.02154,2.5e-4 0.04308,6.3e-4 0.06461,0.001 0.03212,6.9e-4 0.06425,0.001 0.09634,0.003 0.02241,0.001 0.04485,0.002 0.06726,0.003 0.04469,0.003 0.08931,0.007 0.133715,0.0127 0.144261,0.0183 0.283159,0.0488 0.419068,0.10768 0.0091,0.004 0.01818,0.008 0.02726,0.0116 0.0266,0.0113 0.05319,0.0227 0.07946,0.0348 0.209235,0.0988 0.3981,0.23039 0.543917,0.41709 0.01392,0.017 0.02782,0.034 0.0417,0.051 0.05032,0.0617 0.10038,0.12376 0.143851,0.19065 0.0105,0.0161 0.02103,0.0322 0.03161,0.0483 -0.12016,-0.16369 0.113549,0.16667 0.162473,0.2942 -0.02236,-0.0471 -0.204629,-0.33419 -0.113919,-0.19754 0.04252,0.0592 0.08793,0.12064 0.120081,0.18588 0.272317,0.55251 0.05519,0.1564 0.05242,0.10594 -0.04778,-0.0906 -0.14269,-0.23382 -0.217816,-0.3021 0.155855,0.1644 0.279485,0.34756 0.357291,0.56427 -0.02088,-0.0561 -0.192389,-0.37214 -0.104193,-0.22022 0.131,0.21266 0.154453,0.3497 0.228936,0.6052 0.0066,0.0225 -0.008,-0.0461 -0.01204,-0.0692 0.0019,0.01 0.0051,0.0254 0.0064,0.0324 -0.0072,-0.0301 -0.0744,-0.23442 -0.04632,-0.15173 -0.01577,-0.0353 -0.185396,-0.33256 -0.115099,-0.20875 0.05706,0.0853 0.119118,0.17815 0.153384,0.27472 0.200552,0.5652 0.102182,0.39472 0.07269,0.21772 -0.01339,-0.0413 -0.02844,-0.082 -0.04451,-0.12232 -0.240996,-0.43786 -0.171558,-0.29514 -0.107227,-0.20547 0.172349,0.2567 0.234264,0.48822 0.265213,0.83191 0,0.0103 0,0.0206 0,0.0309 0,0.0165 0,0.0329 0,0.0494 0,0.0158 0,0.0317 0,0.0475 0,0.0183 0,0.0366 0,0.055 0,0.0188 0,0.0377 0,0.0565 0,0.0206 0,0.0412 0,0.0618 0,0.0172 0,0.0344 0,0.0516 0,0.0146 0,0.0292 0,0.0437 0,0.018 0,0.0359 0,0.0539 0,0.014 0,0.0281 0,0.0421 0,0.0204 0,0.0409 0,0.0613 0,0.0198 0,0.0396 0,0.0594 0,0.0224 0,0.0448 0,0.0672 0,0.0221 0,0.0442 0,0.0663 0,0.0204 0,0.0408 0,0.0612 -3e-6,0.0204 -3e-6,0.0408 -3e-6,0.0613 0,0.0206 0,0.0411 -3e-6,0.0616 0,0.019 -2e-6,0.0381 -2e-6,0.0572 -3e-6,0.0157 -6e-6,0.0315 -8e-6,0.0472 -3e-6,0.0184 -3e-6,0.0367 -1.1e-5,0.0551 -5e-6,0.0166 -10e-6,0.0331 -1.6e-5,0.0497 -5e-6,0.0162 -1.3e-5,0.0324 -2.9e-5,0.0485 -1.3e-5,0.0182 -2.9e-5,0.0365 -4.5e-5,0.0547 -1.6e-5,0.0165 -4.2e-5,0.0331 -7.7e-5,0.0496 -3.9e-5,0.0208 -7.9e-5,0.0417 -1.29e-4,0.0625 -5.3e-5,0.0187 -1.35e-4,0.0373 -2.12e-4,0.0559 -9.2e-5,0.0213 -1.69e-4,0.0426 -2.64e-4,0.0639 -2.17e-4,0.0242 -2.65e-4,0.0484 -7.94e-4,0.0726 -2.65e-4,0.0146 -5.29e-4,0.0293 -0.0011,0.0439 -7.93e-4,0.0327 -0.0016,0.0655 -0.0039,0.0981 -7.94e-4,0.0135 -0.0016,0.027 -0.0026,0.0405 -0.0021,0.0335 -0.0043,0.067 -0.0073,0.1005 -0.0044,0.0389 -0.0084,0.0778 -0.01431,0.11649 -0.005,0.0359 -0.01005,0.0719 -0.01577,0.10772 -0.01117,0.0658 -0.02455,0.13116 -0.041,0.19585 -0.02117,0.0853 -0.04478,0.17017 -0.07666,0.25223 -0.009,0.0243 -0.08048,0.22809 -0.04654,0.12153 0.07248,-0.22754 0.0038,0.0491 0.08214,-0.31866 -0.0096,0.0714 -0.02095,0.14247 -0.036,0.2129 -0.02133,0.0987 -0.04725,0.19628 -0.08079,0.29156 0.01688,-0.0523 0.03618,-0.10823 0.0437,-0.16194 0.06355,-0.4536 0.02154,-0.32908 0.02537,-0.22556 0,0.0255 0,0.0511 0,0.0766 0,0.0208 0,0.0417 0,0.0625 0,0.0214 0,0.0428 2e-6,0.0641 0,0.0241 0,0.0482 0,0.0723 0,0.0257 3e-6,0.0513 3e-6,0.077 2e-6,0.0291 2e-6,0.0582 5e-6,0.0874 0,0.0289 3e-6,0.0578 5e-6,0.0868 6e-6,0.0284 8e-6,0.0568 1.4e-5,0.0851 2e-6,0.0248 8e-6,0.0495 1.8e-5,0.0743 8e-6,0.0222 1.6e-5,0.0444 3.2e-5,0.0666 1.3e-5,0.0261 2.9e-5,0.0523 5e-5,0.0784 2.7e-5,0.0271 5.6e-5,0.0541 8.5e-5,0.0812 3.7e-5,0.0328 7.7e-5,0.0657 1.37e-4,0.0985 6.4e-5,0.0378 1.25e-4,0.0756 2.28e-4,0.11332 9.8e-5,0.0387 2.06e-4,0.0774 2.65e-4,0.11616 1.45e-4,0.0342 2.64e-4,0.0684 5.29e-4,0.10259 2.3e-4,0.028 5.29e-4,0.0559 7.93e-4,0.0839 2.65e-4,0.0222 7.94e-4,0.0443 0.0013,0.0665 5.3e-4,0.0169 0.0011,0.0339 0.0019,0.0508 0.0013,0.0222 0.0026,0.0443 0.0039,0.0664 0.01278,0.24707 -0.01759,0.48858 -0.115699,0.71942 -0.02405,0.0557 -0.133898,0.29645 -0.0308,0.0648 0.138665,-0.47039 0.02877,-0.0805 0.0029,0.0198 -0.03579,0.10867 -0.07836,0.21504 -0.131672,0.31638 -0.02751,0.0513 -0.159417,0.2968 -0.07108,0.12098 0.02159,-0.043 0.04125,-0.0869 0.06188,-0.13038 -0.06659,0.14443 -0.136043,0.26261 -0.225216,0.39533 -0.008,0.0119 0.01691,-0.0232 0.02537,-0.0349 0.118393,-0.18522 -0.01479,0.031 0.153956,-0.29742 0.01296,-0.0252 -0.01932,0.0534 -0.03133,0.0791 -0.0335,0.0716 -0.06608,0.14013 -0.106892,0.20642 -0.07497,0.12216 -0.162457,0.21684 -0.256209,0.32777 -0.05106,0.0604 0.339254,-0.36402 0.153873,-0.18068 0.317103,-0.60939 0.170448,-0.34501 0.118793,-0.19465 -0.04941,0.10751 -0.104751,0.21252 -0.174014,0.30873 -0.03644,0.053 -0.07303,0.1059 -0.11208,0.15702 -0.05559,0.0697 -0.134112,0.16311 -0.189304,0.21201 0.09798,-0.11452 -0.136742,0.15253 -0.162576,0.16801 -0.02738,0.0267 -0.308377,0.26672 -0.130143,0.11978 0.0122,-0.0101 -0.02331,0.0214 -0.03495,0.0321 -0.0577,0.0508 -0.07009,0.0631 -0.139869,0.11661 -0.02085,0.016 0.04003,-0.0341 0.06085,-0.0502 0.01278,-0.01 -0.02434,0.0212 -0.03673,0.0316 -0.0725,0.0606 -0.06099,0.0496 -0.154159,0.11857 0.263477,-0.19852 -0.36589,0.272 -0.115626,0.0824 -0.03191,0.0216 -0.42368,0.23595 -0.225007,0.13628 0.008,-0.004 -0.01569,0.009 -0.02352,0.0128 -0.09467,0.0511 -0.19008,0.10136 -0.290571,0.1403 -0.06743,0.0272 -0.105812,0.0453 -0.188563,0.0808 -0.09418,0.0339 -0.187577,0.066 -0.282096,0.0985 -0.09899,0.0335 -0.199465,0.0616 -0.300194,0.0893 -1.918828,0.54824 -2.694152,-2.1654 -0.775323,-2.71363 z"
       id="path5726"
       style="fill:#000000;fill-opacity:1;fill-rule:nonzero;stroke:none;stroke-width:0.26458332" />
    <path
       d="m 41.088087,247.84474 c -0.05104,-0.47957 -0.024,-0.96348 -0.0049,-1.44407 0.06869,-1.09732 0.140629,-2.19338 0.152993,-3.29303 -0.0097,-0.981 -0.108167,-1.958 -0.174868,-2.93612 -0.0397,-0.74634 -0.144502,-1.48641 -0.248812,-2.22576 -0.07886,-0.51208 -0.138988,-1.02646 -0.186126,-1.54232 -0.03595,-0.19607 0.0021,-0.41669 -0.06579,-0.60676 -0.07478,-0.20948 -0.182805,-0.40556 -0.274211,-0.60833 -1.141307,-1.63704 -3.456424,-0.023 -2.315117,1.61405 v 0 c -0.06101,-0.15918 -0.129323,-0.31575 -0.183029,-0.47754 -0.0094,-0.0283 -0.0072,-0.11892 -0.0051,-0.0892 0.01,0.14173 0.01725,0.28368 0.03276,0.42497 0.05146,0.56167 0.116676,1.12182 0.202065,1.67944 0.09485,0.67222 0.192561,1.34486 0.227677,2.02357 0.06173,0.90436 0.151791,1.80763 0.168481,2.71433 -0.0104,1.07274 -0.08784,2.1416 -0.150987,3.21221 -0.02535,0.656 -0.05387,1.31665 0.0334,1.96959 0.293468,1.97392 3.085007,1.5589 2.791539,-0.41502 z"
       id="path4223"
       style="fill:#000000;fill-opacity:1;fill-rule:nonzero;stroke:none;stroke-width:0.264583" />
    <path
       d="m 38.33147,235.85947 c 0.285962,0.75454 0.918017,1.25588 1.531861,1.7387 0.758571,0.58225 1.52064,1.15985 2.273927,1.74895 1.022017,0.84367 2.111859,1.59366 3.246641,2.27586 1.223812,0.70488 2.537352,1.22991 3.806836,1.84349 0.994349,0.50317 1.9608,1.05942 2.923677,1.61985 0.550244,0.32662 1.103673,0.65052 1.6222,1.02644 0.116907,0.0701 0.182137,0.17078 0.262078,0.27419 0.297492,0.39343 0.721209,0.64954 1.129774,0.9113 0.493022,0.31874 1.001371,0.61245 1.508222,0.90833 0.238107,0.14935 0.491998,0.27511 0.723969,0.43437 -0.05234,-0.0328 -0.02759,-0.0159 -0.07447,-0.0506 1.450211,1.3709 3.388953,-0.68001 1.938743,-2.05091 v 0 c -0.195697,-0.17567 -0.09414,-0.0921 -0.304737,-0.2507 -0.280329,-0.18382 -0.572204,-0.34899 -0.86069,-0.5195 -0.4734,-0.27635 -0.948607,-0.55 -1.409099,-0.8477 -0.12863,-0.0823 -0.259569,-0.18301 -0.39634,-0.2527 -0.0058,-0.003 -0.02744,0.0205 0.0026,0.0195 -0.01069,-0.007 -0.01722,-0.0189 -0.02585,-0.0284 -0.244494,-0.31582 -0.51448,-0.60851 -0.844984,-0.83742 -0.594797,-0.42636 -1.220645,-0.80602 -1.851983,-1.17553 -1.025755,-0.59682 -2.055535,-1.18885 -3.116138,-1.72212 -1.1937,-0.57572 -2.425859,-1.07338 -3.582869,-1.72262 -1.036933,-0.61945 -2.027195,-1.30874 -2.959219,-2.07846 -0.75253,-0.58834 -1.513345,-1.16584 -2.271432,-1.74699 -0.19558,-0.15258 -0.273055,-0.20994 -0.452556,-0.35992 -0.04996,-0.0417 -0.09055,-0.0991 -0.150535,-0.12443 -0.0094,-0.004 -0.01741,0.0342 -0.0077,0.0296 -0.662813,-1.88233 -3.324823,-0.94497 -2.662012,0.93735 z"
       id="path4225"
       style="fill:#000000;fill-opacity:1;fill-rule:nonzero;stroke:none;stroke-width:0.264583" />
    <path
       d="m 59.454957,247.88768 c 0.197712,-0.78833 0.216103,-1.60753 0.247218,-2.41554 0.05272,-1.25034 0.02798,-2.50073 -0.03555,-3.74992 -0.05859,-1.13881 -0.173138,-2.2734 -0.275402,-3.40878 -0.05648,-0.63855 -0.110175,-1.27734 -0.144229,-1.91752 -0.01601,-0.39313 -0.04996,-0.78508 -0.07924,-1.17734 -0.01606,-0.15344 -0.0177,-0.63034 -0.09701,-0.70872 -0.384923,-0.38046 -0.859075,-0.65853 -1.28861,-0.98779 -0.335161,0.1088 -0.67032,0.2176 -1.005481,0.32639 -1.605007,1.18593 0.07214,3.45575 1.677152,2.26983 v 0 c -0.286999,0.0732 -0.573998,0.14643 -0.860997,0.21964 -0.404913,-0.32761 -0.846854,-0.61412 -1.214739,-0.98282 -0.06796,-0.0681 -0.03129,-0.1899 -0.0496,-0.28435 -0.0029,-0.015 0.0024,0.0305 0.0033,0.0457 0.0071,0.10429 0.01349,0.20863 0.02162,0.31285 0.02795,0.37226 0.06036,0.74423 0.07539,1.11734 0.03625,0.67436 0.09165,1.34736 0.151583,2.01999 0.09903,1.09908 0.210441,2.19735 0.267703,3.29971 0.05996,1.16541 0.08326,2.33189 0.03391,3.49841 -0.02167,0.57659 -0.03329,1.1581 -0.134856,1.7275 -0.562438,1.91472 2.145377,2.71012 2.707815,0.79541 z"
       id="path4227"
       style="fill:#000000;fill-opacity:1;fill-rule:nonzero;stroke:none;stroke-width:0.264583" />
    <path
       d="m 37.91028,254.48768 c 0.157779,0.60125 0.254696,1.21594 0.350658,1.82937 0.154289,1.00186 0.29519,2.00527 0.383352,3.01524 0.04729,0.88125 0.127487,1.75888 0.240644,2.63396 0.07272,0.51286 0.116858,1.02891 0.142348,1.54607 0.04974,1.19133 -0.215601,0.39111 2.600867,-0.43074 -1.026141,-1.71158 -3.446682,-0.2604 -2.42054,1.45118 v 0 c 2.651344,-0.65662 2.696175,0.17254 2.638398,-1.16091 -0.02974,-0.59136 -0.0798,-1.18155 -0.162229,-1.76811 -0.108572,-0.8368 -0.182012,-1.67614 -0.228129,-2.51884 -0.09512,-1.07338 -0.241242,-2.14038 -0.406572,-3.20512 -0.109405,-0.69598 -0.221914,-1.39283 -0.400479,-2.07514 -0.482978,-1.93628 -3.221299,-1.25325 -2.738318,0.68304 z"
       id="path4229"
       style="fill:#000000;fill-opacity:1;fill-rule:nonzero;stroke:none;stroke-width:0.264583" />
    <path
       d="m 39.755056,254.55227 c 0.621956,-0.0669 1.244734,-0.11555 1.869656,-0.14292 1.17865,-0.0393 2.356866,0.0436 3.533646,0.0998 1.464183,0.0837 2.930009,0.0431 4.394345,-0.007 1.15661,-0.0454 2.313551,-0.075 3.470841,-0.046 0.748089,0.0296 1.49597,0.0623 2.244416,0.0815 0.650928,0.0159 1.302067,0.0161 1.95313,0.012 0.4089,-0.004 0.817232,0.009 1.223219,-0.0439 -0.03443,-0.93037 -0.06885,-1.86075 -0.103277,-2.79112 -1.976112,-0.27829 -2.369677,2.51635 -0.393565,2.79465 v 0 c -0.0053,-0.92627 -0.01053,-1.85254 -0.0158,-2.7788 0.04657,-0.005 0.09319,-0.009 0.139711,-0.0139 0.01474,-0.002 -0.02951,0.003 -0.04432,0.004 -0.04629,10e-4 -0.09262,10e-4 -0.138932,0.002 -0.228315,0.002 -0.456647,0.003 -0.684964,0.006 -0.620975,0.004 -1.242023,0.004 -1.862871,-0.0112 -0.749451,-0.0192 -1.498295,-0.0529 -2.247418,-0.0816 -1.212623,-0.0293 -2.424893,-0.002 -3.636793,0.0468 -1.387253,0.0476 -2.775919,0.0885 -4.16306,0.009 -1.263476,-0.0604 -2.52853,-0.14706 -3.793972,-0.10023 -0.657002,0.0297 -1.31227,0.0772 -1.96611,0.14887 -1.989424,0.15706 -1.767311,2.97053 0.222112,2.81347 z"
       id="path4231"
       style="fill:#000000;fill-opacity:1;fill-rule:nonzero;stroke:none;stroke-width:0.264583" />
    <path
       d="m 41.64888,259.98739 c 0.895506,0.003 1.79102,0.003 2.686528,0.003 1.30845,-0.0185 2.615229,0.0411 3.921035,0.11552 0.390904,0.0397 0.790091,0.0205 1.17892,0.0855 0.03217,0.005 -0.06519,-0.002 -0.09779,-0.003 1.906101,0.59097 2.741861,-2.10467 0.83576,-2.69564 v 0 c -0.144851,-0.0358 -0.287779,-0.0805 -0.434554,-0.10732 -0.434393,-0.0794 -0.884827,-0.0489 -1.321922,-0.0973 -1.358791,-0.0773 -2.718649,-0.13838 -4.080158,-0.12008 -0.89173,-3.9e-4 -1.783463,-5.2e-4 -2.675191,-0.003 -1.995594,-0.009 -2.008222,2.81326 -0.01262,2.82219 z"
       id="path4233"
       style="fill:#000000;fill-opacity:1;fill-rule:nonzero;stroke:none;stroke-width:0.264583" />
    <path
       d="m 40.324484,265.39382 c 0.605086,-0.0355 1.208574,-0.0916 1.813901,-0.12519 0.808143,-0.0411 1.617514,-0.0455 2.426504,-0.0495 0.856708,-0.004 1.713418,10e-4 2.570115,0.005 0.897044,0.007 1.793952,0.008 2.690826,-0.0112 0.800394,-0.0129 1.599507,-0.0564 2.398482,-0.10284 0.806688,-0.0475 1.614567,-0.0656 2.422454,-0.0517 0.632052,0.0201 1.262369,0.0647 1.894446,0.0308 0.463139,-0.049 0.917551,-0.15196 1.379362,-0.21123 0.278477,-0.0338 0.559041,-0.0417 0.83806,-0.0692 1.136788,-0.20325 0.223211,0.0327 -0.263292,-2.81842 -1.992228,0.11616 -1.827951,2.9336 0.16428,2.81744 v 0 c -0.312645,-2.82755 -1.235581,-2.66282 -0.197266,-2.80565 -0.300138,0.0403 -0.607292,0.0253 -0.906594,0.0773 -0.398346,0.0525 -0.79334,0.12261 -1.188792,0.19295 -0.556889,0.0443 -1.116171,-0.0405 -1.673611,-0.0358 -0.877988,-0.014 -1.755979,0.004 -2.632652,0.0561 -0.765185,0.0444 -1.530469,0.0867 -2.297025,0.0988 -0.872,0.0193 -1.744033,0.0171 -2.616197,0.0106 -0.865513,-0.004 -1.731039,-0.008 -2.59656,-0.005 -0.85679,0.004 -1.713971,0.01 -2.569832,0.0539 -0.578072,0.0325 -1.154763,0.0811 -1.732177,0.12182 -1.994895,0.0534 -1.91933,2.87465 0.07557,2.82121 z"
       id="path4235"
       style="fill:#000000;fill-opacity:1;fill-rule:nonzero;stroke:none;stroke-width:0.264583" />
    <path
       d="m 33.704045,269.13633 c 0.466614,0.36831 0.948241,0.71702 1.425858,1.07079 0.748615,0.54344 1.437543,1.16106 2.121004,1.78263 0.781298,0.7021 1.542819,1.42454 2.277901,2.1748 0.789654,0.85056 1.635593,1.64334 2.510176,2.40515 0.674439,0.57578 1.361427,1.13796 2.073976,1.66612 0.354761,0.22746 0.149572,0.11378 0.62683,0.31986 1.89725,0.61879 2.772362,-2.06432 0.875112,-2.68312 v 0 c 0.224946,0.11708 0.285826,0.14397 0.176093,0.0941 -0.653732,-0.48199 -1.280176,-1.0004 -1.899198,-1.5258 -0.819134,-0.71226 -1.609444,-1.45535 -2.347737,-2.25207 -0.773378,-0.78835 -1.572964,-1.54914 -2.394593,-2.28719 -0.753497,-0.68491 -1.515068,-1.36294 -2.339777,-1.96234 -0.450297,-0.33353 -0.904452,-0.66216 -1.344983,-1.0086 -1.55965,-1.24498 -3.320312,0.9607 -1.760662,2.20568 z"
       id="path4247"
       style="fill:#000000;fill-opacity:1;fill-rule:nonzero;stroke:none;stroke-width:0.264583" />
    <path
       d="m 46.169561,278.55989 c 0.755115,-0.36392 1.374521,-0.94007 1.987724,-1.49915 1.005417,-0.95736 2.001735,-1.92475 2.975274,-2.91459 0.364861,-0.38355 0.204457,-0.21436 0.481576,-0.50723 1.371566,-1.44958 -0.678449,-3.38927 -2.050015,-1.93969 v 0 c -0.26184,0.27674 -0.113898,0.12059 -0.44401,0.46829 -0.938139,0.95452 -1.899344,1.88626 -2.86729,2.81044 -0.411454,0.37753 -0.818706,0.78665 -1.319948,1.0451 -1.793814,0.87447 -0.557125,3.4113 1.236689,2.53683 z"
       id="path4249"
       style="fill:#000000;fill-opacity:1;fill-rule:nonzero;stroke:none;stroke-width:0.264583" />
    <path
       d="m 49.557963,273.97741 c 0.726324,0.66887 1.362266,1.43155 2.018086,2.16822 0.588108,0.66332 1.19081,1.31353 1.809416,1.94847 1.392923,1.42907 3.41393,-0.54083 2.021004,-1.96989 v 0 c -0.589219,-0.60422 -1.162484,-1.22376 -1.72249,-1.85516 -0.776782,-0.87254 -1.527022,-1.78376 -2.42089,-2.54052 -1.590204,-1.20571 -3.295327,1.04318 -1.705126,2.24888 z"
       id="path4251"
       style="fill:#000000;fill-opacity:1;fill-rule:nonzero;stroke:none;stroke-width:0.264583" />
    <path
       d="m 55.166672,278.1151 c 1.194816,-0.89511 2.048243,-2.18171 2.939002,-3.36027 1.569712,-2.12403 3.419126,-4.01189 5.227394,-5.92856 0.51389,-0.51024 0.944727,-1.09439 1.427845,-1.6315 1.326023,-1.49136 -0.783068,-3.36664 -2.109091,-1.87528 v 0 c -0.45996,0.52091 -0.883171,1.07404 -1.371592,1.57009 -1.878703,1.99141 -3.795784,3.95657 -5.426136,6.16369 -0.228992,0.30305 -0.456861,0.60695 -0.686977,0.90914 -0.475576,0.62454 -0.940938,1.27743 -1.54295,1.7893 -1.671169,1.09071 -0.128664,3.4541 1.542505,2.36339 z"
       id="path4253"
       style="fill:#000000;fill-opacity:1;fill-rule:nonzero;stroke:none;stroke-width:0.264583" />
    <path
       d="m 55.533054,280.629 c -0.587052,-0.0717 -1.173226,-0.15016 -1.760416,-0.22098 -1.333632,-0.16642 -2.676117,-0.23156 -4.018407,-0.2753 -1.485215,-0.0422 -2.975512,-0.0309 -4.453194,0.14083 -0.329763,0.0383 -0.657672,0.0912 -0.986507,0.13679 -1.555401,0.27098 -3.101033,0.6727 -4.547674,1.31547 -0.245224,0.10896 -0.482394,0.23521 -0.72359,0.35281 -0.213575,0.13104 -0.436161,0.24841 -0.640729,0.3931 -0.903964,0.63939 -1.558655,1.54556 -1.346229,2.71814 0.05413,0.2988 0.220904,0.56574 0.331356,0.8486 0.17924,0.2244 0.337564,0.46723 0.537716,0.67318 0.812541,0.83609 2.079889,1.39424 3.167718,1.75638 0.340151,0.11324 0.688142,0.2014 1.032214,0.30209 2.237002,0.5728 4.549458,0.68028 6.845649,0.77024 1.291614,0.0498 2.587829,0.0778 3.8715,0.24312 0.691324,0.089 0.797449,0.12409 1.459796,0.26266 0.485648,0.13445 0.987904,0.26482 1.411838,0.55048 0.02843,0.0192 0.250785,0.16746 0.245454,0.27496 -7.94e-4,0.018 -0.03489,0.009 -0.05233,0.0134 -0.135062,-0.10435 -0.187856,0.0376 -0.281911,0.13135 -0.05419,0.054 -0.109352,0.10721 -0.167939,0.15639 -0.08189,0.0688 -0.168732,0.13137 -0.2531,0.19705 -1.001175,0.65609 -2.168162,0.95242 -3.323201,1.20368 -1.797423,0.32736 -3.627541,0.40154 -5.449361,0.46915 -1.432843,0.039 -2.870417,0.0485 -4.298024,-0.10029 -0.95337,-0.0993 -1.157163,-0.15497 -2.094555,-0.32612 -0.140759,-0.0308 -1.866987,-0.40909 -2.01558,-0.43654 -0.326787,-0.0604 -0.656857,-0.10139 -0.985285,-0.15208 -1.97305,-0.29924 -2.396236,2.49107 -0.423185,2.79031 v 0 c 0.272013,0.0404 0.545627,0.0711 0.816039,0.12111 0.08712,0.0161 2.092647,0.45152 2.106064,0.45443 1.066591,0.19104 1.295057,0.25279 2.37744,0.3626 1.535571,0.15578 3.081229,0.1502 4.622187,0.10684 1.990714,-0.0745 3.990358,-0.16111 5.952098,-0.53342 0.289748,-0.0646 0.581358,-0.1214 0.869243,-0.19388 1.304743,-0.3285 2.580484,-0.81532 3.672787,-1.61445 0.441574,-0.38971 0.654794,-0.53074 0.994918,-1.02076 0.410105,-0.59084 0.668248,-1.31441 0.608021,-2.04264 -0.02151,-0.26011 -0.112324,-0.50978 -0.168484,-0.76466 -0.122613,-0.22125 -0.219178,-0.45908 -0.367837,-0.66374 -0.749848,-1.03229 -2.056479,-1.43222 -3.225094,-1.74721 -0.795406,-0.16217 -0.914172,-0.2015 -1.735066,-0.3054 -1.345313,-0.17028 -2.702827,-0.20619 -4.056356,-0.25644 -2.068666,-0.0804 -4.153291,-0.16461 -6.172827,-0.66162 -0.277696,-0.0788 -0.558207,-0.14834 -0.833091,-0.23649 -0.610423,-0.19573 -1.210262,-0.44578 -1.756023,-0.78486 -0.09969,-0.0619 -0.189577,-0.13855 -0.287153,-0.20378 -0.04112,-0.0275 -0.08569,-0.0494 -0.128534,-0.0741 -0.0337,0.0886 -0.132456,0.42256 -0.24502,0.40616 -0.03306,-0.005 0.0042,-0.071 0.02511,-0.097 0.163216,-0.20303 0.394065,-0.31988 0.607777,-0.45863 0.180483,-0.0903 0.357502,-0.18789 0.541451,-0.2709 1.230125,-0.55512 2.549184,-0.89598 3.873442,-1.13376 0.286737,-0.0407 0.572627,-0.0878 0.86021,-0.12198 1.359059,-0.16145 2.73026,-0.168 4.096465,-0.12982 1.259969,0.0406 2.520209,0.1003 3.772066,0.25651 0.698738,0.0842 1.395738,0.19572 2.098151,0.24125 1.995612,0 1.995612,-2.82222 0,-2.82222 z"
       id="path4259"
       style="fill:#000000;fill-opacity:1;fill-rule:nonzero;stroke:none;stroke-width:0.264583" />
  </g>
</svg>
