<?xml version="1.0" encoding="UTF-8" standalone="no"?>
<svg
   xmlns:dc="http://purl.org/dc/elements/1.1/"
   xmlns:cc="http://creativecommons.org/ns#"
   xmlns:rdf="http://www.w3.org/1999/02/22-rdf-syntax-ns#"
   xmlns:svg="http://www.w3.org/2000/svg"
   xmlns="http://www.w3.org/2000/svg"
   xmlns:sodipodi="http://sodipodi.sourceforge.net/DTD/sodipodi-0.dtd"
   xmlns:inkscape="http://www.inkscape.org/namespaces/inkscape"
   inkscape:version="1.0 (1.0+r73+1)"
   sodipodi:docname="nsfw.svg"
   id="svg8"
   version="1.1"
   viewBox="0 0 64 64"
   height="64mm"
   width="64mm">
  <defs
     id="defs2" />
  <sodipodi:namedview
     inkscape:document-rotation="0"
     inkscape:window-maximized="1"
     inkscape:window-y="27"
     inkscape:window-x="0"
     inkscape:window-height="1016"
     inkscape:window-width="1920"
     inkscape:snap-page="true"
     showgrid="false"
     inkscape:current-layer="layer1"
     inkscape:document-units="mm"
     inkscape:cy="110.27027"
     inkscape:cx="68.750268"
     inkscape:zoom="3"
     inkscape:pageshadow="2"
     inkscape:pageopacity="0.0"
     borderopacity="1.0"
     bordercolor="#666666"
     pagecolor="#ffffff"
     id="base" />
  <metadata
     id="metadata5">
    <rdf:RDF>
      <cc:Work
         rdf:about="">
        <dc:format>image/svg+xml</dc:format>
        <dc:type
           rdf:resource="http://purl.org/dc/dcmitype/StillImage" />
        <dc:title></dc:title>
      </cc:Work>
    </rdf:RDF>
  </metadata>
  <g
     transform="translate(0,-233)"
     id="layer1"
     inkscape:groupmode="layer"
     inkscape:label="Layer 1">
    <rect
       y="233"
       x="0"
       height="64"
       width="64"
       id="rect3713"
       style="fill:#ffffff;stroke-width:0.26458332;fill-opacity:1" />
    <path
       d="m 11.651808,260.81227 c -0.04288,-1.09071 -0.133739,-2.17897 -0.191619,-3.26912 -0.11869,-2.3037 -0.07396,-4.61077 -0.04877,-6.91604 0.04898,-2.19844 -0.09803,-4.39241 -0.229196,-6.5852 -0.04232,-0.74124 -0.08456,-1.48257 -0.113614,-2.22448 -0.02918,-0.76194 -0.371589,-1.1313 -1.3506659,-1.47313 -0.3096326,-0.1081 -0.6306452,0.18034 -0.9459677,0.27051 -1.6574701,1.11142 -0.08568,3.45544 1.5717896,2.34401 v 0 c -0.280047,0.0665 -0.5738504,0.30882 -0.8401424,0.19955 -1.3798809,-0.56621 -1.1394379,-0.60122 -1.2581347,-1.30499 -0.00415,-0.0246 0.00204,0.0498 0.00307,0.0748 0.029944,0.76118 0.072878,1.5218 0.1164778,2.28229 0.1272053,2.12642 0.2723094,4.25391 0.224328,6.38584 -0.025842,2.36558 -0.070215,4.73297 0.052594,7.09687 0.055492,1.04024 0.1364634,2.07884 0.1876304,3.11913 0,1.99561 2.8222229,1.99561 2.8222229,0 z"
       id="path2531"
       style="fill:#000000;fill-opacity:1;fill-rule:nonzero;stroke:none;stroke-width:0.264583" />
    <path
       d="m 9.1442457,242.63544 c 0.7141308,0.70133 1.2819053,1.52748 1.8464973,2.34866 1.151299,1.6506 2.150736,3.39615 3.128345,5.15274 0.999186,1.7959 2.076946,3.54611 3.113116,5.32061 0.753039,1.31463 1.56567,2.59316 2.398942,3.85795 0.196169,0.30448 0.4066,0.59974 0.601316,0.90518 0.01535,0.0241 0.05239,0.10107 0.04309,0.0741 -0.05446,-0.15822 -0.119356,-0.31266 -0.179033,-0.46899 0.279534,1.97593 3.073931,1.58061 2.794398,-0.39533 v 0 c -0.06533,-0.19626 -0.119947,-0.39641 -0.195979,-0.58878 -0.02469,-0.0625 -0.06871,-0.11545 -0.104763,-0.17212 -0.194801,-0.30615 -0.405919,-0.60174 -0.602382,-0.9068 -0.805415,-1.22224 -1.591119,-2.45759 -2.318471,-3.72833 -1.026452,-1.7577 -2.093768,-3.49154 -3.084281,-5.27004 -1.021299,-1.8346 -2.067642,-3.65636 -3.269725,-5.38054 -0.651649,-0.94535 -1.313333,-1.89084 -2.133408,-2.70092 -1.3807344,-1.44085 -3.4184012,0.5118 -2.0376673,1.95265 z"
       id="path2533"
       style="fill:#000000;fill-opacity:1;fill-rule:nonzero;stroke:none;stroke-width:0.264583" />
    <path
       d="m 23.120787,260.25382 c 0.04384,-0.84877 0.07651,-1.69798 0.100383,-2.54753 0.04463,-1.74012 0.04297,-3.4806 -4.23e-4,-5.22062 -0.06032,-1.93442 -0.237595,-3.86226 -0.37386,-5.79214 -0.0893,-1.27572 -0.127112,-2.55408 -0.146774,-3.83251 -7.4e-5,-0.007 -0.0064,-0.62977 -0.0087,-0.68491 -0.004,-0.0958 0.0079,-0.19528 -0.02028,-0.28693 -0.08118,-0.26408 -0.203236,-0.51382 -0.304854,-0.77072 -1.161267,-1.62294 -3.456448,0.0193 -2.295182,1.64227 v 0 c -0.403935,-1.21863 -0.211335,-0.78537 -0.201588,-0.54237 0.0092,0.22857 -6.09e-4,0.45767 0.0087,0.68621 0.0206,1.33024 0.06042,2.66041 0.153453,3.98783 0.133366,1.88724 0.306756,3.77249 0.367733,5.66408 0.0427,1.69009 0.04353,3.38063 6.35e-4,5.07082 -0.02246,0.80543 -0.0542,1.61044 -0.09357,2.41523 -0.149406,1.99001 2.664896,2.2013 2.814302,0.21129 z"
       id="path2535"
       style="fill:#000000;fill-opacity:1;fill-rule:nonzero;stroke:none;stroke-width:0.264583" />
    <path
       d="m 48.966805,239.14196 c -0.892847,-0.49199 -1.902902,-0.69012 -2.898939,-0.84782 -0.911381,-0.11539 -1.836796,-0.0909 -2.72632,0.15459 -0.636812,0.17575 -0.753517,0.2672 -1.346004,0.5571 -0.207436,0.13974 -0.425355,0.26505 -0.622305,0.41922 -0.782095,0.61221 -1.396683,1.45153 -1.758302,2.37589 -0.09065,0.23173 -0.149622,0.47464 -0.224433,0.71196 -0.03765,0.25594 -0.09724,0.50961 -0.112948,0.76783 -0.0502,0.82518 0.139121,1.62923 0.500846,2.36903 0.320175,0.65482 0.520612,0.85625 0.963305,1.43487 1.26306,1.45221 2.886758,2.50627 4.451596,3.59875 1.114486,0.81795 2.308987,1.61173 3.144142,2.73774 0.114551,0.15444 0.206481,0.32444 0.309721,0.48667 0.324361,0.61126 0.433901,1.27558 0.220374,1.94216 -0.03668,0.11452 -0.09071,0.22274 -0.136062,0.3341 -0.3279,0.64914 -0.824343,1.20549 -1.430856,1.60907 -0.135752,0.0903 -0.282289,0.1633 -0.423436,0.24494 -0.382995,0.17545 -0.572765,0.28323 -0.98566,0.38742 -1.004044,0.25336 -2.107843,0.26162 -3.135898,0.2586 -1.087927,-0.0418 -2.17135,-0.21357 -3.198354,-0.58331 -0.609336,-0.21938 -0.895356,-0.37849 -1.476317,-0.66199 -1.016506,-0.52222 -1.931501,-1.20475 -2.816209,-1.92145 -1.551692,-1.25488 -3.32636,0.93954 -1.774672,2.19442 v 0 c 1.054222,0.8513 2.149899,1.65433 3.36328,2.26828 0.767072,0.3675 1.068629,0.53767 1.88195,0.82061 1.29377,0.45008 2.654686,0.66124 4.020703,0.70566 0.344747,-0.001 0.689684,0.009 1.034241,-0.003 1.014341,-0.0337 2.051756,-0.13697 3.031733,-0.41361 0.645438,-0.1822 0.923107,-0.34921 1.518825,-0.63881 0.234003,-0.14589 0.476536,-0.27892 0.702008,-0.43769 0.814536,-0.57355 1.52269,-1.33927 2.015681,-2.20587 0.124393,-0.21867 0.221353,-0.45184 0.332031,-0.67776 0.215873,-0.64904 0.318418,-0.83193 0.380666,-1.51841 0.104934,-1.15722 -0.196432,-2.26134 -0.77093,-3.26175 -0.172161,-0.25368 -0.329811,-0.51784 -0.516487,-0.76104 -0.999797,-1.30253 -2.355903,-2.27031 -3.674925,-3.21927 -1.336318,-0.93293 -2.730728,-1.82227 -3.845796,-3.02552 -0.34576,-0.4244 -0.722706,-0.87296 -0.84819,-1.42327 -0.05717,-0.25073 -0.03244,-0.35502 -0.01728,-0.60975 0.02849,-0.11316 0.04797,-0.22898 0.08546,-0.33948 0.19999,-0.5894 0.58257,-1.0973 1.092874,-1.4504 0.109149,-0.0599 0.214411,-0.12755 0.327446,-0.17977 0.639522,-0.29548 1.342755,-0.34003 2.034167,-0.25775 0.642938,0.0957 1.298313,0.20746 1.891115,0.4869 1.717069,1.01692 3.155219,-1.41138 1.43815,-2.42831 z"
       id="path2537"
       style="fill:#000000;fill-opacity:1;fill-rule:nonzero;stroke:none;stroke-width:0.264583" />
    <path
       d="m 7.8184684,270.69435 c 0.2503238,1.37174 0.371339,2.76235 0.479843,4.15105 0.022035,0.43092 0.04897,0.86163 0.066101,1.29277 0.035771,0.9003 0.057583,2.13038 0.076461,3.02374 0.033476,1.58412 0.068425,3.1682 0.1038103,4.75228 0.055703,2.25505 0.039628,4.51092 2.238e-4,6.76603 -0.017566,0.57341 -0.00455,0.33121 -0.030078,0.72703 -0.1225524,1.99184 2.6943425,2.16516 2.8168955,0.17331 v 0 c 0.02943,-0.49558 0.01569,-0.21198 0.03497,-0.85109 0.03997,-2.29254 0.05606,-4.58584 -5.03e-4,-6.8783 -0.03536,-1.58305 -0.07024,-3.1661 -0.103742,-4.74919 -0.01982,-0.93667 -0.04156,-2.16881 -0.07956,-3.10903 -0.01845,-0.45641 -0.04735,-0.91234 -0.07103,-1.36852 -0.118044,-1.49592 -0.250094,-2.9939 -0.523505,-4.47102 -0.382497,-1.95861 -3.1523939,-1.41768 -2.7698972,0.54094 z"
       id="path2539"
       style="fill:#000000;fill-opacity:1;fill-rule:nonzero;stroke:none;stroke-width:0.264583" />
    <path
       d="m 10.109493,272.60888 c 1.350823,-0.31205 2.70547,-0.60735 4.060796,-0.89911 2.76539,-0.60988 5.573063,-0.98067 8.389971,-1.24535 1.98683,-0.18701 1.722358,-2.99681 -0.264473,-2.8098 v 0 c -2.927532,0.27601 -5.84539,0.66264 -8.719494,1.29615 -1.445531,0.31124 -2.893592,0.61664 -4.3291924,0.97088 -1.9001602,0.6098 -1.0377683,3.29703 0.8623924,2.68723 z"
       id="path2541"
       style="fill:#000000;fill-opacity:1;fill-rule:nonzero;stroke:none;stroke-width:0.264583" />
    <path
       d="m 11.095822,281.75347 c 1.551252,-0.60431 3.172356,-0.99062 4.791764,-1.35997 2.20856,-0.47433 4.450103,-0.77178 6.6958,-1.00075 1.985268,-0.20294 1.698273,-3.01053 -0.286994,-2.80759 v 0 c -2.36059,0.24189 -4.71673,0.55567 -7.037854,1.05711 -1.740822,0.39895 -3.482551,0.81818 -5.150545,1.4675 -1.8693758,0.6985 -0.8815471,3.3422 0.987829,2.6437 z"
       id="path2543"
       style="fill:#000000;fill-opacity:1;fill-rule:nonzero;stroke:none;stroke-width:0.264583" />
    <path
       d="m 34.221623,271.91415 c 0.0052,-0.11327 0.01132,-0.22661 0.02093,-0.33961 0.0019,-0.0214 0.01151,-0.0848 0.0069,-0.0639 -0.01987,0.0906 0.0045,0.20019 -0.0528,0.27308 -0.240789,0.30637 -0.545407,0.55668 -0.81811,0.83502 -0.334836,-0.011 -0.669671,-0.0221 -1.004507,-0.0331 -0.02127,-0.001 -0.07527,-0.0211 -0.06383,-0.003 0.06136,0.0964 0.151958,0.17067 0.225922,0.25775 0.127151,0.14969 0.253416,0.30016 0.377378,0.4525 0.460359,0.56573 0.641575,0.80819 1.104347,1.40611 1.597356,2.06058 2.944318,4.29538 4.296884,6.51936 1.250238,2.05334 2.514867,4.09899 3.884403,6.07537 0.339408,0.46299 0.668594,0.93625 1.040868,1.37422 0.07413,0.0872 0.14472,0.17878 0.23068,0.25435 0.13317,0.11709 0.24769,0.30244 0.424013,0.32127 0.536573,0.0573 1.077048,-0.0689 1.61557,-0.1034 0.193418,-0.26504 0.421629,-0.50791 0.580255,-0.79513 0.07747,-0.14026 0.272693,-1.01269 0.304157,-1.14824 0.225483,-0.97148 0.4581,-1.93933 0.703834,-2.90599 0.570503,-2.05691 1.126887,-4.1174 1.679538,-6.17913 0.03368,-0.10529 0.06736,-0.21058 0.101039,-0.31587 0.600266,-1.9032 -2.091256,-2.7521 -2.691524,-0.84891 v 0 c -0.04518,0.14475 -0.09037,0.2895 -0.135551,0.43425 -0.555546,2.07364 -1.116177,4.14566 -1.68882,6.21469 -0.249703,0.98331 -0.488029,1.96749 -0.716044,2.95596 -0.03899,0.16904 -0.08067,0.33746 -0.118187,0.50682 -0.01294,0.0584 -0.08353,0.20846 -0.03315,0.17627 0.168077,-0.10739 0.281128,-0.28302 0.421693,-0.42453 1.997094,0.0253 1.004115,-0.31249 1.626751,0.19747 0.04066,0.0333 -0.07502,-0.0738 -0.10918,-0.11375 -0.07463,-0.0873 -0.14614,-0.17719 -0.21694,-0.2676 -0.299125,-0.38195 -0.395597,-0.52326 -0.699818,-0.94096 -1.338741,-1.92916 -2.570001,-3.9294 -3.792312,-5.93368 -1.407602,-2.31432 -2.813143,-4.63729 -4.476626,-6.78061 -0.529611,-0.68378 -1.052078,-1.37727 -1.623375,-2.0275 -0.146116,-0.16631 -0.672888,-0.76132 -0.896329,-0.83325 -0.399894,-0.12874 -0.832794,-0.11141 -1.24919,-0.16711 -0.311857,0.29148 -0.667428,0.54231 -0.935567,0.87445 -0.146653,0.18165 -0.116287,0.72718 -0.142936,0.97519 -0.08576,1.99377 2.733855,2.11505 2.819615,0.12128 z"
       id="path2545"
       style="fill:#000000;fill-opacity:1;fill-rule:nonzero;stroke:none;stroke-width:0.264583" />
    <path
       d="m 46.497303,278.57981 c 0.738359,1.06501 1.294217,2.24734 1.870157,3.4046 0.929209,1.8719 1.729221,3.80277 2.548414,5.72403 0.281757,0.61625 0.13948,0.33314 0.41924,0.85309 0.961649,1.74863 3.434583,0.38865 2.472936,-1.35998 v 0 c -0.178956,-0.31167 -0.07326,-0.11524 -0.296116,-0.60009 -0.841021,-1.97221 -1.663401,-3.95382 -2.618108,-5.87499 -0.383908,-0.77064 -0.584507,-1.1885 -0.984607,-1.93551 -0.337556,-0.63022 -0.687689,-1.25973 -1.107374,-1.84009 -0.06482,-0.0896 -0.138046,-0.17288 -0.207068,-0.25932 -1.335204,-1.48314 -3.432678,0.40512 -2.097474,1.88826 z"
       id="path2547"
       style="fill:#000000;fill-opacity:1;fill-rule:nonzero;stroke:none;stroke-width:0.264583" />
    <path
       d="m 54.358277,286.94628 c -0.08956,0.007 0.03881,0.082 0.04553,0.0583 0.01492,-0.0527 0.01585,-0.10852 0.02761,-0.16203 0.02574,-0.11724 0.05348,-0.2341 0.08486,-0.34995 0.176109,-0.65024 0.246544,-0.83157 0.475488,-1.53734 0.744032,-2.17359 1.537213,-4.32983 2.276676,-6.50504 0.563946,-1.65891 0.712375,-2.13738 1.246283,-3.78643 0.478573,-1.52138 0.972822,-3.03774 1.461431,-4.55589 0.152879,-0.47501 0.470681,-1.44419 0.601591,-1.96871 0.0539,-0.21596 0.0864,-0.43671 0.129604,-0.65506 0.368858,-1.96123 -2.404737,-2.48287 -2.773596,-0.52164 v 0 c -0.02267,0.13191 -0.03571,0.26584 -0.06802,0.39572 -0.12651,0.50855 -0.429429,1.42939 -0.574167,1.8791 -0.488759,1.51861 -0.983173,3.03541 -1.461873,4.55725 -0.525441,1.62327 -0.673708,2.10107 -1.228669,3.7338 -0.745435,2.19313 -1.546225,4.36673 -2.29465,6.55879 -0.328723,1.02004 -0.83576,2.31235 -0.701384,3.40853 0.01426,0.11625 0.05059,0.22871 0.07589,0.34306 0.631063,1.89321 3.308461,1.00075 2.677398,-0.89246 z"
       id="path2549"
       style="fill:#000000;fill-opacity:1;fill-rule:nonzero;stroke:none;stroke-width:0.264583" />
  </g>
</svg>
