<?xml version="1.0" encoding="UTF-8" standalone="no"?>
<!-- Created with Inkscape (http://www.inkscape.org/) -->

<svg
   xmlns:dc="http://purl.org/dc/elements/1.1/"
   xmlns:cc="http://creativecommons.org/ns#"
   xmlns:rdf="http://www.w3.org/1999/02/22-rdf-syntax-ns#"
   xmlns:svg="http://www.w3.org/2000/svg"
   xmlns="http://www.w3.org/2000/svg"
   xmlns:sodipodi="http://sodipodi.sourceforge.net/DTD/sodipodi-0.dtd"
   xmlns:inkscape="http://www.inkscape.org/namespaces/inkscape"
   width="64mm"
   height="64mm"
   viewBox="0 0 64 64"
   version="1.1"
   id="svg8"
   sodipodi:docname="pets.svg"
   inkscape:version="0.92.5 (2060ec1f9f, 2020-04-08)">
  <defs
     id="defs2" />
  <sodipodi:namedview
     id="base"
     pagecolor="#ffffff"
     bordercolor="#666666"
     borderopacity="1.0"
     inkscape:pageopacity="0.0"
     inkscape:pageshadow="2"
     inkscape:zoom="3"
     inkscape:cx="13.493015"
     inkscape:cy="109.6036"
     inkscape:document-units="mm"
     inkscape:current-layer="layer1"
     showgrid="false"
     inkscape:snap-page="true"
     inkscape:window-width="1920"
     inkscape:window-height="1016"
     inkscape:window-x="0"
     inkscape:window-y="27"
     inkscape:window-maximized="1" />
  <metadata
     id="metadata5">
    <rdf:RDF>
      <cc:Work
         rdf:about="">
        <dc:format>image/svg+xml</dc:format>
        <dc:type
           rdf:resource="http://purl.org/dc/dcmitype/StillImage" />
        <dc:title />
      </cc:Work>
    </rdf:RDF>
  </metadata>
  <g
     inkscape:label="Layer 1"
     inkscape:groupmode="layer"
     id="layer1"
     transform="translate(0,-233)">
    <rect
       style="fill:#2196f3;stroke-width:0.26458332;fill-opacity:1"
       id="rect3713"
       width="64"
       height="64"
       x="0"
       y="233" />
    <path
       style="fill:#ffffff;fill-opacity:1;fill-rule:nonzero;stroke:none;stroke-width:0.26458332"
       id="path6096"
       d="m -1.7529206,276.53956 c -0.037715,-0.23049 -0.02103,-0.46137 0.00979,-0.69109 0.039217,-0.24161 0.128537,-0.46983 0.2286894,-0.69167 0.1089487,-0.23431 0.2535238,-0.44812 0.407165,-0.65486 0.15543664,-0.2106 0.32730648,-0.40819 0.50303638,-0.60191 0.20042484,-0.22185 0.41147361,-0.43349 0.62429854,-0.64333 0.25755656,-0.26005 0.53175117,-0.50234 0.81068463,-0.739 0.30948335,-0.26799 0.63041575,-0.52188 0.95461515,-0.77168 0.3708668,-0.28687 0.7517378,-0.56022 1.1375876,-0.82645 0.4340571,-0.2983 0.8772583,-0.58307 1.3251447,-0.86007 0.4937122,-0.30168 0.9972646,-0.58652 1.5066285,-0.86077 0.5419384,-0.29539 1.0994612,-0.56 1.6619595,-0.81345 0.5809975,-0.26641 1.1788974,-0.4919 1.7821773,-0.70183 0.6171207,-0.21459 1.2507779,-0.37436 1.8881269,-0.51526 0.624137,-0.13819 1.256284,-0.23164 1.891577,-0.29904 0.638194,-0.0635 1.279135,-0.0712 1.919595,-0.0529 0.632516,0.018 1.259885,0.0976 1.884009,0.19693 0.626392,0.1053 1.243038,0.25791 1.852953,0.43368 0.613119,0.17455 1.209796,0.3989 1.799278,0.64013 0.590611,0.24344 1.163399,0.52625 1.730313,0.81986 0.573956,0.30494 1.127936,0.64478 1.669752,1.00321 0.549934,0.37157 1.071136,0.78232 1.571419,1.21782 0.512752,0.44589 0.97062,0.94675 1.40494,1.46781 0.444068,0.53925 0.819049,1.12876 1.168019,1.7324 0.362196,0.63331 0.638479,1.30755 0.877196,1.99528 0.241938,0.70718 0.399831,1.4374 0.523968,2.17315 0.13,0.76227 0.173561,1.53384 0.179358,2.30585 0.0031,0.7809 -0.06578,1.55876 -0.169632,2.33192 -0.09751,0.75102 -0.275238,1.48686 -0.473657,2.21652 -0.127172,0.47357 -0.289187,0.9358 -0.464796,1.39315 -0.720942,1.86083 -3.352562,0.84126 -2.631619,-1.01957 v 0 c 0.143318,-0.36529 0.27018,-0.73649 0.373412,-1.11533 0.166626,-0.61051 0.318877,-1.22553 0.400067,-1.85426 0.08814,-0.6414 0.145066,-1.28697 0.144058,-1.93499 -0.0028,-0.62208 -0.03645,-1.2438 -0.140817,-1.85814 -0.09598,-0.58151 -0.219019,-1.15861 -0.408245,-1.71785 -0.177686,-0.51918 -0.383447,-1.02817 -0.654597,-1.50667 -0.26695,-0.46519 -0.552951,-0.92028 -0.892503,-1.33675 -0.337625,-0.407 -0.692148,-0.79935 -1.091938,-1.14713 -0.404772,-0.35528 -0.829231,-0.6871 -1.27413,-0.991 -0.456981,-0.3038 -0.925209,-0.59026 -1.408945,-0.84976 -0.492372,-0.25541 -0.989444,-0.50226 -1.502365,-0.7143 -0.495694,-0.20374 -0.99737,-0.39357 -1.513296,-0.54043 -0.498109,-0.145 -1.002101,-0.26955 -1.513644,-0.35775 -0.504328,-0.081 -1.010992,-0.1479 -1.522301,-0.1628 -0.514433,-0.016 -1.029159,-0.0106 -1.541961,0.0388 -0.530193,0.0546 -1.057355,0.13381 -1.578194,0.24827 -0.529534,0.11623 -1.056251,0.24738 -1.569041,0.425 -0.5247309,0.18204 -1.0448816,0.37734 -1.5499096,0.6094 -0.5021498,0.22589 -0.9999554,0.46154 -1.4835012,0.72542 -0.4598271,0.24715 -0.9141243,0.50434 -1.3599398,0.77607 -0.4079185,0.25193 -0.8113252,0.51133 -1.2066476,0.78267 -0.3451665,0.23791 -0.6858088,0.48228 -1.0174497,0.73884 -0.2896883,0.22316 -0.5767813,0.44952 -0.8528838,0.68947 -0.2251538,0.19034 -0.4464252,0.38521 -0.6535078,0.59533 -0.1761502,0.17362 -0.3514861,0.34803 -0.5171864,0.5318 -0.1142552,0.12534 -0.226983,0.25235 -0.3277216,0.38899 -0.038338,0.0514 -0.07858,0.10048 -0.1104262,0.15646 -0.0612288,0.10658 -0.00247,0.0306 -0.0054,-0.031 0.012516,-0.13949 0.00865,-0.0783 -0.0044,-0.20525 -0.00113,-0.011 0.00314,0.022 0.0047,0.0329 0.2822222,1.97556 -2.5116352,2.37468 -2.7938574,0.39912 z"
       inkscape:connector-curvature="0" />
    <path
       style="fill:#ffffff;fill-opacity:1;fill-rule:nonzero;stroke:none;stroke-width:0.26458332"
       id="path6098"
       d="m 2.3409213,270.81864 c -0.076416,-0.2604 -0.086237,-0.53023 -0.077586,-0.79919 0.016231,-0.26734 0.067053,-0.53033 0.1308001,-0.78988 0.073447,-0.27266 0.155824,-0.54268 0.2441645,-0.81084 0.1096784,-0.32259 0.2271814,-0.64246 0.3477502,-0.96111 0.1340324,-0.34154 0.255892,-0.68758 0.3807306,-1.03252 0.1344105,-0.3684 0.2603937,-0.73979 0.3848809,-1.11163 0.1250659,-0.37378 0.2456178,-0.74914 0.358189,-1.12689 0.1056153,-0.364 0.200053,-0.73103 0.2915526,-1.09879 0.081049,-0.34441 0.1605123,-0.6892 0.229631,-1.03622 0.073988,-0.33431 0.1317898,-0.67177 0.1939065,-1.00838 0.057559,-0.30633 0.106275,-0.61418 0.160554,-0.92109 0.047265,-0.26748 0.0875,-0.53605 0.1364051,-0.80325 0.040351,-0.22165 0.077619,-0.44373 0.1240496,-0.6642 0.03712,-0.18062 0.075297,-0.36084 0.1223225,-0.53916 0.047654,-0.20007 0.1237186,-0.39027 0.2094846,-0.57648 0.1158007,-0.2459 0.2922776,-0.44841 0.4887063,-0.63227 0.2518172,-0.23476 0.5644232,-0.34848 0.8918917,-0.4257 0.3169202,-0.0576 0.6311857,-0.017 0.9394626,0.063 0.2775379,0.0801 0.5350222,0.21019 0.7831627,0.35568 0.3039139,0.17827 0.5708679,0.40801 0.8279921,0.64681 0.3063581,0.28948 0.5809841,0.60969 0.8464341,0.93636 0.324765,0.40915 0.614775,0.84366 0.894526,1.28427 0.309664,0.48968 0.597125,0.99295 0.879236,1.49885 0.288455,0.52465 0.567462,1.05439 0.847222,1.58371 0.25858,0.49305 0.521491,0.98379 0.787663,1.47278 0.226031,0.40632 0.447488,0.81517 0.67535,1.22047 0.09374,0.16348 0.184927,0.32841 0.276238,0.49325 0.966875,1.74575 -1.501979,3.11311 -2.468855,1.36737 v 0 c -0.08846,-0.15974 -0.1768,-0.31957 -0.267696,-0.47795 -0.233973,-0.41647 -0.461833,-0.83632 -0.693838,-1.25389 -0.271677,-0.49912 -0.540059,-1.00002 -0.804019,-1.50327 -0.269937,-0.51074 -0.5390935,-1.02191 -0.8171436,-1.52831 -0.2560807,-0.45954 -0.5166878,-0.91689 -0.7976716,-1.36178 -0.2210557,-0.34923 -0.4492517,-0.6942 -0.7045233,-1.0197 -0.1815089,-0.22539 -0.3691778,-0.44661 -0.5774949,-0.64795 -0.1070284,-0.10038 -0.2132089,-0.20357 -0.338759,-0.28105 -0.00826,-0.005 -0.1438063,-0.0798 -0.1067226,-0.0674 0.106753,0.0174 0.2130203,0.0205 0.3196064,-0.004 0.1722175,-0.0462 0.339853,-0.10449 0.4718825,-0.23274 0.071733,-0.0715 0.1403382,-0.14824 0.1806051,-0.24284 0.048222,-0.11785 -0.011599,0.0172 -0.015544,0.0587 -0.035626,0.13109 -0.059242,0.26497 -0.088514,0.3976 -0.041657,0.19513 -0.07202,0.39234 -0.1090756,0.58838 -0.047997,0.26142 -0.086191,0.52443 -0.133305,0.78604 -0.055574,0.3141 -0.1052867,0.62921 -0.1644624,0.94269 -0.064865,0.3499 -0.1247399,0.70077 -0.2015963,1.04835 -0.078199,0.39009 -0.1664925,0.77801 -0.2585344,1.16506 -0.1021824,0.40996 -0.207677,0.81911 -0.3260368,1.22476 -0.1218949,0.40707 -0.2508692,0.81202 -0.3860533,1.21487 -0.1317209,0.39345 -0.2652268,0.78634 -0.4073625,1.17617 -0.1295493,0.35789 -0.2562413,0.71685 -0.3950859,1.07129 -0.1064284,0.28091 -0.2099876,0.56293 -0.3073625,0.84712 -0.067436,0.20338 -0.1296101,0.40834 -0.1871625,0.61474 -0.022754,0.0842 -0.040447,0.16955 -0.049653,0.25633 -0.00914,-0.17061 0.00779,0.0946 -0.026707,-0.13177 0.548237,1.91883 -2.1653973,2.69416 -2.7136341,0.77533 z"
       inkscape:connector-curvature="0" />
    <path
       style="fill:#ffffff;fill-opacity:1;fill-rule:nonzero;stroke:none;stroke-width:0.26458332"
       id="path6100"
       d="m 22.91817,270.06037 c 0.07645,-0.0201 0.16711,-0.0488 0.272026,-0.0817 0.12799,-0.0449 0.255317,-0.0916 0.383109,-0.13702 0.211051,-0.0682 0.420713,-0.1404 0.632212,-0.20721 0.268661,-0.0806 0.539908,-0.15201 0.810525,-0.22562 0.300931,-0.0806 0.602656,-0.15817 0.904528,-0.23519 0.3269,-0.0818 0.654225,-0.1619 0.980974,-0.24429 0.345329,-0.0841 0.691584,-0.16449 1.037887,-0.24452 0.327731,-0.0787 0.655542,-0.15711 0.983112,-0.23652 0.303599,-0.0705 0.606356,-0.14425 0.908521,-0.22064 0.2653,-0.0682 0.531148,-0.13445 0.796025,-0.20427 0.222232,-0.0599 0.446432,-0.11196 0.668565,-0.17219 0.176954,-0.0536 0.359657,-0.0869 0.537126,-0.13814 0.125433,-0.0376 0.251343,-0.0736 0.377364,-0.10924 0.10789,-0.0317 0.216959,-0.059 0.3262,-0.0855 0.06296,-0.0152 0.125976,-0.0302 0.188984,-0.0453 0.03736,-0.009 0.07473,-0.0178 0.112096,-0.0267 0.514551,-0.0825 0.859732,-0.007 1.291862,0.30361 0.261562,0.2144 0.422476,0.50263 0.510548,0.82389 0.03937,0.15192 0.055,0.3082 0.06658,0.46423 0.01722,0.20304 0.0071,0.40672 -0.0078,0.60948 -0.01807,0.25217 -0.05601,0.50203 -0.09765,0.7512 -0.0587,0.33304 -0.130482,0.6633 -0.209769,0.99198 -0.09609,0.38983 -0.207021,0.77574 -0.312465,1.16309 -0.126873,0.44898 -0.270333,0.89299 -0.414446,1.33665 -0.147339,0.45385 -0.304763,0.90426 -0.468948,1.35226 -0.161478,0.4367 -0.331721,0.87009 -0.518305,1.29667 -0.178171,0.39637 -0.377145,0.78284 -0.585941,1.1638 -0.185582,0.34066 -0.395986,0.66656 -0.619586,0.98325 -0.184094,0.25272 -0.381254,0.49514 -0.588962,0.7287 -0.158192,0.17155 -0.323773,0.33612 -0.497988,0.49135 -0.08883,0.0782 -0.1822,0.15116 -0.27617,0.22303 -1.596202,1.19775 -3.29008,-1.05961 -1.693878,-2.25736 v 0 c -0.02416,0.0199 0.04842,-0.0398 0.07371,-0.0582 0.004,-0.003 -0.01426,0.0135 -0.01042,0.0104 0.01217,-0.01 0.02365,-0.0204 0.03547,-0.0305 0.0923,-0.0806 0.177284,-0.16899 0.262691,-0.25681 0.138923,-0.15525 0.270116,-0.31677 0.394182,-0.4842 0.162602,-0.2271 0.312693,-0.46292 0.447064,-0.70789 0.169378,-0.30785 0.330369,-0.62038 0.4758,-0.94034 0.164375,-0.37229 0.310282,-0.75232 0.452636,-1.1335 0.152244,-0.41494 0.297955,-0.83221 0.434507,-1.25261 0.13009,-0.40043 0.259876,-0.80107 0.375465,-1.20599 0.0984,-0.36147 0.201895,-0.7216 0.292436,-1.08515 0.06408,-0.2642 0.122097,-0.52961 0.169889,-0.79729 0.02897,-0.17015 0.05639,-0.34059 0.06789,-0.51299 0.01543,-0.11679 0.0059,-0.0883 0.0054,-0.17999 -0.0051,-0.0867 0.0043,0.0196 0.01651,0.0442 0.07493,0.25473 0.222541,0.47792 0.428066,0.64774 0.3716,0.26271 0.713518,0.34824 1.156015,0.26265 -0.03721,0.009 -0.07442,0.0177 -0.11163,0.0266 -0.05929,0.0141 -0.118576,0.0283 -0.177824,0.0426 -0.07531,0.0183 -0.150598,0.0366 -0.224835,0.0589 -0.136824,0.0387 -0.273288,0.0785 -0.409808,0.1182 -0.178091,0.047 -0.357706,0.088 -0.535143,0.13761 -0.229095,0.0618 -0.459941,0.11668 -0.689258,0.1777 -0.273159,0.0714 -0.546947,0.14055 -0.820463,0.21056 -0.311295,0.0787 -0.623189,0.15477 -0.93595,0.22743 -0.337317,0.0816 -0.674796,0.16261 -1.012314,0.24343 -0.328113,0.0758 -0.656133,0.15203 -0.983396,0.23136 -0.324112,0.0816 -0.648718,0.16127 -0.972989,0.24227 -0.287625,0.0734 -0.575117,0.14715 -0.861851,0.22395 -0.235022,0.0639 -0.470494,0.12608 -0.704255,0.19447 -0.180277,0.0563 -0.358308,0.11937 -0.538481,0.17593 -0.159718,0.0559 -0.31782,0.11637 -0.478718,0.16889 -0.113376,0.0356 -0.227036,0.0703 -0.341385,0.10247 -1.918829,0.54823 -2.694153,-2.1654 -0.775324,-2.71364 z"
       inkscape:connector-curvature="0" />
    <path
       style="fill:#ffffff;fill-opacity:1;fill-rule:nonzero;stroke:none;stroke-width:0.26458332"
       id="path6102"
       d="m 7.2482029,276.80767 c 0.1003581,0.21464 -0.076618,-0.14594 -0.027988,-0.0397 -0.052097,-0.077 0.035767,0.0522 0.033775,0.0498 -0.1322713,-0.16525 0.00897,0.006 0.018484,0.0164 0.092323,0.10194 0.2029307,0.1535 0.325334,0.21247 0.2084076,0.0846 0.4326779,0.0938 0.6523377,0.056 0.1743561,-0.037 0.3312093,-0.11243 0.4704101,-0.22402 0.072472,-0.0589 0.1276514,-0.13152 0.1773735,-0.20932 0.017216,-0.0326 0.026419,-0.0578 0.015431,-0.0133 0.034211,-0.21584 0.017365,0.0654 0.02463,-0.14839 -0.00175,-0.11418 -0.029987,-0.22378 -0.075075,-0.32793 -0.090365,-0.1933 -0.2434418,-0.33589 -0.4213381,-0.44809 -0.1241685,-0.0757 -0.2647046,-0.10506 -0.4069276,-0.11927 -0.00381,-0.0285 -0.3132381,0.0471 -0.2311858,0.0195 -0.063418,0.0155 -0.1423217,0.061 -0.2100905,0.10795 -0.049758,0.0299 -0.11527,0.10367 -0.146439,0.13911 -0.1258607,0.16843 -0.1749009,0.36133 -0.1998736,0.56682 -0.024778,0.31119 0.082147,0.56207 0.2461146,0.81845 0.098843,0.13128 0.2276038,0.23445 0.3711025,0.31307 0.076071,0.0357 0.065805,0.0317 0.1070594,0.045 -0.021995,0.002 -0.043064,-0.01 -0.064563,-0.0149 -0.00509,-0.001 -0.020376,-0.005 -0.015266,-0.004 0.1580099,0.0341 0.3166224,0.0366 0.4758206,0.0147 0.2039625,-0.0348 0.3960637,-0.12405 0.5601432,-0.24779 0.2154119,-0.20559 0.1356429,-0.11255 0.2555246,-0.26434 -1.1594907,1.62421 -3.4564672,-0.0156 -2.2969762,-1.63977 v 0 c 0.1417047,-0.18331 0.050272,-0.0753 0.2906212,-0.30937 0.2074894,-0.15963 0.4459965,-0.2785 0.7074805,-0.31928 0.222069,-0.0333 0.4493553,-0.0353 0.6680917,0.022 0.062709,0.0147 0.1254355,0.0295 0.1875242,0.0467 0.1321681,0.0397 0.263588,0.0833 0.386829,0.14639 0.2291501,0.11943 0.436566,0.27359 0.5953649,0.47977 0.246707,0.37201 0.3486382,0.63118 0.3422732,1.08216 -0.03284,0.32005 -0.1189889,0.61996 -0.307417,0.88551 -0.1224232,0.17257 -0.2609942,0.33236 -0.4273693,0.46441 -0.1971532,0.14903 -0.4106542,0.27277 -0.6469866,0.3488 -0.2340444,0.0761 -0.4753309,0.12845 -0.7230766,0.11983 -0.3019071,-0.0203 -0.5992247,-0.0723 -0.866983,-0.22312 -0.3133119,-0.18571 -0.5802918,-0.42535 -0.7469444,-0.75512 -0.1227648,-0.2509 -0.2095765,-0.51591 -0.2256248,-0.79684 -0.00988,-0.23665 0.00465,-0.47267 0.059869,-0.70379 0.048769,-0.18775 0.1074994,-0.37325 0.1939769,-0.54752 0.1190974,-0.2331 0.2646161,-0.45056 0.4601035,-0.62735 0.233154,-0.2044 0.4971971,-0.36083 0.8015949,-0.43163 0.3320248,-0.0649 0.6669815,-0.0576 0.9850448,0.068 0.2373283,0.10814 0.4613135,0.22977 0.6450467,0.41973 0.1335847,0.14186 0.2462287,0.2724 0.3503613,0.44007 0.083196,0.13569 0.1580057,0.27629 0.2264357,0.41998 0.7861109,1.83426 -1.8079212,2.94599 -2.5940316,1.11173 z"
       inkscape:connector-curvature="0" />
    <path
       style="fill:#ffffff;fill-opacity:1;fill-rule:nonzero;stroke:none;stroke-width:0.26458332"
       id="path6104"
       d="m 21.136376,277.99045 c -0.111397,0.079 -0.229666,0.14724 -0.348746,0.2138 -0.121801,0.0663 -0.24923,0.12165 -0.370709,0.18851 -0.134431,0.0719 -0.269645,0.14225 -0.40412,0.21403 -0.104862,0.0596 -0.213944,0.11308 -0.314185,0.18045 -0.07205,0.0415 -0.139149,0.0921 -0.20381,0.14339 -0.02145,0.0137 -0.103724,0.10314 -0.05571,0.0549 0.116112,-0.12202 0.164171,-0.28295 0.208563,-0.44103 0.06689,-0.34373 -0.01337,-0.67467 -0.203766,-0.96458 -0.142754,-0.19413 -0.331143,-0.32121 -0.55706,-0.39851 -0.0094,-0.003 -0.01882,-0.005 -0.02823,-0.008 0.124151,0.008 -0.04484,0.001 0.01856,-0.002 0.08958,2.4e-4 0.06492,-5.3e-4 0.158508,-0.0122 0.07594,-0.008 0.148434,-0.0262 0.221256,-0.0475 0.04802,-0.0171 0.09341,-0.0401 0.139013,-0.0628 -0.03762,0.0191 0.0014,-0.005 2.29e-4,-0.004 -0.09408,0.0448 0.08187,-0.0654 -0.02035,0.0107 -0.114748,0.0866 -0.172837,0.21159 -0.242402,0.35538 -0.11947,0.29113 -0.07709,0.58026 0.01892,0.86721 0.09703,0.21777 0.247604,0.40557 0.451752,0.5299 0.0579,0.0346 0.09595,0.0472 0.150338,0.0603 -0.03354,0.0151 0.02921,0.007 0.03398,0.007 -0.04985,0.0196 0.06305,-0.0103 0.113195,-0.0284 0.09052,-0.034 0.165041,-0.0956 0.235026,-0.16023 0.13164,-0.13396 0.219606,-0.30676 0.266677,-0.48738 0.05939,-0.25579 0.02153,-0.50346 -0.07927,-0.74061 -0.112534,-0.22806 -0.299181,-0.40071 -0.525197,-0.51583 -0.08412,-0.0377 -0.0787,-0.0306 -0.201653,-0.0646 1.962379,0.36268 1.449477,3.13791 -0.512903,2.77523 v 0 c -0.147771,-0.036 -0.28966,-0.0657 -0.427668,-0.12991 -0.362798,-0.17087 -0.660702,-0.42697 -0.847833,-0.7849 -0.162644,-0.357 -0.249402,-0.72791 -0.166978,-1.1217 0.07435,-0.32783 0.214573,-0.63386 0.451697,-0.87727 0.193985,-0.19163 0.406109,-0.36225 0.659259,-0.47064 0.23543,-0.0972 0.477733,-0.17588 0.733024,-0.1997 0.23595,-0.0204 0.473396,-0.0278 0.708198,0.0116 0.252712,0.0474 0.50186,0.11099 0.730434,0.23313 0.34735,0.19384 0.640457,0.45145 0.808445,0.8217 0.02939,0.0811 0.06449,0.16046 0.08818,0.24346 0.0959,0.33596 0.07117,0.69571 -0.04502,1.0228 -0.133156,0.29651 -0.295642,0.56838 -0.546286,0.78177 -0.183205,0.15333 -0.377204,0.29355 -0.592152,0.39981 -0.196251,0.0955 -0.39717,0.18169 -0.607191,0.24258 -0.197176,0.0555 -0.396773,0.10157 -0.60016,0.12787 -0.199051,0.0258 -0.399235,0.0452 -0.600287,0.0395 -0.22562,-0.006 -0.450393,-0.0281 -0.669504,-0.0846 -0.381836,-0.11476 -0.717971,-0.30356 -0.965727,-0.62389 -0.271574,-0.39354 -0.398124,-0.79527 -0.317911,-1.2762 0.07954,-0.31098 0.196746,-0.60289 0.409885,-0.84835 0.129817,-0.14826 0.266817,-0.29015 0.420911,-0.41369 0.155451,-0.12441 0.315615,-0.24325 0.486038,-0.34663 0.161196,-0.10014 0.32546,-0.19517 0.493053,-0.28425 0.131561,-0.0699 0.263553,-0.13897 0.39497,-0.20914 0.112908,-0.0601 0.227125,-0.11796 0.342419,-0.17311 0.06223,-0.0322 0.07182,-0.0393 0.146804,-0.0911 1.66045,-1.10697 3.225937,1.24126 1.565487,2.34823 z"
       inkscape:connector-curvature="0" />
    <path
       style="fill:#ffffff;fill-opacity:1;fill-rule:nonzero;stroke:none;stroke-width:0.26458332"
       id="path6106"
       d="m 7.8048487,282.96549 c -0.1392868,-0.13995 0.1826125,0.17191 0.1964004,0.18396 0.11864,0.11474 0.2336197,0.23318 0.3494413,0.35074 0.1102744,0.11299 0.2206384,0.22583 0.3392218,0.33017 0.1214308,0.10654 0.2427359,0.21423 0.3762502,0.30563 0.1277403,0.0929 0.2641385,0.17276 0.4041206,0.24554 0.1076841,0.0492 0.2178341,0.10224 0.3340102,0.12822 0.085543,0.0267 0.1731302,0.0319 0.2617068,0.0353 0.06938,-0.004 0.136719,-0.0212 0.204699,-0.0355 0.06947,-0.023 0.138144,-0.0492 0.203544,-0.0822 0.09522,-0.0457 0.181822,-0.10518 0.269377,-0.16351 0.108485,-0.0759 0.212869,-0.15725 0.31796,-0.23773 0.08778,-0.0754 0.177804,-0.14834 0.2647,-0.22476 0.140387,-0.12196 0.289263,-0.23279 0.444056,-0.33562 0.160935,-0.10567 0.33484,-0.18815 0.512242,-0.26172 0.245332,-0.0976 0.504843,-0.13628 0.767297,-0.1437 0.284805,-0.007 0.559141,0.0612 0.824739,0.15735 0.189743,0.0692 0.367676,0.1655 0.541735,0.26688 0.15448,0.0892 0.302329,0.18952 0.449283,0.29048 0.139167,0.0986 0.279022,0.1963 0.419413,0.29319 0.134516,0.0913 0.272838,0.17672 0.413574,0.25803 0.158634,0.0901 0.324767,0.16568 0.491243,0.23994 0.206783,0.0873 0.416896,0.16641 0.630376,0.23569 0.258884,0.0855 0.521805,0.15848 0.786102,0.22515 0.295408,0.0702 0.5916,0.13689 0.887734,0.20392 0.270008,0.0639 0.540164,0.12579 0.807365,0.20067 1.918815,0.54828 1.143422,3.2619 -0.775393,2.71361 v 0 c -0.215745,-0.0642 -0.437277,-0.10583 -0.655235,-0.16174 -0.319844,-0.0724 -0.639818,-0.1443 -0.958691,-0.22096 -0.326938,-0.0833 -0.65243,-0.17329 -0.972788,-0.27943 -0.304804,-0.1009 -0.606136,-0.21222 -0.900733,-0.34018 -0.256952,-0.11496 -0.512068,-0.23475 -0.756147,-0.37548 -0.204253,-0.11883 -0.405417,-0.24301 -0.600479,-0.37649 -0.13997,-0.0966 -0.279442,-0.19394 -0.418162,-0.29232 -0.09219,-0.0639 -0.184621,-0.12816 -0.282107,-0.1837 -0.110112,-0.0689 -0.0097,-0.0145 -0.114431,-0.0609 0.0786,0.0227 0.160722,0.0328 0.242553,0.0279 0.05762,-0.009 0.16318,-0.0256 0.228286,-0.0605 -0.01528,0.005 -0.01257,2.3e-4 -0.03373,0.0132 -0.02262,0.014 -0.09778,0.0708 -0.135687,0.10459 -0.129858,0.11111 -0.259269,0.22288 -0.393202,0.3291 -0.15385,0.11728 -0.306995,0.23555 -0.467145,0.34427 -0.206892,0.13782 -0.418579,0.26827 -0.644128,0.37386 -0.264502,0.12055 -0.536856,0.22589 -0.821957,0.28687 -0.302956,0.062 -0.610122,0.10458 -0.9203219,0.0903 -0.3061973,-0.0171 -0.6105131,-0.0566 -0.905488,-0.14383 -0.2975449,-0.09 -0.5899886,-0.19779 -0.8654323,-0.34336 -0.2515666,-0.13412 -0.497882,-0.27842 -0.7286868,-0.44636 -0.2130462,-0.15488 -0.4190836,-0.3188 -0.6139733,-0.4962 -0.161408,-0.14545 -0.3175778,-0.29629 -0.4681223,-0.453 -0.090454,-0.0918 -0.1806225,-0.18391 -0.271853,-0.27496 -0.1156734,-0.11014 -0.1402104,-0.14065 -0.2591501,-0.2448 -1.411111,-1.41111 0.5845014,-3.40672 1.9956124,-1.99561 z"
       inkscape:connector-curvature="0" />
    <path
       style="fill:#ffffff;fill-opacity:1;fill-rule:nonzero;stroke:none;stroke-width:0.26458332"
       id="path6108"
       d="m 28.645797,284.69845 c -0.0108,0.0939 -0.01876,0.18803 -0.02912,0.282 -0.02024,0.17167 -0.04457,0.34276 -0.06757,0.51407 -0.03682,0.24573 -0.07405,0.49135 -0.115774,0.7363 -0.05008,0.31016 -0.117242,0.61717 -0.178054,0.92531 -0.07686,0.37665 -0.15908,0.75217 -0.247261,1.12633 -0.103624,0.43227 -0.225824,0.85969 -0.351115,1.28608 -0.135472,0.46875 -0.291774,0.93116 -0.457978,1.38981 -0.176731,0.48865 -0.379209,0.96731 -0.590277,1.44194 -0.218008,0.49046 -0.47277,0.96244 -0.738131,1.42847 -0.253183,0.44674 -0.535223,0.87555 -0.835187,1.29199 -0.257867,0.35815 -0.539129,0.69801 -0.83395,1.02609 -0.144597,0.16134 -0.306115,0.30493 -0.469149,0.44692 -1.516278,1.29745 -3.351146,-0.84689 -1.834869,-2.14434 v 0 c 0.07352,-0.0596 0.143286,-0.12324 0.208013,-0.19248 0.228051,-0.2517 0.44372,-0.51407 0.642709,-0.7895 0.24189,-0.33304 0.466631,-0.67785 0.670261,-1.03574 0.219493,-0.38502 0.43192,-0.77396 0.61209,-1.17935 0.184621,-0.41406 0.361617,-0.83172 0.516053,-1.25812 0.14698,-0.40283 0.283348,-0.80968 0.402746,-1.22159 0.110999,-0.37748 0.219769,-0.75572 0.311991,-1.13831 0.08048,-0.34063 0.155069,-0.6826 0.225401,-1.02547 0.05629,-0.28436 0.118379,-0.5677 0.164893,-0.8539 0.03648,-0.21209 0.06801,-0.42491 0.100683,-0.63761 0.02123,-0.15689 0.04392,-0.31348 0.06207,-0.47077 0.02335,-0.11334 0.01284,-0.23365 0.03767,-0.34725 0.282222,-1.97556 3.07608,-1.57644 2.793857,0.39912 z"
       inkscape:connector-curvature="0" />
    <path
       style="fill:#ffffff;fill-opacity:1;fill-rule:nonzero;stroke:none;stroke-width:0.26458332"
       id="path6128"
       d="m 6.7909722,234.75722 c 0,0.0883 0,0.17651 0,0.26476 0,0.11121 0,0.22242 0,0.33362 0,0.13306 0,0.26612 0,0.39919 0,0.14998 0,0.29997 0,0.44996 0,0.16035 0,0.32071 0,0.48107 0,0.1693 0,0.33859 0,0.50789 0.00379,0.16699 -0.00612,0.3345 0.00241,0.50136 0.010337,0.1894 0.02055,0.3788 0.029443,0.56827 0.00835,0.19621 0.028224,0.39174 0.042875,0.58756 0.017767,0.23844 0.030156,0.47723 0.040679,0.71608 0.010903,0.25361 0.018005,0.50735 0.024339,0.7611 0.00651,0.27099 0.010758,0.54202 0.014528,0.81307 0.00383,0.28058 0.00643,0.56118 0.00873,0.84178 -0.00241,0.27196 0.011176,0.54356 0.022609,0.81518 0.014152,0.27767 0.017304,0.55583 0.032559,0.83343 0.017663,0.27567 0.034518,0.55139 0.048925,0.82726 0.020003,0.25959 0.041436,0.51906 0.059937,0.77877 0.017238,0.25056 0.028869,0.50136 0.049823,0.75164 0.022408,0.24945 0.041344,0.49917 0.057956,0.74907 0.015303,0.23356 0.027011,0.46733 0.037496,0.70115 0.00902,0.20745 0.016113,0.41498 0.022527,0.62253 0.00546,0.18164 0.00968,0.36331 0.013576,0.54499 0.011105,0.12609 0.021908,0.25222 0.032322,0.37838 0.00566,0.11382 0.017248,0.22637 0.032825,0.33907 0.019458,0.13916 0.035937,0.2787 0.050925,0.41841 0.00575,0.07 0.022177,0.14102 0.040194,0.24604 0.019648,0.1167 0.035932,0.23391 0.051117,0.35126 0.012054,0.0978 0.022495,0.19588 0.031647,0.29404 0.02977,0.23216 -0.0328,-0.1408 -0.00235,-0.0214 0.010679,0.0416 0.021635,0.083 0.032577,0.12453 0.00748,0.0284 0.014978,0.0567 0.022468,0.0851 0.00458,0.0173 0.00916,0.0347 0.013745,0.052 0.00278,0.0105 0.00557,0.0211 0.00835,0.0316 0.00169,0.006 0.00338,0.0128 0.00507,0.0192 0.028794,0.10239 0.040874,0.20545 0.047295,0.31028 0.00217,0.0333 0.00314,0.0666 0.004,0.1 7.938e-4,0.0318 0.00119,0.0636 0.00153,0.0954 3.704e-4,0.0365 5.557e-4,0.073 7.409e-4,0.10955 1.719e-4,0.0389 3.175e-4,0.0778 4.233e-4,0.11662 9.37e-5,0.0347 1.744e-4,0.0694 2.558e-4,0.10411 6.25e-5,0.032 1.085e-4,0.064 1.564e-4,0.096 3.15e-5,0.0211 6.25e-5,0.0423 9.37e-5,0.0634 1.88e-5,0.0129 3.78e-5,0.0257 5.69e-5,0.0386 2.38e-5,0.0144 2.75e-5,0.0289 3.57e-5,0.0433 7.1e-6,0.0137 1.4e-5,0.0274 2.09e-5,0.0411 8.2e-6,0.013 10e-6,0.026 1.29e-5,0.0391 2.7e-6,0.0158 5.9e-6,0.0315 7.7e-6,0.0473 1.9e-6,0.0193 3.2e-6,0.0386 4.8e-6,0.0579 0,5.5e-4 1e-6,0.0228 1e-6,0.0228 -0.031133,-0.23412 -0.043496,-0.41334 -0.1467278,-0.61844 -0.034207,-0.0655 0.063742,0.13329 0.095761,0.19986 0.026629,0.0676 0.046795,0.13738 0.065516,0.20748 0.021762,0.0796 0.034226,0.16107 0.045238,0.24267 0.00736,0.0522 0.011374,0.10486 0.015176,0.15745 0.00311,0.0469 0.00503,0.0939 0.00666,0.14086 0.00108,0.0358 0.00201,0.0717 0.00276,0.10751 5.556e-4,0.0307 0.00103,0.0615 0.00151,0.0922 4.498e-4,0.0294 6.879e-4,0.0588 9.525e-4,0.0881 1.741e-4,0.0197 3.44e-4,0.0394 5.027e-4,0.0591 1.992e-4,0.0203 2.646e-4,0.0406 3.44e-4,0.0609 6.53e-5,0.0163 1.275e-4,0.0327 1.899e-4,0.049 3.81e-5,0.01 7.62e-5,0.02 1.143e-4,0.03 3.81e-5,0.008 5.8e-5,0.0163 7.78e-5,0.0245 1.86e-5,0.0141 3.05e-5,0.0282 4.37e-5,0.0423 8.5e-6,0.009 1.69e-5,0.0188 2.57e-5,0.0282 1.19e-5,0.0122 1.24e-5,0.0244 1.58e-5,0.0366 3.5e-6,0.0124 6.4e-6,0.0249 9.6e-6,0.0373 3.9e-6,0.014 4.5e-6,0.0279 5.8e-6,0.0419 1e-6,0.0136 2.4e-6,0.0273 3.4e-6,0.0409 8e-7,0.01 1.6e-6,0.0191 2.1e-6,0.0286 6e-7,0.0152 8e-7,0.0304 1.4e-6,0.0456 5e-7,0.0147 5e-7,0.0293 7e-7,0.044 0,0.0158 3e-7,0.0315 6e-7,0.0473 0,0.0143 0,0.0286 2e-7,0.0428 0,0.0155 0,0.031 0,0.0465 0,0.01 3e-7,0.0195 3e-7,0.0292 0,0.007 0,0.014 0,0.021 0,0.0137 0,0.0273 0,0.041 0,0.0173 0,0.0345 0,0.0518 0,0.022 0,0.0439 0,0.0659 0,0.0214 0,0.0427 0,0.0641 0,0.0199 0,0.0398 0,0.0597 0,0.0124 0,0.0248 0,0.0372 0.011398,0.9571 -2.822222,0.91664 -2.822222,-0.0439 0,-0.0361 0,-0.0722 0,-0.10833 0,-0.0393 0,-0.0785 0,-0.11777 0,-1.99561 2.822222,-1.99561 2.822222,0 v 0 c 0,0.0393 0,0.0785 0,0.11777 0,0.0361 0,0.0722 0,0.10833 0,0.96058 -2.8336208,1.00104 -2.822222,0.0439 0,-0.0124 0,-0.0248 0,-0.0372 0,-0.0199 0,-0.0398 0,-0.0597 0,-0.0214 0,-0.0427 0,-0.0641 0,-0.022 0,-0.0439 0,-0.0659 0,-0.0173 -3e-7,-0.0345 -3e-7,-0.0518 0,-0.0137 0,-0.0273 0,-0.041 0,-0.007 0,-0.014 0,-0.0209 0,-0.01 0,-0.0194 0,-0.0292 -2e-7,-0.0155 -2e-7,-0.031 -2e-7,-0.0465 0,-0.0143 0,-0.0285 -3e-7,-0.0428 -3e-7,-0.0158 -3e-7,-0.0315 -5e-7,-0.0473 0,-0.0147 -3e-7,-0.0293 -8e-7,-0.044 -3e-7,-0.0152 -8e-7,-0.0304 -1.3e-6,-0.0455 -6e-7,-0.01 -1.1e-6,-0.019 -2.2e-6,-0.0285 -1e-6,-0.0136 -2.1e-6,-0.0273 -3.4e-6,-0.0409 -1.3e-6,-0.0138 -1.9e-6,-0.0276 -5.6e-6,-0.0415 -3.1e-6,-0.0124 -6.3e-6,-0.0248 -9.5e-6,-0.0373 -3.2e-6,-0.0116 -3.7e-6,-0.0232 -1.51e-5,-0.0349 -8.4e-6,-0.009 -1.69e-5,-0.0188 -2.54e-5,-0.0282 -1.24e-5,-0.0134 -2.43e-5,-0.0268 -4.1e-5,-0.0402 -1.85e-5,-0.006 -3.09e-5,-0.0123 -6.11e-5,-0.0184 -3.81e-5,-0.01 -7.62e-5,-0.02 -1.143e-4,-0.03 -6.16e-5,-0.0161 -1.228e-4,-0.0322 -1.871e-4,-0.0483 -6.53e-5,-0.016 -1.076e-4,-0.032 -2.645e-4,-0.048 -1.683e-4,-0.0194 -3.44e-4,-0.0389 -5.027e-4,-0.0583 -2.083e-4,-0.0233 -3.705e-4,-0.0467 -7.409e-4,-0.07 -3.969e-4,-0.0265 -8.202e-4,-0.0529 -0.00127,-0.0794 -5.291e-4,-0.0238 -0.00111,-0.0475 -0.0018,-0.0713 -2.289e-4,-0.006 -0.00257,-0.0571 -8.732e-4,-0.0302 -0.00357,-0.0496 0.00143,0.006 0.00278,0.0163 -0.00637,-0.0473 0.014145,0.11147 0.024815,0.10781 0.00999,0.0303 0.021249,0.0602 0.03192,0.0904 0.1837762,0.37515 0.090939,0.18086 0.042075,0.10043 -0.1164188,-0.22645 -0.1907924,-0.4695 -0.1838674,-0.72959 -1.6e-6,-0.0192 -3e-6,-0.0385 -4.8e-6,-0.0577 -1.6e-6,-0.0157 -4.8e-6,-0.0314 -7.7e-6,-0.0471 -2.6e-6,-0.0127 -4.5e-6,-0.0255 -1.24e-5,-0.0382 -6.9e-6,-0.0137 -1.38e-5,-0.0273 -2.09e-5,-0.041 -7.7e-6,-0.0136 -1.06e-5,-0.0271 -3.34e-5,-0.0407 -1.87e-5,-0.0129 -3.78e-5,-0.0258 -5.66e-5,-0.0386 -3.12e-5,-0.0211 -6.21e-5,-0.0422 -9.36e-5,-0.0633 -4.66e-5,-0.0312 -9.16e-5,-0.0624 -1.516e-4,-0.0935 -8.05e-5,-0.0342 -1.596e-4,-0.0683 -2.519e-4,-0.10249 -1.064e-4,-0.0366 -2.461e-4,-0.0732 -3.969e-4,-0.10981 -1.699e-4,-0.0319 -3.175e-4,-0.0637 -6.35e-4,-0.0956 -1.654e-4,-0.0173 -3.704e-4,-0.0345 -7.408e-4,-0.0518 -0.00101,-0.039 0.00151,0.027 2.646e-4,-0.001 0.00772,0.0806 0.023429,0.1604 0.04114,0.23941 -0.00169,-0.006 -0.00338,-0.0128 -0.00507,-0.0192 -0.00278,-0.0105 -0.00557,-0.0211 -0.00835,-0.0316 -0.00459,-0.0174 -0.00917,-0.0347 -0.013758,-0.0521 -0.0076,-0.0288 -0.015198,-0.0575 -0.022788,-0.0863 -0.013576,-0.0515 -0.027168,-0.10296 -0.040318,-0.15455 -0.033553,-0.13384 -0.062622,-0.2692 -0.071127,-0.40734 -0.00595,-0.0645 -0.012859,-0.12888 -0.020455,-0.1932 -0.010176,-0.0788 -0.020807,-0.15762 -0.033802,-0.23606 -0.024061,-0.14042 -0.052172,-0.28043 -0.064748,-0.42251 -0.01189,-0.1113 -0.024945,-0.22246 -0.040503,-0.33331 -0.022524,-0.16361 -0.040279,-0.32759 -0.049724,-0.49251 -0.015118,-0.18323 -0.03371,-0.36627 -0.041238,-0.55003 -0.0037,-0.17281 -0.0077,-0.34562 -0.01288,-0.5184 -0.006,-0.19449 -0.012626,-0.38896 -0.021045,-0.58336 -0.00955,-0.2136 -0.020196,-0.42715 -0.034127,-0.64051 -0.015507,-0.23411 -0.033396,-0.46803 -0.054413,-0.70171 -0.021696,-0.26162 -0.035385,-0.52365 -0.052445,-0.78559 -0.019717,-0.27749 -0.043721,-0.55463 -0.063225,-0.83213 -0.014348,-0.27569 -0.03159,-0.5512 -0.048897,-0.82672 -0.014536,-0.28728 -0.020698,-0.57489 -0.033918,-0.86223 -0.012774,-0.30346 -0.027017,-0.60695 -0.025014,-0.91078 -0.00225,-0.27522 -0.0048,-0.55044 -0.00855,-0.82565 -0.00362,-0.26066 -0.00768,-0.52132 -0.013925,-0.78193 -0.00588,-0.23594 -0.012412,-0.47187 -0.0225,-0.70767 -0.00919,-0.2101 -0.02,-0.42014 -0.035572,-0.62987 -0.016491,-0.22175 -0.03886,-0.44316 -0.047602,-0.6654 -0.00944,-0.20166 -0.020989,-0.4032 -0.030919,-0.60484 -0.00561,-0.19895 -0.00407,-0.39792 -0.00402,-0.59695 0,-0.16929 0,-0.33859 0,-0.50788 0,-0.16036 0,-0.32072 0,-0.48108 0,-0.14998 0,-0.29997 0,-0.44996 0,-0.13306 0,-0.26612 0,-0.39918 0,-0.11121 0,-0.22241 0,-0.33362 0,-0.0882 0,-0.17651 0,-0.26476 0,-1.99561 2.8222222,-1.99561 2.8222222,0 z"
       inkscape:connector-curvature="0" />
    <path
       style="fill:#ffffff;fill-opacity:1;fill-rule:nonzero;stroke:none;stroke-width:0.26458332"
       id="path6130"
       d="m 5.2874679,233.42807 c 0.1171874,-0.0508 0.2374186,-0.0941 0.3586401,-0.13422 0.049135,-0.0248 0.1767689,-0.0683 0.2491377,-0.0928 0.1282555,-0.0427 0.2598899,-0.0737 0.3919353,-0.10204 0.1255252,-0.0269 0.2526524,-0.0447 0.3800414,-0.0598 0.1114523,-0.0131 0.2233324,-0.0218 0.3352699,-0.0294 0.1151043,-0.007 0.230355,-0.0123 0.3456236,-0.0164 0.1615742,-0.008 0.3229004,0.007 0.4839645,0.0175 0.1229704,0.008 0.2460966,0.0132 0.3692326,0.0178 0.1635324,0.005 0.3270462,0.008 0.4904346,0.0172 0.1724067,0.0132 0.3447738,0.0268 0.5173292,0.0379 0.1971183,0.0113 0.3933052,0.0346 0.5898433,0.053 0.2140339,0.0203 0.4276719,0.0463 0.6405709,0.0762 0.205914,0.0295 0.410977,0.0641 0.616084,0.0986 0.231795,0.0421 0.46207,0.0914 0.690844,0.14755 0.218889,0.0513 0.435574,0.11085 0.651271,0.17412 0.216513,0.0606 0.430398,0.13003 0.642598,0.2042 0.209297,0.073 0.415924,0.15337 0.621127,0.23709 0.203406,0.0818 0.404685,0.16878 0.603239,0.26175 0.185962,0.0867 0.3706,0.1762 0.552667,0.27083 0.190458,0.10242 0.378487,0.20904 0.562531,0.32258 0.172995,0.10295 0.337197,0.21966 0.502405,0.33442 0.183397,0.13072 0.357742,0.2736 0.526748,0.42228 0.153311,0.13137 0.294183,0.27644 0.432091,0.42364 0.143928,0.15203 0.272948,0.31745 0.395648,0.4868 0.118673,0.1704 0.225284,0.34791 0.321024,0.5321 0.085,0.166 0.150138,0.34091 0.216344,0.51494 0.06775,0.17181 0.118877,0.34929 0.165001,0.52791 0.04331,0.17399 0.07456,0.35061 0.101187,0.52782 0.02262,0.15264 0.03906,0.30609 0.05343,0.4597 0.01827,0.17526 0.02683,0.35088 0.02472,0.52706 -0.0037,0.12949 -0.0096,0.25889 -0.01414,0.38835 -0.003,0.15492 -0.02439,0.30859 -0.04197,0.4623 -0.02421,0.17375 -0.05793,0.34608 -0.09968,0.51642 -0.04022,0.16578 -0.09546,0.32741 -0.156454,0.48655 -0.0573,0.14967 -0.123705,0.29571 -0.196697,0.43833 -0.05089,0.10583 -0.106397,0.20933 -0.162661,0.31236 -0.05356,0.0978 -0.116386,0.18995 -0.173893,0.28531 -0.08025,0.12933 -0.173211,0.24975 -0.267076,0.36901 -0.07648,0.0934 -0.157901,0.18252 -0.239621,0.27128 -0.110311,0.12118 -0.233352,0.22978 -0.35839,0.33531 -0.141286,0.11862 -0.296791,0.21802 -0.454659,0.31269 -0.126557,0.0762 -0.257747,0.14393 -0.388537,0.21245 -0.170552,0.0871 -0.346069,0.16382 -0.524653,0.23281 -0.165562,0.0607 -0.330967,0.12096 -0.499669,0.1726 -0.159014,0.0426 -0.316771,0.0895 -0.476133,0.13084 -0.183706,0.0468 -0.369894,0.0823 -0.556957,0.11253 -0.176268,0.0272 -0.353631,0.0465 -0.531118,0.0637 -0.141705,0.0223 -0.28402,0.0405 -0.426461,0.0574 -0.191376,0.0226 -0.383585,0.0367 -0.575825,0.0493 -0.163575,0.0105 -0.327323,0.0154 -0.490507,0.0309 -0.185467,0.0187 -0.371215,0.0343 -0.55712,0.0479 -0.189463,0.0136 -0.379175,0.0232 -0.568924,0.0317 -0.191521,0.009 -0.3830218,0.0163 -0.5747511,0.016 -0.1694603,-0.004 -0.3387394,-0.0134 -0.5080867,-0.0205 -0.1708878,-0.004 -0.3410456,-0.0167 -0.5109737,-0.0345 -0.1534602,-0.0153 -0.3066809,-0.0308 -0.4592442,-0.0537 -0.1110702,-0.0185 -0.2224576,-0.0346 -0.334175,-0.0486 -0.097148,-0.0115 -0.1946056,-0.02 -0.2921127,-0.0277 -0.1433383,-0.0138 -0.285178,-0.039 -0.4276448,-0.0594 -0.013221,-0.002 -0.050283,-0.0133 -0.039664,-0.005 0.00807,0.006 0.077764,0.007 0.018216,0.007 -0.045778,1.9e-4 -0.03011,1.1e-4 -0.078898,5.3e-4 -0.015364,0.002 -0.28809,5.8e-4 -0.1514438,0.003 -0.073357,0.0104 -0.1468623,0.0196 -0.2203545,0.029 -0.059643,0.008 -0.045696,0.006 0.041515,-0.007 -1.9537187,0.40676 -2.5289605,-2.35622 -0.5752414,-2.76297 v 0 c 0.1554607,-0.0275 0.095996,-0.0194 0.17756,-0.0298 0.09019,-0.0115 0.1802855,-0.0236 0.270501,-0.0349 0.1448221,-0.0146 0.2898796,-0.0203 0.4354084,-0.0193 0.1748459,-10e-4 0.3504371,-10e-4 0.5236543,0.0264 0.075693,0.0109 0.1968106,0.0271 0.2506911,0.0397 0.1398397,0.0112 0.279604,0.0237 0.4188767,0.0407 0.1357254,0.0171 0.2711685,0.0361 0.4061275,0.0585 0.1098962,0.017 0.2211266,0.0246 0.3318208,0.0374 0.1115753,0.0118 0.2226358,0.0207 0.3351247,0.0216 0.1390668,0.006 0.2780922,0.0128 0.4171828,0.0181 0.1393222,0.009 0.2803656,-0.015 0.4198136,-0.0133 0.163313,-0.007 0.326598,-0.0154 0.48967,-0.027 0.167392,-0.0122 0.334611,-0.0264 0.501599,-0.0433 0.188667,-0.0173 0.377659,-0.0268 0.566815,-0.0369 0.143411,-0.009 0.286843,-0.0193 0.429634,-0.0359 0.162544,-0.019 0.324225,-0.0442 0.486676,-0.0639 0.119105,-0.0114 0.238145,-0.024 0.356537,-0.0414 0.10059,-0.0157 0.200644,-0.0344 0.299489,-0.059 0.121926,-0.0308 0.241767,-0.0691 0.363796,-0.0995 0.10615,-0.0306 0.20801,-0.0731 0.312429,-0.10889 0.07456,-0.0264 0.145628,-0.0613 0.217296,-0.0945 0.08823,-0.0462 0.177544,-0.09 0.262449,-0.14223 0.05507,-0.0294 0.05532,-0.0315 0.09695,-0.0621 -0.0338,0.0348 0.0725,-0.0728 0.06325,-0.0556 -0.0034,0.006 -0.0195,0.0215 -0.01433,0.0164 0.0093,-0.009 0.01793,-0.0192 0.02689,-0.0288 0.03996,-0.0434 0.07972,-0.0869 0.118759,-0.13109 -0.01621,0.0242 0.02723,-0.0366 0.07029,-0.0935 0.0066,-0.009 -0.01114,0.0187 -0.01671,0.028 0.06032,-0.0986 0.08249,-0.12581 0.12441,-0.20081 -0.02186,0.0513 0.0794,-0.15279 0.0835,-0.16105 0.01093,-0.022 0.02205,-0.044 0.03307,-0.066 0.0077,-0.014 0.04894,-0.099 0.06766,-0.15112 0.01643,-0.0428 0.03476,-0.0844 0.05125,-0.15136 0.01017,-0.0407 0.01101,-0.10197 0.03564,-0.17005 10e-4,-0.003 1.09e-4,0.006 1.64e-4,0.009 0.01081,-0.0945 0.02397,-0.17475 0.02541,-0.24004 0.004,-0.11341 0.0087,-0.22679 0.01287,-0.34019 3.71e-4,-0.008 -0.003,-0.14413 -0.01311,-0.21632 -0.0094,-0.10236 -0.02012,-0.20462 -0.03497,-0.30635 -0.01183,-0.0821 -0.02581,-0.16381 -0.04427,-0.24467 -0.01869,-0.0759 -0.03925,-0.1515 -0.06896,-0.22399 -0.02802,-0.0742 -0.05597,-0.14849 -0.08572,-0.22199 -0.03329,-0.0658 -0.06902,-0.12951 -0.11218,-0.18948 -0.04415,-0.0712 -0.10278,-0.13339 -0.15793,-0.19593 -0.07917,-0.0849 -0.158613,-0.16992 -0.248211,-0.2441 -0.08177,-0.0766 -0.172416,-0.14348 -0.260606,-0.21236 -0.124601,-0.0867 -0.24777,-0.17601 -0.378721,-0.25312 -0.124392,-0.078 -0.253202,-0.14839 -0.381668,-0.21941 -0.14736,-0.0778 -0.298414,-0.14826 -0.449058,-0.21936 -0.15414,-0.0736 -0.312158,-0.13869 -0.470261,-0.20321 -0.161028,-0.0665 -0.323854,-0.12885 -0.488266,-0.1865 -0.164517,-0.0588 -0.331443,-0.11067 -0.499571,-0.15806 -0.177098,-0.052 -0.354882,-0.10111 -0.534782,-0.14264 -0.159448,-0.04 -0.320353,-0.0731 -0.481781,-0.10412 -0.183349,-0.0309 -0.366573,-0.0622 -0.550682,-0.0884 -0.1660624,-0.0254 -0.3336178,-0.0426 -0.500699,-0.0596 -0.169486,-0.0159 -0.3386674,-0.0362 -0.5085918,-0.0466 -0.170021,-0.011 -0.3399216,-0.0237 -0.5097455,-0.0374 -0.1395716,-0.015 -0.2817929,-0.002 -0.4217162,-0.0138 -0.1496933,-0.006 -0.2993683,-0.0121 -0.4488563,-0.0219 -0.1129155,-0.007 -0.187156,-0.0161 -0.199567,-0.0131 -0.084695,0.003 -0.1693791,0.006 -0.253964,0.0117 -0.066357,0.004 -0.1327153,0.009 -0.1987929,0.0169 -0.039034,0.004 -0.07806,0.009 -0.1166267,0.0164 -0.033449,0.007 -0.067214,0.0131 -0.099768,0.023 -0.082823,0.0275 -0.1664751,0.067 -0.2510843,0.0934 -0.043091,0.0139 -0.085968,0.0285 -0.127317,0.0469 -1.8342573,0.78611 -2.9459851,-1.80792 -1.1117278,-2.59403 z"
       inkscape:connector-curvature="0" />
    <path
       style="fill:#ffffff;fill-opacity:1;fill-rule:nonzero;stroke:none;stroke-width:0.26458332"
       id="path6134"
       d="m 21.388726,247.54031 c 0.124336,0.0142 0.245972,0.0436 0.367538,0.0723 0.04658,0.0109 0.09384,0.018 0.141222,0.0243 0.115992,0.0129 0.229072,0.0425 0.343831,0.0625 0.07228,0.0123 0.145115,0.0204 0.218068,0.0274 0.109926,0.01 0.220159,0.016 0.330384,0.0215 0.144294,0.007 0.288712,0.011 0.433121,0.0148 0.172376,0.004 0.344787,0.007 0.517198,0.009 0.194832,0.003 0.389676,0.004 0.58452,0.006 0.210825,0.002 0.421654,0.003 0.632483,0.004 0.220474,9.6e-4 0.440948,0.002 0.661422,0.002 0.22628,5.8e-4 0.45256,9.8e-4 0.678841,0.001 0.213491,-0.003 0.42724,0.006 0.640642,-0.002 0.207605,-0.009 0.415134,-0.0197 0.622737,-0.0289 0.202123,-0.009 0.404317,-0.0156 0.60653,-0.0219 0.166638,-0.005 0.333296,-0.009 0.499965,-0.0132 0.13381,-0.003 0.267631,-0.006 0.401455,-0.008 0.09883,-0.002 0.197652,-0.003 0.296479,-0.005 0.06692,-9.8e-4 0.133831,-0.002 0.20075,-0.003 0.188603,-0.007 0.373549,0.0292 0.552945,0.0828 0.03453,0.0106 0.06886,0.0218 0.103184,0.033 0.01545,0.005 0.03091,0.0101 0.04636,0.0152 0.0092,0.003 0.01831,0.006 0.02746,0.009 0.0056,0.002 0.01109,0.004 0.01664,0.005 0.0034,0.001 0.0067,0.002 0.01011,0.003 0.0021,6.6e-4 0.0041,0.001 0.0061,0.002 0.0013,3.9e-4 0.0024,8.2e-4 0.0037,0.001 -0.129821,0.003 -0.513175,-0.0717 -0.383339,-0.0694 0.0075,1.4e-4 0.01506,2.6e-4 0.02259,3.7e-4 0.0049,9e-5 0.0099,1.7e-4 0.01482,2.5e-4 0.003,5e-5 0.006,1e-4 0.009,1.5e-4 0.0019,3e-5 0.0037,6e-5 0.0055,9e-5 0.0011,2e-5 0.0021,4e-5 0.0033,6e-5 -0.476572,0.43073 -0.953148,0.86146 -1.429721,1.29219 2.28e-4,-0.003 7.94e-4,-0.0138 7.94e-4,-0.0103 -5.29e-4,0.008 -0.0011,0.0155 -0.0013,0.0233 1.01e-4,-0.0178 2.28e-4,-0.0358 2.65e-4,-0.0537 1.56e-4,-0.0348 2.3e-4,-0.0697 2.64e-4,-0.10453 -0.02188,-0.20288 0.04442,0.31182 0.0073,0.12224 -0.0199,-0.10036 -0.03299,-0.20186 -0.04425,-0.30349 0.03657,0.24372 -0.03029,-0.12563 -0.03426,-0.14875 -0.02238,-0.15929 -0.01966,-0.13785 -0.03923,-0.23692 -0.02735,-0.13362 -0.04728,-0.26857 -0.06456,-0.40381 -0.0081,-0.0708 -0.02832,-0.16254 -0.04624,-0.26891 0.0021,0.006 -0.05021,-0.25239 -0.04284,-0.19807 -0.02825,-0.10884 -0.03947,-0.14028 -0.06918,-0.22895 -0.03441,-0.0843 -0.03405,-0.0795 -0.07369,-0.1682 -0.04194,-0.0856 -0.0621,-0.12114 -0.10617,-0.20526 -0.0071,-0.0123 -0.02296,-0.0395 -0.02812,-0.0488 -0.02997,-0.0542 -0.08999,-0.1632 -0.0682,-0.11791 -0.04636,-0.076 -0.09506,-0.15034 -0.146449,-0.22299 -0.04686,-0.0736 -0.09818,-0.1411 -0.149069,-0.20884 -0.05066,-0.0605 -0.103468,-0.11916 -0.156485,-0.17759 -0.05192,-0.053 -0.107262,-0.11529 -0.173625,-0.1756 -0.05747,-0.0534 -0.113586,-0.10812 -0.174141,-0.15783 -0.07761,-0.0643 -0.154048,-0.12984 -0.233677,-0.19152 -0.08845,-0.0668 -0.173268,-0.13813 -0.262536,-0.20379 -0.08971,-0.0674 -0.184343,-0.12795 -0.276772,-0.19153 -0.08878,-0.06 -0.180661,-0.11521 -0.271624,-0.17185 -0.07397,-0.0405 -0.144232,-0.0899 -0.221724,-0.12361 -0.08932,-0.0512 -0.184334,-0.0885 -0.279148,-0.12744 -0.07448,-0.0344 -0.151578,-0.0611 -0.230842,-0.0817 -0.125595,-0.0272 -0.249005,-0.0632 -0.374038,-0.0928 -0.07679,-0.0182 -0.158419,-0.033 -0.229071,-0.0369 -0.135779,-0.008 -0.271747,-0.0114 -0.407684,-0.0151 -0.115056,0.009 -0.231127,0.005 -0.345866,0.018 -0.142723,0.0107 -0.284115,0.0309 -0.425686,0.0511 -0.126497,0.0233 -0.251445,0.0533 -0.376839,0.0818 -0.128891,0.0323 -0.25608,0.0705 -0.383449,0.10828 -0.120473,0.0383 -0.239108,0.0816 -0.358048,0.1243 -0.07709,0.0355 -0.16163,0.061 -0.23456,0.10488 -0.09088,0.0401 -0.148561,0.0769 -0.223904,0.12246 -0.07023,0.0403 -0.10105,0.0681 -0.182656,0.12749 -0.07773,0.0733 0.11703,-0.10613 -0.04506,0.0429 -0.01103,0.0101 0.02254,-0.0198 0.03343,-0.03 -0.01728,0.0238 -0.03811,0.0457 -0.05632,0.0688 -0.0012,0.002 0.04102,-0.0594 0.01844,-0.0186 -0.003,-2.4e-4 -0.07887,0.12865 -0.04485,0.0779 -0.03411,0.072 -0.06612,0.14457 -0.08909,0.22089 -0.0151,0.0566 -0.0271,0.11395 -0.03711,0.17169 -0.01886,0.13234 -0.04702,0.26308 -0.07235,0.39428 -0.01892,0.0968 -0.03042,0.19486 -0.04186,0.29279 -0.01327,0.11503 -0.02141,0.23055 -0.02935,0.34605 -0.0085,0.15851 -0.01765,0.31677 -0.03362,0.47474 -0.01577,0.13507 -0.02923,0.27036 -0.04021,0.40589 -0.01047,0.13266 -0.01824,0.2655 -0.02485,0.3984 -0.0066,0.13989 -0.01154,0.27985 -0.01579,0.41983 -0.0044,0.14762 -0.0072,0.29527 -0.0098,0.44293 -0.0027,0.14941 -0.0045,0.29884 -0.0061,0.44828 -0.0016,0.15896 -0.0027,0.31792 -0.0037,0.47689 -0.0015,0.12894 0.0108,0.25771 0.0188,0.38637 0.01098,0.11586 0.03099,0.23025 0.04977,0.34501 0.02428,0.10589 0.0452,0.2125 0.0766,0.31661 0.03065,0.11278 0.07132,0.22259 0.11563,0.33064 0.03957,0.10796 0.09085,0.21093 0.146646,0.31133 0.05796,0.11202 0.127102,0.21828 0.19928,0.3216 0.07377,0.0986 0.14541,0.19951 0.227769,0.29121 0.07885,0.0931 0.168455,0.17545 0.259243,0.25652 0.109294,0.0943 0.21537,0.19303 0.332737,0.27742 0.118811,0.0903 0.245377,0.16896 0.37251,0.24668 0.128118,0.08 0.263552,0.1464 0.399369,0.21206 0.135899,0.0585 0.273753,0.11163 0.414133,0.15828 0.158737,0.0502 0.322281,0.0817 0.484625,0.11733 0.173239,0.0409 0.351103,0.0576 0.527877,0.0755 0.207616,0.0241 0.416023,0.0306 0.624766,0.0336 0.22584,0.005 0.451863,-1.9e-4 0.677248,-0.0152 0.238194,-0.0155 0.475964,-0.0384 0.712706,-0.0689 0.242326,-0.031 0.483145,-0.0726 0.723622,-0.11533 0.228668,-0.0361 0.453919,-0.0894 0.679606,-0.14022 0.204359,-0.0461 0.409043,-0.0918 0.611944,-0.14404 0.166137,-0.045 0.332674,-0.0886 0.499361,-0.13153 0.207928,-0.0525 0.420373,-0.0793 0.634421,-0.0863 0.31931,-0.009 0.501182,0.0884 0.820954,0.20658 1.730166,0.99449 0.323752,3.44131 -1.406411,2.44683 v 0 c 0.280715,0.0984 0.402021,0.17617 0.661009,0.1678 0.05299,-0.01 0.09135,-0.0142 -0.0056,-0.002 -0.170267,0.0439 -0.340297,0.0886 -0.510101,0.13428 -0.227949,0.0573 -0.456906,0.11089 -0.68635,0.16183 -0.267229,0.0601 -0.534231,0.12186 -0.804812,0.16542 -0.287515,0.0511 -0.575578,0.1 -0.865323,0.13682 -0.296005,0.0367 -0.592846,0.0673 -0.890602,0.0856 -0.297522,0.0176 -0.595573,0.0272 -0.893642,0.0203 -0.29053,-0.004 -0.580756,-0.0159 -0.869759,-0.0479 -0.284028,-0.0293 -0.568538,-0.0619 -0.84706,-0.1267 -0.262044,-0.0577 -0.524969,-0.11336 -0.779701,-0.19923 -0.253431,-0.0861 -0.503709,-0.18162 -0.746581,-0.29443 -0.217097,-0.10587 -0.432516,-0.21532 -0.638031,-0.34263 -0.200509,-0.12264 -0.398309,-0.24974 -0.586239,-0.39119 -0.183513,-0.13832 -0.359528,-0.28576 -0.530576,-0.43924 -0.181091,-0.16277 -0.356464,-0.33191 -0.514756,-0.51731 -0.147894,-0.17405 -0.289022,-0.35383 -0.419689,-0.54127 -0.124099,-0.18355 -0.246131,-0.36918 -0.348447,-0.56601 -0.10604,-0.19726 -0.206436,-0.39804 -0.28589,-0.60773 -0.07953,-0.20044 -0.154564,-0.40294 -0.211286,-0.61121 -0.0577,-0.20786 -0.107681,-0.41773 -0.146398,-0.63002 -0.03398,-0.20764 -0.06639,-0.41561 -0.08138,-0.62568 -0.01198,-0.19275 -0.02756,-0.38564 -0.02419,-0.57892 0.001,-0.1632 0.0021,-0.3264 0.0038,-0.4896 0.0017,-0.15638 0.0036,-0.31276 0.0064,-0.46912 0.0029,-0.15933 0.0059,-0.31866 0.01069,-0.47794 0.0048,-0.15833 0.01044,-0.31664 0.01801,-0.47486 0.0082,-0.16243 0.01774,-0.32479 0.03068,-0.48691 0.01274,-0.15525 0.02749,-0.31032 0.04566,-0.46504 0.01339,-0.12636 0.01654,-0.25337 0.0255,-0.38017 0.01109,-0.1605 0.02317,-0.32098 0.0419,-0.48081 0.01967,-0.16705 0.04146,-0.33394 0.07384,-0.49908 0.02351,-0.12169 0.0498,-0.2426 0.06693,-0.36541 0.0339,-0.18254 0.07398,-0.3641 0.130627,-0.5411 0.04876,-0.14682 0.100519,-0.29315 0.167747,-0.43271 0.0747,-0.17291 0.158766,-0.34142 0.26357,-0.49838 0.10045,-0.15666 0.21182,-0.30524 0.337212,-0.44292 0.138357,-0.14575 0.284303,-0.28431 0.447969,-0.40185 0.123482,-0.0852 0.240797,-0.18007 0.372589,-0.25302 0.14043,-0.0848 0.28249,-0.16704 0.431417,-0.2363 0.174462,-0.0845 0.350906,-0.16556 0.533219,-0.23196 0.168961,-0.0607 0.337971,-0.12117 0.50962,-0.17394 0.185976,-0.0551 0.372127,-0.10984 0.560924,-0.15468 0.199698,-0.0453 0.399191,-0.0919 0.601687,-0.12334 0.198069,-0.0283 0.396363,-0.0544 0.595903,-0.0702 0.21688,-0.0162 0.434419,-0.0264 0.651946,-0.0263 0.183754,0.005 0.367574,0.0102 0.551004,0.0227 0.224745,0.0189 0.447541,0.0523 0.666799,0.10599 0.156521,0.0378 0.311752,0.0803 0.468495,0.11713 0.188078,0.053 0.374063,0.11325 0.553125,0.19207 0.155916,0.0644 0.311393,0.12961 0.460184,0.20953 0.160015,0.081 0.316619,0.16853 0.469361,0.26254 0.126558,0.0826 0.25859,0.15702 0.38182,0.24483 0.11208,0.0828 0.234664,0.15141 0.343225,0.23926 0.105924,0.0787 0.208722,0.1613 0.313042,0.24209 0.105706,0.0821 0.20842,0.16774 0.310999,0.25371 0.114025,0.0956 0.223777,0.19595 0.331126,0.29901 0.102262,0.10028 0.203899,0.2014 0.300689,0.30701 0.09662,0.10675 0.192616,0.2142 0.282506,0.32674 0.08276,0.10723 0.163914,0.21589 0.238572,0.32894 0.07369,0.1048 0.145209,0.21107 0.212093,0.32038 0.07894,0.12611 0.153548,0.25467 0.223882,0.38579 0.06273,0.11984 0.125839,0.23949 0.182375,0.36243 0.06241,0.13955 0.123555,0.27975 0.173577,0.42435 0.04449,0.13295 0.08599,0.26678 0.121161,0.40253 0.03776,0.15096 0.0738,0.30273 0.09846,0.45646 0.02072,0.12698 0.04935,0.25274 0.0626,0.38089 0.0085,0.0703 0.01889,0.1405 0.03329,0.20989 0.02074,0.10538 0.04055,0.21089 0.0539,0.31748 0.01484,0.10472 0.05069,0.20582 0.05669,0.31215 0.0024,0.0247 0.0048,0.0475 0.0092,0.0701 0.02468,0.13837 0.05103,0.27729 0.044,0.41895 -7.6e-5,0.0374 -1.58e-4,0.0748 -2.64e-4,0.11219 -1.56e-4,0.0326 -2.65e-4,0.0652 -7.94e-4,0.0979 -0.0159,0.74024 -0.289975,0.49974 -1.438008,1.45913 -0.0011,-2e-5 -0.0021,-3e-5 -0.0033,-5e-5 -0.0019,-3e-5 -0.0037,-6e-5 -0.0055,-9e-5 -0.003,-5e-5 -0.006,-1e-4 -0.009,-1.5e-4 -0.005,-9e-5 -0.01,-1.7e-4 -0.01497,-2.5e-4 -0.0088,-1.5e-4 -0.01757,-2.9e-4 -0.02633,-4.5e-4 -0.152266,-0.003 -0.282679,-0.0151 -0.446517,-0.0711 -0.0013,-3.9e-4 -0.0024,-8.2e-4 -0.0037,-0.001 -0.0021,-6.6e-4 -0.0041,-10e-4 -0.0061,-0.002 -0.0034,-0.001 -0.0067,-0.002 -0.01011,-0.003 -0.0056,-0.002 -0.01109,-0.004 -0.01664,-0.005 -0.0091,-0.003 -0.01823,-0.006 -0.02736,-0.009 -0.01466,-0.005 -0.0293,-0.01 -0.04395,-0.0144 -0.01519,-0.005 -0.03037,-0.01 -0.04555,-0.0149 0.0316,0.008 0.431776,0.0705 0.308027,0.0388 -0.06648,9.5e-4 -0.132963,0.002 -0.199445,0.003 -0.09609,0.001 -0.19218,0.003 -0.288266,0.005 -0.128781,0.002 -0.257559,0.005 -0.386329,0.008 -0.15943,0.004 -0.318852,0.008 -0.478253,0.0126 -0.189791,0.006 -0.379566,0.0123 -0.569272,0.0205 -0.223086,0.01 -0.446077,0.0217 -0.669205,0.0305 -0.240856,0.006 -0.481751,0.003 -0.722662,0.003 -0.22727,-3.5e-4 -0.45454,-7.4e-4 -0.681809,-0.001 -0.222191,-5.8e-4 -0.444382,-0.001 -0.666572,-0.002 -0.213918,-9.6e-4 -0.427835,-0.002 -0.641749,-0.004 -0.200724,-0.002 -0.401448,-0.003 -0.602161,-0.006 -0.183775,-0.003 -0.367549,-0.005 -0.551286,-0.0101 -0.167281,-0.004 -0.334565,-0.009 -0.501707,-0.0174 -0.154944,-0.008 -0.309875,-0.0168 -0.464346,-0.0315 -0.148814,-0.0148 -0.297347,-0.0327 -0.444631,-0.059 -0.113593,-0.0209 -0.202043,-0.0423 -0.234562,-0.0449 -0.132919,-0.019 -0.265436,-0.0411 -0.396136,-0.0722 -0.248683,-0.0587 0.132862,0.0193 -0.118419,-0.0252 -1.975556,-0.28222 -1.576433,-3.07608 0.399122,-2.79385 z"
       inkscape:connector-curvature="0" />
    <path
       style="fill:#ffffff;fill-opacity:1;fill-rule:nonzero;stroke:none;stroke-width:0.26458332"
       id="path6136"
       d="m 41.730702,237.82981 c 0.100219,-0.16276 -0.09267,0.16956 -0.09791,0.17862 -0.05719,0.0941 -0.110244,0.19046 -0.164365,0.28635 -0.05638,0.10487 -0.110821,0.21077 -0.166235,0.31617 -0.06645,0.12965 -0.133495,0.25897 -0.198117,0.38956 -0.08042,0.16869 -0.162891,0.3364 -0.245293,0.50414 -0.09312,0.1991 -0.191095,0.39584 -0.285774,0.59419 -0.109352,0.22237 -0.218879,0.44478 -0.320934,0.67063 -0.113432,0.2462 -0.225541,0.49303 -0.334457,0.74127 -0.114464,0.25377 -0.22348,0.50983 -0.33016,0.76696 -0.104431,0.25455 -0.203195,0.51134 -0.301832,0.76817 -0.09826,0.25845 -0.192762,0.5183 -0.287628,0.77801 -0.09987,0.26497 -0.201311,0.52937 -0.297889,0.79557 -0.102275,0.27033 -0.203991,0.54086 -0.304999,0.81166 -0.10713,0.27679 -0.206118,0.55662 -0.310975,0.83425 -0.09968,0.26108 -0.190286,0.52532 -0.277527,0.79076 -0.0914,0.25568 -0.162266,0.51758 -0.234595,0.77903 -0.06456,0.21224 -0.109257,0.42875 -0.145011,0.64736 -0.02879,0.17911 -0.04756,0.3601 -0.05025,0.54157 -0.0067,0.13523 0.01087,0.26858 0.03191,0.4016 0.02244,0.10611 0.04725,0.21213 0.08956,0.31224 0.05169,0.12341 0.110919,0.24285 0.177226,0.35898 0.05633,0.0944 0.129942,0.17593 0.202846,0.25751 0.09512,0.10802 0.206065,0.20043 0.317642,0.29082 0.11938,0.0868 0.24189,0.16958 0.373502,0.23673 0.170691,0.0896 0.349136,0.16329 0.530609,0.22787 0.206391,0.0709 0.419854,0.11721 0.633632,0.15926 0.250447,0.0518 0.505515,0.0715 0.760005,0.0913 0.278823,0.0146 0.557929,0.0176 0.837028,0.013 0.28353,-0.009 0.566071,-0.0327 0.848534,-0.0575 0.25985,-0.0249 0.518147,-0.0616 0.776396,-0.099 0.197377,-0.0347 0.394801,-0.0688 0.590542,-0.11181 0.151556,-0.0341 0.302723,-0.0698 0.453906,-0.10544 0.0681,-0.0188 0.138719,-0.0289 0.206193,-0.05 0.0048,-0.002 -0.0098,0.002 -0.01474,0.004 0.216312,-0.0662 0.369469,-0.054 0.611774,-0.0598 1.984881,0.20667 1.692609,3.01371 -0.292274,2.80705 v 0 c 0.234283,-0.008 0.313544,0.01 0.496501,-0.0455 -0.118872,0.0346 -0.238958,0.0643 -0.359717,0.0916 -0.166283,0.0392 -0.332549,0.0785 -0.499285,0.11575 -0.261159,0.0568 -0.524205,0.10404 -0.787878,0.14763 -0.310632,0.0451 -0.621531,0.0881 -0.934136,0.11737 -0.3498,0.0308 -0.699883,0.0589 -1.05106,0.068 -0.367538,0.006 -0.735256,0.001 -1.102251,-0.0212 -0.36544,-0.0288 -0.731031,-0.0628 -1.090591,-0.13702 -0.353598,-0.071 -0.705671,-0.15264 -1.045787,-0.27439 -0.309319,-0.11351 -0.614421,-0.23946 -0.905055,-0.39556 -0.28606,-0.15668 -0.562549,-0.3304 -0.818251,-0.53366 -0.229891,-0.18791 -0.452807,-0.38554 -0.649097,-0.60905 -0.204409,-0.23233 -0.397774,-0.475 -0.549825,-0.74567 -0.132432,-0.23775 -0.253402,-0.48149 -0.353301,-0.73491 -0.107053,-0.28789 -0.1926,-0.58321 -0.241763,-0.88695 -0.04615,-0.30266 -0.07507,-0.60769 -0.06385,-0.91431 0.01061,-0.30846 0.03486,-0.61647 0.08698,-0.921 0.05288,-0.31674 0.118176,-0.63102 0.209381,-0.93923 0.08442,-0.30479 0.168394,-0.60977 0.273708,-0.90823 0.10033,-0.30463 0.204582,-0.60788 0.318839,-0.9076 0.103749,-0.27342 0.200438,-0.54948 0.306396,-0.82208 0.09838,-0.26344 0.196948,-0.5268 0.296894,-0.78966 0.09742,-0.26726 0.198292,-0.53326 0.299215,-0.79921 0.100189,-0.27423 0.200032,-0.54859 0.303905,-0.82146 0.107617,-0.2802 0.215569,-0.56028 0.329687,-0.83791 0.114109,-0.275 0.230822,-0.54884 0.352973,-0.82038 0.114054,-0.2594 0.230793,-0.51762 0.349504,-0.77492 0.110225,-0.24123 0.225009,-0.48037 0.342971,-0.7179 0.09928,-0.20791 0.201745,-0.41424 0.299633,-0.62281 0.08376,-0.17044 0.167716,-0.34076 0.249293,-0.51225 0.07524,-0.15179 0.153027,-0.30227 0.230507,-0.45293 0.06836,-0.12915 0.134507,-0.25946 0.205108,-0.38741 0.06116,-0.10834 0.122939,-0.21584 0.184677,-0.32174 0.06837,-0.11431 0.111995,-0.20541 0.187097,-0.32145 1.106966,-1.66045 3.455196,-0.095 2.34823,1.56549 z"
       inkscape:connector-curvature="0" />
    <path
       style="fill:#ffffff;fill-opacity:1;fill-rule:nonzero;stroke:none;stroke-width:0.26458332"
       id="path6138"
       d="m 33.173498,245.35839 c -0.140587,0.0394 -0.283856,0.0677 -0.427504,0.0932 -0.07187,0.0101 -0.129592,0.028 -0.240926,0.0533 -0.08663,0.0192 -0.17348,0.0374 -0.260313,0.0557 0.09108,-0.0137 0.288784,-0.1221 0.364582,-0.16018 0.864841,-0.70656 0.347419,-0.15551 -0.340553,-2.53223 -0.0046,-0.0158 -0.148963,-0.0332 -0.166201,-0.036 0.08492,0.003 0.169889,0.004 0.254847,0.006 0.159676,0.002 0.319363,0.003 0.479049,0.004 0.21984,10e-4 0.439685,0.002 0.65953,0.003 0.26902,0.005 0.537826,-0.007 0.806627,-0.0162 0.36108,-0.0136 0.72218,-0.0208 1.083498,-0.0187 0.388353,0.004 0.77669,0.009 1.165042,0.0136 0.424982,0.0119 0.850038,0.024 1.27476,0.0433 0.413031,0.0209 0.82604,0.0413 1.238668,0.0691 0.37954,0.022 0.758068,0.0573 1.136809,0.0897 0.327036,0.0263 0.65305,0.0637 0.979506,0.0962 0.265803,0.0231 0.530849,0.0517 0.795229,0.0875 0.211794,0.0248 0.421608,0.0606 0.629245,0.10905 0.205036,0.0593 0.101476,0.0251 0.310327,0.1035 1.845276,0.75989 0.770631,3.3695 -1.074644,2.60961 v 0 c 0.08477,0.0281 0.04745,0.0184 0.110971,0.0324 -0.116745,-0.0298 -0.236516,-0.0414 -0.355698,-0.0581 -0.23114,-0.0315 -0.462896,-0.0555 -0.695306,-0.0757 -0.31333,-0.0312 -0.626235,-0.0671 -0.940105,-0.0926 -0.361984,-0.031 -0.723738,-0.0649 -1.0865,-0.0858 -0.392462,-0.0265 -0.785302,-0.0456 -1.178145,-0.0657 -0.391679,-0.0183 -0.783733,-0.0283 -1.175639,-0.0405 -0.384085,-0.004 -0.768157,-0.009 -1.152242,-0.0135 -0.324366,-0.002 -0.648504,0.005 -0.972661,0.0172 -0.302456,0.01 -0.604951,0.0226 -0.907648,0.0177 -0.222882,-6.4e-4 -0.445762,-0.001 -0.668642,-0.003 -0.167968,-0.001 -0.335936,-0.002 -0.503893,-0.004 -0.126794,-0.002 -0.253635,-0.004 -0.380291,-0.0102 -0.0584,-0.004 -0.431985,-0.0402 -0.441283,-0.0674 -0.807966,-2.36146 -1.277215,-1.84087 -0.403651,-2.56012 0.186412,-0.0949 0.365384,-0.18839 0.572995,-0.22293 0.07304,-0.0154 0.146095,-0.0307 0.219004,-0.0467 0.124266,-0.0276 0.247332,-0.0615 0.373483,-0.08 0.04763,-0.008 0.0952,-0.0168 0.142348,-0.0275 1.918827,-0.54824 2.694152,2.16539 0.775325,2.71363 z"
       inkscape:connector-curvature="0" />
    <path
       style="fill:#ffffff;fill-opacity:1;fill-rule:nonzero;stroke:none;stroke-width:0.26458332"
       id="path6142"
       d="m 49.767378,243.1132 c 0.01363,0 0.02845,0.006 0.04085,0 0.01217,-0.006 -0.02719,0.003 -0.04013,-3.2e-4 -0.0093,-0.002 0.01913,-0.002 0.02868,-0.003 0.06531,-0.006 0.130657,-0.0112 0.19602,-0.0164 0.145613,-0.011 0.29043,-0.0311 0.43575,-0.046 0.171561,-0.0181 0.343252,-0.0375 0.514091,-0.0616 0.228592,-0.0351 0.458869,-0.057 0.688255,-0.0857 0.265673,-0.0361 0.532392,-0.0633 0.799399,-0.0872 0.277151,-0.0308 0.554603,-0.0585 0.83244,-0.0823 0.303318,-0.0253 0.607176,-0.043 0.911114,-0.0588 0.315314,-0.0172 0.630724,-0.028 0.946499,-0.0278 0.302427,9.6e-4 0.604705,0.005 0.90683,0.0186 0.277926,0.0131 0.555728,0.0262 0.833136,0.0478 0.259572,0.0169 0.51775,0.0486 0.77628,0.0765 0.235971,0.0238 0.470561,0.059 0.706048,0.087 0.225142,0.0229 0.449834,0.049 0.674397,0.0769 0.198985,0.0256 0.39874,0.0443 0.598625,0.0612 0.193169,0.0161 0.386641,0.028 0.58017,0.0387 0.173739,0.01 0.347573,0.0173 0.521438,0.0242 0.145166,0.006 0.290367,0.0104 0.435573,0.0149 0.105077,0.003 0.210153,0.006 0.315241,0.009 0.07376,0.002 0.147537,0.004 0.221297,0.006 0.03805,0.001 0.0761,0.002 0.114152,0.004 0.02064,6.9e-4 0.04129,0.001 0.06193,0.002 0.623757,0.0139 -1.360633,0.57896 -1.435582,1.20298 -0.0026,0.0219 -0.01505,0.0454 -0.0066,0.0658 0.500988,1.20355 0.181697,0.95621 0.615209,1.26507 0.251831,0.11849 0.782989,0.44342 -0.241811,-0.18334 0.02808,0.0263 0.05692,0.0519 0.08675,0.0762 -0.0084,-0.006 -0.01678,-0.0124 -0.02516,-0.0186 -0.0061,-0.004 -0.01212,-0.009 -0.0182,-0.0134 -0.0037,-0.003 -0.0075,-0.005 -0.01117,-0.008 -0.19894,-0.14471 0.434023,0.23166 0.658342,0.26017 0.02058,0.003 0.03619,0.003 0.05938,0.005 0.0054,-10e-4 -0.02209,5e-5 -0.01659,-5.6e-4 0.228375,-0.0249 0.355094,-0.0201 0.545473,-0.0922 0.14003,-0.0496 -0.187069,0.0696 -0.141124,0.0501 0.671777,-0.28522 -0.01704,0.0313 0.200626,-0.0815 -0.0076,0.007 0.03547,-0.0219 0.02699,-0.0158 -0.02527,0.0181 -0.05069,0.0359 -0.07603,0.0538 0.08235,-0.0622 -0.04503,0.0478 -0.059,0.0607 -0.05777,0.0656 -0.145981,0.15695 -0.215077,0.22978 -0.131559,0.13616 -0.260073,0.27515 -0.391608,0.41133 -0.159318,0.17433 -0.322082,0.34535 -0.485065,0.51624 -0.209754,0.21519 -0.419606,0.43026 -0.632632,0.64222 -0.23826,0.23701 -0.477576,0.47288 -0.721151,0.70443 -0.252791,0.24039 -0.50808,0.47813 -0.764665,0.71446 -0.258966,0.23592 -0.524486,0.46438 -0.790204,0.6926 -0.236686,0.21405 -0.479007,0.42163 -0.721823,0.62864 -0.237559,0.19788 -0.475118,0.39575 -0.714476,0.59145 -0.231989,0.1934 -0.467278,0.38271 -0.704305,0.56988 -0.24221,0.19331 -0.488201,0.38182 -0.736317,0.56746 -0.254566,0.19262 -0.514151,0.37829 -0.776446,0.56018 -0.246734,0.16875 -0.494858,0.33548 -0.744074,0.50054 -0.218517,0.14532 -0.440243,0.28573 -0.661215,0.42726 -0.166227,0.10446 -0.334968,0.20503 -0.497549,0.31513 -0.110244,0.0711 -0.220443,0.14153 -0.325893,0.21955 -0.07263,0.0542 -0.144719,0.10904 -0.216836,0.16388 -0.09421,0.0706 -0.194702,0.13193 -0.295326,0.19275 -0.133934,0.0726 -0.331538,0.24275 0.184198,-0.16394 0.09827,-0.10373 0.180911,-0.21942 0.240424,-0.34898 -0.0038,0.009 -0.0077,0.0186 -0.01151,0.0278 -0.0037,0.009 -0.0074,0.018 -0.01114,0.0271 -0.0016,-0.003 -0.0027,0.0127 -0.0039,0.009 -0.540768,-1.41081 -0.11625,-1.62584 -0.868127,-1.875 -0.08083,-0.0249 -0.176199,-0.0388 -0.253568,-0.0459 0.04545,0.001 0.09092,0.002 0.136382,0.002 0.08533,0.002 0.149452,-1.5e-4 0.174739,-0.002 0.164443,-0.0139 0.329205,-0.0231 0.494019,-0.0312 0.216572,-0.01 0.433311,-0.0155 0.650044,-0.0205 0.247007,-0.001 0.493538,-0.0169 0.740175,-0.029 0.319093,-0.0157 0.63841,-0.0261 0.957752,-0.0351 0.354525,-0.01 0.709128,-0.016 1.063738,-0.0215 0.387808,3e-5 0.775544,0.009 1.163278,0.016 0.382294,0.002 0.764186,0.0194 1.146096,0.0349 0.378846,0.0132 0.757071,0.0396 1.134689,0.0721 0.346647,0.0288 0.692142,0.07 1.03678,0.11669 0.294797,0.041 0.588881,0.0881 0.882023,0.13968 0.234207,0.0446 0.469504,0.0834 0.703356,0.1298 0.131992,0.0287 0.262516,0.0617 0.396044,0.082 1.972053,0.30573 1.539682,3.09463 -0.432372,2.7889 v 0 c -0.176101,-0.0276 -0.350454,-0.0631 -0.52374,-0.10484 -0.210971,-0.0447 -0.425119,-0.0741 -0.636468,-0.1171 -0.255262,-0.0459 -0.51185,-0.0854 -0.768599,-0.12191 -0.299175,-0.0407 -0.599088,-0.0767 -0.900038,-0.10151 -0.334846,-0.029 -0.670235,-0.0526 -1.00619,-0.064 -0.359973,-0.0146 -0.719902,-0.0314 -1.080243,-0.033 -0.356814,-0.006 -0.713624,-0.0143 -1.070494,-0.0159 -0.342812,0.005 -0.68562,0.0114 -1.028348,0.0207 -0.2999,0.008 -0.599776,0.0181 -0.899443,0.0328 -0.27096,0.0132 -0.541853,0.0295 -0.81321,0.0316 -0.192598,0.004 -0.385209,0.009 -0.577673,0.0179 -0.139578,0.007 -0.279109,0.0146 -0.418356,0.0265 -0.138615,0.01 -0.277297,0.0138 -0.416232,0.0103 -0.06692,-6.8e-4 -0.133837,-0.001 -0.200726,-0.003 -0.143918,-0.005 -0.287912,-0.0195 -0.426667,-0.0606 -0.698733,-0.2243 -1.409769,-0.81121 -0.964335,-1.92334 0.0039,-0.01 0.0078,-0.019 0.01177,-0.0286 0.0088,-0.0212 0.01749,-0.0424 0.02649,-0.0635 0.0775,-0.1794 0.177305,-0.34639 0.313285,-0.48911 0.138915,-0.11223 0.248608,-0.21943 0.396717,-0.30176 0.01228,-0.007 0.113673,-0.0718 0.04636,-0.0236 0.08334,-0.0634 0.166664,-0.12679 0.250706,-0.18923 0.137446,-0.10108 0.278328,-0.1969 0.422696,-0.28782 0.181514,-0.12203 0.367532,-0.237 0.553585,-0.35194 0.209081,-0.13377 0.418745,-0.26667 0.625501,-0.40403 0.232317,-0.15353 0.463211,-0.30924 0.693277,-0.46613 0.234696,-0.16272 0.467016,-0.32872 0.694645,-0.50126 0.228365,-0.17058 0.454422,-0.34426 0.677233,-0.52205 0.224507,-0.17728 0.447305,-0.35663 0.666972,-0.53989 0.224348,-0.18342 0.446929,-0.36896 0.669809,-0.55415 0.240215,-0.20481 0.479573,-0.41054 0.71402,-0.62197 0.240972,-0.20696 0.481965,-0.4139 0.717082,-0.62756 0.245779,-0.22635 0.490331,-0.45403 0.732433,-0.68431 0.228084,-0.21669 0.451858,-0.43774 0.674981,-0.65953 0.195728,-0.19464 0.388384,-0.39228 0.581237,-0.58975 0.16728,-0.17521 0.333441,-0.35138 0.497723,-0.52942 0.125513,-0.1297 0.247706,-0.26251 0.373261,-0.39217 0.1172,-0.12352 0.232005,-0.2495 0.354994,-0.36735 0.116798,-0.10693 0.234926,-0.21305 0.364683,-0.30428 -0.0771,0.0599 0.289775,-0.20786 0.249788,-0.16428 0.06383,-0.0347 0.519208,-0.23873 0.271206,-0.13003 0.208082,-0.0812 0.428961,-0.1326 0.655667,-0.1158 0.04749,0.002 0.09494,0.005 0.142181,0.0107 0.248018,0.0301 0.497356,0.11987 0.698482,0.27113 0.0037,0.003 0.0075,0.005 0.01119,0.008 0.0062,0.005 0.01241,0.009 0.01863,0.0137 0.0118,0.009 0.02358,0.0174 0.03535,0.0261 0.06278,0.0467 0.124238,0.0953 0.180711,0.14961 -0.171408,-0.10288 -0.344186,-0.20352 -0.514221,-0.30866 -0.01042,-0.006 0.02318,0.008 0.03468,0.0121 0.108175,0.04 0.21227,0.0904 0.309073,0.15336 0.461352,0.32294 0.143288,0.0759 0.661731,1.29838 0.0028,0.007 -0.01619,0.15121 -0.01754,0.1524 -0.47127,0.41247 -0.962495,0.80157 -1.443741,1.20236 -0.0026,-8e-5 -0.0051,-1.7e-4 -0.0076,-2.5e-4 -0.02037,-6.9e-4 -0.04077,-0.001 -0.06115,-0.002 -0.03291,-10e-4 -0.06582,-0.002 -0.09873,-0.003 -0.07218,-0.002 -0.144381,-0.004 -0.216567,-0.006 -0.109096,-0.003 -0.218181,-0.006 -0.327266,-0.009 -0.153501,-0.005 -0.306993,-0.01 -0.460452,-0.0158 -0.1887,-0.007 -0.37737,-0.0159 -0.565935,-0.0263 -0.220975,-0.0123 -0.441881,-0.026 -0.66244,-0.0445 -0.23666,-0.0201 -0.473149,-0.0425 -0.708769,-0.0727 -0.219678,-0.0273 -0.439478,-0.0526 -0.659707,-0.0752 -0.225075,-0.0269 -0.449365,-0.0601 -0.674833,-0.0834 -0.231002,-0.0249 -0.4616,-0.054 -0.693562,-0.0688 -0.247103,-0.0194 -0.494618,-0.0301 -0.742181,-0.0422 -0.260201,-0.0121 -0.520554,-0.0144 -0.781026,-0.0157 -0.266096,-5.5e-4 -0.531815,0.01 -0.797536,0.0241 -0.27241,0.0141 -0.544753,0.0298 -0.816615,0.0523 -0.274307,0.0234 -0.548087,0.0519 -0.821793,0.0814 -0.235329,0.0209 -0.47035,0.0451 -0.704456,0.0771 -0.216853,0.0265 -0.434314,0.0481 -0.650388,0.0808 -0.203547,0.0275 -0.40757,0.0523 -0.61187,0.0733 -0.166296,0.0168 -0.331957,0.0402 -0.498745,0.0517 -0.149262,0.0118 -0.298434,0.029 -0.448361,0.0282 -1.995611,0 -1.995611,-2.82223 0,-2.82223 z"
       inkscape:connector-curvature="0" />
    <path
       style="fill:#ffffff;fill-opacity:1;fill-rule:nonzero;stroke:none;stroke-width:0.26458332"
       id="path6144"
       d="m 26.572241,280.86042 c 0.168892,0.008 0.337294,0.0219 0.506138,0.0307 0.263861,0.0121 0.527103,0.035 0.790138,0.0586 0.363524,0.03 0.726136,0.07 1.088205,0.11397 0.43584,0.0508 0.870127,0.11335 1.304213,0.17716 0.492908,0.0751 0.984449,0.15877 1.474237,0.25204 0.330031,0.0622 0.160491,0.0295 0.508572,0.0985 1.957448,0.38842 1.408141,3.15667 -0.549304,2.76825 v 0 c -0.323602,-0.0643 -0.160915,-0.0328 -0.488069,-0.0945 -0.450435,-0.0861 -0.902608,-0.16258 -1.3559,-0.23207 -0.411136,-0.0604 -0.822425,-0.11991 -1.235252,-0.16789 -0.332417,-0.0407 -0.665419,-0.0771 -0.999212,-0.10455 -0.228129,-0.0205 -0.456396,-0.041 -0.68526,-0.0512 -0.09808,-0.005 -0.196107,-0.0106 -0.294074,-0.0177 -0.04103,-0.003 -0.162658,10e-4 -0.123037,-0.01 0.01881,-0.005 0.03907,2.7e-4 0.05861,5.3e-4 -1.995613,0 -1.995613,-2.82222 0,-2.82222 z"
       inkscape:connector-curvature="0" />
    <path
       style="fill:#ffffff;fill-opacity:1;fill-rule:nonzero;stroke:none;stroke-width:0.26458332"
       id="path6146"
       d="m 23.71192,285.49439 c 0.18915,-0.0541 0.384154,-0.0819 0.579062,-0.10516 0.248789,-0.0275 0.498877,-0.0399 0.748823,-0.051 0.349026,-0.0159 0.698215,-0.0218 1.047559,-0.0196 0.457342,0.002 0.914159,0.0264 1.370321,0.0573 0.536324,0.0376 1.069875,0.10228 1.602984,0.17037 0.578895,0.0725 1.15407,0.17032 1.727292,0.27817 0.575683,0.10975 1.146705,0.24172 1.71554,0.38226 0.09657,0.0249 0.193135,0.0497 0.289703,0.0746 1.93249,0.49795 1.228283,3.2309 -0.704207,2.73295 v 0 c -0.08763,-0.0226 -0.175271,-0.0452 -0.262906,-0.0678 -0.517512,-0.12807 -1.036995,-0.24842 -1.560732,-0.34857 -0.518427,-0.0978 -1.038651,-0.18647 -1.562267,-0.2521 -0.478226,-0.0611 -0.956693,-0.12029 -1.437806,-0.15419 -0.398137,-0.0274 -0.796894,-0.0493 -1.196085,-0.0508 -0.301685,-0.002 -0.603197,0.003 -0.904615,0.0169 -0.18244,0.008 -0.365016,0.0162 -0.546756,0.0348 -0.03604,0.004 -0.110581,0.0137 -0.130586,0.0155 -1.918829,0.54824 -2.694154,-2.16539 -0.775324,-2.71363 z"
       inkscape:connector-curvature="0" />
    <path
       style="fill:#ffffff;fill-opacity:1;fill-rule:nonzero;stroke:none;stroke-width:0.26458332"
       id="path6148"
       d="m 21.565115,288.72712 c 0.160885,0.0222 0.31935,0.0586 0.477105,0.0965 0.220755,0.0497 0.441135,0.10075 0.660521,0.15626 0.347403,0.0907 0.692606,0.1895 1.03797,0.28758 0.465993,0.13785 0.928828,0.2858 1.389569,0.44022 0.530715,0.1758 1.056812,0.36477 1.58154,0.55757 0.558839,0.2084 1.113398,0.42773 1.660665,0.66485 1.830456,0.79492 0.706268,3.38358 -1.124188,2.58865 v 0 c -0.497179,-0.21651 -1.00215,-0.41404 -1.509863,-0.60446 -0.499557,-0.18357 -1.000345,-0.36369 -1.505666,-0.5309 -0.418823,-0.14062 -0.839652,-0.27495 -1.263083,-0.40107 -0.319753,-0.0908 -0.639332,-0.18237 -0.960834,-0.26684 -0.211352,-0.0538 -0.424047,-0.10157 -0.636597,-0.15031 -0.111123,-0.0282 -0.184713,-0.0433 -0.206261,-0.0442 -1.975556,-0.28223 -1.576433,-3.07608 0.399122,-2.79386 z"
       inkscape:connector-curvature="0" />
    <path
       style="fill:#ffffff;fill-opacity:1;fill-rule:nonzero;stroke:none;stroke-width:0.26458332"
       id="path6150"
       d="m 1.8946068,277.49163 c -0.138889,-0.0226 -0.2749679,-0.0587 -0.413051,-0.0852 -0.2126286,-0.0459 -0.4247997,-0.0939 -0.63593898,-0.14629 -0.28696756,-0.0659 -0.56937677,-0.14931 -0.85362805,-0.2256 -0.37573871,-0.0983 -0.74927262,-0.20467 -1.12279577,-0.311 -0.4625268,-0.1288 -0.9211535,-0.27059 -1.3799242,-0.412 -0.5149295,-0.1601 -1.0313419,-0.31533 -1.5480938,-0.46942 -0.3640383,-0.11036 -0.7312474,-0.20979 -1.0983507,-0.30932 -1.9260365,-0.52236 -1.1873177,-3.24618 0.7387188,-2.72383 v 0 c 0.3897595,0.10573 0.7795741,0.21153 1.1661208,0.32861 0.5250297,0.15657 1.0497077,0.3143 1.5728937,0.47695 0.4393105,0.1354 0.87838573,0.27148 1.32134984,0.39463 0.36050637,0.10263 0.72099426,0.20538 1.08366649,0.30016 0.26739585,0.0722 0.53320667,0.15041 0.80322207,0.21254 0.1676316,0.0422 0.3365116,0.0791 0.5051738,0.11694 0.082956,0.0168 0.1056222,0.0208 0.1826765,0.0386 0.00522,0.001 0.010314,0.003 0.01547,0.004 0.029175,0.006 0.058351,0.0118 0.087526,0.0177 0.013496,0.003 0.05413,0.01 0.04037,0.009 -0.022332,-10e-4 -0.044189,-0.007 -0.066284,-0.0106 1.9755555,0.28222 1.5764329,3.07608 -0.3991225,2.79385 z"
       inkscape:connector-curvature="0" />
    <path
       style="fill:#ffffff;fill-opacity:1;fill-rule:nonzero;stroke:none;stroke-width:0.26458332"
       id="path6152"
       d="m 0.83627351,281.54858 c -0.10914687,-0.0158 -0.21700043,-0.039 -0.32632534,-0.0537 -0.16616013,-0.0177 -0.33157268,-0.0415 -0.4976566,-0.06 -0.24837017,-0.0223 -0.49630521,-0.0489 -0.74473287,-0.0706 -0.3450982,-0.0301 -0.6904243,-0.0578 -1.0355099,-0.088 -0.4212276,-0.0364 -0.8423289,-0.0744 -1.2630837,-0.11595 -0.4672499,-0.0473 -0.9341101,-0.0988 -1.4003755,-0.15496 -1.9812511,-0.23898 -1.6432776,-3.04089 0.3379734,-2.80191 v 0 c 0.4462391,0.0539 0.8930696,0.10307 1.3402551,0.14836 0.4106518,0.0407 0.8216969,0.0775 1.2328189,0.11312 0.3446824,0.0305 0.68965654,0.0578 1.03437147,0.0879 0.27112976,0.0238 0.5417832,0.0524 0.81279552,0.0774 0.19286365,0.0218 0.38511085,0.0482 0.57794289,0.0701 0.10201472,0.0147 0.21315712,0.0227 0.31253142,0.0515 0.011438,0.003 -0.047234,-0.006 -0.035461,-0.004 0.01781,0.003 0.035719,0.005 0.053579,0.007 1.9755555,0.28222 1.5764329,3.07608 -0.39912249,2.79386 z"
       inkscape:connector-curvature="0" />
    <path
       style="fill:#ffffff;fill-opacity:1;fill-rule:nonzero;stroke:none;stroke-width:0.26458332"
       id="path6154"
       d="m 0.41525954,285.00556 c -0.10745504,-0.003 -0.13148934,10e-4 -0.22426699,0.009 -0.15692583,0.0118 -0.31393515,0.0202 -0.47060961,0.0348 -0.24451373,0.0237 -0.48969842,0.0391 -0.73497674,0.0522 -0.3109731,0.0157 -0.6222324,0.0245 -0.9334817,0.0324 -0.3806927,0.009 -0.7617491,0.003 -1.1423274,-0.008 -0.2685079,-0.01 -0.5369626,-0.0209 -0.8053041,-0.0347 -1.992949,-0.10307 -1.8471861,-2.92152 0.145763,-2.81845 v 0 c 0.2496682,0.013 0.4994738,0.0227 0.7492957,0.0323 0.3267747,0.0108 0.6540692,0.0151 0.9809562,0.008 0.2854333,-0.007 0.5708793,-0.0152 0.8560673,-0.0294 0.20755362,-0.0109 0.41503445,-0.0238 0.62192914,-0.0439 0.16897059,-0.0157 0.33817085,-0.0264 0.50744832,-0.038 0.14958835,-0.0119 0.29935888,-0.0211 0.44950688,-0.0177 1.99561246,0 1.99561246,2.82222 0,2.82222 z"
       inkscape:connector-curvature="0" />
  </g>
</svg>
