<?xml version="1.0" encoding="UTF-8" standalone="no"?>
<!-- Created with Inkscape (http://www.inkscape.org/) -->

<svg
   xmlns:dc="http://purl.org/dc/elements/1.1/"
   xmlns:cc="http://creativecommons.org/ns#"
   xmlns:rdf="http://www.w3.org/1999/02/22-rdf-syntax-ns#"
   xmlns:svg="http://www.w3.org/2000/svg"
   xmlns="http://www.w3.org/2000/svg"
   xmlns:sodipodi="http://sodipodi.sourceforge.net/DTD/sodipodi-0.dtd"
   xmlns:inkscape="http://www.inkscape.org/namespaces/inkscape"
   width="64mm"
   height="64mm"
   viewBox="0 0 64 64"
   version="1.1"
   id="svg8"
   sodipodi:docname="photoshop.svg"
   inkscape:version="0.92.5 (2060ec1f9f, 2020-04-08)">
  <defs
     id="defs2" />
  <sodipodi:namedview
     id="base"
     pagecolor="#ffffff"
     bordercolor="#666666"
     borderopacity="1.0"
     inkscape:pageopacity="0.0"
     inkscape:pageshadow="2"
     inkscape:zoom="1.5"
     inkscape:cx="-16.952426"
     inkscape:cy="54.95824"
     inkscape:document-units="mm"
     inkscape:current-layer="layer1"
     showgrid="false"
     inkscape:snap-page="true"
     inkscape:window-width="1920"
     inkscape:window-height="1016"
     inkscape:window-x="0"
     inkscape:window-y="27"
     inkscape:window-maximized="1" />
  <metadata
     id="metadata5">
    <rdf:RDF>
      <cc:Work
         rdf:about="">
        <dc:format>image/svg+xml</dc:format>
        <dc:type
           rdf:resource="http://purl.org/dc/dcmitype/StillImage" />
        <dc:title />
      </cc:Work>
    </rdf:RDF>
  </metadata>
  <g
     inkscape:label="Layer 1"
     inkscape:groupmode="layer"
     id="layer1"
     transform="translate(0,-233)">
    <rect
       style="fill:#3f51b5;stroke-width:0.26458332;fill-opacity:1"
       id="rect3713"
       width="64"
       height="64"
       x="0"
       y="233" />
    <path
       style="fill:#ffffff;fill-opacity:1;fill-rule:nonzero;stroke:none;stroke-width:0.26458332"
       id="path1019"
       d="m 12.652134,240.80775 c 0.03853,0.14871 0.0387,0.14357 0.07364,0.26506 0.04167,0.14407 0.06724,0.29189 0.09981,0.43808 0.04284,0.1857 0.07158,0.37406 0.09629,0.5629 0.02215,0.17847 0.04967,0.35617 0.07173,0.53468 0.02036,0.19948 0.04284,0.39857 0.06696,0.59762 0.02223,0.21751 0.048,0.43451 0.0744,0.65154 0.02885,0.22662 0.05641,0.45359 0.08955,0.67965 0.0355,0.24971 0.07255,0.49923 0.113931,0.74804 0.04561,0.28569 0.09672,0.57041 0.140442,0.85641 0.05098,0.30481 0.09408,0.61084 0.139972,0.91645 0.04815,0.3389 0.09161,0.67849 0.13403,1.01816 0.04431,0.36181 0.07572,0.72499 0.112427,1.08761 0.03819,0.37878 0.06691,0.75838 0.101308,1.1375 0.03785,0.40393 0.06598,0.80865 0.09055,1.21358 0.03026,0.40564 0.05922,0.81134 0.08359,1.21737 0.02524,0.42805 0.0427,0.8565 0.05812,1.285 0.01523,0.43312 0.02574,0.8664 0.03504,1.29968 0.0092,0.44411 0.01554,0.88827 0.02114,1.33244 -2.53e-4,0.46011 -0.0094,0.92017 -0.01608,1.38022 -0.0022,0.46071 -0.01946,0.9211 -0.03468,1.3815 -0.01133,0.46067 -0.0296,0.92102 -0.05023,1.38135 -0.01988,0.45784 -0.03584,0.91577 -0.05951,1.37343 -0.02449,0.44457 -0.04397,0.88937 -0.0609,1.33429 -0.02303,0.4571 -0.04787,0.91409 -0.06837,1.37132 -0.026,0.45437 -0.05341,0.90864 -0.07616,1.36319 -0.0281,0.44924 -0.05694,0.89841 -0.08091,1.3479 -0.0294,0.44595 -0.05907,0.89187 -0.08378,1.33812 -0.02336,0.42678 -0.04018,0.85387 -0.05541,1.281 -0.01426,0.41351 -0.02466,0.82713 -0.03402,1.24078 -0.0087,0.39168 -0.01508,0.78341 -0.02077,1.17515 -0.01112,0.38883 -0.02838,0.77745 -0.04224,1.16619 -0.01259,0.35084 -0.02199,0.70179 -0.03045,1.05276 -0.0069,0.3438 -0.01265,0.68751 -0.02783,1.03105 -0.0152,0.31336 -0.02913,0.62678 -0.0409,0.94028 -0.01001,0.3121 -0.03349,0.62356 -0.05207,0.93522 -0.01625,0.29313 -0.02898,0.58633 -0.0506,0.87914 -0.0208,0.26351 -0.03815,0.52728 -0.05376,0.79115 -0.0106,0.26432 -0.03449,0.52774 -0.05594,0.79132 -0.01824,0.22288 -0.03292,0.44603 -0.04603,0.66927 -0.0081,0.22383 -0.03095,0.4466 -0.05246,0.66942 -0.01615,0.16364 -0.02992,0.32751 -0.04272,0.49145 -0.0099,0.12737 -0.01833,0.25484 -0.02612,0.38235 -0.0057,0.0941 -0.01115,0.18822 -0.01665,0.28233 -0.0037,0.0627 -0.0071,0.12548 -0.01157,0.18815 0.0066,1.04649 -2.720887,1.03158 -2.823542,0.009 -0.174764,-1.98794 2.636615,-2.2351 2.811379,-0.24715 v 0 c -0.119253,-0.96492 -2.71783,-0.93096 -2.80344,0.044 -3.17e-4,0.004 5.56e-4,-0.007 8.2e-4,-0.0106 0.0037,-0.0492 0.0058,-0.0985 0.0089,-0.14777 0.0056,-0.0968 0.01129,-0.1935 0.01712,-0.29023 0.0088,-0.14347 0.01829,-0.28689 0.02945,-0.43019 0.01419,-0.18093 0.02935,-0.36179 0.04717,-0.54241 0.01813,-0.18777 0.03856,-0.37531 0.04427,-0.56401 0.01439,-0.24433 0.03049,-0.48855 0.05047,-0.7325 0.01977,-0.24289 0.04234,-0.48558 0.05157,-0.72919 0.01647,-0.27786 0.0347,-0.55561 0.05655,-0.83311 0.02083,-0.27919 0.03159,-0.55889 0.04787,-0.83838 0.01737,-0.29099 0.03949,-0.5818 0.04905,-0.87318 0.01204,-0.31996 0.02615,-0.63984 0.04169,-0.95966 0.01452,-0.32443 0.01886,-0.64906 0.02587,-0.97373 0.0087,-0.36182 0.01844,-0.72363 0.03142,-1.08533 0.01317,-0.36887 0.02908,-0.73764 0.04074,-1.10656 0.0058,-0.39938 0.01231,-0.79874 0.0212,-1.19806 0.0096,-0.42589 0.02038,-0.85176 0.03509,-1.2775 0.01591,-0.44566 0.03353,-0.89127 0.05794,-1.33656 0.02465,-0.44434 0.0537,-0.88839 0.08347,-1.33241 0.02386,-0.44638 0.052,-0.89249 0.08043,-1.3386 0.02254,-0.44964 0.04919,-0.89904 0.07546,-1.34848 0.02024,-0.45089 0.04431,-0.90156 0.06758,-1.3523 0.01745,-0.45773 0.03747,-0.91535 0.06263,-1.37273 0.02337,-0.45115 0.03876,-0.90259 0.05857,-1.3539 0.02014,-0.4493 0.03798,-0.89861 0.04894,-1.34825 0.01465,-0.44301 0.03157,-0.88598 0.03344,-1.32929 0.0063,-0.43453 0.01469,-0.86905 0.01601,-1.30362 -0.0055,-0.43583 -0.01165,-0.87166 -0.02071,-1.30743 -0.009,-0.41967 -0.01914,-0.83932 -0.03387,-1.25883 -0.01458,-0.40602 -0.03104,-0.812 -0.05489,-1.2176 -0.02426,-0.40542 -0.05377,-0.81046 -0.08347,-1.21551 -0.02279,-0.37681 -0.04889,-0.75342 -0.08418,-1.12929 -0.0335,-0.36935 -0.06162,-0.73916 -0.0985,-1.1082 -0.03451,-0.3409 -0.06407,-0.68231 -0.105072,-1.02251 -0.03943,-0.31641 -0.08002,-0.63271 -0.12445,-0.94845 -0.04559,-0.30364 -0.08845,-0.6077 -0.139081,-0.91056 -0.0416,-0.27436 -0.09162,-0.54731 -0.134886,-0.82141 -0.04406,-0.2681 -0.08488,-0.53673 -0.122851,-0.80575 -0.03512,-0.24677 -0.06683,-0.49409 -0.09774,-0.7414 -0.02639,-0.21734 -0.05249,-0.43464 -0.07451,-0.65247 -0.02393,-0.19744 -0.0467,-0.39494 -0.06638,-0.59285 -0.02106,-0.17251 -0.04859,-0.3441 -0.06945,-0.51663 -0.01332,-0.10462 -0.02791,-0.20913 -0.05219,-0.3119 -0.0205,-0.0921 -0.03849,-0.18467 -0.05886,-0.27674 -0.024733,-0.0881 -0.05066,-0.17587 -0.073474,-0.26447 -0.5482368,-1.91883 2.165398,-2.69415 2.713635,-0.77532 z"
       inkscape:connector-curvature="0" />
    <path
       style="fill:#ffffff;fill-opacity:1;fill-rule:nonzero;stroke:none;stroke-width:0.26458332"
       id="path1021"
       d="m 11.188309,240.07425 c 0.05246,-0.013 0.08017,-0.0258 0.218438,-0.0683 0.100534,-0.0426 0.213739,-0.0593 0.31229,-0.10637 0.147494,-0.0541 0.296418,-0.10441 0.445903,-0.15272 0.152904,-0.0519 0.305841,-0.10382 0.459968,-0.152 0.201715,-0.0605 0.404037,-0.11783 0.609049,-0.16612 0.213505,-0.0571 0.429899,-0.1016 0.647344,-0.14063 0.228692,-0.0355 0.45773,-0.0688 0.686716,-0.10244 0.2799,-0.0363 0.562046,-0.0498 0.843764,-0.0633 0.27825,-0.0164 0.556719,-0.0178 0.835309,-0.0137 0.28651,0.005 0.572869,0.0221 0.858506,0.0446 0.273905,0.0215 0.546977,0.0509 0.819976,0.0815 0.280051,0.0335 0.558536,0.0779 0.837443,0.11946 0.280704,0.0445 0.56041,0.0948 0.840714,0.14164 0.297433,0.0536 0.5943,0.11039 0.890677,0.16953 0.308969,0.0601 0.61655,0.12717 0.922976,0.19903 0.306446,0.0711 0.611865,0.14662 0.916589,0.2248 0.310752,0.0764 0.617286,0.16841 0.924976,0.25599 0.32473,0.0953 0.647703,0.19636 0.966969,0.30868 0.303247,0.10503 0.604667,0.21534 0.904403,0.33 0.305667,0.12224 0.609349,0.2494 0.910431,0.38253 0.286063,0.12026 0.565628,0.25484 0.84711,0.3852 0.296032,0.13525 0.584896,0.28507 0.871136,0.43974 0.270412,0.14152 0.536453,0.29114 0.799179,0.4464 0.265723,0.1607 0.526015,0.33016 0.782698,0.50488 0.265711,0.17825 0.516969,0.3759 0.762656,0.58049 0.235091,0.1933 0.456073,0.40259 0.676064,0.61264 0.22671,0.21747 0.437848,0.45002 0.644562,0.68632 0.202885,0.23157 0.392398,0.47473 0.575802,0.72191 0.176159,0.2373 0.340016,0.48345 0.4987,0.73267 0.149566,0.23971 0.29042,0.48454 0.426886,0.73187 0.132057,0.24095 0.251537,0.48824 0.365758,0.73802 0.116602,0.24744 0.208073,0.50497 0.296449,0.76343 0.09524,0.26892 0.16818,0.54446 0.226272,0.82351 0.05063,0.2764 0.08272,0.55573 0.103061,0.83584 0.01773,0.27023 0.01474,0.54081 0.0061,0.81126 -0.01064,0.28582 -0.04871,0.56922 -0.09353,0.85135 -0.04824,0.28132 -0.111569,0.55962 -0.18791,0.83455 -0.07055,0.27054 -0.169611,0.53202 -0.270417,0.79237 -0.103883,0.26522 -0.231243,0.5203 -0.357293,0.77546 -0.131178,0.26139 -0.277016,0.51498 -0.429776,0.76425 -0.150149,0.24466 -0.318955,0.47685 -0.486754,0.70947 -0.166841,0.23697 -0.347102,0.4636 -0.53358,0.68527 -0.167661,0.19519 -0.337878,0.38819 -0.508627,0.58068 -0.171752,0.19532 -0.352936,0.38171 -0.537366,0.56498 -0.189704,0.18474 -0.387747,0.36044 -0.590923,0.53014 -0.204902,0.16613 -0.417132,0.32256 -0.63209,0.47531 -0.234974,0.16526 -0.478628,0.31732 -0.727668,0.4603 -0.252105,0.14458 -0.510505,0.27791 -0.771416,0.40579 -0.276064,0.13772 -0.556982,0.26534 -0.840298,0.38733 -0.29382,0.12885 -0.58994,0.25239 -0.887994,0.3711 -0.321285,0.12669 -0.64596,0.24463 -0.970914,0.36152 -0.335719,0.12036 -0.67306,0.23598 -1.013912,0.34096 -0.340298,0.10502 -0.681591,0.20629 -1.026492,0.29512 -0.326956,0.0882 -0.657386,0.16268 -0.987665,0.23723 -0.32876,0.0769 -0.662173,0.13 -0.994702,0.18711 -0.32251,0.058 -0.646905,0.10428 -0.972039,0.14466 -0.321974,0.0397 -0.645243,0.0672 -0.968658,0.0918 -0.298056,0.0286 -0.596171,0.0562 -0.894646,0.0801 -0.291472,0.0181 -0.582083,0.0466 -0.872947,0.0722 -0.276101,0.0205 -0.551773,0.0444 -0.827259,0.0718 -0.269355,0.0269 -0.539153,0.0489 -0.809105,0.0687 -0.229401,0.0166 -0.458984,0.0304 -0.688662,0.0426 -0.192107,0.0101 -0.384307,0.0184 -0.576539,0.0257 -0.157505,0.006 -0.315053,0.0108 -0.472604,0.0154 -0.104453,0.005 -0.209243,0.003 -0.313681,0.008 -0.01056,5.3e-4 0.02114,-7e-5 0.03172,-10e-5 -0.02571,0.004 -0.152381,0.0219 -0.01659,0.002 -1.952799,0.41115 -2.534258,-2.35052 -0.581459,-2.76168 v 0 c 0.120177,-0.0221 0.240193,-0.0434 0.36217,-0.0531 0.144811,-0.009 0.289639,-0.0138 0.434736,-0.0167 0.149457,-0.004 0.298911,-0.009 0.448324,-0.0146 0.178515,-0.007 0.356999,-0.0144 0.535398,-0.0238 0.210263,-0.0111 0.420436,-0.0237 0.630446,-0.0389 0.245511,-0.018 0.490882,-0.038 0.73585,-0.0624 0.286231,-0.0285 0.572662,-0.0537 0.859533,-0.0749 0.298618,-0.0263 0.597003,-0.0554 0.89623,-0.0742 0.302084,-0.0241 0.603697,-0.053 0.90544,-0.0809 0.279074,-0.0211 0.55805,-0.0445 0.835896,-0.0785 0.281503,-0.0346 0.562282,-0.075 0.841443,-0.12539 0.284349,-0.0487 0.569652,-0.093 0.850804,-0.15857 0.303645,-0.0684 0.607454,-0.13664 0.907949,-0.21803 0.302558,-0.077 0.601058,-0.16819 0.899591,-0.25942 0.29821,-0.0909 0.59246,-0.19395 0.886163,-0.29842 0.295879,-0.10643 0.59161,-0.21352 0.884209,-0.32871 0.27462,-0.10874 0.546784,-0.22359 0.817394,-0.34194 0.241922,-0.10321 0.48087,-0.21333 0.716322,-0.33057 0.207571,-0.10028 0.411845,-0.20765 0.612143,-0.32176 0.168267,-0.094 0.33002,-0.19897 0.488873,-0.30807 0.156594,-0.11124 0.311666,-0.22434 0.461796,-0.34428 0.1402,-0.11586 0.275518,-0.23728 0.407032,-0.36292 0.14292,-0.14188 0.283853,-0.28558 0.416515,-0.43723 0.154649,-0.17364 0.307803,-0.34866 0.459986,-0.52446 0.14124,-0.16731 0.277609,-0.33836 0.403061,-0.51798 0.127212,-0.17633 0.256638,-0.35132 0.37128,-0.53628 0.108227,-0.17526 0.210891,-0.35397 0.304392,-0.53758 0.08898,-0.1796 0.179864,-0.35875 0.255611,-0.54443 0.0689,-0.17738 0.139486,-0.35454 0.185889,-0.53952 0.04932,-0.16785 0.08363,-0.33956 0.116734,-0.51124 0.02646,-0.16535 0.05194,-0.33096 0.05985,-0.49848 0.0058,-0.1777 0.01024,-0.35527 -0.0013,-0.53291 -0.0078,-0.15943 -0.03236,-0.31773 -0.05566,-0.47548 -0.0235,-0.15683 -0.08144,-0.30725 -0.128138,-0.45804 -0.05808,-0.16991 -0.114781,-0.34045 -0.192585,-0.50275 -0.08477,-0.18539 -0.172315,-0.36941 -0.270242,-0.54835 -0.10831,-0.19634 -0.219549,-0.39094 -0.33777,-0.58154 -0.122693,-0.1936 -0.249772,-0.38462 -0.386279,-0.5688 -0.136615,-0.18594 -0.27931,-0.36793 -0.430948,-0.54185 -0.150873,-0.17269 -0.303805,-0.34368 -0.469056,-0.50293 -0.174175,-0.16638 -0.348056,-0.33336 -0.534453,-0.48622 -0.175437,-0.1466 -0.354052,-0.28906 -0.544607,-0.41586 -0.206939,-0.14131 -0.417132,-0.27783 -0.631016,-0.40841 -0.23091,-0.13706 -0.465598,-0.26763 -0.703468,-0.39223 -0.235501,-0.12739 -0.472891,-0.2513 -0.716689,-0.36225 -0.266223,-0.12368 -0.530847,-0.25086 -0.801595,-0.36458 -0.257181,-0.11394 -0.516795,-0.22222 -0.777547,-0.32773 -0.276836,-0.10616 -0.555476,-0.20763 -0.835635,-0.30468 -0.263717,-0.0939 -0.531508,-0.17532 -0.799698,-0.25534 -0.284015,-0.081 -0.566935,-0.16618 -0.853806,-0.23672 -0.286319,-0.0736 -0.573401,-0.14432 -0.861376,-0.2112 -0.275316,-0.0652 -0.552053,-0.12448 -0.829727,-0.17874 -0.267225,-0.0536 -0.535069,-0.10428 -0.803147,-0.15345 -0.263757,-0.0443 -0.527023,-0.0913 -0.791074,-0.13378 -0.24509,-0.0366 -0.48977,-0.0758 -0.735755,-0.10617 -0.244185,-0.0274 -0.488351,-0.0542 -0.733379,-0.0731 -0.223687,-0.019 -0.448328,-0.0307 -0.672738,-0.0357 -0.219821,-0.003 -0.439412,-0.003 -0.658964,0.0109 -0.189568,0.009 -0.379289,0.0178 -0.568191,0.0366 -0.200558,0.0293 -0.400997,0.0594 -0.601569,0.0886 -0.168769,0.0297 -0.33594,0.0663 -0.501516,0.11068 -0.141198,0.0322 -0.279524,0.0742 -0.418536,0.11464 -0.144385,0.0428 -0.285579,0.0961 -0.428907,0.14223 -0.111938,0.0354 -0.222979,0.0738 -0.333269,0.11395 -0.129095,0.0462 -0.259059,0.09 -0.389136,0.13339 -0.113305,0.0366 -0.227082,0.0718 -0.340963,0.10639 -1.918829,0.54824 -2.694153,-2.1654 -0.775324,-2.71363 z"
       inkscape:connector-curvature="0" />
    <path
       style="fill:#ffffff;fill-opacity:1;fill-rule:nonzero;stroke:none;stroke-width:0.26458332"
       id="path1033"
       d="m 52.082472,268.30652 c -0.07902,-0.12612 -0.12881,-0.21787 -0.193069,-0.33329 -0.05369,-0.10268 -0.106125,-0.2036 -0.154205,-0.29241 -0.051,-0.10158 -0.106624,-0.20072 -0.160467,-0.30094 -0.05474,-0.10675 -0.115234,-0.20977 -0.172035,-0.31541 -0.05938,-0.11082 -0.122406,-0.2196 -0.182951,-0.32978 -0.07204,-0.1201 -0.142399,-0.24126 -0.211241,-0.36324 -0.07457,-0.13561 -0.154223,-0.26827 -0.231293,-0.40246 -0.09067,-0.15626 -0.178628,-0.3141 -0.264689,-0.47294 -0.07091,-0.13338 -0.149638,-0.26227 -0.227987,-0.39134 -0.07956,-0.1366 -0.163594,-0.27053 -0.250338,-0.40267 -0.06452,-0.0982 -0.137154,-0.19052 -0.212979,-0.28012 -0.0788,-0.0884 -0.157231,-0.17796 -0.244848,-0.25788 -0.07795,-0.0765 -0.166359,-0.14017 -0.254947,-0.20345 -0.08144,-0.056 -0.16873,-0.10248 -0.258416,-0.14365 -0.112943,-0.0578 -0.229402,-0.10679 -0.350298,-0.14485 -0.153678,-0.0433 -0.30675,-0.0887 -0.461438,-0.12834 -0.117359,-0.0324 -0.237133,-0.0464 -0.357812,-0.0579 -0.15339,-0.0141 -0.306843,-0.0235 -0.460841,-0.0234 -0.163314,-7.9e-4 -0.326705,0.007 -0.489191,0.0233 -0.192018,0.0187 -0.383579,0.043 -0.574026,0.0739 -0.201269,0.0308 -0.400691,0.0725 -0.598784,0.11941 -0.213387,0.0498 -0.424791,0.10784 -0.635159,0.16911 -0.210076,0.0573 -0.415787,0.12835 -0.621268,0.19996 -0.190331,0.0666 -0.377105,0.14216 -0.562007,0.22242 -0.16288,0.0755 -0.32354,0.15582 -0.479972,0.24397 -0.150847,0.0875 -0.296535,0.18343 -0.439285,0.2835 -0.154049,0.10915 -0.301689,0.22689 -0.447927,0.34618 -0.151971,0.12078 -0.292801,0.25435 -0.433739,0.38758 -0.163936,0.15569 -0.326239,0.3131 -0.488339,0.4707 -0.145428,0.14436 -0.282549,0.29652 -0.419716,0.44863 -0.140621,0.15929 -0.274551,0.32416 -0.408898,0.48871 -0.120817,0.14897 -0.232847,0.30456 -0.343697,0.46098 -0.08234,0.11755 -0.156511,0.23998 -0.219897,0.36869 -0.07132,0.13392 -0.132199,0.27267 -0.184037,0.41514 -0.03586,0.10032 -0.06586,0.20216 -0.08266,0.30722 -0.01066,0.0906 -0.03044,0.18471 -0.02151,0.27643 -0.0013,0.0947 0.01143,0.18773 0.02715,0.28072 0.0149,0.0623 0.04125,0.11996 0.06481,0.17936 0.03016,0.0696 0.07417,0.13273 0.115467,0.19619 0.05029,0.077 0.112561,0.14511 0.175104,0.21222 0.08032,0.0755 0.165803,0.14555 0.253499,0.21234 0.123833,0.0993 0.257276,0.18489 0.391772,0.26866 0.169973,0.10996 0.348668,0.20544 0.52537,0.30394 0.185364,0.10444 0.377422,0.19594 0.568555,0.28911 0.217008,0.10924 0.439354,0.20721 0.659654,0.30948 0.229325,0.10267 0.459591,0.20325 0.690284,0.30282 0.252259,0.1115 0.503791,0.2246 0.755161,0.33808 0.24553,0.10973 0.491109,0.21936 0.735679,0.33123 0.2462,0.11214 0.490159,0.22899 0.734378,0.34535 0.240966,0.11518 0.477358,0.23938 0.714848,0.36146 0.235866,0.11938 0.466908,0.24745 0.697111,0.37729 0.214733,0.12202 0.425648,0.25053 0.637484,0.37745 0.210691,0.12773 0.418204,0.26075 0.624221,0.39587 0.197673,0.12496 0.391803,0.25534 0.582991,0.38999 0.19067,0.12752 0.373182,0.2666 0.553845,0.40778 0.191685,0.15258 0.37362,0.31684 0.54811,0.48868 0.172099,0.16954 0.329721,0.35228 0.477153,0.54342 0.139446,0.19306 0.264578,0.39605 0.378518,0.60505 0.114146,0.21367 0.197739,0.44118 0.272978,0.67085 0.07737,0.23073 0.121508,0.46949 0.151368,0.71043 0.02721,0.20663 0.03448,0.41458 0.03295,0.62275 -7.94e-4,0.21518 -0.0235,0.4294 -0.05577,0.64188 -0.02566,0.19549 -0.07768,0.3856 -0.128008,0.57574 -0.05501,0.19918 -0.126487,0.393 -0.204187,0.58427 -0.07765,0.18797 -0.164348,0.37169 -0.259569,0.55134 -0.09215,0.16955 -0.192493,0.33424 -0.296831,0.49649 -0.115692,0.17735 -0.244372,0.34613 -0.375817,0.51202 -0.112252,0.15123 -0.241289,0.28844 -0.364178,0.43075 -0.15128,0.17436 -0.317034,0.33514 -0.487008,0.49102 -0.145743,0.1316 -0.290748,0.26395 -0.439764,0.39188 -0.175312,0.15065 -0.360817,0.28874 -0.549539,0.42198 -0.186971,0.12905 -0.379693,0.24931 -0.572701,0.36901 -0.223938,0.13602 -0.456311,0.25679 -0.692317,0.37025 -0.221999,0.10938 -0.449437,0.20677 -0.677995,0.30141 -0.24811,0.10019 -0.501626,0.18593 -0.755105,0.27129 -0.262136,0.0871 -0.528261,0.16196 -0.795258,0.23254 -0.271679,0.0708 -0.547902,0.12165 -0.823142,0.17619 -0.288282,0.0571 -0.579112,0.0993 -0.870501,0.13664 -0.307012,0.0399 -0.616786,0.0506 -0.925875,0.0619 -0.309131,0.0142 -0.618606,0.0111 -0.927698,-0.002 -0.307165,-0.0139 -0.613746,-0.0355 -0.91948,-0.0682 -0.305268,-0.0316 -0.608748,-0.0767 -0.911584,-0.12594 -0.321705,-0.0519 -0.639451,-0.12374 -0.955943,-0.20065 -0.320786,-0.0795 -0.636592,-0.1759 -0.951026,-0.27717 -0.310766,-0.10095 -0.616651,-0.21638 -0.920385,-0.33665 -0.301461,-0.12155 -0.594164,-0.26331 -0.885854,-0.40634 -0.278328,-0.13748 -0.546719,-0.29386 -0.812043,-0.45468 -0.208447,-0.13122 -0.416142,-0.26357 -0.623705,-0.39616 -0.09853,-0.0608 -0.191762,-0.13041 -0.294008,-0.18501 -1.732031,-0.99124 -0.330218,-3.4407 1.401813,-2.44947 v 0 c 0.139941,0.0815 0.277646,0.16625 0.41216,0.25653 0.190124,0.12159 0.380624,0.24255 0.571214,0.36342 0.191995,0.11767 0.387094,0.23088 0.588373,0.33201 0.22502,0.11065 0.450596,0.22085 0.682585,0.3163 0.245906,0.0977 0.493609,0.19147 0.745159,0.27375 0.2495,0.0804 0.499555,0.1584 0.754118,0.22155 0.245306,0.06 0.49143,0.11662 0.740876,0.157 0.254111,0.0414 0.508632,0.0799 0.764863,0.10599 0.244329,0.0277 0.489736,0.0416 0.73525,0.0541 0.234125,0.0113 0.46871,0.0108 0.702879,7.9e-4 0.223735,-0.008 0.448236,-0.0136 0.670608,-0.041 0.227576,-0.029 0.454776,-0.0613 0.679945,-0.10564 0.21844,-0.0432 0.4378,-0.0829 0.653846,-0.1372 0.205594,-0.0536 0.410258,-0.11173 0.612217,-0.17774 0.193066,-0.065 0.386402,-0.12949 0.576016,-0.20415 0.181999,-0.0754 0.363501,-0.15197 0.539925,-0.23986 0.14402,-0.0683 0.285445,-0.14151 0.422666,-0.22272 0.147714,-0.0916 0.295566,-0.183 0.439232,-0.28091 0.116764,-0.0808 0.230421,-0.16644 0.338567,-0.25855 0.127619,-0.10751 0.248523,-0.22265 0.373311,-0.33336 0.09029,-0.0802 0.176331,-0.16535 0.25659,-0.25559 0.09877,-0.11298 0.201917,-0.22217 0.291042,-0.34322 0.07274,-0.0871 0.139268,-0.18 0.203927,-0.2731 0.06432,-0.10001 0.127207,-0.20075 0.184211,-0.30524 0.0504,-0.0897 0.08983,-0.18484 0.131458,-0.27883 0.03282,-0.0807 0.06517,-0.16137 0.09069,-0.24476 0.02487,-0.0937 0.05505,-0.18616 0.06675,-0.28273 0.01246,-0.0783 0.02339,-0.15712 0.02289,-0.23661 0.0011,-0.0867 0.0011,-0.17176 -0.01254,-0.25818 -0.0084,-0.0728 -0.0063,-0.0967 -0.03456,-0.18042 -0.02196,-0.0697 -0.0446,-0.13962 -0.07499,-0.20622 -0.04063,-0.0812 -0.09384,-0.15478 -0.13961,-0.23301 -0.06402,-0.0911 -0.144004,-0.16964 -0.220612,-0.24994 -0.0936,-0.0964 -0.196826,-0.18311 -0.299958,-0.26902 -0.141922,-0.11255 -0.287279,-0.22076 -0.437909,-0.32143 -0.165185,-0.11695 -0.334105,-0.22843 -0.504992,-0.33687 -0.173649,-0.11427 -0.348903,-0.22627 -0.52641,-0.33445 -0.190285,-0.11422 -0.379859,-0.22965 -0.572603,-0.33971 -0.198398,-0.11195 -0.397142,-0.22299 -0.600739,-0.32536 -0.212336,-0.10916 -0.423468,-0.22063 -0.638828,-0.32381 -0.231093,-0.11018 -0.461913,-0.22087 -0.694944,-0.32693 -0.240025,-0.11002 -0.481309,-0.21725 -0.722297,-0.32513 -0.237318,-0.10719 -0.474843,-0.2139 -0.712909,-0.31942 -0.254252,-0.10992 -0.508209,-0.22054 -0.760717,-0.3344 -0.235971,-0.10988 -0.474337,-0.21473 -0.70684,-0.33195 -0.237686,-0.11592 -0.47585,-0.2311 -0.706334,-0.36104 -0.21681,-0.12097 -0.435237,-0.23954 -0.644125,-0.37403 -0.215554,-0.13455 -0.427594,-0.27491 -0.627137,-0.43261 -0.210799,-0.16461 -0.417354,-0.3359 -0.600734,-0.53126 -0.172445,-0.18832 -0.336976,-0.38451 -0.474583,-0.60023 -0.138708,-0.21764 -0.270862,-0.44061 -0.364424,-0.68207 -0.09781,-0.24784 -0.18224,-0.5011 -0.226094,-0.76476 -0.03847,-0.24127 -0.06457,-0.48431 -0.06368,-0.729 0.0024,-0.26129 0.01786,-0.52258 0.066,-0.77995 0.05007,-0.26937 0.119039,-0.53435 0.215006,-0.79132 0.09053,-0.24114 0.191228,-0.47828 0.311383,-0.70637 0.128794,-0.2516 0.271431,-0.49556 0.435412,-0.72612 0.147925,-0.20868 0.298698,-0.41536 0.460115,-0.61392 0.163563,-0.20032 0.327242,-0.40056 0.49915,-0.59386 0.178535,-0.19796 0.358108,-0.39506 0.548238,-0.58207 0.171751,-0.16698 0.343738,-0.33373 0.517485,-0.49864 0.191212,-0.18057 0.3839,-0.35983 0.589439,-0.52422 0.200604,-0.16324 0.403603,-0.32374 0.615312,-0.47248 0.220311,-0.15329 0.444926,-0.30058 0.678416,-0.43319 0.240543,-0.13362 0.485912,-0.25853 0.737163,-0.37089 0.247589,-0.10653 0.497377,-0.20773 0.751986,-0.29643 0.252502,-0.088 0.505743,-0.17401 0.763577,-0.24537 0.257759,-0.0746 0.516641,-0.14564 0.778017,-0.20654 0.265587,-0.0618 0.532596,-0.11804 0.802244,-0.15925 0.250084,-0.0389 0.500983,-0.0729 0.753035,-0.0963 0.251691,-0.0224 0.504114,-0.0378 0.756939,-0.0354 0.24497,10e-4 0.489434,0.0135 0.733314,0.0372 0.264321,0.0268 0.527082,0.0658 0.784357,0.13374 0.21276,0.0552 0.424133,0.11583 0.634646,0.17903 0.234709,0.0781 0.465084,0.16792 0.686236,0.27934 0.238302,0.11514 0.471101,0.24207 0.686692,0.39642 0.194881,0.13979 0.384458,0.28702 0.557453,0.45363 0.162007,0.15604 0.317558,0.31874 0.463053,0.49039 0.145454,0.1746 0.285152,0.3543 0.409471,0.54475 0.104834,0.16007 0.20682,0.32203 0.303594,0.48712 0.102447,0.16921 0.204785,0.33855 0.297775,0.51322 0.07451,0.13873 0.15204,0.27586 0.230892,0.41216 0.08027,0.14111 0.164414,0.28001 0.242559,0.42233 0.07332,0.13184 0.152265,0.26043 0.226912,0.39152 0.06554,0.12121 0.136393,0.2395 0.200133,0.36171 0.05148,0.10477 0.11761,0.20217 0.167923,0.30768 0.05077,0.0965 0.10526,0.19113 0.153879,0.28867 0.04686,0.087 0.09381,0.17468 0.13783,0.26254 0.02305,0.0415 0.128725,0.22502 0.07477,0.13936 1.106967,1.66045 -1.241263,3.22594 -2.34823,1.56549 z"
       inkscape:connector-curvature="0" />
  </g>
</svg>
