<?xml version="1.0" encoding="UTF-8" standalone="no"?>
<svg
   xmlns:dc="http://purl.org/dc/elements/1.1/"
   xmlns:cc="http://creativecommons.org/ns#"
   xmlns:rdf="http://www.w3.org/1999/02/22-rdf-syntax-ns#"
   xmlns:svg="http://www.w3.org/2000/svg"
   xmlns="http://www.w3.org/2000/svg"
   xmlns:sodipodi="http://sodipodi.sourceforge.net/DTD/sodipodi-0.dtd"
   xmlns:inkscape="http://www.inkscape.org/namespaces/inkscape"
   inkscape:version="1.0 (1.0+r73+1)"
   sodipodi:docname="photos.svg"
   id="svg8"
   version="1.1"
   viewBox="0 0 64 64"
   height="64mm"
   width="64mm">
  <defs
     id="defs2" />
  <sodipodi:namedview
     inkscape:document-rotation="0"
     inkscape:window-maximized="1"
     inkscape:window-y="27"
     inkscape:window-x="0"
     inkscape:window-height="1016"
     inkscape:window-width="1920"
     inkscape:snap-page="true"
     showgrid="false"
     inkscape:current-layer="layer1"
     inkscape:document-units="mm"
     inkscape:cy="129.30506"
     inkscape:cx="103.96535"
     inkscape:zoom="3"
     inkscape:pageshadow="2"
     inkscape:pageopacity="0.0"
     borderopacity="1.0"
     bordercolor="#666666"
     pagecolor="#ffffff"
     id="base" />
  <metadata
     id="metadata5">
    <rdf:RDF>
      <cc:Work
         rdf:about="">
        <dc:format>image/svg+xml</dc:format>
        <dc:type
           rdf:resource="http://purl.org/dc/dcmitype/StillImage" />
        <dc:title></dc:title>
      </cc:Work>
    </rdf:RDF>
  </metadata>
  <g
     transform="translate(0,-233)"
     id="layer1"
     inkscape:groupmode="layer"
     inkscape:label="Layer 1">
    <rect
       y="233"
       x="0"
       height="64"
       width="64"
       id="rect3713"
       style="fill:#673ab7;stroke-width:0.26458332;fill-opacity:1" />
    <path
       d="m -3.9324142,265.32566 c 1.0783422,0.0452 2.127886,-0.24427 3.15620587,-0.53077 2.07182553,-0.61241 4.04922003,-1.48581 5.99513943,-2.41425 2.1733364,-1.06605 4.2730107,-2.28705 6.2297469,-3.71504 0.447023,-0.32623 0.879857,-0.67147 1.319785,-1.00721 2.362492,-1.89178 4.475024,-4.07856 6.350452,-6.45147 0.393684,-0.49812 0.766088,-1.01269 1.149132,-1.51903 1.738999,-2.41691 3.262036,-4.99218 4.497548,-7.7027 0.233023,-0.51121 0.44449,-1.03198 0.666734,-1.54797 0.790654,-1.92201 1.404829,-3.91083 1.887728,-5.93096 0.227367,-0.95114 0.287311,-1.30061 0.468649,-2.22308 0.08158,-0.49974 0.177805,-1.00678 0.21464,-1.51339 0.01371,-0.18846 0.0083,-0.37781 0.01238,-0.56672 0.01677,-1.99554 -2.805357,-2.01925 -2.822123,-0.0237 v 0 c 0.01022,0.52646 -0.08168,1.04322 -0.174358,1.56063 -0.505892,2.58561 -1.163556,5.14505 -2.179763,7.58273 -0.205838,0.47994 -0.401537,0.96434 -0.617512,1.4398 -1.154582,2.54175 -2.579345,4.9568 -4.205803,7.2242 -0.358341,0.47504 -0.706729,0.95776 -1.075024,1.42513 -1.738778,2.20653 -3.695627,4.243 -5.886684,6.00441 -0.406666,0.31145 -0.806723,0.63171 -1.2199978,0.93433 -1.8304888,1.34038 -3.7968914,2.48401 -5.8318415,3.48338 -1.7992177,0.86025 -3.62655605,1.67188 -5.5413153,2.24366 -0.7250451,0.20518 -1.4636903,0.43204 -2.2246849,0.43087 -1.9920296,-0.11952 -2.1610663,2.69763 -0.1690367,2.81716 z"
       id="path961"
       style="fill:#fffffa;fill-opacity:1;fill-rule:nonzero;stroke:none;stroke-width:0.264583" />
    <path
       d="m -1.6342358,260.05421 c 0.81367897,0.22102 1.6460202,0.22723 2.48176143,0.19033 1.10391707,-0.0964 2.18707427,-0.36374 3.21652567,-0.77226 0.2204934,-0.0875 0.4358335,-0.18746 0.6537502,-0.28119 1.3909156,-0.62722 2.5751004,-1.58973 3.7399941,-2.55596 1.4254697,-1.16724 2.7486284,-2.44723 4.0308584,-3.76789 1.544791,-1.58493 2.886796,-3.34412 4.175143,-5.13861 1.144212,-1.64554 2.279499,-3.30112 3.285768,-5.03596 0.205377,-0.35408 0.400364,-0.71408 0.600546,-1.07112 0.724307,-1.35559 1.377287,-2.75383 1.857441,-4.21603 0.293656,-0.89426 0.348396,-1.19145 0.571636,-2.10051 0.362495,-1.62601 0.523831,-3.2843 0.633392,-4.94332 0.03834,-0.49878 0.01804,-0.27201 0.05808,-0.68054 0.192587,-1.9863 -2.616462,-2.25866 -2.809049,-0.27236 v 0 c -0.04565,0.47512 -0.02324,0.21947 -0.06514,0.76713 -0.0986,1.49633 -0.237839,2.99249 -0.559135,4.46033 -0.188558,0.77917 -0.24004,1.05658 -0.487938,1.82101 -0.426049,1.31378 -1.014092,2.56773 -1.661669,3.78528 -0.517357,0.92494 -0.600281,1.09605 -1.159772,2.00345 -0.806888,1.30863 -1.681047,2.57457 -2.557144,3.83729 -1.206296,1.68204 -2.460456,3.33296 -3.90754,4.81856 -1.211021,1.24867 -2.4606341,2.45891 -3.8079876,3.56167 -0.9586968,0.79633 -1.9223501,1.60747 -3.0608791,2.13857 -0.9304592,0.40829 -1.8655,0.73339 -2.88543736,0.82364 -0.52728064,0.0297 -1.05921121,0.0392 -1.57634735,-0.0875 -1.92052799,-0.54226 -2.68739339,2.17378 -0.76686539,2.71603 z"
       id="path963"
       style="fill:#fffffa;fill-opacity:1;fill-rule:nonzero;stroke:none;stroke-width:0.264583" />
    <path
       d="m -2.7128874,256.07547 c 0.7034421,0.4057 1.5091221,0.52049 2.30818817,0.38257 0.2222723,-0.0384 0.43743582,-0.11026 0.65615372,-0.16539 1.41149431,-0.51031 2.66677741,-1.35811 3.92154801,-2.16532 1.2587165,-0.82703 2.4786544,-1.71588 3.6260775,-2.69243 0.2455568,-0.20899 0.4844769,-0.42565 0.7267154,-0.63848 1.6289636,-1.47532 3.0260296,-3.17516 4.3924186,-4.88921 0.998516,-1.29637 2.017182,-2.58588 2.886231,-3.97527 0.611412,-0.9775 0.885806,-1.5266 1.434144,-2.54415 1.040354,-2.01212 2.027866,-4.06076 2.738721,-6.21589 0.10802,-0.32749 0.198877,-0.66039 0.298316,-0.99059 0.204075,-0.81785 0.357837,-1.65378 0.375479,-2.49893 0.0042,-0.20126 -0.01312,-0.40239 -0.01968,-0.60358 -0.09092,-1.99354 -2.910215,-1.86495 -2.819291,0.12859 v 0 c 0.0073,0.10202 0.0223,0.20379 0.02181,0.30607 -0.003,0.62808 -0.118289,1.24968 -0.262045,1.85866 -0.08481,0.28544 -0.161701,0.57335 -0.254441,0.85632 -0.662043,2.01998 -1.59185,3.93666 -2.564218,5.8222 -0.471157,0.87727 -0.773585,1.47562 -1.296912,2.31564 -0.824395,1.32328 -1.796543,2.54805 -2.745246,3.78209 -1.2624179,1.58477 -2.5485458,3.16057 -4.049595,4.52926 -1.2667996,1.11648 -2.5922859,2.16433 -4.0157435,3.07643 -1.0162068,0.65419 -2.0296315,1.33607 -3.14231299,1.8173 -0.16639646,0.0553 -0.35098069,0.13579 -0.53115401,0.14143 -0.3129342,0.01 0.0988582,-0.0146 -0.1618514,-0.0242 -0.00538,-2e-4 0.00402,0.01 0.00604,0.015 -1.6772054,-1.08141 -3.2065524,1.29052 -1.529347,2.37193 z"
       id="path965"
       style="fill:#fffffa;fill-opacity:1;fill-rule:nonzero;stroke:none;stroke-width:0.264583" />
    <path
       d="m -2.3311884,250.40093 c 0.6837737,0.0608 1.36637973,-0.0197 2.04222041,-0.11825 0.61403965,-0.0994 1.22063701,-0.24887 1.80017109,-0.47724 0.4082258,-0.16087 0.597602,-0.26346 0.9910955,-0.45628 1.0816771,-0.55134 2.1303957,-1.15936 3.1389831,-1.83465 0.7939402,-0.56041 1.5400345,-1.18968 2.208639,-1.89579 0.4482375,-0.47338 0.5815634,-0.6569 0.9941531,-1.16402 1.0173065,-1.30574 1.9094202,-2.70104 2.7275462,-4.13811 0.653204,-1.22077 1.235511,-2.48852 1.657478,-3.80939 0.08285,-0.25933 0.152202,-0.52279 0.228303,-0.78418 0.345634,-1.37174 0.573232,-2.77192 0.710947,-4.1791 0.05697,-0.48664 0.03927,-0.97361 0.01227,-1.4609 -0.124212,-1.99174 -2.940962,-1.81608 -2.81675,0.17567 v 0 c 0.02507,0.33833 0.03653,0.67592 -0.0047,1.01431 -0.116966,1.23468 -0.320932,2.46219 -0.613362,3.66762 -0.06112,0.21418 -0.116386,0.43012 -0.183359,0.64254 -0.365154,1.15818 -0.8764621,2.26848 -1.4446887,3.33935 -0.7392239,1.30425 -1.5490536,2.56834 -2.4665249,3.75558 -0.3275875,0.4064 -0.4485074,0.57215 -0.8014806,0.94959 -0.5380768,0.57538 -1.1409569,1.08693 -1.7818997,1.54392 -0.9027546,0.60843 -1.8459741,1.1488 -2.8142143,1.64659 -0.62815369,0.31265 -1.2520426,0.58299 -1.95578204,0.67268 -0.46645056,0.0704 -0.93795216,0.13708 -1.41072976,0.0963 -1.989633,-0.15437 -2.2079394,2.6594 -0.2183063,2.81376 z"
       id="path967"
       style="fill:#fffffa;fill-opacity:1;fill-rule:nonzero;stroke:none;stroke-width:0.264583" />
    <path
       d="m 1.8663557,247.47351 c 0.6178442,-0.50547 1.2204486,-1.02689 1.8073275,-1.56806 0.9819021,-0.92634 1.8935001,-1.92309 2.7659687,-2.95213 1.0664272,-1.30363 0.8573349,-1.37725 -1.4597814,-2.59228 -0.045089,-0.0236 -0.7150931,0.51178 -0.7628464,0.54899 -1.0641743,0.85334 -2.1290293,1.70519 -3.22797806,2.51352 -0.69952597,0.54323 -1.4934654,0.94984 -2.20282884,1.47726 -0.5781715,1.99355 -1.0682266,1.7083 1.42523938,2.44617 0.13675733,0.0405 0.26431658,-0.10781 0.39239717,-0.17055 0.52139955,-0.25539 0.99430465,-0.59043 1.47027955,-0.91939 1.2610163,-0.93043 2.393016,-2.02399 3.4266105,-3.19949 0.2327931,-0.26476 0.4556366,-0.5381 0.683455,-0.80715 0.974231,-1.19641 1.8735722,-2.45649 2.5748876,-3.8329 0.6148967,-1.35719 0.5980891,-1.39812 -2.0063951,-2.2167 -0.1026737,-0.0323 -0.5230532,0.73969 -0.5956758,0.86663 -0.6783155,1.24876 -1.5463216,2.37602 -2.4168465,3.49389 -0.2461564,0.31691 -0.5905902,0.74966 -0.8221001,1.08625 -0.6917177,1.00568 -0.9424659,1.89313 0.7465703,2.80878 0.3982265,0.21588 0.8626432,-0.27678 1.2939649,-0.41517 0.1992503,-0.18077 0.4087143,-0.3509 0.5977509,-0.54233 0.4037486,-0.40887 0.8957783,-1.02125 1.240233,-1.47006 0.6708299,-0.87406 1.2919461,-1.78507 1.9168366,-2.69199 0.4389441,-0.64073 0.8688446,-1.28757 1.2991464,-1.93411 0.07543,-0.11333 0.151004,-0.22655 0.226396,-0.3399 0.04017,-0.0604 0.179493,-0.13941 0.120304,-0.18135 -0.7726102,-0.54744 -1.6245223,-0.97335 -2.4367836,-1.46002 -0.8382243,1.08738 -1.6433887,2.19943 -2.4124139,3.33669 -0.8484002,1.32607 -1.4097103,1.81539 1.1723791,3.02303 0.2616321,0.12237 0.9625769,-0.85296 1.1300745,-1.06807 0.8033541,-1.11577 1.6236397,-2.22742 2.3146499,-3.41837 0.137065,-0.23623 0.26068,-0.48001 0.39102,-0.72001 0.204142,-0.43184 0.344688,-0.69515 0.497997,-1.13518 0.04849,-0.13918 0.108406,-0.27807 0.12286,-0.42474 0.02498,-0.25354 0.212157,-0.63218 -0.0057,-0.76428 -2.1780414,-1.32083 -2.0071018,-1.16481 -2.8697586,-0.10661 -0.9348382,1.47316 -1.6992314,3.04648 -2.417551,4.63392 -0.1840635,0.43521 -0.3488823,0.80394 -0.5051497,1.2453 -0.050398,0.14234 -0.1049184,0.28435 -0.1359024,0.43214 -0.036325,0.17327 -0.2056111,0.41927 -0.065199,0.52709 2.1698595,1.66628 1.803016,1.65863 2.848842,0.54165 0.9210077,-1.42628 1.7425749,-2.91518 2.5422437,-4.41207 0.339536,-0.66083 0.673678,-1.32613 0.947321,-2.01762 0.101018,-0.25527 0.236031,-0.62771 0.290726,-0.9038 0.02927,-0.14775 0.03767,-0.29887 0.05651,-0.44831 -0.23894,-1.03039 -0.07988,-1.27247 -1.559575,-1.61587 -0.2912169,-0.0676 -0.5811008,0.14944 -0.8568461,0.26493 -0.1442212,0.0604 -0.2627204,0.1697 -0.3917344,0.25804 -0.2338078,0.1601 -0.4625094,0.32755 -0.6957261,0.48851 -0.7740449,0.5244 -1.6172569,0.93168 -2.4272859,1.39504 -0.3343516,0.2219 -0.9153837,0.57826 -1.0694043,0.96613 -0.1270886,0.32005 -0.331466,0.68422 -0.2188191,1.00963 0.1730251,0.49983 0.5568349,0.94044 0.9959467,1.23532 0.2598719,0.1745 0.6246595,0.0418 0.936989,0.0627 0.2077006,-0.0664 0.422747,-0.11311 0.6231017,-0.19916 0.7677266,-0.32973 1.4443252,-0.96096 1.9100408,-1.64538 0.1203833,-0.17691 0.2155235,-0.36975 0.3232851,-0.55463 0.073645,-0.19621 0.1739932,-0.38438 0.2209361,-0.58863 0.2200413,-0.95741 -0.018423,-1.71471 -0.8169494,-2.33407 -0.4753713,-0.36871 -1.0173901,-0.41636 -1.576015,-0.53131 -1.0985076,-0.11712 -2.2060103,-0.0439 -3.2836344,0.19525 -0.6089597,0.13514 -0.879421,0.23702 -1.4636411,0.42575 -0.4520674,0.16411 -0.6641352,0.23542 -1.0951634,0.41171 -0.76765163,0.31398 -1.79188299,0.7877 -1.30883787,2.08211 0.21581571,0.57832 1.06831067,0.61873 1.60246597,0.92809 1.3275005,-0.16695 2.6592399,-0.28769 3.9926317,-0.39605 1.1016482,-0.10384 2.6497814,-0.0986 2.4295467,-2.00789 -0.1248886,-1.08271 -1.333664,-1.09648 -2.0335308,-1.18624 -1.6913389,-0.0756 -3.3931897,-0.0233 -5.07718662,0.15597 -0.31929609,0.034 -0.63704728,0.0812 -0.95557091,0.12179 -0.72174725,0.12981 -1.45981417,0.25076 -2.14507337,0.52535 -0.1722659,0.069 -0.3467524,0.1393 -0.5015823,0.24162 -0.1874542,0.12387 -0.4102442,0.23444 -0.5175544,0.43184 -0.2021491,0.37187 -0.2509544,0.80847 -0.3764315,1.2127 0.1844125,0.34947 0.3137287,0.73413 0.5532377,1.04841 0.1413989,0.18554 0.687356,0.44825 0.9164605,0.57261 0.3246457,0.17623 0.6274236,0.3689 0.9284308,0.58242 0.8711559,0.66953 1.38756125,1.05679 2.6575694,0.0797 0.3968487,-0.30532 0.3104403,-1.10154 0.2922667,-1.55333 -0.059757,-0.85482 0.1565167,-1.68396 0.3802852,-2.50006 0.2663092,-1.02793 0.2048578,-0.59966 -2.72570996,-0.74878 -0.15897519,-0.008 -0.0815245,0.30781 -0.11671538,0.46306 -0.21010956,0.92688 -0.32535262,1.8587 -0.43859036,2.80155 -0.1201525,1.43742 -0.1356195,2.88107 -0.106961,4.32239 0.011002,0.55332 0.039945,1.41471 0.094468,1.99059 0.02021,0.21346 0.056818,0.42505 0.0852275,0.63758 0.0814587,0.21725 0.0283096,0.5672 0.24437622,0.65176 0.71912462,0.28143 1.54116472,0.5232 2.29151668,0.34067 0.3855141,-0.0938 0.4291806,-0.67238 0.5802458,-1.03925 0.1156571,-0.28088 0.1506726,-0.58876 0.212568,-0.88615 0.1477612,-0.70995 0.2230578,-1.30008 0.3285014,-2.01889 0.1130511,-0.89302 0.2087112,-1.78877 0.2703377,-2.68694 0.01334,-0.19444 0.027763,-0.38899 0.031412,-0.58385 0.0027,-0.14392 0.066115,-0.31101 -0.012396,-0.43167 -0.3160209,-0.48567 -0.7524739,-0.88134 -1.1287115,-1.32201 -0.5909063,0.39823 -1.2615378,0.69825 -1.77271895,1.19468 -0.16946655,0.16458 -0.11903619,0.45743 -0.16670911,0.6888 -0.1698097,0.82414 -0.27424053,1.67024 -0.31466394,2.51055 -0.0126886,0.26377 -0.00891,0.52807 -0.0133644,0.7921 0.0199168,0.24422 0.0209386,0.49072 0.0597502,0.73266 0.1867933,1.1644 0.80792639,2.06037 2.253559,1.84539 0.8677197,-0.12904 1.2689648,-1.07137 1.6390931,-1.68931 0.6694866,-1.43796 1.0333855,-2.98541 1.3949429,-4.52178 0.00572,-0.0207 0.038234,-0.0581 0.017148,-0.0621 -0.9226867,-0.17675 -1.8402633,-0.44306 -2.7794201,-0.46706 -0.1336337,-0.003 -0.050875,0.26249 -0.073894,0.39417 -0.120027,0.68662 -0.2041229,1.37238 -0.2737032,2.06573 -0.02052,0.42358 -0.060478,0.8827 -0.016024,1.30828 0.021029,0.20132 0.024283,0.41364 0.1093287,0.59731 0.1445007,0.31209 0.2469544,0.73516 0.5665001,0.86232 1.6344256,0.65038 1.6932539,0.22676 2.529193,-0.63485 0.6880646,-1.18417 1.1409394,-2.49859 1.4303774,-3.83395 0.01139,-0.15252 0.1481881,-0.35562 0.034169,-0.45756 -0.5962632,-0.5331 -1.2176559,-1.20509 -2.010636,-1.30954 -0.4214122,-0.0555 -0.624396,0.58475 -0.8727209,0.92972 -0.1330127,0.18478 -0.1798524,0.41882 -0.2531811,0.63437 -0.2051029,0.60288 -0.2356149,0.84871 -0.3633502,1.46928 -0.026101,0.23355 -0.067956,0.46587 -0.078301,0.70065 -0.053586,1.21618 0.3708276,2.17352 1.9766301,2.12418 0.73416,-0.0225 1.2060343,-0.97549 1.5246844,-1.48268 0.5506456,-1.09894 1.0917651,-2.21724 1.4741867,-3.38844 -0.8740436,-0.34473 -1.7024752,-0.84177 -2.6221324,-1.03417 -0.1587529,-0.0332 -0.1362964,0.29443 -0.1992141,0.44391 -0.2487895,0.59112 -0.4809394,1.20194 -0.6391701,1.82414 -0.055751,0.21923 -0.091657,0.44303 -0.1374859,0.66454 -0.019539,0.47716 -0.1026827,1.00054 0.1468316,1.45097 0.4335904,0.78274 0.9185047,1.13024 1.8556824,1.09405 0.7191354,-0.0278 1.1349119,-0.48005 1.6407818,-0.88412 0.180721,-0.20264 0.3732942,-0.39531 0.542163,-0.60792 0.5645822,-0.71085 1.0503606,-1.58074 1.3212577,-2.45032 0.049331,-0.15835 0.080199,-0.32188 0.1202981,-0.48281 0.013589,-0.17031 0.057428,-0.34089 0.040767,-0.51092 -0.067697,-0.69087 -0.2450779,-1.06803 -0.8992041,-1.47832 -0.2286061,-0.14339 -0.5188337,-0.16477 -0.7878247,-0.18634 -0.4164917,-0.0334 -0.6835127,0.12922 -1.0458714,0.28283 -0.1524495,0.12462 -0.3409392,0.21506 -0.4573485,0.37387 -0.4545943,0.62018 -0.6037796,1.23978 -0.1060788,1.97718 0.209849,0.31092 0.598815,0.46934 0.9480317,0.60629 0.3798062,0.14893 0.8971637,-4e-4 1.2707845,-0.0731 0.7332614,-0.23986 1.6717983,-0.64068 2.1160493,-1.31161 0.120983,-0.18271 0.195274,-0.39237 0.292911,-0.58855 0.02456,-0.23254 0.09761,-0.46502 0.07369,-0.69762 -0.07875,-0.76572 -0.598185,-1.344 -1.308005,-1.59307 -0.4434971,-0.15562 -0.718364,-0.11754 -1.1716373,-0.11567 -1.2666295,0.1356 -2.5026974,0.47371 -3.7365368,0.77966 -1.075069,0.26145 -2.1633923,0.61663 -3.0266458,1.33957 -0.595381,0.4986 -0.6547944,0.68267 -1.0752542,1.31264 -0.67086802,1.28394 -0.67459479,2.70515 -0.77921383,4.11215 -0.0780241,1.00044 -0.26046535,1.98731 -0.50072727,2.96029 -0.13832319,0.58424 -0.34221054,1.14504 -0.60820357,1.68201 -0.25522443,0.47302 -0.43849843,0.97758 -0.59625293,1.48983 0.85495684,-3.84558 2.6086189,0.1603 2.7099921,0.31547 0.023058,0.0353 0.00992,-0.0837 0.015726,-0.12549 0.042896,-0.30854 0.046184,-0.31182 0.1036055,-0.65635 0.2025694,-1.09397 0.2822645,-2.20369 0.3183575,-3.31398 0.00825,-0.40054 0.00545,-0.22283 0.00945,-0.53311 0.025279,-1.99545 -2.7967166,-2.0312 -2.8219958,-0.0357 v 0 c -0.00345,0.2778 -0.00102,0.11817 -0.00824,0.47886 -0.030799,0.98639 -0.099939,1.97232 -0.2820391,2.9439 -0.048304,0.29447 -0.1029717,0.59695 -0.1326113,0.89439 -0.012629,0.12674 -0.061553,0.25954 -0.024272,0.38132 0.1282313,0.41889 0.085474,1.10889 0.511586,1.21057 1.91656196,0.45732 1.99980329,0.0814 2.2981278,-0.73072 0.1135065,-0.37025 0.2410451,-0.73562 0.4317578,-1.07481 0.3518787,-0.72086 0.6301053,-1.47116 0.8157869,-2.25302 0.2752263,-1.12584 0.4860209,-2.26714 0.5744179,-3.42431 0.015401,-0.20744 0.030801,-0.41488 0.046202,-0.62232 0.013084,-0.19599 0.024828,-0.39207 0.039246,-0.58797 0.040153,-0.54553 0.078471,-1.10032 0.2736328,-1.61694 0.1105623,-0.21636 0.1539619,-0.3428 0.332979,-0.51851 0.5454734,-0.53539 1.3453729,-0.69855 2.0539736,-0.88849 1.0450621,-0.25926 2.0904128,-0.53641 3.1558475,-0.6984 0.040974,-0.007 0.099343,0.0125 0.122921,-0.0218 0.016801,-0.0244 -0.048462,-0.0342 -0.071945,-0.0523 -0.06102,-0.0471 -0.1320668,-0.084 -0.181527,-0.14313 -0.326178,-0.38967 -0.3714355,-0.66575 -0.2209514,-1.14341 0.055498,-0.0778 0.1034127,-0.16165 0.1664941,-0.23346 0.016185,-0.0184 0.0639,-0.0561 0.066403,-0.0317 0.00316,0.0308 -0.038042,0.0497 -0.062626,0.0685 -0.1722292,0.13152 -0.3750542,0.21758 -0.5743477,0.29792 -0.1314743,0.0913 -0.014933,-0.0111 0.1431774,0.10056 0.2189806,0.15463 0.4986428,0.27429 0.618421,0.51411 0.3376313,0.67601 0.2278144,1.07405 -0.1823871,1.5726 -0.065641,0.0798 -0.1735534,0.11213 -0.2603301,0.16819 -0.061352,0.0155 -0.1211239,0.0399 -0.1840548,0.0465 -0.573346,0.0604 -0.9329248,-0.3282 -1.1816463,-0.8121 -0.1416061,-0.2755 -0.1022216,-0.31862 -0.013782,-0.465 -0.1252127,0.7413 -0.6294668,1.47711 -1.0942079,2.04903 -0.04037,0.0532 -0.1611606,0.10622 -0.1211088,0.15969 0.052005,0.0694 0.177338,-0.005 0.2590795,0.0245 0.2061445,0.0732 0.432522,0.13126 0.5942221,0.2786 0.1531427,0.13955 0.2290514,0.34873 0.3055332,0.54128 0.020365,0.0513 0.029503,0.16079 -0.025593,0.1635 -0.054246,0.003 -0.016592,-0.10734 -0.024887,-0.16102 0.024654,-0.13567 0.041348,-0.27303 0.073961,-0.40701 0.090261,-0.37079 0.2131558,-0.70322 0.3477117,-1.06026 0.057297,-0.15203 0.1197986,-0.30205 0.1790245,-0.45334 0.023286,-0.0595 0.1242613,-0.1478 0.06851,-0.17898 -0.8144417,-0.45558 -1.6868642,-0.79873 -2.5302963,-1.1981 -0.091598,0.31483 -0.2338541,0.63502 -0.3585586,0.93496 -0.2626077,0.63161 -0.5394555,1.25793 -0.8525671,1.86637 -0.054125,0.10532 -0.2736221,0.2754 -0.162374,0.31596 0.1838571,0.067 0.374919,-0.22821 0.5618519,-0.1703 0.4792237,0.14847 0.9202748,0.42752 1.3055754,0.74883 0.1003673,0.0837 0.038371,0.25854 0.057452,0.38783 0.03069,0.20795 -0.2138299,-1.33701 0.00902,-0.63057 0.095003,-0.49423 0.091238,-0.54359 0.2331005,-1.01782 0.032282,-0.10792 0.2223564,-0.33197 0.1104197,-0.31938 -0.2275123,0.0256 -0.3656777,0.45891 -0.5774431,0.3719 -2.0830161,-0.85594 -2.130942,-0.67237 -1.8291577,-1.4373 -0.1907204,0.94534 -0.5327928,1.85574 -0.932747,2.73116 0.5911284,-0.19601 0.6913359,-0.27016 1.6386286,0.23686 0.1959554,0.10489 0.1903918,0.40169 0.2833886,0.60356 0.012816,0.0278 -0.03882,-0.0509 -0.042801,-0.0813 -0.038654,-0.29485 -0.00802,-0.6393 0.00408,-0.92851 0.059842,-0.61235 0.1331908,-1.21786 0.2391514,-1.82415 0.0234,-0.13389 0.1993876,-0.34571 0.075124,-0.40077 -2.6662945,-1.18145 -2.4892536,-1.66468 -2.7600449,-0.63073 -0.303478,1.28969 -0.6014413,2.58868 -1.1227034,3.81195 -0.0494534,0.11825 -0.2436634,0.26904 -0.14836009,0.35475 0.11402319,0.10254 0.30496569,-0.12133 0.45288639,-0.0809 0.8905472,0.24351 1.0058914,0.22119 1.1609007,0.83939 0.050216,0.20026 -0.4863936,-1.29579 -0.1209227,-0.60748 0.00191,-0.20651 -0.00314,-0.4132 0.00574,-0.61953 0.021141,-0.49113 0.072207,-0.96151 0.1427082,-1.44799 0.031153,-0.21497 0.069311,-0.4289 0.108445,-0.64255 0.023941,-0.13071 0.2121434,-0.41025 0.080752,-0.39039 -0.5560507,0.084 -1.047192,0.41036 -1.5707879,0.61555 -0.33737917,-0.43105 -0.65056897,-0.88217 -1.01213755,-1.29313 -0.0349577,-0.0397 0.0146222,0.10527 0.0136041,0.15818 -0.003267,0.16981 -0.0149254,0.33938 -0.0264381,0.50883 -0.05685201,0.83677 -0.14557036,1.67128 -0.24964016,2.50337 -0.11959778,0.82305 -0.1360618,1.00238 -0.28712837,1.79767 -0.0361238,0.19017 -0.19315115,0.389 -0.11994457,0.5682 0.0419562,0.1027 0.16669049,-0.20338 0.27621179,-0.18569 2.07078006,0.33454 1.93702876,-0.10966 2.06145126,0.78983 -0.1121559,-0.75906 -0.1368864,-1.49641 -0.1527935,-2.26504 -0.02734,-1.32107 -0.01566,-2.64424 0.087295,-3.96223 0.1005423,-0.85282 0.1121092,-1.07458 0.2545525,-1.87034 0.034929,-0.19513 0.077344,-0.38888 0.1200843,-0.58245 0.025666,-0.11624 0.1924749,-0.29543 0.085101,-0.34682 -2.62073603,-1.25429 -2.44736611,-1.79291 -2.70335429,-0.79455 -0.30226616,1.10716 -0.55450051,2.23716 -0.47636861,3.39379 0.0497835,0.6227 -0.0543158,-0.16592 0.31153698,-0.34529 0.48431065,-0.23743 1.04838139,-0.26219 1.58232605,-0.33858 0.052823,-0.008 0.17340337,0.12446 0.12985337,0.0936 -0.25486727,-0.18045 -0.23414492,-0.1691 -0.536395,-0.39691 -0.39017545,-0.27079 -0.42998911,-0.3093 -0.84174874,-0.55108 -0.13042807,-0.0766 -0.26364601,-0.14835 -0.39683417,-0.22003 -0.0814558,-0.0438 -0.15811981,-0.10088 -0.24701483,-0.12646 -0.0205819,-0.006 0.0132453,0.0407 0.0198681,0.0611 0.0882829,0.2531 0.17656579,0.50621 0.26484868,0.75931 -0.31036874,0.72059 -0.13626645,0.82859 -0.62403144,1.04689 -0.040034,0.0179 0.068195,-0.0572 0.1085177,-0.0744 0.1185051,-0.0507 0.2412297,-0.0916 0.36484618,-0.12818 0.49528769,-0.14638 0.70418945,-0.17043 1.23537089,-0.27119 0.28071268,-0.0365 0.56069486,-0.0792 0.84213803,-0.10953 1.5050393,-0.16239 3.0250602,-0.20963 4.5373879,-0.16041 0.949789,0.0448 -0.5067041,0.0568 -0.4087368,-0.92576 0.062705,-0.62891 0.6546566,-1.08133 0.9812522,-1.62243 0.00451,-0.007 -0.00641,0.0198 -0.014981,0.0215 -0.1131451,0.0225 -0.2278843,0.0367 -0.3425145,0.0497 -0.1818336,0.0206 -0.3644048,0.0342 -0.5466072,0.0512 -1.2879649,0.10469 -2.5767075,0.20862 -3.8569188,0.3883 0.3827103,0.31435 1.0527058,0.45708 1.1481308,0.94306 0.1136155,0.57862 -0.4309853,1.09781 -0.6390587,1.64955 -0.00443,0.0118 0.015607,-0.0209 0.026919,-0.0264 0.096507,-0.0465 0.1954576,-0.088 0.2945527,-0.1287 0.3640899,-0.14973 0.5600374,-0.21686 0.9392956,-0.35574 0.44767,-0.14789 0.6572324,-0.22777 1.1186978,-0.33686 0.742239,-0.17546 1.5058051,-0.23677 2.2668364,-0.18717 0.095609,0.009 0.191819,0.0396 0.2868277,0.0259 0.023368,-0.003 0.022058,-0.0471 0.014219,-0.0694 -0.043508,-0.12362 -0.1335511,-0.22978 -0.1643438,-0.35716 -0.0342,-0.14148 -0.00146,-0.44612 0.065727,-0.40793 0.035359,0.0201 -0.0107,0.0806 -0.01605,0.12096 -0.1211268,0.26131 -0.2526638,0.45781 -0.4595527,0.6627 -0.061695,0.0611 -0.1303364,0.1148 -0.1972881,0.17008 -0.041739,0.0345 -0.096408,0.0556 -0.1286669,0.0991 -0.00887,0.012 0.021431,0.0207 0.032146,0.031 0.1649939,0.0403 0.3753432,4e-4 0.494982,0.12097 0.5739699,0.5784 1.2106942,1.40519 0.355745,2.0671 -0.092663,0.0717 0.5966833,-0.57342 0.2776259,-0.21569 0.8770533,-0.50466 1.793811,-0.94273 2.6272575,-1.52115 0.2640389,-0.18257 0.4377099,-0.2994 0.6889599,-0.48385 0.04064,-0.0298 0.169644,-0.089 0.119375,-0.0929 -0.161542,-0.0123 -0.333263,0.13054 -0.481597,0.0654 -1.2719439,-0.55854 -1.1005897,-0.483 -1.2411308,-1.41945 0.043826,-0.0814 0.069064,-0.13871 -0.014589,0.13139 -0.1511956,0.48818 -0.3767881,0.95791 -0.5998847,1.41569 -0.1154862,0.23697 -0.236973,0.47096 -0.3554593,0.70644 -0.7317906,1.37116 -1.4887299,2.73022 -2.3114007,4.04931 0.8985297,-0.38521 0.3549933,-0.20783 2.2312103,1.22037 0.062915,0.0479 -0.1062633,0.29255 -0.057838,0.23004 0.053125,-0.0686 0.044404,-0.16789 0.073102,-0.24975 0.135863,-0.38752 0.2797918,-0.70899 0.4413956,-1.09243 0.6415752,-1.42144 1.3258771,-2.8277 2.1435646,-4.15758 -0.479652,-0.71233 0.738228,1.07917 -2.1850639,-0.92901 -0.2829402,-0.19437 0.1476123,-0.85229 0.011454,-0.44181 -0.038501,0.11607 -0.082521,0.2304 -0.1307727,0.34276 -0.069631,0.16215 -0.1484474,0.32021 -0.222671,0.48031 -0.1035203,0.19351 -0.2008245,0.39048 -0.310561,0.58054 -0.6396122,1.10777 -1.4046343,2.13863 -2.1482164,3.17703 -0.07698,0.10195 -0.3285915,0.22349 -0.2309407,0.30585 0.1081294,0.0912 0.2772354,-0.26356 0.3869446,-0.17426 2.3029246,1.87451 1.2572754,2.59177 1.8497627,1.63104 0.086604,-0.14043 0.1780834,-0.2778 0.2671252,-0.4167 0.7296165,-1.08047 1.4952085,-2.13579 2.2900872,-3.16927 -0.7103554,-0.61589 -1.3764164,-1.28694 -2.1310666,-1.84769 -0.056818,-0.0422 -0.078187,0.11803 -0.1173892,0.17697 -0.075711,0.11383 -0.15161,0.22753 -0.227352,0.34134 -0.4218241,0.63381 -0.8431974,1.26795 -1.2734311,1.89612 -0.9420183,1.36775 -1.8689479,2.76246 -3.0158184,3.97042 0.245482,-0.0122 0.5607918,-0.20862 0.7364465,-0.0367 0.4843246,0.47403 0.7300629,1.14597 1.0218679,1.75763 0.027987,0.0587 -0.136815,0.22099 -0.1049459,0.16434 0.1641483,-0.29178 0.2752037,-0.4328 0.4952032,-0.72345 0.1459904,-0.19288 0.2967762,-0.38208 0.4451643,-0.57311 0.9531041,-1.22491 1.8974295,-2.46393 2.6420934,-3.8306 0.05215,-0.0921 0.1687981,-0.17112 0.1564495,-0.27621 -0.00888,-0.0756 -0.1039201,0.18664 -0.171159,0.15103 -0.7867671,-0.41674 -1.5176293,-0.93271 -2.2527725,-1.43494 -0.024299,-0.0166 0.039916,-0.11065 0.031824,-0.0823 -0.026876,0.094 -0.1015174,0.25039 -0.1332193,0.32238 -0.5925328,1.18485 -1.3865169,2.25263 -2.2117095,3.28444 -1.0841735,1.28543 -2.2024439,2.51031 -3.56470022,3.51055 -0.37299706,0.26075 -0.44261883,0.3196 -0.80713809,0.54049 -0.0798524,0.0484 -0.16311351,0.0909 -0.24374446,0.13803 -0.0224414,0.0131 -0.0875317,0.0289 -0.0653747,0.0425 2.08755987,1.27936 1.85388977,0.24757 1.16235185,2.47517 0.10668452,-0.10761 0.51553722,-0.33789 0.60879072,-0.39734 0.5233649,-0.33371 1.0406093,-0.67706 1.5431751,-1.04159 1.1202503,-0.82518 2.2083821,-1.6913 3.2928684,-2.56274 0.093356,-0.0732 0.1913218,-0.1409 0.2800694,-0.21964 0.00564,-0.005 -0.00354,-0.0157 -0.00918,-0.0207 -0.6309404,-0.5599 -1.3683149,-1.017 -1.8990373,-1.67267 -0.09048,-0.11178 0.3863729,-0.63108 0.1376191,-0.3117 -0.057953,0.0744 -0.1186717,0.14662 -0.1780075,0.21993 -0.7974832,0.9419 -1.6307122,1.85432 -2.5274865,2.70324 -0.6070598,0.56161 -1.24189586,1.0886 -1.869141,1.6269 -1.4244475,1.39765 0.55212433,3.41212 1.9765719,2.01447 z"
       id="path969"
       style="fill:#fffffa;fill-opacity:1;fill-rule:nonzero;stroke:none;stroke-width:0.264583" />
    <path
       d="m 10.476619,263.3701 c -1.008816,-0.0863 -2.0469433,0.10567 -2.9594132,0.55122 -0.2759519,0.13475 -0.531356,0.30804 -0.797034,0.46205 -0.2558438,0.2129 -0.5324345,0.40309 -0.7675316,0.6387 -1.0119974,1.0142 -1.7962078,2.58479 -2.0167168,3.99992 -0.059429,0.38138 -0.046209,0.77059 -0.069313,1.15589 0.068329,0.37655 0.079569,0.76809 0.2049878,1.12966 0.4247036,1.22436 1.3138142,2.02151 2.5132699,2.46079 0.9953596,0.36453 1.3626811,0.26557 2.4136339,0.25976 0.4122507,-0.0938 0.8346681,-0.15067 1.236752,-0.28134 1.471649,-0.47824 2.813137,-1.50498 3.565848,-2.86949 0.173308,-0.31417 0.278628,-0.6613 0.417942,-0.99195 0.05517,-0.36112 0.160363,-0.71807 0.165508,-1.08334 0.01611,-1.14363 -0.454315,-2.2122 -1.324385,-2.95821 -0.712529,-0.61093 -1.122564,-0.65484 -1.984137,-0.94042 -0.848346,-0.11152 -1.1744038,-0.21282 -2.0270402,-0.0974 -0.3319132,0.0449 -0.6521003,0.15333 -0.9781503,0.23 -1.9287593,0.51221 -1.2043883,3.23989 0.724371,2.72768 v 0 c 0.1384945,-0.0467 0.272198,-0.11127 0.4154839,-0.14009 0.4277947,-0.0861 0.6369693,-0.0426 1.0672526,-0.0132 0.304184,0.0638 0.762334,0.13568 1.011137,0.35574 0.266614,0.23582 0.316491,0.56797 0.296852,0.90348 -0.04611,0.15004 -0.07269,0.30754 -0.138337,0.45012 -0.367637,0.7985 -1.10654,1.3721 -1.9071943,1.6917 -0.2082689,0.0831 -0.4289814,0.13086 -0.6434723,0.19628 -0.2013823,0.0201 -0.4017864,0.0629 -0.6041469,0.0602 -0.2358805,-0.003 -0.715005,-0.093 -0.9562597,-0.18846 -0.1641531,-0.065 -0.4182872,-0.22024 -0.5099688,-0.38436 -0.071857,-0.12863 -0.092944,-0.27965 -0.1394161,-0.41947 -0.00298,-0.19552 -0.031544,-0.39232 -0.00896,-0.58655 0.099934,-0.85936 0.5485339,-1.8846 1.1235936,-2.53491 0.1149855,-0.13003 0.2531567,-0.23755 0.3797353,-0.35633 0.1336013,-0.0876 0.2603523,-0.18676 0.4008038,-0.26295 0.4444245,-0.24109 0.9377531,-0.34783 1.4374124,-0.37975 1.969288,0.32307 2.426178,-2.46192 0.45689,-2.78499 z"
       id="path971"
       style="fill:#fffffa;fill-opacity:1;fill-rule:nonzero;stroke:none;stroke-width:0.264583" />
    <path
       d="m 4.4299272,266.09932 c -0.072304,1.63812 -0.085828,3.27814 -0.1186387,4.91735 -0.06647,3.06001 -0.3536624,6.10885 -0.5619514,9.16104 -0.07509,1.11574 -0.1304936,2.23264 -0.1858508,3.34948 -0.09879,1.99317 2.7199717,2.13288 2.8187621,0.13971 v 0 c 0.054489,-1.09937 0.1088832,-2.19881 0.1827662,-3.2971 0.2112325,-3.09735 0.5023586,-6.19131 0.5679313,-9.29667 0.03239,-1.61934 0.045581,-3.23949 0.1168165,-4.85776 0.082057,-1.99392 -2.7377784,-2.10997 -2.8198352,-0.11605 z"
       id="path973"
       style="fill:#fffffa;fill-opacity:1;fill-rule:nonzero;stroke:none;stroke-width:0.264583" />
    <path
       d="m 14.747141,260.20072 c 0.06224,1.71314 0.05768,3.42813 0.05357,5.14215 2.02e-4,1.76468 -0.05887,3.52933 -0.03917,5.29401 0.05352,0.96902 -0.0047,1.44191 2.24139,1.35212 0.447997,-0.0179 0.471876,-0.76654 0.64662,-1.17944 0.07298,-0.17245 0.05744,-0.37008 0.08739,-0.55493 0.140156,-0.86515 0.107169,-0.65617 0.279087,-1.57992 0.181287,-0.85694 0.362822,-1.72032 0.659314,-2.54688 0.06913,-0.19272 0.143481,-0.38464 0.238112,-0.5662 0.04686,-0.0899 0.08508,-0.21802 0.183445,-0.24262 0.08047,-0.0201 -0.0724,0.14927 -0.108606,0.2239 -0.01313,0.98988 -0.836132,-0.06 -1.052717,0.22622 -0.06939,0.0917 0.103358,0.20544 0.153867,0.30874 0.09733,0.19907 0.19875,0.39626 0.289649,0.59834 0.286632,0.63724 0.378299,0.912 0.62834,1.57408 0.237463,0.69538 0.503549,1.38604 0.665572,2.10475 0.02812,0.12475 0.04133,0.2524 0.06199,0.37859 0.349639,1.96475 3.128208,1.47028 2.778569,-0.49446 v 0 c -0.03842,-0.20579 -0.06801,-0.41343 -0.11525,-0.61737 -0.187391,-0.80898 -0.481038,-1.58912 -0.751987,-2.3721 -0.343123,-0.90175 -0.684664,-1.87028 -1.184252,-2.70008 -0.368475,-0.61203 -0.864346,-1.33713 -1.631585,-1.51965 -0.441677,-0.10507 -0.903802,0.0872 -1.355703,0.13088 -0.250846,0.21101 -0.535763,0.38716 -0.752537,0.63304 -0.31024,0.35191 -0.592424,1.07235 -0.742253,1.49726 -0.328698,0.93218 -0.536605,1.90276 -0.73871,2.86806 -0.177107,0.9549 -0.149525,0.77312 -0.292575,1.65872 -0.026,0.16095 -0.228932,0.53758 -0.07522,0.48327 0.267811,-0.0946 0.269624,-0.69736 0.549845,-0.65096 2.158864,0.35742 2.23363,1.95724 2.16024,0.95412 -0.02089,-1.75157 0.04158,-3.5032 0.03935,-5.25478 0.0042,-1.771 0.0092,-3.54311 -0.05834,-5.31311 -0.116143,-1.99223 -2.933582,-1.82798 -2.817438,0.16425 z"
       id="path975"
       style="fill:#fffffa;fill-opacity:1;fill-rule:nonzero;stroke:none;stroke-width:0.264583" />
    <path
       d="m 29.101817,265.16635 c -0.09522,-0.11864 -0.179052,-0.24738 -0.285652,-0.3559 -0.620152,-0.63132 -1.550382,-0.90278 -2.416648,-0.69922 -0.283725,0.0667 -0.541501,0.21577 -0.812252,0.32366 -0.249216,0.20197 -0.527024,0.37304 -0.747649,0.6059 -0.984224,1.03881 -1.407578,2.65161 -1.282703,4.05175 0.03422,0.38365 0.150162,0.75556 0.225243,1.13334 0.161668,0.34721 0.276079,0.72062 0.485004,1.04162 0.660535,1.01487 1.702247,1.64672 2.928225,1.65908 1.004308,0.0101 1.347841,-0.25934 2.223093,-0.65712 0.301898,-0.23246 0.626541,-0.43804 0.905693,-0.69738 1.015201,-0.94312 1.757664,-2.35703 1.573188,-3.77817 -0.04566,-0.35173 -0.19963,-0.68069 -0.299445,-1.02104 -0.212182,-0.2933 -0.388958,-0.61581 -0.636545,-0.87991 -0.534421,-0.57007 -1.303689,-0.92803 -2.047002,-1.12502 -0.175286,-0.0465 -0.356182,-0.0683 -0.53427,-0.10247 -1.967247,-0.33528 -2.4414,2.44683 -0.474155,2.78211 v 0 c 0.244417,0.0268 0.466763,0.0812 0.695267,0.17558 0.07218,0.0298 0.138613,0.0729 0.211865,0.10004 0.04415,0.0163 0.09208,0.0196 0.138116,0.0294 0.04174,0.0421 0.09783,0.0737 0.125224,0.12626 0.109175,0.20947 0.07288,0.41076 0.0013,0.63177 -0.164571,0.50886 -0.527259,0.89647 -0.924719,1.23622 -0.237569,0.14993 -0.78247,0.54812 -1.107908,0.4172 -0.292499,-0.11767 -0.345027,-0.3061 -0.511191,-0.56446 -0.05168,-0.17915 -0.123455,-0.35369 -0.15503,-0.53745 -0.127142,-0.73992 0.08594,-1.4461 0.439666,-2.08779 0.0019,-0.0243 0.01334,-0.0498 0.0058,-0.073 -0.0078,-0.0241 -0.03506,-0.037 -0.04849,-0.0585 -0.04566,-0.073 -0.04988,-0.15485 -0.09599,-0.22743 1.024588,1.7125 3.446441,0.26351 2.42185,-1.44899 z"
       id="path977"
       style="fill:#fffffa;fill-opacity:1;fill-rule:nonzero;stroke:none;stroke-width:0.264583" />
    <path
       d="m 35.932618,259.22689 c -0.154091,1.35407 -0.514554,2.67515 -0.81324,4.00191 -0.100208,0.44513 -0.195289,0.89139 -0.292933,1.33708 -0.306964,1.77684 -0.846828,4.3438 0.502851,5.85504 0.26103,0.29227 0.6237,0.4746 0.935548,0.71191 1.240227,0.26201 1.10182,0.36326 2.25661,0.1725 0.261686,-0.0432 0.513747,-0.13213 0.77062,-0.1982 1.924085,-0.52949 1.175274,-3.25056 -0.748813,-2.72107 v 0 c -0.129955,0.0404 -0.258704,0.0849 -0.389869,0.12115 -0.407122,0.11258 -0.29342,-0.0316 -0.415948,0.21805 -0.03054,0.0279 -0.05029,0.0848 -0.09162,0.0836 -0.249502,-0.007 -0.308221,-0.44392 -0.325642,-0.55526 -0.160988,-1.02903 0.107334,-2.07612 0.263144,-3.08397 0.09518,-0.43478 0.187796,-0.87012 0.285552,-1.30432 0.335703,-1.49108 0.742871,-2.97747 0.882756,-4.50394 0.09511,-1.99334 -2.723899,-2.12786 -2.819016,-0.13451 z"
       id="path979"
       style="fill:#fffffa;fill-opacity:1;fill-rule:nonzero;stroke:none;stroke-width:0.264583" />
    <path
       d="m 33.858366,266.2138 c 1.345446,-0.24422 2.722354,-0.26895 4.085945,-0.30512 1.221544,0.0106 0.635095,-0.0139 1.759685,0.0646 1.991183,0.13292 2.179169,-2.68303 0.187989,-2.81596 v 0 c -1.323324,-0.085 -0.648858,-0.0603 -2.023544,-0.0699 -1.565452,0.0426 -3.147806,0.0743 -4.687466,0.3866 -1.937277,0.47899 -1.259885,3.21871 0.677391,2.73972 z"
       id="path981"
       style="fill:#fffffa;fill-opacity:1;fill-rule:nonzero;stroke:none;stroke-width:0.264583" />
    <path
       d="m 46.948298,265.0909 c -0.13199,-0.55123 -0.351356,-1.09533 -0.882753,-1.40533 -0.670769,-0.39131 -1.328055,-0.39418 -2.021729,-0.0537 -0.322958,0.1585 -0.56166,0.4497 -0.842491,0.67455 -0.198422,0.31351 -0.435107,0.60584 -0.595268,0.94051 -0.341603,0.71381 -0.485365,1.50032 -0.511026,2.28557 -0.02453,0.75018 0.08248,1.7451 0.38691,2.44242 0.177448,0.40646 0.468577,0.75315 0.702866,1.12972 0.362842,0.2713 0.68082,0.61633 1.088528,0.81391 1.602718,0.77666 3.539889,0.20682 4.817866,-0.91097 0.305565,-0.26726 0.543999,-0.60271 0.815996,-0.90406 0.418846,-0.76637 0.777023,-1.19992 0.794774,-2.11612 0.01839,-0.94935 -0.266541,-1.58308 -0.934072,-2.25441 -0.553722,-0.55687 -1.142264,-0.71475 -1.836372,-0.98968 -1.02203,-0.26034 -0.521142,-0.16652 -1.500375,-0.2934 -1.982745,-0.22625 -2.302709,2.57777 -0.319963,2.80402 v 0 c 0.527616,0.0443 0.245136,0.004 0.844841,0.13765 0.145788,0.0453 0.291369,0.0914 0.437364,0.13607 0.08764,0.0268 0.171876,0.0787 0.263535,0.0785 0.02413,-5e-5 0.202004,-0.17936 0.258816,-0.0681 0.119729,0.23457 -0.09291,0.5683 -0.164508,0.74423 -0.108204,0.14873 -0.19818,0.31261 -0.324612,0.4462 -0.369519,0.39043 -1.085164,0.81492 -1.647737,0.80293 -0.09792,-0.002 -0.19245,-0.0365 -0.288677,-0.0547 -0.09915,-0.0956 -0.230208,-0.16666 -0.297439,-0.28689 -0.314878,-0.5631 -0.339754,-1.42337 -0.253206,-2.04636 0.036,-0.25915 0.140594,-0.55409 0.224054,-0.80868 -0.122758,-0.21682 0.04312,0.0212 -0.359251,-0.14127 -0.410797,-0.16586 -0.449852,-0.2328 -0.651237,-0.59116 -0.02516,-0.0448 -0.01212,-0.0499 0.0085,-0.0648 0.315791,1.97047 3.102454,1.52387 2.786663,-0.4466 z"
       id="path983"
       style="fill:#fffffa;fill-opacity:1;fill-rule:nonzero;stroke:none;stroke-width:0.264583" />
    <path
       d="m 57.090299,262.71926 c -0.16025,0.006 -0.322048,-0.004 -0.480746,0.0193 -0.939837,0.13715 -1.877626,0.6689 -2.648719,1.19654 -0.23004,0.1574 -0.44594,0.33454 -0.668909,0.50182 -0.19217,0.18618 -0.402572,0.35523 -0.576514,0.55855 -0.610675,0.71382 -0.93966,1.55942 -0.607394,2.50089 0.255868,0.725 0.630026,0.90051 1.182466,1.3305 0.8573,0.54879 1.921002,0.65748 2.775936,1.20596 0.0804,0.0516 0.149649,0.11877 0.224476,0.17816 0.0051,0.0272 0.04026,0.0699 0.01519,0.0817 -0.103217,0.0485 -0.191551,-0.2628 -0.24537,-0.2729 -0.03396,-0.006 -0.06267,0.0301 -0.09041,0.0507 -0.06834,0.0508 -0.131244,0.10852 -0.196866,0.16278 -0.556466,0.37042 -1.209114,0.74533 -1.901346,0.72203 -1.993961,0.0811 -1.879216,2.90103 0.114747,2.81989 v 0 c 0.140309,-0.009 0.281414,-0.008 0.420926,-0.0256 0.96728,-0.11923 1.911842,-0.49145 2.721025,-1.03245 0.234418,-0.15672 0.44609,-0.34506 0.669134,-0.51758 0.436534,-0.48139 0.712018,-0.69596 0.951447,-1.32189 0.32307,-0.84459 0.227076,-1.67166 -0.292087,-2.41186 -0.143719,-0.20491 -0.344503,-0.36316 -0.516755,-0.54474 -0.184745,-0.12761 -0.361741,-0.26724 -0.554236,-0.38283 -0.780139,-0.46846 -1.664702,-0.70369 -2.502463,-1.04081 -0.03028,-1.8e-4 -0.08328,-0.0299 -0.09085,-5.3e-4 -0.20365,0.78951 0.417145,-0.49863 -0.04106,0.5719 -0.01963,0.0459 -0.0916,0.14076 -0.114474,0.0964 -0.029,-0.0562 0.03605,-0.12416 0.0741,-0.17468 0.08459,-0.11232 0.192608,-0.2049 0.288914,-0.30734 0.474043,-0.36768 0.463659,-0.38224 0.991613,-0.69663 0.149442,-0.089 0.302528,-0.17203 0.45797,-0.25006 0.10205,-0.0512 0.209341,-0.0913 0.313801,-0.1374 0.0378,-0.0167 0.08959,-0.017 0.112986,-0.051 0.01267,-0.0184 -0.04265,-0.0136 -0.06397,-0.0203 1.985949,0.19617 2.26337,-2.61239 0.277424,-2.80855 z"
       id="path985"
       style="fill:#fffffa;fill-opacity:1;fill-rule:nonzero;stroke:none;stroke-width:0.264583" />
  </g>
</svg>
