<?xml version="1.0" encoding="UTF-8" standalone="no"?>
<svg
   xmlns:dc="http://purl.org/dc/elements/1.1/"
   xmlns:cc="http://creativecommons.org/ns#"
   xmlns:rdf="http://www.w3.org/1999/02/22-rdf-syntax-ns#"
   xmlns:svg="http://www.w3.org/2000/svg"
   xmlns="http://www.w3.org/2000/svg"
   xmlns:sodipodi="http://sodipodi.sourceforge.net/DTD/sodipodi-0.dtd"
   xmlns:inkscape="http://www.inkscape.org/namespaces/inkscape"
   inkscape:version="1.0 (1.0+r73+1)"
   sodipodi:docname="php.svg"
   id="svg8"
   version="1.1"
   viewBox="0 0 64 64"
   height="64mm"
   width="64mm">
  <defs
     id="defs2" />
  <sodipodi:namedview
     inkscape:document-rotation="0"
     inkscape:window-maximized="1"
     inkscape:window-y="27"
     inkscape:window-x="0"
     inkscape:window-height="1016"
     inkscape:window-width="1920"
     inkscape:snap-page="true"
     showgrid="false"
     inkscape:current-layer="layer1"
     inkscape:document-units="mm"
     inkscape:cy="110.27027"
     inkscape:cx="68.750268"
     inkscape:zoom="3"
     inkscape:pageshadow="2"
     inkscape:pageopacity="0.0"
     borderopacity="1.0"
     bordercolor="#666666"
     pagecolor="#ffffff"
     id="base" />
  <metadata
     id="metadata5">
    <rdf:RDF>
      <cc:Work
         rdf:about="">
        <dc:format>image/svg+xml</dc:format>
        <dc:type
           rdf:resource="http://purl.org/dc/dcmitype/StillImage" />
        <dc:title></dc:title>
      </cc:Work>
    </rdf:RDF>
  </metadata>
  <g
     transform="translate(0,-233)"
     id="layer1"
     inkscape:groupmode="layer"
     inkscape:label="Layer 1">
    <rect
       y="233"
       x="0"
       height="64"
       width="64"
       id="rect3713"
       style="fill:#8bc34a;stroke-width:0.26458332;fill-opacity:1" />
    <path
       inkscape:connector-curvature="0"
       d="m 10.279751,280.10221 c 0.0838,0.0362 0.167567,0.0698 0.251693,0.10577 0.05814,0.0277 0.09877,0.0451 0.146045,0.0632 0.08365,0.033 0.162304,0.0725 0.228627,0.0994 0.08145,0.0345 0.163895,0.0766 0.211747,0.0968 0.0036,6e-5 0.281582,0.14165 0.202589,0.098 0.06006,0.0277 0.117941,0.0594 0.176263,0.0904 0.0086,0.005 0.0343,0.0182 0.02571,0.0136 -0.0099,-0.005 -0.01981,-0.0105 -0.02971,-0.0157 -1.69e-4,-2.1e-4 -3.44e-4,-5.3e-4 -5.03e-4,-5.3e-4 0.194245,0.0983 0.146917,0.0747 0.282234,0.14495 0.164543,0.0824 -0.07476,-0.0335 0.119331,0.0573 0.08847,0.0458 0.11667,0.055 0.224042,0.1089 0.01632,0.004 0.107,0.0467 0.170571,0.0758 0.01231,0.002 0.156152,0.0657 0.161307,0.0679 0.07297,0.0257 0.143072,0.0586 0.216324,0.0831 0.102818,0.0409 0.208075,0.0743 0.31265,0.11003 0.101545,0.0361 0.204894,0.0666 0.306885,0.1015 0.09882,0.0299 0.197226,0.0612 0.296057,0.0911 0.113078,0.0289 0.223717,0.0663 0.335953,0.0982 0.110741,0.0286 0.219405,0.0646 0.330534,0.0918 0.121589,0.0268 0.240691,0.0634 0.362264,0.0902 0.134306,0.024 0.266769,0.0568 0.400204,0.085 0.125199,0.0253 0.252022,0.0409 0.378059,0.0612 0.134716,0.0255 0.269776,0.0487 0.405646,0.067 0.130424,0.0171 0.261491,0.0285 0.392601,0.0389 0.142964,0.011 0.286105,0.0192 0.429307,0.0263 0.151269,0.007 0.302637,0.0121 0.454013,0.0164 0.161444,0.005 0.322923,0.008 0.484406,0.0103 0.16747,0.003 0.334953,0.005 0.502437,0.006 0.17103,0.002 0.342064,0.003 0.513099,0.004 0.173155,0.001 0.346312,0.002 0.519469,0.002 0.177019,5.3e-4 0.354038,0.001 0.531058,0.001 0.168604,-0.004 0.337863,0.007 0.506317,-0.002 0.174602,-0.01 0.34916,-0.0198 0.523801,-0.0286 0.151706,-0.0171 0.304325,-0.0263 0.45578,-0.0454 0.172472,-0.0221 0.345187,-0.0414 0.517071,-0.0677 0.177214,-0.0237 0.352674,-0.058 0.528873,-0.088 0.174856,-0.0338 0.350158,-0.0649 0.524593,-0.10081 0.197575,-0.0386 0.395224,-0.0768 0.592933,-0.11482 0.202644,-0.0385 0.404201,-0.0819 0.607375,-0.11771 0.194541,-0.0423 0.391394,-0.0725 0.586883,-0.10971 0.22461,-0.0454 0.450942,-0.081 0.677806,-0.11294 0.207472,-0.0363 0.415751,-0.0674 0.624486,-0.0955 0.207793,-0.0265 0.41471,-0.0592 0.622344,-0.087 0.230699,-0.0298 0.462331,-0.0515 0.694098,-0.0709 0.198221,-0.0237 0.396624,-0.0457 0.595268,-0.0656 0.213542,-0.0211 0.427551,-0.0368 0.641659,-0.0507 0.200615,-0.0128 0.401429,-0.0221 0.602277,-0.0303 0.208116,-0.008 0.416213,-0.0158 0.624504,-0.0152 0.193574,0.005 0.387011,0.0136 0.580511,0.0205 0.211569,0.0131 0.422887,0.0321 0.633458,0.0564 0.190767,0.0219 0.379926,0.0538 0.568875,0.0875 0.214445,0.04 0.424797,0.0987 0.633421,0.16179 0.171778,0.0523 0.341439,0.11116 0.50977,0.17355 0.1637,0.0615 0.323932,0.13179 0.482803,0.20473 0.161417,0.0761 0.320199,0.15721 0.47583,0.24447 0.123666,0.0702 0.245242,0.14394 0.367075,0.21725 0.132765,0.0834 0.261681,0.17273 0.390504,0.26207 0.123475,0.0829 0.238688,0.17682 0.355314,0.26884 0.124944,0.0971 0.243393,0.20211 0.357881,0.31122 0.09727,0.0838 0.190097,0.18536 0.271541,0.27633 0.123182,0.12985 0.227701,0.2749 0.325628,0.42419 0.05947,0.097 0.119275,0.19353 0.174215,0.29316 0.07357,0.13128 0.129813,0.27089 0.180147,0.41239 0.04426,0.12688 0.07721,0.25712 0.105344,0.38838 0.0217,0.10595 0.03722,0.21303 0.05085,0.32028 0.01183,0.0971 0.01995,0.19465 0.02719,0.29221 0.0065,0.0896 0.01087,0.1793 0.01461,0.26904 0.0076,0.1258 0.0062,0.25131 0.0029,0.37723 -0.0065,0.0995 -0.02101,0.1982 -0.03135,0.29733 -0.0059,0.0566 -0.01021,0.11328 -0.01416,0.17001 -0.0035,0.12778 -0.02733,0.25333 -0.05034,0.37861 -0.0092,0.0453 -0.01564,0.0909 -0.02138,0.13674 -0.0058,0.0514 -0.0097,0.10295 -0.01336,0.15452 -0.0045,0.0668 -0.0076,0.13377 -0.01019,0.20071 -0.0021,0.13027 -0.01021,0.26002 -0.02516,0.38947 -0.0118,0.0858 -0.02246,0.17173 -0.03089,0.25793 -0.0082,0.082 -0.01333,0.16425 -0.01836,0.24649 -0.0052,0.0905 -0.0088,0.18102 -0.01206,0.27158 -0.0024,0.14266 -0.02455,0.2838 -0.04242,0.42507 -0.0099,0.0797 -0.01722,0.15962 -0.024,0.2396 -0.0085,0.13373 -0.03448,0.26534 -0.05644,0.39726 -0.028,0.14872 -0.06726,0.29508 -0.10858,0.44055 -0.03387,0.11442 -0.0749,0.22634 -0.115286,0.33854 -0.04166,0.11287 -0.08751,0.22427 -0.134232,0.33514 -0.0453,0.10593 -0.09364,0.21041 -0.14416,0.31396 -0.05424,0.10682 -0.112731,0.21086 -0.171294,0.31519 -0.04913,0.0917 -0.106045,0.17898 -0.161081,0.26724 -0.06184,0.0971 -0.127559,0.19164 -0.195855,0.28429 -0.07298,0.10256 -0.154692,0.19781 -0.238014,0.29195 -0.068,0.0667 -0.05479,0.0607 -0.154311,0.15542 -0.01201,0.0114 -0.04732,0.0463 -0.0363,0.034 0.01254,-0.0141 0.02726,-0.0261 0.04088,-0.0391 -0.07367,0.0802 -0.15717,0.14956 -0.239353,0.22062 -0.0039,0.003 0.0083,-0.006 0.01244,-0.009 -0.09681,0.0855 -0.20093,0.16217 -0.305533,0.23773 -0.08888,0.0593 -0.177895,0.11837 -0.269695,0.17316 0.01548,-0.009 0.0579,-0.0421 0.04647,-0.0281 -0.04649,0.057 -0.197221,0.12487 -0.2197,0.13881 -0.130053,0.0748 -0.159504,0.0957 -0.310888,0.17622 0.06679,-0.0356 -0.13418,0.0762 -0.152511,0.0873 -0.102348,0.0572 -0.204023,0.11554 -0.307932,0.16988 -0.03071,0.0149 -0.06157,0.0294 -0.09213,0.0445 -0.0052,0.003 0.02119,-0.01 0.01609,-0.007 -0.0036,0.002 -0.249394,0.11861 -0.169331,0.0847 -0.102713,0.0564 -0.193124,0.0989 -0.25211,0.12886 -0.09821,0.0477 -0.197298,0.0935 -0.296344,0.1395 -0.109821,0.0447 -0.218374,0.0922 -0.328285,0.13666 -0.08761,0.0326 -0.173164,0.0719 -0.301196,0.12021 -0.08879,0.031 -0.185637,0.0722 -0.324729,0.11936 0.0044,-10e-4 0.01752,-0.005 0.01331,-0.004 -0.103182,0.0436 -0.211098,0.0776 -0.317751,0.11141 -0.0932,0.029 -0.193519,0.0647 -0.295103,0.0952 -0.155623,0.0408 -0.188775,0.0503 -0.307203,0.0843 -0.121436,0.0357 -0.245758,0.0619 -0.369139,0.0882 -0.129069,0.0346 -0.259847,0.0621 -0.391104,0.0869 -0.112808,0.0158 -0.221639,0.0405 -0.333502,0.0627 -0.158459,0.0316 -0.318648,0.0531 -0.478983,0.0725 -0.118375,0.0129 -0.235559,0.0352 -0.353367,0.0528 -0.161396,0.0234 -0.323572,0.0407 -0.48595,0.0555 -0.148994,0.0136 -0.298323,0.023 -0.447677,0.0316 -0.144637,0.008 -0.289378,0.0136 -0.434144,0.0186 -0.140179,0.005 -0.280407,0.008 -0.420637,0.0109 -0.14344,0.003 -0.286898,0.005 -0.430358,0.007 -0.145319,0.002 -0.290644,0.003 -0.43597,0.004 -0.187035,0.005 -0.373725,-0.007 -0.560204,-0.0195 -0.141983,-0.01 -0.284129,-0.0173 -0.426316,-0.0236 -0.178149,-0.006 -0.355995,-0.0126 -0.5336,-0.028 -0.148765,-0.0147 -0.297732,-0.027 -0.446857,-0.0374 -0.144784,-0.01 -0.289705,-0.0172 -0.434676,-0.0236 -0.152306,-0.006 -0.30469,-0.0108 -0.457081,-0.0147 -0.162026,-0.004 -0.32408,-0.007 -0.486136,-0.009 -0.197563,0.001 -0.394537,-0.0137 -0.591435,-0.0278 -0.161747,-0.0118 -0.323682,-0.0206 -0.485666,-0.0284 -0.18267,-0.008 -0.365443,-0.0126 -0.547982,-0.0236 -0.173329,-0.0135 -0.346434,-0.0296 -0.519806,-0.0426 -0.181505,-0.009 -0.362229,-0.0261 -0.542738,-0.047 -0.169915,-0.018 -0.339755,-0.0347 -0.508934,-0.0589 -0.1375,-0.021 -0.275619,-0.0374 -0.413894,-0.0523 -0.162834,-0.0218 -0.324893,-0.0485 -0.48792,-0.0689 -0.17028,-0.0169 -0.33994,-0.0381 -0.509306,-0.0625 -0.154012,-0.0231 -0.309028,-0.038 -0.463398,-0.0583 -0.170278,-0.0267 -0.341492,-0.0465 -0.512,-0.0715 -0.174032,-0.0294 -0.349116,-0.0517 -0.523277,-0.0802 -0.171982,-0.0309 -0.344484,-0.0583 -0.516112,-0.0911 -0.169261,-0.029 -0.336783,-0.0669 -0.505336,-0.0996 -0.188068,-0.0414 -0.376446,-0.0812 -0.563942,-0.1251 -0.183898,-0.0403 -0.367184,-0.0834 -0.54961,-0.12985 -0.18861,-0.0481 -0.376499,-0.099 -0.563557,-0.15282 -0.181714,-0.0533 -0.364406,-0.10317 -0.546259,-0.15595 -0.191919,-0.0553 -0.383658,-0.11123 -0.574583,-0.16984 -0.186648,-0.057 -0.373327,-0.1139 -0.559242,-0.17323 -0.189312,-0.0612 -0.377473,-0.12597 -0.565644,-0.1906 -0.181674,-0.0578 -0.359801,-0.12593 -0.539913,-0.18828 -0.199849,-0.0691 -0.3947617,-0.15107 -0.5897445,-0.23259 -0.1810084,-0.0722 -0.3611483,-0.14654 -0.5391478,-0.22587 -0.1632228,-0.0765 -0.3277696,-0.15011 -0.4915086,-0.22553 -0.1749843,-0.0827 -0.3480434,-0.16911 -0.5198496,-0.25815 -0.1868739,-0.0953 -0.3675229,-0.2016 -0.5450837,-0.31308 -0.1510464,-0.0945 -0.3000192,-0.19227 -0.4473911,-0.29236 -0.1598861,-0.11185 -0.317002,-0.2274 -0.4692121,-0.3495 C 6.6265701,290.7045 6.4916096,290.58991 6.3593679,290.47219 6.2263773,290.35471 6.09877,290.23145 5.973533,290.1058 5.866209,290.00148 5.7615073,289.89456 5.6585198,289.78595 5.5561578,289.6795 5.4567721,289.5703 5.3589831,289.45966 c -0.078856,-0.0899 -0.1578882,-0.17974 -0.2361999,-0.27024 -0.093881,-0.10463 -0.1731115,-0.22124 -0.2613062,-0.33027 -0.083007,-0.1114 -0.1578594,-0.22851 -0.2353989,-0.3437 -0.075609,-0.0932 -0.1212467,-0.20927 -0.1946268,-0.30358 -0.06928,-0.10755 -0.1367628,-0.2162 -0.204239,-0.32488 -0.068692,-0.11847 -0.1411086,-0.23467 -0.2103895,-0.35279 -0.072691,-0.12143 -0.1428869,-0.2444 -0.2110346,-0.36845 -0.060364,-0.10194 -0.1139057,-0.20815 -0.1760206,-0.30905 -0.075904,-0.13413 -0.1474314,-0.27079 -0.2182371,-0.40769 -0.069047,-0.10788 -0.1072928,-0.2342 -0.173105,-0.34328 -0.077601,-0.14985 -0.1432808,-0.30505 -0.2018196,-0.46319 -0.037746,-0.0941 -0.081251,-0.27021 -0.1002954,-0.32036 -0.045207,-0.12778 -0.082621,-0.258 -0.1160729,-0.3893 -0.044573,-0.1815 -0.05617,-0.36786 -0.064475,-0.55374 -0.010091,-0.15145 -0.00407,-0.30292 0.010538,-0.45385 0.00973,-0.13334 0.037128,-0.26413 0.063176,-0.39494 0.039839,-0.18829 0.103687,-0.3693 0.1779704,-0.54636 0.059147,-0.13709 0.1292666,-0.26864 0.2034936,-0.39804 0.079714,-0.13692 0.1733638,-0.26457 0.2662016,-0.39263 0.083991,-0.11387 0.1769559,-0.22055 0.2661811,-0.33021 0.097866,-0.1166 0.2015263,-0.22792 0.3073437,-0.33729 0.097479,-0.0967 0.19851,-0.18962 0.2989099,-0.28295 0.085528,-0.0813 0.1857385,-0.17222 0.2880315,-0.2577 0.092063,-0.0856 0.1942549,-0.15934 0.2966595,-0.23182 -0.00355,0.002 -0.00788,0.01 -0.010642,0.007 -0.00526,-0.006 0.267004,-0.18068 0.2809054,-0.18922 -0.1172172,0.0612 0.1852727,-0.11527 0.2706611,-0.15924 0.1015077,-0.0584 0.2085779,-0.10617 0.3165552,-0.15112 0.067018,-0.0373 0.1641276,-0.0682 0.2391156,-0.10202 0.12607,-0.0552 0.2562495,-0.0998 0.3875558,-0.14055 0.097542,-0.0366 0.197503,-0.0667 0.2975586,-0.0957 0.1450729,-0.0417 0.2931406,-0.0711 0.4418288,-0.0964 0.123063,-0.0205 0.2469531,-0.0355 0.3709964,-0.0486 0.11645,-0.0117 0.2332037,-0.0199 0.3499919,-0.0272 0.1076933,-0.007 0.2154798,-0.0114 0.3232956,-0.0154 0.1578351,-0.01 0.3155935,7.9e-4 0.4727165,0.0156 0.1414704,0.009 0.2806793,0.0362 0.4189995,0.066 0.1974122,0.04 0.3752802,0.1252 0.5528053,0.21701 1.7267574,1.00039 0.3119943,3.4424 -1.4147633,2.44201 v 0 c 0.1078913,0.0518 0.1706592,0.0838 0.2658142,0.0995 -0.1657557,-0.036 0.1097547,0.003 -0.039454,-0.0103 -0.016142,-0.002 -0.032281,-0.003 -0.048423,-0.004 -0.01098,-10e-4 -0.021958,-0.002 -0.032939,-0.003 -0.098272,-0.009 0.1143955,-0.008 -0.025276,-0.003 -0.01505,5.3e-4 -0.030095,0.001 -0.045143,0.002 -0.083399,0.003 -0.1667714,0.007 -0.2500791,0.0118 -0.078304,0.005 -0.1565955,0.0102 -0.2347082,0.0176 -0.06654,0.007 -0.1330042,0.0146 -0.1990389,0.0253 -0.042242,0.007 -0.084388,0.0139 -0.1257763,0.0248 -0.087804,0.0249 -0.1733544,0.0565 -0.2601867,0.0846 -0.04621,0.0139 -0.091621,0.0304 -0.1355328,0.051 -0.076157,0.0307 -0.1485615,0.0591 -0.2365807,0.10098 -0.023037,0.009 0.00209,-2.6e-4 0.0076,-0.005 0.01402,-0.0125 -0.129236,0.0709 -0.1219269,0.0638 0.1061808,-0.0665 -0.088747,0.0568 -0.1112316,0.0719 0.09207,-0.0611 -0.096515,0.0641 -0.1149744,0.084 0.095342,-0.0734 -0.099494,0.0751 -0.1095745,0.0926 0.073544,-0.069 -0.1151041,0.1043 -0.1524196,0.14049 -0.057936,0.0515 -0.1375564,0.12918 -0.1836629,0.1705 -0.054829,0.0566 -0.1103575,0.11262 -0.160573,0.17336 -0.054161,0.0651 -0.1128673,0.13352 -0.162107,0.19644 -0.016174,0.022 -0.1412029,0.19438 -0.09714,0.1324 -0.031775,0.0553 -0.029935,0.043 -0.065547,0.12431 0.027233,-0.0779 0.00249,-0.006 0.00353,-0.0122 0.014658,-0.0941 -0.03039,0.14591 -2.321e-4,-0.0162 -0.00379,0.0188 -0.00752,0.0375 -0.011382,0.0563 -0.00259,0.0126 -0.00935,0.0504 -0.00828,0.0376 0.011655,-0.13925 0.00389,-0.009 -0.00177,0.022 -8.467e-4,0.008 -6.35e-4,0.0163 -0.00251,0.0242 -0.00108,0.005 1.674e-4,-0.009 1.023e-4,-0.0141 -3.175e-4,-0.0232 -0.00127,-0.0463 -0.00127,-0.0695 1.12e-5,-0.0371 0.00301,0.1483 0.00406,0.11122 0.00461,0.10636 0.00941,0.11221 -0.018918,-0.0137 0.013555,0.0545 0.02858,0.10854 0.048073,0.16132 0.031834,0.0939 0.059436,0.18896 0.087472,0.28398 0.015108,0.0552 0.047942,0.10451 0.070511,0.15673 0.052261,0.10651 0.1019019,0.21424 0.1601645,0.31774 0.046408,0.0925 0.096256,0.18344 0.145325,0.27452 0.07146,0.12415 0.1421119,0.24876 0.2124916,0.37354 0.055195,0.10093 0.1125313,0.20071 0.1718265,0.29928 0.056846,0.0973 0.1174356,0.19236 0.1728396,0.29052 0.058107,0.0936 0.1157126,0.18745 0.1757148,0.27988 0.056598,0.0889 0.1109763,0.17933 0.170233,0.26653 0.044837,0.0671 0.1064971,0.16102 0.138177,0.20746 0.052759,0.0703 0.082996,0.11479 0.1477555,0.19025 0.074453,0.086 0.1488699,0.17208 0.2246278,0.25695 0.071928,0.0845 0.1494137,0.16385 0.2252411,0.24478 0.089351,0.0943 0.1804321,0.18683 0.2737483,0.27722 0.082049,0.085 0.1690634,0.16483 0.2568072,0.24386 0.097716,0.0873 0.1977591,0.17167 0.3018224,0.25133 0.094046,0.077 0.1934006,0.14678 0.2920703,0.21764 0.1188958,0.0835 0.243036,0.15969 0.3652864,0.23816 0.1061927,0.07 0.2178897,0.13078 0.3305228,0.18964 0.1330169,0.069 0.2668233,0.13618 0.4021421,0.20057 0.157103,0.0724 0.314959,0.14316 0.471647,0.21647 0.152698,0.0714 0.311549,0.12921 0.466896,0.19446 0.141674,0.0593 0.28282,0.12004 0.427904,0.17067 0.176591,0.0616 0.351618,0.1277 0.52978,0.18477 0.170145,0.0585 0.340209,0.11726 0.511399,0.17258 0.175866,0.057 0.353231,0.1094 0.529867,0.16397 0.176739,0.0552 0.355046,0.10541 0.53279,0.15728 0.180024,0.0532 0.36163,0.10102 0.541564,0.15458 0.159683,0.0472 0.321046,0.0886 0.482183,0.13051 0.161517,0.0428 0.325096,0.0775 0.487981,0.11468 0.153071,0.0359 0.306966,0.0678 0.460228,0.10285 0.165694,0.0324 0.330443,0.0693 0.496869,0.098 0.151387,0.0291 0.30372,0.0524 0.455363,0.0802 0.15708,0.0296 0.317249,0.0421 0.474321,0.0723 0.156878,0.0259 0.315897,0.0386 0.472642,0.0658 0.160542,0.0249 0.32363,0.0332 0.48385,0.0612 0.152717,0.0221 0.305684,0.0399 0.459199,0.0557 0.146577,0.0186 0.29297,0.0388 0.438713,0.0631 0.171346,0.0186 0.342517,0.039 0.512952,0.0648 0.14265,0.0208 0.286364,0.0317 0.429547,0.0486 0.143353,0.0166 0.286609,0.0296 0.430861,0.0363 0.164672,0.0124 0.329164,0.0269 0.493717,0.0408 0.165321,0.0144 0.332185,0.008 0.497708,0.0207 0.184055,0.009 0.368054,0.0189 0.551841,0.0323 0.144079,0.0103 0.287977,0.0234 0.432597,0.0209 0.171918,0.003 0.343834,0.006 0.51572,0.01 0.169743,0.004 0.339479,0.009 0.509126,0.0165 0.169041,0.007 0.338025,0.0162 0.506844,0.0277 0.167005,0.0117 0.333874,0.0252 0.500483,0.0416 0.136198,0.0126 0.27297,0.0133 0.409618,0.0197 0.163918,0.007 0.327791,0.0158 0.491479,0.0273 0.116455,0.008 0.232619,0.0185 0.349465,0.013 0.140932,-10e-4 0.281864,-0.002 0.422791,-0.004 0.134936,-0.002 0.269871,-0.003 0.404788,-0.006 0.127956,-0.003 0.25591,-0.005 0.383819,-0.01 0.122952,-0.004 0.245885,-0.009 0.368731,-0.0156 0.11811,-0.007 0.23621,-0.0139 0.354037,-0.0247 0.108571,-0.01 0.217003,-0.0211 0.324969,-0.0363 0.143997,-0.0212 0.287163,-0.0486 0.432046,-0.0634 0.08928,-0.0106 0.178599,-0.0216 0.266888,-0.0388 0.122346,-0.0242 0.24421,-0.0514 0.36772,-0.0692 0.08698,-0.0153 0.172646,-0.0368 0.258115,-0.0589 0.08146,-0.0184 0.163737,-0.0335 0.244263,-0.0558 0.09032,-0.0253 0.179956,-0.0532 0.271486,-0.0739 0.08951,-0.0264 0.176289,-0.0609 0.2661,-0.0864 0.08859,-0.0232 0.170526,-0.0676 0.258363,-0.0931 0.07368,-0.0198 0.141586,-0.0643 0.216386,-0.0812 0.07984,-0.0296 0.157062,-0.0657 0.236898,-0.0952 0.06199,-0.0249 0.173233,-0.0753 0.208923,-0.0853 0.0679,-0.0286 0.136657,-0.0646 0.196707,-0.0915 0.09729,-0.049 0.130212,-0.0625 0.224237,-0.11456 0.08742,-0.044 0.166367,-0.084 0.256788,-0.12903 0.0036,-0.002 -0.007,0.004 -0.01045,0.006 0.05422,-0.0277 0.10622,-0.0609 0.160626,-0.0876 0.100542,-0.0599 0.203335,-0.11561 0.305541,-0.17256 -0.03744,0.0236 0.02787,-0.015 0.03329,-0.0182 0.03072,-0.0179 0.06138,-0.0358 0.09207,-0.0537 -0.0062,0.004 -0.02548,0.0148 -0.01876,0.0118 0.008,-0.004 0.01513,-0.009 0.0227,-0.0136 0.202414,-0.11803 -0.01143,0.004 0.216371,-0.13671 -0.04198,0.0322 0.07213,-0.0505 0.09208,-0.0592 -0.105783,0.0819 0.13526,-0.10772 0.02003,-0.0103 0.02527,-0.0228 0.197924,-0.17333 0.06296,-0.0535 -0.0088,0.008 0.02066,-0.0191 0.02043,-0.0187 -0.0033,0.005 -0.0075,0.008 -0.01127,0.0124 0.02902,-0.0293 0.05788,-0.0589 0.08706,-0.088 0.0051,-0.005 0.02064,-0.0198 0.01598,-0.0144 -0.0057,0.007 -0.02392,0.026 -0.01778,0.0197 0.05287,-0.0549 0.09599,-0.10243 0.05601,-0.0585 -0.104217,0.1246 0.01154,-0.0134 0.02972,-0.0419 0.02432,-0.0326 0.04732,-0.0661 0.07032,-0.0997 0.0913,-0.14635 0.04577,-0.0654 0.09909,-0.16292 0.0289,-0.0509 0.04462,-0.0798 0.0915,-0.16353 0.0613,-0.12562 0.01818,-0.033 0.08906,-0.194 0.028,-0.0684 0.05474,-0.12907 0.07528,-0.18709 0.03226,-0.0876 0.03173,-0.0792 0.06249,-0.17978 -0.01783,0.08 0.04259,-0.18301 0.02793,-0.0933 0.02307,-0.13837 0.02487,-0.1221 0.02825,-0.17281 0.01011,-0.11851 0.02141,-0.23693 0.03621,-0.35496 0.0051,-0.0402 0.0089,-0.0707 0.01423,-0.11113 0.0019,-0.0149 0.0063,-0.0597 0.0066,-0.0447 2.51e-4,0.0118 -0.0016,0.047 -7.94e-4,0.0353 0.0011,-0.0174 0.0013,-0.0347 0.0019,-0.0521 0.0042,-0.11409 0.0088,-0.22816 0.01551,-0.34212 0.0072,-0.11779 0.01508,-0.23558 0.02692,-0.35301 0.01085,-0.10793 0.0231,-0.2157 0.03813,-0.32313 2.06e-4,0.13226 0.0032,-0.13646 0.0062,-0.15472 0.0039,-0.0981 0.0085,-0.19625 0.01537,-0.29424 0.0075,-0.10286 0.01595,-0.20567 0.02867,-0.30804 0.0127,-0.0989 0.02731,-0.19763 0.04623,-0.29559 0.03733,-0.19975 -0.01296,0.1934 0.0097,-0.06 0.0064,-0.0914 0.01363,-0.18275 0.02334,-0.27387 0.0011,-0.009 0.02262,-0.21384 0.02013,-0.1618 7.94e-4,0.195 -0.0016,-0.0496 -0.0053,-0.0956 -0.0024,-0.06 -0.0052,-0.12001 -0.0095,-0.17992 -0.0034,-0.0483 -0.0074,-0.0966 -0.01254,-0.14479 -0.0042,-0.0341 -0.0085,-0.0682 -0.01458,-0.10196 -0.0016,-0.009 0.0024,0.004 -0.0046,-0.0217 -0.0011,-0.003 -0.005,-0.0129 -0.0028,-0.0102 0.0029,0.004 0.0033,0.009 0.0049,0.0128 -0.02429,-0.07 0.03149,0.0655 0.0036,-8e-4 -0.0241,-0.0469 -0.05544,-0.0898 -0.08151,-0.13569 0.0058,0.008 0.01114,0.0163 0.01733,0.0239 0.0303,0.0373 -0.02387,-0.0316 -0.01669,-0.0246 0.04226,0.0412 7.94e-4,0.005 -0.007,-0.01 -0.128591,-0.14059 -0.01191,-0.0233 -0.159608,-0.16277 -0.05819,-0.0568 -0.09005,-0.0833 -0.153617,-0.13337 -0.082,-0.0648 -0.129519,-0.10714 -0.217231,-0.16648 -0.07884,-0.055 -0.158191,-0.10935 -0.237762,-0.16305 -0.10373,-0.0627 -0.207436,-0.12548 -0.312873,-0.18535 -0.08196,-0.0446 -0.165086,-0.0875 -0.24947,-0.12791 -0.100557,-0.0462 -0.201488,-0.0917 -0.30525,-0.13043 -0.112053,-0.0475 -0.231163,-0.078 -0.346141,-0.11722 -0.09524,-0.0334 -0.194913,-0.0548 -0.292772,-0.0789 -0.137237,-0.0245 -0.274219,-0.0492 -0.412954,-0.0641 -0.130873,-0.0184 -0.263522,-0.0232 -0.39488,-0.0377 -0.168939,-0.006 -0.337833,-0.0133 -0.506788,-0.0188 -0.160385,-0.006 -0.32118,0.0114 -0.481544,0.013 -0.178284,0.007 -0.356545,0.0154 -0.534625,0.0268 -0.181909,0.0118 -0.363741,0.025 -0.545174,0.0428 -0.213347,0.0212 -0.426191,0.0467 -0.639358,0.0696 -0.185753,0.0155 -0.371417,0.0325 -0.55636,0.056 -0.207264,0.0276 -0.413736,0.0607 -0.621189,0.0868 -0.203125,0.0271 -0.40538,0.0595 -0.607502,0.0931 -0.184469,0.0257 -0.368403,0.0549 -0.550924,0.0922 -0.205987,0.038 -0.412651,0.0723 -0.617721,0.1153 -0.188449,0.0328 -0.374943,0.075 -0.563041,0.10956 -0.185358,0.0355 -0.37062,0.0715 -0.555883,0.10746 -0.206263,0.0424 -0.413452,0.0797 -0.620369,0.1188 -0.192327,0.0326 -0.383918,0.0696 -0.577294,0.0958 -0.204307,0.031 -0.409415,0.0552 -0.61446,0.0808 -0.213186,0.024 -0.426939,0.0437 -0.640792,0.0608 -0.190465,0.01 -0.380798,0.0215 -0.571287,0.0306 -0.202294,0.006 -0.404604,0.003 -0.606966,0.003 -0.178487,-2.6e-4 -0.356974,-7.9e-4 -0.535461,-0.002 -0.175421,-5.3e-4 -0.350843,-10e-4 -0.526263,-0.002 -0.174828,-10e-4 -0.349656,-0.002 -0.524479,-0.004 -0.173908,-0.002 -0.347814,-0.004 -0.521707,-0.007 -0.172562,-0.003 -0.345119,-0.006 -0.517639,-0.0111 -0.170879,-0.005 -0.341747,-0.0104 -0.512503,-0.0187 -0.171005,-0.008 -0.34194,-0.0184 -0.512655,-0.0316 -0.184685,-0.0147 -0.369263,-0.0314 -0.552917,-0.0562 -0.162589,-0.0225 -0.324713,-0.048 -0.485882,-0.0792 -0.167245,-0.0307 -0.33756,-0.0453 -0.503316,-0.085 -0.145314,-0.0312 -0.289823,-0.0656 -0.435948,-0.0929 -0.143355,-0.0329 -0.284957,-0.0722 -0.428068,-0.10599 -0.14135,-0.0361 -0.281018,-0.0778 -0.421667,-0.11641 -0.12751,-0.037 -0.253881,-0.0775 -0.38214,-0.11192 -0.128886,-0.0398 -0.25761,-0.0792 -0.386128,-0.12038 -0.110129,-0.0383 -0.222704,-0.0691 -0.331898,-0.11023 -0.07412,-0.0243 -0.192891,-0.063 -0.283205,-0.0998 -0.107794,-0.0372 -0.213317,-0.0797 -0.319533,-0.12062 -0.115337,-0.0459 -0.208333,-0.0885 -0.319922,-0.13474 -0.09808,-0.0449 -0.117845,-0.0525 -0.269381,-0.12338 -0.02526,-0.0132 -0.114922,-0.0528 -0.17106,-0.0828 0.101658,0.0404 -0.319784,-0.1439 -0.25805,-0.12861 0.19915,0.0966 -0.316987,-0.15639 -0.06677,-0.0382 -0.0055,-0.002 -0.4075929,-0.1974 -0.1753,-0.0892 -0.01687,-0.008 -0.2401381,-0.1122 -0.159715,-0.0793 -0.0166,-0.007 -0.2613888,-0.11487 -0.1741076,-0.0811 -0.019264,-0.008 -0.2521968,-0.10545 -0.1786003,-0.0796 -0.099769,-0.0387 -0.1983756,-0.0801 -0.2951454,-0.12581 0.1563399,0.06 -0.1685835,-0.0648 -0.1972376,-0.0817 -1.8342573,-0.7861 -0.7225294,-3.38014 1.1117279,-2.59403 z"
       id="path5399"
       style="fill:#000000;fill-opacity:1;fill-rule:nonzero;stroke:none;stroke-width:0.26458332" />
    <path
       inkscape:connector-curvature="0"
       d="m 9.8607276,282.8665 c -0.1205395,-0.0666 -0.234882,-0.14357 -0.3479716,-0.22188 -0.1108646,-0.0791 -0.2171014,-0.16461 -0.3203956,-0.25331 -0.1024591,-0.0891 -0.200828,-0.1825 -0.2965505,-0.27874 -0.061225,-0.0588 -0.1200269,-0.12031 -0.1788769,-0.18117 -0.00574,-0.005 -0.01165,-0.0108 -0.017216,-0.0165 -0.045773,-0.0465 -0.098594,-0.0999 -0.1434521,-0.14772 -0.041855,-0.0446 -0.064075,-0.0722 -0.039275,-0.0418 -0.091508,-0.0984 -0.1548358,-0.16635 -0.2110918,-0.22465 -0.07719,-0.085 -0.1000908,-0.10632 -0.1576022,-0.16355 -0.085835,-0.0848 -0.1683912,-0.16758 -0.2478715,-0.24767 -0.065753,-0.0632 -0.1363151,-0.1339 -0.1966235,-0.19502 -0.089808,-0.088 -0.1772335,-0.17826 -0.263426,-0.26985 0.030029,0.0507 -0.270034,-0.31553 -0.22186,-0.2456 -0.086037,-0.0982 -0.1661128,-0.20128 -0.246208,-0.30426 -0.074266,-0.0988 -0.1472015,-0.1983 -0.2150073,-0.30165 -0.027325,-0.031 -0.1973898,-0.31623 -0.1267653,-0.19624 -0.073341,-0.11532 -0.096276,-0.15256 -0.1552732,-0.24562 -0.071014,-0.12637 -0.07852,-0.13012 -0.1523285,-0.26001 -0.037368,-0.0657 -0.077615,-0.12993 -0.1157999,-0.19563 -0.015473,-0.0235 -0.1934292,-0.3782 -0.082242,-0.16034 -0.059436,-0.0981 -0.1075444,-0.20214 -0.1542375,-0.30669 -0.045117,-0.1052 -0.079021,-0.21455 -0.1097209,-0.32467 -0.026403,-0.0982 -0.046471,-0.1979 -0.063162,-0.29814 -0.011811,-0.07 -0.020214,-0.14051 -0.028107,-0.21105 -0.023326,-0.17534 -0.010811,-0.35201 0.017619,-0.52571 0.00875,-0.0491 0.00731,-0.0428 0.013216,-0.0879 0.00369,-0.0744 0.04144,-0.2317 0.07201,-0.33004 0.00733,-0.0236 0.036063,-0.10288 0.016163,-0.0478 -1.609e-4,-0.005 0.1365991,-0.34059 0.088711,-0.2349 0.046269,-0.11442 0.104862,-0.22633 0.1675122,-0.33491 -0.00322,0.005 -0.012785,0.0213 -0.00965,0.016 0.062879,-0.10796 0.087309,-0.14579 0.1402289,-0.23232 0.036302,-0.0578 0.087622,-0.14203 0.1421255,-0.22791 0.043375,-0.0672 0.089675,-0.13909 0.1363355,-0.21393 0.061752,-0.0925 0.1007428,-0.16021 0.163761,-0.2589 0.01197,-0.0187 0.095748,-0.14795 0.049419,-0.0777 0.037138,-0.0758 0.079185,-0.14904 0.1226323,-0.22139 0.039962,-0.0595 0.082452,-0.14515 0.00563,-0.005 0.1860749,-0.32063 0.042422,-0.0948 0.2227842,-0.3633 0.1206696,-0.15857 0.1174539,-0.15 0.1980023,-0.24133 0.06214,-0.0662 0.1276389,-0.12916 0.1925349,-0.19265 0.085253,-0.0803 0.1629772,-0.14582 0.2661123,-0.23141 0.028992,-0.0225 0.057684,-0.0453 0.086976,-0.0674 0.040246,-0.0303 0.081961,-0.0606 0.1234379,-0.0895 0.078835,-0.0548 0.1153332,-0.0754 0.075982,-0.0529 0.073443,-0.0568 0.1521421,-0.10626 0.2280642,-0.1596 0.078007,-0.0583 0.1635276,-0.10509 0.2451365,-0.15781 0.1074203,-0.074 0.2228636,-0.13422 0.3395795,-0.19177 0.2101209,-0.0885 0.056185,-0.0279 0.2733288,-0.11699 0.1162995,-0.0478 0.2670628,-0.0883 0.3362434,-0.10987 0.1309539,-0.041 0.265103,-0.0707 0.3989657,-0.0998 0.1586126,-0.0402 0.3195466,-0.0696 0.4810436,-0.0954 0.137401,-0.0284 0.275552,-0.0532 0.413999,-0.0759 0.162542,-0.026 0.325979,-0.0456 0.489621,-0.0632 0.136992,-0.0146 0.274284,-0.026 0.411661,-0.0362 0.111649,-0.008 0.22339,-0.0151 0.33517,-0.0212 0.0931,-0.005 0.186254,-0.009 0.279424,-0.0129 0.08867,-0.003 0.177383,-0.006 0.266098,-0.008 0.08998,-0.002 0.179981,-0.003 0.269979,-0.005 0.09936,-10e-4 0.198734,-0.002 0.298104,-0.003 0.01082,-10e-4 0.354103,-5.2e-4 0.225952,-0.002 0.0904,-0.0103 0.180953,-0.0193 0.271531,-0.0279 0.159692,-0.0139 0.319766,-0.005 0.479495,0.002 0.140884,0.003 0.280758,0.0176 0.419738,0.0403 0.117756,0.0174 0.234569,0.0388 0.350275,0.067 0.110405,0.0279 0.220013,0.0578 0.327952,0.0943 0.07044,0.0261 0.0531,0.0192 0.101558,0.0318 0.09486,0.0244 0.18527,0.0619 0.278058,0.0922 -0.04729,-0.0216 0.161383,0.0566 0.195022,0.0694 0.036,0.0137 0.04457,0.0176 0.02497,0.009 0.07935,0.0229 0.154997,0.0563 0.232265,0.085 0.07992,0.0287 0.156601,0.0652 0.235264,0.0969 0.104305,0.0465 0.208507,0.093 0.310899,0.14367 0.107496,0.0546 0.173566,0.0881 0.269248,0.13777 0.06315,0.0309 0.115437,0.0617 0.185319,0.0916 0.06121,0.0189 0.117858,0.0668 0.178642,0.0812 0.09696,0.0441 0.197475,0.0785 0.297322,0.11508 0.093,0.0382 0.189318,0.0666 0.28459,0.0982 0.101386,0.0367 0.204765,0.0671 0.307195,0.10058 0.09754,0.0354 0.196943,0.0649 0.295486,0.0972 0.107268,0.0376 0.215332,0.0724 0.32177,0.11231 0.08634,0.0286 0.17053,0.0634 0.256552,0.0928 0.09306,0.0282 0.182437,0.0674 0.274666,0.098 0.08582,0.0207 0.166658,0.0577 0.251382,0.0819 0.101375,0.0264 0.19961,0.0633 0.299773,0.0937 0.09255,0.0261 0.185661,0.0499 0.277699,0.078 0.05644,0.0179 0.113349,0.0348 0.171442,0.0464 0.110287,0.0206 0.219151,0.0474 0.327324,0.0771 0.04553,0.0127 0.09191,0.0214 0.138358,0.0298 0.05091,0.008 0.102079,0.0148 0.153412,0.0198 0.07375,0.008 0.147741,0.0123 0.221731,0.0167 0.08676,0.005 0.17359,0.008 0.260434,0.0114 0.09693,0.003 0.193878,0.005 0.290835,0.007 0.102587,0.002 0.205186,0.003 0.307785,0.005 0.105545,10e-4 0.211093,0.002 0.316642,0.003 0.105177,7.9e-4 0.210355,10e-4 0.315533,0.002 0.103188,5.3e-4 0.206376,7.9e-4 0.309564,10e-4 0.100979,2.6e-4 0.201957,5.3e-4 0.302936,5.3e-4 0.09826,1.6e-4 0.196521,2.6e-4 0.294782,5.2e-4 -0.04764,0.003 0.190865,-0.002 0.143188,1.4e-4 -0.104602,0.005 -0.04092,-0.002 -0.02062,-0.004 0.0064,-0.004 0.366685,-0.0345 0.243335,-0.0255 0.09296,-0.0185 0.186635,-0.0336 0.280354,-0.0478 0.02921,-0.002 0.09093,-0.0198 0.198735,-0.0424 0.123992,-0.0208 0.119451,-0.0235 0.239435,-0.0527 0.0744,-0.0179 0.243267,-0.0525 0.252996,-0.0554 0.100448,-0.0282 0.202542,-0.0495 0.304303,-0.0722 0.01154,-0.003 -0.02319,0.005 -0.03478,0.007 0.107132,-0.0318 0.21551,-0.0589 0.324444,-0.0837 0.06614,-0.0124 0.08414,-0.0226 0.226283,-0.0595 0.126067,-0.0278 0.108596,-0.0268 0.232486,-0.0622 0.173689,-0.0478 0.02463,-0.006 0.212856,-0.0664 0.156116,-0.0448 0.0788,-0.0245 0.246227,-0.0793 0.151976,-0.0443 0.09108,-0.029 0.25395,-0.083 0.149449,-0.044 0.09803,-0.0317 0.258193,-0.085 0.07469,-0.0245 0.16945,-0.0611 0.264782,-0.0928 0.143857,-0.0428 0.100629,-0.0302 0.232481,-0.0762 0.113882,-0.0347 0.127535,-0.0435 0.243801,-0.0847 0.02848,-0.009 0.09966,-0.0401 0.146462,-0.0592 0.07847,-0.033 0.153768,-0.0684 0.231021,-0.10351 0.05226,-0.0228 0.103619,-0.0474 0.155001,-0.0722 0.0045,-0.002 -0.01849,0.007 -0.01426,0.005 0.127368,-0.0674 0.186799,-0.0969 0.291425,-0.15016 0.122862,-0.0576 0.09098,-0.0468 0.223409,-0.11481 0.07253,-0.0353 0.062,-0.031 0.123407,-0.067 0.09051,-0.0522 0.185058,-0.0967 0.279601,-0.14099 0.08878,-0.0412 0.18111,-0.0736 0.273516,-0.10547 0.249494,-0.0819 -0.03056,0.0107 -0.110794,0.0502 0.216471,-0.12058 0.456245,-0.17239 0.70031,-0.18918 0.05133,-0.003 0.102711,-0.005 0.154101,-0.007 0.04772,-10e-4 0.09545,-0.002 0.143174,-0.003 0.0476,-8e-4 0.0952,-10e-4 0.142801,-0.002 0.04953,-5.3e-4 0.09906,-7.9e-4 0.14859,-10e-4 0.04774,-2.7e-4 0.09549,-5.3e-4 0.143227,-5.3e-4 0.1559,-0.005 0.310784,0.016 0.462372,0.0507 0.07632,0.0193 0.04549,0.0112 0.07331,0.0166 0.134114,0.0249 0.258294,0.0749 0.383116,0.12599 -0.25324,-0.13007 0.445511,0.22068 0.186836,0.0875 0.109654,0.0405 0.200996,0.10867 0.29669,0.17204 0.01738,0.0115 -0.03404,-0.024 -0.05143,-0.0355 0.100534,0.0584 0.157176,0.10792 0.241004,0.17648 0.02146,0.0176 -0.04245,-0.0357 -0.06425,-0.0528 0.127134,0.10016 0.113953,0.0839 0.208269,0.17384 0.01476,0.0141 0.05858,0.0568 0.04328,0.0433 -0.03364,-0.0296 -0.248883,-0.2217 0.0096,0.003 -0.06563,-0.0675 0.128471,0.12745 0.09541,0.0966 -0.02492,-0.0233 -0.105667,-0.0638 -0.07259,-0.0721 0.0172,-0.004 0.125484,0.12389 0.147288,0.1472 0.06561,0.0714 -0.02056,-0.0233 0.12206,0.14569 0.01913,0.0227 -0.07113,-0.0841 -0.03031,-0.041 0.03174,0.0374 0.063,0.0753 0.09522,0.11226 0.08258,0.0949 -0.06801,-0.0813 -0.04127,-0.0509 0.0909,0.10307 0.124635,0.14363 0.05897,0.0657 -0.0088,-0.0309 0.292044,0.35074 0.11085,0.12658 0.02146,0.001 0.297682,0.39664 0.176061,0.22048 -0.0029,-0.004 -0.01148,-0.0155 -0.0086,-0.0116 0.07794,0.10382 0.146148,0.20749 0.211799,0.31939 -0.02265,-0.0491 0.09792,0.19274 0.07257,0.145 -0.0074,-0.0138 -0.028,-0.056 -0.01992,-0.0426 0.0721,0.12384 0.128445,0.25556 0.176721,0.39023 0.01934,0.016 0.125645,0.49198 0.06845,0.24668 -0.0016,-0.006 -0.0071,-0.0242 -0.0051,-0.0183 0.02764,0.0818 0.05062,0.16533 0.07209,0.24892 0.0288,0.11538 0.04829,0.23273 0.06545,0.3503 0.0072,0.0359 0.03758,0.33791 0.01587,0.13256 0.03852,0.15802 0.04882,0.32047 0.05243,0.48243 0.0013,0.0866 0.0013,0.17329 0.0013,0.25994 0.0028,0.13673 -0.0024,0.27309 -0.01566,0.40922 -0.01328,0.1155 -0.0272,0.23076 -0.04367,0.34585 -0.02162,0.11677 -0.04274,0.23361 -0.0663,0.35 -0.02939,0.12762 -0.05882,0.2551 -0.09498,0.38102 -0.02606,0.0984 -0.05064,0.19706 -0.07861,0.29495 -0.02996,0.1134 -0.06426,0.22542 -0.0994,0.33731 -0.02725,0.10431 -0.06349,0.20592 -0.09634,0.30852 -0.04515,0.12842 -0.08972,0.25696 -0.139055,0.38384 -0.04885,0.12285 -0.102047,0.24404 -0.156059,0.3647 -0.05192,0.12202 -0.109929,0.24128 -0.169363,0.35975 -0.05842,0.11717 -0.121589,0.23188 -0.185991,0.34582 -0.06139,0.11151 -0.127466,0.2203 -0.195747,0.32769 -0.06533,0.10172 -0.13708,0.19901 -0.205131,0.29885 -0.07689,0.10408 -0.152186,0.20926 -0.230481,0.31229 -0.08386,0.11001 -0.172292,0.21642 -0.26197,0.32171 -0.0824,0.0933 -0.161813,0.18889 -0.244401,0.28197 -0.08414,0.0934 -0.170359,0.1848 -0.256791,0.27602 -0.07305,0.077 -0.146571,0.15364 -0.220308,0.23002 -0.08292,0.0864 -0.169206,0.16958 -0.256175,0.2519 -0.03681,0.0354 -0.24893,0.22641 -0.152521,0.1427 -0.104103,0.10086 -0.208868,0.18376 -0.299633,0.25546 -0.114594,0.0855 -0.185611,0.13323 -0.298527,0.20549 -0.156104,0.10326 -0.325255,0.18437 -0.495988,0.26002 -0.123811,0.0599 -0.250346,0.11454 -0.377555,0.16687 -0.151082,0.0635 -0.303834,0.1232 -0.457544,0.18006 -0.175085,0.0623 -0.350959,0.12205 -0.52878,0.17614 -0.151083,0.0519 -0.303871,0.0982 -0.457753,0.14101 -0.136713,0.0351 -0.271251,0.0778 -0.407705,0.11403 -0.163255,0.0434 -0.329104,0.0758 -0.495551,0.10416 -0.159411,0.0262 -0.319897,0.0447 -0.480652,0.0602 -0.162901,0.0152 -0.326238,0.0247 -0.4896,0.0332 -0.197277,0.006 -0.394528,-0.004 -0.591677,-0.0102 -0.16773,-0.005 -0.335501,-0.009 -0.503275,-0.0122 -0.159356,-0.003 -0.318729,-0.006 -0.478103,-0.008 -0.143493,-0.002 -0.28699,-0.003 -0.430489,-0.005 -0.08504,0.0133 -0.0065,-6e-5 -0.08707,0.0154 0.03413,-0.003 0.032,-0.004 0.101098,-0.0277 -1.830561,0.79468 -2.954407,-1.79413 -1.123846,-2.58881 v 0 c 0.165241,-0.0661 0.331633,-0.1274 0.507732,-0.15831 0.207678,-0.038 0.417386,-0.0633 0.628898,-0.0627 0.147136,0.001 0.294271,0.003 0.441403,0.005 0.166018,0.002 0.332036,0.005 0.498036,0.008 0.177739,0.004 0.355475,0.008 0.533167,0.013 0.119591,0.004 0.23951,0.007 0.358886,0.0125 0.122151,-0.006 0.244297,-0.0131 0.366129,-0.0241 0.09444,-0.009 0.188732,-0.0193 0.282448,-0.0342 0.08247,-0.0134 0.164632,-0.0292 0.24547,-0.0504 0.125894,-0.0321 0.248774,-0.0751 0.375195,-0.10528 0.132051,-0.0357 0.261408,-0.0798 0.391512,-0.12189 0.125325,-0.0373 0.248552,-0.0807 0.371991,-0.12374 0.124005,-0.0448 0.2462,-0.0946 0.367845,-0.14539 0.107606,-0.0419 0.211211,-0.0936 0.316343,-0.14116 0.02963,-0.0103 0.05542,-0.027 0.08416,-0.0398 0.03064,-0.0136 -0.04651,0.0247 -0.03012,0.0195 0.0057,-0.002 0.01026,-0.006 0.0154,-0.009 0.242689,-0.15625 -0.105145,0.0721 0.138655,-0.0922 0.0109,-0.007 -0.02111,0.0157 -0.03155,0.0236 -0.0042,0.003 0.0084,-0.006 0.01267,-0.009 0.168125,-0.13464 -0.04536,0.0387 0.05859,-0.0458 0.102373,-0.0967 0.09105,-0.0848 0.208937,-0.19619 -0.02921,0.0315 -0.0064,0.007 0.03249,-0.0317 0.08494,-0.0837 0.02212,-0.0176 0.106683,-0.10581 0.06769,-0.0701 0.135181,-0.14041 0.202242,-0.21112 0.06631,-0.07 0.132461,-0.14007 0.197364,-0.21133 0.06984,-0.0779 0.135728,-0.15922 0.205433,-0.23727 0.0565,-0.066 0.112247,-0.13273 0.165108,-0.20171 0.05166,-0.0671 0.110963,-0.15204 0.154244,-0.20746 0.05023,-0.0721 0.100944,-0.14379 0.15036,-0.21676 0.04705,-0.0701 0.08656,-0.14499 0.128794,-0.21801 0.03206,-0.0586 0.08457,-0.15147 0.120303,-0.2259 0.02307,-0.0477 0.07854,-0.16 0.107765,-0.23284 0.03584,-0.0708 0.06316,-0.14633 0.09468,-0.21907 0.02323,-0.0597 0.05006,-0.13692 0.08198,-0.22283 0.0317,-0.0987 0.06612,-0.196 0.09248,-0.29636 0.02812,-0.0888 0.05293,-0.16851 0.07713,-0.26324 0.02426,-0.0848 0.05076,-0.1977 0.08051,-0.30156 0.01005,-0.0345 0.02397,-0.0931 0.04816,-0.19527 -0.0075,0.0643 0.03623,-0.21203 0.03994,-0.21137 -0.01402,0.14383 0.01728,-0.16824 0.02215,-0.18682 -1.59e-4,0.15903 -5.8e-5,-0.0717 -2.04e-4,-0.10669 -9e-5,-0.0692 -1.14e-4,-0.13836 -7.94e-4,-0.20754 -8.2e-5,-0.007 -7.93e-4,-0.0269 1.75e-4,-0.0202 0.0158,0.11428 -0.01889,-0.10444 0.01894,0.11837 0.0043,0.0256 -0.03177,-0.16905 -0.0159,-0.0763 -0.01929,-0.098 -0.03387,-0.19674 -0.04402,-0.29608 -0.0013,-0.0125 -0.01169,-0.0709 -0.0069,-0.0533 -0.0021,-0.008 -0.02921,-0.10546 -0.04178,-0.1379 -0.03495,-0.13534 -0.05296,-0.19536 -0.01767,-0.0891 0.0021,0.005 0.03043,0.0691 0.04851,0.0934 -0.01172,-0.0201 -0.132848,-0.23845 -0.09071,-0.16939 2.25e-4,2.6e-4 0.118549,0.17977 0.02111,0.0375 -0.0223,-0.0309 -0.04586,-0.0609 -0.06691,-0.0926 -0.014,-0.0211 0.05836,0.0823 0.04661,0.0599 -0.287703,-0.34226 0.129153,0.14252 -0.09777,-0.11223 -0.02305,-0.0261 -0.04831,-0.0505 -0.06915,-0.0785 -0.01725,-0.0231 0.03946,0.0421 0.05831,0.0639 0.0098,0.0114 -0.02088,-0.0215 -0.03113,-0.0325 -0.02476,-0.0264 -0.102976,-0.11109 -0.113922,-0.13022 -0.01638,-0.0286 0.04355,0.0495 0.06532,0.0743 -0.04318,-0.0461 -0.26969,-0.31528 -0.09279,-0.10559 0.0028,0.003 -0.0058,-0.006 -0.0087,-0.009 0.135567,0.12284 -0.147251,-0.14165 -0.03253,-0.0336 0.258035,0.21675 -0.249949,-0.2043 -0.04296,-0.0393 0.03349,0.0267 0.06815,0.0519 0.10223,0.0778 -0.06056,-0.0423 -0.117684,-0.0868 -0.175348,-0.13326 -0.01593,-0.0129 0.03124,0.0266 0.04799,0.0383 0.08459,0.0594 0.176495,0.11362 0.08841,0.061 -0.01588,-0.01 -0.03197,-0.0193 -0.04762,-0.0295 -0.268581,-0.17539 0.306187,0.16979 0.06949,0.037 -0.01804,-0.009 -0.03628,-0.0169 -0.05409,-0.026 -0.311013,-0.15952 0.329329,0.14545 0.0013,-0.002 -0.107471,-0.044 -0.0503,-0.0193 0.145812,0.0323 -0.06097,-0.0119 -0.121981,-0.024 -0.182029,-0.04 0.07909,0.0157 0.383345,0.0276 0.196578,0.025 -0.04569,1.5e-4 -0.09137,2.6e-4 -0.137062,5.2e-4 -0.04523,2.6e-4 -0.09046,5.3e-4 -0.135681,0.001 -0.04155,5.3e-4 -0.08309,8e-4 -0.124635,0.002 -0.03414,5.3e-4 -0.06829,0.001 -0.102425,0.002 -0.02265,7.9e-4 -0.0453,0.002 -0.06794,0.003 0.172265,-0.0154 0.337659,-0.0752 0.489424,-0.15663 -0.0608,0.0332 -0.122526,0.0673 -0.186981,0.0928 -0.150699,0.0596 -0.255329,0.0883 -0.131062,0.049 0.0053,-0.002 -0.01053,0.004 -0.0158,0.005 -0.04063,0.014 -0.07699,0.0277 0.004,-0.007 -0.0123,0.006 -0.113821,0.0557 -0.04889,0.0197 -0.08686,0.0508 -0.174266,0.10091 -0.264981,0.14465 -0.07987,0.0404 -0.162382,0.087 -0.230131,0.11824 -0.07245,0.0368 -0.137123,0.0699 -0.194295,0.0984 -0.117387,0.0646 -0.237574,0.1241 -0.360344,0.17789 -0.08828,0.0373 -0.174207,0.0804 -0.262649,0.11749 -0.109352,0.0462 -0.219157,0.0919 -0.330996,0.13179 -0.08433,0.0297 -0.167309,0.0634 -0.253347,0.088 -0.09524,0.0333 -0.190365,0.0673 -0.287414,0.0948 -0.08693,0.0293 -0.17186,0.0645 -0.259702,0.0912 -0.08833,0.0269 -0.173799,0.0633 -0.26326,0.0867 -0.08807,0.0266 -0.173281,0.0629 -0.262517,0.0858 -0.08795,0.0261 -0.173027,0.0622 -0.262194,0.0845 -0.09666,0.0282 -0.190627,0.066 -0.288806,0.0892 -0.09986,0.0285 -0.199035,0.0601 -0.300905,0.0808 -0.103288,0.0266 -0.205102,0.0591 -0.309843,0.0798 -0.07278,0.0163 -0.144595,0.036 -0.216183,0.0569 -0.09278,0.0231 -0.186017,0.0436 -0.278517,0.0677 -0.101675,0.0264 -0.204191,0.0482 -0.307086,0.0691 -0.110783,0.027 -0.221202,0.0564 -0.333985,0.0741 -0.117855,0.0237 -0.234121,0.056 -0.353788,0.0701 -0.09605,0.014 -0.191161,0.0334 -0.286968,0.0488 -0.111985,0.0145 -0.224119,0.0259 -0.336408,0.0377 -0.147744,0.0165 -0.295989,0.0259 -0.444707,0.022 -0.09886,-1.1e-4 -0.197715,-2.4e-4 -0.296572,-5.3e-4 -0.101995,-1.8e-4 -0.203991,-2.7e-4 -0.305986,-5.3e-4 -0.104698,-2.7e-4 -0.209397,-5.3e-4 -0.314094,-10e-4 -0.107836,-5.3e-4 -0.21567,-10e-4 -0.323504,-0.002 -0.110369,-8e-4 -0.220738,-0.002 -0.331102,-0.003 -0.109875,-0.001 -0.21975,-0.003 -0.329612,-0.005 -0.110731,-0.002 -0.221455,-0.005 -0.33215,-0.009 -0.110839,-0.004 -0.221663,-0.008 -0.332381,-0.0149 -0.114081,-0.007 -0.22812,-0.0148 -0.341822,-0.0265 -0.124983,-0.0132 -0.24971,-0.029 -0.373436,-0.0514 -0.126582,-0.0234 -0.252582,-0.05 -0.376718,-0.0844 -0.08053,-0.0222 -0.03157,-0.01 -0.190904,-0.0432 -0.129545,-0.0294 -0.258363,-0.062 -0.384885,-0.10269 -0.01158,-0.004 -0.20345,-0.0551 -0.296108,-0.0837 -0.131967,-0.0418 -0.171431,-0.0585 -0.299125,-0.0935 -0.114554,-0.0365 -0.22725,-0.0776 -0.342411,-0.11214 -0.135816,-0.0483 -0.16903,-0.0645 -0.29721,-0.10601 -0.124829,-0.0456 -0.153106,-0.0576 -0.299494,-0.10865 -0.07386,-0.0288 -0.161509,-0.0532 -0.241081,-0.0831 0.08888,0.0222 -0.329158,-0.10032 -0.28911,-0.095 0.04339,0.01 0.0084,0.002 -0.0686,-0.0212 -0.06432,-0.0196 -0.128018,-0.0411 -0.191544,-0.0631 -0.01701,-0.006 -0.03403,-0.0118 -0.05105,-0.0177 -0.111062,-0.0353 -0.23443,-0.0757 -0.348366,-0.12098 -0.104909,-0.0404 -0.218338,-0.0753 -0.317019,-0.12246 -0.129024,-0.0503 -0.25532,-0.1062 -0.379918,-0.16656 -0.107466,-0.0513 -0.214577,-0.10347 -0.319781,-0.15927 0.05554,0.0251 0.0075,0.004 -0.06324,-0.0317 -0.005,-0.002 -0.09019,-0.0471 -0.09167,-0.0481 -0.01028,-0.007 0.04502,0.021 0.03384,0.0156 -0.02368,-0.0115 -0.04756,-0.0225 -0.07134,-0.0338 -0.0229,-0.0117 -0.186465,-0.0834 -0.11086,-0.0535 -0.02907,-0.0118 -0.06198,-0.025 -0.09061,-0.0372 -0.02295,-0.01 -0.09208,-0.0382 -0.06849,-0.0301 0.01042,0.004 0.04133,0.0153 0.03104,0.0113 -0.01309,-0.005 -0.02629,-0.01 -0.03944,-0.0146 -0.04728,-0.0178 -0.05821,-0.0217 -0.108525,-0.0418 -5.82e-4,-2.4e-4 0.0013,1.7e-4 0.0019,2.6e-4 0.01351,0.004 0.02703,0.009 0.04054,0.0131 -0.0087,-0.002 -0.09484,-0.031 -0.09706,-0.0317 -0.04632,-0.0165 -0.09217,-0.0333 -0.13809,-0.0507 -0.0097,-0.004 -0.03916,-0.0136 -0.02912,-0.011 0.0033,7.9e-4 0.191067,0.0597 -0.01001,-0.002 -0.02766,-0.009 -0.254427,-0.0839 -0.119126,-0.0452 -0.102981,-0.0273 -0.205576,-0.0565 -0.305403,-0.094 0.138396,0.0349 -0.07123,-0.017 -0.09654,-0.025 0.178217,0.0281 -0.09183,-0.0134 -0.114988,-0.018 -0.0094,-0.002 -0.01905,-0.002 -0.02823,-0.005 -0.0054,-0.002 0.01115,0.001 0.01675,0.001 0.0212,10e-4 0.04247,10e-4 0.06362,0.003 0.04518,0.004 -0.181127,-0.0101 -0.135978,-0.006 -0.02175,-0.001 -0.224503,-0.005 -0.09061,-0.0117 -0.117111,0.0111 -0.233971,0.0247 -0.351217,0.0344 -0.131069,0.006 -0.261995,0.009 -0.39322,0.008 -0.09368,7.9e-4 -0.187364,0.001 -0.281041,0.003 -0.08068,0.001 -0.161366,0.002 -0.242035,0.004 -0.0739,0.002 -0.147798,0.004 -0.221665,0.007 -0.07834,0.003 -0.156667,0.007 -0.234954,0.0108 -0.09385,0.005 -0.187663,0.011 -0.281404,0.0178 -0.107053,0.008 -0.214035,0.0168 -0.320788,0.0281 -0.11165,0.0118 -0.223167,0.0249 -0.334113,0.0422 -0.143878,0.0231 -0.286562,0.0527 -0.429979,0.0785 -0.0906,0.0138 -0.180726,0.0304 -0.269437,0.0538 -0.06911,0.0158 -0.138677,0.0295 -0.207308,0.0473 -0.05824,0.0182 -0.06632,0.0209 -0.140995,0.0428 -0.004,10e-4 -0.01556,0.005 -0.01206,0.003 0.0093,-0.006 0.02239,-0.006 0.03163,-0.0122 0.0034,-0.002 -0.0078,0.003 -0.01172,0.004 0.04136,-0.02 -0.2743247,0.12081 -0.116088,0.0487 0.04781,-0.0254 0.08615,-0.0542 -0.01847,0.0143 -0.082112,0.0525 -0.1280344,0.0771 -0.1489897,0.0934 -0.067498,0.0472 -0.1318051,0.0877 -0.1915472,0.13359 -0.033425,0.0237 -0.2057887,0.14812 -0.1398489,0.0961 -0.021021,0.0174 -0.2092143,0.17633 -0.09466,0.0769 -0.013748,0.0134 -0.1012121,0.1001 -0.090349,0.0873 0.1320366,-0.15721 -0.1723459,0.21641 0.050164,-0.0705 0.020735,-0.0267 -0.095789,0.13401 -0.058588,0.0829 0.2336631,-0.36128 -0.1140875,0.20908 0.0037,-10e-4 0.021942,-0.0392 0.041895,-0.0795 0.062843,-0.11921 -0.042846,0.0903 -0.089411,0.17871 -0.1433872,0.26289 -0.00598,0.01 -0.026429,0.0439 0.00431,-0.0122 -0.019693,0.0384 -0.038762,0.077 -0.059286,0.11496 -0.058009,0.10607 -0.1213448,0.20889 -0.188822,0.30921 0.079258,-0.13473 -0.097564,0.16741 -0.1147529,0.1831 -0.067189,0.10759 -0.094232,0.14616 -0.1535975,0.24124 -0.078164,0.11755 -0.048039,0.08 -0.1186281,0.19056 -0.025892,0.043 -0.051933,0.0857 -0.078777,0.12816 -0.00135,0.002 0.091267,-0.16599 0.028236,-0.0518 -0.014158,0.0256 -0.028162,0.0514 -0.042243,0.0771 0.042986,-0.0921 -0.1159815,0.23593 0.027134,-0.0708 0.00762,-0.0163 -0.013129,0.0336 -0.01969,0.0504 -0.1059371,0.24954 0.066698,-0.18969 -0.01755,0.0403 -0.080282,0.23922 0.098465,-0.40792 0.025643,-0.12594 -0.00794,0.0604 -0.016137,0.12069 -0.026962,0.18061 -0.00965,0.0566 0.033226,-0.39642 0.00273,-0.2477 0.00429,0.0386 0.0034,0.0366 0.00853,0.0687 0.0036,0.0265 -0.00964,-0.0441 0.00108,0.008 9.525e-4,0.005 0.00403,0.0185 0.0027,0.0139 -0.0023,-0.008 -0.00439,-0.0157 -0.00659,-0.0236 0.015314,0.0555 -0.00668,-0.0177 -0.010475,-0.0198 -0.041078,-0.0866 -0.016584,-0.0368 -0.00756,-0.0166 1.389e-4,2.6e-4 -5.027e-4,-5.3e-4 -7.408e-4,-8e-4 -0.00547,-0.009 -0.010948,-0.0184 -0.016425,-0.0275 0.00938,0.016 0.018897,0.0319 0.028345,0.0479 0.059789,0.10683 0.075849,0.14275 0.094499,0.18194 -0.051351,-0.0814 0.087451,0.1385 0.1126424,0.19003 0.026662,0.0483 0.067182,0.11265 0.097344,0.16624 0.021164,0.0376 -0.04291,-0.0721 -0.00637,-0.01 0.047191,0.0729 0.078414,0.12565 0.1059444,0.16913 0.074663,0.11662 0.069589,0.11281 0.1471076,0.22714 0.027082,0.0451 0.062644,0.0846 0.092617,0.12782 0.041086,0.0515 0.081005,0.10364 0.103196,0.1313 0.075056,0.0856 0.093694,0.11136 0.1755222,0.19514 0.056524,0.0601 0.1124534,0.1207 0.1723726,0.17743 0.082425,0.0814 0.1628174,0.16476 0.2466562,0.24475 0.058498,0.0642 0.1245079,0.12179 0.1842089,0.18482 0.08435,0.0821 0.167776,0.1652 0.246667,0.25263 0.05806,0.0637 0.121063,0.1229 0.176453,0.18905 0.07591,0.0785 0.131582,0.14048 0.192951,0.19896 0.09664,0.0984 0.118048,0.12342 0.213406,0.21639 -0.06471,-0.0584 0.09838,0.0919 0.110677,0.10252 0.04901,0.0438 0.08078,0.0676 0.120794,0.0957 -0.08113,-0.0503 0.07951,0.0544 0.100959,0.0631 1.732677,0.9901 0.332463,3.44048 -1.4002137,2.45038 z"
       id="path5409"
       style="fill:#000000;fill-opacity:1;fill-rule:nonzero;stroke:none;stroke-width:0.26458332" />
    <path
       inkscape:connector-curvature="0"
       d="m 15.831262,275.13937 c -0.0078,-0.008 -0.01568,-0.0157 -0.02352,-0.0235 0.01748,0.0168 -0.07136,-0.0706 -0.05325,-0.0532 0.033,0.0317 0.04721,0.045 0.0037,0.009 -0.08548,-0.0716 -0.05894,-0.0441 -0.0126,-0.0128 0.03469,0.0264 0.172142,0.0793 -0.01095,0.006 -0.08979,-0.0395 -0.170132,-0.0708 -0.263649,-0.11325 -0.09902,-0.0397 -0.194651,-0.0876 -0.290163,-0.13489 -0.122305,-0.0624 -0.239306,-0.13438 -0.354636,-0.20862 -0.113537,-0.0777 -0.224878,-0.15845 -0.334503,-0.24155 -0.08886,-0.0648 -0.177876,-0.12963 -0.265789,-0.19582 -0.07943,-0.0596 -0.156148,-0.12336 -0.239426,-0.1777 -0.100418,-0.0708 -0.204829,-0.1356 -0.307094,-0.20371 -0.08691,-0.0538 -0.176324,-0.10354 -0.265305,-0.15387 -0.110494,-0.063 -0.222672,-0.12287 -0.334571,-0.18328 -0.120842,-0.0658 -0.242175,-0.13067 -0.362802,-0.19685 -0.105538,-0.0551 -0.209159,-0.1137 -0.314035,-0.17001 -0.122601,-0.0689 -0.241312,-0.14405 -0.360024,-0.21932 -0.132284,-0.0859 -0.256238,-0.18337 -0.379114,-0.28192 -0.101728,-0.0811 -0.193521,-0.17323 -0.288404,-0.26194 -0.120876,-0.11438 -0.227845,-0.24168 -0.33097,-0.37192 -0.07324,-0.093 -0.142965,-0.18861 -0.213265,-0.28386 -0.08007,-0.10851 -0.154689,-0.22105 -0.227741,-0.33438 -0.06632,-0.10515 -0.130675,-0.21137 -0.191517,-0.3198 -0.0537,-0.0852 -0.102365,-0.17336 -0.149485,-0.26233 -0.06699,-0.1285 -0.121061,-0.2629 -0.169476,-0.3993 -0.03313,-0.092 -0.059,-0.18635 -0.0845,-0.28067 -0.02372,-0.0907 -0.042319,-0.18264 -0.059381,-0.2748 -0.01242,-0.0717 -0.022802,-0.14374 -0.0314,-0.216 -0.00738,-0.061 -0.012404,-0.12224 -0.017153,-0.18349 -0.00434,-0.0602 -0.00751,-0.12056 -0.010105,-0.18089 -0.00228,-0.0546 -0.00384,-0.10924 -0.00521,-0.16388 -0.00132,-0.054 -0.0022,-0.10796 -0.00294,-0.16196 -7.408e-4,-0.0554 -0.00127,-0.11081 -0.00169,-0.16621 -4.233e-4,-0.0534 -7.144e-4,-0.10689 -0.00101,-0.16033 -2.646e-4,-0.0548 -4.498e-4,-0.10955 -6.085e-4,-0.16433 -0.00378,-0.13763 0.00827,-0.27484 0.030634,-0.4106 0.028433,-0.14367 0.030012,-0.14175 0.075719,-0.31784 0.039177,-0.12236 0.090645,-0.23594 0.1427325,-0.35385 0.03388,-0.0682 0.07081,-0.13473 0.108203,-0.2011 0.04453,-0.0578 0.142838,-0.24753 0.02816,-0.039 -0.02425,-0.019 0.368307,-0.52654 0.156961,-0.24311 0.06295,-0.0954 0.138235,-0.1812 0.21504,-0.26537 0.03405,-0.0369 0.06871,-0.0732 0.103305,-0.10954 0.0474,-0.0435 0.09347,-0.0885 0.142205,-0.13049 0.282255,-0.2433 -0.327775,0.30374 0.05684,-0.0518 0.121012,-0.10297 0.256442,-0.18649 0.398727,-0.25658 -0.161506,0.0808 0.109814,-0.0595 0.146106,-0.0766 0.0068,-0.0236 0.473562,-0.15918 0.257992,-0.096 0.112933,-0.0458 0.230218,-0.0789 0.34815,-0.1088 0.01409,-5.3e-4 0.02574,-0.008 0.145014,-0.0433 0.123762,-0.0363 0.25012,-0.0623 0.377077,-0.0845 0.03494,-0.003 0.09037,-0.0208 0.233976,-0.0487 0.109935,-0.0219 0.224718,-0.0343 0.329314,-0.0533 0.160823,-0.0299 0.323031,-0.0511 0.485518,-0.0695 0.153098,-0.0254 0.307131,-0.0451 0.461226,-0.0634 0.174239,-0.0149 0.347242,-0.0399 0.520659,-0.062 0.199209,-0.0254 0.399153,-0.0442 0.59926,-0.0608 0.188882,-0.0152 0.378076,-0.0261 0.567291,-0.0362 0.139695,-0.006 0.278518,-0.025 0.417603,-0.039 0.163315,-0.0169 0.327023,-0.0296 0.490797,-0.041 0.09827,-0.013 0.196491,-0.0242 0.294029,-0.0416 0.143861,-0.0226 0.285922,-0.0545 0.428915,-0.0819 0.120785,-0.0279 0.242545,-0.0517 0.361502,-0.087 0.141708,-0.0382 0.282129,-0.0804 0.42095,-0.12799 0.12663,-0.0427 0.253444,-0.0859 0.375892,-0.13977 0.09254,-0.0414 0.188958,-0.0816 0.273431,-0.13842 0.05523,-0.05 0.144388,-0.0751 0.187761,-0.1377 0.07407,-0.0684 0.139208,-0.14532 0.19979,-0.22571 0.09113,-0.12297 0.163203,-0.25781 0.236246,-0.39184 0.103564,-0.19584 0.186993,-0.40084 0.267722,-0.60681 0.102237,-0.26232 0.185404,-0.53109 0.264309,-0.80115 0.07476,-0.26999 0.140025,-0.54312 0.184413,-0.81983 0.04144,-0.24012 0.0571,-0.48288 0.06316,-0.72607 2.37e-4,-0.11607 -0.0035,-0.23176 -0.0176,-0.34698 -0.202417,-1.98532 2.60525,-2.27158 2.807667,-0.28626 v 0 c 0.02237,0.23593 0.03698,0.47225 0.03113,0.70945 -0.01065,0.37417 -0.0378,0.74771 -0.101078,1.11709 -0.06644,0.38645 -0.150828,0.76977 -0.259495,1.14671 -0.102973,0.3502 -0.212426,0.69849 -0.345567,1.03861 -0.124329,0.31612 -0.256768,0.62926 -0.418121,0.92864 -0.145637,0.26595 -0.297883,0.52882 -0.483667,0.76932 -0.171541,0.21852 -0.354585,0.42817 -0.563255,0.61245 -0.193619,0.16614 -0.397724,0.31868 -0.617165,0.44951 -0.195829,0.1134 -0.396122,0.2202 -0.605671,0.30632 -0.186809,0.0784 -0.376219,0.15044 -0.5688,0.21355 -0.187962,0.0639 -0.377656,0.12213 -0.569285,0.17407 -0.19681,0.0542 -0.395394,0.10107 -0.595403,0.14201 -0.156067,0.0296 -0.311128,0.0644 -0.4681,0.0891 -0.194533,0.034 -0.390402,0.0593 -0.587039,0.0776 -0.135044,0.009 -0.270039,0.0197 -0.404697,0.0337 -0.183191,0.0184 -0.366084,0.0419 -0.550185,0.0492 -0.161888,0.009 -0.323765,0.0178 -0.485378,0.0307 -0.158716,0.013 -0.317314,0.0277 -0.47532,0.0478 -0.181372,0.023 -0.362402,0.0491 -0.544598,0.065 -0.160079,0.0188 -0.319424,0.0426 -0.478964,0.0655 -0.10054,0.0111 -0.200941,0.0237 -0.300383,0.0425 -0.10017,0.0179 -0.200838,0.0319 -0.301254,0.0481 -0.09406,0.0161 -0.185323,0.0464 -0.280459,0.0572 -0.02179,0.004 -0.04111,0.006 -0.06019,0.0107 -0.09189,0.0271 -0.182818,0.0577 -0.276421,0.0786 0.02242,-0.007 0.04598,-0.0194 -0.02093,0.008 -0.13053,0.048 -0.282675,0.10047 -0.06135,0.0134 0.176197,-0.10012 -0.08516,0.0513 -0.108116,0.0585 0.06987,-0.0363 0.137365,-0.0782 0.19652,-0.1304 0.29423,-0.28025 -0.290609,0.25887 -0.09103,0.0803 0.03855,-0.0345 0.07528,-0.071 0.112914,-0.10647 -0.02127,0.0224 -0.0425,0.0448 -0.06376,0.0671 -0.0038,0.004 -0.01413,0.0198 -0.01995,0.0218 -0.03627,0.0123 0.08816,-0.0664 0.07395,-0.10138 -0.213542,0.2954 -0.01792,0.0279 0.0056,-0.0359 -0.0507,0.0967 -0.0276,0.0555 -0.100389,0.17627 -0.0063,0.0105 -0.0245,0.0423 -0.02027,0.0308 0.0011,-0.003 0.0032,-0.006 0.0048,-0.009 0.06244,-0.1159 -0.01205,0.0238 -0.02543,0.0512 0.205629,-0.48715 -0.06092,0.16253 0.03663,-0.0817 0.08345,-0.34702 0.01199,-0.043 0.01013,-0.0269 0.01787,-0.12501 0.01491,-0.31719 0.01551,-0.10623 1.59e-4,0.0527 3.18e-4,0.10545 5.82e-4,0.15818 2.64e-4,0.051 5.56e-4,0.10194 9.53e-4,0.15291 3.97e-4,0.0499 8.47e-4,0.0998 0.0015,0.14974 5.82e-4,0.0437 0.0013,0.0874 0.0024,0.13107 8.99e-4,0.0377 0.002,0.0754 0.0035,0.11306 0.0012,0.0278 0.0026,0.0555 0.0042,0.0832 0.0022,0.0281 0.0033,0.0474 0.0065,0.0736 0.0021,0.0178 0.0048,0.0355 0.0075,0.0532 -0.01051,-0.0487 0.01798,0.0821 0.0047,0.0296 0.01355,0.0502 0.01551,0.0609 0.02111,0.0769 0.0021,0.006 0.02119,0.0561 0.004,0.0212 0.03389,0.0646 0.07414,0.12898 0.116261,0.20124 0.03577,0.0641 0.07387,0.12655 0.113287,0.18856 0.03788,0.0575 0.0748,0.11607 0.116126,0.17109 0.05331,0.0725 0.105155,0.14509 0.153264,0.20529 0.03317,0.0419 0.06748,0.0831 0.05005,0.0663 0.09184,0.0864 0.06975,0.0706 0.1436,0.135 0.0084,0.007 0.172323,0.13521 0.104005,0.0832 0.09277,0.0589 0.104649,0.0689 0.201415,0.12582 0.110681,0.0609 0.221484,0.12115 0.33304,0.18049 0.108425,0.0644 0.223562,0.11756 0.332892,0.18045 0.127883,0.0693 0.256211,0.13785 0.382613,0.20985 0.149597,0.0848 0.299642,0.16917 0.44343,0.26363 0.112809,0.076 0.229066,0.14675 0.339755,0.22587 0.115111,0.0802 0.228791,0.16253 0.33894,0.2495 0.08954,0.068 0.180716,0.13372 0.271402,0.20006 0.0089,0.007 0.245484,0.18037 0.159293,0.11875 0.08458,0.0547 0.03713,0.0278 0.121939,0.0736 -0.105812,-0.0467 0.147974,0.0691 0.168194,0.0754 0.0076,0.004 0.107734,0.0447 0.161213,0.0687 -0.03931,-0.0129 0.0071,0.002 0.05425,0.021 0.09398,0.0376 0.184027,0.0794 0.273191,0.12743 0.02249,0.0121 0.0443,0.0254 0.06644,0.0381 0.126449,0.0796 0.250436,0.16309 0.362837,0.26209 0.09099,0.0759 0.179526,0.1546 0.261566,0.2402 1.411111,1.41112 -0.584501,3.40673 -1.995612,1.99561 z"
       id="path5417"
       style="fill:#000000;fill-opacity:1;fill-rule:nonzero;stroke:none;stroke-width:0.26458332" />
    <path
       inkscape:connector-curvature="0"
       d="m 16.56817,272.26523 c 0.168754,-0.0532 0.344389,-0.0756 0.519935,-0.091 0.167791,-0.0169 0.336156,-0.004 0.503902,0.005 0.185473,0.0116 0.367919,0.0461 0.549881,0.0818 0.163809,0.0306 0.326092,0.069 0.487624,0.10978 0.160547,0.0419 0.321259,0.0833 0.481548,0.12618 0.158427,0.0404 0.315595,0.0853 0.473273,0.12846 0.162232,0.0435 0.324309,0.0878 0.485662,0.13444 0.116866,0.0367 0.235838,0.0655 0.355842,0.0897 0.155335,0.0264 0.309384,0.0595 0.464314,0.0881 0.108847,0.0247 0.219854,0.0265 0.330837,0.0318 0.149661,0.0108 0.299102,0.008 0.448856,0.003 0.179615,-0.002 0.35836,-0.0194 0.537299,-0.0333 0.188733,-0.0138 0.376463,-0.0389 0.564613,-0.059 0.16908,-0.0268 0.339592,-0.0444 0.508483,-0.0721 0.17163,-0.0295 0.344221,-0.0525 0.51538,-0.0846 0.151813,-0.0307 0.303931,-0.0616 0.45457,-0.0978 0.139648,-0.0342 0.27912,-0.0697 0.416953,-0.11064 0.136244,-0.0397 0.269895,-0.0881 0.403905,-0.13479 0.09563,-0.0437 0.193181,-0.0841 0.286293,-0.13308 0.123475,-0.0579 0.239485,-0.12975 0.357054,-0.19845 0.09284,-0.0579 0.181772,-0.12093 0.269171,-0.1866 0.1055,-0.0805 0.211837,-0.15974 0.313871,-0.24462 0.07305,-0.0604 0.142155,-0.12505 0.209072,-0.19215 0.06007,-0.0564 0.113962,-0.11743 0.167265,-0.17982 0.0064,0.003 0.120269,-0.15272 0.07649,-0.0959 0.0088,-0.0134 0.144944,-0.21938 0.10106,-0.15425 0.02159,-0.0461 -7.93e-4,-0.002 -0.005,0.007 -0.03442,0.0746 0.06809,-0.17931 0.08068,-0.21143 0.01855,-0.0539 -0.0019,0.004 0.05181,-0.15746 0.01193,-0.0277 0.04907,-0.13677 0.03622,-0.10039 0.0075,-0.0265 0.0075,-0.0336 0.01209,-0.0609 0.01024,-0.0962 0.02733,-0.19129 0.04718,-0.2859 0.03201,-0.20559 -0.01347,0.16729 -0.0094,0.0297 0.0026,-0.0505 0.0028,-0.23556 0.003,-0.0508 0.01,0.0793 -0.02222,-0.17116 -0.01185,-0.0994 0.0063,0.0435 0.01323,0.0861 -0.0033,0.0103 -0.003,-0.0138 -0.0056,-0.0278 -0.009,-0.0415 -0.0028,-0.0109 0.005,0.0219 0.0069,0.033 0.0016,0.009 -0.04468,-0.15554 -0.02727,-0.0879 -0.08164,-0.19542 0.03184,0.0539 -0.03694,-0.0828 -0.03756,-0.0727 -0.07709,-0.14443 -0.116821,-0.21601 -0.02947,-0.0502 -0.06316,-0.0976 -0.09687,-0.14492 -0.06116,-0.0895 -0.12282,-0.17882 -0.187026,-0.26628 -0.06409,-0.0896 -0.132866,-0.17535 -0.200647,-0.26209 -0.09113,-0.10933 -0.177111,-0.22288 -0.263343,-0.33609 -0.100182,-0.13364 -0.19726,-0.26969 -0.29293,-0.40661 -0.119599,-0.16743 -0.223835,-0.34506 -0.324225,-0.52445 -0.105801,-0.19597 -0.207357,-0.39402 -0.299795,-0.59664 -0.09821,-0.20973 -0.181464,-0.42576 -0.265071,-0.64156 -0.09215,-0.24317 -0.171436,-0.49082 -0.248012,-0.73924 -0.07787,-0.25131 -0.150391,-0.50416 -0.221016,-0.75759 -0.07288,-0.26868 -0.141328,-0.53848 -0.208586,-0.80861 -0.06551,-0.25467 -0.135608,-0.5081 -0.205057,-0.76171 -0.05913,-0.22417 -0.137472,-0.4424 -0.223672,-0.65739 -0.08132,-0.20196 -0.177848,-0.39665 -0.290232,-0.583 -0.118424,-0.19607 -0.259302,-0.37647 -0.405732,-0.55205 -0.180772,-0.20892 -0.375542,-0.40481 -0.570827,-0.59999 -0.142181,-0.13779 -0.286664,-0.27318 -0.430619,-0.40911 -1.450966,-1.3701 0.486644,-3.42208 1.93761,-2.05198 v 0 c 0.163466,0.15436 0.327627,0.308 0.488361,0.46522 0.256914,0.25691 0.511802,0.51622 0.747114,0.79339 0.241848,0.29234 0.471459,0.59512 0.665603,0.92179 0.182541,0.31327 0.348274,0.63567 0.481407,0.9734 0.123509,0.31255 0.236854,0.62924 0.323013,0.9544 0.07527,0.27491 0.151127,0.54967 0.221805,0.82581 0.06081,0.24476 0.122727,0.4892 0.188569,0.73266 0.06363,0.22864 0.128857,0.45675 0.199255,0.68341 0.0571,0.18523 0.115168,0.37017 0.182952,0.55184 0.06494,0.16791 0.128296,0.33653 0.205509,0.49935 0.05759,0.13099 0.127003,0.25613 0.192421,0.3833 0.05476,0.0988 0.110591,0.19743 0.177247,0.28888 0.07219,0.1054 0.147921,0.20855 0.223764,0.31132 0.0789,0.10504 0.159819,0.20855 0.243313,0.30999 0.08443,0.11031 0.171955,0.21825 0.252762,0.33135 0.07094,0.0977 0.140377,0.19661 0.208555,0.29623 0.09366,0.13247 0.183957,0.26742 0.263043,0.40922 0.05778,0.10441 0.114856,0.20927 0.169342,0.31543 0.07089,0.14092 0.135088,0.28487 0.185065,0.43466 0.0447,0.13609 0.08802,0.27311 0.117954,0.41335 0.02932,0.13484 0.05309,0.27065 0.06555,0.40817 0.01278,0.1418 0.01619,0.28382 0.0093,0.42603 -0.0057,0.16083 -0.01521,0.32248 -0.05436,0.47936 0.02416,-0.1947 -0.01638,0.14362 -0.02297,0.16222 -0.02042,0.11699 -0.04444,0.23336 -0.07711,0.34763 -0.02962,0.10102 -0.06197,0.20109 -0.100367,0.29916 0.06728,-0.22223 -0.06499,0.22143 -0.07852,0.2279 -0.014,0.0353 -0.02635,0.0671 -0.0413,0.10236 -0.0086,0.0204 0.02775,-0.0839 0.0208,-0.0629 -0.03895,0.11756 -0.01651,0.0541 -0.05159,0.14998 -0.05594,0.13967 -0.117118,0.27734 -0.194559,0.40669 -0.07451,0.12308 -0.132458,0.20679 -0.176045,0.275 -0.08966,0.13246 -0.183997,0.26166 -0.290703,0.38111 -0.102606,0.11994 -0.208839,0.23649 -0.321967,0.34665 -0.12842,0.12726 -0.260873,0.25054 -0.400314,0.36572 -0.137679,0.11357 -0.279376,0.2219 -0.421714,0.32952 -0.173771,0.12978 -0.35206,0.2534 -0.5382,0.36493 -0.169442,0.0987 -0.33778,0.19963 -0.515035,0.28401 -0.203115,0.10031 -0.408833,0.19652 -0.621587,0.27481 -0.181361,0.0632 -0.3627,0.12717 -0.547257,0.18052 -0.18642,0.0534 -0.373673,0.10409 -0.562431,0.14863 -0.192236,0.0441 -0.385093,0.0863 -0.578721,0.12378 -0.197636,0.0365 -0.396432,0.0654 -0.5947,0.0982 -0.214745,0.0329 -0.430262,0.0608 -0.645513,0.0901 -0.214968,0.0229 -0.429457,0.0513 -0.645168,0.0664 -0.222259,0.0173 -0.444447,0.0371 -0.667497,0.0405 -0.225271,0.007 -0.450513,0.009 -0.675605,-0.005 -0.237174,-0.0118 -0.474521,-0.0281 -0.707692,-0.0758 -0.172821,-0.0322 -0.344854,-0.0682 -0.518009,-0.0986 -0.195369,-0.0406 -0.389573,-0.0867 -0.580372,-0.14549 -0.145859,-0.044 -0.293855,-0.0813 -0.440734,-0.12169 -0.154028,-0.0425 -0.307603,-0.0863 -0.462501,-0.12553 -0.144766,-0.0402 -0.290857,-0.0759 -0.436101,-0.11428 -0.112609,-0.0285 -0.225529,-0.0562 -0.339909,-0.0766 -0.06612,-0.013 -0.122777,-0.0104 -0.17763,-0.0329 -0.0041,-0.002 0.0089,-2.6e-4 0.01342,-2.6e-4 -0.02455,-10e-4 -0.229957,-0.003 -0.07863,-0.0124 0.0095,-5.3e-4 -0.01898,0.001 -0.02847,0.002 -0.10183,0.007 0.15114,-0.0367 0.01699,-0.007 -1.918829,0.54824 -2.694153,-2.1654 -0.775324,-2.71363 z"
       id="path5419"
       style="fill:#000000;fill-opacity:1;fill-rule:nonzero;stroke:none;stroke-width:0.26458332" />
    <path
       d="m 18.012218,244.04537 c -0.4473,-0.29734 -0.924203,-0.55718 -1.443097,-0.70689 -0.189388,-0.0547 -0.383917,-0.0896 -0.575876,-0.13436 -0.230194,-0.024 -0.45937,-0.0617 -0.690582,-0.072 -1.186153,-0.0528 -2.402111,0.19689 -3.463707,0.73292 -0.322622,0.1629 -0.61937,0.37265 -0.929055,0.55898 -0.289752,0.24311 -0.597525,0.46623 -0.869255,0.72934 -1.0731885,1.03911 -1.9766255,2.4856 -2.1995155,3.98325 -0.05655,0.37999 -0.02731,0.76786 -0.04096,1.15179 0.108566,0.40069 0.154661,0.82379 0.325698,1.20205 0.54703,1.20978 1.656942,1.96236 2.8638915,2.4067 0.948982,0.34937 1.497412,0.37354 2.485855,0.51261 0.409764,0.0175 0.819156,0.051 1.229292,0.0527 1.408641,0.006 3.073873,-0.17185 4.396393,-0.68099 0.321155,-0.12364 0.62327,-0.29197 0.934905,-0.43795 0.281966,-0.19473 0.582732,-0.36471 0.845899,-0.58418 0.759223,-0.63316 1.357837,-1.48061 1.622158,-2.44045 0.22161,-0.80474 0.149329,-1.07081 0.114785,-1.87829 -0.09198,-0.33652 -0.150416,-0.68405 -0.275929,-1.00956 -0.395192,-1.02485 -1.101892,-1.87693 -1.987701,-2.51576 -0.726369,-0.52385 -1.129321,-0.64245 -1.93961,-0.98605 -1.256909,-0.38944 -0.629598,-0.22445 -1.88081,-0.49922 -1.951332,-0.41806 -2.542559,2.34154 -0.591227,2.7596 v 0 c 0.937238,0.19415 0.470764,0.0779 1.399119,0.34994 0.594421,0.2327 1.202897,0.459 1.685425,0.8965 0.361619,0.32787 0.607638,0.75227 0.775623,1.2048 0.03384,0.24096 0.08492,0.46778 0.04831,0.71277 -0.09481,0.63454 -0.54493,1.09982 -1.049263,1.45138 -0.185976,0.0958 -0.364696,0.20716 -0.557929,0.28727 -0.517122,0.21439 -0.976664,0.30893 -1.532472,0.39573 -0.947835,0.14803 -1.908796,0.18857 -2.865889,0.12408 -0.305046,-0.0371 -0.612343,-0.059 -0.915138,-0.11135 -0.552326,-0.0956 -0.932874,-0.20335 -1.434758,-0.4285 -0.266789,-0.11969 -0.507647,-0.2534 -0.695901,-0.48128 -0.07363,-0.0891 -0.119006,-0.19824 -0.178509,-0.29736 -0.01265,-0.16473 -0.05052,-0.32945 -0.03796,-0.49418 0.07126,-0.93435 0.671538,-1.85338 1.302692,-2.51166 0.160594,-0.1675 0.343392,-0.31219 0.515087,-0.46829 0.180846,-0.11927 0.353051,-0.25281 0.542536,-0.35781 0.746089,-0.41344 1.608917,-0.56827 2.453189,-0.4988 0.414501,0.073 0.697258,0.18113 1.040915,0.42549 1.656721,1.11253 3.230089,-1.23042 1.573368,-2.34296 z"
       id="path1938"
       style="fill:#000000;fill-opacity:1;fill-rule:nonzero;stroke:none;stroke-width:0.264583" />
    <path
       d="m 24.929501,236.12626 c -0.186311,1.1904 -0.277026,2.39374 -0.377592,3.59368 -0.218953,2.84305 -0.380751,5.69014 -0.519557,8.5381 -0.08283,1.76619 -0.118094,3.53484 -0.267523,5.29712 -0.167177,1.98859 2.645125,2.22502 2.812302,0.23642 v 0 c 0.149767,-1.79549 0.193394,-3.59669 0.2741,-5.3962 0.137115,-2.81521 0.297056,-5.62955 0.513059,-8.43993 0.09231,-1.10324 0.176741,-2.20893 0.338272,-3.30473 0.370856,-1.96085 -2.402207,-2.48531 -2.773061,-0.52446 z"
       id="path1944"
       style="fill:#000000;fill-opacity:1;fill-rule:nonzero;stroke:none;stroke-width:0.264583" />
    <path
       d="m 27.379413,248.02817 c 0.394534,-0.34979 0.871728,-0.57711 1.355154,-0.77439 0.594664,-0.21457 1.218361,-0.26887 1.815423,-0.0319 0.121718,0.0483 0.235772,0.11404 0.35366,0.17106 0.814279,0.44974 1.329695,1.13761 1.718503,1.97073 0.106262,0.22769 0.191535,0.4646 0.287301,0.6969 0.549018,1.48649 0.725744,3.06831 0.744249,4.64329 0.02859,1.99541 2.850525,1.95497 2.821934,-0.0404 v 0 c -0.03185,-1.93934 -0.26702,-3.88198 -0.967681,-5.70409 -0.339609,-0.78576 -0.436462,-1.10172 -0.897713,-1.81632 -0.648335,-1.00444 -1.516663,-1.80561 -2.587146,-2.34078 -0.662374,-0.27042 -0.823682,-0.38202 -1.52749,-0.49339 -0.974767,-0.15424 -1.94723,0.002 -2.86354,0.34701 -0.200213,0.087 -0.404151,0.16586 -0.600639,0.26097 -0.701352,0.33949 -1.36611,0.78895 -1.879732,1.37869 -1.225196,1.57524 1.002525,3.30792 2.227717,1.73269 z"
       id="path1946"
       style="fill:#000000;fill-opacity:1;fill-rule:nonzero;stroke:none;stroke-width:0.264583" />
    <path
       d="m 47.958824,247.04088 c -0.164084,-0.0749 -0.32103,-0.168 -0.492252,-0.22472 -0.810956,-0.26864 -1.827355,-0.12253 -2.611922,0.1533 -0.286467,0.10071 -0.556905,0.24224 -0.835358,0.36337 -0.290282,0.18649 -0.596628,0.35009 -0.870852,0.55948 -1.340165,1.02332 -2.335271,2.52161 -2.57089,4.21241 -0.06351,0.45575 -0.01701,0.92015 -0.02553,1.38023 0.118253,0.45942 0.176342,0.93869 0.354754,1.37825 0.525626,1.29504 1.57096,2.31925 2.797915,2.95586 1.032701,0.53582 1.440178,0.53393 2.561146,0.75459 0.459952,0.003 0.921514,0.0482 1.379857,0.01 1.823088,-0.15349 3.617582,-0.96417 4.914763,-2.25908 0.306133,-0.3056 0.551436,-0.66661 0.827153,-0.99991 0.465773,-0.9084 0.776979,-1.28463 0.848405,-2.33153 0.06253,-0.91649 -0.141208,-1.67438 -0.59826,-2.46576 -0.499943,-0.86566 -0.957939,-1.16372 -1.689256,-1.80598 -0.993333,-0.69802 -2.069674,-1.27179 -3.29565,-1.41847 -0.401727,-0.0481 -0.809172,-0.004 -1.213757,-0.006 -1.994919,0.0526 -1.920531,2.87385 0.07439,2.82125 v 0 c 0.186007,-0.0177 0.371363,-0.0615 0.558024,-0.0531 0.763302,0.0344 1.428398,0.40766 2.053799,0.81105 0.454213,0.36087 1.275435,0.95223 1.335096,1.60669 0.04199,0.4606 -0.108278,0.6613 -0.282409,1.08659 -0.151471,0.20433 -0.282453,0.42558 -0.454411,0.613 -0.798195,0.86994 -1.944386,1.42726 -3.109433,1.57965 -0.281215,0.0368 -0.566759,0.023 -0.850136,0.0345 -0.272804,-0.0413 -0.549971,-0.0601 -0.818406,-0.12392 -0.928315,-0.22059 -1.860958,-0.75809 -2.334636,-1.61625 -0.104325,-0.18901 -0.157938,-0.40186 -0.236905,-0.60279 -0.04425,-0.63036 -0.114599,-0.80315 0.08289,-1.42748 0.286991,-0.90729 0.953714,-1.61197 1.731581,-2.12385 0.406093,-0.20027 0.673442,-0.33486 1.122408,-0.39589 0.05848,-0.008 0.118059,-0.006 0.176516,-0.0139 0.01286,-0.002 0.04492,-0.006 0.0357,-0.0156 -0.04518,-0.0448 -0.105738,-0.0709 -0.158607,-0.10638 1.646693,1.12733 3.240977,-1.20144 1.594281,-2.32877 z"
       id="path1948"
       style="fill:#000000;fill-opacity:1;fill-rule:nonzero;stroke:none;stroke-width:0.264583" />
    <path
       d="m 41.155722,247.81797 c -0.285377,1.64663 -0.6072,3.28671 -0.911111,4.92999 -0.436337,2.39319 -0.774652,4.8026 -1.16791,7.20292 -0.28234,1.72331 -0.448067,2.64094 -0.749478,4.36086 -0.511754,3.01545 -1.137208,6.00862 -1.858245,8.98045 -0.470456,1.93936 2.272223,2.60469 2.742679,0.66532 v 0 c 0.735105,-3.03086 1.373208,-6.08342 1.895432,-9.15865 0.306382,-1.74857 0.46976,-2.65259 0.756955,-4.40565 0.389355,-2.37666 0.7244,-4.76231 1.155731,-7.13204 0.308232,-1.66683 0.635254,-3.3303 0.923277,-5.00079 0.312833,-1.97094 -2.474497,-2.41335 -2.78733,-0.44241 z"
       id="path1950"
       style="fill:#000000;fill-opacity:1;fill-rule:nonzero;stroke:none;stroke-width:0.264583" />
    <path
       style="fill:#000000;fill-opacity:1;fill-rule:nonzero;stroke:none;stroke-width:0.264583"
       id="path1950-3"
       d="m 8.3746917,243.72355 c -0.285377,1.64663 -0.6072,3.28671 -0.911111,4.92999 -0.436337,2.39319 -0.774652,4.8026 -1.16791,7.20292 -0.28234,1.72331 -0.448067,2.64094 -0.749478,4.36086 -0.511754,3.01545 -1.137208,6.00862 -1.8582447,8.98045 -0.470456,1.93936 2.2722227,2.60469 2.7426787,0.66532 v 0 c 0.735105,-3.03086 1.373208,-6.08342 1.895432,-9.15865 0.306382,-1.74857 0.46976,-2.65259 0.756955,-4.40565 0.389355,-2.37666 0.7244005,-4.76231 1.1557313,-7.13204 0.308232,-1.66683 0.635254,-3.3303 0.923277,-5.00079 0.312833,-1.97094 -2.4744973,-2.41335 -2.7873303,-0.44241 z" />
  </g>
</svg>
