<?xml version="1.0" encoding="UTF-8" standalone="no"?>
<svg
   xmlns:dc="http://purl.org/dc/elements/1.1/"
   xmlns:cc="http://creativecommons.org/ns#"
   xmlns:rdf="http://www.w3.org/1999/02/22-rdf-syntax-ns#"
   xmlns:svg="http://www.w3.org/2000/svg"
   xmlns="http://www.w3.org/2000/svg"
   xmlns:sodipodi="http://sodipodi.sourceforge.net/DTD/sodipodi-0.dtd"
   xmlns:inkscape="http://www.inkscape.org/namespaces/inkscape"
   inkscape:version="1.0 (1.0+r73+1)"
   sodipodi:docname="politics.svg"
   id="svg8"
   version="1.1"
   viewBox="0 0 64 64"
   height="64mm"
   width="64mm">
  <defs
     id="defs2" />
  <sodipodi:namedview
     inkscape:document-rotation="0"
     inkscape:window-maximized="1"
     inkscape:window-y="27"
     inkscape:window-x="0"
     inkscape:window-height="1016"
     inkscape:window-width="1920"
     inkscape:snap-page="true"
     showgrid="false"
     inkscape:current-layer="layer1"
     inkscape:document-units="mm"
     inkscape:cy="128.96633"
     inkscape:cx="100.74131"
     inkscape:zoom="3"
     inkscape:pageshadow="2"
     inkscape:pageopacity="0.0"
     borderopacity="1.0"
     bordercolor="#666666"
     pagecolor="#ffffff"
     id="base" />
  <metadata
     id="metadata5">
    <rdf:RDF>
      <cc:Work
         rdf:about="">
        <dc:format>image/svg+xml</dc:format>
        <dc:type
           rdf:resource="http://purl.org/dc/dcmitype/StillImage" />
        <dc:title />
      </cc:Work>
    </rdf:RDF>
  </metadata>
  <g
     transform="translate(0,-233)"
     id="layer1"
     inkscape:groupmode="layer"
     inkscape:label="Layer 1">
    <rect
       y="233"
       x="0"
       height="64"
       width="64"
       id="rect3713"
       style="fill:#2196f3;stroke-width:0.26458332;fill-opacity:1" />
    <path
       d="m 4.8343451,236.66761 c -0.016886,0.88707 -0.075582,1.77271 -0.1159839,2.65891 -0.084294,1.918 -0.035627,3.83754 0.018537,5.75547 0.080245,2.42068 0.1180819,4.84237 0.1403762,7.26418 0.02705,1.94905 0.019841,3.89746 -0.073721,5.84456 -0.030491,0.83945 -0.1346184,1.67753 -0.1085638,2.51825 0.08814,1.99366 2.9076081,1.86901 2.8194682,-0.12465 v 0 c -0.015658,-0.16933 -0.011483,-0.0906 0.00116,-0.38403 0.026969,-0.62536 0.07847,-1.24944 0.1069244,-1.87472 0.095299,-2.0007 0.1052682,-4.00271 0.076825,-6.00541 -0.022498,-2.43973 -0.060617,-4.87932 -0.1413831,-7.31791 -0.052291,-1.84857 -0.1008406,-3.69868 -0.020333,-5.54735 0.041733,-0.91743 0.1027925,-1.83428 0.1186932,-2.75267 0.024492,-1.99546 -2.7975182,-2.0301 -2.8220096,-0.0346 z"
       id="path3301"
       style="fill:#ffffff;fill-opacity:1;fill-rule:nonzero;stroke:none;stroke-width:0.264583" />
    <path
       d="m 7.0066104,237.31575 c 0.7161956,0.006 1.4322207,0.006 2.1481857,0.0271 1.0733389,0.048 2.1410949,0.1782 3.1975409,0.37078 0.780669,0.16371 1.54801,0.41524 2.247046,0.80465 0.143124,0.0797 0.279744,0.17061 0.419617,0.25592 0.713232,0.48805 1.339812,1.0953 1.864091,1.78184 0.101643,0.1331 0.194693,0.27255 0.292039,0.40882 0.325428,0.5202 0.623812,1.07164 0.783457,1.66847 0.08195,0.30636 0.09966,0.54982 0.13825,0.86578 0.05513,0.71766 0.04977,1.45522 -0.162993,2.14981 -0.04024,0.13135 -0.09394,0.25819 -0.140914,0.38728 -0.336394,0.80241 -0.850725,1.51484 -1.44625,2.14515 -0.137788,0.14584 -0.284785,0.2827 -0.427178,0.42404 -0.506808,0.47178 -1.061884,0.89975 -1.705774,1.16675 -0.330845,0.13718 -0.425473,0.14642 -0.768718,0.22986 -0.79369,0.16874 -1.603813,0.1339 -2.406025,0.065 -0.751908,-0.0893 -1.5071389,-0.14845 -2.2586749,-0.24048 -0.357299,-0.0508 -0.7152296,-0.0992 -1.0710994,-0.15949 -0.1441339,-0.0244 -0.1750566,-0.0199 -0.1188109,-0.0259 -1.927234,-0.51791 -2.65968,2.20761 -0.732446,2.72552 v 0 c 0.5194842,0.12777 1.0534893,0.18223 1.5818133,0.26151 0.786808,0.095 1.5769219,0.16027 2.3642279,0.2513 1.1222,0.0917 2.253508,0.11328 3.357876,-0.14779 0.58296,-0.15974 0.744335,-0.18034 1.301304,-0.42894 0.91853,-0.41 1.727658,-1.01489 2.454478,-1.70425 0.184182,-0.18607 0.374478,-0.36627 0.552546,-0.55819 0.83874,-0.90399 1.539803,-1.93453 1.99135,-3.0857 0.07335,-0.22053 0.157291,-0.43781 0.22004,-0.66158 0.288585,-1.02914 0.31009,-2.11094 0.212508,-3.16843 -0.0868,-0.61304 -0.0927,-0.80807 -0.266737,-1.40917 -0.248894,-0.85964 -0.679515,-1.65718 -1.164746,-2.40352 -0.133189,-0.18275 -0.260721,-0.36976 -0.399566,-0.54825 -0.729183,-0.9374 -1.602635,-1.75839 -2.595247,-2.41139 -0.203642,-0.12018 -0.402985,-0.24797 -0.610926,-0.36055 -0.937963,-0.50782 -1.960382,-0.8423 -3.002751,-1.05531 -1.196174,-0.21449 -2.404007,-0.36506 -3.6191299,-0.41462 -0.72891,-0.0204 -1.4578342,-0.0228 -2.1869748,-0.0279 -1.9953978,-0.0293 -2.0368066,2.79264 -0.041409,2.82192 z"
       id="path3303"
       style="fill:#ffffff;fill-opacity:1;fill-rule:nonzero;stroke:none;stroke-width:0.264583" />
    <path
       d="m 30.572454,243.95307 c -0.641887,0.003 -1.275781,0.10385 -1.902947,0.23138 -0.805857,0.19801 -1.605938,0.446 -2.362946,0.7895 -0.177046,0.0803 -0.349218,0.17101 -0.523826,0.25651 -0.972133,0.52696 -1.841128,1.23487 -2.558305,2.0771 -0.153989,0.18084 -0.293463,0.37355 -0.440195,0.56033 -0.707849,1.02176 -1.243187,2.17242 -1.498872,3.39345 -0.05266,0.25146 -0.0803,0.50752 -0.120453,0.76129 -0.121956,1.23913 0.131158,2.4606 0.694668,3.56791 0.103616,0.20361 0.226946,0.39657 0.340418,0.59485 0.643489,0.97887 1.503541,1.7999 2.538865,2.35576 0.217048,0.11653 0.445922,0.20956 0.668883,0.31433 0.961529,0.368 1.984284,0.56774 3.016034,0.55209 0.704993,-0.0107 0.921213,-0.0709 1.614043,-0.18196 1.252083,-0.27634 2.474304,-0.71739 3.583162,-1.36716 0.212863,-0.12473 0.416129,-0.26517 0.624192,-0.39775 0.869405,-0.61184 1.580428,-1.40496 2.048534,-2.3636 0.285535,-0.58475 0.337463,-0.85282 0.518356,-1.46664 0.262252,-1.1332 0.396382,-2.30469 0.297574,-3.46749 -0.01847,-0.21738 -0.05415,-0.43296 -0.08123,-0.64944 -0.127063,-0.76296 -0.374337,-1.49908 -0.721481,-2.18958 -0.190066,-0.37806 -0.272272,-0.49336 -0.492022,-0.84737 -0.360394,-0.53586 -0.788948,-1.02876 -1.31037,-1.41434 -0.345729,-0.25565 -0.466138,-0.30358 -0.837393,-0.50266 -0.825979,-0.39262 -1.728433,-0.55749 -2.628868,-0.66923 -0.461616,-0.0584 -0.922616,-0.0133 -1.383234,0.0202 -0.324509,0.0236 -0.213236,0.0406 -0.403974,-0.005 -1.988254,-0.17122 -2.230403,2.64059 -0.242149,2.81182 v 0 c 0.168651,0.01 0.337034,0.0277 0.505955,0.0286 0.395946,0.002 0.788812,-0.0987 1.185595,-0.0533 0.564174,0.0652 1.133128,0.15621 1.662493,0.3701 0.131967,0.0646 0.249905,0.11633 0.371915,0.19832 0.27836,0.18704 0.498853,0.44235 0.689223,0.71554 0.374555,0.5879 0.686411,1.21181 0.806273,1.90595 0.05555,0.39165 0.08192,0.49581 0.09,0.90027 0.01392,0.69729 -0.07601,1.39388 -0.222403,2.07431 -0.09133,0.33823 -0.136713,0.55865 -0.275858,0.87793 -0.239837,0.55032 -0.62148,1.00277 -1.106313,1.35409 -0.14737,0.0966 -0.291057,0.19906 -0.442108,0.28979 -0.834112,0.50103 -1.759217,0.83797 -2.702623,1.06367 -0.427437,0.0763 -0.630875,0.12868 -1.061006,0.14441 -0.655846,0.024 -1.310306,-0.0872 -1.929847,-0.29834 -0.133972,-0.0582 -0.271121,-0.10965 -0.40191,-0.17472 -0.622666,-0.30978 -1.144145,-0.78642 -1.542181,-1.35308 -0.07175,-0.11839 -0.149117,-0.23355 -0.215238,-0.35517 -0.329551,-0.60616 -0.51209,-1.27635 -0.464322,-1.96844 0.02116,-0.15936 0.0334,-0.32017 0.06348,-0.47809 0.16108,-0.84578 0.523472,-1.64633 0.994859,-2.36204 0.09744,-0.12826 0.189555,-0.26075 0.292327,-0.38478 0.483238,-0.58321 1.069318,-1.08124 1.729104,-1.45302 0.701138,-0.35382 1.43941,-0.62746 2.20399,-0.81064 0.443127,-0.0935 0.891405,-0.16812 1.345578,-0.17309 1.995591,-0.01 1.98215,-2.83169 -0.01344,-2.82219 z"
       id="path3305"
       style="fill:#ffffff;fill-opacity:1;fill-rule:nonzero;stroke:none;stroke-width:0.264583" />
    <path
       d="m 41.899854,235.02455 c -0.2268,0.94955 -0.405286,1.90974 -0.595836,2.86698 -0.313042,1.53031 -0.643027,3.05698 -0.943168,4.58991 -0.277154,1.44914 -0.533985,2.90231 -0.734108,4.36418 -0.12896,1.23465 -0.250547,2.46997 -0.381796,3.70444 -0.126182,1.14948 -0.175628,2.3049 -0.209566,3.46013 -0.0027,0.77976 -0.0957,1.5996 0.152448,2.35628 0.06276,0.19137 0.157231,0.37084 0.235847,0.55626 0.134154,0.17553 0.24135,0.37542 0.402463,0.52658 0.377809,0.35448 0.744672,0.52386 1.240888,0.63227 0.520647,0.11375 1.035788,0.0435 1.552336,-0.0357 0.476975,-0.0904 0.9309,-0.26323 1.384036,-0.43194 1.870064,-0.69665 0.884843,-3.34132 -0.985221,-2.64467 v 0 c -0.285996,0.10662 -0.570357,0.22173 -0.86768,0.2936 -0.02363,0.005 -0.393589,0.0729 -0.39487,0.0818 -0.0057,0.0394 0.251902,0.2397 0.200883,0.33322 -0.0086,0.008 -0.02,0.0338 -0.0259,0.0237 -0.05157,-0.0881 -0.07529,-0.32818 -0.08093,-0.40115 -0.0311,-0.40208 0.0052,-0.80533 0.0067,-1.20757 0.03164,-1.08318 0.07655,-2.16662 0.194958,-3.24442 0.128275,-1.20664 0.248719,-2.41394 0.371679,-3.62107 0.191661,-1.40832 0.441626,-2.80771 0.707485,-4.20378 0.299386,-1.53002 0.629497,-3.0536 0.941422,-4.58107 0.183589,-0.92232 0.355108,-1.84759 0.573003,-2.76264 0.463375,-1.94107 -2.281712,-2.59638 -2.745087,-0.65531 z"
       id="path3307"
       style="fill:#ffffff;fill-opacity:1;fill-rule:nonzero;stroke:none;stroke-width:0.264583" />
    <path
       d="m 48.477241,246.03489 c -0.18365,0.66565 -0.412129,1.31773 -0.62801,1.97333 -0.321794,1.0071 -0.606121,2.03055 -0.772181,3.07622 -0.03428,0.21585 -0.05792,0.43326 -0.08687,0.64989 -0.101968,1.07248 -0.05329,2.19137 0.389835,3.19144 0.08791,0.19841 0.204136,0.38302 0.306205,0.57454 0.644683,0.9712 1.559549,1.43472 2.580806,1.90191 0.36358,0.16049 0.191138,0.0853 0.517118,0.22598 1.832456,0.7903 2.950104,-1.80119 1.117647,-2.59149 v 0 c -0.293949,-0.1267 -0.139462,-0.0595 -0.463301,-0.20209 -0.448768,-0.20409 -0.92787,-0.39434 -1.298001,-0.72769 -0.03948,-0.0578 -0.08586,-0.11145 -0.118433,-0.17341 -0.293505,-0.55825 -0.278008,-1.22421 -0.233489,-1.83317 0.13888,-1.09255 0.390565,-2.16487 0.741315,-3.20949 0.233341,-0.70873 0.479724,-1.41387 0.675727,-2.1342 0.510368,-1.92925 -2.217999,-2.65102 -2.728368,-0.72177 z"
       id="path3309"
       style="fill:#ffffff;fill-opacity:1;fill-rule:nonzero;stroke:none;stroke-width:0.264583" />
    <path
       d="m 50.203082,240.84598 c -0.161907,0.1248 -0.32516,0.24803 -0.482373,0.37875 -0.732488,0.67396 -0.107153,0.54199 -0.194029,2.02144 -0.01098,0.18696 -0.19889,-0.32124 -0.25876,-0.49869 0.462582,1.94126 3.207935,1.28707 2.745354,-0.65419 v 0 c -0.06846,-0.22302 -0.275056,-0.86395 -0.300519,-0.63206 -0.126003,1.14752 0.481854,1.35673 -0.173443,1.92165 0.118851,-0.097 0.241472,-0.18964 0.362913,-0.28349 1.593401,-1.20147 -0.10574,-3.45488 -1.699143,-2.25341 z"
       id="path3311"
       style="fill:#ffffff;fill-opacity:1;fill-rule:nonzero;stroke:none;stroke-width:0.264583" />
    <path
       d="m 15.378014,255.75071 c -0.157883,0.8931 -0.459303,1.75329 -0.741994,2.61249 -0.61173,1.73457 -1.057554,3.51785 -1.443335,5.31407 -0.231191,1.14592 -0.416962,2.30317 -0.486016,3.47127 -0.03904,0.66032 -0.02658,0.82159 -0.02037,1.47461 0.06116,1.13193 0.146307,2.34131 0.775232,3.32598 0.134522,0.21061 0.308525,0.39322 0.462788,0.58983 0.204121,0.16531 0.391365,0.35396 0.612363,0.49592 1.192667,0.76608 2.56403,0.67826 3.905797,0.55665 0.969673,-0.10693 1.924601,-0.3053 2.869991,-0.54126 1.935832,-0.48479 1.250234,-3.22247 -0.685598,-2.73768 v 0 c -0.80741,0.20299 -1.622822,0.37418 -2.450859,0.46933 -0.689896,0.0693 -1.441428,0.18173 -2.105714,-0.0759 -0.04233,-0.0336 -0.09145,-0.06 -0.127005,-0.10068 -0.39268,-0.44919 -0.385586,-1.45801 -0.434961,-2.01476 -0.0075,-0.5335 -0.01854,-0.67726 0.01168,-1.21828 0.05834,-1.04451 0.226688,-2.07875 0.432175,-3.10332 0.363587,-1.69862 0.784846,-3.38471 1.364867,-5.02429 0.334342,-1.01757 0.684548,-2.03827 0.855417,-3.09903 0.279261,-1.97598 -2.515191,-2.37092 -2.794452,-0.39494 z"
       id="path3313"
       style="fill:#ffffff;fill-opacity:1;fill-rule:nonzero;stroke:none;stroke-width:0.264583" />
    <path
       d="m 13.164319,264.85445 c 0.871949,-0.19602 1.753194,-0.3474 2.634874,-0.4919 1.235151,-0.20547 2.484959,-0.27988 3.735401,-0.28388 0.318283,0.007 0.188079,-0.004 0.391597,0.0183 1.988571,0.16749 2.225439,-2.64477 0.236868,-2.81226 v 0 c -0.405708,-0.0302 -0.192719,-0.0197 -0.639119,-0.0283 -1.399976,0.006 -2.79921,0.0912 -4.181999,0.32114 -0.957875,0.15753 -1.915615,0.32173 -2.862105,0.53888 -1.93603,0.484 -1.251546,3.22196 0.684483,2.73796 z"
       id="path3315"
       style="fill:#ffffff;fill-opacity:1;fill-rule:nonzero;stroke:none;stroke-width:0.264583" />
    <path
       d="m 27.062833,263.02716 c 0.155897,-0.27831 0.310185,-0.55766 0.469774,-0.83388 -0.875873,-0.28999 -1.738977,-0.62186 -2.627619,-0.86997 -0.04215,-0.0118 -0.02402,0.0842 -0.0348,0.1266 -0.027,0.10622 -0.05387,0.2125 -0.07853,0.31929 -0.117414,0.5086 -0.207804,1.0214 -0.297875,1.53538 -0.219283,1.332 -0.494782,2.65367 -0.720943,3.98442 -0.11623,0.9208 -0.303805,1.85394 -0.2482,2.7874 0.01153,0.19357 0.04333,0.3854 0.065,0.57809 0.0525,0.19699 0.08511,0.4004 0.157512,0.59098 0.233802,0.61542 0.635431,1.15091 1.182363,1.5222 0.478015,0.32451 0.630048,0.32112 1.176918,0.47803 0.73669,0.0634 0.388337,0.0578 1.044697,0.0322 1.992686,-0.10804 1.839891,-2.92612 -0.152795,-2.81808 v 0 c -0.204788,0.0192 -0.121412,0.001 -0.253291,0.0368 -0.08272,0.0478 -0.237317,0.028 -0.293737,-0.059 -0.02906,-0.0448 -0.04202,-0.0982 -0.06303,-0.14735 -0.01385,-0.0802 -0.03476,-0.15954 -0.04153,-0.24066 -0.0198,-0.23733 -9e-4,-0.51733 0.01775,-0.7509 0.0411,-0.51498 0.112451,-1.02726 0.190804,-1.53767 0.224634,-1.32614 0.501125,-2.64279 0.718506,-3.97027 0.09666,-0.55374 0.198864,-1.10289 0.332458,-1.64894 0.0242,-0.0989 0.161979,-0.24858 0.0723,-0.29686 -0.821857,-0.44247 -1.727961,-0.70643 -2.591941,-1.05964 -0.170347,0.29668 -0.33732,0.59536 -0.503593,0.89434 -0.952764,1.75348 1.527039,3.1009 2.479803,1.34741 z"
       id="path3317"
       style="fill:#ffffff;fill-opacity:1;fill-rule:nonzero;stroke:none;stroke-width:0.264583" />
    <path
       d="m 38.575556,260.71515 c -0.645535,-0.17465 -1.329258,-0.19996 -1.987161,-0.0754 -0.178834,0.0339 -0.353607,0.0864 -0.530413,0.12964 -1.049245,0.35405 -2.003366,0.95272 -2.858098,1.65102 -0.184036,0.15035 -0.35788,0.31277 -0.536821,0.46915 -0.704172,0.66652 -1.271151,1.45847 -1.646055,2.3545 -0.246731,0.58969 -0.265681,0.76927 -0.418226,1.38764 -0.03458,0.23416 -0.08088,0.46689 -0.103728,0.70248 -0.09421,0.97141 -0.03984,2.04432 0.378931,2.94268 0.12768,0.2739 0.309348,0.51922 0.464021,0.77884 0.206777,0.22169 0.394126,0.46325 0.620334,0.66509 0.814171,0.72643 1.989466,1.27163 3.041896,1.53821 0.28661,0.0726 0.580385,0.11323 0.870577,0.16985 1.366764,0.16338 2.752069,0.0419 4.091491,-0.26091 0.235389,-0.0532 0.467629,-0.11952 0.701447,-0.17928 0.588182,-0.14955 1.138092,-0.41729 1.73773,-0.51992 1.958123,-0.38499 1.413659,-3.1542 -0.544464,-2.7692 v 0 c -0.144312,0.0301 -0.290008,0.0542 -0.432935,0.0903 -0.499256,0.12604 -0.971976,0.3275 -1.46721,0.46661 -1.165371,0.30615 -2.365865,0.51324 -3.574823,0.39692 -0.185105,-0.0309 -0.372356,-0.051 -0.555315,-0.0928 -0.757161,-0.17296 -1.532268,-0.53676 -2.122998,-1.04374 -0.05995,-0.0703 -0.131496,-0.1322 -0.179838,-0.21095 -0.336589,-0.54829 -0.25415,-1.4177 -0.178445,-2.02549 0.03143,-0.14359 0.05581,-0.28891 0.0943,-0.43078 0.191701,-0.70649 0.565052,-1.33386 1.090123,-1.84341 0.673303,-0.60132 1.400736,-1.16389 2.243738,-1.50678 0.308268,-0.0942 0.620921,-0.15298 0.943374,-0.0957 1.901029,0.6071 2.759591,-2.08136 0.858565,-2.68845 z"
       id="path3321"
       style="fill:#ffffff;fill-opacity:1;fill-rule:nonzero;stroke:none;stroke-width:0.264583" />
    <path
       d="m 57.829346,270.44615 c -0.294954,0.15475 -0.607911,0.30911 -0.847325,0.54727 -0.09161,0.0911 -0.203697,0.1732 -0.255347,0.29164 -0.125653,0.28813 -0.177559,0.60309 -0.26634,0.90463 0.257837,0.4053 0.429765,0.88037 0.773507,1.21592 0.206862,0.20193 1.096047,0.22854 1.355381,0.0195 0.273857,-0.22071 0.696172,-0.4187 0.722003,-0.76948 0.04383,-0.59519 -0.359744,-1.1381 -0.539618,-1.70715 -1.0068,-0.34769 -0.457004,-0.30287 -1.654744,0.0197 -1.663909,1.10177 -0.105783,3.45489 1.558126,2.35313 v 0 c -1.082056,0.24552 -0.590341,0.30146 -1.484249,-0.0349 -0.166481,-0.55999 -0.550264,-1.09798 -0.499446,-1.67998 0.02979,-0.34117 0.443952,-0.52721 0.710896,-0.74174 0.09139,-0.0734 0.221885,-0.0786 0.337074,-0.10049 0.08388,-0.0159 0.171873,-0.0274 0.255844,-0.012 0.939456,0.17259 0.633862,0.27403 1.2861,1.35021 -0.08947,0.27918 -0.151519,0.56868 -0.268417,0.83753 -0.03303,0.076 -0.112993,0.12134 -0.173234,0.17821 -0.01071,0.0101 -0.04298,0.0358 -0.03853,0.0217 0.01294,-0.0409 0.169315,-0.10015 0.20366,-0.12787 1.814319,-0.83109 0.638977,-3.39693 -1.175343,-2.56583 z"
       id="path3325"
       style="fill:#ffffff;fill-opacity:1;fill-rule:nonzero;stroke:none;stroke-width:0.264583" />
    <path
       d="m 54.206378,262.50883 c -0.503753,-0.53384 -1.105223,-0.95447 -1.71468,-1.35679 -0.772827,-0.50636 -1.614797,-0.89718 -2.527742,-1.06736 -0.216273,-0.0403 -0.436115,-0.0583 -0.654171,-0.0875 -0.913723,-0.051 -1.899394,-0.0609 -2.719824,0.41326 -0.179139,0.10354 -0.335159,0.24272 -0.502738,0.36408 -0.136231,0.14809 -0.28557,0.28511 -0.408696,0.44427 -0.474777,0.61371 -0.741882,1.38831 -0.812962,2.15618 -0.01839,0.19855 -0.01164,0.39864 -0.01744,0.59795 0.01918,0.19426 0.01236,0.39288 0.05756,0.58278 0.199176,0.83697 0.581435,1.40585 1.217036,1.97182 0.359717,0.32031 0.660791,0.49234 1.059799,0.7476 0.831456,0.50712 1.716434,0.91384 2.612617,1.29073 0.612103,0.27189 1.254959,0.46184 1.882061,0.69329 0.02556,0.014 0.05952,0.0185 0.0767,0.042 0.0113,0.0155 -0.03912,-0.004 -0.05593,-0.0136 -0.04676,-0.0257 -0.09197,-0.0551 -0.132411,-0.0899 -0.04004,-0.0344 -0.07168,-0.0776 -0.107466,-0.11645 -0.01191,-0.0129 -0.01966,-0.0314 -0.03559,-0.0388 -0.0063,-0.003 -0.0086,0.0109 -0.01288,0.0163 -0.116845,0.23668 -0.252016,0.46053 -0.402087,0.67832 -0.283115,0.40762 -0.652648,0.62437 -1.095106,0.82347 -0.610089,0.25597 -1.264419,0.26102 -1.913702,0.23387 -0.353073,-0.0327 -0.716542,-0.0724 -1.04281,-0.22346 -0.104772,-0.0485 -0.281064,-0.18677 -0.371192,-0.25359 -1.653717,-1.11701 -3.233396,1.2217 -1.579679,2.3387 v 0 c 0.158637,0.10309 0.310423,0.21757 0.475909,0.30925 0.747075,0.41388 1.571022,0.60301 2.419329,0.64961 0.473514,0.0143 0.6584,0.0318 1.132406,-0.002 0.72013,-0.0517 1.427424,-0.21477 2.090306,-0.50281 0.155908,-0.0761 0.315312,-0.14538 0.467731,-0.22823 0.707644,-0.38467 1.305475,-0.92278 1.767096,-1.58225 0.554702,-0.8507 0.927738,-1.60482 0.843873,-2.65214 -0.06264,-0.34081 -0.07469,-0.53239 -0.231381,-0.85201 -0.278101,-0.56727 -0.738786,-0.96229 -1.323504,-1.18663 -0.586851,-0.21332 -1.185669,-0.39464 -1.758818,-0.6449 -0.753448,-0.31598 -1.49888,-0.6538 -2.200098,-1.0759 -0.27682,-0.17072 -0.542004,-0.34055 -0.795959,-0.54354 -0.03794,-0.0303 -0.07285,-0.0648 -0.113487,-0.0914 -0.02114,-0.0138 -0.0602,-0.006 -0.07007,-0.0288 -0.02986,-0.0704 -0.02543,-0.15072 -0.03813,-0.22608 -0.01585,-0.36065 0.0277,-0.70317 0.191804,-1.02926 -0.03065,-0.0914 0.04784,-0.10178 0.140126,-0.12261 0.315921,-0.0713 0.645324,-0.0581 0.965975,-0.0476 0.327528,0.0331 0.397714,0.0274 0.715299,0.10944 0.454858,0.11748 0.863393,0.35248 1.257294,0.60174 0.453666,0.29708 0.90632,0.60131 1.277218,1.00172 1.416169,1.40603 3.404603,-0.59673 1.988434,-2.00277 z"
       id="path3329"
       style="fill:#ffffff;fill-opacity:1;fill-rule:nonzero;stroke:none;stroke-width:0.264583" />
    <path
       d="m 43.972277,280.15594 c -0.438706,0.56377 -0.774904,1.19838 -1.127064,1.8176 -0.527725,0.91245 -1.04193,1.83222 -1.524884,2.76918 -0.498613,1.05499 -1.030338,2.09143 -1.613284,3.10224 -0.517249,0.88281 -1.11022,1.71727 -1.647203,2.58768 -0.252349,0.43265 -0.505566,0.87378 -0.639826,1.3602 -0.0263,0.0953 -0.04136,0.19324 -0.06205,0.28986 -0.3517,1.96437 2.426348,2.46176 2.778048,0.49738 v 0 c -0.0056,0.0122 -0.0034,0.0345 -0.01669,0.0366 -0.0113,0.002 -0.0019,-0.0235 0.0019,-0.0343 0.01675,-0.0498 0.0366,-0.0986 0.05881,-0.14623 0.0938,-0.20107 0.170566,-0.32566 0.283009,-0.52374 0.549844,-0.89487 1.164487,-1.74855 1.689669,-2.65897 0.603824,-1.0497 1.160981,-2.12294 1.676778,-3.21873 0.464262,-0.90259 0.961499,-1.78709 1.469017,-2.66601 0.26829,-0.47176 0.525412,-0.95263 0.835697,-1.39861 1.282819,-1.52867 -0.879054,-3.34285 -2.161873,-1.81418 z"
       id="path3361"
       style="fill:#ffffff;fill-opacity:1;fill-rule:nonzero;stroke:none;stroke-width:0.264583" />
    <path
       d="m 46.203905,281.95576 c 0.381431,-0.17453 0.763463,-0.34763 1.170106,-0.45429 0.04206,-0.006 0.08372,-0.0167 0.126188,-0.0184 0.03544,-10e-4 0.267131,0.14265 0.286893,0.15357 0.252111,0.14178 0.459592,0.33641 0.617157,0.57744 0.07853,0.13654 0.104222,0.30111 0.0836,0.45695 -0.0041,0.008 -0.01027,0.0336 -0.01225,0.0247 -0.01,-0.0447 0.0049,-0.0988 0.01347,-0.14217 -0.847304,1.8068 1.707904,3.00507 2.555209,1.19826 v 0 c 0.149622,-0.35994 0.268554,-0.68693 0.265811,-1.08535 -0.0028,-0.11831 5.29e-4,-0.23691 -0.0084,-0.35492 -0.04707,-0.62811 -0.259387,-1.23036 -0.611068,-1.75199 -0.07363,-0.0986 -0.142989,-0.20049 -0.220906,-0.29571 -0.393642,-0.48106 -0.889966,-0.86568 -1.43587,-1.15909 -0.118348,-0.056 -0.233873,-0.11838 -0.355044,-0.16797 -0.662752,-0.27121 -1.36852,-0.33458 -2.064137,-0.15344 -0.525316,0.15127 -1.034444,0.34415 -1.52773,0.58067 -1.83266,0.78983 -0.715669,3.3816 1.116989,2.59177 z"
       id="path3363"
       style="fill:#ffffff;fill-opacity:1;fill-rule:nonzero;stroke:none;stroke-width:0.264583" />
    <path
       d="m 47.965514,282.6767 c -0.190259,0.44374 -0.346475,0.9003 -0.499496,1.35784 -0.20795,0.62473 -0.458378,1.23402 -0.701879,1.8454 -0.303789,0.77924 -0.618136,1.55411 -0.954823,2.31972 -0.282054,0.65425 -0.624845,1.27878 -0.976339,1.89753 -0.308271,0.54479 -0.644028,1.07319 -0.962044,1.61221 -0.317621,0.52943 -0.598119,1.07776 -0.814033,1.65624 -0.107235,0.33761 -0.232166,0.66862 -0.363677,0.99738 -0.01667,0.0375 -0.03014,0.0767 -0.04996,0.11264 -0.01357,0.0246 0.01511,-0.0552 0.03108,-0.0784 0.06057,-0.0877 0.131316,-0.16796 0.196972,-0.25194 -1.496023,1.32074 0.371798,3.43645 1.867824,2.1157 v 0 c 0.276764,-0.31011 0.435797,-0.46249 0.574767,-0.85067 0.141634,-0.35468 0.278355,-0.7113 0.393605,-1.0756 0.14736,-0.42101 0.373123,-0.80687 0.594746,-1.19234 0.325229,-0.5524 0.670417,-1.0929 0.98488,-1.65168 0.398878,-0.7027 0.78527,-1.4133 1.106014,-2.15587 0.349408,-0.79593 0.677537,-1.60067 0.992912,-2.41069 0.263131,-0.66067 0.532495,-1.31952 0.756563,-1.99482 0.134977,-0.4039 0.271576,-0.80726 0.44082,-1.19846 0.74545,-1.85115 -1.872478,-2.90538 -2.617928,-1.05422 z"
       id="path3365"
       style="fill:#ffffff;fill-opacity:1;fill-rule:nonzero;stroke:none;stroke-width:0.264583" />
    <path
       d="m 44.559308,295.06372 c -0.11698,-0.51429 -0.346361,-0.98728 -0.615807,-1.43682 -0.31717,-0.50614 -0.772541,-0.88932 -1.242719,-1.24607 -0.399034,-0.30043 -0.830035,-0.55256 -1.277308,-0.77311 -0.401886,-0.17447 -0.83067,-0.31868 -1.270942,-0.35247 -0.10233,-0.008 -0.205155,-0.007 -0.307731,-0.01 -0.607161,0.0381 -1.157735,0.31482 -1.575054,0.75458 -0.08018,0.0845 -0.15039,0.1779 -0.225584,0.26685 -0.474361,0.68344 -0.50782,1.35535 -0.431453,2.15207 0.06141,0.48509 0.141983,0.97782 0.342937,1.42788 0.04661,0.10438 0.103938,0.20363 0.155905,0.30545 0.340244,0.55218 0.862187,0.88485 1.434301,1.15269 0.500219,0.21132 1.041046,0.33053 1.585892,0.32153 0.142557,-0.002 0.284461,-0.0198 0.426693,-0.0297 0.858853,-0.12921 1.632376,-0.55216 2.197547,-1.21469 0.102762,-0.12046 0.187352,-0.25531 0.281027,-0.38297 0.0666,-0.12378 0.133197,-0.24756 0.199798,-0.37134 0.88411,-1.78909 -1.646034,-3.03941 -2.530144,-1.25033 v 0 c 0.0019,0.007 0.0039,0.0142 0.0058,0.0212 -0.07754,0.17716 -0.226864,0.32367 -0.410535,0.38757 -0.195583,0.0349 -0.393214,0.0259 -0.580163,-0.0468 -0.124216,-0.0538 -0.04625,-0.0186 -0.15848,-0.0725 -0.01693,-0.008 -0.05766,-0.0369 -0.05322,-0.0186 0.01267,0.0521 0.08903,0.0788 0.07376,0.14283 -0.02146,0.0284 -0.04588,-0.0609 -0.0721,-0.15488 -0.0461,-0.16523 -0.06926,-0.33585 -0.09157,-0.50551 -0.02987,-0.2565 0.02215,-0.34326 -0.153331,-0.1247 -0.119597,0.0746 0.0095,-0.01 -0.0356,2.7e-4 -0.123148,0.0278 -0.242316,0.0823 -0.372854,0.0613 -0.0168,-0.004 -0.0501,0.006 -0.05042,-0.0112 -2.6e-5,-10e-4 0.03144,-0.002 0.128482,0.0156 0.08772,0.016 0.173969,0.0378 0.255455,0.075 0.285467,0.13368 0.55412,0.30067 0.808651,0.48638 0.190135,0.14238 0.390875,0.28263 0.538441,0.47107 0.119792,0.18206 0.215701,0.37957 0.26984,0.59154 0.447101,1.94488 3.19758,1.31258 2.750479,-0.6323 z"
       id="path3367"
       style="fill:#ffffff;fill-opacity:1;fill-rule:nonzero;stroke:none;stroke-width:0.264583" />
    <path
       d="m 44.507497,279.29221 c -0.27482,0.24267 -0.53639,0.49947 -0.81802,0.7344 -0.272987,0.22452 -0.5817,0.39517 -0.897403,0.55066 -0.418838,0.2037 -0.869384,0.32327 -1.319758,0.43339 -0.78926,0.17576 -1.581893,0.33665 -2.37998,0.46677 -0.81449,0.12097 -1.638376,0.15695 -2.460757,0.16627 -0.712835,0.0202 -1.404419,-0.12794 -2.084819,-0.32286 -0.702132,-0.20604 -1.366004,-0.5099 -1.992635,-0.88466 -0.54887,-0.34632 -1.021056,-0.78872 -1.453936,-1.2683 -0.464171,-0.54976 -0.919056,-1.10762 -1.36617,-1.67136 -0.417976,-0.53825 -0.799222,-1.10726 -1.272027,-1.60084 -0.104286,-0.10886 -0.215776,-0.21059 -0.323662,-0.31589 -0.540055,-0.50093 -1.176068,-0.86318 -1.855079,-1.13687 -0.575947,-0.21043 -1.187959,-0.28743 -1.798962,-0.24205 -0.164697,0.0122 -0.328237,0.0369 -0.492355,0.0553 -0.737325,0.14749 -1.58125,0.13133 -2.294087,0.37022 -0.202649,0.0679 -0.394211,0.16527 -0.591317,0.24791 -1.523128,1.03833 0.211292,-0.17614 -0.871661,0.65972 -0.02569,0.0198 0.03775,-0.0528 0.05663,-0.0792 -1.767177,0.92712 -0.45603,3.42629 1.311147,2.49917 v 0 c 0.204741,-0.12687 0.562155,-0.27392 0.698048,-0.52257 0.02832,-0.0226 0.05141,-0.0541 0.08495,-0.0679 0.176954,-0.0726 0.46451,-0.10432 0.636981,-0.12849 0.435542,-0.061 0.872832,-0.11 1.307578,-0.17698 0.308504,-0.0418 0.620115,-0.0915 0.922385,0.0121 0.340202,0.1249 0.655403,0.3073 0.930344,0.54461 0.518428,0.48442 0.908707,1.07664 1.340354,1.63601 0.487045,0.61347 0.981133,1.22182 1.490178,1.81717 0.626671,0.68391 1.311328,1.31223 2.106181,1.79865 0.839841,0.49112 1.722054,0.9016 2.660084,1.17018 0.942343,0.26327 1.902481,0.45412 2.88675,0.42887 0.963525,-0.0128 1.928553,-0.0569 2.882278,-0.2032 0.872006,-0.14354 1.738794,-0.31696 2.600745,-0.51207 0.65051,-0.1621 1.297689,-0.34699 1.900463,-0.64677 0.513582,-0.25755 1.012132,-0.54587 1.45448,-0.91584 0.279951,-0.23617 0.548606,-0.48439 0.816984,-0.73353 1.528823,-1.28264 -0.285108,-3.44472 -1.813931,-2.16208 z"
       id="path3369"
       style="fill:#ffffff;fill-opacity:1;fill-rule:nonzero;stroke:none;stroke-width:0.264583" />
    <path
       d="m 19.92624,275.80218 c -0.719937,0.51985 -1.399226,1.09462 -2.077676,1.6669 -1.185177,0.99753 -2.202222,2.16849 -3.236248,3.31607 -1.07862,1.18483 -2.204891,2.32461 -3.289527,3.50388 -0.692137,0.75433 -1.349868,1.53874 -1.9930391,2.33487 -0.1957221,0.24613 -0.3986498,0.48722 -0.5740318,0.74858 -1.0733079,1.68241 1.3059689,3.20029 2.3792769,1.51789 v 0 c -0.01109,0.0157 -0.02282,0.0309 -0.03326,0.0471 -0.009,0.0138 0.0189,-0.027 0.0288,-0.0402 0.02667,-0.0355 0.0536,-0.0708 0.0809,-0.10581 0.106385,-0.13643 0.204505,-0.25777 0.313747,-0.39412 0.605238,-0.74935 1.223723,-1.48804 1.875083,-2.19805 1.090726,-1.18655 2.225121,-2.33176 3.3087,-3.52494 0.948036,-1.05215 1.875684,-2.13072 2.959675,-3.04834 0.581875,-0.4912 1.167698,-0.97813 1.771677,-1.4421 1.684118,-1.07062 0.170041,-3.45232 -1.514078,-2.38171 z"
       id="path3371"
       style="fill:#ffffff;fill-opacity:1;fill-rule:nonzero;stroke:none;stroke-width:0.264583" />
    <path
       d="m 11.421869,289.7979 c 0.564679,-0.37804 1.206668,-0.61838 1.838815,-0.85671 0.440851,-0.14495 0.88642,-0.29376 1.346817,-0.36514 0.414277,-0.0642 0.830367,-0.0528 1.247071,-0.0351 0.37694,0.0426 0.795737,0.0726 1.064188,0.36989 0.104602,0.15606 0.09668,0.35113 0.103272,0.53199 -0.0024,0.43006 -0.122815,0.83702 -0.283253,1.23145 -0.127299,0.25468 -0.247134,0.55137 -0.515044,0.68452 -0.131389,0.0482 -0.26569,0.0879 -0.398598,0.13166 -1.895131,0.62526 -1.010883,3.30538 0.884248,2.68012 v 0 c 0.402854,-0.13315 0.803972,-0.27505 1.157493,-0.51721 0.116438,-0.0882 0.238885,-0.16906 0.349314,-0.26471 0.524272,-0.4541 0.878158,-1.05859 1.151468,-1.68777 0.313462,-0.82131 0.509002,-1.60606 0.466744,-2.49364 -0.01448,-0.14435 -0.02106,-0.28971 -0.04345,-0.43305 -0.121837,-0.78004 -0.471244,-1.47706 -1.049607,-2.01815 -0.11792,-0.0946 -0.229708,-0.19731 -0.353761,-0.28367 -0.718783,-0.50035 -1.577581,-0.69063 -2.43844,-0.75207 -0.531053,-0.0147 -0.715072,-0.0342 -1.253245,0.0118 -0.83641,0.0715 -1.64691,0.28834 -2.435384,0.57013 -0.869301,0.33088 -1.744302,0.67855 -2.5079311,1.22014 -1.6091064,1.18036 0.060172,3.45598 1.6692781,2.27562 z"
       id="path3373"
       style="fill:#ffffff;fill-opacity:1;fill-rule:nonzero;stroke:none;stroke-width:0.264583" />
    <path
       d="m 14.681924,291.66826 c -0.379449,0.0725 -0.76744,0.0789 -1.152419,0.0855 -0.628435,0.006 -1.252723,-0.0655 -1.854469,-0.24707 -0.410715,-0.14547 -0.745141,-0.35736 -0.974027,-0.73308 -0.08513,-0.19391 -0.02596,-0.36658 0.117608,-0.51064 0.0295,0.0438 0.01826,0.0136 -0.02938,0.0922 1.511419,-1.3031 -0.331449,-3.44057 -1.8428676,-2.13747 v 0 c -0.4519665,0.43637 -0.2409954,0.19422 -0.6259999,0.73242 -0.2140067,0.44776 -0.3114913,0.57717 -0.4007392,1.08217 -0.1515563,0.85757 0.049182,1.68678 0.5098653,2.41622 0.1167323,0.15011 0.2235869,0.30845 0.3501966,0.45033 0.5660295,0.63429 1.3188628,1.05558 2.1177368,1.32087 0.149585,0.0416 0.297823,0.0884 0.448756,0.12482 0.731332,0.17644 1.487417,0.22842 2.237493,0.23098 0.597052,-0.0125 1.198557,-0.0332 1.782726,-0.16922 1.93603,-0.484 1.251551,-3.22196 -0.684479,-2.73796 z"
       id="path3375"
       style="fill:#ffffff;fill-opacity:1;fill-rule:nonzero;stroke:none;stroke-width:0.264583" />
    <path
       d="m 16.912942,288.98624 c 0.38324,-0.0795 0.777421,-0.0717 1.166554,-0.0643 0.785844,0.0204 1.565738,0.10989 2.335075,0.26856 0.931709,0.197 1.829415,0.50943 2.70147,0.88734 0.830924,0.36265 1.579381,0.87256 2.311938,1.3998 0.707049,0.51471 1.411903,1.03249 2.124727,1.53919 0.631547,0.44815 1.31784,0.80879 1.998134,1.17544 0.724937,0.39817 1.484727,0.72561 2.251815,1.03237 0.916771,0.35905 1.86803,0.61496 2.827856,0.82769 1.150123,0.24809 2.327482,0.27458 3.498583,0.24474 0.549788,-0.0134 1.094928,-0.0754 1.634556,-0.17805 1.957464,-0.38833 1.408279,-3.15661 -0.549185,-2.76827 v 0 c -0.381412,0.0822 -0.771332,0.1087 -1.160579,0.1251 -0.941914,0.0264 -1.88999,0.0154 -2.816256,-0.17967 -0.810686,-0.17725 -1.613903,-0.39256 -2.388778,-0.69268 -0.667411,-0.2658 -1.328817,-0.54914 -1.959099,-0.89563 -0.577988,-0.31146 -1.163616,-0.61375 -1.702184,-0.99151 -0.708879,-0.50364 -1.409311,-1.01902 -2.112547,-1.53048 -0.898655,-0.64501 -1.822954,-1.25874 -2.842241,-1.69992 -1.053026,-0.45157 -2.135746,-0.82812 -3.259841,-1.0619 -0.939626,-0.18655 -1.889761,-0.3045 -2.848789,-0.32399 -0.63367,-0.009 -1.273136,-0.002 -1.892957,0.14752 -1.936512,0.48206 -1.254764,3.22071 0.681748,2.73864 z"
       id="path3377"
       style="fill:#ffffff;fill-opacity:1;fill-rule:nonzero;stroke:none;stroke-width:0.264583" />
    <path
       d="m 21.356882,285.64066 c 0.437633,-0.43218 0.793399,-0.9364 1.157632,-1.42945 0.428849,-0.57485 0.883947,-1.1289 1.30379,-1.71048 0.271491,-0.38665 0.51858,-0.7897 0.802593,-1.16747 0.137745,-0.15548 0.241279,-0.33006 0.345888,-0.50891 0.903771,-1.77924 -1.612444,-3.05736 -2.516215,-1.27813 v 0 c 0.218671,-0.33209 -0.0535,0.0755 -0.08927,0.0961 -0.292968,0.39277 -0.558011,0.80433 -0.833385,1.20942 -0.411429,0.57342 -0.865311,1.11416 -1.283478,1.68263 -0.278643,0.37726 -0.545517,0.76808 -0.875658,1.10316 -1.416403,1.4058 0.571697,3.4089 1.9881,2.0031 z"
       id="path3381"
       style="fill:#ffffff;fill-opacity:1;fill-rule:nonzero;stroke:none;stroke-width:0.264583" />
    <path
       d="m 26.553796,286.83906 c 0.366416,-0.52825 0.737901,-1.05289 1.101767,-1.58292 0.406262,-0.59414 0.798094,-1.19785 1.167868,-1.81536 0.03852,-0.11151 0.318818,-0.45888 0.330333,-0.55681 0.04595,-0.39077 0.04962,-0.78537 0.07443,-1.17805 -0.69364,-1.87119 -3.339896,-0.89023 -2.646257,0.98095 v 0 c 0.108366,-1.41176 0.245983,-1.38121 -0.180245,-0.69526 -0.339289,0.56745 -0.700098,1.12142 -1.072943,1.6674 -0.367075,0.53486 -0.742481,1.06383 -1.111575,1.59729 -1.119179,1.65224 1.217445,3.235 2.336625,1.58276 z"
       id="path3383"
       style="fill:#ffffff;fill-opacity:1;fill-rule:nonzero;stroke:none;stroke-width:0.264583" />
    <path
       d="m 30.294157,289.01896 c 0.378315,-0.50463 0.684623,-1.05533 0.967473,-1.61743 0.251942,-0.55688 0.505412,-1.11357 0.746794,-1.67518 0.01855,-0.0472 0.03709,-0.0945 0.05564,-0.14172 0.717654,-1.86211 -1.915766,-2.87702 -2.633416,-1.01492 v 0 c -0.0055,0.0152 -0.01106,0.0305 -0.01659,0.0457 -0.217837,0.51131 -0.452488,1.01569 -0.676797,1.52417 -0.208198,0.42027 -0.434967,0.83149 -0.71696,1.2077 -1.18206,1.60786 1.09179,3.27954 2.273853,1.67168 z"
       id="path3385"
       style="fill:#ffffff;fill-opacity:1;fill-rule:nonzero;stroke:none;stroke-width:0.264583" />
    <path
       d="m 35.046003,291.50232 c 0.363955,-0.69186 0.685072,-1.40463 1.008073,-2.11615 0.330768,-0.72376 0.681296,-1.43847 1.04926,-2.14403 0.113999,-0.23015 0.0489,-0.0856 0.175438,-0.44196 0.47911,-1.93725 -2.260569,-2.61482 -2.739681,-0.67757 v 0 c 0.106994,-0.28407 0.137644,-0.3413 0.06151,-0.18479 -0.391178,0.75106 -0.764704,1.51138 -1.116359,2.28178 -0.304842,0.67156 -0.606906,1.34478 -0.950873,1.99757 -0.908738,1.7767 1.603897,3.06185 2.512635,1.28515 z"
       id="path3387"
       style="fill:#ffffff;fill-opacity:1;fill-rule:nonzero;stroke:none;stroke-width:0.264583" />
  </g>
</svg>
