<?xml version="1.0" encoding="UTF-8" standalone="no"?>
<!-- Created with Inkscape (http://www.inkscape.org/) -->

<svg
   xmlns:dc="http://purl.org/dc/elements/1.1/"
   xmlns:cc="http://creativecommons.org/ns#"
   xmlns:rdf="http://www.w3.org/1999/02/22-rdf-syntax-ns#"
   xmlns:svg="http://www.w3.org/2000/svg"
   xmlns="http://www.w3.org/2000/svg"
   xmlns:sodipodi="http://sodipodi.sourceforge.net/DTD/sodipodi-0.dtd"
   xmlns:inkscape="http://www.inkscape.org/namespaces/inkscape"
   width="64mm"
   height="64mm"
   viewBox="0 0 64 64"
   version="1.1"
   id="svg8"
   sodipodi:docname="postyour.svg"
   inkscape:version="0.92.5 (2060ec1f9f, 2020-04-08)">
  <defs
     id="defs2" />
  <sodipodi:namedview
     id="base"
     pagecolor="#ffffff"
     bordercolor="#666666"
     borderopacity="1.0"
     inkscape:pageopacity="0.0"
     inkscape:pageshadow="2"
     inkscape:zoom="1.5"
     inkscape:cx="-37.722146"
     inkscape:cy="86.792127"
     inkscape:document-units="mm"
     inkscape:current-layer="layer1"
     showgrid="false"
     inkscape:snap-page="true"
     inkscape:window-width="1920"
     inkscape:window-height="1016"
     inkscape:window-x="0"
     inkscape:window-y="27"
     inkscape:window-maximized="1"
     units="mm" />
  <metadata
     id="metadata5">
    <rdf:RDF>
      <cc:Work
         rdf:about="">
        <dc:format>image/svg+xml</dc:format>
        <dc:type
           rdf:resource="http://purl.org/dc/dcmitype/StillImage" />
        <dc:title />
      </cc:Work>
    </rdf:RDF>
  </metadata>
  <g
     inkscape:label="Layer 1"
     inkscape:groupmode="layer"
     id="layer1"
     transform="translate(0,-233)">
    <rect
       style="fill:#ff5722;fill-opacity:1;stroke-width:0.26458332"
       id="rect3713"
       width="64"
       height="64"
       x="0"
       y="233" />
    <path
       style="fill:#ffffff;fill-opacity:1;fill-rule:nonzero;stroke:none;stroke-width:0.26458332"
       id="path1360"
       d="m 9.4368055,237.05028 c 0,0.012 2.389e-4,0.0482 0,0.0361 -0.00341,-0.17174 0.017505,0.13684 0.01869,0.1507 0.021857,0.12579 0.031363,0.25408 0.049439,0.38068 0.027588,0.21561 0.056051,0.43109 0.083469,0.64673 0.039315,0.26506 0.073073,0.53089 0.1088536,0.79645 0.038964,0.31829 0.089134,0.63502 0.1342834,0.95246 0.051069,0.35558 0.1086559,0.71014 0.1663036,1.06469 0.065509,0.39216 0.1353099,0.78356 0.2036439,1.17523 0.07274,0.42224 0.152159,0.84323 0.233206,1.26394 0.09298,0.45779 0.179632,0.91682 0.272527,1.37463 0.102635,0.50599 0.197148,1.01354 0.291144,1.52119 0.09922,0.54801 0.195806,1.09649 0.282374,1.64665 0.09245,0.5834 0.174227,1.16848 0.25034,1.75422 0.07118,0.59426 0.138787,1.18898 0.199376,1.78443 0.05253,0.56323 0.100807,1.12687 0.150057,1.6904 0.04533,0.49634 0.07495,0.99392 0.115041,1.49065 0.03278,0.38706 0.06235,0.77434 0.10317,1.16065 0.02634,0.27088 0.05835,0.54088 0.09842,0.81004 0.01535,0.11732 0.03468,0.23374 0.05813,0.34967 0.389372,1.95725 -2.3786087,2.50791 -2.7679806,0.55065 v 0 c -0.031747,-0.16117 -0.060144,-0.32284 -0.081754,-0.48572 -0.04575,-0.30861 -0.083138,-0.61815 -0.1134737,-0.92867 -0.043117,-0.40966 -0.075295,-0.82025 -0.1096769,-1.23072 -0.039185,-0.49018 -0.069164,-0.98109 -0.113383,-1.47088 -0.048072,-0.55027 -0.095334,-1.10062 -0.146296,-1.65062 -0.057842,-0.56946 -0.1227104,-1.13818 -0.1903638,-1.70655 -0.072737,-0.56084 -0.1511628,-1.121 -0.2396373,-1.67959 -0.082293,-0.52486 -0.1750608,-1.04797 -0.2693953,-1.57079 -0.091083,-0.49194 -0.1825586,-0.9838 -0.2820176,-1.47414 -0.094615,-0.46688 -0.1832729,-0.93493 -0.2778998,-1.40181 -0.08412,-0.43696 -0.1665311,-0.87422 -0.2421601,-1.31274 -0.070141,-0.40232 -0.1419104,-0.80436 -0.2090322,-1.20721 -0.060671,-0.37318 -0.1211202,-0.74639 -0.1748267,-1.12065 -0.04599,-0.32415 -0.097322,-0.64756 -0.1370676,-0.97258 -0.036744,-0.27275 -0.071695,-0.54573 -0.1116761,-0.81803 -0.026377,-0.20838 -0.053909,-0.41661 -0.08062,-0.62495 -0.022656,-0.17251 -0.042368,-0.3454 -0.064536,-0.51798 -0.012023,-0.14199 -0.029978,-0.28382 -0.028891,-0.42657 0,-1.99561 2.8222223,-1.99561 2.8222223,0 z"
       inkscape:connector-curvature="0" />
    <path
       style="fill:#ffffff;fill-opacity:1;fill-rule:nonzero;stroke:none;stroke-width:0.26458332"
       id="path1362"
       d="m 7.4849306,236.71946 c 0.1189255,-0.11833 0.2649678,-0.2369 0.4290518,-0.34847 0.1769687,-0.11856 0.3692088,-0.21155 0.5631762,-0.29843 0.2019768,-0.0858 0.4104153,-0.15484 0.620999,-0.21588 0.2182718,-0.0606 0.438045,-0.11412 0.6602045,-0.15836 0.2360904,-0.0408 0.4720739,-0.0825 0.7088629,-0.11919 0.288725,-0.047 0.579997,-0.0698 0.871914,-0.0839 0.30573,-0.0185 0.611684,-0.0115 0.917239,0.005 0.331407,0.0219 0.660701,0.0653 0.987847,0.12164 0.345981,0.0624 0.686598,0.14817 1.024059,0.24594 0.35316,0.1051 0.699753,0.23054 1.043122,0.3638 0.342115,0.13601 0.680151,0.28204 1.015631,0.4336 0.336328,0.15293 0.66906,0.31347 0.998663,0.48036 0.322296,0.16231 0.637975,0.33708 0.951476,0.51564 0.304933,0.17273 0.600237,0.36144 0.890946,0.55694 0.264441,0.18008 0.518591,0.37382 0.763564,0.57945 0.266551,0.22119 0.493892,0.48087 0.697438,0.75976 0.210483,0.29216 0.343636,0.62129 0.435405,0.96696 0.09766,0.40901 0.05159,0.81576 -0.05198,1.21683 -0.108858,0.36682 -0.314014,0.68633 -0.547232,0.985 -0.228148,0.28917 -0.50738,0.52823 -0.798624,0.75086 -0.298741,0.22309 -0.617657,0.41708 -0.94284,0.59869 -0.341244,0.18682 -0.690649,0.35781 -1.044755,0.51869 -0.366827,0.16569 -0.739797,0.31721 -1.11506,0.46258 -0.368853,0.13927 -0.741616,0.26775 -1.114397,0.396 -0.345354,0.11477 -0.689933,0.23187 -1.036933,0.3416 -0.318469,0.0969 -0.637469,0.19177 -0.959085,0.27774 -0.258144,0.0731 -0.51729,0.14242 -0.777919,0.20604 -0.202211,0.0489 -0.405747,0.092 -0.609181,0.13545 -0.09708,0.0207 -0.04955,0.0105 -0.142574,0.0303 -1.9520643,0.41463 -2.5384345,-2.34601 -0.58637,-2.76063 v 0 c 0.09142,-0.0194 0.04481,-0.01 0.139809,-0.0297 0.177282,-0.0378 0.354699,-0.0752 0.530969,-0.11758 0.240723,-0.0583 0.479575,-0.12391 0.718054,-0.19078 0.280563,-0.0746 0.55848,-0.15818 0.836398,-0.24203 0.324246,-0.10223 0.645909,-0.21233 0.968679,-0.31908 0.338902,-0.1166 0.677849,-0.23319 1.013437,-0.3591 0.326072,-0.12621 0.650273,-0.25744 0.969037,-0.40127 0.285281,-0.12893 0.566336,-0.26686 0.841418,-0.41646 0.208903,-0.11439 0.412622,-0.23902 0.605567,-0.37886 0.10297,-0.077 0.207084,-0.15341 0.290333,-0.25257 0.02524,-0.0309 0.07428,-0.10867 0.05231,-0.0264 -0.01254,0.0796 -0.0097,0.15762 0.01704,0.23493 0.02329,0.058 0.06737,0.10955 0.0024,-3.4e-4 -0.05723,-0.0851 -0.130429,-0.16069 -0.209257,-0.22792 -0.167178,-0.1415 -0.341563,-0.27339 -0.522203,-0.39737 -0.231967,-0.15654 -0.467744,-0.30746 -0.711302,-0.44549 -0.273717,-0.15596 -0.549105,-0.30901 -0.830602,-0.45062 -0.292264,-0.14837 -0.587676,-0.29036 -0.885933,-0.42631 -0.289358,-0.13116 -0.581239,-0.25683 -0.876172,-0.37496 -0.266093,-0.10403 -0.53495,-0.20133 -0.808489,-0.28412 -0.237662,-0.0697 -0.477509,-0.13069 -0.721254,-0.17557 -0.217836,-0.0391 -0.437513,-0.0665 -0.658185,-0.0838 -0.208712,-0.0119 -0.417535,-0.0181 -0.626414,-0.004 -0.192883,0.009 -0.385246,0.0217 -0.575934,0.0541 -0.199056,0.0305 -0.397198,0.0665 -0.595845,0.0994 -0.146006,0.0277 -0.289522,0.0652 -0.4329606,0.10394 -0.085843,0.0226 -0.1689897,0.0535 -0.2525874,0.0831 -0.035851,0.0148 -0.1020752,0.0512 -0.1192522,0.0528 -0.1111179,0.0746 0.171093,-0.15256 -0.055039,0.0455 -0.013674,0.012 0.02599,-0.0254 0.038987,-0.0381 -1.4111113,1.41111 -3.4067237,-0.5845 -1.9956127,-1.99561 z"
       inkscape:connector-curvature="0" />
    <path
       style="fill:#ffffff;fill-opacity:1;fill-rule:nonzero;stroke:none;stroke-width:0.26458332"
       id="path1364"
       d="m 26.75846,248.17928 c 0.02588,-0.12586 -0.0458,0.16802 -0.0486,0.18581 -0.02741,0.19881 0.0231,0.38827 0.101757,0.56895 0.0627,0.13267 0.159025,0.23363 0.27278,0.32322 0.0046,0.0242 0.208071,0.0994 0.127166,0.0821 -0.08196,-0.0194 -0.08757,-0.0138 -0.166621,-0.0179 -0.07335,0.004 -0.146455,0.0155 -0.219292,0.0266 -0.08254,0.018 -0.163854,0.0407 -0.241996,0.073 -0.07374,0.0385 -0.15892,0.0664 -0.221244,0.12329 -0.08046,0.0602 -0.158533,0.12605 -0.21993,0.20632 -0.09808,0.11383 -0.175264,0.24394 -0.248736,0.37448 -0.09873,0.17325 -0.175649,0.3579 -0.244941,0.54456 -0.07741,0.21518 -0.128967,0.43815 -0.175617,0.66163 -0.04803,0.22695 -0.06829,0.4585 -0.07492,0.69003 -0.004,0.20745 0.02225,0.41202 0.06234,0.61493 0.0378,0.19005 0.109993,0.37013 0.194489,0.5437 0.09235,0.17244 0.213057,0.32764 0.33931,0.47628 0.136868,0.16477 0.301706,0.29882 0.474498,0.42333 0.196993,0.13871 0.409255,0.25105 0.628923,0.34876 0.228314,0.0977 0.466669,0.16975 0.708774,0.22385 0.245893,0.0539 0.497205,0.0765 0.748337,0.0861 0.235241,0.006 0.468555,-0.0246 0.699592,-0.0652 0.231251,-0.0408 0.453017,-0.11934 0.669875,-0.20743 0.20842,-0.0897 0.398576,-0.21214 0.583856,-0.34162 0.17657,-0.12399 0.329134,-0.27654 0.469202,-0.4397 0.141377,-0.16698 0.247271,-0.35711 0.349546,-0.54921 0.09722,-0.18802 0.170389,-0.38791 0.222493,-0.59287 0.05099,-0.19819 0.07147,-0.40164 0.07341,-0.60574 -0.0039,-0.20105 -0.02761,-0.40212 -0.07699,-0.59712 -0.04127,-0.19317 -0.123047,-0.36936 -0.215828,-0.54193 -0.09261,-0.16876 -0.218564,-0.31286 -0.35265,-0.44927 -0.163893,-0.16822 -0.358002,-0.30108 -0.555506,-0.42616 -0.235913,-0.14479 -0.487447,-0.26196 -0.742217,-0.3692 -0.256074,-0.1041 -0.52002,-0.18676 -0.786051,-0.26104 -0.240916,-0.0683 -0.48392,-0.12772 -0.72835,-0.18194 -0.123261,-0.0301 -0.252881,-0.054 -0.375515,-0.07 -0.0048,-1.6e-4 -0.01939,-8.2e-4 -0.01455,-4.5e-4 0.407355,0.0312 0.608137,-0.19093 1.000601,-0.41076 -1.373849,1.44742 -3.420801,-0.4955 -2.046952,-1.94291 v 0 c 0.241084,-0.13976 0.471012,-0.30084 0.723255,-0.41928 0.165796,-0.0779 0.460724,-0.0378 0.642289,-0.0323 0.229733,0.0277 0.457698,0.0674 0.682951,0.12072 0.295629,0.0658 0.589502,0.13824 0.881044,0.22037 0.381436,0.108 0.759814,0.22806 1.12609,0.38067 0.400775,0.17166 0.795851,0.35922 1.16477,0.59298 0.380968,0.24736 0.749774,0.5153 1.064517,0.84536 0.313655,0.33061 0.600964,0.68522 0.814472,1.09028 0.203377,0.39141 0.374457,0.79758 0.469823,1.23009 0.0924,0.42399 0.153816,0.85467 0.146209,1.28989 -0.01315,0.43248 -0.05822,0.86356 -0.172562,1.28232 -0.114654,0.4077 -0.256111,0.80816 -0.457559,1.18211 -0.206349,0.38298 -0.433721,0.75459 -0.721083,1.08335 -0.29496,0.32995 -0.611822,0.64042 -0.977989,0.89193 -0.360998,0.24863 -0.736685,0.47605 -1.14372,0.64233 -0.402627,0.15928 -0.814824,0.29642 -1.243002,0.36875 -0.429316,0.0717 -0.862997,0.12051 -1.299154,0.10252 -0.425326,-0.0205 -0.850392,-0.0613 -1.266093,-0.15763 -0.420563,-0.10073 -0.836107,-0.22438 -1.231533,-0.40174 -0.394879,-0.18112 -0.777911,-0.38675 -1.130582,-0.6421 -0.355796,-0.26296 -0.691616,-0.55135 -0.974802,-0.89334 -0.278374,-0.3373 -0.538332,-0.69172 -0.727866,-1.0879 -0.178994,-0.38965 -0.332585,-0.7913 -0.410905,-1.21469 -0.07563,-0.40983 -0.122912,-0.82414 -0.109548,-1.24177 0.01593,-0.39286 0.05059,-0.78542 0.133966,-1.17044 0.07758,-0.36442 0.166691,-0.727 0.297145,-1.07667 0.125138,-0.32761 0.263065,-0.65117 0.439268,-0.95511 0.170025,-0.29203 0.351493,-0.57879 0.577071,-0.83189 0.22266,-0.24662 0.461929,-0.47786 0.737707,-0.66541 0.259877,-0.17366 0.532199,-0.32761 0.825264,-0.43888 0.266778,-0.0982 0.539739,-0.17959 0.82125,-0.2235 0.262904,-0.0388 0.527961,-0.0661 0.794153,-0.053 0.237106,0.0139 0.473482,0.0396 0.703717,0.10055 0.269153,0.0704 0.53353,0.16171 0.765223,0.32011 0.258741,0.18808 0.485156,0.40786 0.635902,0.69431 0.151553,0.3224 0.24719,0.66009 0.210169,1.02039 -0.0263,0.22397 -0.07271,0.44526 -0.166264,0.65192 -0.786112,1.83425 -3.380142,0.72253 -2.594031,-1.11173 z"
       inkscape:connector-curvature="0" />
    <path
       style="fill:#ffffff;fill-opacity:1;fill-rule:nonzero;stroke:none;stroke-width:0.26458332"
       id="path1366"
       d="m 42.580866,248.11789 c -0.0291,-0.0186 -0.04476,-0.0237 -0.0776,-0.0366 -0.02439,-0.009 -0.04789,-0.0144 -0.07423,-0.0192 -0.06052,-0.0134 -0.122134,-0.021 -0.183581,-0.0287 -0.110876,-0.01 -0.01654,-0.005 -0.15629,-0.002 0.0043,3.7e-4 0.01733,1.4e-4 0.01307,0.001 -0.06817,0.0155 -0.145328,0.0196 -0.214612,0.0307 -0.09282,0.0178 -0.183094,0.0455 -0.273629,0.0722 -0.133974,0.0454 -0.269439,0.0863 -0.402294,0.13498 -0.128786,0.0453 -0.254423,0.0995 -0.378888,0.15557 -0.103204,0.0523 -0.204354,0.1083 -0.304208,0.16675 -0.07569,0.047 -0.152611,0.0924 -0.221697,0.14872 -0.0509,0.0404 -0.103902,0.0893 -0.144936,0.13179 0.05644,-0.0627 -0.102888,0.15916 -0.0087,0.0233 0.0402,-0.0777 -0.01445,0.0718 0.02889,-0.0592 0.01995,-0.0568 0.01958,-0.11751 0.0208,-0.17708 0.0019,-0.0568 -0.02574,-0.14107 -0.04102,-0.18884 -0.0097,-0.0424 -0.11956,-0.16249 -0.01146,-0.0485 0.0362,0.0339 0.07274,0.0678 0.114372,0.0947 0.08799,0.06 0.182755,0.11166 0.276638,0.16332 0.1397,0.0807 0.28299,0.15463 0.426765,0.22771 0.162385,0.0761 0.325453,0.15081 0.487629,0.22739 0.18169,0.0911 0.364509,0.17979 0.548386,0.26634 0.19666,0.0956 0.391017,0.1957 0.587169,0.2923 0.216495,0.10252 0.430191,0.21094 0.639739,0.32697 0.191497,0.10758 0.381717,0.21733 0.569465,0.33133 0.198781,0.12003 0.388149,0.2541 0.574831,0.39189 0.195429,0.14647 0.377669,0.30944 0.551548,0.48063 0.170106,0.17338 0.322024,0.36188 0.460377,0.56124 0.129059,0.19212 0.236747,0.39715 0.333555,0.60702 0.09117,0.2031 0.160605,0.41446 0.219943,0.62871 0.06329,0.22498 0.0972,0.4558 0.118576,0.68807 0.01392,0.16891 0.02167,0.33825 0.02902,0.50755 0.0064,0.15367 0.01093,0.3074 0.01495,0.46115 0.0069,0.18062 -0.0065,0.36111 -0.0173,0.54129 -0.01349,0.19846 -0.04785,0.39421 -0.08719,0.58889 -0.04655,0.22865 -0.122314,0.44891 -0.212603,0.66352 -0.09149,0.21479 -0.216477,0.41194 -0.348911,0.60327 -0.145468,0.20799 -0.323414,0.38896 -0.509686,0.56007 -0.173429,0.15694 -0.361394,0.29627 -0.554267,0.42808 -0.181764,0.11995 -0.369353,0.23082 -0.558155,0.33925 -0.196628,0.11364 -0.402539,0.20974 -0.606113,0.30998 -0.207615,0.10046 -0.417808,0.19535 -0.631626,0.28183 -0.210296,0.0901 -0.426172,0.16539 -0.644602,0.23292 -0.215749,0.073 -0.435131,0.13275 -0.65746,0.18164 -0.224901,0.0439 -0.452821,0.0689 -0.680683,0.0911 -0.217985,0.0169 -0.436788,0.0159 -0.655267,0.0163 -0.194792,-0.004 -0.389086,-0.0192 -0.583467,-0.0314 -0.173755,-0.0142 -0.346427,-0.0386 -0.519465,-0.0593 -0.151765,-0.0207 -0.301739,-0.0521 -0.452215,-0.0804 -0.06501,-0.012 -0.129966,-0.0242 -0.194792,-0.0371 -1.955823,-0.39651 -1.395084,-3.16246 0.560742,-2.76596 v 0 c 0.05122,0.011 0.103087,0.0189 0.154443,0.0292 0.08953,0.0168 0.179303,0.0329 0.268322,0.0521 0.120007,0.0144 0.239961,0.0293 0.359833,0.0448 0.133453,0.008 0.266907,0.0169 0.400317,0.0259 0.129567,-2.9e-4 0.259136,-9.8e-4 0.388679,-0.003 0.127002,-0.0122 0.254005,-0.0253 0.380039,-0.0455 0.138941,-0.0118 0.269669,-0.0884 0.404805,-0.1169 0.143047,-0.0429 0.283022,-0.0946 0.420198,-0.15373 0.148431,-0.0585 0.292645,-0.12692 0.436861,-0.19504 0.150696,-0.074 0.303461,-0.14432 0.449747,-0.22689 0.132308,-0.0753 0.263321,-0.15307 0.39111,-0.23579 0.08412,-0.0478 0.156339,-0.11651 0.231571,-0.17664 0.03513,-0.0284 0.06792,-0.0595 0.09542,-0.0929 0.04814,-0.0562 0.03516,-0.0488 0.06858,-0.106 -0.003,0.0419 0.02813,-0.0866 0.03237,-0.0925 0.01344,-0.0666 0.02836,-0.13228 0.03637,-0.19964 0.006,-0.0991 0.01598,-0.19842 0.01318,-0.29744 -0.0036,-0.13777 -0.0076,-0.27553 -0.01328,-0.41323 -0.0055,-0.12646 -0.01101,-0.25296 -0.02053,-0.37919 -0.006,-0.0731 -0.0075,-0.11713 -0.03058,-0.19696 -0.01804,-0.0699 -0.03952,-0.13869 -0.06752,-0.20538 -0.02474,-0.0596 -0.05697,-0.11509 -0.08765,-0.17161 -0.04005,-0.0595 -0.08142,-0.11691 -0.133059,-0.16758 -0.0685,-0.0761 -0.15218,-0.13786 -0.230116,-0.20374 -0.11871,-0.0876 -0.237815,-0.17468 -0.3645,-0.25076 -0.159219,-0.0969 -0.320802,-0.18965 -0.483246,-0.281 -0.164203,-0.0948 -0.337288,-0.1737 -0.507288,-0.25731 -0.181772,-0.0895 -0.362212,-0.18165 -0.543857,-0.27142 -0.184898,-0.0873 -0.369408,-0.17554 -0.551817,-0.26796 -0.186148,-0.0884 -0.374288,-0.17245 -0.559546,-0.26268 -0.174318,-0.0887 -0.347856,-0.17874 -0.517591,-0.27599 -0.191003,-0.10655 -0.381837,-0.21484 -0.559377,-0.34304 -0.181068,-0.13376 -0.35474,-0.27731 -0.50999,-0.44091 -0.177953,-0.18787 -0.345464,-0.3863 -0.459541,-0.6209 -0.124918,-0.25256 -0.218123,-0.51774 -0.247661,-0.79949 -0.02413,-0.26646 -0.01664,-0.53383 0.04995,-0.79439 0.0643,-0.23049 0.142912,-0.4569 0.264343,-0.66456 0.121888,-0.19872 0.252203,-0.39274 0.413165,-0.56266 0.142594,-0.14566 0.29223,-0.28437 0.453125,-0.40983 0.169339,-0.12996 0.345882,-0.24965 0.53031,-0.35732 0.188561,-0.10984 0.380108,-0.21459 0.577882,-0.30708 0.188484,-0.0836 0.378182,-0.16507 0.572764,-0.23352 0.184947,-0.0659 0.371655,-0.12649 0.558703,-0.18614 0.20562,-0.0606 0.412784,-0.11663 0.624525,-0.15183 0.198408,-0.0319 0.397438,-0.0614 0.598699,-0.0671 0.188804,-0.003 0.378119,-0.003 0.565438,0.0245 0.15135,0.0196 0.302533,0.0418 0.451358,0.0761 0.169953,0.0398 0.338635,0.0862 0.50046,0.15241 0.145616,0.06 0.289411,0.12482 0.425336,0.20485 1.732677,0.9901 0.332462,3.44048 -1.400215,2.45038 z"
       inkscape:connector-curvature="0" />
    <path
       style="fill:#ffffff;fill-opacity:1;fill-rule:nonzero;stroke:none;stroke-width:0.26458332"
       id="path1368"
       d="m 54.31038,239.4547 c -0.02612,0.14746 -0.05964,0.29346 -0.09674,0.4385 -0.03166,0.1368 -0.06644,0.27286 -0.103172,0.40837 -0.03812,0.13846 -0.07272,0.2779 -0.106664,0.41745 -0.04093,0.18027 -0.08283,0.36034 -0.126233,0.54004 -0.04398,0.1987 -0.08624,0.39778 -0.131096,0.59629 -0.05131,0.2259 -0.09863,0.4527 -0.149066,0.67879 -0.05404,0.24433 -0.105312,0.48925 -0.158668,0.73372 -0.05898,0.26693 -0.118144,0.53382 -0.176966,0.8008 -0.06505,0.29175 -0.138049,0.5816 -0.20882,0.87199 -0.07536,0.29866 -0.153927,0.59647 -0.232019,0.89443 -0.07916,0.30085 -0.162649,0.60054 -0.2429,0.9011 -0.08398,0.29918 -0.165428,0.59902 -0.245584,0.89924 -0.0783,0.29032 -0.154649,0.58112 -0.2296,0.87233 -0.06672,0.26385 -0.118277,0.53116 -0.173667,0.79753 -0.04792,0.22832 -0.08774,0.45786 -0.112617,0.6898 -0.02186,0.21186 -0.03752,0.42413 -0.04188,0.63706 -0.0043,0.19118 -0.0013,0.38274 0.01455,0.57337 0.01413,0.17496 0.03434,0.34962 0.06386,0.52269 0.02455,0.16221 0.05795,0.32257 0.09791,0.4816 0.03544,0.13077 0.08041,0.2583 0.127426,0.38522 0.0413,0.10785 0.08688,0.21402 0.143084,0.31505 0.05152,0.0824 0.09989,0.16797 0.16146,0.24349 0.05465,0.0704 0.118835,0.1316 0.185134,0.1904 0.09787,0.0849 0.207232,0.15445 0.314685,0.22635 0.129915,0.0777 0.264795,0.14642 0.400314,0.21369 0.157472,0.0771 0.321368,0.1379 0.485008,0.20002 0.177459,0.0676 0.360561,0.1188 0.542081,0.1741 0.162996,0.0485 0.328999,0.0852 0.495927,0.11704 0.160964,0.0346 0.325387,0.043 0.489215,0.0532 0.189158,0.0129 0.378904,0.007 0.568063,-0.002 0.211309,-0.0139 0.420735,-0.0449 0.629845,-0.0772 0.239388,-0.0384 0.476288,-0.0896 0.712854,-0.14215 0.232709,-0.0476 0.46169,-0.1107 0.691409,-0.17055 0.179674,-0.0503 0.359201,-0.10072 0.536723,-0.15814 0.109911,-0.0378 0.222404,-0.0696 0.32996,-0.11408 0.140758,-0.046 0.176474,-0.0669 0.327924,-0.10627 1.937438,-0.47833 2.613901,2.26162 0.676463,2.73995 v 0 c 0.0104,-0.003 0.02096,-0.005 0.0312,-0.008 0.344188,-0.11054 -0.111773,0.0387 -0.01199,0.005 -0.160234,0.0615 -0.32244,0.1176 -0.48601,0.1696 -0.229238,0.074 -0.460841,0.1399 -0.693105,0.20372 -0.262483,0.0683 -0.524333,0.13951 -0.790089,0.19435 -0.297262,0.0661 -0.595262,0.12894 -0.896138,0.17659 -0.306602,0.0471 -0.614167,0.0895 -0.924147,0.10679 -0.2935,0.0138 -0.587777,0.0197 -0.881203,-8e-5 -0.283496,-0.0182 -0.56719,-0.041 -0.845899,-0.0987 -0.26384,-0.0513 -0.526177,-0.11059 -0.78362,-0.18843 -0.241937,-0.0738 -0.485301,-0.14394 -0.721357,-0.23537 -0.251306,-0.0955 -0.50138,-0.1938 -0.742717,-0.31288 -0.242242,-0.1212 -0.48319,-0.24613 -0.71056,-0.39391 -0.220022,-0.14732 -0.438115,-0.29837 -0.635177,-0.47607 -0.200382,-0.18209 -0.389848,-0.37621 -0.552873,-0.59306 -0.14668,-0.19901 -0.283959,-0.40506 -0.40132,-0.62295 -0.109189,-0.2109 -0.210368,-0.42579 -0.29196,-0.64908 -0.08289,-0.22419 -0.159155,-0.4508 -0.219109,-0.68234 -0.05822,-0.23494 -0.108075,-0.4717 -0.145053,-0.71099 -0.04041,-0.25436 -0.07395,-0.50989 -0.09271,-0.76686 -0.01971,-0.28149 -0.02976,-0.56367 -0.02156,-0.84587 0.0071,-0.29488 0.02677,-0.5891 0.05813,-0.88244 0.03596,-0.3209 0.08773,-0.63935 0.154752,-0.9553 0.06438,-0.30959 0.125,-0.62013 0.203668,-0.92652 0.07709,-0.29939 0.15562,-0.59838 0.236035,-0.89689 0.08025,-0.30043 0.161518,-0.60056 0.245764,-0.8999 0.07926,-0.2962 0.161316,-0.59164 0.239466,-0.88814 0.07405,-0.28226 0.148389,-0.56443 0.220096,-0.8473 0.06588,-0.26994 0.133832,-0.53938 0.194562,-0.81055 0.05852,-0.2656 0.117565,-0.53108 0.176061,-0.79667 0.05467,-0.24917 0.106469,-0.49896 0.161822,-0.74797 0.05155,-0.22835 0.09831,-0.45777 0.150678,-0.68595 0.04819,-0.2111 0.09168,-0.42325 0.140007,-0.63433 0.044,-0.18217 0.08639,-0.36471 0.128029,-0.54744 0.04093,-0.16691 0.0824,-0.33376 0.128018,-0.49945 0.03467,-0.11741 0.05917,-0.23763 0.08929,-0.35622 0.0085,-0.033 0.07363,-0.32451 0.03695,-0.13777 0.282223,-1.97555 3.07608,-1.57643 2.793857,0.39912 z"
       inkscape:connector-curvature="0" />
    <path
       style="fill:#ffffff;fill-opacity:1;fill-rule:nonzero;stroke:none;stroke-width:0.26458332"
       id="path1370"
       d="m 46.562467,246.48084 c -0.006,0.002 -0.02389,0.01 -0.01799,0.007 0.152787,-0.0686 0.309523,-0.12398 0.468281,-0.17688 0.221837,-0.0712 0.44795,-0.12732 0.674336,-0.18182 0.278836,-0.063 0.558117,-0.12394 0.838755,-0.1784 0.341813,-0.0656 0.683993,-0.12945 1.026457,-0.1916 0.396827,-0.0725 0.793567,-0.14544 1.1905,-0.21734 0.424487,-0.0787 0.849694,-0.15364 1.275393,-0.22549 0.397716,-0.0745 0.798184,-0.13246 1.197509,-0.19726 0.34526,-0.0573 0.691359,-0.10918 1.037873,-0.15819 0.293293,-0.0373 0.587894,-0.0629 0.883349,-0.0732 0.282493,-0.0166 0.559376,0.0157 0.834895,0.0745 1.930376,0.50608 1.214678,3.23604 -0.715698,2.72997 v 0 c 0.039,0.007 0.07782,0.0147 0.117007,0.0202 0.0127,0.002 0.05085,0.005 0.03842,0.002 -0.05744,-0.0144 -0.124489,-10e-4 -0.182012,-0.006 -0.194358,0.006 -0.387876,0.0248 -0.581012,0.047 -0.327858,0.0463 -0.655296,0.0955 -0.98195,0.14971 -0.393232,0.0635 -0.787456,0.12097 -1.179076,0.19422 -0.414502,0.0698 -0.828474,0.14302 -1.241775,0.21961 -0.396766,0.0718 -0.793332,0.14479 -1.189982,0.21725 -0.331816,0.0601 -0.66331,0.12208 -0.994481,0.1856 -0.23966,0.046 -0.477861,0.099 -0.716082,0.15186 -0.148987,0.0355 -0.297902,0.0716 -0.444444,0.11629 -0.09337,0.0307 -0.153334,0.0463 -0.226539,0.0848 -1.834258,0.78611 -2.945985,-1.80792 -1.111729,-2.59403 z"
       inkscape:connector-curvature="0" />
    <path
       style="fill:#ffffff;fill-opacity:1;fill-rule:nonzero;stroke:none;stroke-width:0.26458332"
       id="path1402"
       d="m 8.5548611,274.9771 c -0.00201,0.0959 0.00628,0.14313 0.014899,0.26221 0.00791,0.16626 0.022336,0.33181 0.037689,0.4975 0.017563,0.21731 0.037404,0.4345 0.063429,0.65098 0.031977,0.2618 0.071427,0.52265 0.1109382,0.78341 0.041807,0.27427 0.09597,0.54625 0.1564246,0.81695 0.063551,0.26765 0.1372841,0.53268 0.221394,0.79456 0.071769,0.22272 0.1661126,0.4368 0.2691903,0.64652 0.08228,0.17865 0.1946584,0.33889 0.309885,0.49718 0.085904,0.11643 0.1934104,0.20941 0.3028718,0.30217 0.09265,0.0734 0.194335,0.13273 0.301825,0.18132 0.100903,0.0357 0.204205,0.0598 0.309484,0.0778 0.125316,0.0154 0.251527,0.0184 0.377341,0.008 0.162223,-0.0142 0.320893,-0.0468 0.478054,-0.0882 0.200472,-0.0569 0.395069,-0.1317 0.587247,-0.21175 0.21309,-0.088 0.414945,-0.20038 0.612991,-0.31775 0.218445,-0.12974 0.424602,-0.27847 0.625403,-0.43375 0.206224,-0.15646 0.393591,-0.33476 0.5766,-0.5172 0.175107,-0.17684 0.332847,-0.37024 0.478603,-0.57173 0.145796,-0.20154 0.268013,-0.41787 0.382589,-0.63817 0.113568,-0.22668 0.205931,-0.46304 0.292456,-0.7011 0.0831,-0.23377 0.141985,-0.47497 0.196596,-0.71667 0.05473,-0.25105 0.09426,-0.50502 0.129669,-0.75941 0.03475,-0.2532 0.06087,-0.50746 0.08397,-0.76196 0.02123,-0.23959 0.0377,-0.47956 0.05263,-0.71961 0.01276,-0.18716 0.0086,-0.37503 0.0073,-0.5625 -0.0014,-0.17698 -0.003,-0.35396 -0.0045,-0.53094 -0.0089,-0.0946 -0.01713,-0.18931 -0.02585,-0.28395 -0.0082,-0.0891 -0.01655,-0.17817 -0.02487,-0.26725 -0.0051,-0.0548 -0.01022,-0.10951 -0.01534,-0.16427 -0.0031,-0.0333 -0.0062,-0.0665 -0.0093,-0.0998 -0.02193,-0.12165 0.03518,0.18199 0.03589,0.18505 0.182603,1.11666 2.794501,-1.05774 2.767232,-0.23094 2.3e-5,0.023 -2.54e-4,0.0491 -3.7e-4,0.0731 -2.19e-4,0.0575 -3.17e-4,0.11502 -4.23e-4,0.17254 -1.31e-4,0.0837 -1.92e-4,0.1674 -2.48e-4,0.2511 -7.3e-5,0.11787 -1.13e-4,0.23574 -1.5e-4,0.35361 -4.5e-5,0.15139 -7e-5,0.30278 -9.1e-5,0.45418 -0.0041,0.17076 0.0081,0.34115 0.01671,0.5116 0.0124,0.24685 0.02079,0.49388 0.02801,0.74093 0.0031,0.266 0.02011,0.53146 0.03401,0.79704 0.01656,0.31565 0.02809,0.63154 0.03824,0.94745 0.009,0.31626 0.02981,0.63206 0.04572,0.94803 0.01719,0.3445 0.02935,0.68921 0.04009,1.03396 0.01225,0.36104 0.01965,0.72206 0.01666,1.08329 2.91e-4,0.38349 -0.01859,0.76635 -0.04508,1.1488 -0.02944,0.41056 -0.08276,0.81865 -0.143581,1.22557 -0.06689,0.45057 -0.169925,0.89407 -0.292295,1.33245 -0.128251,0.45851 -0.30004,0.90263 -0.484214,1.34107 -0.187935,0.45034 -0.412388,0.88398 -0.649867,1.30983 -0.244532,0.4255 -0.512767,0.8367 -0.790918,1.24081 -0.286977,0.40864 -0.600652,0.79728 -0.923688,1.1777 -0.319104,0.3687 -0.65489,0.72232 -0.998646,1.06797 -0.346366,0.34582 -0.718077,0.66456 -1.092479,0.97928 -0.366736,0.30855 -0.751235,0.59446 -1.14457,0.8679 -0.390925,0.2741 -0.805315,0.51157 -1.224588,0.73892 -0.433641,0.23468 -0.8926854,0.41392 -1.3586524,0.57218 -0.4615572,0.15675 -0.937052,0.25843 -1.4181458,0.33137 -0.4844803,0.0723 -0.9739418,0.0693 -1.4612635,0.0368 -0.4532807,-0.0321 -0.8971693,-0.12454 -1.3318718,-0.25354 -0.3921323,-0.11829 -0.7612073,-0.29388 -1.1124535,-0.50233 -1.7021757,-1.04167 -0.2290385,-3.44891 1.4731375,-2.40724 v 0 c 0.1354751,0.0984 0.3017613,0.15009 0.4566912,0.20831 0.2319083,0.073 0.470031,0.12015 0.7127743,0.13956 0.2818172,0.0216 0.5650941,0.0269 0.8458385,-0.0128 0.3165805,-0.0463 0.6290402,-0.11098 0.9327126,-0.21415 0.3143075,-0.10515 0.6245696,-0.22286 0.9172887,-0.37986 0.3281751,-0.17745 0.6535758,-0.3612 0.9593452,-0.57574 0.322702,-0.22352 0.637812,-0.45772 0.938504,-0.71036 0.310627,-0.26072 0.619871,-0.52386 0.907921,-0.80972 0.291944,-0.29272 0.576555,-0.59271 0.848183,-0.90448 0.261875,-0.30767 0.51655,-0.62164 0.750268,-0.95147 0.228794,-0.33136 0.449096,-0.66873 0.651565,-1.01693 0.187543,-0.3339 0.364173,-0.67442 0.512162,-1.02794 0.13949,-0.32969 0.270634,-0.66333 0.367884,-1.00831 0.09207,-0.32503 0.168371,-0.65415 0.218464,-0.98852 0.05028,-0.33269 0.09437,-0.66634 0.119064,-1.00204 0.02271,-0.32545 0.03931,-0.6512 0.03839,-0.97758 0.003,-0.32379 -0.0047,-0.64736 -0.0154,-0.97098 -0.01016,-0.32673 -0.02163,-0.65344 -0.03789,-0.97994 -0.01675,-0.33308 -0.03856,-0.66597 -0.04784,-0.99937 -0.0095,-0.29691 -0.0203,-0.59379 -0.03584,-0.89045 -0.01503,-0.28732 -0.03281,-0.57455 -0.03667,-0.86231 -0.0066,-0.22695 -0.01425,-0.45387 -0.02561,-0.68064 -0.01103,-0.21803 -0.02433,-0.43613 -0.02031,-0.65455 2.3e-5,-0.15155 4.7e-5,-0.30311 9.2e-5,-0.45466 3.7e-5,-0.1182 7.7e-5,-0.2364 1.51e-4,-0.35461 5.7e-5,-0.0846 1.18e-4,-0.16912 2.5e-4,-0.25368 9.6e-5,-0.0605 2.05e-4,-0.12108 4.5e-4,-0.18162 2.65e-4,-0.056 5.03e-4,-0.11207 0.0024,-0.16807 0.04206,-1.02875 2.591276,-1.43522 2.77981,-0.38781 0.02161,0.0923 0.04122,0.18499 0.0472,0.27984 0.0031,0.0333 0.0062,0.0665 0.0093,0.0998 0.0051,0.0548 0.01023,0.10961 0.01535,0.16441 0.0084,0.0903 0.01685,0.18049 0.02519,0.27074 0.01593,0.17301 0.03359,0.34607 0.03764,0.51989 0.0014,0.17823 0.0031,0.35646 0.0045,0.5347 0.0017,0.25237 0.0048,0.50513 -0.01274,0.75708 -0.01666,0.26693 -0.03507,0.53376 -0.05881,0.80017 -0.0274,0.29968 -0.05836,0.59907 -0.09959,0.89721 -0.04683,0.33293 -0.09958,0.66523 -0.172596,0.99357 -0.08173,0.35799 -0.172623,0.71438 -0.297911,1.06 -0.129724,0.35352 -0.269557,0.70388 -0.441803,1.0392 -0.18173,0.34667 -0.378417,0.68559 -0.609546,1.00216 -0.234519,0.31659 -0.48273,0.62376 -0.762732,0.90173 -0.268793,0.2669 -0.546362,0.52519 -0.848223,0.75483 -0.293129,0.22402 -0.593079,0.43962 -0.911464,0.62677 -0.312694,0.18349 -0.632101,0.35686 -0.96803,0.49458 -0.316003,0.12984 -0.636345,0.25026 -0.966978,0.33793 -0.335316,0.0842 -0.675009,0.14924 -1.020693,0.17156 -0.350145,0.0166 -0.701347,0.01 -1.047554,-0.0515 -0.3530936,-0.0676 -0.7014011,-0.16092 -1.0280848,-0.31426 -0.3200844,-0.15878 -0.6277218,-0.34129 -0.9009507,-0.5735 C 7.930246,282.13548 7.6690276,281.87813 7.4522413,281.5806 7.242555,281.28974 7.0452711,280.98989 6.8915588,280.66493 6.7305064,280.3325 6.583252,279.99326 6.47103,279.64084 c -0.1091356,-0.34321 -0.2066372,-0.69003 -0.2879611,-1.04097 -0.073796,-0.33349 -0.1405144,-0.66844 -0.1917488,-1.00623 -0.044183,-0.29159 -0.087915,-0.58334 -0.1234191,-0.87613 -0.027855,-0.2398 -0.051898,-0.48005 -0.070766,-0.72073 -0.017103,-0.18462 -0.033073,-0.36926 -0.042385,-0.55446 -0.011165,-0.15498 -0.025537,-0.31002 -0.022235,-0.46558 0,-1.99561 2.8222222,-1.99561 2.8222222,0 z"
       inkscape:connector-curvature="0" />
    <path
       style="fill:#ffffff;fill-opacity:1;fill-rule:nonzero;stroke:none;stroke-width:0.26458332"
       id="path1404"
       d="m 24.301223,275.09749 c 0.09868,0.13504 -0.02717,-0.0263 -0.05483,-0.0581 -0.04888,-0.0551 -0.09887,-0.10929 -0.148924,-0.16338 0.09605,0.0955 -0.117827,-0.0983 -0.02549,-0.0163 -0.0333,-0.0165 0.05106,0.034 0.05213,0.0347 0.0278,0.0148 0.05479,0.0264 0.07058,0.0318 -0.0039,-7.9e-4 -0.01571,-0.004 -0.01177,-0.003 0.142435,0.0293 0.269338,0.0391 0.413821,0.0217 0.07446,-0.0115 0.144638,-0.0417 0.213332,-0.071 0.0679,-0.0443 -0.01371,0.0164 -0.0075,0.0141 0.04993,-0.0184 0.03595,-0.0328 -0.0024,0.0155 -0.07831,0.0877 -0.135341,0.19137 -0.196892,0.29101 -0.08037,0.13925 -0.139076,0.28933 -0.19966,0.43782 -0.07295,0.18252 -0.124181,0.37253 -0.169511,0.56346 -0.04826,0.21917 -0.08908,0.44025 -0.113199,0.66344 -0.02325,0.22569 -0.03656,0.45211 -0.03295,0.67899 4.76e-4,0.22239 0.02676,0.44294 0.0576,0.66275 0.027,0.19279 0.08056,0.37978 0.142153,0.56394 0.05384,0.16974 0.13593,0.32622 0.224274,0.47987 0.07525,0.12279 0.168286,0.23262 0.271092,0.33292 0.08726,0.0824 0.189533,0.14131 0.296742,0.1931 0.117022,0.0592 0.245598,0.0777 0.37358,0.0965 0.164067,0.0181 0.330123,0.0111 0.492728,-0.0158 0.225072,-0.0349 0.440632,-0.10771 0.652756,-0.18827 0.260832,-0.10395 0.508855,-0.23516 0.752554,-0.37375 0.254183,-0.14547 0.492983,-0.3152 0.724181,-0.49444 0.222951,-0.17557 0.436509,-0.36351 0.63554,-0.56584 0.183004,-0.1789 0.339174,-0.38134 0.491537,-0.58612 0.118658,-0.16209 0.216427,-0.33729 0.298455,-0.52029 0.0771,-0.17194 0.135253,-0.35081 0.177898,-0.53408 0.02503,-0.13923 0.03124,-0.28047 0.02228,-0.42141 -0.0057,-0.13556 -0.04931,-0.26217 -0.09623,-0.38786 -0.06418,-0.14914 -0.149286,-0.28655 -0.246499,-0.41604 -0.124031,-0.17058 -0.280384,-0.31223 -0.440449,-0.44786 -0.195,-0.16551 -0.410033,-0.30404 -0.632563,-0.42907 -0.24733,-0.13563 -0.506415,-0.24582 -0.767821,-0.35067 -0.252717,-0.10166 -0.512434,-0.18423 -0.773692,-0.26069 -0.189145,-0.0451 -0.379544,-0.0889 -0.572448,-0.1146 -0.08351,-0.0154 -0.187395,-0.0229 -0.259724,-0.0155 -0.0086,10e-4 -0.02089,-0.003 -0.02568,0.004 -0.0044,0.007 0.01606,-1.2e-4 0.02399,-10e-4 0.04648,-0.006 0.08525,-0.0152 0.130411,-0.0307 0.0908,-0.0312 0.1063,-0.0464 0.200069,-0.0986 0.154773,-0.11471 0.06892,-0.043 0.247472,-0.22659 -1.210267,1.58673 -3.454247,-0.12485 -2.243979,-1.71158 v 0 c 0.267504,-0.2981 0.132548,-0.17336 0.394405,-0.38523 0.324362,-0.19933 0.667079,-0.34433 1.053002,-0.3634 0.298244,-0.0188 0.596367,-0.0118 0.891904,0.0371 0.322003,0.0493 0.642165,0.11257 0.956456,0.19892 0.347855,0.10258 0.693412,0.2138 1.029938,0.3496 0.38054,0.1531 0.756237,0.31817 1.114798,0.51843 0.376711,0.21695 0.741662,0.45462 1.071899,0.7388 0.327043,0.28287 0.638169,0.58514 0.890902,0.93811 0.248319,0.34964 0.46859,0.71864 0.617193,1.12285 0.13761,0.39568 0.242269,0.80185 0.256757,1.22298 0.01228,0.40203 -0.0081,0.80462 -0.100195,1.19778 -0.08952,0.36053 -0.203186,0.71449 -0.359008,1.05244 -0.168042,0.35787 -0.359756,0.70412 -0.596958,1.02155 -0.233669,0.31291 -0.477991,0.61834 -0.756642,0.89297 -0.288375,0.28663 -0.59,0.56008 -0.911984,0.80883 -0.337429,0.25836 -0.684768,0.5042 -1.055071,0.71381 -0.373327,0.21058 -0.754727,0.40746 -1.155399,0.56154 -0.411297,0.15206 -0.831328,0.28192 -1.267189,0.34186 -0.435417,0.0537 -0.874924,0.0733 -1.310524,0.005 -0.425217,-0.0703 -0.843307,-0.17729 -1.227865,-0.37805 -0.3679,-0.19489 -0.71646,-0.4225 -1.010572,-0.72046 -0.270486,-0.27938 -0.51907,-0.5795 -0.712754,-0.91833 -0.179036,-0.31791 -0.339601,-0.64572 -0.451586,-0.99399 -0.111458,-0.34418 -0.206555,-0.69385 -0.255383,-1.05311 -0.04721,-0.34085 -0.08298,-0.68339 -0.08448,-1.02794 -0.0016,-0.344 0.01319,-0.68766 0.0518,-1.02969 0.04055,-0.3359 0.09584,-0.66992 0.173131,-0.9995 0.08018,-0.32855 0.172159,-0.65474 0.300285,-0.9683 0.11971,-0.29263 0.245481,-0.58378 0.411366,-0.85388 0.143244,-0.23177 0.290791,-0.46183 0.473291,-0.66536 0.184781,-0.20772 0.384098,-0.40222 0.619382,-0.55293 0.237336,-0.14717 0.489261,-0.27071 0.767112,-0.31898 0.287792,-0.0441 0.578257,-0.0587 0.861699,0.0257 0.16198,0.0451 0.322054,0.0981 0.47208,0.17522 0.148362,0.0784 0.293366,0.1633 0.424221,0.26918 0.121344,0.0992 0.240495,0.20148 0.348768,0.3151 0.07076,0.0765 0.141325,0.15317 0.20999,0.23156 0.105797,0.12235 0.175668,0.21043 0.270516,0.3412 1.106966,1.66044 -1.241265,3.22593 -2.348232,1.56548 z"
       inkscape:connector-curvature="0" />
    <path
       style="fill:#ffffff;fill-opacity:1;fill-rule:nonzero;stroke:none;stroke-width:0.26458332"
       id="path1406"
       d="m 35.057651,273.46368 c -0.0503,-0.0503 -0.100606,-0.1006 -0.150905,-0.15091 -0.03575,-0.0357 -0.07149,-0.0715 -0.107239,-0.10723 0.01357,0.0108 -0.05016,-0.0479 -0.03681,-0.0368 0.148436,0.12335 0.271883,0.2178 0.446167,0.29733 0.746797,0.27878 0.556725,-0.0704 1.905209,-1.12023 0.07435,-0.0579 -0.03741,-0.49604 -0.05808,-0.5749 0.02625,0.0579 0.02426,0.0798 0.07189,0.18928 0.05043,0.13694 0.09763,0.27507 0.144705,0.41319 0.06828,0.20378 0.124079,0.4113 0.179261,0.61891 0.06675,0.25959 0.124288,0.52133 0.179144,0.78365 0.0599,0.30217 0.110681,0.60604 0.165198,0.90921 0.05641,0.30461 0.108148,0.61017 0.170304,0.91369 0.05822,0.29337 0.122185,0.58549 0.201417,0.87393 0.06861,0.23765 0.141637,0.4734 0.240583,0.70024 0.07858,0.18557 0.180446,0.35793 0.293399,0.52412 0.09041,0.12505 0.200562,0.23071 0.314907,0.33304 0.101121,0.0874 0.217504,0.15165 0.33646,0.21087 0.09361,0.0436 0.194622,0.0724 0.29722,0.0843 0.08949,0.019 0.177564,0.0125 0.266435,-0.004 0.07414,-0.0145 0.145841,-0.0363 0.209442,-0.0776 0.08826,-0.0427 0.152312,-0.11351 0.218688,-0.18316 0.108982,-0.12798 0.206275,-0.26513 0.289389,-0.41118 0.120943,-0.20356 0.205888,-0.42527 0.286633,-0.64704 0.09559,-0.26707 0.160576,-0.5434 0.218117,-0.82073 0.06578,-0.30554 0.09724,-0.61653 0.126871,-0.92718 0.0298,-0.30852 0.0371,-0.61869 0.04624,-0.92835 -7.93e-4,-0.26218 0.0011,-0.5247 -0.01087,-0.78667 -0.01098,-0.19237 -0.019,-0.38495 -0.04133,-0.57639 -0.0033,-0.0277 -0.0065,-0.0554 -0.01,-0.083 -0.0051,-0.0409 -0.01291,-0.0998 -0.01844,-0.14088 -0.01185,-0.088 -0.0065,-0.0841 -0.01013,-0.0559 -0.0013,-0.004 -0.0016,-0.009 -0.0038,-0.0125 -0.0084,-0.0147 0.0071,0.0335 0.01392,0.049 0.0328,0.0751 0.05972,0.15366 0.102835,0.22338 0.188039,0.30405 0.248502,0.2922 0.568547,0.52446 0.2144,0.0466 0.423863,0.14548 0.643205,0.13989 0.583134,-0.0149 1.070089,-0.39498 1.262028,-0.92503 -0.499361,1.93212 -3.231798,1.22592 -2.732437,-0.70621 v 0 c 0.178353,-0.65172 0.649158,-1.1631 1.38225,-1.18961 0.228301,-0.008 0.447402,0.0927 0.671102,0.13902 0.136038,0.0964 0.284602,0.17712 0.408115,0.28908 0.237887,0.21565 0.358812,0.52781 0.433506,0.83111 0.04365,0.19781 0.07188,0.39795 0.09349,0.59934 0.02883,0.2587 0.04431,0.51841 0.05691,0.77839 0.01265,0.32845 0.01511,0.65732 0.01201,0.98598 -0.01103,0.37179 -0.02148,0.74404 -0.0579,1.11439 -0.03998,0.4148 -0.08634,0.82949 -0.174156,1.23741 -0.08721,0.41217 -0.187542,0.82217 -0.332584,1.21839 -0.142851,0.38371 -0.298199,0.76411 -0.51054,1.1156 -0.207301,0.34151 -0.435962,0.6705 -0.714912,0.95831 -0.288018,0.28435 -0.59998,0.54279 -0.96688,0.7204 -0.349197,0.16633 -0.712529,0.2975 -1.098574,0.3463 -0.374126,0.0442 -0.750829,0.0539 -1.122963,-0.0171 -0.377534,-0.0719 -0.748837,-0.17468 -1.091806,-0.35271 -0.335433,-0.17471 -0.657812,-0.37379 -0.939747,-0.62819 -0.283319,-0.25793 -0.547526,-0.53566 -0.764622,-0.85285 -0.209336,-0.31405 -0.398095,-0.64074 -0.54569,-0.98889 -0.146545,-0.34716 -0.26756,-0.70318 -0.367969,-1.06648 -0.09426,-0.34801 -0.174583,-0.69936 -0.24402,-1.05318 -0.06578,-0.32501 -0.122859,-0.6517 -0.182586,-0.97787 -0.04963,-0.27714 -0.09652,-0.5548 -0.150072,-0.83123 -0.04438,-0.21331 -0.09085,-0.42616 -0.144534,-0.63735 -0.03869,-0.14672 -0.07721,-0.29352 -0.124688,-0.43769 -0.03389,-0.102 -0.07025,-0.20322 -0.105542,-0.30472 -0.03302,-0.0874 -0.0639,-0.17012 -0.09399,-0.24877 -0.02681,-0.0952 -0.176104,-0.64196 -0.08736,-0.71592 1.358013,-1.1317 1.161222,-1.44981 1.9426,-1.16312 0.200636,0.0899 0.390445,0.19978 0.540369,0.36514 0.03574,0.0357 0.07149,0.0715 0.107235,0.10723 0.0503,0.0503 0.100606,0.10061 0.150905,0.15091 1.411113,1.41111 -0.584499,3.40672 -1.995611,1.99561 z"
       inkscape:connector-curvature="0" />
    <path
       style="fill:#ffffff;fill-opacity:1;fill-rule:nonzero;stroke:none;stroke-width:0.26458332"
       id="path1408"
       d="m 45.877371,274.16184 c -0.03018,-0.0704 -0.06036,-0.14085 -0.09055,-0.21127 -0.04856,-0.0972 0.04022,0.0743 -0.02972,-0.0537 -0.02019,-0.0368 -0.04052,-0.0736 -0.06083,-0.11037 0.02564,0.0413 0.09992,0.1666 0.07693,0.1238 -0.03915,-0.0729 -0.08944,-0.13964 -0.125446,-0.21411 -0.09497,-0.19644 -0.134615,-0.4037 -0.142944,-0.61933 1.392129,-1.0995 1.422802,-1.81171 2.425734,-1.04424 0.141333,0.11338 0.266724,0.24468 0.389594,0.37734 0.127934,0.13971 0.246327,0.28757 0.363402,0.43637 0.163857,0.21684 0.311209,0.44533 0.452202,0.67747 0.164883,0.26846 0.30416,0.5509 0.436026,0.83664 0.138575,0.31055 0.260802,0.62804 0.374443,0.94845 0.112133,0.32333 0.203507,0.65297 0.292267,0.98328 0.08801,0.31901 0.157604,0.64252 0.220692,0.96723 0.04838,0.26063 0.101404,0.52033 0.149672,0.78099 0.04006,0.21778 0.07526,0.43639 0.108151,0.65536 0.02725,0.17924 0.0519,0.35876 0.06898,0.53924 0.01553,0.17173 0.0099,0.34272 7.93e-4,0.51447 -0.06873,0.48484 -0.337261,1.00084 -0.832302,1.18572 -0.281067,0.10496 -0.595109,0.1251 -0.894263,0.1022 -0.179847,-0.0138 -0.332787,-0.13925 -0.499178,-0.20888 -0.285806,-0.1868 -0.46015,-0.45812 -0.613297,-0.75128 -0.09347,-0.17908 -0.171196,-0.3656 -0.249623,-0.55157 -0.115504,-0.28032 -0.217813,-0.5656 -0.312481,-0.85354 -0.11574,-0.35023 -0.210921,-0.7065 -0.30049,-1.06414 -0.10622,-0.41417 -0.182446,-0.83457 -0.239691,-1.25801 -0.06272,-0.44911 -0.07445,-0.9027 -0.06475,-1.35538 0.0084,-0.47593 0.09701,-0.94198 0.221411,-1.39967 0.127667,-0.45928 0.338781,-0.88382 0.588442,-1.28742 0.250576,-0.39879 0.575003,-0.73721 0.922607,-1.05136 0.34684,-0.30924 0.742177,-0.55269 1.149178,-0.77316 0.391136,-0.20627 0.802772,-0.36757 1.220491,-0.51052 0.397238,-0.13219 0.805132,-0.22772 1.214707,-0.3124 0.374132,-0.0771 0.75414,-0.1192 1.133632,-0.15935 0.325268,-0.0324 0.65184,-0.0403 0.978458,-0.0392 0.06711,0.003 0.13422,0.007 0.201332,0.0103 1.991558,0.1271 1.811803,2.9436 -0.179755,2.81649 v 0 c -0.01074,-0.002 -0.02148,-0.003 -0.03224,-0.005 -0.224155,-0.001 -0.448161,0.002 -0.671539,0.0236 -0.288096,0.0303 -0.577008,0.0599 -0.861277,0.11707 -0.294841,0.0602 -0.588793,0.12719 -0.875289,0.22021 -0.271272,0.0912 -0.538705,0.19387 -0.79362,0.32491 -0.210984,0.11148 -0.418343,0.23157 -0.600014,0.38785 -0.15494,0.13696 -0.305464,0.27762 -0.41805,0.45325 -0.109667,0.16696 -0.199922,0.34355 -0.25681,0.53603 -0.06673,0.23433 -0.116837,0.47193 -0.12029,0.71692 -0.0089,0.30482 -7.94e-4,0.61054 0.04079,0.91303 0.04176,0.31868 0.100182,0.63457 0.180033,0.94609 0.07328,0.29295 0.150037,0.58506 0.245052,0.87188 0.06955,0.21413 0.146021,0.42577 0.230611,0.63445 0.05464,0.12957 0.106717,0.26043 0.172788,0.38475 -0.01585,-0.025 -0.02138,-0.0344 0.0036,0.008 0.0056,0.01 0.02389,0.038 0.01717,0.029 -0.113604,-0.15157 -0.21704,-0.28535 -0.388461,-0.38606 -0.157657,-0.0639 -0.303191,-0.18101 -0.472975,-0.19178 -0.29292,-0.0186 -0.59976,0.002 -0.874077,0.10638 -0.441386,0.16795 -0.71842,0.6352 -0.776933,1.07798 -0.0096,0.28962 -0.0024,0.0713 -0.0067,0.004 0.0082,0.0324 0.0034,0.0154 -0.0058,-0.0539 -0.0094,-0.0707 -0.01886,-0.1414 -0.02904,-0.212 -0.0039,-0.0269 -0.008,-0.0538 -0.01193,-0.0808 -0.02808,-0.18729 -0.05806,-0.3743 -0.09227,-0.56059 -0.0468,-0.25297 -0.09843,-0.50499 -0.145309,-0.75794 -0.04999,-0.25905 -0.104957,-0.5172 -0.175506,-0.77155 -0.07004,-0.26065 -0.140464,-0.52121 -0.228158,-0.77666 -0.0836,-0.23878 -0.175443,-0.4747 -0.27637,-0.70672 -0.08741,-0.19023 -0.177599,-0.37929 -0.288015,-0.55756 -0.08024,-0.13386 -0.165251,-0.26464 -0.254977,-0.39233 -0.07537,-0.0958 -0.150296,-0.19211 -0.232769,-0.28203 -0.03215,-0.0341 -0.160502,-0.16008 -0.0259,-0.042 -0.01154,-0.009 -0.04702,-0.0337 -0.03463,-0.0262 0.05333,0.0323 0.340569,0.22756 0.39819,0.18921 0.620517,-0.41299 1.171038,-0.92253 1.756555,-1.3838 -0.0084,-0.20009 -0.04704,-0.39244 -0.136107,-0.57418 -0.03361,-0.0686 -0.08416,-0.12804 -0.11717,-0.19692 -0.02495,-0.0521 0.06193,0.0975 0.0929,0.14628 0.02265,0.041 0.04532,0.082 0.06783,0.1231 0.05246,0.0962 0.104492,0.19283 0.146542,0.29414 0.03018,0.0704 0.06036,0.14084 0.09054,0.21127 0.786112,1.83425 -1.807921,2.94598 -2.59403,1.11172 z"
       inkscape:connector-curvature="0" />
    <path
       style="fill:#ffffff;fill-opacity:1;fill-rule:nonzero;stroke:none;stroke-width:0.26458332"
       id="path1414"
       d="m 57.582693,268.08695 c -0.07649,-0.0503 -0.152278,-0.10162 -0.226843,-0.15476 -0.01249,-0.009 -0.02482,-0.0182 -0.03743,-0.027 -0.0069,-0.005 0.01376,0.01 0.02035,0.0151 0.0041,0.003 -0.05252,-0.0315 -0.02005,-0.0117 0.01069,0.006 0.02138,0.0129 0.03208,0.0194 5.29e-4,5.3e-4 0.0011,7.9e-4 0.0016,10e-4 0.03741,0.0194 0.05152,0.0265 0.08346,0.0369 -0.03134,-0.006 -0.06314,-0.01 -0.09486,-0.0135 -0.181779,-0.0126 0.105323,-0.004 -0.07735,0.002 0.111265,-0.008 -0.0158,0.007 -0.01794,0.007 -0.01138,0.002 0.0232,-0.007 0.03448,-0.004 0.02135,0.005 -0.04278,0.01 -0.06416,0.0147 0.04575,-0.009 -0.01278,0.0116 0.0566,-0.014 0.08552,-0.0403 0.122137,-0.0732 0.198837,-0.15277 0.05734,-0.064 0.09906,-0.1422 0.131279,-0.22158 0.02975,-0.0818 0.03894,-0.14423 0.03786,-0.22953 -0.01624,-0.12322 0.01246,-0.0319 -0.01939,-0.12571 -0.07642,-0.13397 0.04324,0.0329 -0.02313,-0.0578 -0.06541,-0.0754 0.01519,0.0178 -0.01029,-0.0238 0.0692,0.0185 -0.05474,-0.0196 0.0087,-0.008 -0.07439,-0.0132 0.07797,-0.003 0.04067,-0.009 -0.07751,0.0101 0.09634,-0.0289 0.0461,-0.021 0.02989,-0.003 0.07425,-0.04 0.07842,-0.0428 0.07954,-0.0684 -0.06891,0.0667 0.06694,-0.0694 -0.01304,-2.7e-4 -0.04233,0.0481 -0.07114,0.0971 -0.04005,0.0676 -0.05153,0.14499 -0.06394,0.22079 -0.01556,0.10845 0.0031,0.21488 0.03104,0.31908 0.02283,0.0785 0.06362,0.14919 0.111133,0.21474 0.0337,0.0534 0.128471,0.12139 0.04497,0.0625 0.0072,0.009 0.04108,0.027 0.01725,0.019 -0.09742,-0.0166 0.163216,0.0352 0.03824,0.0207 -0.01066,-10e-4 -0.04271,-0.005 -0.03202,-0.004 0.200065,0.0198 -0.07715,0.0159 0.106792,0.007 0.0083,0.004 0.116313,-0.0258 0.06933,-0.009 0.308745,-0.14569 -0.165631,0.10365 0.119026,-0.0509 0.01116,-0.006 0.02175,-0.0132 0.03264,-0.0198 0.0026,-0.002 0.0049,-0.004 0.0077,-0.005 0.01042,-0.005 -0.03588,0.0279 -0.02717,0.0206 0.127386,-0.10676 0.06813,-0.051 0.144944,-0.12615 0.02955,-0.0326 0.01161,-0.0114 5.29e-4,0.002 0.0481,-0.0704 0.0962,-0.14076 0.144293,-0.21114 0.17104,-0.32298 0.131435,-0.49199 0.139859,-0.9017 0.373716,1.96031 -2.398578,2.48882 -2.772294,0.52851 v 0 c 0.007,-0.4814 -0.03565,-0.60082 0.154559,-0.97776 0.08972,-0.13396 0.168397,-0.26344 0.280763,-0.37726 0.109815,-0.11131 0.228312,-0.21304 0.359066,-0.29904 0.158044,-0.10178 0.323903,-0.18724 0.500539,-0.25217 0.170365,-0.058 0.344477,-0.10532 0.523883,-0.12487 0.204147,-0.0175 0.409432,-0.0282 0.613298,0.002 0.207317,0.0279 0.414391,0.0652 0.609526,0.14372 0.202282,0.08 0.399685,0.17242 0.579062,0.29681 0.184613,0.13137 0.363958,0.2716 0.510844,0.4458 0.163661,0.20612 0.310066,0.42581 0.392563,0.67851 0.0846,0.27512 0.140859,0.55694 0.110892,0.84674 -0.03375,0.26827 -0.08849,0.53267 -0.214577,0.77512 -0.125021,0.23961 -0.27422,0.46387 -0.467421,0.65477 -0.159713,0.15916 -0.325223,0.31382 -0.516845,0.43459 -0.215254,0.13757 -0.440534,0.25954 -0.683326,0.34186 -0.26593,0.0888 -0.538112,0.15757 -0.81896,0.17699 -0.281125,0.0121 -0.56257,0.002 -0.838634,-0.0578 -0.278698,-0.0663 -0.550243,-0.15795 -0.798258,-0.30413 -0.239863,-0.14401 -0.466016,-0.30866 -0.656336,-0.51551 -0.179356,-0.20507 -0.341257,-0.42428 -0.457814,-0.67202 -0.109519,-0.25268 -0.195127,-0.51426 -0.222774,-0.78991 -0.01842,-0.28933 -0.008,-0.57746 0.07654,-0.85735 0.08796,-0.27051 0.206832,-0.53049 0.394051,-0.74829 0.18908,-0.21468 0.399749,-0.40462 0.65423,-0.53963 0.201454,-0.10424 0.411375,-0.19136 0.633265,-0.24187 0.190706,-0.0433 0.383384,-0.0783 0.579199,-0.0872 0.174847,-0.006 0.35034,-0.008 0.52392,0.0182 0.141803,0.0181 0.283377,0.0397 0.422259,0.0742 0.17408,0.0451 0.345604,0.10031 0.506788,0.18129 0.130961,0.067 0.258448,0.14086 0.376952,0.22835 0.04944,0.0356 0.100515,0.0687 0.15117,0.10252 1.660451,1.10697 0.09496,3.4552 -1.565487,2.34823 z"
       inkscape:connector-curvature="0" />
    <path
       style="fill:#ffffff;fill-opacity:1;fill-rule:nonzero;stroke:none;stroke-width:0.26458332"
       id="path1420"
       d="m 55.931537,279.36531 c 0.02614,0.0676 0.04719,0.10277 0.09761,0.17154 0.08001,0.0966 0.186299,0.16605 0.297935,0.22123 0.06872,0.0343 0.145134,0.0471 0.22021,0.0599 0.257344,-0.009 -0.0837,0.0242 0.125449,-8e-4 -0.113252,0.0452 0.173572,-0.0634 0.07091,-0.0181 0.02392,0.004 0.19395,-0.11849 0.0881,-0.0403 -0.01035,0.008 0.02148,-0.0141 0.03223,-0.0212 0.07433,-0.063 0.04552,-0.0399 -0.0024,0.006 -0.0044,0.004 0.0094,-0.008 0.01373,-0.012 0.02848,-0.0281 0.05254,-0.0565 0.07847,-0.0871 -0.05507,0.0826 -0.01863,0.0291 -0.0029,0.007 -0.01034,0.0466 -0.02005,0.0934 -0.02862,0.14034 -0.01947,0.108 -0.03013,0.21726 -0.0411,0.32637 -0.0021,0.057 0.0016,0.11408 0.0077,0.16972 -0.0074,0.016 0.02812,0.096 0.01111,0.0356 -0.04534,-0.13543 -0.146227,-0.22996 -0.252891,-0.31934 -0.06282,-0.0495 -0.135861,-0.0807 -0.209931,-0.10899 -0.0033,-10e-4 -0.118526,-0.0225 -0.08255,-0.026 -0.106214,-0.008 0.004,-0.0152 0.04289,-0.0288 0.08872,-0.0372 0.177075,-0.0752 0.263392,-0.1177 0.09093,-0.0503 0.183682,-0.0999 0.265155,-0.16507 0.05635,-0.0463 0.120915,-0.0885 0.16582,-0.14625 0.05617,-0.10165 -0.07222,0.11049 -0.07388,0.11384 -0.06185,0.13838 -0.06296,0.28892 -0.04638,0.43694 0.01172,0.0725 0.04245,0.17079 0.07005,0.22466 -0.03764,-0.0288 0.01868,0.0209 -0.0627,-0.0409 -0.07185,-0.0484 -0.144782,-0.0953 -0.222609,-0.13361 -0.06844,-0.0352 -0.09676,-0.0387 -0.154038,-0.0532 0.01461,0.0146 0.08752,0.0159 0.167285,0.012 0.163235,-0.0163 0.313013,-0.0907 0.444992,-0.18421 0.03193,-0.0285 0.06386,-0.0571 0.09578,-0.0856 -1.357707,1.46256 -3.426087,-0.45753 -2.068377,-1.92009 v 0 c 0.05706,-0.0556 0.114114,-0.11121 0.171172,-0.16682 0.290168,-0.22546 0.611878,-0.39766 0.98298,-0.44069 0.31297,-0.0306 0.6243,-0.0246 0.930246,0.0577 0.255039,0.0688 0.503949,0.1569 0.738229,0.28029 0.219734,0.11677 0.433253,0.24532 0.632299,0.39519 0.225904,0.17422 0.440317,0.36385 0.609312,0.59573 0.197056,0.27428 0.363632,0.56804 0.432197,0.90311 0.06272,0.38147 0.05696,0.76067 -0.08383,1.12613 -0.117983,0.29026 -0.270042,0.56358 -0.487643,0.7924 -0.177239,0.18748 -0.367168,0.36203 -0.577001,0.51295 -0.223806,0.1604 -0.457137,0.30737 -0.704882,0.42842 -0.252642,0.12042 -0.510209,0.23354 -0.780962,0.30713 -0.312188,0.0772 -0.631108,0.13287 -0.95426,0.11129 -0.389136,-0.0326 -0.766797,-0.12507 -1.093912,-0.34892 -0.324964,-0.24415 -0.596275,-0.53188 -0.755356,-0.91246 -0.105341,-0.26354 -0.189214,-0.53513 -0.216255,-0.81923 -0.02543,-0.25567 -0.03491,-0.51254 -0.01111,-0.76891 0.01937,-0.19106 0.04091,-0.38204 0.07667,-0.57085 0.04072,-0.21016 0.08895,-0.41935 0.164854,-0.62003 0.07918,-0.20028 0.170511,-0.39592 0.295857,-0.57215 0.128138,-0.18684 0.274804,-0.35834 0.448863,-0.50414 0.16963,-0.13895 0.350525,-0.2646 0.551918,-0.35369 0.177033,-0.0773 0.359997,-0.13984 0.550897,-0.17249 0.200755,-0.0309 0.403114,-0.0564 0.606806,-0.037 0.230629,0.0202 0.45738,0.0677 0.67061,0.1599 0.263893,0.11845 0.50365,0.27772 0.696772,0.49511 0.15657,0.17961 0.293815,0.37456 0.389165,0.59408 0.786112,1.83425 -1.807921,2.94598 -2.59403,1.11172 z"
       inkscape:connector-curvature="0" />
  </g>
</svg>
