<?xml version="1.0" encoding="UTF-8" standalone="no"?>
<!-- Created with Inkscape (http://www.inkscape.org/) -->

<svg
   xmlns:dc="http://purl.org/dc/elements/1.1/"
   xmlns:cc="http://creativecommons.org/ns#"
   xmlns:rdf="http://www.w3.org/1999/02/22-rdf-syntax-ns#"
   xmlns:svg="http://www.w3.org/2000/svg"
   xmlns="http://www.w3.org/2000/svg"
   xmlns:sodipodi="http://sodipodi.sourceforge.net/DTD/sodipodi-0.dtd"
   xmlns:inkscape="http://www.inkscape.org/namespaces/inkscape"
   width="64mm"
   height="64mm"
   viewBox="0 0 64 64"
   version="1.1"
   id="svg8"
   sodipodi:docname="programming.svg"
   inkscape:version="0.92.5 (2060ec1f9f, 2020-04-08)">
  <defs
     id="defs2" />
  <sodipodi:namedview
     id="base"
     pagecolor="#ffffff"
     bordercolor="#666666"
     borderopacity="1.0"
     inkscape:pageopacity="0.0"
     inkscape:pageshadow="2"
     inkscape:zoom="3"
     inkscape:cx="13.493015"
     inkscape:cy="110.27027"
     inkscape:document-units="mm"
     inkscape:current-layer="layer1"
     showgrid="false"
     inkscape:snap-page="true"
     inkscape:window-width="1920"
     inkscape:window-height="1016"
     inkscape:window-x="0"
     inkscape:window-y="27"
     inkscape:window-maximized="1" />
  <metadata
     id="metadata5">
    <rdf:RDF>
      <cc:Work
         rdf:about="">
        <dc:format>image/svg+xml</dc:format>
        <dc:type
           rdf:resource="http://purl.org/dc/dcmitype/StillImage" />
        <dc:title />
      </cc:Work>
    </rdf:RDF>
  </metadata>
  <g
     inkscape:label="Layer 1"
     inkscape:groupmode="layer"
     id="layer1"
     transform="translate(0,-233)">
    <rect
       style="fill:#cddc39;stroke-width:0.26458332;fill-opacity:1"
       id="rect3713"
       width="64"
       height="64"
       x="0"
       y="233" />
    <path
       style="fill:#000000;fill-opacity:1;fill-rule:nonzero;stroke:none;stroke-width:0.26458332"
       id="path5553"
       d="m 6.9380597,236.41664 c 0.044933,0.0395 0.1052435,0.0822 0.1667306,0.12608 0.06917,0.0448 0.1416394,0.0841 0.2132137,0.125 0.1046763,0.0544 0.2103673,0.10701 0.3165737,0.15841 0.1432848,0.0708 0.2856655,0.14349 0.4310626,0.20991 0.1821746,0.0847 0.3638584,0.17039 0.5449726,0.25732 0.195961,0.0943 0.3910552,0.19032 0.5874935,0.2836 0.2258343,0.11233 0.4544727,0.2188 0.6818929,0.32786 0.2505087,0.12434 0.5051107,0.24023 0.7582957,0.35898 0.28239,0.1349 0.567075,0.26487 0.851056,0.39636 0.313042,0.14502 0.624699,0.29299 0.935996,0.44171 0.342782,0.16011 0.680193,0.33092 1.015944,0.50516 0.347783,0.17871 0.687427,0.37197 1.025245,0.56864 0.335069,0.19578 0.661091,0.40663 0.984897,0.62038 0.317058,0.20983 0.621564,0.43724 0.92165,0.67041 0.274715,0.21046 0.539879,0.43257 0.800172,0.66049 0.237865,0.20639 0.466105,0.42343 0.68815,0.64666 0.174919,0.17923 0.35038,0.35791 0.525026,0.5374 0.135747,0.13564 0.269118,0.27361 0.406571,0.40754 0.104587,0.10632 0.216666,0.20443 0.326519,0.3051 0.08955,0.0884 0.185124,0.16992 0.275992,0.25688 0.129053,0.12929 0.262657,0.26392 0.347701,0.42813 0.05329,0.10289 0.09205,0.21267 0.138067,0.319 0.1055,0.48352 0.06154,0.15467 -0.0505,0.99404 -0.772885,1.83986 -3.374853,0.74684 -2.601967,-1.09303 v 0 c -0.09842,0.80043 -0.145819,0.49345 -0.04438,0.93081 0.08646,0.19199 0.151728,0.34308 0.291987,0.4924 0.01264,0.0135 -0.04922,-0.0501 -0.03921,-0.0391 -0.07528,-0.0744 -0.158953,-0.14026 -0.232918,-0.21624 -0.126701,-0.11994 -0.260472,-0.23256 -0.382151,-0.35792 -0.155233,-0.1516 -0.306538,-0.30708 -0.459692,-0.46077 -0.167964,-0.17314 -0.337368,-0.34486 -0.505668,-0.51767 -0.1745,-0.17712 -0.355976,-0.34726 -0.543456,-0.51059 -0.218465,-0.19158 -0.440995,-0.37823 -0.671987,-0.55467 -0.242959,-0.18884 -0.488698,-0.37402 -0.74542,-0.54401 -0.279311,-0.18464 -0.56047,-0.36693 -0.849389,-0.53627 -0.298394,-0.17374 -0.597922,-0.3452 -0.905349,-0.50267 -0.308144,-0.15996 -0.617676,-0.31696 -0.932458,-0.46357 -0.301051,-0.14383 -0.602443,-0.28696 -0.905181,-0.42722 -0.288203,-0.13345 -0.5771054,-0.26539 -0.8637134,-0.40225 -0.2605127,-0.1222 -0.5224219,-0.24158 -0.7802435,-0.36939 -0.2242352,-0.10755 -0.4497131,-0.2125 -0.6723632,-0.32331 -0.2003864,-0.0952 -0.3994607,-0.1931 -0.5993754,-0.28928 -0.1671095,-0.0805 -0.335013,-0.15934 -0.5031589,-0.23765 -0.1630043,-0.0755 -0.324127,-0.1548 -0.4846976,-0.2353 -0.1619901,-0.0791 -0.3240154,-0.15844 -0.481793,-0.24567 -0.1542675,-0.0882 -0.3091061,-0.17596 -0.4540242,-0.27923 -0.124237,-0.0888 -0.2469523,-0.18001 -0.3627901,-0.27966 -1.5151819,-1.29873 0.321496,-3.44152 1.836678,-2.14279 z"
       inkscape:connector-curvature="0" />
    <path
       style="fill:#000000;fill-opacity:1;fill-rule:nonzero;stroke:none;stroke-width:0.26458332"
       id="path5555"
       d="m 6.6877646,251.77682 c 0.1021734,-0.0467 0.2004894,-0.10156 0.3002582,-0.15328 0.1475727,-0.0761 0.2924728,-0.15701 0.43346,-0.24472 0.2196819,-0.13606 0.4379949,-0.27437 0.6547027,-0.41512 0.27462,-0.18008 0.5484852,-0.3614 0.8212762,-0.54425 0.3278989,-0.22182 0.6606442,-0.43631 0.9910968,-0.65427 0.3636645,-0.23406 0.7229225,-0.47485 1.0833985,-0.71377 0.379517,-0.24979 0.758231,-0.50081 1.134781,-0.75505 0.374965,-0.25224 0.747006,-0.50882 1.116838,-0.76852 0.363355,-0.25516 0.726427,-0.51068 1.086902,-0.76989 0.330904,-0.24113 0.664812,-0.47809 0.996421,-0.71823 0.275486,-0.20182 0.549753,-0.4052 0.822613,-0.61053 0.218918,-0.16404 0.436464,-0.32989 0.655512,-0.49375 0.138505,-0.10665 0.274679,-0.21628 0.410974,-0.32573 0.121151,-0.095 0.246763,-0.18402 0.372217,-0.27316 0.03463,-0.0171 0.234859,-0.17795 0.07759,-0.0523 -0.0026,0.002 -0.0052,0.004 -0.0079,0.007 -0.05543,0.0443 0.106726,-0.0937 0.163491,-0.13623 0.0796,-0.0597 0.130944,-0.0846 0.213452,-0.12959 0.3816,-0.20213 0.811595,-0.19975 1.206809,-0.0597 0.67127,0.40961 0.549381,0.32448 0.885728,1.07526 0.371946,1.96065 -2.400823,2.48666 -2.77277,0.52601 v 0 c 0.319218,0.69759 0.224415,0.65257 0.857444,1.02644 0.359935,0.12546 0.756392,0.12762 1.10494,-0.0539 0.06423,-0.0358 0.103812,-0.0555 0.166229,-0.1035 0.283594,-0.21799 0.08057,-0.0786 0.02941,-0.0174 -0.09273,0.0782 -0.189793,0.15036 -0.289802,0.21893 -0.08035,0.0571 -0.160711,0.11415 -0.239741,0.17304 -0.162086,0.13016 -0.324047,0.26052 -0.489426,0.3865 -0.216617,0.16137 -0.430927,0.32585 -0.647293,0.48758 -0.286679,0.21567 -0.574795,0.42937 -0.864277,0.64128 -0.334153,0.24192 -0.670509,0.48078 -1.003957,0.72367 -0.369143,0.26544 -0.740919,0.52714 -1.113003,0.78844 -0.384,0.26949 -0.770115,0.536 -1.159396,0.79781 -0.3832,0.2586 -0.768395,0.51421 -1.154591,0.7683 -0.362359,0.24017 -0.723506,0.4822 -1.089047,0.71751 -0.324747,0.21405 -0.651598,0.42492 -0.973824,0.64279 -0.28452,0.19052 -0.5699448,0.37975 -0.8563713,0.56738 -0.2345823,0.15197 -0.4704625,0.30196 -0.7081877,0.44896 -0.2023692,0.1243 -0.4086281,0.24187 -0.6199976,0.35029 -0.1490906,0.0767 -0.2964207,0.15681 -0.4497144,0.22503 -1.8236139,0.8105 -2.9698267,-1.76848 -1.1462131,-2.57898 z"
       inkscape:connector-curvature="0" />
    <path
       style="fill:#000000;fill-opacity:1;fill-rule:nonzero;stroke:none;stroke-width:0.26458332"
       id="path5557"
       d="m 29.036121,247.11597 c -0.02633,-0.0205 -0.103749,-0.0483 -5.29e-4,-0.004 0.05789,0.0199 0.03588,0.019 0.0057,0.0198 -0.07467,0.005 -0.146881,0.027 -0.219702,0.0441 -0.127699,0.0276 -0.245285,0.0852 -0.362956,0.14008 -0.153834,0.0744 -0.294298,0.17221 -0.430043,0.27526 -0.164761,0.13333 -0.312317,0.28643 -0.455152,0.44257 -0.140523,0.16177 -0.263784,0.33631 -0.3692,0.52261 -0.117041,0.1899 -0.19337,0.39719 -0.261606,0.60814 -0.05043,0.16561 -0.07539,0.33516 -0.07762,0.50778 0.0048,0.14774 0.01709,0.29821 0.06217,0.43973 0.03439,0.11213 0.07969,0.22048 0.149849,0.31485 0.06887,0.0959 0.154715,0.17574 0.24624,0.24923 0.09666,0.0778 0.204825,0.12949 0.318029,0.17698 0.128791,0.0566 0.265996,0.0804 0.403916,0.10118 0.147801,0.0135 0.297082,0.004 0.44432,-0.0118 0.17762,-0.0241 0.352854,-0.0658 0.522256,-0.12415 0.198871,-0.0705 0.390001,-0.16131 0.573696,-0.26479 0.203784,-0.11091 0.392842,-0.24582 0.573735,-0.3905 0.187759,-0.14981 0.361691,-0.31553 0.525368,-0.49106 0.149309,-0.15878 0.270388,-0.33932 0.387744,-0.52199 0.100917,-0.15074 0.170304,-0.31533 0.228915,-0.48585 0.04007,-0.13553 0.06733,-0.27481 0.07296,-0.41613 0.0032,-0.0915 -0.01484,-0.17925 -0.04251,-0.26548 -0.03216,-0.057 -0.0657,-0.11306 -0.109625,-0.16256 -0.08413,-0.0893 -0.18116,-0.1667 -0.281479,-0.23703 -0.151413,-0.10705 -0.318389,-0.18962 -0.487633,-0.26426 -0.230129,-0.10435 -0.470138,-0.18408 -0.709567,-0.26382 -0.249722,-0.0775 -0.50084,-0.1505 -0.753515,-0.21774 -0.212598,-0.0567 -0.428085,-0.10107 -0.643932,-0.14323 -0.1084,-0.0131 -0.226105,-0.0549 -0.333367,-0.0446 -1.995609,-0.004 -1.989758,-2.82635 0.0058,-2.82222 v 0 c 0.292582,0.005 0.582877,0.0348 0.869275,0.0971 0.278284,0.0545 0.555874,0.11295 0.829937,0.18619 0.308227,0.0825 0.614863,0.171 0.919033,0.2674 0.330695,0.11051 0.660895,0.22417 0.978456,0.36911 0.347826,0.15905 0.688845,0.33557 0.997905,0.5628 0.31936,0.23878 0.624687,0.49891 0.867569,0.81799 0.2496,0.34251 0.460047,0.71004 0.576178,1.12082 0.102081,0.39584 0.161731,0.79979 0.131796,1.20985 -0.03303,0.39181 -0.09868,0.78013 -0.228679,1.15266 -0.134993,0.3731 -0.296656,0.73515 -0.515284,1.0678 -0.211349,0.32722 -0.438041,0.6447 -0.706041,0.92868 -0.260455,0.27473 -0.534146,0.53684 -0.831685,0.77158 -0.305396,0.23902 -0.622187,0.46402 -0.963941,0.64882 -0.34126,0.18491 -0.69201,0.35339 -1.061323,0.47531 -0.366284,0.1158 -0.739915,0.20961 -1.123058,0.24869 -0.384937,0.0346 -0.773285,0.0479 -1.156963,-0.0104 -0.374329,-0.0612 -0.743754,-0.14914 -1.092149,-0.303 -0.359229,-0.15985 -0.701849,-0.35139 -1.005008,-0.60433 -0.303816,-0.26013 -0.584169,-0.54626 -0.802926,-0.88342 -0.221555,-0.35547 -0.404343,-0.73168 -0.508597,-1.13948 -0.0991,-0.40863 -0.161901,-0.82509 -0.148067,-1.24707 0.02042,-0.43481 0.08083,-0.86545 0.216636,-1.28075 0.132078,-0.3981 0.288158,-0.78751 0.504593,-1.14838 0.212798,-0.36017 0.45105,-0.70425 0.732824,-1.01465 0.263216,-0.28393 0.537167,-0.5597 0.846267,-0.79432 0.294963,-0.21702 0.600549,-0.42066 0.934266,-0.57414 0.290949,-0.13277 0.587486,-0.25576 0.901112,-0.32446 0.279818,-0.0649 0.562772,-0.11634 0.85113,-0.11789 0.299323,8e-4 0.597972,0.0279 0.884344,0.12098 0.214571,0.0771 0.425116,0.16462 0.615823,0.29177 1.692275,1.05767 0.1965,3.45091 -1.495777,2.39324 z"
       inkscape:connector-curvature="0" />
    <path
       style="fill:#000000;fill-opacity:1;fill-rule:nonzero;stroke:none;stroke-width:0.26458332"
       id="path5559"
       d="m 25.990186,245.83462 c 0.04513,0.20992 0.06761,0.4237 0.08783,0.63717 0.02784,0.29958 0.03868,0.60007 0.04108,0.9008 2.3e-4,0.35694 -0.0021,0.71387 -0.0036,1.0708 -0.0017,0.42876 -0.0029,0.85751 -0.0039,1.28627 -0.0011,0.47717 -0.0018,0.95434 -0.0024,1.43151 -6.35e-4,0.49856 -0.0011,0.99713 -0.0015,1.49569 -3.7e-4,0.48739 -6.35e-4,0.97479 -8.73e-4,1.46218 0.0044,0.46211 -0.0077,0.92405 -0.01957,1.38595 -0.01009,0.38484 -0.01896,0.7697 -0.02701,1.15459 -0.0032,0.29913 -0.01663,0.59828 -0.0135,0.89745 0.0038,0.19949 0.0078,0.39892 0.02358,0.59784 0.0062,0.12848 0.02829,0.25487 0.04912,0.38153 0.01511,0.0595 0.03385,0.14029 0.04548,0.17399 0.02024,0.0646 0.02334,0.0775 0.01277,0.0376 0.698484,1.86939 -1.945221,2.85719 -2.643705,0.98781 v 0 c -0.04996,-0.14036 -0.03099,-0.082 -0.05979,-0.174 -0.05791,-0.18644 -0.104461,-0.37619 -0.139703,-0.56826 -0.03374,-0.20586 -0.06501,-0.41225 -0.07796,-0.62067 -0.02021,-0.26524 -0.02834,-0.531 -0.03195,-0.79697 -0.0014,-0.3252 0.0085,-0.6503 0.01406,-0.97543 0.0082,-0.38927 0.01712,-0.77852 0.02732,-1.16774 0.01122,-0.4383 0.02313,-0.87663 0.01864,-1.31513 2.42e-4,-0.48767 5.02e-4,-0.97533 8.73e-4,-1.46299 3.97e-4,-0.49906 8.2e-4,-0.99811 0.0015,-1.49717 6.35e-4,-0.47814 0.0013,-0.95629 0.0024,-1.43444 0.001,-0.43044 0.0021,-0.86088 0.0039,-1.29132 0.0014,-0.3463 0.0036,-0.69261 0.0036,-1.03892 -0.0013,-0.21973 -0.0087,-0.43919 -0.02888,-0.65812 -0.0088,-0.0962 -0.01789,-0.19238 -0.0329,-0.28783 -0.432909,-1.9481 2.322108,-2.56032 2.755017,-0.61223 z"
       inkscape:connector-curvature="0" />
    <path
       style="fill:#000000;fill-opacity:1;fill-rule:nonzero;stroke:none;stroke-width:0.26458332"
       id="path5561"
       d="m 37.611102,246.65298 c 0.06497,0.13686 0.12718,0.27496 0.191204,0.41227 0.09397,0.2025 0.179695,0.40861 0.264361,0.61512 0.09632,0.24109 0.183941,0.48544 0.27187,0.72967 0.09588,0.26798 0.177615,0.54084 0.256707,0.81418 0.06937,0.25759 0.131149,0.51722 0.193421,0.77662 0.05869,0.24269 0.104659,0.4881 0.147249,0.73404 0.03907,0.22119 0.07055,0.44324 0.08808,0.66719 0.0093,0.13914 0.01508,0.27849 0.02098,0.41781 0.01095,0.1745 -0.0068,0.34853 -0.03514,0.52042 -0.03967,0.12224 -0.0664,0.24946 -0.11901,0.36671 -0.08437,0.18805 -0.393435,0.61012 -0.578271,0.6317 -0.534696,0.0624 -1.081513,-0.0229 -1.61019,-0.12436 -0.129233,-0.0248 -0.367126,-0.43941 -0.41823,-0.51865 -0.107455,-0.21924 -0.16647,-0.45477 -0.213114,-0.69298 -0.03582,-0.20559 -0.06926,-0.4114 -0.09609,-0.61837 -0.03733,-0.29986 -0.045,-0.60261 -0.04566,-0.90447 2.65e-4,-0.32921 0.02956,-0.65735 0.06804,-0.984 0.04541,-0.34837 0.128091,-0.69042 0.219777,-1.02909 0.09725,-0.36308 0.252367,-0.70587 0.420848,-1.04051 0.163579,-0.32308 0.367599,-0.62256 0.588283,-0.90876 0.227491,-0.28834 0.497028,-0.53813 0.778052,-0.7729 0.269796,-0.22002 0.564925,-0.40392 0.871366,-0.56768 0.298188,-0.15663 0.614365,-0.27272 0.936778,-0.36766 0.302125,-0.0851 0.611497,-0.13427 0.92365,-0.16168 0.297156,-0.0239 0.594678,-0.005 0.889786,0.0317 0.187444,0.022 0.370528,0.0659 0.552751,0.11341 1.922921,0.53371 1.168139,3.25313 -0.754782,2.71942 v 0 c -0.05156,-0.0137 -0.110998,-0.03 -0.166772,-0.0348 -0.0992,-0.0171 -0.200874,-0.0208 -0.30126,-0.016 -0.126486,0.004 -0.249986,0.0344 -0.372705,0.063 -0.135271,0.0324 -0.264186,0.0893 -0.389615,0.14835 -0.138851,0.0713 -0.27128,0.1534 -0.394271,0.24992 -0.125251,0.0995 -0.243324,0.20912 -0.347549,0.33064 -0.112268,0.14016 -0.213061,0.28983 -0.296392,0.44908 -0.0838,0.16343 -0.166092,0.32944 -0.215378,0.50709 -0.05662,0.2053 -0.108466,0.41256 -0.140502,0.62327 -0.02679,0.21604 -0.0465,0.43333 -0.04789,0.65116 -0.0016,0.18061 0.0035,0.36213 0.02275,0.54175 0.01913,0.15182 0.0445,0.30253 0.06995,0.45339 0.01037,0.0676 0.02862,0.12441 -0.04724,-0.068 -0.04296,-0.0633 -0.247843,-0.4004 -0.352068,-0.41661 -0.515874,-0.0802 -1.046297,-0.15723 -1.563743,-0.0879 -0.174887,0.0234 -0.464476,0.41649 -0.544459,0.60003 -0.04699,0.10782 -0.06998,0.22457 -0.104977,0.33686 -0.0046,0.0313 -0.009,0.21711 -0.0064,0.0958 -0.0046,-0.10922 -0.0091,-0.21846 -0.01572,-0.32759 -0.0086,-0.13304 -0.03376,-0.26414 -0.05459,-0.39579 -0.03219,-0.1865 -0.06618,-0.37275 -0.110707,-0.55677 -0.05213,-0.21765 -0.104582,-0.43526 -0.160494,-0.65195 -0.06193,-0.21513 -0.125828,-0.42997 -0.20061,-0.64102 -0.07406,-0.20572 -0.147415,-0.41171 -0.227782,-0.61508 -0.06792,-0.1657 -0.136094,-0.33132 -0.211304,-0.49389 -0.05277,-0.11336 -0.105548,-0.22957 -0.157229,-0.34191 -0.892466,-1.78493 1.631807,-3.04706 2.524271,-1.26213 z"
       inkscape:connector-curvature="0" />
    <path
       style="fill:#000000;fill-opacity:1;fill-rule:nonzero;stroke:none;stroke-width:0.26458332"
       id="path5563"
       d="m 50.282839,247.92362 c 0.04423,-0.011 0.266497,-0.1373 0.127083,-0.0593 0.01392,-0.0201 -0.02772,0.0194 -0.0512,0.0435 -0.05624,0.0649 -0.05002,0.0535 -0.09014,0.1448 -0.02593,0.0612 -0.03611,0.12894 -0.0382,0.19481 0.0088,0.028 0.0059,0.0591 0.0011,0.0881 -0.01969,-0.015 0.01188,0.0229 -0.03929,-0.019 -0.05289,-0.0344 -0.113327,-0.0601 -0.172691,-0.084 -0.127649,-0.0507 -0.263269,-0.0774 -0.398987,-0.0957 -0.185245,-0.0211 -0.370625,-0.013 -0.555572,0.005 -0.221678,0.0224 -0.437515,0.0751 -0.64956,0.14153 -0.207441,0.0617 -0.398714,0.15962 -0.584229,0.26895 -0.16239,0.0976 -0.304361,0.22191 -0.432316,0.36073 -0.104306,0.12183 -0.190391,0.25883 -0.253322,0.40628 -0.06194,0.15292 -0.09352,0.31461 -0.109149,0.47816 -0.01392,0.18154 0.01857,0.36167 0.055,0.53871 0.04112,0.17842 0.123624,0.34126 0.217845,0.49673 0.08447,0.14473 0.202631,0.25802 0.334888,0.35791 0.1464,0.10356 0.309632,0.17441 0.480605,0.22556 0.214794,0.0595 0.437994,0.067 0.659403,0.0674 0.278111,-0.01 0.55172,-0.0584 0.820991,-0.12586 0.29201,-0.0709 0.569667,-0.18394 0.84019,-0.31266 0.234564,-0.11433 0.45125,-0.25822 0.65591,-0.41918 0.143796,-0.11251 0.255685,-0.2527 0.358534,-0.40167 0.05932,-0.10025 0.101788,-0.20819 0.12513,-0.32211 0.01656,-0.0945 0.0075,-0.18761 -0.0081,-0.28098 -0.02154,-0.13383 -0.07622,-0.25794 -0.135077,-0.37891 -0.06912,-0.14239 -0.165214,-0.26399 -0.271336,-0.37978 -0.12161,-0.13478 -0.266329,-0.24338 -0.415972,-0.34458 -0.126561,-0.0826 -0.262475,-0.14633 -0.407379,-0.18848 -0.100428,-0.0346 -0.20414,-0.0455 -0.309431,-0.0381 -0.02601,0.0111 -0.04264,0.0196 -0.04921,0.0344 0.04387,-0.0157 0.0054,0.0117 0.0061,0.035 0.0082,-0.008 0.01646,-0.016 0.02468,-0.024 -1.023315,1.71327 -3.446245,0.26609 -2.422929,-1.44718 v 0 c 0.05093,-0.0795 0.101867,-0.15899 0.152799,-0.23848 0.276471,-0.34967 0.595707,-0.65619 0.997543,-0.85964 0.401113,-0.18659 0.820989,-0.31464 1.267415,-0.32221 0.412882,0.001 0.823322,0.0457 1.216424,0.17983 0.397386,0.13534 0.780373,0.30679 1.12725,0.54629 0.335396,0.23383 0.655195,0.48991 0.926795,0.79754 0.283152,0.32471 0.536401,0.67264 0.718937,1.06509 0.176159,0.38848 0.321566,0.79078 0.374248,1.21675 0.05092,0.45162 0.04966,0.90534 -0.06429,1.34877 -0.121639,0.43833 -0.290703,0.86028 -0.553005,1.23546 -0.268042,0.37257 -0.568953,0.71861 -0.933921,1.00051 -0.369618,0.28282 -0.758188,0.5395 -1.179738,0.73942 -0.444397,0.20756 -0.901279,0.38769 -1.379408,0.50235 -0.496784,0.11741 -1.001344,0.20278 -1.513512,0.20449 -0.515291,-0.008 -1.030859,-0.0522 -1.524076,-0.21287 -0.487077,-0.16864 -0.954694,-0.38508 -1.360903,-0.7082 -0.393674,-0.32552 -0.747041,-0.69272 -1.002811,-1.13919 -0.243956,-0.42987 -0.448042,-0.88098 -0.544615,-1.36898 -0.08869,-0.46726 -0.142418,-0.94191 -0.08688,-1.41735 0.06047,-0.46648 0.163584,-0.9264 0.363792,-1.35502 0.204229,-0.4159 0.446362,-0.81192 0.767945,-1.14908 0.315523,-0.32226 0.656992,-0.61756 1.049194,-0.84425 0.373145,-0.21448 0.760741,-0.4021 1.174266,-0.52624 0.401585,-0.12127 0.810694,-0.21628 1.229447,-0.2543 0.412949,-0.0341 0.827932,-0.0422 1.239259,0.0185 0.379679,0.0626 0.756388,0.14828 1.109527,0.30573 0.3449,0.1575 0.675373,0.34428 0.955276,0.60377 0.251364,0.24092 0.480647,0.50405 0.634801,0.81952 0.143732,0.30059 0.258829,0.614 0.285949,0.94916 0.01831,0.31838 0.0016,0.63683 -0.105601,0.94051 -0.101716,0.26637 -0.224644,0.52191 -0.408318,0.7431 -0.161899,0.18646 -0.338161,0.3592 -0.545381,0.49569 -0.140618,0.0898 -0.28644,0.17762 -0.439711,0.24155 -1.784929,0.89246 -3.047066,-1.63181 -1.262133,-2.52427 z"
       inkscape:connector-curvature="0" />
    <path
       style="fill:#000000;fill-opacity:1;fill-rule:nonzero;stroke:none;stroke-width:0.26458332"
       id="path5565"
       d="m 6.626589,264.32779 c -0.1542791,0.085 0.1971606,-0.11687 0.2172666,-0.12838 0.048428,-0.0319 0.09578,-0.0655 0.142966,-0.0993 -0.047831,0.0275 -0.062412,0.0521 -0.1520084,0.15992 -0.1615276,0.21507 -0.1853282,0.4678 -0.1930308,0.72743 0.017965,0.25654 0.120726,0.49258 0.2868398,0.68718 0.095712,0.0876 0.112499,0.11056 0.1461575,0.13397 -0.075361,-0.038 -0.1562677,-0.0602 -0.2380422,-0.0793 -0.1164477,-0.0314 -0.2356779,-0.0404 -0.3553135,-0.0494 -0.14332,-0.006 -0.2860048,0.007 -0.4284845,0.0206 -0.16027,0.0199 -0.3186335,0.0517 -0.4740793,0.0953 -0.1599176,0.0483 -0.3135551,0.11428 -0.4641459,0.18604 -0.1161968,0.0595 -0.2287772,0.12531 -0.3285651,0.20976 -0.064139,0.0538 -0.1212538,0.11071 -0.1656625,0.18122 0.027285,-0.007 0.055118,-0.0994 0.068661,-0.1512 0.028746,-0.13326 -0.00243,-0.26297 -0.051259,-0.38682 -0.00509,-0.0489 -0.1118486,-0.12675 -0.035543,-0.0932 0.090619,0.0421 0.1858568,0.0722 0.2813746,0.10077 0.152283,0.039 0.3078149,0.0592 0.4645151,0.0678 0.1935777,0.0124 0.3879745,3e-5 0.5801477,-0.0242 0.1972344,-0.0298 0.3915963,-0.0755 0.5827268,-0.1322 0.1402654,-0.0428 0.2765467,-0.097 0.4011242,-0.17462 0.1146389,-0.0679 0.215392,-0.15436 0.3132957,-0.24387 0.054,-0.0594 0.098629,-0.12597 0.1393783,-0.19489 0.021135,-0.0452 0.046659,-0.0974 0.052542,-0.1496 0.018304,-0.0661 0.022331,-0.13274 0.027355,-0.20055 0.00491,-0.009 1.63e-4,-0.24065 -0.00291,-0.17624 -0.011343,-0.0793 -0.022199,-0.15864 -0.033517,-0.23793 0.0083,0.0682 0.02545,0.12124 -0.00196,0.0377 -0.054412,-0.1575 -0.0794,-0.32251 -0.086142,-0.48825 0.6323097,-4.13561 2.4578551,-1.23353 2.7958879,-0.40417 0.05343,0.14284 0.09925,0.28827 0.144219,0.43394 0.05443,0.1642 0.104624,0.32991 0.151815,0.49635 0.05969,0.20643 0.115033,0.41413 0.167305,0.62256 0.05969,0.24639 0.115544,0.49349 0.163311,0.74248 0.05202,0.27701 0.08683,0.55674 0.11729,0.83681 0.02871,0.3176 0.03584,0.63647 0.03272,0.95517 -0.0046,0.34653 -0.04452,0.69061 -0.09482,1.03303 -0.05507,0.36981 -0.153245,0.73065 -0.261745,1.08776 -0.121482,0.37953 -0.284917,0.74289 -0.457882,1.10116 -0.1792813,0.3699 -0.3950623,0.71977 -0.6210117,1.06252 -0.2220145,0.33523 -0.466408,0.65458 -0.7182492,0.96772 -0.2523194,0.31305 -0.5258412,0.60801 -0.8120335,0.89012 -0.27573,0.27205 -0.5755521,0.51699 -0.8900382,0.74244 -0.3072834,0.21851 -0.6410638,0.39112 -0.9892811,0.53337 -0.3936365,0.15444 -0.8072615,0.20003 -1.2265538,0.18474 -0.4597329,-0.0232 -0.8671187,-0.20465 -1.2449246,-0.45427 -0.3290176,-0.23487 -0.5652246,-0.55597 -0.7617415,-0.90356 -0.1266196,-0.22458 -0.2000255,-0.46985 -0.2652681,-0.71733 -0.4661418,-1.9404 2.2780085,-2.59963 2.7441504,-0.65922 v 0 c -0.00262,-0.004 -0.00728,-0.0165 -0.00782,-0.0118 -9.789e-4,0.009 0.00927,0.017 0.00629,0.0251 -0.00333,0.009 -0.034798,-0.0719 0.00111,0.0134 0.00425,0.0302 -0.061375,-0.0444 -0.084899,-0.0492 -0.071563,-0.0375 -0.1480672,-0.0661 -0.2288225,-0.0609 -0.088166,0.0394 -0.00537,0.005 0.031112,0.008 0.142956,-0.0471 0.2698838,-0.1312 0.3956513,-0.21191 0.1960695,-0.13496 0.376169,-0.29141 0.5473626,-0.45654 0.2094937,-0.20223 0.4044847,-0.41924 0.588885,-0.64451 0.1969434,-0.24328 0.3873,-0.49207 0.5609698,-0.75266 0.1574832,-0.23715 0.3090167,-0.4786 0.434416,-0.73461 0.1103288,-0.22765 0.2175737,-0.45688 0.2994131,-0.69669 0.068633,-0.22314 0.1335672,-0.44799 0.1694711,-0.67915 0.03264,-0.21469 0.059773,-0.43022 0.064203,-0.64764 0.00249,-0.20737 -0.00156,-0.4146 -0.016526,-0.62153 -0.021945,-0.2045 -0.046441,-0.40884 -0.083627,-0.61122 -0.037321,-0.19707 -0.082385,-0.3923 -0.1291516,-0.58733 -0.045116,-0.18151 -0.093863,-0.36214 -0.145854,-0.5418 -0.040331,-0.145 -0.085672,-0.2886 -0.1327242,-0.43154 -0.00528,-0.0173 -0.1131949,-0.35343 -0.064747,-0.20967 -0.2938423,-0.7931 1.6364175,2.05635 2.6424807,-0.75292 -0.0015,-0.0303 -0.06503,-0.42594 -0.05191,-0.2863 0.04719,0.14446 0.09133,0.2903 0.113571,0.44111 0.01839,0.12886 0.03722,0.25772 0.05079,0.38721 0.01591,0.21734 0.02373,0.4359 0.0048,0.65342 -0.0213,0.25381 -0.05746,0.5061 -0.12769,0.75153 -0.09107,0.30323 -0.203797,0.60071 -0.3738331,0.8697 -0.1827175,0.28693 -0.3871086,0.56002 -0.6391751,0.79064 -0.2468245,0.22153 -0.507265,0.42779 -0.7951089,0.59429 -0.3253546,0.18363 -0.6652789,0.33803 -1.0255924,0.44049 -0.3426378,0.098 -0.6902066,0.17986 -1.0441697,0.22503 -0.3661984,0.0405 -0.7351524,0.063 -1.1033823,0.0358 -0.3739719,-0.0288 -0.7463187,-0.0801 -1.1064375,-0.18904 -0.3607578,-0.11469 -0.7156444,-0.25163 -1.0317538,-0.46413 -0.3408854,-0.24029 -0.6502975,-0.51867 -0.85265,-0.89003 -0.207327,-0.41732 -0.3288145,-0.85521 -0.2673967,-1.32562 0.065598,-0.40851 0.1947375,-0.79475 0.4399044,-1.13327 0.204163,-0.2773 0.4347021,-0.5318 0.7057847,-0.74592 0.2740927,-0.21269 0.5647031,-0.40171 0.8790966,-0.5502 0.3015366,-0.14041 0.6095873,-0.26796 0.9307679,-0.35678 0.3106568,-0.082 0.6256057,-0.1477 0.9457034,-0.17995 0.3027389,-0.0279 0.6068425,-0.046 0.9107411,-0.024 0.2772746,0.0224 0.5536025,0.0562 0.823465,0.12621 0.233757,0.0603 0.4653894,0.13032 0.6847761,0.23254 0.273943,0.12476 0.5332867,0.27484 0.7481943,0.48932 0.2739295,0.29624 0.4646776,0.64571 0.4964755,1.05472 -6.879e-4,0.0991 0.00607,0.19858 -0.00204,0.29737 -0.023831,0.29049 -0.1432065,0.565 -0.3021877,0.80551 -0.1536785,0.19616 -0.316098,0.38041 -0.5225368,0.52343 -0.1280062,0.0915 -0.2577271,0.18076 -0.3940294,0.25959 -0.1164576,0.0635 -0.2277329,0.13664 -0.3460366,0.19697 -1.7849299,0.89247 -3.047066,-1.6318 -1.262136,-2.52427 z"
       inkscape:connector-curvature="0" />
    <path
       style="fill:#000000;fill-opacity:1;fill-rule:nonzero;stroke:none;stroke-width:0.26458332"
       id="path5567"
       d="m 13.307796,263.61123 c 0.155312,0.11905 0.299849,0.25035 0.437849,0.3889 0.163831,0.16942 0.3123,0.35202 0.450612,0.54259 0.142957,0.19794 0.269954,0.40669 0.392097,0.61789 0.129986,0.22412 0.250163,0.45368 0.366428,0.68514 0.132673,0.26483 0.250208,0.53684 0.363229,0.81052 0.116061,0.27862 0.224615,0.56011 0.322312,0.84567 0.09843,0.27401 0.181085,0.55318 0.256592,0.83425 0.0569,0.22463 0.118726,0.44792 0.175071,0.6727 0.05138,0.22041 0.08401,0.44454 0.114437,0.66861 0.036,0.25693 0.02752,0.51362 -0.0035,0.77013 -0.05938,0.33994 -0.203737,0.66595 -0.450126,0.91318 -0.06742,0.0677 -0.145691,0.12356 -0.218537,0.18534 -0.55958,0.34651 -1.090949,0.34571 -1.667641,0.0644 -0.28498,-0.15744 -0.510664,-0.38405 -0.716139,-0.63222 -0.177979,-0.22269 -0.323284,-0.46811 -0.458466,-0.71832 -0.153955,-0.28173 -0.274198,-0.57872 -0.379463,-0.88146 -0.107489,-0.32077 -0.183898,-0.65056 -0.243587,-0.98318 -0.06441,-0.3636 -0.07436,-0.73206 -0.05584,-1.09986 0.02358,-0.39172 0.122343,-0.7694 0.258175,-1.13566 0.152343,-0.39325 0.387648,-0.73885 0.659068,-1.05823 0.270348,-0.3088 0.597207,-0.55653 0.937209,-0.78267 0.328312,-0.21775 0.685833,-0.38355 1.048571,-0.53437 0.361189,-0.14606 0.73559,-0.25369 1.113301,-0.34701 0.355056,-0.089 0.716945,-0.1446 1.080466,-0.18404 0.329592,-0.0359 0.660552,-0.0419 0.991228,-0.0226 0.177595,0.008 0.350362,0.0439 0.52379,0.0798 1.943322,0.45384 1.301496,3.20212 -0.641825,2.74828 v 0 c 0.01012,5.3e-4 0.03863,0.007 0.03035,10e-4 -0.02834,-0.02 -0.07806,0.0105 -0.103164,-0.0135 -0.168764,-0.0184 -0.339338,0.002 -0.507812,0.0139 -0.236118,0.0226 -0.470608,0.0618 -0.701074,0.11809 -0.241256,0.0585 -0.480631,0.12509 -0.711948,0.21611 -0.198007,0.0797 -0.394133,0.1669 -0.573501,0.28375 -0.126476,0.0803 -0.250917,0.16648 -0.355542,0.27457 -0.06136,0.0641 -0.115022,0.13128 -0.152356,0.21297 -0.04005,0.0945 -0.06862,0.19199 -0.07758,0.29506 -0.0131,0.15171 -0.0046,0.30406 0.0196,0.4544 0.02842,0.18446 0.07679,0.36564 0.130875,0.54409 0.0541,0.15989 0.115062,0.31667 0.197173,0.46471 0.05073,0.0954 0.102404,0.19032 0.165748,0.27812 0.03508,0.0584 -0.186892,-0.15562 -0.166036,-0.091 -0.431152,-0.19013 -0.893219,-0.12067 -1.282833,0.13734 -0.242253,0.21356 -0.434375,0.42907 -0.480086,0.76061 -0.0037,0.0446 -0.0094,0.21547 -0.0053,0.046 -0.01618,-0.12061 -0.03368,-0.24107 -0.05529,-0.36084 -0.05262,-0.21026 -0.110856,-0.419 -0.163796,-0.62916 -0.05865,-0.22063 -0.124143,-0.43939 -0.201913,-0.65412 -0.07768,-0.22998 -0.167285,-0.45549 -0.25998,-0.67981 -0.08624,-0.2099 -0.175794,-0.41861 -0.277181,-0.62172 -0.09239,-0.18512 -0.188738,-0.36831 -0.292548,-0.54732 -0.07264,-0.13015 -0.152313,-0.25669 -0.238454,-0.37833 -0.04766,-0.071 -0.104706,-0.13402 -0.160546,-0.19857 -0.01149,-0.0118 -0.192174,-0.1842 -0.125453,-0.11656 -1.59649,-1.19737 0.09684,-3.45515 1.693333,-2.25778 z"
       inkscape:connector-curvature="0" />
    <path
       style="fill:#000000;fill-opacity:1;fill-rule:nonzero;stroke:none;stroke-width:0.26458332"
       id="path5569"
       d="m 23.709748,265.56336 c 0.02728,-0.0494 0.04942,-0.10091 0.06969,-0.15342 0.01325,-0.036 0.04512,-0.17035 0.0044,-0.005 -0.0075,0.0482 -10e-4,-0.0265 -0.0016,-0.0174 -0.0044,0.066 -0.0049,0.0693 -0.0012,0.13746 0.01918,0.12065 -0.01109,0.0117 0.01609,0.0909 0.0064,0.0266 0.02966,0.0645 0.05108,0.0988 0.02352,0.0328 0.05463,0.0587 0.08529,0.0844 -0.06281,-0.0117 0.04782,0.0214 0.05695,0.0237 0.0082,0.009 0.09127,0.007 0.128648,0.006 0.0061,0.005 -0.01363,0.008 -0.0094,0.008 0.04518,0.002 -0.002,0.004 -0.04287,0.0397 -0.06614,0.0484 -0.114969,0.11782 -0.165824,0.18176 -0.07554,0.10979 -0.140643,0.2257 -0.194648,0.34747 -0.07023,0.16891 -0.118417,0.34579 -0.162168,0.52305 -0.05393,0.21001 -0.08303,0.42416 -0.106831,0.63922 -0.01528,0.18997 -0.01588,0.38105 -0.0067,0.57134 0.01389,0.11857 0.02133,0.23978 0.05719,0.35435 0.08653,0.16444 -0.05367,-0.0901 -0.0607,-0.10078 -0.159333,-0.21275 -0.398323,-0.31451 -0.652105,-0.36166 -0.13786,-0.0169 -0.273452,1.3e-4 -0.401914,0.0518 0.0685,-0.0417 0.126778,-0.0973 0.182485,-0.1546 0.114937,-0.12597 0.221322,-0.25929 0.322027,-0.39681 0.139348,-0.19324 0.269424,-0.39277 0.398237,-0.5931 0.128613,-0.20544 0.25615,-0.41138 0.377009,-0.62149 0.124152,-0.21707 0.248367,-0.43409 0.374196,-0.6502 0.106357,-0.18722 0.211377,-0.37519 0.318024,-0.56224 0.09333,-0.1672 0.188603,-0.33336 0.28625,-0.49808 0.06955,-0.1292 0.149284,-0.25238 0.224224,-0.37841 0.04883,-0.0827 0.09707,-0.16568 0.145334,-0.24867 0.09277,-0.17022 0.21649,-0.31772 0.353329,-0.45389 0.09605,-0.0689 0.17866,-0.16215 0.288154,-0.20669 0.617668,-0.25124 1.063899,-0.25007 1.608433,0.15426 0.237305,0.17621 0.297169,0.33771 0.420227,0.57267 0.08892,0.20911 0.119933,0.43304 0.140084,0.65724 0.0127,0.14619 0.03082,0.29192 0.04416,0.43816 0.01543,0.20889 0.03252,0.41771 0.05645,0.62583 0.02667,0.24424 0.05555,0.48824 0.09815,0.73026 0.04661,0.27358 0.106643,0.54477 0.172845,0.81422 0.06802,0.2765 0.158869,0.54629 0.254963,0.81405 0.09193,0.23964 0.204546,0.46998 0.332298,0.69237 0.112768,0.19239 0.248557,0.36738 0.401926,0.52856 0.144936,0.15206 0.31523,0.27595 0.492884,0.38667 0.188177,0.11241 0.394917,0.18775 0.601665,0.25787 0.230299,0.0775 0.470159,0.11863 0.71024,0.15135 0.268356,0.0353 0.539271,0.0461 0.809418,0.0592 0.226095,0.005 0.452263,0.002 0.678376,2.6e-4 0.03378,-2.6e-4 0.06756,-5.3e-4 0.101343,-7.9e-4 1.995533,-0.0181 2.021129,2.80401 0.02561,2.82211 v 0 c -0.03449,2.6e-4 -0.06897,5.3e-4 -0.103457,10e-4 -0.279731,0.002 -0.559583,0.006 -0.839232,-0.004 -0.355047,-0.0174 -0.710798,-0.0343 -1.06322,-0.0831 -0.41987,-0.0598 -0.837671,-0.13983 -1.2396,-0.27845 -0.41798,-0.14568 -0.830252,-0.31223 -1.205394,-0.55055 -0.374203,-0.24332 -0.732096,-0.51251 -1.036558,-0.84131 -0.299439,-0.32609 -0.571473,-0.67501 -0.791079,-1.06073 -0.203715,-0.36383 -0.388583,-0.73792 -0.532439,-1.12994 -0.128561,-0.36013 -0.248572,-0.72349 -0.339369,-1.09526 -0.08085,-0.33253 -0.155213,-0.66689 -0.212409,-1.00438 -0.05054,-0.29713 -0.09012,-0.59579 -0.121632,-0.89555 -0.02515,-0.22828 -0.04658,-0.45699 -0.06254,-0.68611 -0.01338,-0.15025 -0.03296,-0.29984 -0.04522,-0.45018 -0.01014,-0.14021 0.03634,0.20504 0.07123,0.19736 0.223188,0.41205 0.420838,0.61243 0.89399,0.77231 0.131176,0.0443 0.275002,0.0658 0.412462,0.0492 0.217006,-0.0263 0.429723,-0.0923 0.631838,-0.17553 0.10124,-0.0417 0.176745,-0.1293 0.265118,-0.19395 0.0704,-0.0718 0.123769,-0.15254 0.185671,-0.2288 0.008,-0.01 -0.01273,0.0219 -0.0191,0.0328 -0.05326,0.0916 -0.106489,0.18316 -0.16044,0.27433 -0.07424,0.12442 -0.152763,0.24609 -0.221462,0.37376 -0.08951,0.15076 -0.176601,0.30297 -0.261863,0.45616 -0.110974,0.19458 -0.219999,0.39026 -0.331034,0.58482 -0.123925,0.21262 -0.246022,0.42628 -0.368226,0.63989 -0.144139,0.24932 -0.2947,0.49468 -0.448237,0.73832 -0.162202,0.25195 -0.326632,0.50252 -0.50304,0.74485 -0.193066,0.25935 -0.395627,0.51247 -0.623882,0.74207 -0.236356,0.22603 -0.488018,0.43647 -0.775318,0.59574 -0.378553,0.19755 -0.777068,0.32836 -1.210566,0.29508 -0.559123,-0.0763 -0.923747,-0.24014 -1.300183,-0.67141 -0.221421,-0.2963 -0.393531,-0.61597 -0.482334,-0.97778 -0.07596,-0.30903 -0.127436,-0.62316 -0.143227,-0.94147 -0.01208,-0.33317 -0.01241,-0.66729 0.022,-0.99934 0.0386,-0.34075 0.08969,-0.67986 0.174394,-1.01264 0.08917,-0.35094 0.191729,-0.69953 0.342389,-1.02977 0.157475,-0.33092 0.337752,-0.65128 0.566538,-0.939 0.223823,-0.2708 0.464934,-0.52891 0.758708,-0.72575 0.281786,-0.18735 0.577974,-0.35401 0.907482,-0.44208 0.336002,-0.0845 0.679215,-0.12909 1.024662,-0.0729 0.294956,0.0514 0.582933,0.13036 0.847952,0.27378 0.260813,0.14292 0.506509,0.31126 0.704386,0.53627 0.172516,0.19822 0.324511,0.41246 0.428744,0.65512 0.08879,0.21751 0.165071,0.44059 0.19314,0.67525 0.02265,0.23479 0.02721,0.46995 -0.01445,0.70329 -0.03926,0.19347 -0.08652,0.38451 -0.160787,0.56807 -0.05151,0.13002 -0.107026,0.2584 -0.171759,0.38246 -0.892465,1.78493 -3.416737,0.52279 -2.524272,-1.26213 z"
       inkscape:connector-curvature="0" />
    <path
       style="fill:#000000;fill-opacity:1;fill-rule:nonzero;stroke:none;stroke-width:0.26458332"
       id="path5571"
       d="m 34.421257,263.68617 c 0.05868,0.18498 0.107473,0.37274 0.149428,0.56216 0.05999,0.25189 0.101873,0.50739 0.138258,0.76359 0.04597,0.28602 0.08223,0.57338 0.113597,0.86132 0.03123,0.29646 0.05212,0.59379 0.08102,0.89045 0.03027,0.29675 0.05443,0.59406 0.07624,0.89154 0.01855,0.25932 0.0339,0.51886 0.04795,0.77845 0.01048,0.17243 0.0132,0.34525 0.03109,0.5171 -0.0053,0.0282 0.0548,0.37104 0.01881,0.17283 -0.07891,-0.32222 -0.355253,-0.66191 -0.659074,-0.79358 -0.198855,-0.0862 -0.420838,-0.1038 -0.631259,-0.15571 -0.40667,0.0261 -0.719402,0.14981 -1.001212,0.43673 -0.05265,0.0536 -0.189267,0.28958 -0.142727,0.19345 -0.03018,0.0928 0.03969,-0.13921 0.05378,-0.19211 0.06372,-0.22343 0.114554,-0.45011 0.165587,-0.67668 0.06407,-0.29917 0.131458,-0.59764 0.19254,-0.89744 0.06721,-0.33353 0.141753,-0.66544 0.217908,-0.99702 0.07678,-0.32728 0.163108,-0.65213 0.263266,-0.97301 0.09022,-0.2886 0.202782,-0.56932 0.330721,-0.84306 0.14096,-0.31387 0.349224,-0.58269 0.598099,-0.81751 0.319791,-0.26804 0.719314,-0.45856 1.145661,-0.45122 0.120113,0.002 0.239022,0.0244 0.358532,0.0366 0.465659,0.10013 0.819917,0.38594 1.10712,0.75181 0.184872,0.24556 0.310996,0.52668 0.422441,0.81115 0.09339,0.25717 0.167119,0.52099 0.233646,0.78621 0.06096,0.24778 0.103701,0.49945 0.151792,0.74991 0.04439,0.21693 0.07392,0.43655 0.11399,0.65421 0.02863,0.14574 0.05292,0.29228 0.08818,0.43659 0.0052,0.0535 0.08279,0.21289 0.0035,0.027 -0.118798,-0.22755 -0.307602,-0.41197 -0.54452,-0.51614 -0.08392,-0.0369 -0.174041,-0.0576 -0.261059,-0.0865 -0.331388,-0.0636 -0.639853,-0.002 -0.925246,0.17374 -0.142494,0.13919 -0.0069,-0.0321 0.01471,-0.0638 0.09331,-0.15907 0.18101,-0.32131 0.268436,-0.48366 0.124163,-0.24699 0.241967,-0.49709 0.364458,-0.74489 0.130379,-0.27559 0.261964,-0.55061 0.394655,-0.8251 0.135747,-0.28486 0.283485,-0.5636 0.437634,-0.83885 0.163981,-0.29532 0.363818,-0.56578 0.593029,-0.81311 0.258194,-0.26161 0.564936,-0.46711 0.921348,-0.56885 0.09041,-0.0258 0.184732,-0.0351 0.277101,-0.0527 0.653291,-0.0379 1.08091,0.17037 1.531657,0.62323 0.239099,0.26405 0.402093,0.58008 0.547518,0.90203 0.140806,0.31631 0.239771,0.64851 0.338011,0.97979 0.09996,0.35738 0.192093,0.71693 0.283363,1.07661 0.09411,0.37091 0.187582,0.74196 0.28439,1.11218 0.09622,0.34964 0.194088,0.69891 0.304062,1.04449 0.102886,0.30816 0.210561,0.61481 0.332436,0.91602 0.08612,0.20845 0.187063,0.41087 0.307663,0.60152 0.0728,0.12473 0.169373,0.2301 0.269621,0.33258 0.04457,0.0415 0.04988,0.0505 0.02543,0.0185 1.552422,1.25398 -0.220972,3.44943 -1.773391,2.19545 v 0 c -0.209431,-0.17759 -0.116864,-0.0924 -0.280876,-0.25212 -0.240292,-0.24998 -0.463233,-0.51593 -0.643242,-0.81349 -0.200488,-0.32906 -0.379791,-0.67066 -0.523349,-1.02874 -0.147386,-0.36764 -0.280926,-0.7406 -0.404579,-1.11689 -0.123844,-0.39186 -0.23639,-0.78715 -0.344284,-1.18368 -0.09849,-0.37703 -0.193842,-0.75483 -0.289626,-1.13255 -0.08179,-0.32324 -0.165158,-0.64614 -0.253431,-0.96767 -0.06336,-0.21375 -0.122963,-0.4296 -0.210804,-0.63494 -0.0037,-0.009 -0.120682,-0.23378 -0.04721,-0.13973 0.251827,0.22114 0.56102,0.30914 0.894567,0.2681 0.172579,-0.0404 0.374739,-0.0864 0.493868,-0.22916 -0.05047,0.0118 -0.13462,0.19953 -0.171439,0.24311 -0.126569,0.22555 -0.247777,0.454 -0.358796,0.68768 -0.13648,0.28204 -0.271185,0.56494 -0.405802,0.84787 -0.137176,0.27692 -0.267214,0.55737 -0.409356,0.83182 -0.137893,0.25588 -0.274936,0.51294 -0.435441,0.75562 -0.168333,0.24041 -0.347382,0.47463 -0.575685,0.66218 -0.418412,0.3234 -0.849564,0.46798 -1.382104,0.38537 -0.10949,-0.0333 -0.222679,-0.0562 -0.328472,-0.0999 -0.357707,-0.14756 -0.630407,-0.43238 -0.818907,-0.76294 -0.10672,-0.21338 -0.191135,-0.43634 -0.243856,-0.6695 -0.04726,-0.19815 -0.08495,-0.39816 -0.122124,-0.59842 -0.03652,-0.20663 -0.06732,-0.41426 -0.107682,-0.62023 -0.03842,-0.20012 -0.07235,-0.40123 -0.118685,-0.59972 -0.0382,-0.15491 -0.08105,-0.30869 -0.131095,-0.46021 -0.0085,-0.0247 -0.08814,-0.18337 -0.0356,-0.11466 0.165775,0.15549 0.355886,0.27113 0.583589,0.30977 0.08941,0.006 0.178615,0.0194 0.268227,0.0184 0.25291,-0.003 0.498618,-0.1134 0.683471,-0.28105 0.02728,-0.0304 0.136946,-0.19512 0.05319,-0.0598 -0.07696,0.15333 -0.133212,0.3164 -0.187568,0.47877 -0.07959,0.2492 -0.143193,0.50303 -0.204613,0.75724 -0.07105,0.30933 -0.140857,0.6189 -0.203393,0.9301 -0.06515,0.31823 -0.135986,0.63525 -0.204425,0.95278 -0.06038,0.26803 -0.121643,0.53591 -0.196403,0.80039 -0.066,0.23857 -0.138071,0.47623 -0.246568,0.69957 -0.17889,0.35902 -0.452461,0.69687 -0.846648,0.83541 -0.170289,0.0598 -0.354116,0.0702 -0.531175,0.10525 -0.221724,-0.0519 -0.45534,-0.0672 -0.665171,-0.15562 -0.419324,-0.17676 -0.675341,-0.60926 -0.788625,-1.02608 -0.04503,-0.19218 -0.07295,-0.38668 -0.09076,-0.58323 -0.02101,-0.21474 -0.0308,-0.43003 -0.04098,-0.64551 -0.01304,-0.24169 -0.02732,-0.48332 -0.04454,-0.72476 -0.02011,-0.27501 -0.04243,-0.54986 -0.0705,-0.82418 -0.02786,-0.2864 -0.04875,-0.57335 -0.07785,-0.85962 -0.02786,-0.25826 -0.06129,-0.51581 -0.10251,-0.77231 -0.02604,-0.1875 -0.05672,-0.37433 -0.101605,-0.55839 -0.01863,-0.0906 -0.04319,-0.17947 -0.06879,-0.2682 -0.631068,-1.89321 2.046328,-2.78567 2.677396,-0.89247 z"
       inkscape:connector-curvature="0" />
    <path
       style="fill:#000000;fill-opacity:1;fill-rule:nonzero;stroke:none;stroke-width:0.26458332"
       id="path5573"
       d="m 43.343501,264.2976 c 0.04142,-0.1545 0.08522,-0.30834 0.135261,-0.46028 0.03632,-0.12076 0.08175,-0.2384 0.123822,-0.35719 0.0515,-0.13466 0.105841,-0.26826 0.162846,-0.40066 0.03672,-0.0739 0.07246,-0.14809 0.106328,-0.22334 0.09552,-0.23233 0.254479,-0.40854 0.422942,-0.59354 0.125222,-0.0796 0.236421,-0.1875 0.375666,-0.23871 0.759663,-0.27936 1.462286,-0.0377 1.862074,0.6554 0.114575,0.20558 0.177524,0.43269 0.233902,0.6595 0.05369,0.21349 0.09647,0.4296 0.136424,0.64603 0.06157,0.29978 0.100309,0.60331 0.142145,0.90625 0.05213,0.36468 0.08994,0.73113 0.12296,1.09796 0.02641,0.3561 0.06047,0.71153 0.09204,1.06719 0.02857,0.32672 0.05223,0.65384 0.0739,0.98108 0.0099,0.2326 0.03395,0.46402 0.05798,0.69547 0.0094,0.0767 0.02217,0.15189 0.04525,0.22528 -0.102724,-0.35038 -0.386212,-0.61427 -0.719624,-0.75717 -0.139449,-0.0598 -0.296362,-0.0651 -0.444542,-0.0977 -0.39996,-0.006 -0.759458,0.14171 -1.027819,0.43363 -0.0302,0.0451 -0.0042,-0.005 5.29e-4,-0.0172 0.02577,-0.0678 0.05356,-0.13455 0.07861,-0.20275 0.07721,-0.21892 0.137128,-0.44324 0.194865,-0.6679 0.07932,-0.30054 0.148085,-0.60386 0.212395,-0.90794 0.07274,-0.31903 0.134643,-0.64032 0.201985,-0.9605 0.0588,-0.29405 0.125855,-0.58639 0.199062,-0.87717 0.07223,-0.28742 0.173305,-0.5655 0.296759,-0.83455 0.137864,-0.27697 0.314259,-0.54678 0.565714,-0.73466 0.08277,-0.0618 0.17368,-0.11196 0.260522,-0.16794 0.631936,-0.27649 1.103289,-0.23163 1.690121,0.1184 0.28217,0.19004 0.488601,0.45536 0.670367,0.73779 0.131075,0.21584 0.234895,0.44613 0.338101,0.67606 0.09605,0.22342 0.182297,0.45087 0.26702,0.67876 0.07935,0.22193 0.158001,0.44413 0.229679,0.66867 0.06467,0.17475 0.115364,0.35414 0.173858,0.53091 0.04714,0.13212 0.0843,0.26754 0.133281,0.39895 0.0071,0.0537 0.108662,0.24096 0.02726,0.0819 -0.135319,-0.2441 -0.369705,-0.36198 -0.617263,-0.46763 -0.265509,-0.0788 -0.532923,-0.0723 -0.78541,0.0359 -0.121351,0.0781 0.05765,-0.08 0.07642,-0.0995 0.164073,-0.16706 0.310859,-0.34999 0.457782,-0.532 0.208727,-0.26581 0.412099,-0.53582 0.614963,-0.80613 0.232498,-0.30992 0.470461,-0.61562 0.709822,-0.92026 0.239048,-0.31418 0.497498,-0.61173 0.773538,-0.89372 0.289211,-0.30305 0.626618,-0.54174 0.995304,-0.73647 0.403802,-0.18494 0.848001,-0.26073 1.288344,-0.18229 0.0934,0.0166 0.183875,0.0468 0.275812,0.0703 0.505042,0.16395 0.869418,0.52041 1.180497,0.93363 0.241792,0.34552 0.410094,0.73337 0.56647,1.12285 0.149577,0.38035 0.277458,0.7687 0.410832,1.1549 0.132591,0.40616 0.264739,0.81242 0.40304,1.21669 0.1305,0.37868 0.27124,0.75374 0.420402,1.12545 0.130545,0.32645 0.277717,0.64589 0.433665,0.96089 0.128167,0.27144 0.273352,0.53399 0.422124,0.79451 0.130381,0.2244 0.265486,0.44592 0.392306,0.67239 0.972341,1.7427 -1.492216,3.1178 -2.464557,1.37509 v 0 c -0.121616,-0.21922 -0.255254,-0.43138 -0.379251,-0.64924 -0.176303,-0.30942 -0.34812,-0.62143 -0.501137,-0.94318 -0.187666,-0.38083 -0.365627,-0.76653 -0.522988,-1.16099 -0.166746,-0.41687 -0.32507,-0.83709 -0.470969,-1.26175 -0.137287,-0.40163 -0.269473,-0.80491 -0.400291,-1.20869 -0.118695,-0.34378 -0.232267,-0.68955 -0.36385,-1.02868 -0.06967,-0.17548 -0.140086,-0.3516 -0.232725,-0.51649 -0.0016,-0.0108 -0.02524,-0.0311 -0.0145,-0.0293 0.06005,0.0102 0.211844,0.16412 0.29227,0.13977 0.167655,0.0293 0.357515,0.0443 0.508357,-0.0525 0.0098,-0.008 0.02323,-0.0121 0.02955,-0.0229 0.0042,-0.007 -0.01524,0.006 -0.0222,0.0104 -0.08784,0.0536 -0.162062,0.12573 -0.236111,0.19633 -0.204232,0.20498 -0.388967,0.42702 -0.564846,0.65673 -0.226558,0.2883 -0.451885,0.57753 -0.671894,0.87088 -0.223247,0.29732 -0.44687,0.59448 -0.677381,0.88623 -0.205898,0.25432 -0.413522,0.50804 -0.644247,0.74056 -0.224083,0.22479 -0.458033,0.44318 -0.738431,0.59699 -0.433025,0.21409 -0.878176,0.32091 -1.359767,0.19031 -0.09981,-0.0394 -0.203272,-0.0706 -0.299424,-0.11826 -0.292005,-0.1447 -0.520703,-0.38679 -0.69655,-0.65598 -0.106035,-0.18342 -0.196906,-0.37355 -0.264496,-0.57469 -0.05972,-0.16398 -0.110908,-0.33067 -0.166881,-0.49594 -0.05959,-0.18413 -0.114885,-0.36962 -0.180565,-0.55175 -0.05715,-0.1814 -0.122219,-0.36013 -0.185205,-0.53955 -0.06312,-0.16978 -0.127053,-0.33926 -0.196472,-0.50659 -0.04843,-0.10792 -0.100785,-0.22539 -0.15023,-0.32582 -0.0055,-0.0101 -0.02739,-0.0259 -0.01672,-0.0302 0.01339,-0.005 0.146518,0.15559 0.175821,0.14017 0.384691,0.20979 0.805511,0.21994 1.196935,0.0174 0.147225,-0.10146 0.336778,-0.21729 0.405114,-0.39636 0.0013,-0.003 -0.004,0.006 -0.006,0.008 -0.05395,0.10213 -0.08217,0.21531 -0.115065,0.32536 -0.06424,0.25472 -0.122745,0.51087 -0.173958,0.76855 -0.06769,0.32178 -0.129857,0.64471 -0.203007,0.96533 -0.0732,0.34408 -0.150799,0.68742 -0.240524,1.02761 -0.08228,0.31762 -0.169067,0.63437 -0.281104,0.94304 -0.105561,0.28335 -0.219192,0.56555 -0.386795,0.81901 -0.34835,0.50232 -0.769681,0.79053 -1.409414,0.80718 -0.16591,-0.0332 -0.340923,-0.036 -0.497731,-0.0995 -0.483029,-0.19575 -0.79106,-0.58787 -0.946312,-1.06706 -0.06958,-0.23982 -0.119324,-0.48429 -0.145634,-0.73283 -0.02767,-0.26643 -0.05445,-0.53297 -0.06692,-0.80065 -0.02024,-0.30619 -0.04234,-0.61226 -0.06901,-0.91797 -0.03147,-0.35471 -0.0655,-0.7092 -0.09178,-1.06435 -0.02883,-0.32227 -0.06183,-0.64422 -0.107778,-0.96457 -0.03608,-0.26175 -0.06833,-0.52418 -0.122367,-0.78306 -0.03002,-0.16551 -0.06282,-0.33069 -0.104153,-0.49378 -0.0078,-0.0395 -0.025,-0.0778 -0.03218,-0.1168 -0.0047,-0.0257 0.06524,0.19017 0.08611,0.18675 0.388178,0.61657 1.064855,0.78716 1.738638,0.53362 0.130006,-0.0489 0.23295,-0.15137 0.349424,-0.22705 0.108035,-0.12147 0.227188,-0.22974 0.280266,-0.36103 -0.03417,0.0758 -0.06784,0.15233 -0.107265,0.22541 0.03597,-0.0979 -0.06021,0.15642 -0.07521,0.18283 -0.03576,0.10071 -0.07486,0.20009 -0.105103,0.30266 -0.01201,0.0356 -0.103942,0.35581 -0.0588,0.18354 -0.432912,1.94809 -3.187928,1.33586 -2.755019,-0.61223 z"
       inkscape:connector-curvature="0" />
    <path
       style="fill:#000000;fill-opacity:1;fill-rule:nonzero;stroke:none;stroke-width:0.26458332"
       id="path5575"
       d="m 5.9151662,282.92307 c -0.019201,0.0637 -0.032369,0.12899 -0.044877,0.19428 -0.020466,0.11877 -0.03269,0.23869 -0.044363,0.35857 -0.013094,0.12553 -0.0083,0.25192 -0.00228,0.37771 0.00591,0.15732 0.026315,0.31368 0.053305,0.46866 0.02842,0.16935 0.067326,0.33691 0.1137459,0.5022 0.038349,0.12904 0.08549,0.25508 0.142475,0.37705 0.025035,0.039 0.050198,0.0888 0.083267,0.1175 -0.063972,-0.0906 -0.1558049,-0.15078 -0.2541291,-0.19848 -0.1129458,-0.0465 -0.2343025,-0.0598 -0.3551311,-0.0486 -0.027082,0 -0.050867,0.0158 -0.077951,0.0137 1.7308792,-0.99324 3.1355331,1.45459 1.4046541,2.44783 v 0 c -0.224168,0.12306 -0.4532159,0.23744 -0.7055673,0.29152 -0.4037931,0.0816 -0.8109445,0.0952 -1.2059303,-0.0433 -0.3746781,-0.1415 -0.7134233,-0.34519 -0.973836,-0.65564 -0.1927096,-0.23802 -0.3650261,-0.49185 -0.4915546,-0.77198 -0.1122971,-0.25485 -0.2137227,-0.51439 -0.2880349,-0.78317 -0.069997,-0.25839 -0.1324499,-0.51902 -0.1756267,-0.78339 -0.04367,-0.26684 -0.078937,-0.53533 -0.089002,-0.80581 -0.011433,-0.26056 -0.013933,-0.522 0.012912,-0.78183 0.020849,-0.21068 0.0446,-0.42126 0.08432,-0.62937 0.036454,-0.18206 0.077555,-0.36345 0.1362115,-0.53986 0.631068,-1.8932 3.3084632,-1.00074 2.6773949,0.89247 z"
       inkscape:connector-curvature="0" />
    <path
       style="fill:#000000;fill-opacity:1;fill-rule:nonzero;stroke:none;stroke-width:0.26458332"
       id="path5577"
       d="m 5.772909,276.90367 c 0.048883,0.101 0.083575,0.16827 0.1313561,0.26283 0.021212,0.0427 0.043832,0.0844 0.065835,0.1268 0.9154411,1.77326 -1.5923215,3.06789 -2.5077626,1.29463 v 0 c -0.025387,-0.0499 -0.052724,-0.0987 -0.077214,-0.14908 -0.045868,-0.0909 -0.091611,-0.18172 -0.1364861,-0.27304 -0.8924651,-1.78493 1.6318071,-3.04707 2.5242716,-1.26214 z"
       inkscape:connector-curvature="0" />
    <path
       style="fill:#000000;fill-opacity:1;fill-rule:nonzero;stroke:none;stroke-width:0.26458332"
       id="path5579"
       d="m 8.2902776,280.6551 c -8.202e-4,-0.0119 0.00135,-0.3389 -5.027e-4,-0.21088 -0.0095,-0.0731 -0.017288,-0.14682 -0.025061,-0.22027 -0.019457,-0.15001 -0.024768,-0.3007 -0.019322,-0.45181 0.00497,-0.0841 0.014872,-0.16774 0.025061,-0.25131 0.02621,-0.20635 0.2113713,-0.82317 0.4264048,-0.88071 0.5816264,-0.15565 1.1982818,-0.17544 1.7999023,-0.15163 0.118593,0.005 0.179187,0.15569 0.26878,0.23353 0.190434,0.20869 0.298672,0.45292 0.390902,0.71431 0.06126,0.18495 0.110274,0.37353 0.157505,0.56245 0.05981,0.25926 0.109883,0.52062 0.15256,0.78321 0.04922,0.31405 0.08067,0.63044 0.108454,0.94698 0.0244,0.30349 0.0562,0.60631 0.08259,0.90964 0.02559,0.29581 0.04527,0.59209 0.06338,0.88845 0.01079,0.21573 0.03528,0.43051 0.05663,0.64538 0.01106,0.0825 0.02321,0.16425 0.04702,0.24399 -0.05011,-0.22573 -0.224062,-0.38757 -0.385365,-0.53929 -0.12031,-0.0663 -0.231911,-0.15172 -0.360931,-0.19886 -0.569772,-0.20818 -1.1213044,-0.0122 -1.4960595,0.42944 -0.080896,0.0955 -0.097326,0.21733 -0.04531,0.0218 0.048732,-0.17587 0.080722,-0.35542 0.1149556,-0.53448 0.052027,-0.28623 0.097852,-0.57354 0.1456328,-0.8605 0.052471,-0.33739 0.1088771,-0.6741 0.1673786,-1.0105 0.061694,-0.36487 0.1448665,-0.72501 0.2381645,-1.08291 0.08996,-0.34332 0.208041,-0.6779 0.34836,-1.00361 0.14266,-0.32747 0.335762,-0.62385 0.566287,-0.89534 0.306922,-0.34206 0.670032,-0.53487 1.10519,-0.66346 0.429493,-0.10213 0.847453,-0.0317 1.257242,0.10712 0.337469,0.12998 0.621653,0.35046 0.887848,0.58949 0.236482,0.21985 0.436576,0.47392 0.632991,0.72904 0.215482,0.28759 0.405753,0.59251 0.585552,0.90327 0.174838,0.30946 0.344988,0.62161 0.507062,0.93795 0.158296,0.31144 0.311145,0.62553 0.463944,0.93969 0.128817,0.27356 0.264079,0.54403 0.401449,0.81338 0.08972,0.17136 0.186681,0.33961 0.295308,0.49977 0.01133,0.0188 0.137616,0.16931 0.04084,0.0491 1.429089,1.3929 -0.54077,3.41394 -1.969859,2.02103 v 0 c -0.153452,-0.15934 -0.302264,-0.32188 -0.422157,-0.50904 -0.165607,-0.25177 -0.321435,-0.51023 -0.458385,-0.77885 -0.145366,-0.28516 -0.288656,-0.57144 -0.425152,-0.86097 -0.144795,-0.29771 -0.289393,-0.59545 -0.439456,-0.89056 -0.139246,-0.27395 -0.288079,-0.54294 -0.438132,-0.81108 -0.117243,-0.204 -0.240638,-0.40441 -0.379353,-0.5947 -0.09528,-0.12452 -0.190216,-0.25013 -0.298026,-0.36422 -0.08494,-0.0835 -0.09613,-0.0718 0.0202,-0.0324 0.137978,0.035 0.277372,0.0325 0.415229,-0.008 0.126872,-0.0453 0.253434,-0.0969 0.334659,-0.20997 0.02892,-0.0748 -0.09708,0.15231 -0.09827,0.16153 -0.08581,0.18762 -0.146892,0.38532 -0.202599,0.58367 -0.07374,0.28224 -0.140566,0.56587 -0.188451,0.85386 -0.05737,0.32987 -0.112564,0.66006 -0.164041,0.99091 -0.05155,0.309 -0.100782,0.61842 -0.157448,0.92653 -0.05176,0.27071 -0.104394,0.54137 -0.181071,0.8064 -0.08556,0.28137 -0.184775,0.56131 -0.355215,0.80423 -0.04966,0.0624 -0.09261,0.13072 -0.148988,0.18708 -0.4277,0.42751 -1.003429,0.62333 -1.598683,0.4172 -0.1452505,-0.0503 -0.271837,-0.14358 -0.4077553,-0.21537 -0.072516,-0.0656 -0.1501894,-0.12599 -0.2175478,-0.19691 -0.2045015,-0.21532 -0.3278756,-0.49092 -0.4134591,-0.77101 -0.061565,-0.23158 -0.1072041,-0.46669 -0.1320056,-0.70523 -0.024884,-0.2505 -0.05246,-0.50093 -0.065207,-0.75242 -0.016595,-0.27219 -0.034575,-0.54432 -0.058023,-0.81602 -0.026294,-0.30287 -0.058214,-0.60522 -0.082473,-0.90825 -0.021622,-0.24856 -0.045493,-0.49707 -0.083238,-0.74379 -0.029429,-0.18499 -0.065416,-0.36874 -0.105251,-0.55176 -0.02544,-0.10349 -0.054505,-0.21524 -0.082667,-0.31156 -0.00933,-0.0274 -0.045437,-0.10584 -0.029415,-0.0817 0.082931,0.12482 0.079321,0.25997 0.2326031,0.35442 0.077374,0.0647 0.1312897,0.19348 0.2321208,0.19396 1.2052149,0.006 1.6064959,0.23833 2.0290659,-0.57959 0.06473,-0.1253 0.09857,-0.25654 0.115216,-0.392 -0.0013,0.0109 -0.0091,0.084 -0.0083,0.0606 0.0012,-0.22578 -0.01151,-0.10501 0.0077,0.004 0.01204,0.11413 0.02672,0.228 0.0353,0.34247 0.0055,0.12847 0.0075,0.25677 0.0059,0.38536 0,1.99561 -2.8222226,1.99561 -2.8222226,0 z"
       inkscape:connector-curvature="0" />
    <path
       style="fill:#000000;fill-opacity:1;fill-rule:nonzero;stroke:none;stroke-width:0.26458332"
       id="path5581"
       d="m 22.176836,280.43718 c -0.03368,0.17783 -0.0054,0.0151 -0.0095,0.0204 -0.0057,0.007 -0.0046,0.007 -0.0058,0.0445 -9e-4,-0.007 0.0019,-0.0156 -0.0027,-0.021 -0.02955,-0.0349 0.04602,0.10841 0.0034,0.0464 -0.02015,-0.0293 -0.01284,-0.052 -0.0068,-0.0151 -0.0078,8e-4 -0.008,0.004 -0.02989,-0.0227 -0.03105,-0.018 -0.06137,-0.0471 -0.08834,-0.0651 -0.04511,-0.0233 -0.07518,-0.0264 -0.09617,-0.0314 -0.03466,-0.004 -0.09044,-0.0306 -0.122611,-0.009 -0.04324,0.0107 -0.08361,0.0285 -0.124351,0.0462 -0.05054,0.0211 -0.04551,0.0354 -0.07721,0.0654 -0.0265,0.0256 -0.03901,0.0588 -0.05305,0.094 -0.03523,0.0557 -0.04187,0.11484 -0.05264,0.17689 -0.0014,0.0331 -0.0098,0.0788 0.0058,0.0958 0.02555,0.11339 -0.0014,-0.0292 -0.01101,-0.0532 -0.04651,-0.10031 -0.13148,-0.1612 -0.221751,-0.21918 -0.06441,-0.0412 -0.139011,-0.0573 -0.211855,-0.0752 0.05445,-0.0209 0.110514,-0.0413 0.163957,-0.0685 0.132921,-0.0668 0.256636,-0.15076 0.374849,-0.24078 0.151388,-0.11434 0.288497,-0.24625 0.417988,-0.38453 0.12869,-0.13622 0.246954,-0.28216 0.35567,-0.43471 0.07797,-0.11243 0.14302,-0.23264 0.204842,-0.35444 0.05109,-0.11092 0.10413,-0.22115 0.150607,-0.33412 0.02275,-0.0586 0.04875,-0.11578 0.07329,-0.17359 0.0067,-0.0159 -0.02544,0.064 -0.02061,0.0474 0.0037,-0.0128 0.0083,-0.0253 0.01248,-0.0379 0.06033,-0.19362 0.372187,-0.81903 0.569266,-0.79228 0.747507,0.10146 1.432235,0.47428 2.148352,0.71142 0.07628,0.19742 0.08867,0.40731 0.112281,0.61455 0.01731,0.18608 0.03649,0.3719 0.05573,0.55779 0.02966,0.2554 0.06342,0.51027 0.09423,0.76552 0.04178,0.31363 0.08582,0.62699 0.131785,0.94003 0.05583,0.37019 0.0988,0.74214 0.14539,1.11356 0.0554,0.40095 0.08207,0.80478 0.104855,1.20863 0.0213,0.41416 0.01333,0.82875 -0.01532,1.24223 -0.02471,0.40104 -0.09348,0.79658 -0.183877,1.18745 -0.09975,0.40174 -0.25987,0.78302 -0.446471,1.15116 -0.189713,0.36226 -0.440487,0.68337 -0.717034,0.9824 -0.290229,0.31008 -0.638229,0.54824 -1.011271,0.74632 -0.37431,0.1954 -0.782991,0.29289 -1.198129,0.3502 -0.398842,0.0477 -0.796852,0.005 -1.188737,-0.0707 -0.379152,-0.0742 -0.730398,-0.23074 -1.064824,-0.41933 -0.291976,-0.16434 -0.52976,-0.39043 -0.752567,-0.63664 -1.276656,-1.53382 0.8925,-3.33929 2.169156,-1.80546 v 0 c -0.132529,-0.12145 -0.0344,-0.0248 -0.003,-5.3e-4 0.06565,0.0437 0.134223,0.08 0.212115,0.0961 0.09135,0.0213 0.184205,0.0386 0.278454,0.0361 0.08461,-0.004 0.170418,-0.0204 0.247917,-0.0549 0.09061,-0.0429 0.175886,-0.0931 0.246976,-0.16605 0.100953,-0.10637 0.196804,-0.216 0.269337,-0.34468 0.08561,-0.16334 0.159861,-0.332 0.21071,-0.50977 0.05923,-0.2448 0.10111,-0.49322 0.116325,-0.74497 0.0226,-0.29296 0.02532,-0.58693 0.01243,-0.8805 -0.019,-0.33941 -0.03988,-0.67892 -0.08737,-1.0158 -0.04417,-0.35216 -0.08471,-0.70484 -0.137545,-1.05585 -0.04922,-0.3369 -0.09709,-0.67402 -0.141334,-1.01161 -0.03253,-0.27099 -0.06886,-0.54152 -0.09951,-0.81274 -0.01818,-0.17622 -0.03676,-0.35237 -0.05258,-0.52882 -0.0026,-0.0231 -0.0054,-0.0461 -0.0079,-0.0692 -0.03043,-0.28636 0.01113,0.0541 0.04688,0.0986 0.707276,0.21279 1.38781,0.5563 2.121828,0.63836 0.185846,0.0208 0.436366,-0.48021 0.501931,-0.66163 0.0028,-0.008 -0.0052,0.0157 -0.0078,0.0236 -0.0422,0.12797 -0.09137,0.25298 -0.144729,0.37666 -0.07491,0.17636 -0.154119,0.35095 -0.238466,0.52301 -0.128609,0.25078 -0.268034,0.49617 -0.432216,0.72571 -0.184509,0.25285 -0.379976,0.498 -0.596511,0.72444 -0.243961,0.25453 -0.500099,0.49819 -0.78414,0.70815 -0.29358,0.21469 -0.599095,0.41489 -0.932869,0.56234 -0.347016,0.14537 -0.705246,0.26623 -1.083535,0.29342 -0.42764,0.0225 -0.850532,-0.0183 -1.240751,-0.21013 -0.376047,-0.20461 -0.705213,-0.46343 -0.932085,-0.83391 -0.185292,-0.31629 -0.330527,-0.65255 -0.37706,-1.01979 -0.04487,-0.35354 -0.04987,-0.7085 0.02132,-1.05965 0.07105,-0.33769 0.173723,-0.66682 0.342131,-0.96998 0.180543,-0.32035 0.391004,-0.62262 0.671497,-0.86483 0.279998,-0.24057 0.584772,-0.44928 0.932982,-0.57941 0.338327,-0.1249 0.687378,-0.21793 1.050172,-0.22916 0.35009,-0.004 0.698668,0.0279 1.034234,0.1347 0.325449,0.10455 0.638944,0.24138 0.917686,0.44238 0.243884,0.18277 0.476376,0.38206 0.664525,0.62381 0.178082,0.23391 0.33671,0.48226 0.440098,0.75914 0.09127,0.25588 0.163441,0.51895 0.178987,0.79172 0.0115,0.24627 0.0065,0.49295 -0.04568,0.73507 -0.432909,1.9481 -3.187926,1.33587 -2.755017,-0.61222 z"
       inkscape:connector-curvature="0" />
    <path
       style="fill:#000000;fill-opacity:1;fill-rule:nonzero;stroke:none;stroke-width:0.26458332"
       id="path5583"
       d="m 28.448095,285.09917 c 0.132741,-0.0147 0.265829,-0.0257 0.399026,-0.0353 0.157319,-0.0109 0.314867,-0.0178 0.472432,-0.024 0.185034,-0.007 0.370157,-0.0106 0.555278,-0.0139 0.207217,5.3e-4 0.413952,-0.009 0.620811,-0.0195 0.258754,-0.0122 0.51681,-0.0358 0.774623,-0.0605 0.320212,-0.0365 0.640482,-0.0724 0.959919,-0.11518 0.379278,-0.0498 0.757624,-0.1066 1.135555,-0.16571 0.424598,-0.0648 0.847796,-0.1382 1.272206,-0.20413 0.453864,-0.0691 0.908296,-0.13374 1.364004,-0.18941 0.43289,-0.0577 0.866521,-0.10923 1.300874,-0.15457 0.405313,-0.0456 0.812004,-0.0728 1.21934,-0.0912 0.334492,-0.0176 0.669163,-0.0224 1.004031,-0.0194 0.277873,0.007 0.555315,0.0246 0.831363,0.0571 0.05113,0.008 0.102256,0.0162 0.153384,0.0243 1.967675,0.33275 1.497084,3.11547 -0.470591,2.78271 v 0 c -0.0065,-0.002 -0.01291,-0.003 -0.01937,-0.005 -0.172784,-0.0215 -0.346673,-0.0297 -0.520586,-0.0371 -0.284107,-0.003 -0.567963,0.001 -0.85175,0.0167 -0.351898,0.0157 -0.703177,0.0388 -1.053285,0.0788 -0.418028,0.0435 -0.835279,0.0936 -1.251902,0.14903 -0.425305,0.0517 -0.849315,0.11255 -1.2729,0.17679 -0.423442,0.0656 -0.845566,0.13934 -1.269211,0.20367 -0.398741,0.0622 -0.797875,0.12222 -1.198021,0.17475 -0.354147,0.047 -0.709059,0.0878 -1.064138,0.12712 -0.298828,0.0286 -0.59799,0.0552 -0.89789,0.0696 -0.238538,0.0123 -0.477067,0.0225 -0.715978,0.0228 -0.16551,0.003 -0.33102,0.006 -0.496451,0.0123 -0.127257,0.005 -0.254508,0.0104 -0.381577,0.0189 -0.09598,0.007 -0.191878,0.0146 -0.287528,0.0251 -1.983406,0.22038 -2.29507,-2.58458 -0.311663,-2.80496 z"
       inkscape:connector-curvature="0" />
  </g>
</svg>
