<?xml version="1.0" encoding="UTF-8" standalone="no"?>
<svg
   xmlns:dc="http://purl.org/dc/elements/1.1/"
   xmlns:cc="http://creativecommons.org/ns#"
   xmlns:rdf="http://www.w3.org/1999/02/22-rdf-syntax-ns#"
   xmlns:svg="http://www.w3.org/2000/svg"
   xmlns="http://www.w3.org/2000/svg"
   xmlns:sodipodi="http://sodipodi.sourceforge.net/DTD/sodipodi-0.dtd"
   xmlns:inkscape="http://www.inkscape.org/namespaces/inkscape"
   inkscape:version="1.0.1 (1.0.1+r73)"
   sodipodi:docname="question.svg"
   id="svg8"
   version="1.1"
   viewBox="0 0 64 64"
   height="64mm"
   width="64mm">
  <defs
     id="defs2" />
  <sodipodi:namedview
     inkscape:document-rotation="0"
     inkscape:window-maximized="1"
     inkscape:window-y="27"
     inkscape:window-x="1920"
     inkscape:window-height="1016"
     inkscape:window-width="1920"
     inkscape:snap-page="true"
     showgrid="false"
     inkscape:current-layer="layer1"
     inkscape:document-units="mm"
     inkscape:cy="116.46426"
     inkscape:cx="111.92127"
     inkscape:zoom="3"
     inkscape:pageshadow="2"
     inkscape:pageopacity="0.0"
     borderopacity="1.0"
     bordercolor="#666666"
     pagecolor="#ffffff"
     id="base" />
  <metadata
     id="metadata5">
    <rdf:RDF>
      <cc:Work
         rdf:about="">
        <dc:format>image/svg+xml</dc:format>
        <dc:type
           rdf:resource="http://purl.org/dc/dcmitype/StillImage" />
        <dc:title></dc:title>
      </cc:Work>
    </rdf:RDF>
  </metadata>
  <g
     transform="translate(0,-233)"
     id="layer1"
     inkscape:groupmode="layer"
     inkscape:label="Layer 1">
    <rect
       y="233"
       x="0"
       height="64"
       width="64"
       id="rect3713"
       style="fill:#9c27b0;stroke-width:0.26458332;fill-opacity:1" />
    <path
       style="fill:#ffffff;fill-opacity:1;fill-rule:nonzero;stroke:none;stroke-width:0.264583"
       id="path5386"
       d="m 16.013002,236.81187 c -0.772383,-0.72707 -1.796883,-1.12706 -2.842552,-1.25973 -0.368582,-0.0468 -0.741786,-0.0437 -1.112678,-0.0655 -0.427103,0.0353 -0.857714,0.0408 -1.281313,0.10586 -1.9771351,0.30347 -3.99146,1.12358 -5.4865233,2.47734 -0.3929478,0.35581 -0.7147343,0.78306 -1.0721013,1.1746 -0.2630305,0.47035 -0.5916995,0.90961 -0.789091,1.41105 -0.6543078,1.66221 -0.5627266,3.33108 0.2075946,4.93532 0.6180711,1.28718 1.1016918,1.59967 2.0886532,2.57396 0.4363485,0.28173 0.8443053,0.61327 1.3090449,0.8452 1.3913037,0.69433 2.8343424,0.85655 4.3256359,0.38712 1.162191,-0.36583 1.511352,-0.75457 2.461297,-1.46951 0.319194,-0.35262 0.667706,-0.68076 0.957583,-1.05785 0.82718,-1.07604 1.377166,-2.35803 1.561419,-3.7046 0.159891,-1.16851 0.04393,-1.4754 -0.103171,-2.63026 -0.486819,-1.61212 -0.185163,-0.84221 -0.894013,-2.31398 -0.890907,-1.78571 -3.41628,-0.52578 -2.525373,1.25994 v 0 c 0.486538,0.92427 0.275792,0.43989 0.625918,1.45588 0.120948,0.71066 0.204633,0.91881 0.135427,1.64478 -0.118292,1.24093 -0.675405,2.21946 -1.50115,3.12671 -0.218434,0.18413 -0.421283,0.38853 -0.655303,0.55241 -0.347207,0.24313 -0.905361,0.52836 -1.339859,0.59087 -0.5201846,0.0748 -1.0870138,-0.0341 -1.5629681,-0.24117 -0.3004152,-0.13068 -0.5672555,-0.3279 -0.850883,-0.49184 -0.2596741,-0.23213 -0.5438847,-0.43943 -0.7790229,-0.69639 -0.3987069,-0.43569 -0.8280157,-1.08469 -0.9924112,-1.6659 -0.1577381,-0.55768 -0.1451939,-1.23121 0.027725,-1.78378 0.094971,-0.30349 0.2732298,-0.57434 0.4098446,-0.8615 0.2217912,-0.26533 0.4161834,-0.55622 0.6653735,-0.79601 1.0893656,-1.04825 2.5685204,-1.65001 4.0381221,-1.91233 0.294504,-0.0525 0.594841,-0.0644 0.892261,-0.0965 0.233182,0.005 0.467159,-0.004 0.699543,0.0162 0.475122,0.041 0.988381,0.16474 1.368767,0.46657 1.39784,1.42425 3.412046,-0.55259 2.014206,-1.97684 z" />
    <path
       style="fill:#ffffff;fill-opacity:1;fill-rule:nonzero;stroke:none;stroke-width:0.264583"
       id="path5392"
       d="m 8.3960272,245.46313 c -0.02094,-0.021 -0.041293,-0.0837 -0.06282,-0.0631 -0.028818,0.0274 0.00242,0.0795 0.00386,0.11919 0.00427,0.11757 0.011994,0.23507 0.013242,0.35271 0.0061,0.57852 -0.013284,1.0113 -0.018264,1.6085 -0.00328,0.3928 -0.00138,0.78564 -0.00206,1.17845 0.011081,1.25341 0.07445,2.50532 0.1346976,3.75702 0.096042,1.9933 2.9149949,1.85748 2.8189519,-0.13583 v 0 c -0.05811,-1.20493 -0.119564,-2.41006 -0.131433,-3.61661 6.13e-4,-0.37906 0.0011,-0.75812 0.0017,-1.13717 0.0054,-0.33434 0.01429,-0.66864 0.01605,-1.00301 0.0039,-0.74319 0.023,-1.51553 -0.238697,-2.2256 -0.0607,-0.1647 -0.157199,-0.31389 -0.235798,-0.47084 -1.1570783,-1.62593 -3.4564871,0.0104 -2.2994094,1.63635 z" />
    <path
       style="fill:#ffffff;fill-opacity:1;fill-rule:nonzero;stroke:none;stroke-width:0.264583"
       id="path5396"
       d="m 15.077128,248.4859 c -0.485242,0.75281 -0.921749,1.56904 -1.150427,2.44085 -0.07871,0.30006 -0.117925,0.60913 -0.176887,0.91369 -0.0047,0.33088 -0.04895,0.66358 -0.01399,0.99264 0.112521,1.05916 0.573314,2.10772 1.394565,2.81089 0.27186,0.23277 0.574662,0.44338 0.908666,0.57197 0.373675,0.14385 0.78579,0.15439 1.178685,0.23159 0.382586,-0.0636 0.776657,-0.078 1.14776,-0.19065 0.875269,-0.26574 1.588923,-0.86101 2.342103,-1.34761 0.126536,-0.0818 0.258017,-0.15559 0.387025,-0.23339 1.705225,-1.03666 0.239154,-3.44821 -1.466069,-2.41155 v 0 c -0.167033,0.10214 -0.336554,0.2004 -0.501094,0.30654 -0.544258,0.3511 -1.058614,0.74802 -1.622273,1.06911 -0.03761,0.0331 -0.06334,0.0915 -0.112843,0.0994 -0.168806,0.0268 -0.37845,-0.1311 -0.474016,-0.23513 -0.32371,-0.35239 -0.386714,-0.71254 -0.389114,-1.17403 0.02444,-0.16878 0.03453,-0.34026 0.07333,-0.50634 0.140421,-0.60109 0.444159,-1.15861 0.76035,-1.68259 1.170513,-1.61627 -1.115256,-3.27163 -2.285769,-1.65535 z" />
    <path
       style="fill:#ffffff;fill-opacity:1;fill-rule:nonzero;stroke:none;stroke-width:0.264583"
       id="path5398"
       d="m 21.367245,257.75708 c 0.01393,0.15276 0.01152,0.30792 0.04178,0.45831 0.204567,1.01566 0.910902,1.84695 1.545942,2.62616 0.409743,0.46519 0.817348,0.93081 1.206818,1.41304 1.256815,1.55013 3.449022,-0.22727 2.192206,-1.7774 v 0 c -0.39412,-0.48453 -0.799177,-0.95861 -1.215801,-1.42406 -0.284679,-0.34529 -0.365376,-0.43041 -0.616128,-0.77971 -0.06525,-0.0909 -0.127528,-0.18395 -0.187672,-0.27831 -0.03618,-0.0568 -0.06344,-0.11902 -0.101145,-0.17478 -0.0077,-0.0113 -0.02541,-0.0352 -0.03329,-0.024 -0.01754,0.0249 -0.009,0.0603 -0.01346,0.0904 0.09169,-1.99351 -2.727552,-2.12318 -2.819242,-0.12967 z" />
    <path
       style="fill:#ffffff;fill-opacity:1;fill-rule:nonzero;stroke:none;stroke-width:0.264583"
       id="path5400"
       d="m 25.561831,263.00266 c 0.765596,0.27278 1.661274,0.29045 2.362952,-0.18456 0.212662,-0.14397 0.378714,-0.34697 0.56807,-0.52044 0.129752,-0.2484 0.302366,-0.47875 0.389256,-0.74519 0.350105,-1.07354 -0.04738,-2.26377 -0.633497,-3.17071 -0.150671,-0.23313 -0.33569,-0.44218 -0.503535,-0.66326 -0.206262,-0.1969 -0.394794,-0.41422 -0.618781,-0.59069 -0.758099,-0.59727 -1.662533,-0.93242 -2.632027,-0.9409 -0.878175,-0.008 -1.14356,0.14448 -1.967449,0.40004 -0.305943,0.1746 -0.632842,0.31677 -0.917829,0.52381 -0.888119,0.64524 -1.479857,1.58943 -1.680918,2.66955 -0.184839,0.99298 -0.04173,1.28099 0.129182,2.26913 0.483835,1.1942 0.400497,1.16306 1.120987,2.24102 0.219693,0.32869 0.471514,0.63474 0.70727,0.95211 1.197621,1.5963 3.455129,-0.0974 2.257509,-1.6937 v 0 c -0.496341,-0.65332 -1.015088,-1.29866 -1.321776,-2.06978 -0.04799,-0.16988 -0.112922,-0.33585 -0.143949,-0.50962 -0.05731,-0.32098 -0.02871,-0.85752 0.14803,-1.14841 0.167319,-0.27532 0.355389,-0.37492 0.607668,-0.56132 0.143879,-0.058 0.283691,-0.12738 0.431636,-0.17407 0.458195,-0.14463 0.947394,-0.14958 1.357626,0.1253 0.110688,0.0742 0.20482,0.17047 0.307229,0.2557 0.241521,0.28357 0.292804,0.31449 0.470662,0.63195 0.04844,0.0865 0.08352,0.17976 0.12629,0.26915 0.02224,0.0465 0.03262,0.10167 0.06872,0.1384 0.04948,0.0503 0.205423,-0.10937 0.192561,-0.0882 0.05133,-0.0203 0.262526,-0.13593 0.325296,-0.0479 0.02075,0.0291 -0.05448,0.0151 -0.03809,0.0392 -1.833844,-0.78708 -2.946939,1.80637 -1.113097,2.59344 z" />
    <path
       style="fill:#ffffff;fill-opacity:1;fill-rule:nonzero;stroke:none;stroke-width:0.264583"
       id="path5402"
       d="m 34.249893,264.62406 c -0.549364,-0.46226 -1.172827,-0.86354 -1.861448,-1.08393 -0.184209,-0.0589 -0.375857,-0.0914 -0.563785,-0.13719 -0.220847,-0.005 -0.445489,-0.0559 -0.662535,-0.0148 -0.759678,0.14374 -1.153226,0.40696 -1.523577,1.1331 -0.314899,0.61741 -0.128314,1.44878 -0.01123,2.0887 0.07982,0.43234 0.201304,0.86254 0.214624,1.3049 0.001,0.0342 0.02737,0.27444 -0.06696,0.3287 -0.01478,0.008 -0.0318,-0.0124 -0.0477,-0.0186 -0.04902,-0.0739 -0.02145,-0.0639 -0.134103,-0.057 -0.227571,0.0143 -0.244105,0.0479 -0.501822,0.0276 -0.283817,-0.0225 -0.448591,-0.0901 -0.725369,-0.17342 -0.64714,-0.25277 -1.188515,-0.68113 -1.687784,-1.15326 -1.459171,-1.36136 -3.38442,0.70222 -1.92525,2.06358 v 0 c 0.867168,0.80191 1.777283,1.45399 2.916396,1.82457 0.717522,0.16712 0.945558,0.26846 1.692783,0.24773 0.807486,-0.0219 1.659217,-0.27101 2.28582,-0.79931 0.210776,-0.17771 0.366977,-0.41153 0.550464,-0.61728 0.107037,-0.22904 0.242215,-0.44691 0.321107,-0.6871 0.302596,-0.9212 0.06336,-1.90183 -0.119473,-2.81741 -0.0241,-0.12024 -0.04523,-0.24112 -0.07231,-0.36072 -0.01105,-0.049 0.0057,-0.16015 -0.04218,-0.1449 -0.07265,0.0231 -0.06375,0.14236 -0.118056,0.19586 -0.175113,0.17254 -0.611853,0.61815 -0.931791,0.38902 0.421531,0.0423 0.787887,0.29187 1.114209,0.54791 1.475644,1.34349 3.375615,-0.74339 1.899971,-2.08687 z" />
    <path
       style="fill:#ffffff;fill-opacity:1;fill-rule:nonzero;stroke:none;stroke-width:0.264583"
       id="path5404"
       d="m 42.027269,265.37101 c -1.582388,0.80285 -3.185565,1.56397 -4.777944,2.34672 -1.224188,0.62896 -2.482377,1.25889 -3.522734,2.17893 -0.584859,0.51722 -1.149459,1.15627 -1.436204,1.8992 -0.144492,0.37436 -0.169225,0.7845 -0.25384,1.17675 0.05309,0.39409 0.0447,0.80147 0.159271,1.18224 0.385081,1.27973 1.431028,2.20386 2.396833,3.0495 1.505652,1.30976 3.357935,-0.81956 1.852283,-2.12932 v 0 c -0.590552,-0.50945 -1.198385,-1.03098 -1.615122,-1.69916 -0.01566,-0.0854 -0.06283,-0.1708 -0.04698,-0.25615 0.07269,-0.39127 0.381709,-0.72832 0.65651,-0.97998 0.888919,-0.81406 1.998588,-1.33889 3.055039,-1.88927 1.618721,-0.79578 3.248922,-1.56862 4.85647,-2.38686 1.762535,-0.93592 0.438946,-3.42852 -1.323587,-2.4926 z" />
    <path
       style="fill:#ffffff;fill-opacity:1;fill-rule:nonzero;stroke:none;stroke-width:0.264583"
       id="path5406"
       d="m 35.4056,267.97998 c 1.185223,1.13627 2.413074,2.2265 3.609939,3.35035 0.249289,0.2426 0.498581,0.4852 0.747872,0.7278 1.430465,1.39149 3.398327,-0.63149 1.967862,-2.02298 v 0 c -0.261386,-0.25416 -0.522768,-0.50831 -0.78415,-0.76247 -1.188978,-1.11584 -2.407571,-2.1995 -3.585493,-3.32713 -1.438555,-1.38312 -3.394585,0.6513 -1.95603,2.03443 z" />
    <path
       style="fill:#ffffff;fill-opacity:1;fill-rule:nonzero;stroke:none;stroke-width:0.264583"
       id="path5408"
       d="m 42.616261,276.0689 c -0.734225,0.21354 -1.462257,0.49328 -2.129075,0.87121 -0.266766,0.15119 -0.534486,0.30493 -0.776456,0.49328 -0.266293,0.20727 -0.494685,0.4591 -0.742027,0.68865 -0.192089,0.31676 -0.446366,0.60336 -0.576264,0.95029 -0.300942,0.80374 -0.275922,1.49171 -0.02501,2.29725 0.100339,0.32212 0.29293,0.60787 0.439393,0.91181 0.9439,1.75826 3.430474,0.42339 2.486572,-1.33488 v 0 c -0.0081,-0.0109 -0.400419,-0.52958 -0.403346,-0.56008 -0.0081,-0.0849 0.0368,-0.16659 0.05521,-0.24989 0.10084,-0.11207 0.18696,-0.23939 0.30252,-0.33622 0.565703,-0.47397 1.292597,-0.72296 1.973813,-0.97488 1.949169,-0.42802 1.343843,-3.18457 -0.605325,-2.75654 z" />
    <path
       style="fill:#ffffff;fill-opacity:1;fill-rule:nonzero;stroke:none;stroke-width:0.264583"
       id="path5410"
       d="m 46.557092,274.51423 c -0.24827,0.0824 -0.502135,0.15561 -0.741577,0.26239 -0.07654,0.0341 -0.169104,0.0488 -0.225823,0.11048 -0.258871,0.28156 -0.471214,0.60259 -0.70682,0.90389 0.370806,0.58636 0.741611,1.17273 1.112415,1.75908 1.949016,0.42873 2.555325,-2.32759 0.606309,-2.75632 v 0 c 0.335075,0.57851 0.67015,1.157 1.005226,1.7355 -0.956252,1.17395 -0.972904,0.89928 -0.217262,0.68163 1.906821,-0.58864 1.074353,-3.2853 -0.832468,-2.69665 z" />
    <path
       style="fill:#ffffff;fill-opacity:1;fill-rule:nonzero;stroke:none;stroke-width:0.264583"
       id="path5412"
       d="m 51.294096,281.53434 c -0.12704,-0.21814 -0.220826,-0.4594 -0.381116,-0.65442 -0.673182,-0.81901 -1.975661,-0.92599 -2.942587,-0.7874 -0.326383,0.0468 -0.643436,0.14438 -0.965153,0.21658 -0.348797,0.14485 -0.71149,0.25996 -1.046391,0.43456 -1.399918,0.72982 -2.594119,1.96781 -3.004812,3.52501 -0.09439,0.35791 -0.09434,0.73426 -0.141512,1.10139 0.0824,0.38638 0.09169,0.79597 0.24721,1.15914 0.534993,1.24929 1.722009,1.8297 3.029672,1.84843 1.099501,0.0157 1.439611,-0.24461 2.427843,-0.65469 0.341811,-0.26421 0.717579,-0.48953 1.025436,-0.79262 0.822993,-0.81027 1.39432,-1.95358 1.409564,-3.12255 0.0047,-0.36254 -0.09937,-0.7183 -0.149048,-1.07746 -0.395691,-1.95599 -3.161882,-1.39641 -2.76619,0.55959 v 0 c 0.0368,0.0684 0.09334,0.12933 0.110404,0.20507 0.102145,0.45328 -0.144145,0.92873 -0.415763,1.27084 -0.11438,0.14406 -0.259553,0.26074 -0.389329,0.39111 -0.163693,0.0918 -0.318352,0.20201 -0.491075,0.27545 -0.824472,0.35056 -0.153042,-0.008 -0.819001,0.17973 -0.05195,0.0146 -0.08315,0.0727 -0.133856,0.0912 -0.142434,0.052 -0.166844,-0.0149 -0.273475,-0.0978 -0.006,-0.12458 -0.03481,-0.25016 -0.01807,-0.37376 0.114249,-0.84195 0.786363,-1.49256 1.483646,-1.90264 0.184588,-0.10856 0.386382,-0.18477 0.579571,-0.27716 0.178044,-0.049 0.353792,-0.10722 0.534142,-0.14685 0.12804,-0.0281 0.259135,-0.0402 0.389265,-0.056 0.06566,-0.008 0.136552,0.01 0.197797,-0.0155 0.130599,-0.0532 -0.532551,-0.52452 -0.215442,-0.5401 0.536699,1.92209 3.25494,1.16308 2.718244,-0.759 z" />
    <path
       style="fill:#ffffff;fill-opacity:1;fill-rule:nonzero;stroke:none;stroke-width:0.264583"
       id="path5414"
       d="m 54.664117,285.02739 c -0.1036,0.0698 -0.209538,0.13636 -0.3108,0.20956 -0.720919,0.52119 -1.396623,1.10546 -2.075254,1.67927 -0.533721,0.45129 -1.420006,1.20973 -1.952268,1.6645 -0.705232,0.57826 -1.365391,1.20507 -2.003287,1.85546 -1.394098,1.42792 0.625289,3.39947 2.019388,1.97155 v 0 c 0.575402,-0.59274 1.178307,-1.15646 1.817214,-1.68134 1.304692,-1.11476 2.588695,-2.26273 3.96763,-3.28536 1.706703,-1.03423 0.244081,-3.44787 -1.462623,-2.41364 z" />
    <path
       style="fill:#ffffff;fill-opacity:1;fill-rule:nonzero;stroke:none;stroke-width:0.264583"
       id="path5416"
       d="m 54.70561,289.35009 c 0.4115,0.23092 0.836844,0.44204 1.226638,0.70973 0.122148,0.0839 0.247083,0.16617 0.354479,0.26827 0.06398,0.0608 0.102814,0.14354 0.154213,0.21533 -0.0229,0.0218 -0.04584,0.0437 -0.06875,0.0655 -0.04817,-0.0133 -0.103512,-0.0684 -0.144522,-0.0398 -0.09326,0.0649 -0.133215,0.18417 -0.197451,0.27791 -0.138321,0.20186 -0.266359,0.41085 -0.410176,0.60883 -0.502569,0.69182 -0.681878,0.87308 -1.247731,1.53317 -0.224911,0.24659 -0.449821,0.49318 -0.674731,0.73977 -1.343738,1.47541 0.742814,3.37573 2.086549,1.90033 v 0 c 0.244943,-0.26932 0.48989,-0.53863 0.734837,-0.80793 0.56447,-0.66388 0.987932,-1.12643 1.480627,-1.84789 0.709021,-1.03822 1.301506,-2.08717 0.997879,-3.40014 -0.07665,-0.33148 -0.303374,-0.60907 -0.455063,-0.91359 -0.192203,-0.19998 -0.369339,-0.41561 -0.576608,-0.59993 -0.168205,-0.14957 -0.35918,-0.27173 -0.545556,-0.39794 -0.432357,-0.29278 -0.89896,-0.53076 -1.354345,-0.78441 -1.748505,-0.96186 -3.108794,1.5109 -1.360285,2.47277 z" />
    <path
       style="fill:#ffffff;fill-opacity:1;fill-rule:nonzero;stroke:none;stroke-width:0.264583"
       id="path5418"
       d="m 17.861274,253.61706 c -0.583951,0.32722 -1.149093,0.74087 -1.496576,1.32891 -0.121691,0.20594 -0.196383,0.43626 -0.294575,0.65438 -0.03915,0.25794 -0.114584,0.51295 -0.117474,0.77382 -0.0061,0.54815 0.137064,0.99891 0.375459,1.48366 0.09882,0.20094 0.234506,0.38154 0.35176,0.57231 1.086859,1.67367 3.4538,0.13663 2.366941,-1.53705 v 0 c -0.08062,-0.10702 -0.172632,-0.31939 -0.337904,-0.29186 -0.01091,-0.012 -0.03058,-0.0199 -0.0327,-0.036 -0.02261,-0.1711 0.421198,-0.39808 0.54819,-0.47693 1.747406,-0.96387 0.384292,-3.43508 -1.363114,-2.47122 z" />
    <path
       style="fill:#ffffff;fill-opacity:1;fill-rule:nonzero;stroke:none;stroke-width:0.264583"
       id="path5438"
       d="m 41.262292,238.43116 c 0.128688,-6.3e-4 -0.303406,0.37536 -0.200526,0.37116 0.0645,-0.003 0.125556,-0.0306 0.189217,-0.0413 0.350213,-0.0589 0.381167,-0.0491 0.764673,-0.0718 0.414813,0.0226 1.003837,0.0122 1.313505,0.35306 0.06112,0.0673 0.06589,0.14385 0.08233,0.22625 -0.01654,0.34915 -0.147584,0.66169 -0.317804,0.96165 -0.191246,0.27996 -0.504619,0.43502 -0.779169,0.6213 -0.579445,0.4157 -1.068768,0.95564 -1.370086,1.60733 -0.07003,0.15147 -0.120825,0.3111 -0.181237,0.46665 -0.165018,0.5414 -0.174123,1.09014 -0.07519,1.64428 0.276149,1.5467 -0.02175,-0.37895 0.213768,0.83099 0.01003,0.0515 0.0019,0.10502 0.0028,0.15753 0.23491,1.98173 3.037511,1.64952 2.802601,-0.33222 v 0 c -0.02791,-0.19071 -0.04734,-0.38285 -0.08374,-0.57212 -0.05049,-0.26256 -0.181261,-0.51075 -0.203345,-0.77657 0.06737,-0.28837 0.239403,-0.51847 0.479327,-0.69067 0.276733,-0.18787 0.563433,-0.3653 0.817647,-0.58409 0.357224,-0.30745 0.654621,-0.66971 0.88592,-1.08067 0.07604,-0.15384 0.161536,-0.30337 0.228116,-0.46154 0.337688,-0.80223 0.481748,-1.71197 0.25237,-2.56621 -0.06677,-0.24867 -0.18546,-0.4804 -0.278188,-0.7206 -0.401053,-0.57426 -0.448207,-0.74669 -1.040315,-1.16101 -0.865175,-0.60538 -1.928297,-0.75103 -2.95665,-0.73793 -0.233056,0.0193 -0.467339,0.0272 -0.699172,0.0579 -0.789088,0.10446 -1.624529,0.33522 -2.169515,0.95692 -0.104473,0.11917 -0.171995,0.26625 -0.25799,0.39937 -0.807757,1.82483 1.772939,2.96717 2.580696,1.14234 z" />
    <path
       style="fill:#ffffff;fill-opacity:1;fill-rule:nonzero;stroke:none;stroke-width:0.264583"
       id="path5440"
       d="m 42.945737,247.40148 c -0.626996,0.23349 -1.132292,0.66963 -1.598059,1.13598 -0.01654,0.0158 -0.03307,0.0316 -0.04961,0.0473 -1.438035,1.38367 0.518763,3.41736 1.956797,2.03369 v 0 c 0.03017,-0.0292 0.06034,-0.0583 0.09051,-0.0875 0.160362,-0.16086 0.319228,-0.32358 0.504561,-0.45606 1.890416,-0.63936 0.986218,-3.31282 -0.904201,-2.67345 z" />
    <path
       style="fill:#ffffff;fill-opacity:1;fill-rule:nonzero;stroke:none;stroke-width:0.264583"
       id="path5444"
       d="m 50.016576,239.6638 c 0.417687,-0.0747 0.843791,-0.0899 1.267103,-0.0804 0.268674,0.0302 0.456396,0.008 0.553204,0.28205 0.09845,0.26626 0.137009,0.54829 0.122481,0.83076 -0.01066,0.17545 -0.113414,0.25983 -0.234429,0.36639 -0.312393,0.27011 -0.62688,0.54214 -0.875964,0.87457 -0.07959,0.10623 -0.148333,0.22018 -0.222501,0.33027 -0.375838,0.64341 -0.527003,1.37796 -0.689555,2.09636 -0.159311,0.66668 -0.236619,1.34682 -0.290954,2.0287 -0.157295,1.98941 2.656147,2.21186 2.813442,0.22245 v 0 c 0.04291,-0.54772 0.100102,-1.09439 0.230446,-1.62963 0.09031,-0.40102 0.174263,-0.80686 0.312486,-1.19466 0.163214,-0.33289 0.530138,-0.50921 0.766557,-0.78199 0.08461,-0.0925 0.174717,-0.18026 0.25383,-0.2775 0.472498,-0.58075 0.727311,-1.28039 0.758854,-2.02732 -0.0021,-0.14517 0.003,-0.29061 -0.0061,-0.4355 -0.04926,-0.78115 -0.29595,-1.53588 -0.744903,-2.17846 -0.328607,-0.37476 -0.39176,-0.49723 -0.814998,-0.77559 -0.563915,-0.37088 -1.22301,-0.52483 -1.889221,-0.5528 -0.678354,-0.007 -1.362818,0.0184 -2.026311,0.17259 -1.930223,0.50666 -1.213694,3.23641 0.716529,2.72975 z" />
    <path
       style="fill:#ffffff;fill-opacity:1;fill-rule:nonzero;stroke:none;stroke-width:0.264583"
       id="path5446"
       d="m 50.907439,249.49618 c -0.802074,0.55316 -1.225706,1.3788 -0.514287,2.38862 0.212654,0.30185 0.663697,0.3238 0.995545,0.48571 0.188788,-0.0214 0.382326,-0.0171 0.56637,-0.0643 0.595715,-0.15284 0.961075,-0.65156 1.167289,-1.19184 0.09849,-0.34212 0.04684,-0.11532 0.08402,-0.69272 -0.192262,-1.98633 -3.001354,-1.71443 -2.809094,0.27189 v 0 c 0.04211,-0.47306 -0.0082,-0.30593 0.06417,-0.51966 0.135324,-0.28604 0.421323,-0.52568 0.736285,-0.58638 0.143468,-0.0276 0.2916,-0.0189 0.437401,-0.0284 0.296649,0.15882 0.707801,0.19353 0.889945,0.47646 0.501893,0.77959 0.397939,1.16516 0.02734,1.72727 -0.08478,0.1286 -0.07744,0.0973 -0.147341,0.12546 1.691452,-1.05898 0.193817,-3.45106 -1.497637,-2.39207 z" />
    <path
       style="fill:#ffffff;fill-opacity:1;fill-rule:nonzero;stroke:none;stroke-width:0.264583"
       id="path5448"
       d="m 59.631346,240.15309 c -0.0026,0.0479 -0.06143,0.0742 -0.0701,0.11951 -0.0052,0.0274 0.05607,-2.5e-4 0.08342,-0.006 0.196993,-0.0384 0.06889,-0.0192 0.296982,-0.0447 0.0528,0.004 0.166679,-0.007 0.213561,0.0496 0.0095,0.0115 -0.0048,0.0302 -0.0016,0.0448 0.01797,0.081 0.07118,0.17421 0.10264,0.2492 0.133893,0.35682 0.126119,0.72656 0.07077,1.09689 -0.03805,0.10657 -0.07533,0.44003 -0.192365,0.50601 -0.0159,0.009 0.0013,-0.0368 0.0062,-0.0544 -0.0021,-0.004 -0.0016,-0.0139 -0.0063,-0.013 -0.08059,0.0164 -0.150492,0.0664 -0.2247,0.10184 -0.286689,0.13689 -0.555098,0.28835 -0.824613,0.45671 -0.625714,0.44078 -1.113433,1.06306 -1.317102,1.8104 -0.05186,0.19029 -0.07389,0.38748 -0.110831,0.58122 -0.06888,0.60457 0.04784,1.18864 0.22026,1.76468 0.03323,0.11103 0.248029,0.71578 0.281935,0.87131 0.01453,0.0667 0.0068,0.13631 0.01019,0.20447 0.276595,1.97635 3.071579,1.58518 2.794984,-0.39117 v 0 c -0.03636,-0.21585 -0.06058,-0.43411 -0.109067,-0.64757 -0.106241,-0.46769 -0.354655,-0.90107 -0.407717,-1.38025 -0.0182,-0.16668 0.02254,-0.32754 0.156763,-0.43478 0.464764,-0.31232 1.024755,-0.46302 1.445905,-0.84596 0.09579,-0.0956 0.199261,-0.18403 0.287372,-0.28672 0.459991,-0.53612 0.674561,-1.22207 0.791152,-1.90631 0.01672,-0.15625 0.0412,-0.31187 0.0502,-0.46876 0.04962,-0.86482 -0.128408,-1.71597 -0.541441,-2.47891 -0.295344,-0.43129 -0.377002,-0.61404 -0.796139,-0.9552 -0.697937,-0.56809 -1.496431,-0.7487 -2.375959,-0.65594 -0.163914,0.0313 -0.330028,0.0528 -0.491744,0.094 -0.689991,0.17583 -1.325565,0.53127 -1.736616,1.12386 -1.056913,1.69275 1.336998,3.18745 2.393913,1.4947 z" />
    <path
       style="fill:#ffffff;fill-opacity:1;fill-rule:nonzero;stroke:none;stroke-width:0.264583"
       id="path5450"
       d="m 58.419102,251.38359 c -0.01439,0.16818 -0.05522,0.33617 -0.0432,0.50454 0.04479,0.62719 0.405818,1.14422 0.94946,1.44893 0.378357,0.21208 0.585806,0.18757 0.993439,0.22052 0.151937,-0.0241 0.30847,-0.028 0.455814,-0.0722 0.392904,-0.11788 0.844793,-0.39629 0.999522,-0.80138 0.129537,-0.33913 0.09199,-0.72196 0.09442,-1.08498 5.29e-4,-0.08 -0.05711,-0.1495 -0.08566,-0.22424 -0.838788,-1.81078 -3.39961,-0.62455 -2.56082,1.18622 v 0 c -0.02178,-0.0601 -0.06815,-0.11651 -0.06536,-0.18041 0.01474,-0.33721 -0.0104,-0.69332 0.11724,-1.00579 0.134705,-0.32976 0.481507,-0.54671 0.809522,-0.6257 0.07281,-0.0175 0.149502,-0.009 0.224253,-0.0137 0.06441,0.0133 0.131407,0.0175 0.193233,0.0399 0.421976,0.15318 0.700839,0.5678 0.69551,1.01629 -0.0013,0.10668 -0.0331,0.2108 -0.04964,0.31619 0.512072,-1.92879 -2.215655,-2.65297 -2.72773,-0.72418 z" />
    <path
       style="fill:#ffffff;fill-opacity:1;fill-rule:nonzero;stroke:none;stroke-width:0.264583"
       id="path5452"
       d="m 5.6075979,283.64227 c 0.5505471,-0.30262 1.1520508,-0.47951 1.7570034,-0.636 0.4437841,-0.0843 0.9018101,-0.19118 1.2447593,0.16635 -0.027379,-0.005 0.1213739,0.16383 0.070572,0.17167 -0.083517,0.0129 -0.1023641,-0.3491 -0.103528,-0.36661 -0.0027,-0.023 0.014348,-0.0748 -0.00809,-0.069 -0.04261,0.011 -0.061886,0.0626 -0.091891,0.0948 -0.063718,0.0683 -0.1258287,0.13816 -0.1892535,0.20677 -0.3210457,0.34731 -0.6336676,0.69523 -0.9363671,1.05893 -0.6757826,0.86894 -1.1688484,1.86673 -1.512403,2.91043 -0.071449,0.21706 -0.1279755,0.43875 -0.1919634,0.65813 -0.177722,0.76761 -0.1878872,1.52243 0.069016,2.2758 0.1636442,0.47989 0.3712419,0.76434 0.6316355,1.17851 1.082444,1.67654 3.4534287,0.14573 2.3709847,-1.53081 v 0 c -0.040341,-0.0594 -0.3405309,-0.46185 -0.3666101,-0.54694 -0.066594,-0.21728 -0.018119,-0.37186 0.00813,-0.59957 0.2522506,-0.90412 0.5882746,-1.7942 1.1651679,-2.54587 0.3157429,-0.38408 0.2118545,-0.26813 0.5566494,-0.64401 0.328921,-0.35858 0.698404,-0.7103 0.94716,-1.13335 0.104656,-0.17799 0.178138,-0.37255 0.267206,-0.55883 0.03809,-0.21791 0.105306,-0.4327 0.114261,-0.65373 0.02775,-0.68489 -0.321172,-1.36106 -0.777953,-1.84898 -0.122838,-0.13121 -0.264914,-0.24298 -0.397371,-0.36448 -0.4289708,-0.28048 -0.5408101,-0.3919 -1.0394738,-0.55798 -0.8339785,-0.27776 -1.7062608,-0.22601 -2.5505746,-0.03 -0.9846442,0.26355 -1.9804736,0.56959 -2.8163247,1.17414 -1.5490642,1.25812 0.2301878,3.44883 1.779252,2.19071 z" />
    <path
       style="fill:#ffffff;fill-opacity:1;fill-rule:nonzero;stroke:none;stroke-width:0.264583"
       id="path5454"
       d="m 8.5210368,295.50454 c 0.051653,-0.0454 0.103305,-0.0908 0.1549578,-0.13613 1.4864164,-1.33156 -0.3966848,-3.43367 -1.8831012,-2.10211 v 0 c -0.01352,0.013 -0.027043,0.026 -0.040564,0.039 -1.5550904,1.25067 0.2136169,3.4499 1.7687072,2.19923 z" />
    <path
       style="fill:#ffffff;fill-opacity:1;fill-rule:nonzero;stroke:none;stroke-width:0.264583"
       id="path5456"
       d="m 13.818049,283.92646 c 0.341125,-0.0565 0.699578,-0.062 1.020986,0.0854 0.06617,0.0303 0.124697,0.0752 0.187045,0.11273 0.10223,0.0983 0.334522,0.22017 0.343343,0.39174 0.0064,0.12377 -0.122767,-0.0923 -0.139214,-0.12273 -0.01494,0.0124 -0.03244,0.0222 -0.04482,0.0371 -0.07255,0.0876 -0.131313,0.18583 -0.200627,0.276 -0.202418,0.26335 -0.408333,0.52082 -0.604518,0.78921 -0.456089,0.65324 -0.739733,1.39267 -0.812483,2.18865 -0.05421,0.59311 -0.0019,0.80269 0.06132,1.39376 0.117301,0.76679 0.396427,1.49057 0.672809,2.21036 0.716365,1.8626 3.350484,0.84952 2.634119,-1.01309 v 0 c -0.194154,-0.50389 -0.401231,-1.00721 -0.505522,-1.53942 -0.09321,-0.61275 -0.131024,-1.05008 0.23329,-1.58182 0.515449,-0.71621 1.138273,-1.36714 1.343405,-2.25742 0.02427,-0.2379 0.08155,-0.47472 0.07281,-0.71369 -0.03335,-0.91146 -0.576015,-1.70271 -1.279875,-2.24191 -0.178603,-0.13682 -0.377446,-0.24497 -0.566169,-0.36746 -0.217541,-0.095 -0.428114,-0.20784 -0.652625,-0.2849 -0.717268,-0.24618 -1.489698,-0.26683 -2.231774,-0.14559 -1.967923,0.33128 -1.49942,3.11435 0.468503,2.78307 z" />
    <path
       style="fill:#ffffff;fill-opacity:1;fill-rule:nonzero;stroke:none;stroke-width:0.264583"
       id="path5458"
       d="m 16.981877,295.17251 c 0.09951,-0.54754 0.20109,-1.30708 -0.290263,-1.72806 -0.337117,-0.28883 -0.819336,-0.34202 -1.229005,-0.51302 -0.249502,0.0818 -0.512649,0.13 -0.748508,0.24538 -0.141952,0.0694 -0.261205,0.18276 -0.366882,0.30025 -0.445272,0.49507 -0.68567,1.23301 -0.174398,1.90847 0.701151,0.92631 1.223779,0.64798 1.908287,0.433 0.103034,-0.0612 0.214248,-0.11036 0.309104,-0.1836 0.09573,-0.0739 1.05598,-0.94949 0.638739,-1.05946 -0.266636,-0.0703 -0.172197,0.53484 -0.338444,0.75483 -0.122324,0.16187 -0.331501,0.23402 -0.497252,0.35103 1.874382,-0.68495 0.905714,-3.33573 -0.968668,-2.65078 v 0 c -1.14076,0.73038 -0.177356,-0.0398 -0.996033,1.19462 -0.141487,0.21333 0.180611,-0.48235 0.314037,-0.70081 0.05589,-0.0915 0.156004,-0.14809 0.24285,-0.211 0.04567,-0.0331 0.101157,-0.0499 0.151735,-0.0748 0.577618,-0.13036 0.997461,-0.28786 1.556315,0.54093 0.425872,0.63157 0.271566,1.26779 -0.152982,1.69553 -0.05908,0.0595 -0.129039,0.1132 -0.207928,0.14166 -0.180069,0.065 -0.372169,0.0898 -0.558253,0.13478 -0.355558,-0.17316 -0.778425,-0.24869 -1.066674,-0.51946 -0.327993,-0.3081 -0.284465,-0.56958 -0.251377,-0.88901 0.0027,-0.0265 -0.0038,0.0532 -0.0078,0.0796 -0.01492,0.0979 -0.03732,0.19447 -0.05151,0.29246 -0.323485,1.96922 2.461412,2.4267 2.784898,0.45748 z" />
    <path
       style="fill:#ffffff;fill-opacity:1;fill-rule:nonzero;stroke:none;stroke-width:0.264583"
       id="path5460"
       d="m 20.623317,284.76867 c 0.570222,0.009 1.14865,0.0415 1.699482,0.20196 0.123667,0.036 0.24284,0.086 0.36426,0.12898 0.236856,0.1189 0.805809,0.31184 0.700584,0.68264 -0.03049,0.022 -0.0435,0.0281 -0.0667,0.0618 -0.05115,0.0744 -0.09007,0.15656 -0.13863,0.23267 -0.117736,0.18454 -0.150203,0.22107 -0.285988,0.40415 -0.433558,0.51648 -0.875474,1.02237 -1.259785,1.57737 -0.285327,0.46428 -0.529546,0.97141 -0.58631,1.52148 -0.04772,0.46244 -0.0044,0.53575 0.07189,0.98569 0.105019,0.36397 0.07885,0.21546 0.110246,0.43876 0.391032,1.95693 3.158544,1.40392 2.767513,-0.553 v 0 c -0.08996,-0.41375 -0.04049,-0.25148 -0.121884,-0.49411 -0.128602,0.26724 0.03077,-0.31933 0.08811,-0.3057 0.360992,-0.53938 0.822672,-0.99805 1.215026,-1.51382 0.51657,-0.72217 0.969686,-1.46668 0.996514,-2.38637 0.006,-0.20723 -0.02934,-0.41358 -0.044,-0.62038 -0.154829,-0.53952 -0.155938,-0.69477 -0.47558,-1.17669 -0.495225,-0.74665 -1.261483,-1.21442 -2.079831,-1.53232 -0.214014,-0.0686 -0.424992,-0.14758 -0.642041,-0.20591 -0.743717,-0.19988 -1.517297,-0.25903 -2.284337,-0.26927 -1.99551,-0.0202 -2.024052,2.80189 -0.02854,2.82207 z" />
    <path
       style="fill:#ffffff;fill-opacity:1;fill-rule:nonzero;stroke:none;stroke-width:0.264583"
       id="path5462"
       d="m 22.429935,293.74258 c -0.138148,0.11751 -0.267261,0.21404 -0.374551,0.36511 -0.27764,0.39095 -0.612004,1.07833 -0.213957,1.54063 0.402558,0.46754 1.05813,0.76896 1.674804,0.78794 0.379706,0.0117 0.594874,-0.47263 0.892311,-0.70894 -0.461055,-2.17533 0.21214,-1.64843 -1.479161,-2.0951 -1.982764,0.22609 -1.663023,3.03014 0.319741,2.80405 v 0 c -1.549786,-0.48103 -0.91337,0.0318 -1.31226,-2.07121 0.288276,-0.21969 0.502978,-0.67986 0.864827,-0.65907 0.601937,0.0346 1.234276,0.33963 1.6213,0.80195 0.327627,0.39136 0.07692,1.23337 -0.329098,1.51416 1.611861,-1.1766 -0.05209,-3.45611 -1.663956,-2.27952 z" />
  </g>
</svg>
