<?xml version="1.0" encoding="UTF-8" standalone="no"?>
<svg
   xmlns:dc="http://purl.org/dc/elements/1.1/"
   xmlns:cc="http://creativecommons.org/ns#"
   xmlns:rdf="http://www.w3.org/1999/02/22-rdf-syntax-ns#"
   xmlns:svg="http://www.w3.org/2000/svg"
   xmlns="http://www.w3.org/2000/svg"
   xmlns:sodipodi="http://sodipodi.sourceforge.net/DTD/sodipodi-0.dtd"
   xmlns:inkscape="http://www.inkscape.org/namespaces/inkscape"
   inkscape:version="1.0 (1.0+r73+1)"
   sodipodi:docname="rant.svg"
   id="svg8"
   version="1.1"
   viewBox="0 0 64 64"
   height="64mm"
   width="64mm">
  <defs
     id="defs2" />
  <sodipodi:namedview
     inkscape:document-rotation="0"
     inkscape:window-maximized="1"
     inkscape:window-y="27"
     inkscape:window-x="0"
     inkscape:window-height="1016"
     inkscape:window-width="1920"
     inkscape:snap-page="true"
     showgrid="false"
     inkscape:current-layer="layer1"
     inkscape:document-units="mm"
     inkscape:cy="119.18926"
     inkscape:cx="123.4137"
     inkscape:zoom="3"
     inkscape:pageshadow="2"
     inkscape:pageopacity="0.0"
     borderopacity="1.0"
     bordercolor="#666666"
     pagecolor="#ffffff"
     id="base" />
  <metadata
     id="metadata5">
    <rdf:RDF>
      <cc:Work
         rdf:about="">
        <dc:format>image/svg+xml</dc:format>
        <dc:type
           rdf:resource="http://purl.org/dc/dcmitype/StillImage" />
        <dc:title></dc:title>
      </cc:Work>
    </rdf:RDF>
  </metadata>
  <g
     transform="translate(0,-233)"
     id="layer1"
     inkscape:groupmode="layer"
     inkscape:label="Layer 1">
    <rect
       y="233"
       x="0"
       height="64"
       width="64"
       id="rect3713"
       style="fill:#ff5722;stroke-width:0.26458332;fill-opacity:1" />
    <path
       d="m 5.5633087,254.3463 c -0.066199,1.42161 -0.04778,2.84381 -0.021569,4.26612 0.047078,1.67052 0.1617771,3.33905 0.3410058,5.00057 0.025575,0.23709 0.1953091,1.69598 0.2900468,2.07933 0.047928,0.19394 0.1386661,0.37472 0.2079991,0.56208 0.9048138,-0.35687 1.9899095,-0.4217 2.7144418,-1.07062 0.3375742,-0.30234 0.00307,-0.90637 -0.00114,-1.35953 -0.030786,-3.3168 -0.1202036,-6.6334 -0.2218364,-9.94863 -0.036724,-0.78874 -0.089752,-2.5201 -0.2142776,-3.42202 -0.032696,-0.23681 0.072923,-0.69557 -0.16613,-0.69768 -0.9780299,-0.009 -2.0859266,0.0686 -2.8564345,0.67107 -0.4300948,0.33628 -0.076899,1.0895 -0.093239,1.63521 -0.022026,0.7356 -0.014552,1.4718 -0.021828,2.2077 0.00607,0.88612 0.010234,1.77226 0.018201,2.65836 0.016891,1.87895 0.038453,3.75785 0.059902,5.63675 0.016121,1.4122 0.031936,3.07357 0.078085,4.50212 0.015052,0.46597 0.042485,0.93145 0.063728,1.39717 0.023781,0.22607 -0.1522984,0.63749 0.071345,0.67822 0.9320324,0.16974 2.0051191,0.30272 2.8382177,-0.14832 0.4171244,-0.22584 0.047328,-0.94756 0.061613,-1.42168 0.021016,-0.69753 0.028901,-1.3954 0.044283,-2.09308 0.019897,-0.90239 0.041034,-1.80475 0.061551,-2.70712 0.021783,-0.98913 0.043565,-1.97825 0.065348,-2.96738 0.054413,-2.68981 0.062508,-5.38053 0.00737,-8.07038 -0.01419,-0.69228 -0.060931,-2.42361 -0.1138013,-3.22908 -0.014946,-0.2277 -0.047764,-0.45386 -0.071646,-0.6808 -0.9455428,0.0182 -1.9858918,-0.35859 -2.8366283,0.0545 -0.4143791,0.2012 -0.089881,0.91726 -0.1122966,1.37735 -0.054838,1.1256 -0.06582,3.47123 -0.068481,4.48439 -0.00419,1.59456 0.011097,4.32895 0.018256,5.91181 0.02364,2.37732 0.00791,4.75606 0.097468,7.13233 0.015303,0.40601 0.033717,0.8121 0.066589,1.21706 0.014616,0.18007 -0.1047914,0.5306 0.075766,0.53666 0.9588841,0.0321 1.896418,-0.29252 2.8446269,-0.43878 0.141405,-3.78339 0.3271314,-7.56614 0.4057912,-11.35165 0.017484,-0.84145 0.022368,-1.68312 0.033553,-2.52468 -0.00852,-1.09693 0.00402,-2.63345 -0.085085,-3.76658 -0.026939,-0.34257 0.045795,-0.73211 -0.1396992,-1.02137 -0.3202131,-0.49933 -0.7178209,-1.34776 -1.2967925,-1.21867 -2.264393,0.50486 -1.9067555,2.74874 -2.0022627,4.23768 -0.005,0.94034 -0.024455,1.88072 -0.01501,2.82103 0.019823,1.97371 0.1123945,4.23088 0.1986696,6.20266 0.099827,2.28152 0.2225675,4.56192 0.3528221,6.84186 0.016827,0.26559 -0.2123586,0.75512 0.050482,0.79676 0.933128,0.14782 1.9974147,0.13303 2.8134558,-0.34306 0.3654065,-0.21318 -0.036928,-0.84529 -0.051866,-1.26808 -0.091879,-2.6004 -0.1320652,-5.20069 -0.1674855,-7.80237 -0.033318,-2.7101 -0.028202,-5.42045 -0.045568,-8.13064 -0.00279,-0.43579 -0.00543,-2.4101 -0.068296,-3.04489 -0.021907,-0.22123 -0.089216,-0.43557 -0.1338238,-0.65336 -0.9610323,0.21296 -2.0915733,0.0537 -2.8830971,0.63887 -0.4388818,0.32447 -0.1376741,1.08325 -0.1821204,1.62723 -0.2898796,3.54787 -0.2042686,7.11177 -0.1340837,10.66596 0.064402,2.37582 0.1207069,4.75186 0.1837997,7.12772 0.011446,0.43103 0.020788,0.86213 0.037257,1.293 0.00675,0.17657 -0.144036,0.51905 0.032385,0.52913 0.9520795,0.0544 1.8916626,-0.24345 2.837494,-0.36518 0.00319,-0.45661 0.00891,-0.91321 0.00958,-1.36984 0.00101,-0.693 -0.00302,-1.38599 -0.00454,-2.07899 -0.00106,-0.89308 -0.00491,-1.78616 -0.00319,-2.67924 0.00567,-2.94535 0.043517,-5.89008 0.085052,-8.83508 0.0066,-0.78403 0.040661,-2.92208 -0.0014,-3.85519 -0.012224,-0.27122 0.1765813,-0.74766 -0.087718,-0.80975 -0.9323536,-0.21906 -2.0557808,-0.38817 -2.8709369,0.11462 -0.5111067,0.31524 -0.1650375,1.19023 -0.2148504,1.78866 -0.068059,0.81764 -0.092395,1.63833 -0.1385927,2.45749 -0.208212,5.21468 -0.036542,10.43239 -0.00946,15.64826 0.01043,1.99559 2.832613,1.98084 2.8221836,-0.0147 v 0 c -0.027133,-5.15854 -0.1962801,-10.31881 0.00511,-15.47624 0.04287,-0.77679 0.081109,-1.55384 0.1286108,-2.33035 0.024225,-0.39603 0.4061759,-0.95205 0.086567,-1.18716 -0.7239222,-0.53254 -1.7144047,-0.61592 -2.6114602,-0.67021 -0.1732979,-0.0105 0.061027,0.34286 0.068562,0.51631 0.041408,0.95324 0.00823,2.96904 0.00143,3.77852 -0.069742,4.94739 -0.1011561,9.89471 -0.082625,14.84258 0.9322845,0.11628 1.8577861,0.37764 2.7968532,0.34885 0.1448152,-0.004 -0.022537,-0.28897 -0.028019,-0.43375 -0.016184,-0.42733 -0.02562,-0.85489 -0.036971,-1.28238 -0.062957,-2.37093 -0.1191297,-4.74205 -0.1834682,-7.11295 -0.068419,-3.43996 -0.133508,-6.87815 0.1189622,-10.31299 0.031879,-0.43372 0.4742529,-1.03591 0.1275249,-1.29841 -0.709495,-0.53714 -1.7375348,-0.38548 -2.6063024,-0.57821 0.2404692,0.40036 0.074477,0.093 0.099246,1.19824 0.013621,0.60784 0.014227,1.2159 0.018119,1.82388 0.017417,2.71954 0.0123,5.43925 0.045811,8.1587 0.035856,2.62746 0.076707,5.25349 0.1695971,7.87965 0.014428,0.40787 -0.3206671,1.05338 0.050385,1.22334 0.8564235,0.3923 1.9099498,0.31947 2.8244416,0.0935 0.2526581,-0.0624 -0.032949,-0.51947 -0.049424,-0.77921 -0.1293908,-2.26401 -0.2511677,-4.52847 -0.3504965,-6.79404 -0.085402,-1.94792 -0.1748962,-4.12551 -0.1964298,-6.07624 -0.00986,-0.89305 0.00719,-1.78619 0.010782,-2.67928 0.159624,-3.67414 0.6380515,-0.83566 -1.3755944,-1.62656 -0.4591925,-0.18035 -0.4943136,-0.92765 -0.9368022,-1.14581 -0.2238081,-0.11034 0.093842,0.49118 0.1135345,0.73993 0.086843,1.09701 0.074207,2.54777 0.082771,3.60904 -0.010906,0.828 -0.015563,1.65609 -0.032721,2.48398 -0.076588,3.6953 -0.2667283,7.38709 -0.3852539,11.08106 0.9151321,0.11945 1.823076,0.32579 2.7453965,0.35835 0.089047,0.003 -0.040234,-0.17427 -0.047248,-0.2631 -0.029881,-0.37839 -0.048951,-0.75764 -0.063309,-1.13694 -0.089165,-2.3554 -0.072718,-4.71328 -0.09649,-7.06972 -0.012629,-2.7896 -0.040845,-5.58016 -1.069e-4,-8.36968 0.00896,-0.61383 0.029493,-1.22743 0.045077,-1.84113 0.00697,-0.27467 0.2697892,-0.704 0.022601,-0.82396 -0.8208889,-0.39838 -1.7973905,-0.31565 -2.6960857,-0.47347 0.098256,0.85342 0.071766,0.52185 0.1164662,1.78496 0.021921,0.61941 0.039743,1.23898 0.052525,1.85865 0.054777,2.65555 0.046725,5.31197 -0.00698,7.96749 -0.05683,2.58058 -0.1224113,5.16111 -0.1704994,7.74188 -0.0061,0.32727 -0.3065232,0.83657 -0.013224,0.9819 3.0341217,1.50346 2.8217076,1.08187 2.6821622,-0.13162 -0.020505,-0.44435 -0.047116,-0.88846 -0.061516,-1.33304 -0.045918,-1.41766 -0.061493,-3.06533 -0.07748,-4.46587 -0.021413,-1.87576 -0.042796,-3.75152 -0.059821,-5.62732 -0.0079,-0.87076 -0.012171,-1.74154 -0.018256,-2.61232 0.00621,-0.69914 0.00503,-1.3984 0.018637,-2.09744 0.00806,-0.41427 0.3925899,-1.01453 0.04638,-1.24218 -0.7464197,-0.49081 -1.759786,-0.3087 -2.6396793,-0.46304 0.026257,0.0688 0.069259,0.13345 0.078774,0.2065 0.053946,0.41418 0.084515,0.83128 0.1106885,1.24814 0.042109,0.67066 0.062744,1.34249 0.094117,2.01374 0.081416,2.65292 0.1453642,5.30557 0.1912985,7.95936 0.011033,0.63743 0.021622,1.27488 0.029228,1.91236 0.00462,0.38706 -0.3456943,1.0027 0.00744,1.16126 0.8030927,0.36059 1.7605645,0.0185 2.6408467,0.0278 0.1085305,0.61256 -0.050467,-0.28069 -0.082033,-0.50547 -0.2771796,-1.97383 -0.4068072,-3.96681 -0.4746667,-5.95769 -0.027143,-1.4368 -0.033783,-2.87233 0.02046,-4.30845 -0.067156,-1.99449 -2.8877802,-1.89951 -2.8206236,0.095 z"
       id="path958"
       style="fill:#ffffff;fill-opacity:1;fill-rule:nonzero;stroke:none;stroke-width:0.264583" />
    <path
       d="m 7.1499996,248.57166 c -0.00188,-0.007 -0.00972,-0.0259 -0.00564,-0.0202 0.1787382,0.24872 0.2430913,0.33234 0.2260767,0.71594 -0.00697,0.15719 -0.1362829,0.2965 -0.1301832,0.45372 0.0019,0.0493 0.099744,0.0137 0.147906,0.003 0.1906093,-0.0419 0.3755613,-0.10635 0.5633416,-0.15953 0.3028238,-0.0492 0.6031336,-0.11769 0.9084712,-0.1475 1.9982481,-0.19508 4.0659381,0.0814 5.9642981,0.72537 0.493277,0.16734 0.963078,0.39722 1.444617,0.59583 0.428181,0.30473 1.937249,0.96319 1.496538,1.83064 -0.0649,0.12775 -0.199001,0.20798 -0.313531,0.2941 -0.632389,0.4755 -1.120622,0.67532 -1.866313,1.06318 -0.567649,0.2029 -1.126319,0.43293 -1.702946,0.6087 -2.700519,0.82318 -5.5203806,1.1702 -8.3010709,1.60244 -1.6616709,0.32882 -1.8976578,0.36495 -0.888722,2.99777 0.08998,0.23481 0.4936914,0.0978 0.7430445,0.13019 0.3596764,0.0468 1.1054924,0.0754 1.4491679,0.0923 0.3259526,-0.002 0.6521717,0.007 0.9778579,-0.006 0.9613852,-0.0393 1.776613,-0.13653 2.7409496,-0.25748 0.910332,-0.11419 2.609946,-0.35457 3.498269,-0.4994 0.604177,-0.0985 1.205716,-0.21254 1.808574,-0.31881 0.598954,-0.14827 1.20659,-0.26507 1.796862,-0.44482 0.576297,-0.17549 1.150947,-0.36671 1.697827,-0.61937 1.624916,-0.75072 3.144766,-1.89633 3.821742,-3.62145 0.221022,-0.56323 0.245063,-1.18501 0.367594,-1.77751 -0.109679,-0.61853 -0.0956,-1.27238 -0.329036,-1.85557 -0.840831,-2.10063 -2.877331,-3.19897 -5.000148,-3.57645 -1.922041,-0.34179 -3.205508,-0.0924 -5.127709,0.0824 -0.864712,0.16102 -1.733729,0.30043 -2.594136,0.48306 -1.4089204,0.29906 -3.2611064,0.79665 -4.6657925,1.17491 -1.4997038,0.40385 -2.9954939,0.82134 -4.4862871,1.25679 -0.1986615,0.0689 -0.42452595,0.085 -0.59598449,0.20671 -1.50862396,1.071 -1.10432687,1.39615 1.04293279,2.74945 0.265363,0.16724 0.6196836,-0.0978 0.9288723,-0.15062 0.7675179,-0.13112 1.8311471,-0.32981 2.5756304,-0.46682 2.951768,-0.53327 5.9419396,-1.12241 8.9586156,-0.93615 0.514274,0.0318 1.023613,0.11899 1.535419,0.17848 1.192501,0.22108 2.380388,0.54575 3.419413,1.19455 0.385816,0.24092 0.929564,0.66742 1.164526,1.09155 0.06823,0.12316 0.05433,0.27629 0.0815,0.41444 -0.04535,0.0908 -0.07399,0.19202 -0.136053,0.27229 -0.136972,0.17717 -0.817576,0.71564 -0.878334,0.75664 -0.747247,0.50421 -1.499093,0.86955 -2.350859,1.18015 -0.538946,0.19654 -1.096699,0.33705 -1.645048,0.50557 -1.687503,0.37162 -1.69193,0.41682 -3.351536,0.61841 -0.422749,0.0514 -0.848183,0.0774 -1.272275,0.11617 -1.9870502,0.18467 -1.7258921,2.99478 0.261158,2.81011 v 0 c 0.474594,-0.0448 0.950782,-0.0751 1.42378,-0.13439 1.867965,-0.23425 1.882219,-0.28821 3.782797,-0.71721 0.650353,-0.20711 1.313562,-0.3775 1.951058,-0.62133 1.041547,-0.39837 2.313601,-1.01921 3.181087,-1.74654 0.851484,-0.71391 1.515681,-1.53713 1.718542,-2.66536 0.08546,-0.47528 -0.04917,-0.96455 -0.07375,-1.44683 -0.197919,-0.40982 -0.337384,-0.85343 -0.593759,-1.22946 -0.241804,-0.35466 -0.558743,-0.65614 -0.883333,-0.93702 -1.091667,-0.94467 -2.478813,-1.54125 -3.85771,-1.9179 -0.535414,-0.14625 -1.08545,-0.23243 -1.628175,-0.34864 -0.605855,-0.0652 -1.209182,-0.16128 -1.817564,-0.19573 -3.19874,-0.18112 -6.3702404,0.40875 -9.5003517,0.9826 -0.9272222,0.17067 -1.6113897,0.29943 -2.5226383,0.45759 -0.2588541,0.0449 -0.8030914,-0.13156 -0.7773915,0.12991 0.073579,0.74857 0.9352859,1.2778 0.9895005,2.02802 0.033314,0.46101 -1.55769798,0.96298 -0.3385289,0.53031 1.4681892,-0.42914 2.941526,-0.83979 4.4184719,-1.23789 1.3559121,-0.36548 3.1005759,-0.83472 4.464738,-1.12936 0.776984,-0.16782 1.561589,-0.29818 2.342383,-0.44727 1.935378,-0.19926 3.618257,-0.50459 5.508321,0.16835 0.630908,0.22463 1.233038,0.58543 1.601693,1.16407 0.14645,0.22986 0.192485,0.50999 0.288728,0.76499 -0.01702,0.2855 0.02051,0.5796 -0.05107,0.85651 -0.191147,0.73948 -0.604782,1.1986 -1.2066,1.65887 -1.201041,0.91854 -2.687983,1.28074 -4.129796,1.61154 -0.578697,0.10233 -1.156094,0.2123 -1.73609,0.30699 -0.880237,0.14371 -2.500101,0.37232 -3.403347,0.48681 -0.8298516,0.10519 -1.6097562,0.20055 -2.4413623,0.23901 -0.2723573,0.0126 -0.5452628,0.006 -0.817894,0.009 -0.2301806,-0.0109 -0.4605173,-0.0189 -0.6905421,-0.0327 -0.1840378,-0.0111 -0.3672012,-0.0376 -0.5515221,-0.0419 -0.034505,-8e-4 -0.098216,-0.008 -0.1000022,0.0268 -0.043388,0.83728 0.036224,1.67937 -0.031718,2.51501 -0.00482,0.0593 -0.2335083,0.0451 -0.1754029,0.0325 0.1805945,-0.0392 0.3619513,-0.0749 0.5429271,-0.1123 2.207138,-0.34313 4.4285335,-0.63527 6.6051665,-1.14774 0.751887,-0.17703 1.503889,-0.3599 2.239455,-0.59573 0.71864,-0.2304 1.411685,-0.5341 2.117527,-0.80114 1.301452,-0.77846 2.410199,-1.18675 3.152352,-2.62684 0.604708,-1.17338 0.490102,-2.35588 -0.153354,-3.46426 -0.280604,-0.48335 -0.702287,-0.88033 -1.134766,-1.23435 -0.458833,-0.37559 -1.009339,-0.6226 -1.514008,-0.9339 -0.590219,-0.23505 -1.167086,-0.50688 -1.770656,-0.70515 -2.274755,-0.74723 -4.804452,-1.06402 -7.1884957,-0.77893 -0.4312192,0.0516 -0.8537453,0.15986 -1.280618,0.23979 -0.6104398,0.20934 -1.3916564,0.3947 -1.8744194,0.87946 -0.2648194,0.26591 -0.4932849,0.59013 -0.6083866,0.94733 -0.2093754,0.64976 0.05443,1.26612 0.4453408,1.75261 1.3333849,1.48477 3.4331724,-0.40092 2.0997873,-1.88569 z"
       id="path960"
       style="fill:#ffffff;fill-opacity:1;fill-rule:nonzero;stroke:none;stroke-width:0.264583" />
    <path
       d="m 10.198114,258.12894 c -0.01682,-0.0222 -0.03551,-0.043 -0.05046,-0.0664 -0.01717,-0.0269 -0.03236,-0.0552 -0.04561,-0.0842 -0.1508371,-0.33044 0.262011,0.12024 0.04766,0.30364 -0.5730643,0.49033 -1.2890535,0.78335 -1.9335801,1.17502 0.03299,0.0752 0.054176,0.15676 0.098969,0.22558 2.0960481,3.22027 -1.2673015,-2.20237 1.6582588,2.48735 0.8322123,1.33405 1.7221473,2.84343 2.4901653,4.20901 0.420606,0.74786 0.824119,1.5052 1.236179,2.2578 0.362502,0.68935 0.728405,1.37691 1.087506,2.06803 0.501819,0.9658 0.975934,1.94607 1.490962,2.90488 0.106385,0.19806 0.118105,0.62207 0.339468,0.5828 3.283629,-0.58251 2.772946,-0.58186 2.113078,-2.4719 -1.555907,-3.82549 -3.343165,-7.55464 -5.274589,-11.20399 -0.325778,-0.61554 -0.665023,-1.22386 -0.997534,-1.83579 -0.387383,1.79663 -0.576828,-2.11135 -1.065917,-1.66831 -0.757426,0.68612 -1.6214888,1.44253 -1.861936,2.43582 -0.1412462,0.58349 0.590185,1.04569 0.893793,1.56361 0.587824,1.00274 1.894482,3.15553 2.475243,4.116 1.131674,1.86627 2.237215,3.74816 3.331247,5.63668 0.210898,0.36405 0.420133,0.72906 0.630411,1.09347 0.09051,0.15686 0.106261,0.54341 0.271962,0.47033 0.863005,-0.3806 1.548992,-1.07664 2.323488,-1.61496 -1.174219,-2.00869 -2.382695,-3.99805 -3.521439,-6.02734 -0.801747,-1.42875 -0.606893,-1.03472 -1.079675,-2.14018 2.988236,2.90266 -1.623842,1.32751 -1.49773,2.20782 0.07396,0.51629 0.630451,0.83137 0.929572,1.25863 1.154283,1.64877 2.185626,3.37364 3.221981,5.09728 1.028492,1.71017 3.447035,0.25566 2.418543,-1.45451 v 0 c -1.084279,-1.80252 -2.16051,-3.61124 -3.377547,-5.32915 -0.502198,-0.70888 -1.940079,-2.94032 -3.14705,-2.62948 -0.735831,0.1895 -0.75667,1.31791 -1.135004,1.97686 0.137943,0.31211 0.260161,0.63166 0.413831,0.93633 0.253489,0.50259 0.531192,0.99269 0.806685,1.48356 1.144747,2.0397 2.359248,4.03945 3.53961,6.05847 0.849303,-0.41202 1.791929,-0.67076 2.547908,-1.23607 0.144067,-0.10773 -0.180241,-0.31139 -0.270153,-0.4672 -0.211947,-0.36729 -0.422844,-0.73519 -0.635422,-1.10213 -1.102248,-1.90259 -2.216097,-3.7985 -3.35618,-5.67873 -0.590252,-0.97613 -1.841179,-3.03707 -2.441201,-4.05816 -0.282931,-0.48148 -0.285258,-1.34827 -0.833774,-1.45316 -0.92515,-0.17692 -1.805009,0.54108 -2.7176679,0.77401 -0.025175,0.006 -0.014444,-0.0499 -0.021667,-0.0749 0.2261643,0.39106 0.4523285,0.78212 0.6784925,1.17318 0.3237444,0.59542 0.6540824,1.18729 0.9712324,1.78624 1.882132,3.55448 3.624459,7.1863 5.143494,10.91134 0.617431,1.39155 0.293338,1.28788 2.958096,0.0381 0.156757,-0.0735 -0.182877,-0.29433 -0.264688,-0.44692 -0.893524,-1.66659 -1.691263,-3.38393 -2.612153,-5.03632 -0.422599,-0.77133 -0.836449,-1.54752 -1.267797,-2.314 -0.783257,-1.39179 -1.713423,-2.9695 -2.563576,-4.32905 -0.343859,-0.54989 -1.384959,-2.18191 -1.882296,-2.78808 -0.237511,-0.28949 -0.5214498,-0.53754 -0.782175,-0.80631 -0.7783118,0.31057 -1.6537062,0.44371 -2.334936,0.93172 -0.1937612,0.1388 -0.00243,0.47909 0.037527,0.71406 0.027305,0.16052 0.09722,0.31146 0.1623112,0.46071 0.1555031,0.35655 0.383739,0.67736 0.6461268,0.96208 1.4023261,1.41984 3.410286,-0.56334 2.00796,-1.98318 z"
       id="path962"
       style="fill:#ffffff;fill-opacity:1;fill-rule:nonzero;stroke:none;stroke-width:0.264583" />
    <path
       d="m 22.938211,272.09552 c 0.19066,-0.16594 0.402961,-0.30989 0.571981,-0.49783 0.787627,-0.87581 1.436649,-2.53514 1.841308,-3.57673 0.696643,-1.79316 1.250554,-3.52537 1.865554,-5.35615 1.413319,-4.38858 2.910615,-8.75435 4.146907,-13.1977 -0.960654,-0.0332 -2.002684,-0.48793 -2.881963,-0.0996 -0.481253,0.21257 -0.244155,1.0235 -0.367684,1.5349 -0.47126,1.95101 -0.768426,3.20565 -1.311523,5.19467 -0.803808,2.94384 -0.933745,3.26132 -1.846255,6.16481 -0.722126,2.23706 -1.540407,4.44088 -2.312065,6.6608 -0.09494,0.27313 -0.509887,0.65248 -0.275936,0.82242 2.755726,2.00174 2.515549,1.38643 3.077497,-0.28616 1.678383,-5.30831 3.432796,-10.5921 5.126105,-15.89558 0.161983,-0.52841 0.330224,-1.05494 0.48595,-1.58523 0.373041,-1.27032 0.732703,-2.14565 -2.449438,-1.73187 -0.485183,0.0631 -0.360704,0.90976 -0.528334,1.36941 -0.225234,0.61762 -0.432001,1.24183 -0.650105,1.862 -0.280969,0.79894 -0.564737,1.59689 -0.847108,2.39533 -1.267343,3.47942 -2.539044,6.95703 -3.776915,10.44708 -0.667078,1.88082 1.9928,2.82421 2.659878,0.94339 v 0 c 1.238084,-3.49088 2.510465,-6.96916 3.777777,-10.44951 0.27814,-0.7865 1.169966,-3.29789 1.490329,-4.23808 0.09468,-0.27787 0.482544,-0.63524 0.270391,-0.83813 -0.667354,-0.63824 -1.564672,-1.06192 -2.466187,-1.26187 -0.756049,-0.16769 0.910762,3.63245 -0.654754,2.2291 -1.690349,5.29448 -3.442059,10.5692 -5.117327,15.86856 -0.497085,1.53715 -0.897749,1.69422 2.278075,2.06869 0.271787,0.0321 0.170933,-0.51999 0.260803,-0.77848 0.782786,-2.25152 1.612408,-4.48687 2.343886,-6.75614 0.932648,-2.97083 1.063998,-3.29122 1.885042,-6.29999 0.548153,-2.00874 0.849482,-3.27992 1.324806,-5.24783 0.121917,-0.50475 0.681477,-1.10496 0.362834,-1.51497 -0.593506,-0.76369 -1.717884,-0.88925 -2.576825,-1.33387 -1.221724,4.39591 -2.707109,8.71353 -4.103291,13.05548 -0.62085,1.84986 -1.10528,3.37141 -1.793811,5.16557 -0.197331,0.51419 -0.407684,1.02364 -0.632805,1.5263 -0.12894,0.2879 -0.278215,0.56645 -0.428649,0.84372 -0.06495,0.11971 -0.181442,0.21475 -0.216951,0.34623 -0.01215,0.045 0.0894,-0.0263 0.134095,-0.0394 -1.758336,0.94378 -0.423628,3.43045 1.334708,2.48666 z"
       id="path964"
       style="fill:#ffffff;fill-opacity:1;fill-rule:nonzero;stroke:none;stroke-width:0.264583" />
    <path
       d="m 29.689768,248.96826 c 0.0021,0.0198 -0.0033,0.0421 0.0064,0.0595 0.638982,1.15078 0.04338,-0.11453 0.879726,1.57608 0.572307,1.15686 0.992982,2.13097 1.437005,3.36251 0.264314,0.73309 0.488741,1.47996 0.733111,2.21995 0.677322,2.25278 1.168799,4.55381 1.661628,6.85182 0.231471,1.07932 0.451051,2.16012 0.717137,3.23151 0.877025,-0.35682 1.943386,-0.41964 2.631078,-1.07047 0.27909,-0.26413 -0.216662,-0.73743 -0.334219,-1.10327 -1.084578,-3.37519 -2.350831,-6.69013 -3.589068,-10.01083 -0.853723,-2.29076 -1.725382,-4.57534 -2.528345,-6.88464 -0.104804,-0.30142 0.0141,-0.94905 -0.302398,-0.90834 -3.107983,0.39978 -2.668248,0.72871 -2.191154,2.17378 2.015945,5.68263 3.693956,11.47781 5.644552,17.18265 0.276063,0.8074 0.570529,1.60839 0.855794,2.41257 0.556808,-1.35808 0.281387,2.1787 0.857655,1.82986 0.869873,-0.52656 1.832573,-1.14388 2.232586,-2.07873 0.243057,-0.56804 -0.387988,-1.17328 -0.591452,-1.75668 -0.501806,-1.43883 -1.347116,-3.73945 -1.852631,-5.12576 -0.96842,-2.59458 -1.862892,-5.21595 -2.806647,-7.81938 -0.176062,-0.48568 -0.340617,-0.97626 -0.542743,-1.45169 -0.08354,-0.19649 -0.118951,-0.65006 -0.312221,-0.55931 -0.920446,0.43223 -1.618991,1.23087 -2.428486,1.84631 1.256956,4.97992 2.843403,9.86902 4.421957,14.75401 0.613654,1.89892 3.299132,1.03108 2.685479,-0.86784 v 0 c -1.542849,-4.77403 -3.089688,-9.55228 -4.335122,-14.41457 -0.916892,0.052 -1.835692,0.0772 -2.750677,0.15587 -0.0352,0.003 0.06238,0.0415 0.07568,0.0742 0.188659,0.4641 0.355958,0.93664 0.526677,1.40763 0.946365,2.61087 1.843606,5.23963 2.814664,7.84164 0.535699,1.46901 1.301819,3.55291 1.830282,5.06213 0.188201,0.53748 0.01318,1.4238 0.548534,1.61796 0.855215,0.31017 1.787104,-0.35996 2.693093,-0.4423 0.06802,-0.006 0.100166,0.25417 0.0748,0.19076 -0.160999,-0.40246 -0.32113,-0.80526 -0.481695,-1.20789 -0.279196,-0.78654 -0.567531,-1.56989 -0.837592,-2.35961 -1.959226,-5.72926 -3.642995,-11.54985 -5.670094,-17.25606 -0.655426,-1.7029 -0.500732,-2.70869 -3.138715,-0.31731 -0.250246,0.22685 0.209655,0.64221 0.320608,0.96123 0.807919,2.32296 1.684298,4.62128 2.543252,6.92559 1.217763,3.26561 2.463784,6.52541 3.532688,9.84388 0.111125,0.345 -0.03848,0.96462 0.315952,1.04043 0.929076,0.19876 1.884272,-0.24547 2.826409,-0.3682 -0.260679,-1.04208 -0.47167,-2.09495 -0.697032,-3.14506 -0.514324,-2.39653 -1.029279,-4.79577 -1.741255,-7.14363 -0.263167,-0.79162 -0.504708,-1.59075 -0.789506,-2.37484 -0.479581,-1.32036 -0.95205,-2.41091 -1.57254,-3.6539 -0.248981,-0.49876 -0.7419,-1.41055 -1.0956,-1.9174 -0.120703,-0.17296 -0.266303,-0.32714 -0.399455,-0.49072 -1.489556,-1.32804 -3.367688,0.77851 -1.878131,2.10655 z"
       id="path966"
       style="fill:#ffffff;fill-opacity:1;fill-rule:nonzero;stroke:none;stroke-width:0.264583" />
    <path
       d="m 26.325874,261.98903 c -0.06041,0.0145 -0.126195,0.0146 -0.181217,0.0434 -0.04672,0.0245 0.135113,-0.0786 0.155384,-0.0299 0.350892,0.84285 0.487253,1.77379 0.907959,2.58405 0.05924,0.11409 0.235114,-0.10403 0.352449,-0.15654 0.822851,-0.36828 1.055301,-0.47478 1.95294,-0.88095 1.1982,-0.51503 2.367245,-1.10931 3.596846,-1.55001 0.128161,-0.0459 0.479734,0.003 0.395052,-0.10369 -0.549802,-0.69212 -1.309563,-1.1879 -1.947447,-1.7998 -1.128993,0.83568 -2.299912,1.61917 -3.379888,2.51977 -0.264155,0.22027 -0.557575,0.41898 -0.762431,0.69527 -0.216998,0.29267 -0.688391,0.6821 -0.480859,0.98155 0.522202,0.7535 1.502431,1.05096 2.253644,1.57643 1.268028,-0.46582 2.512311,-1.02449 3.66404,-1.73533 0.243324,-0.15018 0.549902,-0.25223 0.700278,-0.49543 0.282006,-0.45608 0.847685,-1.07357 0.542475,-1.51446 -0.476705,-0.68863 -1.531012,-0.67956 -2.296517,-1.01934 -1.145379,0.35371 -2.224948,0.86964 -3.298439,1.3943 -1.791473,0.87926 -0.548005,3.41278 1.243465,2.53352 v 0 c 0.87852,-0.43327 1.76327,-0.85364 2.689489,-1.17785 -1.971992,-2.25931 -0.941162,-0.27922 -0.535323,-2.5023 0.03199,-0.17524 -0.276217,0.2266 -0.427384,0.32084 -0.912292,0.56877 -1.898137,1.00666 -2.880024,1.4379 0.363812,0.60946 0.873135,1.15299 1.091435,1.82838 0.05868,0.18156 -0.530939,0.52356 -0.355428,0.44871 0.24688,-0.1053 0.383511,-0.37641 0.58946,-0.54852 1.081323,-0.90368 2.259184,-1.6828 3.386844,-2.52522 1.401307,-1.47846 1.917467,-1.25181 -0.564706,-3.13433 -0.186269,-0.14127 -0.452723,0.11917 -0.672809,0.19801 -0.663633,0.23772 -1.761339,0.7258 -2.366086,0.99372 -0.450829,0.19973 -0.899435,0.40442 -1.349153,0.60664 -0.382307,0.17299 -0.764614,0.34598 -1.146921,0.51898 -0.267412,0.12008 -0.535064,0.23963 -0.802236,0.36026 -0.163998,0.074 -0.498907,0.044 -0.491265,0.22373 0.100625,2.36743 -0.20594,2.96482 1.015953,2.66597 1.950056,-0.42397 1.350476,-3.18176 -0.59958,-2.7578 z"
       id="path968"
       style="fill:#ffffff;fill-opacity:1;fill-rule:nonzero;stroke:none;stroke-width:0.264583" />
    <path
       d="m 43.165941,269.3923 c 0.467135,-3.09207 0.708364,-6.2118 0.948788,-9.32777 0.151797,-2.31283 0.301197,-4.6302 0.28279,-6.94953 -0.0037,-0.46626 -0.01654,-0.93286 -0.04998,-1.39793 -0.01924,-0.26765 0.141417,-0.69849 -0.107884,-0.79776 -0.848029,-0.33768 -1.812454,-0.21851 -2.718678,-0.32776 -0.08117,0.56693 -0.205383,1.12936 -0.243515,1.7008 -0.0349,0.52303 0.02466,4.35782 0.02627,4.59524 0.01537,2.25735 0.02392,3.71478 -0.06368,5.97922 -0.03697,0.95539 -0.104979,1.90932 -0.157467,2.86399 -0.121708,1.43158 -0.209886,2.75574 -0.406905,4.16828 -0.03931,0.28184 -0.438192,0.89454 -0.159142,0.83875 0.655609,-0.13107 1.037855,-0.87341 1.652181,-1.13725 1.392626,-0.59808 0.977407,1.9074 0.69909,-1.76013 -0.270614,-4.58082 -0.424474,-9.16973 -0.431758,-13.75868 0.0031,-0.18356 0.192177,-0.53415 0.0093,-0.55069 -0.943536,-0.0854 -1.978102,-0.12537 -2.826735,0.29578 -0.335063,0.16628 -0.01921,0.74786 -0.02968,1.12177 -0.06047,2.15783 -0.113101,4.31482 -0.149222,6.47324 -0.02529,2.12632 -0.01802,4.25296 0.01548,6.37913 0.0059,0.375 0.01482,0.74994 0.02373,1.12488 0.0032,0.13342 -0.120788,0.40629 0.01252,0.40017 0.950851,-0.0436 1.870697,-0.35296 2.806044,-0.52944 -0.160563,-3.66509 -0.261589,-7.33231 -0.390708,-10.99852 -0.01622,-0.29734 0.211307,-0.74677 -0.04865,-0.892 -0.789421,-0.44103 -1.807845,-0.9586 -2.642917,-0.6117 -0.564253,0.2344 -0.207486,1.20607 -0.254339,1.81527 -0.05073,0.65962 -0.02633,1.32287 -0.03789,1.98433 -0.04821,2.75601 -0.03944,2.37241 -0.07015,5.15606 -0.0024,0.76953 -0.0048,1.53907 -0.0073,2.3086 -0.0062,1.9956 2.815968,2.00443 2.82221,0.009 v 0 c 0.0024,-0.76211 0.0047,-1.52421 0.0071,-2.28632 0.03087,-2.80228 0.02146,-2.35679 0.06981,-5.13349 0.0113,-0.64843 0.07681,-1.29795 0.03687,-1.94525 -0.009,-0.1458 -0.04667,-0.34272 -0.181526,-0.39889 -0.820211,-0.34161 -1.672016,-0.77606 -2.559902,-0.74289 -0.279161,0.0104 0.03078,0.55787 0.04617,0.8368 0.129121,3.66464 0.229944,7.3303 0.390543,10.99382 0.945139,0.11532 1.883307,0.35439 2.835418,0.34596 0.123714,-0.001 -0.0088,-0.24729 -0.01175,-0.37098 -0.0087,-0.36667 -0.01752,-0.73335 -0.02331,-1.10009 -0.03317,-2.09884 -0.0405,-4.19813 -0.01566,-6.29711 0.03588,-2.14935 0.08862,-4.29726 0.148638,-6.44603 0.01077,-0.38525 0.367763,-0.96953 0.03037,-1.15582 -0.829596,-0.45803 -1.872237,-0.45603 -2.817037,-0.38275 -0.2001,0.0155 -0.0065,0.40135 -0.0097,0.60203 0.0081,4.65978 0.163214,9.31955 0.440108,13.97098 0.07517,0.96059 0.04229,3.75294 1.286764,4.24116 1.83007,0.71795 2.02148,-1.23389 2.138762,-2.07746 0.0842,-0.60559 0.149593,-1.21379 0.208698,-1.82234 0.08129,-0.83697 0.141616,-1.67584 0.212424,-2.51376 0.05364,-0.98429 0.123142,-1.96785 0.160927,-2.95287 0.08824,-2.30036 0.07987,-3.7888 0.06425,-6.07814 -0.0058,-0.84853 -0.02458,-1.69694 -0.03038,-2.54547 -0.0043,-0.62123 0.03428,-1.24343 1.75e-4,-1.86373 -0.0085,-0.15493 -0.08484,-0.29851 -0.12726,-0.44776 -0.840478,-0.22373 -1.653931,-0.60872 -2.521431,-0.6712 -0.166854,-0.012 0.06815,0.32854 0.08037,0.49538 0.03072,0.4195 0.04462,0.84034 0.04825,1.26095 0.01945,2.25787 -0.127458,4.51382 -0.274627,6.76536 -0.235646,3.05841 -0.471292,6.12065 -0.930177,9.15554 -0.275199,1.97654 2.520061,2.36573 2.795259,0.38919 z"
       id="path970"
       style="fill:#ffffff;fill-opacity:1;fill-rule:nonzero;stroke:none;stroke-width:0.264583" />
    <path
       d="m 40.466408,253.87494 c 0.01154,0.0333 0.01894,0.0683 0.03459,0.0998 0.603285,1.21549 -0.01789,-0.16376 0.809511,1.6444 0.834724,1.82414 1.585624,3.68181 2.335652,5.5418 0.726289,1.78577 1.362752,3.60724 2.094992,5.39063 0.147368,0.35892 0.296683,0.71745 0.464317,1.06736 0.10168,0.21224 0.107426,0.61366 0.342739,0.61724 0.901044,0.0137 1.761524,-0.38119 2.642285,-0.57179 -0.07754,-0.48805 -0.111096,-0.98517 -0.232637,-1.46417 -0.137055,-0.54014 -1.091949,-3.0046 -1.229249,-3.35657 -0.538851,-1.38133 -1.26001,-3.14564 -1.803493,-4.518 -0.294537,-0.74374 -0.583001,-1.48987 -0.874503,-2.2348 -0.470937,-1.26568 -0.901489,-2.3633 -1.30125,-3.64206 -0.118674,-0.37961 -0.231378,-0.76195 -0.316019,-1.15057 -0.03175,-0.14576 0.06629,-0.55878 -0.0318,-0.4464 -1.58531,1.81621 0.04366,1.42643 -1.951488,1.5332 0.184613,0.36482 0.375481,0.72654 0.553842,1.09446 0.509881,1.05176 1.241655,2.6562 1.710989,3.68985 0.932349,2.05337 1.8445,4.11519 2.746436,6.18206 0.220485,0.50378 0.438533,1.00863 0.661458,1.51134 0.141751,0.31965 0.284911,0.63871 0.432544,0.9557 0.495255,1.06335 0.838461,1.08973 2.511869,-1.35525 0.226028,-0.33024 -0.325459,-0.73122 -0.485346,-1.09808 -0.226756,-0.52029 -0.449713,-1.04223 -0.674569,-1.56334 -0.753594,-1.86439 -1.599975,-3.70481 -2.143691,-5.64592 -0.01778,-0.0635 0.121796,0.15325 0.06504,0.18682 -0.725446,0.42916 -1.512438,0.74454 -2.268657,1.11681 1.348706,1.47087 3.428833,-0.43649 2.080128,-1.90736 v 0 c -0.877602,0.2399 -1.834703,0.28291 -2.632803,0.71969 -0.203076,0.11113 0.0054,0.46582 0.05234,0.6925 0.06796,0.32825 0.182697,0.64535 0.29038,0.9628 0.57481,1.6945 1.281935,3.34099 1.96601,4.99287 0.228227,0.52882 0.454533,1.05849 0.684684,1.58648 0.153648,0.3525 0.08394,1.01816 0.466706,1.05496 4.365535,0.41978 3.087325,0.016 2.65892,-0.90695 -0.142243,-0.30644 -0.281165,-0.61444 -0.418119,-0.92329 -0.222512,-0.50179 -0.440169,-1.00572 -0.660254,-1.50859 -0.908648,-2.08206 -1.827424,-4.15911 -2.766772,-6.22756 -0.375632,-0.82714 -1.341181,-2.94657 -1.770798,-3.81261 -0.234085,-0.47188 -0.490757,-0.93222 -0.736134,-1.39833 -0.648269,-0.39655 -1.19025,-1.27993 -1.944804,-1.18965 -1.994395,0.23863 -1.029727,2.87729 -0.752414,3.76192 0.414469,1.32217 0.85857,2.45527 1.345419,3.76298 0.29427,0.75192 0.585505,1.50504 0.882806,2.25577 0.546092,1.37896 1.244211,3.08603 1.786422,4.47434 0.233659,0.59827 0.464492,1.1977 0.687202,1.80014 0.15829,0.42818 0.263843,0.87724 0.455711,1.29147 0.0326,0.0704 0.132431,0.0808 0.198646,0.12123 0.855475,-0.0748 1.731801,-0.0223 2.566424,-0.2244 0.130879,-0.0317 -0.148966,-0.22538 -0.207153,-0.34681 -0.152858,-0.31902 -0.290602,-0.64521 -0.424974,-0.97244 -0.735401,-1.79091 -1.373981,-3.62031 -2.104043,-5.41336 -0.708099,-1.75518 -0.939885,-2.36291 -1.678818,-4.0695 -0.236715,-0.5467 -0.478653,-1.09119 -0.727329,-1.63256 -0.212839,-0.46335 -0.658725,-1.40882 -0.955429,-1.91186 -0.103526,-0.17552 -0.227126,-0.3384 -0.340688,-0.5076 -1.337278,-1.48127 -3.432109,0.40993 -2.094831,1.8912 z"
       id="path972"
       style="fill:#ffffff;fill-opacity:1;fill-rule:nonzero;stroke:none;stroke-width:0.264583" />
    <path
       d="m 50.100808,266.04317 c 0.03391,-0.2003 0.07296,-0.3998 0.101722,-0.60091 0.2403,-1.6806 0.371885,-3.37854 0.502248,-5.0702 0.155802,-2.02174 0.22865,-3.25586 0.359037,-5.28334 0.115228,-2.04455 0.147791,-2.49974 0.233579,-4.44882 0.02532,-0.57547 0.07167,-1.74421 0.08276,-2.40725 0.0019,-0.10704 0.102815,-0.32271 -0.0042,-0.32112 -0.957516,0.0142 -1.899867,0.2422 -2.849801,0.3633 -0.132114,2.71002 -0.284704,5.41979 -0.564081,8.11939 -0.244009,2.35783 -0.359211,3.01379 -0.688342,5.32693 -0.136766,0.84537 -0.419066,2.67501 -0.614892,3.62349 -0.03731,0.18073 -0.332102,0.52276 -0.14787,0.53353 0.868685,0.0507 1.773216,-0.0678 2.580992,-0.39137 0.207827,-0.0833 0.05698,-0.44475 0.06503,-0.66849 0.02294,-0.63742 0.0186,-1.27554 0.02788,-1.91331 0.07423,-2.70127 0.291053,-5.39602 0.570125,-8.08305 0.181364,-1.74625 0.417255,-3.4857 0.603231,-5.23132 -0.471747,-0.52064 -0.721791,-1.67477 -1.415235,-1.56191 -1.577226,0.25671 -1.884463,2.98333 -2.11282,4.04898 -0.501427,2.33997 -0.555106,2.66588 -1.021476,5.03539 -0.385313,1.95807 2.383805,2.50298 2.769115,0.54492 v 0 c 0.469657,-2.38717 0.504302,-2.61581 1.00842,-4.97278 0.13588,-0.6353 0.665567,-1.3024 0.418955,-1.90344 -0.363178,-0.88512 -3.464526,2.06945 -2.453352,-1.48966 -0.186462,1.75606 -0.424384,3.50573 -0.606364,5.26243 -0.286216,2.76291 -0.507738,5.53378 -0.582549,8.31129 -0.009,0.67869 -0.04657,1.3576 -0.02691,2.03606 0.01577,0.5438 -0.335885,1.35083 0.133041,1.62664 0.79566,0.46797 1.868434,0.28633 2.768084,0.0797 0.255587,-0.0587 0.145597,-0.5044 0.198853,-0.76118 0.196823,-0.949 0.496988,-2.89367 0.631899,-3.7288 0.125383,-0.88332 0.262133,-1.7651 0.376155,-2.64995 0.470165,-3.64864 0.735555,-7.31803 0.897165,-10.99231 -0.929013,-0.17167 -1.848469,-0.40719 -2.787033,-0.51503 -0.06471,-0.007 0.006,0.13023 0.0048,0.19535 -0.0052,0.29509 -0.01373,0.59012 -0.02386,0.88508 -0.06712,1.95669 -0.170982,3.91195 -0.2877,5.86624 -0.129305,2.0115 -0.200919,3.2256 -0.355108,5.2301 -0.124153,1.61405 -0.249375,3.234 -0.473202,4.8382 -0.0231,0.1656 -0.05458,0.32992 -0.08187,0.49487 -0.404722,1.95414 2.358851,2.52651 2.763573,0.57237 z"
       id="path974"
       style="fill:#ffffff;fill-opacity:1;fill-rule:nonzero;stroke:none;stroke-width:0.264583" />
    <path
       d="m 59.108627,252.02526 c -0.258384,0.97133 0.0068,0.13359 -2.668723,0.12752 -0.01582,-3e-5 -0.04516,-0.0267 -0.04617,-0.0109 -0.01606,0.25043 0.0037,0.50194 -0.0013,0.75283 -0.0093,0.46051 -0.02061,0.92106 -0.04175,1.38117 -0.03029,0.65913 -0.07501,1.31751 -0.112514,1.97627 -0.321726,4.50376 -0.880761,8.98569 -1.270432,13.48365 -0.230761,0.94633 -0.492386,1.92442 2.79812,-0.36876 0.426686,-0.29736 0.03248,-1.03966 0.05298,-1.55934 0.104783,-2.65619 0.260474,-5.30731 0.433692,-7.9598 0.180112,-2.29709 0.356928,-4.59732 0.658294,-6.88261 0.04456,-0.33791 0.110034,-0.67275 0.160636,-1.00981 0.01236,-0.0823 0.03667,0.2349 -0.04587,0.24534 -0.884942,0.11197 -1.782776,0.0659 -2.674163,0.0988 -0.04101,0.50625 -0.07518,1.0131 -0.123023,1.51875 -0.242144,2.55892 -0.569203,5.10922 -0.882187,7.66008 -0.427971,3.48806 -0.237143,1.86871 -0.606748,5.13161 -0.05155,0.59522 -0.114183,1.18958 -0.154649,1.78566 -0.113919,1.67809 -0.226756,3.32491 2.891502,0.80029 0.396404,-0.32094 0.0506,-1.01891 0.06354,-1.52879 0.01796,-0.70744 0.01945,-1.4152 0.02916,-2.1228 0.024,-2.43485 2.64e-4,-4.87019 0.04366,-7.30489 0.0095,-0.53276 0.01871,-1.06573 0.04593,-1.59788 0.0098,-0.19177 0.25704,-0.5673 0.0651,-0.57235 -0.917557,-0.0242 -1.804895,0.33516 -2.707341,0.50274 0.02893,3.3633 -0.203171,6.72107 -0.415034,10.07561 -0.125767,1.99164 2.690844,2.16951 2.816611,0.17786 v 0 c 0.08353,-1.32295 0.195117,-3.03759 0.261456,-4.33439 0.07191,-1.40571 0.163518,-3.35768 0.1577,-4.78829 -0.0024,-0.57269 -0.04005,-1.14469 -0.06007,-1.71703 -0.953244,-0.0716 -1.921592,-0.39845 -2.859731,-0.21488 -0.259768,0.0508 -0.06603,0.52573 -0.07976,0.79007 -0.02853,0.54955 -0.03716,1.1 -0.04694,1.6502 -0.04322,2.43144 -0.01995,4.86351 -0.04355,7.2951 -0.0091,0.68312 -0.01164,1.36636 -0.02721,2.04936 -0.01021,0.44808 -0.417399,1.0868 -0.05011,1.34366 3.108055,2.1736 2.649508,0.8869 2.726846,-0.26087 0.03848,-0.57108 0.09812,-1.14053 0.147177,-1.7108 0.366945,-3.24084 0.176334,-1.62235 0.603628,-5.10517 0.317889,-2.59106 0.654506,-5.18202 0.894475,-7.7819 0.05238,-0.56751 0.0877,-1.13645 0.131548,-1.70468 -0.884828,-0.47727 -1.687386,-1.15718 -2.654488,-1.43183 -0.209989,-0.0596 -0.184769,0.39881 -0.235143,0.61121 -0.08745,0.36874 -0.126738,0.74744 -0.176189,1.12316 -0.307043,2.33284 -0.487746,4.68083 -0.671293,7.02567 -0.174934,2.68188 -0.33248,5.36239 -0.438062,8.04802 -0.02096,0.53297 -0.442394,1.2336 -0.05406,1.59925 2.653181,2.49816 2.660425,1.79058 2.835251,0.66792 0.391798,-4.52586 0.95644,-9.03543 1.276435,-13.56745 0.0892,-1.58089 0.134461,-2.05356 0.158787,-3.52062 0.0051,-0.30505 0.01355,-0.61065 -0.0035,-0.91527 -0.01299,-0.23243 0.136493,-0.62568 -0.08634,-0.69301 -0.857774,-0.25918 -1.788927,-0.17816 -2.684359,-0.14416 -0.08727,0.003 -0.05404,0.1661 -0.08106,0.24915 -0.450673,1.94406 2.298642,2.5814 2.749314,0.63734 z"
       id="path976"
       style="fill:#ffffff;fill-opacity:1;fill-rule:nonzero;stroke:none;stroke-width:0.264583" />
    <path
       d="m 53.671847,259.00347 c 1.581552,-0.72669 3.168737,-1.44676 4.799187,-2.05861 0.34449,-0.12927 0.694359,-0.24373 1.04154,-0.3656 0.213802,-0.0561 0.428117,-0.11021 0.641403,-0.16821 0.09187,-0.025 -0.22498,0.14882 -0.277101,0.0692 -0.439142,-0.67121 -0.554945,-1.54521 -1.083402,-2.14862 -0.135504,-0.15472 -0.364419,0.19082 -0.544978,0.28929 -0.372282,0.20304 -0.742329,0.41014 -1.113494,0.61521 -0.434295,0.23595 -0.868588,0.47191 -1.302883,0.70786 -0.518765,0.29244 -1.565507,0.85586 -2.092502,1.23958 -0.188232,0.13706 -0.601377,0.24596 -0.521546,0.46469 0.323283,0.88578 0.767,1.84424 1.553866,2.36382 0.39384,0.26007 0.901017,-0.28322 1.341876,-0.4517 0.553847,-0.21165 1.093542,-0.45862 1.640311,-0.68794 1.799931,-0.78141 3.586737,-1.59242 5.375418,-2.39908 0.290047,-0.1308 0.579975,-0.26188 0.870458,-0.39171 0.0037,-0.002 0.01453,5.3e-4 0.01196,-0.003 -0.603972,-0.75633 -1.213678,-1.50807 -1.820518,-2.2621 -1.825353,0.83314 -3.654751,1.65792 -5.494666,2.45851 -0.619699,0.26964 -1.240263,0.53738 -1.863754,0.79814 -1.279689,0.53518 -0.89327,0.41132 -1.698199,0.63614 0.529302,0.74698 0.819732,1.74289 1.587907,2.24092 0.326454,0.21165 0.688002,-0.36353 1.034312,-0.54084 0.563147,-0.28832 1.128014,-0.5733 1.694,-0.856 1.65707,-0.8277 3.322664,-1.6383 4.981136,-2.4632 0.159105,-0.0807 0.556136,-0.082 0.477314,-0.24206 -0.421286,-0.85535 -0.88908,-1.81954 -1.721615,-2.28429 -0.401135,-0.22393 -0.81357,0.42698 -1.219224,0.64262 -0.775345,0.41215 -2.664909,1.41988 -3.414175,1.85072 -0.470895,0.27077 -0.928619,0.56384 -1.392928,0.84576 -1.704912,1.03718 -0.238117,3.4483 1.466794,2.41112 v 0 c 0.42822,-0.26105 0.849932,-0.53309 1.284663,-0.78315 0.740609,-0.426 2.607718,-1.42174 3.371581,-1.82781 0.403106,-0.21428 1.16468,-0.18449 1.211574,-0.6386 0.09815,-0.95042 -0.417179,-1.88841 -0.863359,-2.73331 -0.07985,-0.15121 -0.304993,0.15473 -0.457488,0.2321 -2.248371,1.11835 -0.26806,0.13536 -3.038912,1.50295 -0.921176,0.45466 -2.768436,1.36226 -3.710953,1.85482 -0.449435,0.23487 -1.265775,0.22539 -1.33604,0.72761 -0.133636,0.95516 0.564777,1.84439 0.847167,2.76659 0.218069,-0.0669 0.440462,-0.12099 0.654206,-0.20061 0.798491,-0.29743 2.585095,-1.07029 3.245247,-1.35756 1.857552,-0.80832 3.704497,-1.64105 5.547285,-2.48237 -0.132172,-0.97518 -0.213883,-1.95854 -0.396515,-2.92555 -0.0097,-0.0512 -0.09733,0.0374 -0.144965,0.0585 -0.291949,0.12945 -0.582567,0.26188 -0.873691,0.39317 -1.766305,0.79657 -3.530775,1.5974 -5.307923,2.36966 -0.504764,0.21282 -1.009311,0.42616 -1.514292,0.63848 -0.240834,0.10125 -0.726631,0.041 -0.723154,0.30222 0.01143,0.85906 0.506629,1.64187 0.759944,2.46281 0.02286,-0.0359 0.03401,-0.0828 0.06862,-0.10758 0.243078,-0.17374 0.498877,-0.32938 0.755899,-0.48173 0.385924,-0.22877 0.78151,-0.44083 1.172268,-0.66124 0.306734,-0.16667 2.201701,-1.19124 2.540789,-1.39482 0.360545,-0.21647 0.995389,-0.27346 1.056505,-0.68953 0.332139,-2.26122 0.0659,-2.86149 -1.355461,-2.65382 -0.289316,0.0423 -0.564017,0.15442 -0.846026,0.23164 -0.381111,0.13455 -0.765024,0.26141 -1.143334,0.40365 -1.670367,0.62805 -3.297642,1.36405 -4.918262,2.10895 -1.819844,0.81891 -0.661718,3.39256 1.158129,2.57364 z"
       id="path978"
       style="fill:#ffffff;fill-opacity:1;fill-rule:nonzero;stroke:none;stroke-width:0.264583" />
    <path
       d="m 40.6974,287.1187 c 1.358001,0.19389 0.83229,-0.12413 0.894671,-2.73293 7.93e-4,-0.0378 -0.485217,-0.0857 -0.513041,-0.089 -0.289245,0.003 -0.513291,-0.0183 -0.797248,0.11627 -0.890447,0.42205 -1.220964,1.22731 -0.799221,2.15711 0.103095,0.22729 0.337232,0.368 0.505849,0.55201 0.144706,0.0706 0.281755,0.15979 0.434123,0.21187 0.742862,0.25389 1.53966,-0.0389 1.924896,-0.79252 0.364522,-0.71313 0.04949,-1.06425 -0.241019,-1.59323 -0.118179,-0.10839 -0.220914,-0.23652 -0.354539,-0.32517 -0.530045,-0.35165 -1.153501,-0.38593 -1.726076,-0.10653 -0.388903,0.18978 -0.471654,0.38667 -0.705683,0.7148 -0.05407,0.16285 -0.153837,0.31717 -0.162208,0.48856 -0.03959,0.81073 0.16138,1.2336 0.978204,1.64309 0.491823,0.24656 1.037545,0.003 1.455129,-0.23061 0.08052,-0.0631 0.178763,-0.10846 0.241567,-0.18918 0.525333,-0.6752 0.639395,-0.95101 0.220533,-1.91125 -0.167632,-0.38429 -0.669494,-0.55734 -1.039643,-0.65572 -0.0173,-0.005 -0.06883,-0.0195 -0.05192,-0.0136 0.260567,0.0902 0.08577,0.01 0.331116,0.13925 -1.654966,-1.11515 -3.232023,1.22532 -1.577057,2.34047 v 0 c 0.198014,0.11477 0.391972,0.23247 0.621913,0.27399 -0.245866,-0.12026 -0.510796,-0.19714 -0.628708,-0.513 -0.284369,-0.76174 -0.291698,-1.40422 0.381463,-1.86107 0.738611,-0.34354 1.385856,0.0348 1.782075,0.7465 0.11989,0.21534 0.07916,0.49095 0.06188,0.73681 -0.009,0.12878 -0.09271,0.24099 -0.139062,0.36148 -0.170151,0.21157 -0.235252,0.34409 -0.506778,0.45343 -0.412694,0.16621 -0.847055,0.13181 -1.203375,-0.13983 -0.07774,-0.0593 -0.134289,-0.1421 -0.201435,-0.21314 -0.211556,-0.44957 -0.434766,-0.74618 -0.09767,-1.33123 0.320643,-0.5565 0.981004,-0.9344 1.58646,-0.67978 0.0902,0.0379 0.169238,0.0983 0.253855,0.14742 0.121086,0.15013 0.296211,0.26954 0.36326,0.45038 0.09502,0.25629 0.154093,0.54431 0.105219,0.81324 -0.109622,0.60321 -0.667655,1.07933 -1.272802,1.01971 -0.02476,-0.0116 -0.0808,-0.002 -0.07666,-0.0293 0.464659,-3.03488 0.918848,-2.69518 0.469141,-2.73374 -1.961814,-0.36572 -2.479024,2.4087 -0.517208,2.77443 z"
       id="path980"
       style="fill:#ffffff;fill-opacity:1;fill-rule:nonzero;stroke:none;stroke-width:0.264583" />
    <path
       d="m 52.215316,280.4994 c -0.116429,-0.0176 -0.231574,-0.05 -0.349292,-0.0528 -0.775973,-0.0184 -1.554813,0.32975 -1.908119,1.06242 -0.103881,0.21543 -0.125564,0.46155 -0.188347,0.69233 0.06114,0.28935 0.05025,0.60399 0.183417,0.86804 0.365118,0.72399 1.174097,1.01403 1.930168,0.88585 0.461571,-0.0783 0.591886,-0.22475 0.964342,-0.4779 0.126225,-0.16178 0.294511,-0.29821 0.378672,-0.48536 0.365247,-0.8122 0.182454,-1.56985 -0.539485,-2.09311 -0.376341,-0.27277 -0.592977,-0.24438 -1.033873,-0.30184 -0.242059,0.0666 -0.50968,0.0727 -0.726178,0.19985 -0.675103,0.39639 -0.977252,1.20992 -0.703284,1.94201 0.200756,0.53645 0.389258,0.58548 0.814136,0.8991 0.229743,0.0536 0.454361,0.18301 0.689229,0.16082 0.835261,-0.0789 1.265415,-0.43937 1.486856,-1.27996 0.129836,-0.49286 -0.142487,-0.97047 -0.423109,-1.32976 -0.08071,-0.10334 -0.192847,-0.1777 -0.289271,-0.26656 -0.74811,-0.4342 -0.245245,-0.23307 -1.609834,-0.21993 -1.847826,0.75366 -0.781989,3.36688 1.065837,2.61322 v 0 c -1.114319,-0.0653 -0.751311,0.13788 -1.231903,-0.19986 -0.507402,-0.59064 -0.398454,-1.39517 0.246674,-1.89985 0.54261,-0.42449 0.854776,-0.2293 1.368991,-0.0813 0.298358,0.24874 0.430797,0.28979 0.553953,0.69429 0.177768,0.58387 -0.126677,1.19408 -0.661233,1.4691 -0.174279,0.0897 -0.38358,0.0807 -0.575371,0.12104 -0.2662,-0.055 -0.412404,-0.0472 -0.624457,-0.23278 -0.502155,-0.43939 -0.557479,-1.01829 -0.256733,-1.597 0.0582,-0.11199 0.17262,-0.18418 0.258929,-0.27627 0.07179,-0.0368 0.139177,-0.0839 0.215361,-0.11034 0.502909,-0.1749 1.08168,0.20021 1.259464,0.67399 0.07254,0.1933 0.0439,0.41058 0.06584,0.61587 -0.05259,0.13258 -0.08259,0.27653 -0.157771,0.39773 -0.197183,0.31787 -0.579488,0.45035 -0.92579,0.33721 1.92917,0.51066 2.651347,-2.2176 0.722177,-2.72826 z"
       id="path982"
       style="fill:#ffffff;fill-opacity:1;fill-rule:nonzero;stroke:none;stroke-width:0.264583" />
    <path
       d="m 45.93002,290.63128 c 0.262017,-0.42623 0.706025,-0.67322 1.121437,-0.92661 0.912481,-0.57619 1.851231,-0.81041 2.900058,-0.98841 0.288324,-0.0373 0.545139,-0.0782 0.83416,-0.0889 0.227962,-0.008 0.184584,-0.0512 0.249176,0.0329 1.962518,0.36193 2.474368,-2.41349 0.51185,-2.77542 v 0 c -0.170828,-0.0242 -0.340384,-0.0603 -0.512485,-0.0725 -0.523705,-0.0369 -1.048152,0.0593 -1.56492,0.1231 -0.54365,0.0958 -0.79048,0.12789 -1.333622,0.27278 -0.908074,0.24224 -1.771293,0.60931 -2.573747,1.09921 -0.178295,0.11219 -0.360752,0.21802 -0.534885,0.33657 -0.596799,0.40628 -1.131334,0.9013 -1.50877,1.52144 -1.036437,1.70536 1.375312,3.1711 2.411748,1.46574 z"
       id="path984"
       style="fill:#ffffff;fill-opacity:1;fill-rule:nonzero;stroke:none;stroke-width:0.264583" />
    <path
       d="m 39.560646,282.87751 c 0.661136,0.11094 1.308637,0.29149 1.953837,0.47075 0.343413,0.10417 0.690628,0.19619 1.033854,0.30096 0.03082,0.009 0.120936,0.0445 0.09116,0.0322 -0.04502,-0.0186 -0.09129,-0.0341 -0.136932,-0.0512 1.758757,0.94299 3.092355,-1.54426 1.333598,-2.48726 v 0 c -0.09833,-0.0453 -0.194702,-0.0951 -0.295008,-0.13591 -0.409136,-0.16623 -0.858512,-0.2264 -1.272273,-0.37837 -0.786183,-0.21778 -1.576234,-0.43681 -2.384742,-0.55485 -1.98246,-0.22874 -2.305952,2.57488 -0.323493,2.80362 z"
       id="path986"
       style="fill:#ffffff;fill-opacity:1;fill-rule:nonzero;stroke:none;stroke-width:0.264583" />
    <path
       d="m 49.040994,281.71692 c 0.285615,-0.50308 0.521295,-1.03193 0.756705,-1.55968 0.201338,-0.46371 0.412255,-0.92302 0.628518,-1.37992 0.853675,-1.8038 -1.697286,-3.01108 -2.550962,-1.20728 v 0 c -0.2253,0.47612 -0.445203,0.9547 -0.655129,1.43783 -0.198678,0.44571 -0.395171,0.89361 -0.635315,1.31905 -0.982879,1.73678 1.473303,3.12679 2.456183,1.39 z"
       id="path992"
       style="fill:#ffffff;fill-opacity:1;fill-rule:nonzero;stroke:none;stroke-width:0.264583" />
  </g>
</svg>
