<?xml version="1.0" encoding="UTF-8" standalone="no"?>
<svg
   xmlns:dc="http://purl.org/dc/elements/1.1/"
   xmlns:cc="http://creativecommons.org/ns#"
   xmlns:rdf="http://www.w3.org/1999/02/22-rdf-syntax-ns#"
   xmlns:svg="http://www.w3.org/2000/svg"
   xmlns="http://www.w3.org/2000/svg"
   xmlns:sodipodi="http://sodipodi.sourceforge.net/DTD/sodipodi-0.dtd"
   xmlns:inkscape="http://www.inkscape.org/namespaces/inkscape"
   inkscape:version="1.0 (1.0+r73+1)"
   sodipodi:docname="release.svg"
   id="svg8"
   version="1.1"
   viewBox="0 0 64 64"
   height="64mm"
   width="64mm">
  <defs
     id="defs2" />
  <sodipodi:namedview
     inkscape:document-rotation="0"
     inkscape:window-maximized="1"
     inkscape:window-y="27"
     inkscape:window-x="0"
     inkscape:window-height="1016"
     inkscape:window-width="1920"
     inkscape:snap-page="true"
     showgrid="false"
     inkscape:current-layer="layer1"
     inkscape:document-units="mm"
     inkscape:cy="110.27027"
     inkscape:cx="68.750268"
     inkscape:zoom="3"
     inkscape:pageshadow="2"
     inkscape:pageopacity="0.0"
     borderopacity="1.0"
     bordercolor="#666666"
     pagecolor="#ffffff"
     id="base" />
  <metadata
     id="metadata5">
    <rdf:RDF>
      <cc:Work
         rdf:about="">
        <dc:format>image/svg+xml</dc:format>
        <dc:type
           rdf:resource="http://purl.org/dc/dcmitype/StillImage" />
        <dc:title></dc:title>
      </cc:Work>
    </rdf:RDF>
  </metadata>
  <g
     transform="translate(0,-233)"
     id="layer1"
     inkscape:groupmode="layer"
     inkscape:label="Layer 1">
    <rect
       y="233"
       x="0"
       height="64"
       width="64"
       id="rect3713"
       style="fill:#03a9f4;stroke-width:0.26458332;fill-opacity:1" />
    <path
       d="m 14.494962,237.56727 c 0.224733,-0.19086 0.430983,-0.40138 0.618958,-0.62816 0.391942,-1.7078 0.709809,-1.34668 -1.724828,-2.16398 -0.130648,-0.0439 -0.245,0.12675 -0.362747,0.19836 -0.570643,0.34706 -1.106645,0.76602 -1.645985,1.15734 -2.0458861,1.53803 -4.0604403,3.11649 -6.1104446,4.64928 -1.4775868,1.10543 -2.9679218,2.19414 -4.42796509,3.32283 -0.0586989,0.0462 -0.11739769,0.0925 -0.17609653,0.13873 -1.56723173,1.23542 0.17991089,3.45182 1.74714272,2.2164 v 0 c 0.051743,-0.0408 0.103485,-0.0816 0.1552276,-0.12244 1.4478521,-1.11966 2.9266321,-2.19852 4.391753,-3.29529 2.0392364,-1.52489 4.0441359,-3.09397 6.0781779,-4.62551 0.22795,-0.16552 0.454906,-0.33242 0.683847,-0.49656 0.246506,-0.17674 0.504176,-0.33783 0.747229,-0.51929 0.0041,-0.003 -6.35e-4,-0.0119 -0.005,-0.0144 -2.181756,-1.25655 -2.013765,-0.35668 -1.568365,-2.19043 0.01202,-0.013 0.04657,-0.0532 0.03605,-0.039 -0.07365,0.0997 -0.178533,0.17542 -0.265279,0.26226 -1.520202,1.29285 0.308162,3.44274 1.828363,2.14989 z"
       id="path2569"
       style="fill:#ffffff;fill-opacity:1;fill-rule:nonzero;stroke:none;stroke-width:0.264583" />
    <path
       d="m 14.073655,237.52832 c 0.0019,0.006 6.62e-4,0.0139 0.0057,0.0174 0.393167,0.27337 0.06663,-0.004 0.569225,0.39351 0.305734,0.24171 0.561283,0.46086 0.804423,0.7692 0.115433,0.14639 0.206307,0.31057 0.309461,0.46585 0.312897,0.62638 0.428984,1.30247 0.262606,1.98967 -0.09448,0.39022 -0.194857,0.52507 -0.38202,0.87778 -0.43398,0.61784 -0.98474,1.16599 -1.672682,1.49713 -0.439507,0.21155 -0.582021,0.20731 -1.054711,0.29808 -1.063021,0.0575 -2.037161,-0.33495 -2.9196897,-0.89794 -0.1780696,-0.11359 -0.3471452,-0.2407 -0.5207177,-0.36106 -0.3938082,-0.30508 -0.7910012,-0.60501 -1.1964053,-0.89443 -1.6260053,-1.15697 -3.2622056,1.14255 -1.6362003,2.29952 v 0 c 0.42129,0.2985 0.8278516,0.61622 1.2411911,0.92565 0.6029439,0.40702 0.8886928,0.62883 1.5590803,0.95471 0.9465566,0.46014 1.9697326,0.76538 3.0285336,0.7897 0.359521,0.008 0.717895,-0.0438 1.076843,-0.0657 0.891868,-0.22356 1.097672,-0.21682 1.914178,-0.65296 0.840116,-0.44876 1.594133,-1.10615 2.177463,-1.85689 0.200261,-0.25774 0.364303,-0.54167 0.546455,-0.81251 0.346766,-0.76 0.501914,-0.97179 0.645785,-1.8093 0.172239,-1.00266 0.06405,-2.03622 -0.306243,-2.98316 -0.12529,-0.32039 -0.30492,-0.61678 -0.45738,-0.92518 -0.192338,-0.26355 -0.367159,-0.54083 -0.577013,-0.79067 -0.646668,-0.76987 -1.52803,-1.43056 -2.431176,-1.87254 -1.869677,-0.69769 -2.856364,1.94643 -0.986687,2.64413 z"
       id="path2571"
       style="fill:#ffffff;fill-opacity:1;fill-rule:nonzero;stroke:none;stroke-width:0.264583" />
    <path
       d="m 6.7728342,242.37192 c -0.1212371,1.22708 -0.4574244,2.42642 -0.7453982,3.62233 -0.4136922,1.65612 -0.7870515,3.32146 -1.1040213,4.99872 -0.3701727,1.96098 2.4030715,2.48449 2.7732442,0.52351 v 0 c 0.3076077,-1.63148 0.6725369,-3.25084 1.0746054,-4.86167 0.3332724,-1.38464 0.7219143,-2.77513 0.822602,-4.20094 0.057944,-1.99477 -2.7630886,-2.07672 -2.8210321,-0.0819 z"
       id="path2573"
       style="fill:#ffffff;fill-opacity:1;fill-rule:nonzero;stroke:none;stroke-width:0.264583" />
    <path
       d="m 13.449383,251.71141 c 0.481005,0.86622 0.885573,1.77071 1.288497,2.67491 0.448162,1.02798 0.941063,2.0351 1.467791,3.02485 0.246838,0.4581 0.509031,0.9077 0.781332,1.35107 0.210896,0.34734 0.434582,0.61121 0.889799,0.75105 0.275244,0.0845 0.577228,0.0264 0.863814,-0.002 0.101653,-0.01 0.190562,-0.0736 0.285843,-0.11034 0.831108,-0.38088 1.580258,-0.90551 2.304092,-1.45799 0.788589,-0.66243 1.573331,-1.39952 1.9957,-2.3608 0.08654,-0.19696 0.141085,-0.40648 0.211628,-0.60972 0.03044,-0.23729 0.08732,-0.47267 0.0913,-0.71187 0.01623,-0.97343 -0.425626,-1.85508 -0.995237,-2.61517 -0.126277,-0.16851 -0.268133,-0.32475 -0.402199,-0.48713 -0.586526,-0.66262 -1.298289,-1.17514 -2.10484,-1.53659 -0.517356,-0.23186 -0.777744,-0.29463 -1.315953,-0.461 -0.906585,-0.25969 -1.846134,-0.35157 -2.78433,-0.24212 -0.684549,0.0799 -0.874789,0.15917 -1.543497,0.34136 -1.214567,0.41008 -2.363393,1.01621 -3.368718,1.81471 -0.194672,0.15462 -0.377161,0.32399 -0.565742,0.48598 -0.907931,0.88302 -1.7128123,1.9453 -1.9270367,3.22868 -0.051525,0.30867 -0.044862,0.62428 -0.067293,0.93642 0.045339,0.33249 0.059324,0.67078 0.1360183,0.99746 0.234183,0.9975 0.7448899,1.90575 1.3571204,2.7164 0.371983,0.49255 0.723889,0.84845 1.139937,1.29383 1.365425,1.45536 3.423618,-0.47564 2.058192,-1.93101 v 0 c -0.809966,-0.85877 -1.646644,-1.76125 -1.871323,-2.96332 -0.01407,-0.34089 -0.04367,-0.38743 0.05284,-0.71952 0.1642,-0.56502 0.573925,-1.01666 0.973002,-1.4289 0.130977,-0.11577 0.257237,-0.2371 0.392931,-0.3473 0.731286,-0.59389 1.56991,-1.04858 2.454762,-1.36678 0.169856,-0.0502 0.337568,-0.10824 0.509569,-0.15046 0.743317,-0.18245 1.497575,-0.17977 2.233969,0.0352 0.819576,0.24227 1.488562,0.46202 2.079445,1.11228 0.300425,0.3477 0.623643,0.71546 0.77301,1.15811 -0.01012,0.0552 -0.01287,0.11233 -0.03036,0.16569 -0.187238,0.57108 -0.776775,1.0177 -1.200714,1.40641 -0.540661,0.41746 -1.098435,0.8155 -1.716961,1.11137 0.629929,-0.16111 1.18039,0.0448 1.560083,0.57233 0.02365,0.0329 -0.106756,-0.16404 -0.06421,-0.1031 -0.242116,-0.39391 -0.475294,-0.79334 -0.694954,-1.20026 -0.496314,-0.93119 -0.95939,-1.87951 -1.381034,-2.84713 -0.424818,-0.95294 -0.852178,-1.9059 -1.357932,-2.81949 -0.914656,-1.77366 -3.422991,-0.48014 -2.508335,1.29352 z"
       id="path2577"
       style="fill:#ffffff;fill-opacity:1;fill-rule:nonzero;stroke:none;stroke-width:0.264583" />
    <path
       d="m 29.990961,253.04557 c -1.267653,0.50664 -2.389047,1.29442 -3.51191,2.05618 -2.33782,1.66774 -4.806886,3.13435 -7.2449,4.64716 -0.978928,0.63798 -1.975646,1.2809 -2.792835,2.12741 -0.447692,0.46376 -0.853157,0.98444 -1.069512,1.6027 -0.109857,0.31393 -0.128855,0.65259 -0.193282,0.97888 0.155074,1.00048 0.05988,1.14061 0.649243,1.98933 0.431705,0.62169 0.893148,0.94004 1.46363,1.41179 1.552396,1.254 3.325831,-0.94142 1.773435,-2.19542 v 0 c -0.166159,-0.12936 -0.33574,-0.25445 -0.498478,-0.38808 -0.110751,-0.091 -0.214577,-0.19002 -0.321581,-0.28535 -0.05396,-0.0481 -0.101102,-0.10489 -0.161309,-0.14486 -0.03054,-0.0203 -0.07012,-0.0214 -0.105178,-0.0321 -0.01732,-0.0448 -0.05615,-0.0866 -0.05198,-0.13446 0.02511,-0.28783 0.248807,-0.53485 0.428988,-0.72843 0.679992,-0.73057 1.543062,-1.25709 2.366968,-1.80343 2.470782,-1.5334 4.972568,-3.0207 7.342267,-4.7104 0.966285,-0.65686 1.925206,-1.34947 3.016491,-1.78775 1.840748,-0.77079 0.750689,-3.374 -1.09006,-2.60321 z"
       id="path2579"
       style="fill:#ffffff;fill-opacity:1;fill-rule:nonzero;stroke:none;stroke-width:0.264583" />
    <path
       d="m 24.265178,265.71812 c 0.560718,0.79782 1.189407,1.54584 1.815515,2.29256 0.839566,0.95941 1.697416,1.90172 2.512449,2.88233 0.436195,0.53163 0.871842,1.06469 1.35078,1.55876 0.410885,0.40946 0.940022,0.64159 1.530109,0.60596 0.442715,-0.0267 0.644586,-0.15224 1.042199,-0.32106 0.943068,-0.52848 1.787742,-1.2525 2.380727,-2.16439 0.128082,-0.19696 0.230507,-0.40946 0.34576,-0.61419 0.08555,-0.22393 0.190576,-0.44136 0.25664,-0.67178 0.220287,-0.76838 0.202264,-1.5597 -0.101179,-2.30542 -0.252926,-0.62157 -0.476983,-0.8213 -0.890423,-1.32899 -0.810152,-0.82466 -1.761866,-1.50849 -2.814971,-1.98929 -0.201483,-0.092 -0.409538,-0.16884 -0.61431,-0.25326 -1.010502,-0.35132 -2.065401,-0.63409 -3.141858,-0.65799 -0.220321,-0.005 -0.440611,0.0112 -0.660916,0.0168 -1.139605,0.11301 -2.26668,0.39935 -3.27886,0.94633 -0.206453,0.11157 -0.401717,0.2427 -0.602576,0.36405 -0.966675,0.69358 -1.890332,1.50966 -2.499515,2.54765 -0.130715,0.22272 -0.232636,0.46114 -0.348955,0.69171 -0.08663,0.25439 -0.190232,0.50362 -0.259897,0.76317 -0.286888,1.06887 -0.312989,2.22372 -0.0412,3.29855 0.07104,0.28093 0.180562,0.5507 0.270842,0.82605 0.385604,0.89029 0.969084,1.6485 1.710226,2.27276 0.621645,0.52361 1.341514,0.91462 2.03637,1.32854 1.714536,1.02119 3.158722,-1.40353 1.444185,-2.42472 v 0 c -0.97145,-0.57854 -1.972871,-1.05547 -2.52391,-2.10002 -0.05553,-0.14576 -0.122166,-0.28776 -0.166598,-0.43727 -0.224272,-0.75467 -0.167598,-1.55639 0.0709,-2.29878 0.05272,-0.11912 0.0963,-0.24273 0.158169,-0.35736 0.378239,-0.70078 1.010547,-1.22973 1.630161,-1.70773 0.308468,-0.19624 0.422249,-0.28454 0.756658,-0.43405 0.551517,-0.24658 1.149012,-0.37572 1.744526,-0.45845 0.12846,-0.007 0.256741,-0.0203 0.385381,-0.0204 0.772546,-7.9e-4 1.529189,0.22111 2.2571,0.45689 0.139758,0.0552 0.281747,0.10499 0.419277,0.1655 0.712838,0.31363 1.358934,0.76456 1.925497,1.29631 0.113898,0.11812 0.471011,0.43332 0.491435,0.62778 0.01918,0.18268 -0.04414,0.32762 -0.09413,0.49998 -0.05088,0.10217 -0.09469,0.20818 -0.152633,0.30653 -0.308814,0.52414 -0.783876,0.92955 -1.287187,1.25892 -0.02024,0.0166 -0.08046,0.0326 -0.06072,0.0499 0.03169,0.0276 0.08436,5.2e-4 0.125913,0.007 0.22085,0.0339 0.434911,0.0909 0.59791,0.25509 0.0051,0.005 -0.01283,-0.007 -0.01924,-0.0102 -0.430382,-0.43755 -0.808096,-0.92321 -1.201626,-1.39315 -0.817991,-0.98342 -1.675583,-1.93137 -2.520265,-2.89168 -0.55798,-0.66493 -1.1176,-1.33107 -1.62429,-2.03643 -1.101376,-1.66416 -3.454859,-0.10658 -2.353484,1.55759 z"
       id="path2591"
       style="fill:#ffffff;fill-opacity:1;fill-rule:nonzero;stroke:none;stroke-width:0.264583" />
    <path
       d="m 43.788373,276.12304 c -0.230082,-0.79584 -0.750575,-1.45237 -1.406597,-1.94905 -0.188616,-0.1428 -0.394297,-0.26154 -0.591444,-0.39231 -1.109072,-0.60344 -2.338964,-0.85595 -3.597558,-0.82441 -0.907754,0.0228 -1.286184,0.12493 -2.178457,0.28344 -1.472237,0.34583 -2.907874,0.87768 -4.174101,1.71798 -0.837867,0.55603 -0.946791,0.72042 -1.661756,1.40562 -0.214309,0.28445 -0.458343,0.54878 -0.642927,0.85337 -0.606147,1.00021 -0.818446,2.0738 -0.425772,3.20543 0.310943,0.89609 0.706736,1.20214 1.317029,1.87943 0.307425,0.23294 0.597951,0.49004 0.92228,0.6988 0.974158,0.62703 2.100738,1.02714 3.257907,1.11976 1.058158,0.0847 1.369134,-0.0361 2.406507,-0.21474 1.541267,-0.41851 2.966611,-1.16486 4.247814,-2.11244 0.754308,-0.55789 1.014941,-0.8285 1.690941,-1.44931 0.752772,-0.7432 1.464591,-1.5361 2.040575,-2.42587 0.225232,-0.40245 0.62833,-1.05554 0.118446,-1.46562 -0.582506,-0.46849 -1.45021,-0.38872 -2.193832,-0.465 -0.108479,-0.0111 -0.16633,0.14114 -0.246899,0.21463 -0.204618,0.18664 -0.429603,0.4153 -0.622974,0.60744 -1.130364,1.13107 -2.167845,2.347 -3.159805,3.59963 -0.694516,0.94752 -1.473081,1.90934 -1.755201,3.07924 -0.214482,0.88941 -0.118396,1.06409 -0.02611,1.96585 0.25954,1.20291 0.911698,2.07435 1.5758,3.06145 1.115269,1.65489 3.45563,0.0777 2.340358,-1.57723 v 0 c -0.408545,-0.60532 -0.874675,-1.18483 -1.12201,-1.8813 -0.0708,-0.2708 -0.131876,-0.39285 -0.08984,-0.67866 0.05462,-0.37142 0.208137,-0.63304 0.403598,-0.95673 0.281906,-0.46684 0.561372,-0.82172 0.886735,-1.26157 0.921552,-1.16604 1.886416,-2.29705 2.936984,-3.34995 0.103039,-0.10266 0.205292,-0.20612 0.30912,-0.30798 0.06899,-0.0677 0.140018,-0.13326 0.209312,-0.20063 0.01971,-0.0192 0.08394,-0.0507 0.05772,-0.059 -0.480719,-0.15269 -3.268149,-0.19334 -1.997541,-1.84734 -0.435951,0.69374 -1.010483,1.29093 -1.579007,1.87516 -0.529965,0.49258 -0.781618,0.75124 -1.367374,1.19177 -0.961176,0.72287 -2.02642,1.31281 -3.177294,1.66965 -0.612997,0.13021 -0.838793,0.21839 -1.46267,0.19824 -0.947036,-0.0306 -1.810864,-0.4178 -2.561124,-0.97596 -0.111032,-0.10328 -0.684183,-0.61295 -0.756171,-0.79874 -0.166973,-0.43092 0.228661,-0.85586 0.438571,-1.17395 0.476308,-0.47983 0.55613,-0.60338 1.130032,-0.99708 0.9774,-0.67051 2.096707,-1.08596 3.240739,-1.36824 0.279069,-0.053 0.556225,-0.11733 0.837205,-0.15904 0.984734,-0.14617 1.992259,-0.12977 2.907286,0.29959 0.273826,0.164 0.603631,0.34092 0.776624,0.62175 0.463926,1.94094 3.208827,1.28485 2.744901,-0.65609 z"
       id="path2593"
       style="fill:#ffffff;fill-opacity:1;fill-rule:nonzero;stroke:none;stroke-width:0.264583" />
    <path
       d="m 51.902893,280.77838 c -0.705917,-0.0971 -1.417783,-0.1664 -2.131156,-0.16347 -0.22575,10e-4 -0.451273,0.0144 -0.67691,0.0216 -0.225509,0.0271 -0.454556,0.0331 -0.676523,0.0812 -0.959149,0.20797 -1.70129,0.66542 -1.997451,1.67856 -0.204716,0.70032 0.01072,1.19122 0.183996,1.8372 0.342157,0.89174 0.768062,1.75719 0.966396,2.69773 0.124839,0.59202 0.100664,0.66327 0.11466,1.24958 -0.02111,0.17831 -0.027,0.3591 -0.06333,0.53495 -0.117327,0.56787 -0.441891,1.10252 -0.854543,1.50416 -0.08977,0.0874 -0.192403,0.16049 -0.288603,0.24074 -0.09145,0.0521 -0.176823,0.11675 -0.274359,0.1563 -0.465024,0.18862 -1.258311,-0.10289 -1.691712,-0.24464 -0.426783,-0.14168 -0.832278,-0.3318 -1.228034,-0.54282 -1.768994,-0.92365 -3.075231,1.57808 -1.306237,2.50173 v 0 c 0.550021,0.28328 1.108395,0.54842 1.699709,0.7371 0.619628,0.18504 0.944595,0.31474 1.594493,0.37704 0.863259,0.0827 1.693233,-0.0476 2.463353,-0.45792 0.223525,-0.11909 0.418989,-0.28467 0.628483,-0.42701 0.503455,-0.46864 0.662049,-0.56825 1.064162,-1.13952 0.69989,-0.99432 1.055169,-2.14426 1.076405,-3.35742 -0.01667,-0.31513 -0.0146,-0.63182 -0.04998,-0.9454 -0.147029,-1.30301 -0.638461,-2.52398 -1.154256,-3.71722 -0.03411,-0.0751 -0.02524,-0.19597 -0.102327,-0.2253 -0.05672,-0.0216 -0.06837,0.10119 -0.111358,0.14402 -0.09849,0.0981 -0.193421,0.20402 -0.311542,0.27737 -0.04029,0.025 -0.144145,0.0518 -0.142216,0.004 0.0024,-0.0561 0.09115,-0.0707 0.145481,-0.0846 0.135684,-0.0349 0.277347,-0.0399 0.41602,-0.0598 0.770118,-0.0313 1.539669,-0.006 2.302336,0.11441 1.974953,0.2864 2.379996,-2.5066 0.405043,-2.79301 z"
       id="path2595"
       style="fill:#ffffff;fill-opacity:1;fill-rule:nonzero;stroke:none;stroke-width:0.264583" />
    <path
       d="m 54.195485,288.08897 c 0.576738,0.2717 1.186653,0.45227 1.800111,0.61892 0.919612,0.24008 1.833607,0.49872 2.763012,0.69906 0.36264,0.082 0.733359,0.12359 1.094303,0.21301 0.09036,0.0272 0.187664,0.0405 0.270373,0.0886 0.0019,2.6e-4 0.0011,0.002 0.0016,0.003 0.01222,0.007 0.02453,0.0135 0.0367,0.0205 -0.01204,-0.006 -0.0226,-0.0119 -0.03419,-0.0197 -0.02495,-0.0168 -0.04948,-0.0342 -0.07421,-0.0513 -0.705709,-0.59056 0.357879,0.19493 1.987643,-0.24247 0.26652,-0.0715 0.334436,-0.92393 0.34761,-1.1596 0.0057,-0.81889 -0.22624,-1.60504 -0.499211,-2.36834 -0.208473,-0.54134 -0.456774,-1.07059 -0.788429,-1.54854 -0.206918,-0.29819 -0.269745,-0.353 -0.504531,-0.61542 -0.37016,-0.38689 -0.819542,-0.66583 -1.341885,-0.79507 -0.283684,-0.0702 -0.491683,-0.0768 -0.777142,-0.10023 -0.629425,-0.0361 -1.264814,0.002 -1.873816,0.1746 -0.135602,0.0384 -0.267653,0.0884 -0.401476,0.13257 -0.756865,0.2752 -1.34987,0.75718 -1.908533,1.32053 -0.447889,0.48435 -0.877747,0.99231 -1.229288,1.55234 -0.08104,0.12911 -0.153726,0.26328 -0.230587,0.39492 -0.390009,0.73801 -0.599967,1.55709 -0.546383,2.39521 0.01199,0.1875 0.04716,0.37279 0.07073,0.55919 0.215639,1.04381 0.793351,1.93519 1.528681,2.69148 0.14986,0.15413 0.312034,0.29579 0.468048,0.44368 0.837295,0.75582 1.855263,1.23695 2.877584,1.6847 0.792372,0.34811 1.614094,0.61749 2.458194,0.8052 0.429556,0.1032 0.878199,0.0812 1.307404,0.18035 1.958152,0.38485 2.502416,-2.3844 0.544264,-2.76925 v 0 c -0.416574,-0.0766 -0.83552,-0.11587 -1.255321,-0.1696 -0.663141,-0.13679 -1.301748,-0.36722 -1.923894,-0.63254 -0.729345,-0.3183 -1.47098,-0.63772 -2.081395,-1.16096 -0.460698,-0.42099 -0.934241,-0.8751 -1.13148,-1.48441 -0.08467,-0.41169 -0.06565,-0.75778 0.131154,-1.13797 0.279725,-0.50207 0.632746,-0.95613 1.025972,-1.37496 0.241075,-0.24952 0.488288,-0.49527 0.815107,-0.62995 0.36984,-0.14117 0.752454,-0.19222 1.148649,-0.16047 0.058,0.003 0.115932,0.008 0.174006,0.01 0.0191,5.3e-4 0.0449,0.0107 0.05717,-0.004 0.0041,-0.005 -0.189064,-0.18379 0.01508,-0.0166 0.335605,0.34206 0.549074,0.77024 0.718137,1.2154 0.155647,0.42351 0.302705,0.85598 0.33269,1.30987 0.01402,0.0885 -0.0051,-0.003 0.04438,-0.10283 0.06966,-0.14036 0.07751,-0.37703 0.230799,-0.40954 1.721225,-0.365 2.643063,0.38699 1.919221,-0.23277 -0.141563,-0.10056 -0.28892,-0.19131 -0.44672,-0.26473 -0.257773,-0.11721 -0.524269,-0.21147 -0.800843,-0.27417 -0.384993,-0.0916 -0.775775,-0.15153 -1.163736,-0.22884 -0.881668,-0.18842 -1.747043,-0.43918 -2.619698,-0.66434 -0.498408,-0.13361 -0.992634,-0.27838 -1.459155,-0.50305 -1.844667,-0.76137 -2.921397,1.84738 -1.07673,2.60875 z"
       id="path2599"
       style="fill:#ffffff;fill-opacity:1;fill-rule:nonzero;stroke:none;stroke-width:0.264583" />
    <path
       d="m 14.151071,235.38334 c -0.578952,0.30129 -1.134528,0.63873 -1.674033,1.0056 -0.800861,0.58018 -1.533026,1.24791 -2.264813,1.91121 -0.6438266,0.60993 -1.3060384,1.19897 -1.9807,1.77441 -0.5723194,0.4735 -1.1098017,0.9865 -1.6716147,1.47196 -0.5174007,0.43747 -1.064156,0.83802 -1.6137607,1.23359 -0.3213322,0.2294 -0.6355495,0.46836 -0.9636683,0.68807 -0.2651122,0.17107 -0.5318599,0.33927 -0.7902033,0.52049 -0.2180799,0.1581 -0.4356645,0.31689 -0.656968,0.47046 -0.2205721,0.15051 -0.4473067,0.29165 -0.6679975,0.44195 -0.1926176,0.11982 -0.3480603,0.2837 -0.5107409,0.43867 -0.1042472,0.0953 -0.205219,0.1941 -0.3033945,0.29565 -0.82644769,0.89479 0.1314468,0.4799 2.1064905,1.86707 -0.018584,0.0241 -0.037171,0.0482 -0.055756,0.0723 1.3759788,-1.44539 -0.6681104,-3.39131 -2.0440895,-1.94593 v 0 c -0.051738,0.0589 -0.10347668,0.11782 -0.155215,0.17673 0.747459,0.57101 1.5028968,1.13173 2.2423771,1.71304 0.010242,0.008 -0.015425,0.021 -0.023368,0.0313 -0.00459,0.006 -0.027106,0.0411 -0.037311,0.0437 -0.00349,9e-4 0.00471,-0.005 0.00706,-0.008 0.076809,-0.0863 0.1689359,-0.15786 0.2492986,-0.24058 0.1167455,-0.11669 0.016759,-0.0337 0.1191582,-0.11514 0.2248737,-0.15554 0.4601708,-0.29566 0.6839278,-0.45294 0.2260973,-0.15727 0.4493829,-0.3185 0.6718483,-0.48087 0.2401877,-0.17033 0.4927555,-0.32188 0.7380515,-0.48462 0.3531507,-0.2376 0.6941722,-0.49181 1.0393709,-0.74072 0.6177925,-0.44483 1.2313803,-0.89662 1.8117357,-1.39 0.5560867,-0.48189 1.0903902,-0.9883 1.6563918,-1.45888 0.696138,-0.59395 1.380201,-1.2012 2.044619,-1.83063 0.636714,-0.57733 1.27244,-1.15972 1.962963,-1.67292 0.478727,-0.3303 0.979499,-0.62035 1.493668,-0.89194 1.727343,-0.99938 0.31401,-3.44221 -1.413333,-2.44284 z"
       id="path2601"
       style="fill:#ffffff;fill-opacity:1;fill-rule:nonzero;stroke:none;stroke-width:0.264583" />
    <path
       d="m 14.999168,235.99532 c 0.266867,0.10683 0.496912,0.27524 0.713739,0.46049 0.254858,0.22484 0.4554,0.49921 0.648286,0.77664 0.253166,0.36379 0.469307,0.75041 0.666564,1.1467 0.199298,0.40153 0.330767,0.8306 0.461427,1.25791 0.110685,0.34266 0.170266,0.69762 0.227877,1.05206 0.03913,0.2485 0.07247,0.49832 0.07869,0.75001 -0.0079,0.30907 -0.0637,0.61314 -0.148629,0.90956 -0.11152,0.32576 -0.272915,0.63159 -0.470727,0.91265 -0.192529,0.25319 -0.427487,0.46901 -0.662476,0.68169 -0.227127,0.19943 -0.457348,0.39531 -0.686347,0.59259 -0.19236,0.16312 -0.395479,0.31295 -0.601864,0.45771 -0.0089,0.005 -0.01673,0.0136 -0.02683,0.0142 -0.0103,6.3e-4 0.03278,-0.0219 0.02248,-0.0213 -0.03462,0.002 -0.07478,0.0217 -0.109021,0.0297 -0.110028,0.0164 -0.221776,0.0196 -0.332709,0.0265 -0.238042,0.0141 -0.475746,0.0331 -0.713279,0.054 -0.182113,0.0142 -0.364222,0.0343 -0.546967,0.0379 -0.173898,-0.002 -0.348174,-1.7e-4 -0.521578,-0.0149 -0.118702,-0.0125 -0.236926,-0.0315 -0.353241,-0.0584 -0.06106,-0.0126 -0.138498,-0.0465 -0.02361,-0.004 0.194459,0.0898 -0.151536,-0.0818 -0.175391,-0.0928 -0.08051,-0.0391 -0.166383,-0.0645 -0.249966,-0.0956 -0.0062,-0.002 0.01261,0.004 0.01891,0.006 -0.09481,-0.0346 -0.189991,-0.0679 -0.284177,-0.1041 -0.09102,-0.0365 -0.184955,-0.0647 -0.278627,-0.0935 0.152071,0.0365 0.276202,0.12852 0.403271,0.21312 0.01864,0.0124 -0.03537,-0.0275 -0.05305,-0.0412 -0.07675,-0.0493 -0.152118,-0.10116 -0.232059,-0.14512 -0.157817,-0.0912 -0.264282,-0.10695 -0.436336,-0.15512 -0.0115,-0.003 0.02351,0.004 0.0351,0.007 0.09905,0.0246 0.08042,0.0204 0.174325,0.0532 0.07777,0.005 0.126665,0.0681 0.19295,0.0957 0.02425,0.0101 -0.04454,-0.0279 -0.06741,-0.0408 -0.05078,-0.0287 -0.06565,-0.0367 -0.102619,-0.057 -0.07508,-0.0405 -0.152792,-0.0757 -0.226952,-0.1179 -0.03341,-0.0224 -0.06575,-0.0488 -0.100382,-0.0776 -0.108246,-0.10533 -0.224195,-0.20378 -0.340926,-0.30007 -0.08912,-0.079 -0.17968,-0.15637 -0.267526,-0.23678 -0.08646,-0.0802 -0.175069,-0.15792 -0.262148,-0.23739 -0.04887,-0.043 -0.08018,-0.0716 -0.115767,-0.10747 -0.04757,-0.0467 -0.09811,-0.0904 -0.145061,-0.13771 -0.06667,-0.0575 -0.100696,-0.0992 -0.1489034,-0.1521 -0.02137,-0.0222 -0.042741,-0.0444 -0.064112,-0.0666 -0.02291,-0.0224 -0.046443,-0.0441 -0.068733,-0.0671 0.00906,0.008 0.018129,0.0162 0.027193,0.0243 0.00217,9.3e-4 0.00775,0.005 0.00648,0.003 -0.012126,-0.0189 -0.026427,-0.0363 -0.039641,-0.0544 -1.1834183,-1.60686 -3.4558576,0.0668 -2.2724396,1.6736 v 0 c 0.1030293,0.1391 0.2060509,0.28066 0.3342132,0.39816 0.076621,0.0801 0.1476425,0.16592 0.2318909,0.23856 0.055755,0.0554 0.1433653,0.13583 0.1482831,0.14093 0.066321,0.0657 0.1337913,0.13032 0.2041821,0.19173 0.087532,0.0799 0.1764956,0.15816 0.2634991,0.23862 0.1249738,0.1136 0.2522132,0.22475 0.3805967,0.33448 0.1218399,0.0979 0.2323322,0.20855 0.3519686,0.30907 0.1601584,0.12864 0.3256013,0.2515 0.5055635,0.35146 0.083268,0.046 0.1671278,0.0909 0.2528618,0.13214 0.09008,0.0487 0.181085,0.0958 0.272933,0.14106 0.125479,0.0457 0.110358,0.0436 0.241007,0.0771 0.0217,0.006 0.08708,0.0208 0.06568,0.0142 -0.326175,-0.10103 -0.06275,0.004 -0.378411,-0.13699 -0.0028,-0.001 0.0054,0.003 0.0081,0.004 -0.03132,-0.0175 -0.03683,-0.0205 0.03778,0.0204 0.008,0.004 -0.01628,-0.008 -0.02394,-0.0131 -0.122533,-0.0785 -0.08749,-0.0526 -0.137624,-0.0902 -0.01133,-0.009 -0.0456,-0.0356 -0.03401,-0.0269 0.138212,0.1031 0.277641,0.19426 0.439605,0.25782 0.03781,0.0148 0.07662,0.027 0.114929,0.0405 0.04556,0.0139 0.05969,0.0162 0.091,0.0287 0.09134,0.0351 0.182955,0.0695 0.275665,0.10081 0.0299,0.0112 0.05973,0.0226 0.0897,0.0336 0.0115,0.004 0.04489,0.0187 0.03483,0.0117 -0.01043,-0.007 -0.02337,-0.01 -0.035,-0.0151 -0.0033,-0.001 0.0067,0.003 0.01006,0.004 -0.02747,-0.0134 -0.01817,-0.007 -0.03997,-0.0212 -0.0039,-0.003 0.0083,0.004 0.01238,0.007 0.123185,0.0696 0.03725,0.0235 0.204678,0.10807 0.181959,0.0772 0.368501,0.1406 0.56195,0.18247 0.250589,0.055 0.504192,0.0971 0.760021,0.11826 0.271437,0.0186 0.543513,0.025 0.815587,0.0211 0.23606,-0.008 0.471625,-0.0257 0.706834,-0.0474 0.213357,-0.0188 0.426873,-0.0359 0.640697,-0.0485 0.298465,-0.0186 0.598215,-0.0392 0.888379,-0.11724 0.354934,-0.0983 0.703127,-0.22475 1.006096,-0.43999 0.281696,-0.19843 0.55857,-0.40416 0.820609,-0.62818 0.247475,-0.2132 0.496508,-0.42462 0.741161,-0.64106 0.398669,-0.36267 0.786983,-0.7404 1.098458,-1.18305 0.366813,-0.54742 0.676499,-1.13168 0.862998,-1.76695 0.148498,-0.56923 0.255313,-1.15022 0.244078,-1.74126 -0.01459,-0.37089 -0.0522,-0.74004 -0.113733,-1.10624 -0.07844,-0.48043 -0.166603,-0.96003 -0.314901,-1.42477 -0.177159,-0.57749 -0.364341,-1.15383 -0.636424,-1.69508 -0.260885,-0.5186 -0.544862,-1.02544 -0.878154,-1.50164 -0.339849,-0.48303 -0.706046,-0.94916 -1.160187,-1.33167 -0.44837,-0.36559 -0.925033,-0.69553 -1.467283,-0.90783 -1.853364,-0.73994 -2.899798,1.88111 -1.046434,2.62105 z"
       id="path2603"
       style="fill:#ffffff;fill-opacity:1;fill-rule:nonzero;stroke:none;stroke-width:0.264583" />
    <path
       d="m 7.2608709,245.31509 c 0.010221,0.17926 0.095709,0.38099 0.038472,0.55854 -0.080896,0.28538 -0.192229,0.56072 -0.3020673,0.83584 -0.1890435,0.45491 -0.3699352,0.91291 -0.5360808,1.37668 -0.1747028,0.48603 -0.3013691,0.98651 -0.403343,1.4922 -0.093372,0.46219 -0.1476288,0.9304 -0.1919158,1.39939 -0.031663,0.3488 -0.062978,0.6976 -0.085942,1.0471 -0.019595,0.28738 -0.022236,0.5755 -0.031792,0.8633 -0.00398,0.0893 -0.00914,0.17847 -0.016465,0.26753 -0.00177,0.0215 -0.00887,0.0858 -0.0056,0.0645 0.055077,-0.35949 -0.093062,0.1145 0.2704042,-0.67636 0.1734574,-0.13209 0.3469147,-0.26417 0.5203721,-0.39625 -1.8844455,0.65676 -0.9556472,3.32177 0.9287987,2.66501 v 0 c 0.2409769,-0.15562 0.4819541,-0.31123 0.722931,-0.46684 0.1098664,-0.21545 0.2363896,-0.42317 0.3295994,-0.64633 0.079674,-0.19075 0.040428,-0.51191 0.070672,-0.71887 0.00833,-0.25726 0.010866,-0.5148 0.027304,-0.77174 0.020918,-0.32261 0.050661,-0.64449 0.079515,-0.96647 0.034966,-0.37261 0.075571,-0.74486 0.1498629,-1.1121 0.072749,-0.37093 0.1659154,-0.7375 0.2930673,-1.09389 0.1541756,-0.43224 0.3248737,-0.85802 0.500317,-1.28204 0.2029661,-0.51007 0.4080064,-1.02523 0.4856904,-1.57227 0.04128,-0.47298 0.02478,-0.92085 -0.06987,-1.38679 -0.3676143,-1.96147 -3.141539,-1.44158 -2.7739245,0.51988 z"
       id="path2609"
       style="fill:#ffffff;fill-opacity:1;fill-rule:nonzero;stroke:none;stroke-width:0.264583" />
    <path
       d="m 5.5789102,248.45221 c -0.1545535,0.35737 -0.2366746,0.73794 -0.2921723,1.12152 0.015319,-0.008 -0.052485,0.38981 -0.034218,0.28393 0.02377,-0.0868 -0.020053,0.0367 -0.031291,0.0648 -0.042138,0.10583 -0.079941,0.213 -0.1138264,0.32178 -0.00286,0.0102 -0.069697,0.26455 -0.040589,0.15896 -0.037681,0.11063 -0.06216,0.22495 -0.084669,0.33941 0.00332,-0.10091 0.073305,-0.1874 0.094374,-0.28162 0.00421,-0.0188 -0.017526,0.0344 -0.026022,0.0518 -0.030919,0.0631 -0.031543,0.066 -0.061009,0.13142 -0.040392,0.0965 -0.04938,0.11735 -0.069537,0.16262 -0.080634,0.17332 -0.1365279,0.3559 -0.1818201,0.54119 -0.027693,0.11696 -0.047543,0.2355 -0.062586,0.35468 -0.012541,0.10416 -0.013422,0.20913 -0.013626,0.31388 1e-6,0.0545 1.521e-4,0.10893 2.315e-4,0.1634 4.57e-5,0.0332 6.51e-5,0.0663 7.19e-5,0.0995 3.5e-6,0.0358 1.4e-6,0.0717 8e-7,0.10751 -5e-7,0.03 -8e-7,0.06 -1e-6,0.09 0,0.0289 0,0.0579 0,0.0868 0,0.0288 0,0.0576 0,0.0864 0,0.0167 0,0.0334 0,0.0501 0,0.0414 0,0.0828 0,0.12416 0,0.0437 0,0.0873 0,0.13099 0,0.0349 0,0.0697 0,0.10455 0,0.0219 0,0.0439 0,0.0658 3.7e-6,0.94822 -0.00534,0.009 2.8156632,-0.1323 -0.1453237,-1.99031 -2.9600527,-1.78479 -2.8147292,0.20552 v 0 c 2.8230001,-0.0643 2.8212898,0.87594 2.8212883,-0.0732 0,-0.0219 0,-0.0439 0,-0.0658 0,-0.0349 0,-0.0697 0,-0.10455 0,-0.0437 0,-0.0873 0,-0.13099 0,-0.0414 0,-0.0828 0,-0.12416 0,-0.0167 0,-0.0334 0,-0.0501 0,-0.0288 0,-0.0576 0,-0.0864 0,-0.0289 0,-0.0579 0,-0.0868 0,-0.03 5e-7,-0.06 1e-6,-0.0899 5e-7,-0.0361 2.7e-6,-0.0721 -1e-6,-0.10814 -7.2e-6,-0.0343 -2.73e-5,-0.0687 -7.47e-5,-0.10302 -7.56e-5,-0.0516 -2.124e-4,-0.10321 -2.323e-4,-0.15482 7.49e-5,-0.0738 5.821e-4,-0.0408 -0.00613,0.015 -6.086e-4,0.004 -0.00114,0.008 -0.00185,0.0125 -0.00225,0.0129 0.00374,-0.0517 0.00553,-0.0388 0.019246,-0.0831 -0.031232,0.0741 0.00639,-0.0311 0.00124,-0.003 -0.00345,0.007 -0.00517,0.01 0.030398,-0.0669 0.060161,-0.13412 0.087476,-0.20232 0.060865,-0.15632 0.1536441,-0.30256 0.1757857,-0.47324 0.032458,-0.16028 -0.013793,0.0437 0.00612,-0.0418 0.024096,-0.0786 0.053678,-0.16132 0.066751,-0.24313 6.35e-4,-0.004 -0.00246,0.008 -0.00371,0.0113 -0.004,0.0115 -0.016677,0.0457 -0.012499,0.0343 0.013126,-0.0359 0.031305,-0.0702 0.040499,-0.10732 0.054287,-0.13658 0.1079119,-0.27388 0.1451729,-0.41629 0.045958,-0.19357 0.07695,-0.38948 0.093604,-0.58783 0.016174,-0.12965 0.036951,-0.25965 0.08393,-0.38227 0.7974259,-1.82937 -1.7896887,-2.9571 -2.5871145,-1.12774 z"
       id="path2619"
       style="fill:#ffffff;fill-opacity:1;fill-rule:nonzero;stroke:none;stroke-width:0.264583" />
    <path
       d="m 4.5629287,252.98661 c 0.00764,0.002 -0.012975,0.28094 -0.00284,0.13085 -0.3127193,1.97095 2.4746362,2.41321 2.7873555,0.44225 v 0 c 0.024389,-0.18303 0.041628,-0.36618 0.037616,-0.55116 0.01551,-1.99555 -2.8066275,-2.01749 -2.8221368,-0.0219 z"
       id="path2621"
       style="fill:#ffffff;fill-opacity:1;fill-rule:nonzero;stroke:none;stroke-width:0.264583" />
    <path
       d="m 2.5079715,244.27381 c -0.1562568,0.17782 -0.3140219,0.35444 -0.4677872,0.53443 -0.083849,0.10285 -0.1638666,0.20871 -0.2483024,0.31109 -0.01924,0.008 -0.2456395,0.31051 -0.1425316,0.1729 0.1141356,-0.15414 0.2369451,-0.23067 0.3880862,-0.32982 0.020188,-0.0132 -0.042405,0.0231 -0.063619,0.0346 -0.1186347,0.0623 -0.2249341,0.14379 -0.3296555,0.22646 -0.011129,0.009 -0.045015,0.037 -0.033387,0.0283 0.015497,-0.0117 0.030004,-0.0247 0.045006,-0.037 0.040451,-0.0279 0.081923,-0.0543 0.121354,-0.0835 0.017677,-0.0131 -0.037687,0.0228 -0.055999,0.035 -0.112927,0.0754 -0.097177,0.0689 -0.2230286,0.17358 -0.061836,0.056 -0.1159492,0.11816 -0.1691997,0.18203 -0.00564,0.007 -0.022122,0.0274 -0.016408,0.0207 0.017597,-0.0207 0.035691,-0.041 0.052064,-0.0626 0.012773,-0.0169 -0.027499,0.0322 -0.041249,0.0483 0.00356,-0.009 0.063952,-0.0848 0.2175452,-0.20139 0.1509173,-0.12479 -0.4016844,0.3204 -0.077967,0.0563 0.018778,-0.10778 0.9082552,-0.34356 0.4096092,-0.21232 -0.039405,0.0104 -0.077645,0.0248 -0.116467,0.0371 -0.052738,0.0225 -0.1053547,0.0452 -0.158214,0.0674 -0.044843,0.0188 0.087316,-0.0443 0.1341645,-0.0573 0.1150089,-0.0321 0.233126,-0.0517 0.349689,-0.0776 -1.98815783,0.17233 -1.74444738,2.98401 0.2437105,2.81168 v 0 c 0.3303296,-0.0717 0.286335,-0.0391 0.513871,-0.14225 0.044678,-0.0203 -0.090593,0.0377 -0.1358894,0.0565 -0.1526844,0.0469 -0.028612,0.0118 -0.2168012,0.0542 -0.01118,0.003 0.022654,-0.004 0.033915,-0.006 0.027201,-0.005 0.054912,-0.008 0.081458,-0.0162 0.3198482,-0.0948 0.2260637,-0.0659 0.5344652,-0.24314 0.346242,-0.27982 -0.2139365,0.1605 0.025921,-0.0189 0.1654878,-0.12334 0.2625799,-0.22032 0.3350262,-0.30895 -0.042917,0.0494 -0.049216,0.057 0.035636,-0.0433 0.00114,-0.001 -0.1249789,0.13399 -0.1237988,0.132 -0.036146,0.0292 -0.071483,0.0595 -0.1084392,0.0877 -0.026859,0.0205 -0.051429,0.0348 -0.079226,0.0516 0.073535,-0.0502 0.1540367,-0.0925 0.2178027,-0.15459 -0.033507,0.0256 -0.033551,0.0263 -0.1099085,0.0712 0.1975477,-0.10685 0.3752392,-0.23335 0.5197168,-0.41212 0.076238,-0.0987 0.00536,-0.0124 0.1223526,-0.14808 0.07455,-0.0908 0.1481122,-0.18243 0.2190319,-0.27608 0.1244621,-0.14784 0.2557584,-0.28992 0.3810598,-0.43705 1.361336,-1.45919 -0.7022695,-3.38441 -2.0636054,-1.92522 z"
       id="path2623"
       style="fill:#ffffff;fill-opacity:1;fill-rule:nonzero;stroke:none;stroke-width:0.264583" />
    <path
       d="m 35.742927,244.84318 c 0.02527,-1.30376 0.217686,-2.59732 0.391517,-3.88738 0.266126,-1.97779 -2.530887,-2.35415 -2.797013,-0.37636 v 0 c -0.190786,1.41979 -0.398621,2.84395 -0.416685,4.27911 0.01087,1.99558 2.833053,1.98021 2.822181,-0.0154 z"
       id="path2625"
       style="fill:#ffffff;fill-opacity:1;fill-rule:nonzero;stroke:none;stroke-width:0.264583" />
    <path
       d="m 42.784839,250.83756 c 0.172752,-0.11405 0.280022,-0.18686 0.496538,-0.3039 1.904061,-1.02932 3.960358,-1.74183 5.987074,-2.48364 1.873864,-0.68637 0.903187,-3.33642 -0.970674,-2.65005 v 0 c -1.491171,0.54659 -2.401293,0.86076 -3.865206,1.47466 -1.127178,0.47268 -2.295575,0.9753 -3.301243,1.6852 -0.122989,0.0868 -0.231952,0.19197 -0.34793,0.28796 -1.406977,1.41523 0.594461,3.405 2.001441,1.98977 z"
       id="path2627"
       style="fill:#ffffff;fill-opacity:1;fill-rule:nonzero;stroke:none;stroke-width:0.264583" />
    <path
       d="m 49.565448,261.53685 c 1.155751,-0.0953 2.313366,-0.17995 3.474125,-0.16728 0.479359,0.005 0.958106,0.0358 1.437158,0.0537 1.994326,0.0716 2.095598,-2.74879 0.101272,-2.8204 v 0 c -0.52991,-0.0183 -1.059526,-0.0503 -1.58973,-0.055 -1.198372,-0.0108 -2.394085,0.0718 -3.5873,0.17162 -1.992223,0.1163 -1.827745,2.93373 0.164475,2.81742 z"
       id="path2629"
       style="fill:#ffffff;fill-opacity:1;fill-rule:nonzero;stroke:none;stroke-width:0.264583" />
    <path
       d="m 9.8578296,269.43937 c -1.5535243,0.32305 -3.0988899,0.69264 -4.627432,1.11915 -0.5156737,0.14389 -1.0271107,0.30255 -1.5406659,0.45383 -1.9140847,0.56458 -1.1156503,3.2715 0.7984345,2.70692 v 0 c 0.4875022,-0.14399 0.9729404,-0.29517 1.4625071,-0.43199 1.4671754,-0.41001 2.9505357,-0.76536 4.4415857,-1.07675 1.959505,-0.37789 1.425076,-3.14906 -0.5344294,-2.77116 z"
       id="path2631"
       style="fill:#ffffff;fill-opacity:1;fill-rule:nonzero;stroke:none;stroke-width:0.264583" />
    <path
       d="m 15.054468,279.9388 c -0.695903,1.67508 -1.487413,3.30851 -2.259854,4.94903 -0.85009,1.8055 1.703268,3.00771 2.553357,1.20221 v 0 c 0.799567,-1.69825 1.618946,-3.38923 2.33548,-5.12489 0.725737,-1.85897 -1.903246,-2.88532 -2.628983,-1.02635 z"
       id="path2633"
       style="fill:#ffffff;fill-opacity:1;fill-rule:nonzero;stroke:none;stroke-width:0.264583" />
    <path
       d="m 24.680303,285.44873 c -0.330275,1.88563 -0.620179,3.77743 -0.88862,5.67273 -0.279668,1.97592 2.514702,2.37143 2.794372,0.39551 v 0 c 0.263925,-1.86599 0.549733,-3.72841 0.874766,-5.58485 0.341807,-1.96612 -2.43871,-2.44951 -2.780518,-0.48339 z"
       id="path2635"
       style="fill:#ffffff;fill-opacity:1;fill-rule:nonzero;stroke:none;stroke-width:0.264583" />
  </g>
</svg>
