<?xml version="1.0" encoding="UTF-8" standalone="no"?>
<svg
   xmlns:dc="http://purl.org/dc/elements/1.1/"
   xmlns:cc="http://creativecommons.org/ns#"
   xmlns:rdf="http://www.w3.org/1999/02/22-rdf-syntax-ns#"
   xmlns:svg="http://www.w3.org/2000/svg"
   xmlns="http://www.w3.org/2000/svg"
   xmlns:sodipodi="http://sodipodi.sourceforge.net/DTD/sodipodi-0.dtd"
   xmlns:inkscape="http://www.inkscape.org/namespaces/inkscape"
   inkscape:version="1.0 (1.0+r73+1)"
   sodipodi:docname="repeat.svg"
   id="svg8"
   version="1.1"
   viewBox="0 0 64 64"
   height="64mm"
   width="64mm">
  <defs
     id="defs2" />
  <sodipodi:namedview
     inkscape:document-rotation="0"
     inkscape:window-maximized="1"
     inkscape:window-y="27"
     inkscape:window-x="0"
     inkscape:window-height="1016"
     inkscape:window-width="1920"
     inkscape:snap-page="true"
     showgrid="false"
     inkscape:current-layer="layer1"
     inkscape:document-units="mm"
     inkscape:cy="119.18926"
     inkscape:cx="123.4137"
     inkscape:zoom="3"
     inkscape:pageshadow="2"
     inkscape:pageopacity="0.0"
     borderopacity="1.0"
     bordercolor="#666666"
     pagecolor="#ffffff"
     id="base" />
  <metadata
     id="metadata5">
    <rdf:RDF>
      <cc:Work
         rdf:about="">
        <dc:format>image/svg+xml</dc:format>
        <dc:type
           rdf:resource="http://purl.org/dc/dcmitype/StillImage" />
        <dc:title></dc:title>
      </cc:Work>
    </rdf:RDF>
  </metadata>
  <g
     transform="translate(0,-233)"
     id="layer1"
     inkscape:groupmode="layer"
     inkscape:label="Layer 1">
    <rect
       y="233"
       x="0"
       height="64"
       width="64"
       id="rect3713"
       style="fill:#3f51b5;stroke-width:0.26458332;fill-opacity:1" />
    <path
       d="m 4.7964431,236.15668 c -0.2521879,1.46886 -0.3123724,2.96243 -0.3801052,4.44851 -0.0813,2.72064 -0.1547209,5.44153 -0.2320034,8.16231 -0.061542,2.02267 -0.079386,4.04612 -0.079774,6.06959 0.00507,0.30978 0.00262,0.9064 0.047414,1.24188 0.020116,0.15062 -0.028977,0.35708 0.094228,0.44603 0.5614033,0.4053 1.2301159,0.63608 1.8451737,0.95412 1.9000428,-0.61017 1.0371334,-3.29724 -0.8629094,-2.68707 v 0 c 0.5799503,0.32932 1.1740205,0.63492 1.739851,0.98795 0.027349,0.0171 0.00214,0.12874 -0.00138,0.0967 -0.042574,-0.38717 -0.033001,-0.61687 -0.040156,-1.03909 3.439e-4,-1.99694 0.017841,-3.99384 0.078636,-5.98998 0.076822,-2.70488 0.1501542,-5.40985 0.2302444,-8.11461 0.059888,-1.32812 0.1140912,-2.66071 0.31849,-3.97637 0.4242462,-1.94999 -2.3334643,-2.54997 -2.7577105,-0.59997 z"
       id="path1218"
       style="fill:#ffffff;fill-opacity:1;fill-rule:nonzero;stroke:none;stroke-width:0.264583" />
    <path
       d="m 6.9005841,238.78445 c 0.6775095,-0.28234 1.4366385,-0.36366 2.1658391,-0.32051 0.2385105,0.0141 0.4746027,0.0557 0.7119044,0.0835 0.8634014,0.1773 1.7234584,0.49366 2.3318874,1.16196 0.270625,0.29726 0.291611,0.41121 0.446703,0.75709 0.04364,0.21729 0.101534,0.39919 0.06798,0.62323 -0.04927,0.32896 -0.507591,0.84211 -0.712881,1.07644 -0.419415,0.4279 -0.880578,0.82056 -1.402561,1.11867 -0.316062,0.18051 -0.410924,0.20686 -0.7508302,0.34761 -0.62508,0.19819 -1.3201245,0.48468 -1.9884914,0.44654 -0.496344,-0.0477 -1.0123538,-0.16516 -1.5099268,-0.0568 -0.1677003,0.0365 -0.3268062,0.10502 -0.4902094,0.15753 -1.8202873,0.81793 -0.6635475,3.39221 1.1567398,2.57427 v 0 c -0.094155,0.0214 -0.1871226,0.0489 -0.2824644,0.0642 -0.014346,0.002 -0.056262,-0.0108 -0.041815,-0.0123 0.3888814,-0.0411 0.7797636,0.12058 1.1689551,0.0953 0.1551681,-0.003 0.3106745,0.002 0.4655042,-0.009 0.9063487,-0.0625 1.7840601,-0.3614 2.6319501,-0.66515 0.202404,-0.0884 0.408604,-0.16861 0.607211,-0.26526 0.995317,-0.48433 1.861737,-1.19058 2.611843,-1.99836 0.411471,-0.51422 0.654702,-0.75676 0.93796,-1.36579 0.39124,-0.84121 0.512862,-1.68853 0.305212,-2.59752 -0.0667,-0.29201 -0.186527,-0.56928 -0.279791,-0.85391 -0.42694,-0.75502 -0.481396,-0.97296 -1.123736,-1.59607 -0.780659,-0.75728 -1.763404,-1.2688 -2.800068,-1.57502 -0.346605,-0.10238 -0.705645,-0.15663 -1.058469,-0.23495 -0.3476067,-0.0327 -0.6939249,-0.085 -1.0428217,-0.0982 -1.1575833,-0.0437 -2.340861,0.13866 -3.3970541,0.62284 -1.7816285,0.89904 -0.5101971,3.41864 1.2714314,2.51961 z"
       id="path1220"
       style="fill:#ffffff;fill-opacity:1;fill-rule:nonzero;stroke:none;stroke-width:0.264583" />
    <path
       d="m 5.5584841,245.98013 c 0.7302193,0.52528 1.4537417,1.06047 2.1357867,1.64795 0.2494463,0.21486 0.4911011,0.43861 0.7366516,0.65791 1.2224102,1.15139 2.3215036,2.42314 3.4692036,3.64668 0.817233,0.87123 0.916959,0.96268 1.729808,1.78731 0.520539,0.5198 1.052216,1.02811 1.575383,1.54521 1.419486,1.40268 3.403183,-0.60477 1.983696,-2.00746 v 0 c -0.514612,-0.5084 -1.036956,-1.0088 -1.549516,-1.51931 -0.778331,-0.78903 -0.882881,-0.88562 -1.667233,-1.72178 -1.20982,-1.28974 -2.36855,-2.63042 -3.663628,-3.83758 -0.272991,-0.24282 -0.5417107,-0.49054 -0.8189726,-0.72848 -0.7181011,-0.61625 -1.476775,-1.18163 -2.2447927,-1.73342 -1.6001624,-1.19246 -3.2865488,1.07051 -1.6863866,2.26297 z"
       id="path1222"
       style="fill:#ffffff;fill-opacity:1;fill-rule:nonzero;stroke:none;stroke-width:0.264583" />
    <path
       d="m 18.767595,238.43997 c 0.206243,1.33118 0.274147,2.67981 0.36007,4.02267 0.199722,3.13953 0.284577,6.28428 0.33539,9.42921 0.0162,1.35297 0.03288,2.70606 0.0298,4.05916 -0.0076,0.94256 -0.11162,-0.35125 2.493939,1.03065 0.227196,0.1205 -0.806341,0.41507 -0.0055,0.1744 1.798844,-0.51939 3.656075,-0.78807 5.505535,-1.05306 1.04984,-0.15005 2.108517,-0.2582 3.140757,-0.51118 0.230719,-0.0565 0.456189,-0.13269 0.684284,-0.19904 1.912625,-0.56949 1.107234,-3.27436 -0.805394,-2.70486 v 0 c -0.155168,0.0478 -0.308057,0.1037 -0.465503,0.14332 -0.969671,0.24404 -1.968577,0.33077 -2.95493,0.47814 -1.996364,0.28675 -4.000254,0.58244 -5.939935,1.15087 -0.212469,0.0671 -0.612089,0.17958 -0.806601,0.29551 -0.161936,0.0965 -0.607094,0.23249 -0.452096,0.3398 2.431479,1.68336 2.418182,1.85586 2.427697,0.86177 0.003,-1.37042 -0.01359,-2.74083 -0.03016,-4.11113 -0.05167,-3.18991 -0.138098,-6.37961 -0.340797,-9.56403 -0.06006,-0.93595 -0.08789,-1.45686 -0.165791,-2.36664 -0.05807,-0.67817 -0.11575,-1.36672 -0.248895,-2.0357 -0.02094,-0.10519 -0.05188,-0.20815 -0.07782,-0.31223 -0.616858,-1.89788 -3.300868,-1.02551 -2.68401,0.87237 z"
       id="path1224"
       style="fill:#ffffff;fill-opacity:1;fill-rule:nonzero;stroke:none;stroke-width:0.264583" />
    <path
       d="m 22.349261,248.2489 c 1.763292,-0.4761 3.575763,-0.72491 5.387747,-0.92478 1.186254,-0.10438 0.629169,-0.0602 1.670997,-0.13593 1.990326,-0.14517 1.785017,-2.95992 -0.205309,-2.81474 v 0 c -1.105828,0.0809 -0.513511,0.0336 -1.776658,0.14564 -1.994166,0.22211 -3.98996,0.49908 -5.926837,1.03865 -1.902937,0.60108 -1.052877,3.29224 0.85006,2.69116 z"
       id="path1226"
       style="fill:#ffffff;fill-opacity:1;fill-rule:nonzero;stroke:none;stroke-width:0.264583" />
    <path
       d="m 20.105292,240.18562 c -0.03649,0.0731 -0.100752,0.13804 -0.109479,0.21927 -0.0032,0.0298 0.0597,-0.009 0.08797,-0.019 0.123211,-0.0438 0.242142,-0.0992 0.365611,-0.14226 0.93321,-0.32565 1.80983,-0.50479 2.777688,-0.70383 1.027038,-0.16027 1.450598,-0.24917 2.480726,-0.32146 0.349297,-0.0245 0.699931,-0.0231 1.049895,-0.0346 1.994318,-0.0719 1.892689,-2.89226 -0.101629,-2.8204 v 0 c -0.413226,0.016 -0.827258,0.0175 -1.239678,0.0479 -1.151065,0.0847 -1.617654,0.18365 -2.762324,0.36516 -1.131279,0.2363 -2.272086,0.45546 -3.349941,0.88787 -0.441944,0.1773 -0.965752,0.42097 -1.319836,0.76113 -0.164302,0.15784 -0.281645,0.3582 -0.422467,0.53731 -0.864786,1.7985 1.678682,3.02149 2.543467,1.22299 z"
       id="path1228"
       style="fill:#ffffff;fill-opacity:1;fill-rule:nonzero;stroke:none;stroke-width:0.264583" />
    <path
       d="m 35.46718,238.11413 c -0.03137,0.10735 -0.06689,0.21357 -0.09411,0.32204 -0.09677,0.38566 -0.158906,0.75439 -0.217146,1.15093 -0.15703,1.06914 -0.240361,2.14317 -0.32299,3.21998 -0.168603,2.65244 -0.217874,5.31063 -0.242515,7.96771 -0.0049,1.17622 0.0064,2.35282 0.05563,3.5281 0.08353,1.99387 2.903283,1.87573 2.819749,-0.11813 v 0 c -0.04723,-1.12724 -0.05789,-2.25575 -0.05328,-3.38389 0.02389,-2.59407 0.07156,-5.18919 0.234436,-7.77882 0.1,-1.31535 0.185452,-2.64159 0.468787,-3.9332 0.689226,-1.87282 -1.959335,-2.84753 -2.648561,-0.97472 z"
       id="path1236"
       style="fill:#ffffff;fill-opacity:1;fill-rule:nonzero;stroke:none;stroke-width:0.264583" />
    <path
       d="m 37.743124,239.83505 c -0.04724,0.0486 -0.125572,0.0799 -0.141709,0.14565 -0.0094,0.0382 0.07578,-0.0213 0.113755,-0.0317 0.107326,-0.0293 0.213778,-0.062 0.322144,-0.0872 0.365593,-0.0848 0.667451,-0.14343 1.046318,-0.16151 0.191799,-0.009 0.384009,0.004 0.576014,0.007 1.010581,0.15041 1.941423,0.63034 2.650781,1.36916 0.123912,0.12906 0.227984,0.2758 0.341974,0.4137 0.120618,0.22908 0.263329,0.43752 0.289452,0.70357 0.01484,0.15116 -0.148945,0.5556 -0.23104,0.67794 -0.03986,0.0594 -0.0963,0.10583 -0.144452,0.15874 -0.822809,0.51596 -1.810194,0.63631 -2.75473,0.74662 -0.525672,0.0335 -1.050473,0.068 -1.574729,0.11878 -1.985957,0.19607 -1.708682,3.00464 0.277276,2.80857 v 0 c 0.544748,-0.055 1.09102,-0.0809 1.636752,-0.1256 0.268054,-0.0334 0.537395,-0.0576 0.804158,-0.1001 1.166112,-0.18561 2.405709,-0.50105 3.341855,-1.26371 0.233013,-0.18983 0.421933,-0.42813 0.632901,-0.6422 0.371219,-0.62357 0.526542,-0.76957 0.68397,-1.48802 0.20515,-0.93626 0.09404,-1.81403 -0.34121,-2.66741 -0.139179,-0.27289 -0.3263,-0.51854 -0.48945,-0.77782 -0.560348,-0.62692 -0.66553,-0.8064 -1.354807,-1.3193 -0.823121,-0.61249 -1.769753,-1.0703 -2.773868,-1.29276 -0.331218,-0.0734 -0.67183,-0.0949 -1.007742,-0.14235 -0.299558,0.004 -0.599781,-0.007 -0.898673,0.0134 -0.496163,0.0339 -1.030576,0.13126 -1.512917,0.25789 -0.312594,0.0821 -0.788371,0.23002 -1.079277,0.40081 -0.163513,0.096 -0.306375,0.22347 -0.459563,0.3352 -1.37395,1.44732 0.672867,3.39038 2.046817,1.94306 z"
       id="path1238"
       style="fill:#ffffff;fill-opacity:1;fill-rule:nonzero;stroke:none;stroke-width:0.264583" />
    <path
       d="m 48.177602,240.13911 c 0.241364,1.57412 0.248724,3.17647 0.272002,4.76555 0.01924,2.59796 -0.254677,5.18342 -0.510563,7.76488 -0.06691,0.77334 -0.159465,1.5451 -0.203941,2.32034 -0.01693,0.29533 -0.0375,0.69295 0.01786,0.98773 0.03527,0.18782 0.105976,0.36722 0.158967,0.55083 0.2222,0.24952 0.376552,0.5827 0.666597,0.74855 0.756293,0.43247 1.437814,0.13461 2.149337,-0.12073 0.763897,-0.27414 0.465587,-0.17018 1.297612,-0.43784 1.574779,-0.49695 3.22726,-0.56343 4.861306,-0.67091 0.175715,-0.0149 0.351433,-0.0297 0.527148,-0.0446 1.988444,-0.16901 1.749427,-2.98109 -0.239017,-2.81208 v 0 c -0.157792,0.0135 -0.315587,0.027 -0.473379,0.0405 -1.865683,0.12274 -3.748133,0.22363 -5.54265,0.80117 -0.836629,0.27065 -0.649129,0.2015 -1.400424,0.47321 -0.123566,0.0447 -0.25309,0.0763 -0.369634,0.13699 -0.01728,0.009 0.03232,0.0225 0.05061,0.0292 0.914222,0.33286 0.513294,0.0209 1.102098,0.8318 0.0066,0.0645 0.02283,0.12866 0.01966,0.19337 -0.0019,0.0377 -0.02283,-0.073 -0.02371,-0.11073 -0.003,-0.12937 0.0048,-0.25884 0.01212,-0.38804 0.04259,-0.75191 0.133541,-1.50032 0.197885,-2.25037 0.266425,-2.68792 0.547325,-5.38026 0.524012,-8.08535 -0.027,-1.78109 -0.03552,-3.57961 -0.339751,-5.33955 -0.435636,-1.94749 -3.189795,-1.3314 -2.754159,0.61608 z"
       id="path1240"
       style="fill:#ffffff;fill-opacity:1;fill-rule:nonzero;stroke:none;stroke-width:0.264583" />
    <path
       d="m 51.517829,246.34164 c -1.314352,0.0436 -0.914834,0.0266 -0.06197,2.82918 0.03924,0.12893 0.268772,-0.0204 0.403157,-0.0306 1.652936,-0.13987 3.310554,-0.2099 4.965805,-0.31542 0.921888,-0.0797 0.488466,-0.0316 1.301004,-0.13743 1.978258,-0.26261 1.606868,-3.06029 -0.37139,-2.79768 v 0 c -0.664043,0.0903 -0.294669,0.0473 -1.1093,0.11861 -1.667478,0.10646 -3.33737,0.17677 -5.002506,0.31801 -0.112295,0.009 -0.325234,-0.0857 -0.336884,0.0263 -0.316505,3.0437 -0.804518,2.84368 0.285682,2.81031 1.994932,-0.052 1.921338,-2.8733 -0.0736,-2.82126 z"
       id="path1242"
       style="fill:#ffffff;fill-opacity:1;fill-rule:nonzero;stroke:none;stroke-width:0.264583" />
    <path
       d="m 49.750307,241.50908 c 1.715643,-0.26649 3.456035,-0.3417 5.187661,-0.43838 1.546876,-0.051 0.810101,-0.0436 2.210213,-0.0314 1.995556,0.015 2.016718,-2.80718 0.02117,-2.82214 v 0 c -1.536343,-0.01 -0.740016,-0.0196 -2.388884,0.0357 -1.871069,0.10471 -3.752908,0.18537 -5.604049,0.49294 -1.953919,0.40581 -1.380022,3.16906 0.573897,2.76326 z"
       id="path1244"
       style="fill:#ffffff;fill-opacity:1;fill-rule:nonzero;stroke:none;stroke-width:0.264583" />
    <path
       d="m 4.2860647,261.54617 c 0.016579,1.19039 0.07791,2.37973 0.1251355,3.56918 0.083322,2.09803 0.099214,4.19776 0.1250582,6.29703 -0.012129,1.04603 0.1054865,2.08255 0.2677771,3.11337 0.032983,0.21989 0.06779,0.43978 0.090078,0.6611 0.061979,0.83571 0.5558461,1.029 1.2428926,1.30634 0.099058,0.04 0.3873783,10e-4 0.5061066,-0.0107 0.8150797,-0.15624 1.6439782,-0.19226 2.4713536,-0.21965 1.6611877,-0.0347 3.3171537,0.12459 4.9767187,0.16044 0.160015,-10e-4 0.320031,-0.002 0.480046,-0.003 1.995556,-0.0149 1.974412,-2.8371 -0.02115,-2.82215 v 0 c -0.133343,10e-4 -0.266686,0.002 -0.400029,0.004 -1.711453,-0.0343 -3.419317,-0.2066 -5.1326407,-0.15938 -0.9114986,0.0324 -1.8266558,0.069 -2.7250633,0.23986 0.4316727,0.023 0.6584415,0.0398 1.075709,0.47761 0.1957919,0.20544 0.3644249,1.06415 0.3374837,0.78164 -0.0014,-0.0148 -0.00275,-0.0296 -0.00413,-0.0444 -0.028332,-0.27114 -0.067771,-0.54097 -0.1095142,-0.81032 -0.1412999,-0.89716 -0.2493362,-1.79813 -0.2336385,-2.70912 -0.026173,-2.12502 -0.042542,-4.2505 -0.1270664,-6.37426 -0.045752,-1.15216 -0.1047557,-2.30419 -0.1229132,-3.4572 0,-1.99562 -2.8222223,-1.99562 -2.8222223,0 z"
       id="path1256"
       style="fill:#ffffff;fill-opacity:1;fill-rule:nonzero;stroke:none;stroke-width:0.264583" />
    <path
       d="m 6.8968524,268.93372 c 0.9768429,-0.31514 2.0053456,-0.36548 3.0232177,-0.38546 0.8279649,0.0368 0.4326199,0.007 1.1864789,0.0837 1.986179,0.19381 2.260268,-2.61507 0.274089,-2.80888 v 0 c -0.973621,-0.0918 -0.465595,-0.0574 -1.5245354,-0.0963 -0.2899217,0.007 -0.5801601,0.007 -0.8697648,0.0219 -1.006766,0.0535 -2.0128833,0.2004 -2.9756356,0.50559 -1.8946868,0.6266 -1.0085366,3.30609 0.8861502,2.67949 z"
       id="path1258"
       style="fill:#ffffff;fill-opacity:1;fill-rule:nonzero;stroke:none;stroke-width:0.264583" />
    <path
       d="m 6.247848,263.82007 c 1.1674993,-0.28314 2.3621013,-0.4259 3.5542508,-0.55711 0.6745672,-0.0842 1.3497562,-0.0854 2.0262872,-0.0462 1.993067,0.10076 2.135566,-2.71786 0.142499,-2.81863 v 0 c -0.241956,-0.0109 -0.483671,-0.0311 -0.725868,-0.0328 -0.697696,-0.005 -1.047545,0.0379 -1.7530514,0.0925 -1.3040916,0.14477 -2.6102532,0.30432 -3.8873932,0.61431 -1.943082,0.45487 -1.2998064,3.2028 0.6432756,2.74793 z"
       id="path1260"
       style="fill:#ffffff;fill-opacity:1;fill-rule:nonzero;stroke:none;stroke-width:0.264583" />
    <path
       d="m 21.327478,261.13133 c 0.395548,1.93875 0.495818,3.92651 0.634582,5.89617 0.146552,2.4968 0.08034,4.9998 0.203441,7.49717 0.0992,1.99315 2.917933,1.85286 2.818733,-0.14029 v 0 c -0.126576,-2.5166 -0.05056,-5.03961 -0.206948,-7.55547 -0.15107,-2.13884 -0.262236,-4.29837 -0.716231,-6.39936 -0.496232,-1.93293 -3.229809,-1.23116 -2.733577,0.70178 z"
       id="path1262"
       style="fill:#ffffff;fill-opacity:1;fill-rule:nonzero;stroke:none;stroke-width:0.264583" />
    <path
       d="m 23.317653,263.13232 c 0.569021,-0.31774 1.197308,-0.50969 1.84306,-0.59539 0.225403,-0.0299 0.453266,-0.0368 0.6799,-0.0552 0.779507,0.0125 1.6658,0.0586 2.247108,0.65513 0.267034,0.27404 0.289203,0.4022 0.442497,0.7426 0.105894,0.35245 0.182991,0.74598 -0.02336,1.08366 -0.165495,0.27082 -0.641824,0.45272 -0.8991,0.57891 -0.847479,0.34219 -1.759788,0.4187 -2.659439,0.50886 -1.985643,0.19922 -1.703898,3.00734 0.281745,2.80812 v 0 c 1.30446,-0.13103 2.614163,-0.29196 3.806825,-0.88335 0.793674,-0.50142 1.192155,-0.64368 1.747835,-1.44385 0.625692,-0.90098 0.773449,-2.01546 0.540602,-3.07049 -0.07305,-0.33101 -0.221858,-0.64063 -0.332787,-0.96095 -0.492131,-0.81084 -0.573125,-1.10456 -1.337252,-1.71035 -0.877364,-0.69557 -1.942521,-1.00835 -3.041984,-1.10288 -0.343481,-0.0295 -0.689419,-0.0103 -1.034128,-0.0155 -0.32587,0.033 -0.653857,0.0494 -0.977609,0.099 -1.00066,0.15345 -2.015748,0.47618 -2.865032,1.03875 -0.131464,0.0871 -0.249948,0.19234 -0.374922,0.2885 -1.438551,1.38313 0.517487,3.41755 1.956037,2.03442 z"
       id="path1264"
       style="fill:#ffffff;fill-opacity:1;fill-rule:nonzero;stroke:none;stroke-width:0.264583" />
    <path
       d="m 35.71814,261.83999 c 0.207206,1.3755 0.22592,2.77307 0.267708,4.16109 0.07067,2.12086 0.04291,4.24204 -0.05774,6.36113 -0.0614,0.9382 -0.09151,1.87851 0.05016,2.8102 0.13398,0.71638 0.416648,1.15673 1.147623,1.44816 0.338682,0.13503 0.680053,0.064 1.020021,0.0265 1.274043,-0.26286 2.570073,-0.33472 3.867153,-0.35883 1.240208,0.0222 2.479733,0.0269 3.719909,0.009 0.04062,0.001 0.08123,0.003 0.121844,0.004 1.995053,0.0473 2.061911,-2.77416 0.06686,-2.82143 v 0 c -0.07638,-0.002 -0.152755,-0.003 -0.229129,-0.004 -1.245222,0.0179 -2.489727,0.0106 -3.735012,-0.009 -1.409899,0.0291 -2.820757,0.10333 -4.206325,0.38603 -0.161435,0.0703 0.04611,-0.0306 0.277908,0.0942 0.329324,0.17739 0.700699,0.43509 0.752702,0.8443 0.0026,0.0203 -0.01064,-0.0395 -0.01593,-0.0593 -0.12563,-0.73932 -0.04793,-1.4919 -0.01871,-2.23603 0.103576,-2.19199 0.132638,-4.38614 0.05961,-6.57993 -0.04669,-1.53954 -0.07011,-3.09013 -0.318111,-4.6135 -0.380188,-1.95906 -3.150719,-1.4214 -2.770531,0.53767 z"
       id="path1266"
       style="fill:#ffffff;fill-opacity:1;fill-rule:nonzero;stroke:none;stroke-width:0.264583" />
    <path
       d="m 38.392996,269.2639 c 1.237504,-0.28713 2.501418,-0.47095 3.768111,-0.56705 0.312002,-0.0237 0.624909,-0.0334 0.937363,-0.05 0.988195,0.002 0.525373,-0.015 1.388819,0.0389 1.992231,0.11615 2.156492,-2.70129 0.164261,-2.81744 v 0 c -1.080849,-0.0595 -0.511802,-0.0431 -1.707403,-0.0394 -0.352584,0.0197 -0.705676,0.0319 -1.057752,0.0592 -1.418259,0.11021 -2.8331,0.31959 -4.217299,0.64807 -1.92885,0.51187 -1.20495,3.23967 0.7239,2.7278 z"
       id="path1268"
       style="fill:#ffffff;fill-opacity:1;fill-rule:nonzero;stroke:none;stroke-width:0.264583" />
    <path
       d="m 37.613893,263.13247 c 1.212316,-0.42151 2.475394,-0.67011 3.729913,-0.92971 0.830012,-0.15084 1.264394,-0.24529 2.089494,-0.33797 0.26415,-0.0297 0.529998,-0.0415 0.794999,-0.0622 1.989045,-0.16177 1.760268,-2.9747 -0.228777,-2.81293 v 0 c -0.319905,0.0268 -0.640784,0.0438 -0.959713,0.0805 -0.898593,0.10324 -1.371248,0.20536 -2.268569,0.3691 -1.005321,0.20854 -2.011053,0.41301 -3.000814,0.68853 -0.351229,0.0978 -0.811334,0.23923 -1.161621,0.37781 -0.130646,0.0517 -0.256858,0.11395 -0.385287,0.17093 -1.736632,0.98314 -0.34626,3.43912 1.390375,2.45597 z"
       id="path1270"
       style="fill:#ffffff;fill-opacity:1;fill-rule:nonzero;stroke:none;stroke-width:0.264583" />
    <path
       d="m 53.401575,273.04153 c 0.433324,-1.61934 0.83784,-3.24597 1.233591,-4.87483 0.327004,-1.3558 0.637453,-2.71554 0.963424,-4.07158 0.08599,-0.35771 0.31555,-1.33143 0.450091,-1.74169 0.03834,-0.1169 0.09842,-0.22552 0.147627,-0.33828 -0.270507,0.65349 -0.05704,0.33948 -1.325269,0.68411 -0.07831,0.0213 -0.25223,-0.0876 -0.243353,-0.007 0.0223,0.20258 0.206738,0.3515 0.301154,0.53212 0.465984,0.89144 0.550926,1.13171 0.984785,2.11157 0.979135,2.38501 1.887272,4.79856 2.814714,7.20404 0.240104,0.64006 0.133519,0.35205 0.321167,0.86351 0.687551,1.87343 3.336983,0.90108 2.649429,-0.97235 v 0 c -0.197715,-0.53857 -0.08576,-0.23624 -0.33732,-0.90644 -0.944388,-2.44939 -1.868167,-4.90743 -2.868811,-7.33452 -0.386099,-0.86654 -0.686893,-1.60083 -1.147138,-2.42317 -0.170389,-0.30443 -0.32639,-0.62379 -0.554855,-0.88745 -0.270354,-0.312 -0.524298,-0.72848 -0.926404,-0.82202 -0.567926,-0.13211 -1.1947,-0.0105 -1.737532,0.20234 -0.273643,0.10732 -0.363522,0.46201 -0.545283,0.69301 -0.0843,0.21588 -0.180906,0.42736 -0.252883,0.64765 -0.139282,0.42629 -0.382969,1.45549 -0.476279,1.84368 -0.324729,1.3509 -0.634056,2.70547 -0.959721,4.05615 -0.297254,1.22377 -0.341331,1.42061 -0.640884,2.5979 -0.189936,0.74648 -0.404704,1.48909 -0.579895,2.23931 -0.02712,0.1161 -0.04693,0.2338 -0.07039,0.35069 -0.249719,1.97993 2.550322,2.33308 2.800038,0.35316 z"
       id="path1272"
       style="fill:#ffffff;fill-opacity:1;fill-rule:nonzero;stroke:none;stroke-width:0.264583" />
    <path
       d="m 54.72046,269.63569 c 0.770178,-0.12554 1.546418,-0.22986 2.326486,-0.26794 0.215659,-0.0105 0.431721,-0.01 0.647581,-0.0147 0.756076,0.0435 0.389901,0.0102 1.098894,0.0961 1.982443,0.22889 2.306129,-2.57471 0.323686,-2.80359 v 0 c -0.9612,-0.10692 -0.463304,-0.0669 -1.494179,-0.11378 -0.262911,0.007 -0.526068,0.008 -0.788733,0.0218 -0.895395,0.0461 -1.786856,0.16566 -2.670183,0.31531 -1.956441,0.39347 -1.39999,3.1603 0.556448,2.76683 z"
       id="path1274"
       style="fill:#ffffff;fill-opacity:1;fill-rule:nonzero;stroke:none;stroke-width:0.264583" />
    <path
       d="m 5.0967115,280.40868 c 0.1753637,2.11099 0.4088331,4.21647 0.6191822,6.32412 0.1605568,1.89415 0.102907,1.12599 0.2289037,2.94119 0.03616,0.52094 0.086839,1.46716 0.1678427,2.02476 0.028707,0.19761 0.081313,0.391 0.12197,0.5865 0.4384931,1.94684 3.191743,1.32672 2.7532499,-0.62013 v 0 C 8.8639495,291.19693 8.901993,291.39395 8.8401727,290.64647 8.7246292,289.24939 8.6743732,287.84692 8.5241618,286.4525 8.312728,284.33438 8.0789816,282.21839 7.9016711,280.097 7.6812845,278.1136 4.876325,278.42527 5.0967115,280.40868 Z"
       id="path1276"
       style="fill:#ffffff;fill-opacity:1;fill-rule:nonzero;stroke:none;stroke-width:0.264583" />
    <path
       d="m 6.0854856,282.18963 c 0.6960624,-0.32069 1.4663746,-0.46423 2.2261864,-0.52814 0.2711731,-0.0228 0.5436852,-0.025 0.8155279,-0.0375 1.1161391,0.0474 2.5659881,0.12015 3.3596581,1.0384 0.06851,0.0793 0.09796,0.18522 0.146933,0.27783 -0.02686,0.0247 -0.04421,0.0766 -0.08058,0.074 -0.10352,-0.007 -0.118206,-0.17394 -0.250676,-0.11231 -0.122674,0.0571 -0.215795,0.16364 -0.329136,0.23753 -0.568618,0.37069 -0.587682,0.35399 -1.229354,0.66792 -0.668616,0.29937 -1.3802977,0.47536 -2.0748823,0.7002 -1.8979047,0.61679 -1.0256354,3.30084 0.8722693,2.68405 v 0 c 0.829482,-0.27088 1.680565,-0.482 2.470788,-0.86301 0.31536,-0.16175 0.640836,-0.30512 0.946078,-0.48523 0.563607,-0.33256 1.292881,-0.83524 1.689754,-1.37191 0.519095,-0.70194 0.756477,-1.32314 0.627105,-2.20286 -0.05257,-0.35751 -0.2527,-0.67708 -0.37905,-1.01562 -0.220704,-0.26899 -0.409628,-0.56756 -0.662113,-0.80697 -1.120047,-1.06204 -2.662401,-1.47108 -4.158236,-1.60188 -0.3634999,-0.0318 -0.7293205,-0.0257 -1.0939806,-0.0386 -0.3468878,0.0194 -0.6948001,0.0253 -1.0406631,0.0582 -1.0952546,0.10439 -2.1933347,0.34605 -3.1837162,0.83572 -1.760842,0.9391 -0.4327575,3.42931 1.3280845,2.49021 z"
       id="path1278"
       style="fill:#ffffff;fill-opacity:1;fill-rule:nonzero;stroke:none;stroke-width:0.264583" />
    <path
       d="m 21.08781,281.17038 c 0.292802,1.52054 0.255937,3.08109 0.233227,4.62186 -0.04597,1.9016 -0.166228,3.80028 -0.232957,5.70108 -0.01473,0.45897 -0.02065,0.9184 -0.0077,1.37749 0.0029,0.10094 0.01263,0.36476 0.02842,0.4739 0.01472,0.10171 0.03823,0.20196 0.05734,0.30294 0.319228,0.65458 0.240376,0.72256 1.056506,1.09466 0.251686,0.11476 0.702803,0.0721 0.978953,0.0481 0.304137,-0.0265 0.607301,-0.0632 0.91121,-0.0921 1.860265,-0.12956 3.726804,-0.13076 5.590391,-0.17845 0.803053,-0.0217 1.605328,-0.0619 2.407296,-0.10766 1.992362,-0.11384 1.831361,-2.93147 -0.161002,-2.81762 v 0 c -0.772393,0.0442 -1.545098,0.0829 -2.318544,0.10398 -1.929034,0.0494 -3.861289,0.0496 -5.786542,0.19032 -0.178462,0.0171 -0.357022,0.0332 -0.535385,0.0513 -0.116752,0.0118 -0.233471,0.0242 -0.349941,0.0385 -0.03475,0.004 -0.134167,2.7e-4 -0.103588,0.0174 0.07724,0.0431 0.181859,0.0205 0.256495,0.0679 0.668881,0.42525 0.55047,0.34018 0.797306,0.92042 0.0035,0.0365 0.0084,0.0728 0.01054,0.10939 0.0016,0.0287 -0.0074,-0.0571 -0.0092,-0.0859 -0.0041,-0.0641 -0.0066,-0.12823 -0.0086,-0.19239 -0.01236,-0.40772 -0.0065,-0.81578 0.0065,-1.22341 0.06697,-1.92028 0.190043,-3.83837 0.234397,-5.75953 0.0247,-1.7879 0.05564,-3.59994 -0.320167,-5.35833 -0.49231,-1.93394 -3.227306,-1.23771 -2.734996,0.69623 z"
       id="path1280"
       style="fill:#ffffff;fill-opacity:1;fill-rule:nonzero;stroke:none;stroke-width:0.264583" />
    <path
       d="m 23.788432,288.53163 c 1.144713,-0.18297 2.305209,-0.25836 3.458076,-0.37852 0.707638,-0.075 1.414007,-0.1611 2.120172,-0.2487 1.980422,-0.24575 1.632871,-3.04649 -0.347551,-2.80074 v 0 c -0.687899,0.0854 -1.376,0.16926 -2.065335,0.24244 -1.024888,0.10693 -0.673073,0.0726 -1.686613,0.16899 -0.718572,0.0683 -1.442706,0.11916 -2.149199,0.2751 -1.938484,0.47408 -1.268033,3.21551 0.67045,2.74143 z"
       id="path1282"
       style="fill:#ffffff;fill-opacity:1;fill-rule:nonzero;stroke:none;stroke-width:0.264583" />
    <path
       d="m 23.75071,282.46402 c 1.277719,-0.37596 2.605763,-0.54799 3.921938,-0.72873 1.203227,-0.11593 0.626192,-0.087 1.730394,-0.10002 1.995307,-0.0349 1.945957,-2.85668 -0.04935,-2.82179 v 0 c -1.365994,0.0299 -0.677252,-0.0109 -2.066026,0.12597 -1.009816,0.1394 -2.0177,0.28117 -3.016442,0.48832 -0.452815,0.0939 -0.92652,0.20194 -1.367333,0.34965 -0.145744,0.0488 -0.285977,0.1128 -0.428965,0.1692 -1.780072,0.90212 -0.504288,3.41952 1.275784,2.5174 z"
       id="path1284"
       style="fill:#ffffff;fill-opacity:1;fill-rule:nonzero;stroke:none;stroke-width:0.264583" />
    <path
       d="m 38.902364,293.47204 c 0.649467,-1.24075 1.16029,-2.55056 1.577194,-3.88653 0.139801,-0.44798 0.261237,-0.90149 0.391856,-1.35224 0.61237,-2.23898 1.030944,-4.52397 1.355347,-6.8205 -0.355749,0.73057 0.246216,-0.96058 0.129357,-0.73936 -0.40096,0.75907 0.614926,0.4765 -1.449414,0.9655 -0.179771,0.0426 -0.341474,-0.23784 -0.520224,-0.19116 -0.106135,0.0277 0.111655,0.18884 0.167482,0.28326 1.281197,2.20349 2.400524,4.49541 3.461469,6.81133 0.47887,1.06161 0.941475,2.13164 1.492076,3.15893 0.257672,0.48075 0.422648,0.74069 0.693607,1.18597 1.039194,1.70369 3.448569,0.23404 2.409376,-1.46964 v 0 c -0.220697,-0.36082 -0.384588,-0.61974 -0.591201,-1.00315 -0.533443,-0.98988 -0.974135,-2.02492 -1.438281,-3.04801 -1.124055,-2.45129 -2.307584,-4.88004 -3.680441,-7.20335 -0.295005,-0.42004 -0.776036,-1.2638 -1.388528,-1.28072 -1.750711,-0.0483 -1.90776,0.90803 -2.079837,2.13621 -0.304972,2.16534 -0.697801,4.31999 -1.27223,6.43172 -0.118475,0.41188 -0.228629,0.82625 -0.355431,1.23564 -0.370014,1.19466 -0.821404,2.36752 -1.402077,3.47635 -0.926129,1.7677 1.573771,3.07744 2.4999,1.30975 z"
       id="path1286"
       style="fill:#ffffff;fill-opacity:1;fill-rule:nonzero;stroke:none;stroke-width:0.264583" />
    <path
       d="m 40.769819,289.07579 c 1.132954,-0.19323 2.280785,-0.28851 3.429072,-0.31243 1.995074,-0.0463 1.929579,-2.86778 -0.06549,-2.82147 v 0 c -1.311815,0.0331 -2.623836,0.1361 -3.917048,0.36648 -1.956861,0.39136 -1.403387,3.15878 0.553471,2.76742 z"
       id="path1288"
       style="fill:#ffffff;fill-opacity:1;fill-rule:nonzero;stroke:none;stroke-width:0.264583" />
    <path
       d="m 54.702097,279.21652 c 0.0372,2.22431 0.116859,4.44733 0.203005,6.67022 0.06777,1.28939 0.06862,2.58233 0.151431,3.87106 0.02561,0.39866 0.07709,1.10905 0.196371,1.52121 0.05914,0.20437 0.160396,0.39411 0.240594,0.59116 0.360228,0.25401 0.720455,0.50801 1.080683,0.76202 1.956599,0.39268 2.511925,-2.37437 0.555328,-2.76705 v 0 c 0.292431,0.2404 0.584862,0.4808 0.877295,0.7212 0.0053,0.0504 0.03027,0.19996 0.0159,0.15132 -0.1039,-0.35198 -0.12405,-0.75404 -0.146929,-1.10919 -0.03587,-0.55673 -0.07717,-1.87399 -0.09553,-2.37738 -0.01791,-0.49124 -0.0367,-0.98243 -0.05505,-1.47365 -0.08688,-2.24157 -0.164375,-4.48328 -0.205727,-6.72617 -0.116845,-1.99219 -2.934223,-1.82694 -2.817381,0.16525 z"
       id="path1290"
       style="fill:#ffffff;fill-opacity:1;fill-rule:nonzero;stroke:none;stroke-width:0.264583" />
    <path
       d="m 50.884837,280.93201 c -0.06636,0.0796 -0.161054,0.14241 -0.199072,0.23882 -0.01323,0.0335 0.07265,1.3e-4 0.107873,-0.008 0.166169,-0.0362 0.328443,-0.0892 0.494961,-0.12371 1.174391,-0.24366 2.361134,-0.36078 3.552849,-0.48131 2.464896,-0.17789 4.95703,-0.2211 7.411993,0.10906 0.273338,0.0368 0.54411,0.0906 0.816165,0.13586 1.969307,0.32295 2.426026,-2.46208 0.456719,-2.78503 v 0 c -0.321482,-0.052 -0.641565,-0.11363 -0.964446,-0.15614 -2.652747,-0.34933 -5.343835,-0.30992 -8.006562,-0.11143 -1.248968,0.12817 -1.697225,0.15317 -2.898301,0.35173 -0.715232,0.11824 -1.896899,0.31369 -2.535791,0.71965 -0.19436,0.12349 -0.347482,0.30226 -0.521223,0.4534 -1.171425,1.61562 1.113411,3.27226 2.284835,1.65664 z"
       id="path1292"
       style="fill:#ffffff;fill-opacity:1;fill-rule:nonzero;stroke:none;stroke-width:0.264583" />
  </g>
</svg>
