<?xml version="1.0" encoding="UTF-8" standalone="no"?>
<svg
   xmlns:dc="http://purl.org/dc/elements/1.1/"
   xmlns:cc="http://creativecommons.org/ns#"
   xmlns:rdf="http://www.w3.org/1999/02/22-rdf-syntax-ns#"
   xmlns:svg="http://www.w3.org/2000/svg"
   xmlns="http://www.w3.org/2000/svg"
   xmlns:sodipodi="http://sodipodi.sourceforge.net/DTD/sodipodi-0.dtd"
   xmlns:inkscape="http://www.inkscape.org/namespaces/inkscape"
   inkscape:version="1.0 (1.0+r73+1)"
   sodipodi:docname="request.svg"
   id="svg8"
   version="1.1"
   viewBox="0 0 64 64"
   height="64mm"
   width="64mm">
  <defs
     id="defs2" />
  <sodipodi:namedview
     inkscape:document-rotation="0"
     inkscape:window-maximized="1"
     inkscape:window-y="27"
     inkscape:window-x="0"
     inkscape:window-height="1016"
     inkscape:window-width="1920"
     inkscape:snap-page="true"
     showgrid="false"
     inkscape:current-layer="layer1"
     inkscape:document-units="mm"
     inkscape:cy="110.27027"
     inkscape:cx="68.750268"
     inkscape:zoom="3"
     inkscape:pageshadow="2"
     inkscape:pageopacity="0.0"
     borderopacity="1.0"
     bordercolor="#666666"
     pagecolor="#ffffff"
     id="base" />
  <metadata
     id="metadata5">
    <rdf:RDF>
      <cc:Work
         rdf:about="">
        <dc:format>image/svg+xml</dc:format>
        <dc:type
           rdf:resource="http://purl.org/dc/dcmitype/StillImage" />
        <dc:title></dc:title>
      </cc:Work>
    </rdf:RDF>
  </metadata>
  <g
     transform="translate(0,-233)"
     id="layer1"
     inkscape:groupmode="layer"
     inkscape:label="Layer 1">
    <rect
       y="233"
       x="0"
       height="64"
       width="64"
       id="rect3713"
       style="fill:#3f51b5;stroke-width:0.26458332;fill-opacity:1" />
    <path
       d="m -0.0425567,243.78132 c 0.5366045,0.0348 1.0738356,0.0113 1.6097134,-0.0225 0.6505178,-0.044 1.3010057,-0.0876 1.9502395,-0.14798 0.6534645,-0.0709 1.3051403,-0.15502 1.9595012,-0.21778 0.475433,-0.0478 0.9508966,-0.0949 1.4266045,-0.13985 0.3393263,-0.0381 0.6800559,-0.0595 1.0208059,-0.0796 0.2857471,-0.0183 0.5720133,-0.0243 0.8582787,-0.025 0.03801,-0.005 0.1091647,0.005 0.1166614,0.006 -0.6456651,-0.096 -1.1689858,-0.63969 -1.187898,-1.3468 0.00823,-0.66958 -0.015954,-0.0575 1.1760129,-1.41201 -1.9812339,0.23913 -1.6430583,3.04102 0.3381756,2.80189 v 0 c 1.3253256,-1.3705 1.2980246,-0.72468 1.3077206,-1.4319 -0.01731,-0.77512 -0.5656797,-1.301 -1.2531614,-1.40758 -0.1673963,-0.0222 -0.3359663,-0.0336 -0.5049073,-0.0321 -0.3393588,0.001 -0.6787158,0.008 -1.0174684,0.0299 -0.3737827,0.0221 -0.7475289,0.0461 -1.1198058,0.0872 -0.4770999,0.0451 -0.9539613,0.0923 -1.4307833,0.14024 -0.6519336,0.0627 -1.3014288,0.1446 -1.9522647,0.21709 -0.6216695,0.0584 -1.24471,0.0987 -1.8676118,0.14149 -0.41929864,0.0272 -0.83963469,0.0488 -1.25965478,0.0219 -1.99198192,-0.12032 -2.16214022,2.69677 -0.17015822,2.81709 z"
       id="path2355"
       style="fill:#ffffff;fill-opacity:1;fill-rule:nonzero;stroke:none;stroke-width:0.264583" />
    <path
       d="m 7.3209625,232.83309 c -0.0018,0.52871 0.0051,1.05655 0.038922,1.58426 0.070139,0.69013 0.1117327,1.38193 0.1369464,2.075 0.046685,0.88279 -0.00361,1.76288 -0.108899,2.63915 -0.091641,0.68227 -0.2040038,1.36148 -0.286466,2.04498 -0.041024,0.35373 -0.060943,0.70942 -0.069381,1.06529 -0.013234,0.97564 -0.101686,0.15092 2.4417287,-0.82516 -1.3083357,-1.50689 -3.4394044,0.34337 -2.1310687,1.85027 v 0 c 2.4107843,-0.82806 2.4998246,0.0137 2.5108161,-0.96022 0.00583,-0.26516 0.020061,-0.53023 0.050014,-0.79385 0.081683,-0.68472 0.198429,-1.36452 0.286869,-2.04836 0.120172,-1.02126 0.179392,-2.04722 0.126704,-3.07576 -0.02672,-0.72046 -0.06736,-1.44 -0.14118,-2.15737 -0.03274,-0.47664 -0.03217,-0.95366 -0.03298,-1.43125 -0.02334,-1.99547 -2.8453744,-1.96246 -2.8220295,0.033 z"
       id="path2357"
       style="fill:#ffffff;fill-opacity:1;fill-rule:nonzero;stroke:none;stroke-width:0.264583" />
    <path
       d="m 7.8595058,238.40209 c -1.1415395,-0.21297 -2.3096212,-0.0659 -3.4489954,0.0831 -1.2682002,0.21854 -2.5376805,0.46213 -3.77706613,0.81279 -1.16024743,0.51575 -0.85336993,0.23176 0.62434303,2.78235 0.081509,0.14069 0.3223125,-0.0432 0.4831345,-0.0672 0.7276438,-0.10833 1.4538198,-0.22776 2.1808342,-0.34026 0.2481283,-0.0372 1.1281492,-0.16807 1.4065684,-0.21376 1.0447358,-0.17144 2.0813744,-0.3384 1.7383204,-2.21073 -0.096198,-0.52503 -0.910622,-0.55716 -1.3659329,-0.83574 -1.1973705,-0.0944 -2.395873,0.0276 -3.5932162,0.0495 1.2211912,0.12181 0.1323555,-0.10643 0.8351668,2.45897 0.016912,0.0617 0.1248658,-0.0294 0.1851689,-0.0508 0.7179397,-0.25536 1.4240136,-0.55001 2.1308067,-0.83409 0.4044635,-0.17251 0.9727827,-0.40202 1.367001,-0.61658 0.1756487,-0.0956 0.3640381,-0.17977 0.509052,-0.31747 0.221135,-0.20999 0.6199836,-0.41016 0.5747959,-0.71175 -0.3389352,-2.26207 -0.5808779,-2.00703 -1.9777061,-2.16539 -0.8806627,0.0277 -1.7543799,0.14833 -2.6248881,0.27622 -0.1593834,0.0234 -0.99544,0.18306 -1.2235448,0.16902 0.4001788,0.74718 0.8003575,1.49436 1.2005361,2.24155 -0.060557,0.0792 -0.2782689,0.21293 -0.1816709,0.2375 0.1542151,0.0392 0.2966979,-0.11516 0.4459727,-0.17028 0.5989833,-0.22117 1.2041933,-0.42485 1.808176,-0.63178 1.3690816,-0.49225 1.4140288,-0.47036 0.1273691,-2.98365 -0.1090571,-0.21302 -0.4779185,0.0317 -0.7151923,0.0629 -0.1956541,0.0257 -1.2542695,0.23026 -1.4179963,0.26141 -0.2431717,0.0472 -0.486256,0.0948 -0.7295151,0.14152 -0.1991739,0.0383 -0.398074,0.078 -0.597781,0.11341 -0.1110884,0.0197 -0.2482957,-0.0211 -0.3344801,0.0517 -0.075336,0.0636 0.2616805,-0.11129 0.2952637,-0.0186 0.9478903,2.61706 -0.2494903,2.87889 1.0141955,2.4539 0.704148,-0.23513 1.4166185,-0.44393 2.1256061,-0.66365 0.1563174,-0.0484 0.8807905,-0.26608 1.0739392,-0.36657 0.1834489,-0.0954 0.3472469,-0.22466 0.5208701,-0.33698 -0.2669145,-0.83147 -0.337335,-1.75425 -0.8007439,-2.49441 -0.1367484,-0.21842 -0.515207,-0.0242 -0.7728448,-0.0189 -0.674034,0.0139 -1.3412605,0.14319 -2.0154712,0.15352 2.0690385,1.10319 0.9416407,-0.003 0.8584951,2.51168 -0.00366,0.11077 0.2098279,-0.0715 0.3149762,-0.10655 0.1807191,-0.0602 0.3613433,-0.12078 0.542621,-0.17932 0.3847216,-0.12424 0.7709561,-0.24374 1.1564109,-0.36568 0.3038216,-0.1023 1.4195173,-0.46187 1.4208601,-0.84977 0.00254,-0.73546 -0.2386187,-1.48303 -0.6011942,-2.12291 -0.1637517,-0.28899 -1.059189,-0.11224 -1.2796784,-0.0853 -0.2152187,0.10592 -0.4575985,0.16885 -0.6456558,0.31775 -0.8455562,0.66949 -0.9857799,1.77458 -0.8458542,2.77286 0.029826,0.21279 0.089639,0.42029 0.1344589,0.63043 0.1084572,0.31141 0.2320959,0.76273 0.4554627,1.02377 0.1813624,0.21195 0.3482137,0.52184 0.6250025,0.5565 0.5879732,0.0736 1.2230277,-0.005 1.7588907,-0.25792 0.3708651,-0.17507 0.5445993,-1.00777 0.6469242,-1.37806 0.1953345,-1.00713 0.5236007,-1.97423 0.9364993,-2.91086 0.5846382,-1.26308 0.5460101,-0.58706 -2.408941,-1.33301 -0.05663,-0.0143 -0.029535,0.11308 -0.041199,0.17031 -0.03146,0.15436 -0.058759,0.30954 -0.088139,0.46432 -0.1712421,0.97519 -0.2386841,1.96349 -0.3281326,2.94823 -0.07154,0.39051 0.084328,-0.49437 0.2248207,-0.51019 0.8088008,-0.0911 1.6152905,0.20167 2.4231457,0.30081 0.00799,9.8e-4 0.024254,0.008 0.024143,-5.1e-4 -0.00146,-0.10411 -0.018918,-0.20738 -0.028522,-0.31105 -0.014428,-0.15576 -0.029046,-0.31151 -0.043568,-0.46727 -0.068195,-0.55529 -0.105867,-1.12267 -0.2561334,-1.66458 -0.055974,-0.20186 -0.1109083,-0.40685 -0.204711,-0.59415 -0.1149183,-0.22947 -0.2304544,-0.47094 -0.4169759,-0.64721 -0.2548141,-0.2408 -0.5860195,-0.38503 -0.8790292,-0.57755 -0.3510663,-0.0344 -0.700887,-0.12053 -1.0531985,-0.10308 -0.4835573,0.024 -1.1971139,0.30631 -1.6427373,0.48825 -0.6493182,0.26511 -1.2815315,0.57732 -1.917126,0.8733 -0.1624611,0.0744 -0.3249222,0.14872 -0.4873833,0.22308 -0.1316755,0.0594 -0.263577,0.11822 -0.39502638,0.17808 -0.95085991,0.43299 -1.57694986,0.73334 -0.77469128,2.58061 0.18580059,0.42783 0.90902046,0.20953 1.36353056,0.31429 1.2551177,-0.25658 2.5013097,-0.56076 3.714737,-0.97288 0.1768634,-0.0836 0.3669501,-0.14353 0.5305898,-0.2507 0.7146057,-0.46801 1.1148753,-0.99806 0.8031486,-2.08122 -0.2256944,-0.78422 -1.1568655,-1.01513 -1.8073579,-1.11647 -0.2578248,-0.0402 -0.5208823,-0.0321 -0.7813236,-0.0481 -1.3468673,0.0238 -2.6758059,0.32987 -3.90313866,0.8844 -0.17575486,0.0794 -0.34468529,0.17314 -0.51702794,0.2597 -0.14338704,0.0943 -0.29879996,0.17246 -0.43016114,0.28289 -0.53756436,0.45194 -0.99413526,1.10022 -0.57466316,1.94543 0.4817802,0.97075 1.30553517,0.9589 2.0760019,0.77903 0.18920444,-0.0442 0.36385695,-0.13641 0.5457854,-0.20461 0.1735946,-0.0994 0.3558979,-0.1849 0.5207836,-0.29815 0.7687124,-0.52796 1.3734826,-1.42427 1.1464429,-2.40559 -0.066188,-0.28608 -0.2547412,-0.52914 -0.3821117,-0.79372 -0.2633067,-0.18889 -0.4924813,-0.43807 -0.7899201,-0.56669 -0.259586,-0.11224 -0.5545193,-0.1398 -0.83732073,-0.13695 -0.75793126,0.008 -1.48287765,0.43461 -1.97587207,0.98386 -0.1607801,0.17913 -0.2791346,0.39221 -0.4187019,0.58832 -0.096881,0.2319 -0.2153498,0.45593 -0.2906423,0.69571 -0.2504611,0.79765 -0.2299613,1.69012 -0.064489,2.50168 0.034344,0.16843 0.085704,0.33295 0.1285557,0.49943 0.1723807,0.48128 0.3780179,0.97771 0.7180389,1.36951 0.084356,0.0972 0.16534038,0.20106 0.26992255,0.27607 0.17079839,0.12251 0.36570256,0.20731 0.54855385,0.31097 0.27534848,0.0183 0.55070703,0.0735 0.82604545,0.055 0.35846523,-0.0241 0.85042595,-0.34107 1.15999465,-0.54101 -0.99357176,0.51828 -0.2546448,0.22902 -2.03737744,-1.73699 -0.0207894,-0.0229 0.0548212,-0.11025 0.0363271,-0.0854 -0.17877028,0.23987 -0.2899959,0.53452 -0.40405986,0.80693 -0.22942785,0.6459 -0.2904915,1.3311 -0.3324496,2.01024 -0.00297,0.063 -0.00628,0.12589 -0.00892,0.18885 -0.00534,0.12722 -0.00129,0.25574 -0.00882,0.38275 -7.011e-4,0.0118 -4.101e-4,-0.0237 -6.165e-4,-0.0355 -3.439e-4,-0.006 0.00184,-0.0232 -0.00103,-0.0179 -0.033138,0.0608 -0.068934,0.28839 -0.089891,0.37207 -0.00236,0.008 -0.00925,0.0336 -0.00708,0.0251 0.24073267,-0.93832 1.19293686,-0.34686 2.3619153,-0.56498 0.040554,-0.008 -0.057378,-0.0593 -0.087181,-0.0878 -0.032876,-0.0315 -0.067201,-0.0614 -0.1008009,-0.0921 -1.48854607,-1.32917 -3.3682799,0.77595 -1.87973393,2.10512 v 0 c -0.14972827,-0.31815 -0.16040547,0.23964 2.29777343,-0.28667 0.064893,-0.0139 0.1248278,-0.33036 0.1534593,-0.41576 0.067254,-0.27048 0.1373457,-0.54175 0.1663965,-0.81954 0.010891,-0.19404 0.011045,-0.38823 0.021552,-0.58234 0.022722,-0.38177 0.047584,-0.76661 0.1382111,-1.13939 0.035618,-0.11242 0.085397,-0.20543 0.1450522,-0.30711 0.0567,-0.0966 0.2347321,-0.19876 0.1698145,-0.29008 -1.5455347,-2.17414 -1.0121164,-2.31464 -2.06448976,-1.79964 -0.045431,0.0294 -0.09025547,0.0597 -0.13602869,0.0886 -0.02473813,0.0156 -0.05067097,0.0293 -0.07495893,0.0456 -0.0072532,0.005 -0.02805621,0.0184 -0.01935168,0.0177 0.51579567,-0.0417 -0.36984187,-0.11455 0.76465774,0.061 0.27600714,0.18541 0.30452492,0.14995 0.43666512,0.3443 0.010523,0.0155 -0.026211,-0.0268 -0.037746,-0.0416 -0.08434,-0.10776 -0.14941196,-0.22839 -0.20021731,-0.35527 -0.14089205,-0.46616 -0.19414402,-0.94486 -0.12402928,-1.42972 0.007196,-0.0257 0.0890228,-0.2085 0.0456601,-0.23895 -0.032981,-0.0232 -0.0771293,-0.024 -0.11406375,-0.0401 -0.37020812,-0.16162 -0.22820026,-0.0963 -0.57694311,-0.47341 -0.10290441,-0.3815 -0.17917931,-0.41665 -0.03672454,-0.79175 0.02446996,-0.0644 0.07673244,-0.11628 0.1278602,-0.1625 0.0106059,-0.01 0.0465563,-0.005 0.0419382,0.009 -0.0223732,0.0656 -0.15692783,0.15644 -0.19935958,0.18963 -0.0357329,0.0215 -0.13087069,0.0302 -0.10719871,0.0645 0.27499365,0.3988 2.46747038,-2.01965 1.16119908,0.87386 0.2377378,0.68545 0.049048,1.19009 -0.41829187,1.4708 -0.0401262,0.0241 0.0718936,-0.06 0.10784043,-0.0899 0.93126274,-0.49026 1.95058734,-0.79069 3.00584644,-0.83745 0.1368431,0.002 0.2738948,0.0143 0.4105291,0.006 0.034894,-0.002 0.1141264,-0.004 0.098579,-0.0357 -0.1168993,-0.23537 -0.4305099,-0.39097 -0.4409329,-0.65357 -0.00955,-0.24058 0.035084,-1.31088 0.5876245,-1.4165 0.070487,-0.0135 -0.1245915,0.0712 -0.1868871,0.10688 -1.047995,0.36352 -2.1300753,0.61105 -3.2121123,0.8507 0.3115023,0.12589 0.853803,0.0515 0.9345067,0.37767 0.534309,2.15927 -1.07162693,2.60247 0.049168,2.09215 0.1363612,-0.0621 0.2733693,-0.12275 0.4097603,-0.18477 0.1682136,-0.0765 0.336033,-0.15386 0.5040495,-0.23078 0.5814462,-0.27077 1.1603442,-0.54926 1.7500047,-0.80192 0.1590667,-0.0682 0.3212539,-0.12883 0.480826,-0.1958 0.076558,-0.0321 0.2062961,-0.0212 0.2274808,-0.10146 0.018006,-0.0682 -0.1107006,-0.0875 -0.1660512,-0.13133 -0.078246,-0.0987 -0.171378,-0.18731 -0.2347365,-0.2962 -0.013864,-0.0238 -0.00355,-0.10165 0.015068,-0.0813 0.095575,0.10439 0.1606569,0.50918 0.1730521,0.57821 0.058968,0.3284 0.086121,0.62665 0.1228463,0.95845 0.00398,0.0427 0.077748,0.84371 0.087304,0.90866 0.025024,0.17007 -0.064574,0.4438 0.095363,0.50683 1.9247967,0.75856 2.609941,1.1947 2.8380531,-0.43465 0.081016,-0.89623 0.1409544,-1.79573 0.2915327,-2.684 0.021225,-0.11576 0.040243,-0.23194 0.063671,-0.34728 0.020989,-0.10332 0.1631389,-0.26 0.069551,-0.30855 -2.6449015,-1.37204 -2.3065414,-1.69068 -2.9538165,-0.29779 -0.4704749,1.07809 -0.8575598,2.18856 -1.0860916,3.34524 -0.015716,0.0771 -0.1239956,0.24827 -0.047148,0.23132 0.1298704,-0.0286 0.1504918,-0.25881 0.2812716,-0.28296 0.4983835,-0.092 1.0212864,-0.14188 1.5196177,-0.0496 0.1733907,0.0321 0.2409,0.25808 0.350737,0.39603 0.00578,0.007 -0.018481,0.0233 -0.023212,0.0153 -0.036594,-0.0617 -0.056642,-0.13182 -0.084963,-0.19773 -0.1064381,-0.37625 -0.04975,-0.13821 -0.1141799,-0.50906 -0.00763,-0.0439 0.010914,-0.10545 -0.02544,-0.13118 -0.027137,-0.0192 -0.056662,0.0349 -0.084097,0.0536 -0.3477893,0.23813 -0.1391629,0.1434 -0.5463249,0.26059 -0.076036,-0.003 -0.1540904,0.008 -0.2281079,-0.01 -0.9353653,-0.22354 -0.8534815,-0.76026 -0.8103187,-2.17339 0.013514,-0.44245 0.789514,-0.48383 0.402431,-0.3337 -0.1238317,0.048 -0.2509198,0.0872 -0.3763796,0.13079 -0.6056302,0.1916 -1.2166574,0.37186 -1.8153224,0.5846 -0.1980652,0.0704 -0.4791601,0.0447 -0.5896279,0.22358 -1.4248683,2.30665 -1.2071234,1.86123 0.4577495,2.84372 0.5015847,-0.0163 0.9965434,-0.0688 1.4964085,-0.11228 0.1739688,-0.0151 0.3491843,-0.018 0.5222475,-0.0413 0.036873,-0.005 0.1080037,-0.006 0.1030396,-0.0429 -0.1091573,-0.8108 -0.2893568,-1.61044 -0.4340352,-2.41566 0.099706,-0.0495 0.301892,-0.0373 0.2991191,-0.14858 -0.00267,-0.1073 -0.1983049,0.0826 -0.2998993,0.11727 -0.1954755,0.0666 -0.39359,0.12529 -0.5908596,0.18642 -0.7353075,0.22786 -0.7707106,0.23063 -1.5184326,0.46749 -0.239911,0.076 -0.4788336,0.15507 -0.7182504,0.23261 -1.372054,0.49473 -1.11330388,0.18101 -0.4334234,3.00872 0.03284,0.13658 1.4648978,-0.16353 1.528991,-0.17584 0.2400277,-0.0461 0.4798801,-0.0931 0.7198202,-0.13966 0.2382292,-0.0454 0.4762788,-0.0917 0.7146874,-0.13614 0.1891964,-0.0353 0.3808034,-0.0587 0.5681149,-0.10292 0.026676,-0.006 0.070576,-0.0198 0.067449,-0.047 -0.3391992,-2.95369 0.4406054,-2.93847 -0.786993,-2.49688 -0.6394016,0.21908 -1.281389,0.4325 -1.9141183,0.67046 -0.2017029,0.0759 -0.4121301,0.13388 -0.6018021,0.23617 -0.2852377,0.15382 -0.84622882,0.20579 -0.81605073,0.52845 0.0811633,0.86779 0.72523863,1.58513 1.08785793,2.3777 0.5195673,-0.0317 0.9861613,-0.11793 1.5020879,-0.19416 0.7100594,-0.10491 1.4222074,-0.2022 2.1387601,-0.25032 0.4834914,-0.60615 -0.3292064,0.4553 -0.4407532,-1.94188 -0.0084,-0.18053 0.2782388,-0.23274 0.3985353,-0.36762 0.053841,-0.0604 -0.1261676,0.10265 -0.1970188,0.14168 -0.1654453,0.0911 -0.3375988,0.16976 -0.509692,0.24761 -0.2257854,0.10214 -0.4557356,0.19482 -0.6836032,0.29223 -0.8688858,0.34948 -0.6400138,0.26102 -1.5052286,0.5949 -0.2170004,0.0837 -0.4369735,0.16002 -0.6515509,0.24979 -0.2175411,0.091 -0.6059007,0.0596 -0.6442246,0.29228 -0.44459298,2.69925 -0.55008965,2.48073 0.7584043,2.72913 1.0450524,-0.0219 2.0891493,-0.10974 3.1351218,-0.0778 -1.3159369,-1.26298 -0.8845047,-0.37302 0.116286,-2.64767 0.011692,-0.0266 -0.051935,0.0276 -0.080311,0.0337 -0.1444599,0.0312 -0.2906334,0.0539 -0.4364691,0.0779 -0.2763666,0.0454 -1.1700973,0.17829 -1.4076815,0.21393 -0.7177098,0.11107 -1.4350275,0.22458 -2.1526722,0.33605 -0.104606,0.0162 -0.3264734,-0.0572 -0.3139422,0.0479 0.3404369,2.8557 1.5134858,2.31015 0.3857085,2.74363 1.1044685,-0.32056 2.2429156,-0.52189 3.3725576,-0.72859 0.8085349,-0.10917 1.6346296,-0.22818 2.4507261,-0.12905 1.9457458,0.44333 2.5727104,-2.30837 0.6269646,-2.7517 z"
       id="path2359"
       style="fill:#ffffff;fill-opacity:1;fill-rule:nonzero;stroke:none;stroke-width:0.264583" />
    <path
       d="m 56.44975,289.39495 c -0.110479,-0.24188 -0.216884,-0.48554 -0.32381,-0.72899 -0.691552,-1.50572 -1.396391,-0.58891 -2.76602,0.40566 -0.03496,0.0254 0.03626,0.56339 0.04258,0.61737 0.126482,0.94426 0.364792,1.86796 0.551746,2.801 0.194755,1.07527 0.265962,2.16752 0.328557,3.25693 0.0586,0.81821 -0.0064,1.63654 -0.01579,2.45479 0.0026,0.0867 0.0051,0.17333 0.0077,0.25999 0.06993,1.99439 2.890422,1.89549 2.820487,-0.0989 v 0 c -0.0021,-0.0443 -0.0041,-0.0886 -0.0061,-0.13292 0.0071,-0.88172 0.07998,-1.76377 0.01124,-2.6454 -0.07063,-1.22145 -0.154858,-2.44565 -0.379148,-3.6503 -0.173577,-0.86218 -0.391176,-1.7162 -0.517282,-2.58726 -0.0067,-0.0515 0.0013,-0.10728 -0.02027,-0.15456 -0.01243,-0.0273 0.01688,0.075 -0.0094,0.0896 -0.685268,0.38066 -1.322075,0.92249 -2.090608,1.07696 -0.20076,0.0403 -0.451157,-0.35507 -0.558273,-0.59302 -0.0054,-0.012 0.01119,0.0237 0.0168,0.0356 0.108143,0.24591 0.215416,0.4922 0.327133,0.73652 0.808223,1.82463 3.388627,0.68163 2.580405,-1.14299 z"
       id="path2361"
       style="fill:#ffffff;fill-opacity:1;fill-rule:nonzero;stroke:none;stroke-width:0.264583" />
    <path
       d="m 55.232688,290.28706 c 0.670552,-0.0444 1.337294,-0.13359 2.004759,-0.20974 1.36997,-0.14765 2.73999,-0.2944 4.10868,-0.45358 0.708522,-0.0831 1.416645,-0.1696 2.1259,-0.2463 0.404654,-0.0438 0.807969,-0.0989 1.215303,-0.0855 -0.170643,0.0489 -0.0422,0.0248 -0.382781,-0.0849 1.681181,1.07522 3.201771,-1.30233 1.52059,-2.37755 v 0 c -0.749247,-0.34971 -0.374325,-0.23981 -1.115526,-0.3597 -0.158998,5.3e-4 -0.318151,-0.005 -0.476998,0.002 -0.238422,0.0105 -0.856076,0.0775 -1.073785,0.10103 -0.71355,0.0772 -1.425983,0.16415 -2.138797,0.24777 -1.366628,0.15899 -2.734622,0.30526 -4.102515,0.45287 -0.604433,0.069 -1.208191,0.14885 -1.814941,0.19455 -1.993493,0.092 -1.863379,2.91123 0.130111,2.81922 z"
       id="path2363"
       style="fill:#ffffff;fill-opacity:1;fill-rule:nonzero;stroke:none;stroke-width:0.264583" />
    <path
       d="m 55.91539,289.69626 c -0.11104,0.82644 -0.181306,1.65942 -0.185587,2.49372 -0.0016,0.28684 0.0093,0.57362 0.01402,0.86043 0.07329,1.4128 0.226518,2.82775 0.53861,4.209 0.17055,0.46168 0.379492,1.23553 1.04838,1.24607 0.657949,0.0104 1.286544,-0.37857 1.820796,-0.76273 0.205851,-0.14802 0.179065,-0.47545 0.242525,-0.72093 0.08399,-0.32488 0.160128,-1.054 0.19844,-1.37054 0.153101,-1.45772 0.274905,-2.91922 0.486847,-4.37 0.02127,-0.1021 0.03633,-0.20569 0.06386,-0.30629 0.003,-0.0111 0.01834,0.024 0.01095,0.0329 -0.206695,0.24839 -0.320439,0.69899 -0.642448,0.72597 -0.619715,0.0519 -1.193009,-0.35179 -1.791131,-0.52207 -0.01532,-0.004 -0.04787,-0.0174 -0.04776,-0.001 0.0011,0.15385 0.03396,0.30583 0.05094,0.45874 0.162782,1.5044 0.295436,3.0119 0.456501,4.51643 0.03965,0.29527 0.08456,0.70801 0.16155,1.00336 0.0399,0.15307 0.06661,0.31543 0.148672,0.45067 0.152021,0.25054 0.260072,0.61778 0.543906,0.69072 0.598152,0.1537 1.279404,0.15805 1.851218,-0.0753 0.327055,-0.13344 0.367515,-0.60334 0.55127,-0.90501 0.04147,-0.24405 0.101055,-0.4857 0.124423,-0.73214 0.07908,-0.83402 -0.03071,-1.68709 -0.122108,-2.51456 -0.22629,-2.04876 0.0159,0.29345 -0.183499,-1.67028 -0.03853,-0.61951 -0.06232,-0.79155 -0.0523,-1.39339 0.0039,-0.23184 0.01492,-0.60867 0.07664,-0.85617 0.004,-0.0162 0.03137,0.0367 0.01807,0.0469 -0.419704,0.32144 -0.858565,0.61707 -1.287846,0.9256 -0.35129,-0.17179 -0.672455,-0.42912 -1.05387,-0.51536 -0.09435,-0.0213 0.02844,0.19136 0.04355,0.28691 0.03322,0.2099 0.07235,0.4189 0.101458,0.62941 0.121615,0.8794 0.196871,1.76597 0.288763,2.64876 0.101695,0.75733 0.155715,1.52887 0.341342,2.27298 0.04865,0.19501 0.09782,0.39183 0.178334,0.57598 0.08901,0.20356 0.155337,0.43998 0.327351,0.58059 0.340577,0.2784 0.771821,0.42225 1.157729,0.63337 0.481412,-0.22596 1.026954,-0.34819 1.444233,-0.67787 0.298879,-0.23613 0.622515,-1.30949 0.712769,-1.65106 0.26438,-1.00054 0.364975,-2.03011 0.474565,-3.05548 0.09096,-0.88879 0.117777,-1.7821 0.178469,-2.67296 0.01098,-0.16112 0.02053,-0.32257 0.0412,-0.48274 0.004,-0.0314 0.05579,-0.1109 0.03259,-0.0893 -0.375901,0.34983 -0.731901,0.72045 -1.097851,1.08068 -0.493911,-0.24123 -0.94788,-0.59278 -1.481736,-0.72369 -0.120115,-0.0295 0.02574,0.24602 0.03633,0.36924 0.02035,0.2364 0.03962,0.4729 0.0565,0.70957 0.06847,0.95972 0.122325,1.92067 0.184105,2.88084 0.05242,0.76062 0.09787,1.5217 0.150591,2.28229 0.0011,0.0157 0.04314,0.86635 0.123288,0.88192 0.881652,0.17125 1.794697,0.0749 2.692045,0.11233 0.06312,-0.22751 0.136634,-0.45239 0.189368,-0.68253 0.0544,-0.23743 0.205713,-1.21678 0.234119,-1.41025 0.132429,-0.90196 0.233079,-1.80611 0.32599,-2.71281 0.02803,-0.32066 0.0957,-1.01973 0.10573,-1.37726 0.0037,-0.13139 0.116716,-0.35652 -0.0092,-0.3942 -0.886547,-0.26531 -1.822757,-0.52889 -2.742785,-0.42936 -0.07941,0.009 -0.400195,1.50556 -0.405018,1.52677 -0.358881,1.54331 -0.540724,3.11929 -0.85624,4.67065 -0.395798,1.95596 2.37036,2.5157 2.766158,0.55974 v 0 c 0.30842,-1.53097 0.496311,-3.08366 0.842717,-4.60754 0.05118,-0.22741 0.108254,-0.45357 0.153524,-0.68222 0.01315,-0.0665 0.0854,-0.17942 0.02156,-0.20212 -0.846712,-0.3012 -1.733029,-0.47664 -2.599545,-0.71495 0.004,0.0331 0.01302,0.066 0.01196,0.0994 -0.0055,0.17257 -0.01834,0.34486 -0.03146,0.51703 -0.01902,0.24924 -0.04333,0.49804 -0.065,0.74707 -0.08741,0.85709 -0.182192,1.71173 -0.306824,2.56437 -0.03509,0.24007 -0.07301,0.47973 -0.112064,0.71919 -0.02843,0.17435 -0.07124,0.34657 -0.09039,0.52218 -0.0024,0.0209 0.01818,0.038 0.02725,0.057 0.856234,0.12236 1.718632,0.20741 2.568702,0.36707 0.03807,0.007 0.0074,0.15472 0.004,0.11614 -0.07897,-0.90223 -0.110061,-1.80835 -0.182097,-2.71108 -0.06286,-0.97683 -0.115207,-1.95488 -0.187788,-2.93105 -0.003,-0.0399 -0.108878,-1.51123 -0.185973,-1.60158 -0.455723,-0.53411 -1.097092,-0.87648 -1.645636,-1.31472 -0.416695,0.36764 -0.888701,0.68078 -1.250083,1.10291 -0.07779,0.0909 -0.132111,0.96796 -0.135752,1.02118 -0.05777,0.84518 -0.08255,1.69271 -0.167352,2.53606 -0.07757,0.74248 -0.102044,1.09871 -0.225657,1.82424 -0.04049,0.23764 -0.08876,0.47402 -0.143063,0.70889 -0.03719,0.16084 -0.101502,0.31516 -0.131255,0.47754 -0.0062,0.0339 -0.0089,0.10442 0.02537,0.10038 0.350816,-0.0414 0.690311,-0.15038 1.035468,-0.22557 0.265202,0.19447 0.546862,0.36828 0.79561,0.58339 0.0298,0.0258 0.03494,0.15103 0.0146,0.11729 -0.10191,-0.16919 -0.173125,-0.63063 -0.194048,-0.75288 -0.09099,-0.53155 -0.135022,-0.96567 -0.199737,-1.50719 -0.09797,-0.94126 -0.174702,-1.88823 -0.312706,-2.82478 -0.02951,-0.2003 -0.23061,-1.4775 -0.378301,-1.6578 -0.363101,-0.44328 -0.884997,-0.72809 -1.327496,-1.09214 -0.50904,0.30377 -1.077855,0.52458 -1.527117,0.91131 -0.144553,0.12443 -0.127389,0.36068 -0.167246,0.54721 -0.04104,0.19207 -0.05879,0.38872 -0.07458,0.58449 -0.06272,0.77776 -0.02188,1.56083 0.03819,2.33699 0.125685,1.2325 0.315592,2.46241 0.323638,3.70318 0.638114,-0.66508 0.541383,-0.75919 2.018141,-0.30156 0.431631,0.13376 0.382273,0.97562 0.260353,0.23122 -0.02537,-0.15499 -0.04246,-0.31122 -0.06369,-0.46682 -0.162515,-1.51448 -0.295003,-3.03211 -0.459875,-4.54639 -0.01778,-0.1447 -0.124664,-1.24064 -0.255445,-1.33482 -0.570865,-0.41107 -1.235342,-0.82492 -1.938755,-0.83368 -0.696402,-0.009 -0.955567,1.21085 -1.045861,1.70547 -0.2134,1.47491 -0.344493,2.95949 -0.496324,4.44163 -0.02373,0.2025 -0.04512,0.40528 -0.07121,0.60749 -0.01699,0.13156 -0.05832,0.26106 -0.05798,0.39371 5.1e-5,0.0198 0.0398,-0.003 0.05898,-0.008 0.543568,-0.14329 1.071187,-0.50782 1.628831,-0.4369 1.121759,0.14266 0.881533,0.47111 0.683845,0.75288 -0.280826,-1.18703 -0.387972,-2.41213 -0.467104,-3.62647 -0.01926,-0.96508 -0.0031,-1.93068 0.141187,-2.88733 0.294214,-1.97381 -2.497169,-2.38989 -2.791383,-0.41609 z"
       id="path2365"
       style="fill:#ffffff;fill-opacity:1;fill-rule:nonzero;stroke:none;stroke-width:0.264583" />
    <path
       d="m 15.504536,240.02545 c -0.105924,-0.0129 -0.211063,-0.0384 -0.317773,-0.0388 -1.037542,-0.004 -1.750129,0.6123 -2.518726,1.22054 -1.381786,1.18778 -2.7684888,2.36893 -4.1759589,3.5263 -0.4611502,0.42829 -1.036829,0.77709 -1.4006242,1.30563 -0.1135447,0.16496 -0.1914753,0.35179 -0.2872129,0.52769 -0.7573081,1.84633 1.8538041,2.91733 2.6111123,1.07099 v 0 c -0.052135,0.0696 -0.1005631,0.14213 -0.1564063,0.20878 -0.029015,0.0346 0.043843,-0.0804 0.075691,-0.11244 0.2391932,-0.24067 0.720891,-0.62943 0.949993,-0.82081 1.396257,-1.14823 2.773859,-2.31785 4.14228,-3.49903 0.133548,-0.10741 0.265362,-0.21701 0.400643,-0.32222 0.08449,-0.0657 0.172847,-0.12632 0.258543,-0.19046 0.03366,-0.0252 0.08545,-0.0379 0.09949,-0.0775 0.01245,-0.0351 -0.300057,0.002 -0.295821,-0.0442 1.94769,0.43471 2.562463,-2.31974 0.614773,-2.75445 z"
       id="path2383"
       style="fill:#ffffff;fill-opacity:1;fill-rule:nonzero;stroke:none;stroke-width:0.264583" />
    <path
       d="m 13.336395,244.60965 c 0.554239,0.0987 1.037781,0.28753 1.531692,0.55392 0.556493,0.36993 1.098196,0.83746 1.383172,1.45757 0.04374,0.0952 0.06822,0.19806 0.102334,0.29709 0.06199,0.3679 0.138441,0.72847 0.228074,1.09078 0.495942,1.933 3.229624,1.23164 2.733683,-0.70137 v 0 c -0.132194,-0.4836 -0.171515,-0.98485 -0.34967,-1.45803 -0.101443,-0.23231 -0.185498,-0.47302 -0.304328,-0.69694 -0.561768,-1.05858 -1.478946,-1.88113 -2.492337,-2.4936 -0.176675,-0.0897 -0.349891,-0.18665 -0.530026,-0.26922 -0.59592,-0.27318 -1.233536,-0.45061 -1.876513,-0.57008 -1.972739,-0.30128 -2.398819,2.48859 -0.426081,2.78988 z"
       id="path2385"
       style="fill:#ffffff;fill-opacity:1;fill-rule:nonzero;stroke:none;stroke-width:0.264583" />
    <path
       d="m 17.513634,252.70711 c 0.336738,0.40462 0.701876,0.78461 1.056371,1.17357 0.420216,0.46502 0.845623,0.92534 1.281187,1.37602 0.449379,0.46231 0.949676,0.86998 1.467897,1.25187 0.488313,0.37135 1.048982,0.59052 1.640753,0.72956 0.497363,0.0869 1.011187,0.12994 1.514315,0.0631 0.117087,-0.0156 0.232522,-0.0417 0.348784,-0.0625 0.743375,-0.18526 1.335692,-0.65643 1.730353,-1.3089 0.08408,-0.139 0.148449,-0.289 0.222673,-0.4335 0.317386,-0.74677 0.448307,-1.55716 0.33859,-2.36426 -0.02177,-0.16021 -0.0619,-0.31739 -0.09285,-0.47608 -0.189661,-0.71643 -0.512056,-1.40457 -1.033203,-1.94177 -0.107931,-0.11125 -0.230116,-0.20773 -0.345173,-0.3116 -0.618837,-0.49949 -1.373396,-0.72378 -2.128608,-0.92095 -0.723939,-0.18564 -1.455693,-0.33425 -2.198028,-0.42069 -0.872693,-0.0978 -1.726554,0.0652 -2.559986,0.30966 -0.850275,0.28421 -1.675026,0.64031 -2.472895,1.04797 -0.591586,0.32722 -1.154178,0.74523 -1.498009,1.34333 -0.290508,0.50534 -0.273861,0.64035 -0.393097,1.20023 -0.103748,1.14567 0.234975,2.0636 0.734599,3.06826 0.455102,0.84503 1.10986,1.54856 1.771718,2.23326 0.389283,0.39746 0.786174,0.78744 1.194188,1.16564 0.296555,0.29218 0.640921,0.52407 0.987864,0.75076 1.670809,1.09127 3.214094,-1.27161 1.543284,-2.36288 v 0 c -0.214592,-0.14009 -0.433808,-0.27264 -0.61354,-0.45856 -0.370549,-0.34278 -0.729943,-0.69737 -1.083637,-1.05748 -0.46524,-0.48023 -0.939569,-0.9632 -1.280821,-1.54326 -0.218047,-0.42107 -0.425912,-0.8576 -0.469012,-1.33672 -0.0065,-0.0209 -0.0093,-0.0433 -0.01942,-0.0627 -0.0058,-0.0111 -0.0244,-0.0139 -0.02712,-0.0262 -0.03295,-0.14858 0.370477,-0.35602 0.444143,-0.40409 0.641799,-0.33332 1.310126,-0.61456 1.992402,-0.85423 0.465799,-0.14466 0.942612,-0.25701 1.434372,-0.20836 0.610159,0.0647 1.208696,0.20101 1.803837,0.34777 0.340297,0.0877 0.693552,0.16442 1.004108,0.33466 0.246519,0.15652 0.366381,0.42736 0.45222,0.69821 0.09455,0.35256 0.103772,0.67343 -0.0267,1.02152 -0.0071,0.0192 -0.113665,0.2019 -0.02619,0.19682 0.06114,-0.004 0.06294,-0.0252 0.05265,0.008 -0.216687,0.0795 -0.466501,0.0266 -0.689662,0.0103 -0.214987,-0.0394 -0.408959,-0.11147 -0.58317,-0.24981 -0.391603,-0.28572 -0.76914,-0.59213 -1.109049,-0.93867 -0.41656,-0.4303 -0.82217,-0.87099 -1.22397,-1.31508 -0.304528,-0.33408 -0.615157,-0.6628 -0.912818,-1.00301 -1.223701,-1.5764 -3.453062,0.15418 -2.229362,1.73058 z"
       id="path2389"
       style="fill:#ffffff;fill-opacity:1;fill-rule:nonzero;stroke:none;stroke-width:0.264583" />
    <path
       d="m 32.725443,259.56345 c -0.208573,-0.59589 -0.61006,-1.08552 -1.106429,-1.46855 -0.115459,-0.0891 -0.239509,-0.16646 -0.359264,-0.2497 -0.582734,-0.3675 -1.226397,-0.61759 -1.918769,-0.66766 -0.548556,-0.0397 -0.724077,0.0178 -1.269355,0.0988 -1.065051,0.24557 -2.080987,0.69977 -2.935572,1.388 -0.184066,0.14824 -0.351674,0.31582 -0.527512,0.47373 -0.627322,0.64626 -1.130052,1.40367 -1.394658,2.27033 -0.158285,0.51842 -0.142308,0.63853 -0.191385,1.17078 -0.0022,0.98922 0.338323,1.81113 0.968245,2.56339 0.106574,0.12728 0.224594,0.24451 0.336891,0.36676 0.609588,0.60105 1.298899,1.13568 2.085737,1.48521 0.178641,0.0793 0.364884,0.14036 0.547327,0.21053 1.209276,0.35183 2.235142,0.23141 3.402079,-0.21357 0.226118,-0.0862 0.443973,-0.19273 0.665961,-0.28909 1.100267,-0.53941 2.090968,-1.28545 2.884636,-2.22209 0.150252,-0.17731 0.284239,-0.3678 0.426357,-0.5517 0.603155,-0.90236 1.144691,-1.96144 0.817923,-3.07857 -0.07175,-0.2453 -0.217662,-0.46249 -0.326493,-0.69373 -0.353161,-0.48223 -0.789147,-0.8939 -1.299433,-1.20687 -0.156641,-0.0961 -0.324514,-0.1725 -0.486769,-0.25875 -1.786023,-0.89028 -3.045066,1.63554 -1.259044,2.52582 v 0 c 0.0465,0.0178 0.09592,0.0293 0.139486,0.0534 0.326046,0.18032 0.110095,0.0959 0.39084,0.27245 0.02117,0.0133 0.04719,0.0167 0.07078,0.025 0.0087,-0.0503 0.02572,-0.18409 0.06153,-0.21958 0.01328,-0.0131 0.03074,0.0292 0.02922,0.0479 -0.0056,0.0677 -0.02535,0.13426 -0.04934,0.19786 -0.09416,0.24971 -0.196678,0.39483 -0.335627,0.62737 -0.0884,0.11941 -0.171235,0.24315 -0.265208,0.35823 -0.528936,0.64776 -1.198036,1.1643 -1.94157,1.54273 -0.454822,0.20744 -0.938292,0.44137 -1.446297,0.4811 -0.20846,0.0163 -0.298794,-0.0116 -0.502484,-0.0458 -0.08962,-0.0302 -0.181226,-0.055 -0.268864,-0.0905 -0.486005,-0.19694 -0.902838,-0.53026 -1.280859,-0.88658 -0.228248,-0.23501 -0.496056,-0.47125 -0.54928,-0.80988 -0.0049,-0.6231 0.274857,-1.09303 0.678519,-1.55285 0.233439,-0.22227 0.347739,-0.34994 0.613928,-0.53063 0.428295,-0.29072 0.915578,-0.49173 1.412637,-0.62791 0.479386,-0.10629 0.700596,-0.13539 1.138222,0.12605 0.12138,0.0759 0.258188,0.15022 0.360032,0.25136 0.617175,1.89778 3.301039,1.02496 2.683861,-0.87282 z"
       id="path2391"
       style="fill:#ffffff;fill-opacity:1;fill-rule:nonzero;stroke:none;stroke-width:0.264583" />
    <path
       d="m 34.018745,261.0026 c -0.57645,0.4813 -1.144172,0.97308 -1.718812,1.45666 -0.975964,0.81845 -1.972511,1.61189 -2.972584,2.40055 -0.998413,0.80422 -2.053042,1.53269 -3.112074,2.25357 -0.989964,0.68115 -2.008686,1.31814 -3.03935,1.93539 -0.507976,0.3074 -1.024799,0.60008 -1.532474,0.90795 -0.948288,0.79545 -0.370199,0.139 0.342561,2.60166 1.907119,0.58768 2.738223,-2.10939 0.831105,-2.69707 v 0 c 0.593187,2.4042 1.183048,1.80422 0.292061,2.50717 0.501815,-0.30588 1.01498,-0.59303 1.516996,-0.89862 1.077368,-0.64548 2.142213,-1.31167 3.177289,-2.02354 1.113457,-0.75808 2.221333,-1.52545 3.271512,-2.3705 1.023538,-0.80723 2.043388,-1.61943 3.042174,-2.45724 0.544031,-0.45787 1.08386,-0.92065 1.625407,-1.38138 1.580097,-1.21892 -0.143714,-3.45352 -1.723811,-2.2346 z"
       id="path2393"
       style="fill:#ffffff;fill-opacity:1;fill-rule:nonzero;stroke:none;stroke-width:0.264583" />
    <path
       d="m 21.991761,272.7423 c 0.877006,0.3408 1.781381,0.60404 2.684976,0.86338 0.593598,0.15368 1.181023,0.32369 1.760376,0.52389 1.888513,0.64497 2.800641,-2.02579 0.912129,-2.67076 v 0 c -0.624998,-0.21151 -1.25468,-0.40383 -1.89464,-0.56603 -0.814638,-0.23333 -1.630404,-0.46888 -2.421847,-0.7737 -1.854895,-0.73609 -2.895889,1.88713 -1.040994,2.62322 z"
       id="path2395"
       style="fill:#ffffff;fill-opacity:1;fill-rule:nonzero;stroke:none;stroke-width:0.264583" />
    <path
       d="m 36.692123,263.94069 c -0.69524,0.42743 -1.379718,0.87153 -2.06039,1.32169 -0.900758,0.62014 -1.840547,1.19191 -2.688294,1.88601 -0.157149,0.12867 -0.306448,0.26664 -0.459671,0.39995 -0.762587,0.72972 -1.396695,1.6894 -1.271513,2.79904 0.02815,0.24955 0.125023,0.48645 0.187537,0.72967 0.131765,0.21878 0.236431,0.45637 0.395295,0.65634 0.587147,0.73908 1.534967,1.16926 2.441713,1.34409 0.242951,0.0469 0.49109,0.0609 0.736637,0.0913 1.348517,0.0587 2.650431,-0.32345 3.863927,-0.88518 0.221051,-0.10233 0.435628,-0.2181 0.653444,-0.32715 1.092258,-0.60101 2.144601,-1.27373 3.170947,-1.9808 0.07587,-0.0542 0.151733,-0.10833 0.227599,-0.1625 1.623275,-1.1608 -0.01834,-3.45645 -1.641615,-2.29566 v 0 c -0.06281,0.045 -0.125611,0.09 -0.188415,0.13499 -0.919996,0.63546 -1.864706,1.23763 -2.840175,1.78448 -0.92247,0.47047 -1.893258,0.91283 -2.948622,0.92528 -0.320273,-0.0219 -0.365192,-0.009 -0.667166,-0.0877 -0.02164,-0.006 -0.481695,-0.18222 -0.505404,-0.17261 -0.01974,0.008 -0.01974,0.0377 -0.02961,0.0566 -0.0067,0.015 -0.04205,0.12516 -0.08614,0.1228 -0.01744,-0.001 -0.02627,-0.029 -0.02432,-0.0464 0.02622,-0.23009 0.249214,-0.41147 0.38775,-0.56564 0.876165,-0.7788 1.873689,-1.39874 2.843091,-2.05302 0.737089,-0.48767 1.486834,-0.95526 2.225651,-1.43977 1.580933,-1.21783 -0.141343,-3.45361 -1.722276,-2.23578 z"
       id="path2397"
       style="fill:#ffffff;fill-opacity:1;fill-rule:nonzero;stroke:none;stroke-width:0.264583" />
    <path
       d="m 40.663266,274.65156 c 0.322514,0.53274 0.685125,1.04094 1.049943,1.54536 0.41465,0.55385 0.88627,1.0746 1.467472,1.45813 0.120478,0.0795 0.248655,0.14667 0.372983,0.22 0.624888,0.30855 1.31921,0.51212 2.023385,0.43585 0.163164,-0.0177 0.322594,-0.0606 0.483889,-0.0909 0.798615,-0.24203 1.480949,-0.73214 2.01186,-1.37193 0.10056,-0.12118 0.188547,-0.25227 0.282821,-0.37841 0.470014,-0.71332 0.712226,-1.53512 0.624869,-2.39206 -0.0168,-0.16486 -0.0571,-0.32648 -0.08565,-0.48971 -0.232373,-0.89943 -0.778069,-1.63825 -1.49973,-2.21233 -0.157732,-0.12548 -0.328578,-0.23352 -0.492866,-0.35028 -0.179329,-0.1004 -0.35011,-0.21788 -0.537983,-0.3012 -0.895574,-0.39718 -1.875991,-0.50152 -2.842902,-0.38099 -0.236509,0.0295 -0.469183,0.0842 -0.703776,0.12631 -1.089692,0.26147 -2.153058,0.64105 -3.15998,1.13383 -0.199623,0.0977 -0.394581,0.20463 -0.591873,0.30695 -0.98272,0.55181 -1.965309,1.20975 -2.561531,2.19691 -0.138417,0.22917 -0.23634,0.48048 -0.354508,0.72072 -0.06962,0.27637 -0.178377,0.54574 -0.208872,0.8291 -0.107628,1.00013 0.186629,1.94097 0.690284,2.79417 0.381527,0.6463 0.641779,0.88436 1.133285,1.43327 0.713576,0.66866 0.371112,0.36357 1.022019,0.92128 1.517878,1.29557 3.350096,-0.85104 1.832216,-2.14661 v 0 c -0.507241,-0.43091 -0.249796,-0.20516 -0.771065,-0.6787 -0.366696,-0.38856 -0.695677,-0.74486 -0.945033,-1.22305 -0.02241,-0.043 -0.18958,-0.42067 -0.200221,-0.51801 -0.0089,-0.0819 0.01196,-0.16433 0.01797,-0.24649 0.02941,-0.0854 0.04841,-0.17514 0.08823,-0.25621 0.309306,-0.62978 0.992989,-0.97791 1.562467,-1.32412 0.946262,-0.49715 1.932755,-0.91833 2.974957,-1.17071 0.498549,-0.10447 0.924356,-0.17145 1.43252,-0.0885 0.0809,0.0132 0.163579,0.0231 0.240398,0.0517 0.09714,0.0361 0.184803,0.0939 0.277204,0.14089 0.324038,0.213 0.672573,0.4366 0.833379,0.80538 0.0834,0.23986 0.08148,0.44012 -0.05994,0.6636 -0.172204,0.25826 -0.374806,0.48773 -0.639828,0.65446 -0.08905,0.11981 -0.374886,-0.0145 -0.483254,-0.0489 -0.394719,-0.19872 -0.687594,-0.52656 -0.94746,-0.8789 -0.296854,-0.40922 -0.587867,-0.82344 -0.861859,-1.24834 -0.960532,-1.74925 -3.434334,-0.39085 -2.473804,1.35839 z"
       id="path2399"
       style="fill:#ffffff;fill-opacity:1;fill-rule:nonzero;stroke:none;stroke-width:0.264583" />
    <path
       d="m 55.02871,278.06412 c -0.174908,-0.58532 -0.505315,-1.10974 -0.928682,-1.54793 -0.09966,-0.10314 -0.209262,-0.19618 -0.313892,-0.29427 -0.614963,-0.5024 -1.342726,-0.85457 -2.142204,-0.9226 -0.177368,-0.0151 -0.356005,-0.003 -0.534008,-0.004 -0.664086,0.0624 -1.326552,0.24395 -1.885154,0.62161 -0.410943,0.27783 -0.441579,0.35773 -0.771514,0.72561 -0.665724,0.93245 -0.777272,2.07343 -0.945682,3.17241 -0.08543,0.49169 -0.169831,0.99571 -0.382349,1.45222 -0.08021,0.1723 -0.147479,0.25968 -0.252426,0.41617 -0.275688,0.37601 -0.630267,0.67689 -1.009446,0.94296 -0.04937,0.0293 -0.09738,0.0611 -0.148117,0.088 -0.04071,0.0216 -0.149378,0.0827 -0.132352,0.0399 0.02585,-0.065 0.135078,-0.008 0.142787,-0.0838 -0.263583,-0.15135 -0.529592,-0.29897 -0.787278,-0.46038 -0.186047,-0.11653 -0.139488,-0.0756 -0.231878,-0.16959 0.0289,0.0225 0.05779,0.045 0.08668,0.0675 -1.310989,-1.50459 -3.438795,0.34943 -2.127803,1.85402 v 0 c 0.08782,0.0901 0.175644,0.18029 0.263467,0.27044 0.60407,0.46941 1.276762,0.85808 1.987539,1.14167 0.473514,0.11842 0.571135,0.17997 1.077711,0.14764 0.555065,-0.0354 1.056738,-0.29986 1.510369,-0.59953 0.670393,-0.48447 1.28791,-1.03727 1.752632,-1.729 0.242784,-0.39412 0.31627,-0.48247 0.503253,-0.91571 0.279345,-0.64722 0.423003,-1.34302 0.536866,-2.03515 0.09228,-0.60223 0.165447,-1.21002 0.328414,-1.79832 0.0067,-0.0201 0.02551,-0.0851 0.04267,-0.10209 0.131228,-0.12973 0.328033,-0.17846 0.499205,-0.22507 0.03327,-0.005 0.166634,-0.0282 0.20959,-0.0243 0.18725,0.0169 0.35802,0.11731 0.510891,0.21823 0.167207,0.13944 0.339154,0.29254 0.419217,0.50093 0.528399,1.92438 3.249893,1.17711 2.721491,-0.74727 z"
       id="path2415"
       style="fill:#ffffff;fill-opacity:1;fill-rule:nonzero;stroke:none;stroke-width:0.264583" />
    <path
       d="m 59.518725,279.7724 c -0.841173,0.18775 -1.601443,0.62399 -2.363303,1.01167 -1.111774,0.57885 -2.275607,1.04668 -3.419803,1.5556 -1.157814,0.51783 -2.261986,1.14469 -3.305617,1.86384 -0.82043,0.61602 -1.526058,1.42055 -1.769716,2.44344 -0.0514,0.21577 -0.06262,0.43918 -0.09392,0.65877 0.0141,0.22957 0.0079,0.46131 0.04232,0.68872 0.158888,1.04821 0.769933,1.95312 1.37295,2.79438 0.09788,0.12766 0.195752,0.25532 0.293626,0.38299 1.216266,1.58214 3.453752,-0.13792 2.237486,-1.72006 v 0 c -0.08108,-0.10512 -0.162155,-0.21025 -0.243231,-0.31537 -0.351525,-0.48171 -0.702278,-0.97731 -0.895165,-1.54753 -0.06659,-0.474 0.335251,-0.79589 0.663536,-1.06593 0.89432,-0.62483 1.851297,-1.15484 2.845141,-1.6048 1.188749,-0.52926 2.397874,-1.01584 3.552441,-1.61881 0.506069,-0.25758 1.008727,-0.52527 1.534578,-0.74101 1.969929,-0.31913 1.518613,-3.10503 -0.451316,-2.7859 z"
       id="path2417"
       style="fill:#ffffff;fill-opacity:1;fill-rule:nonzero;stroke:none;stroke-width:0.264583" />
    <path
       d="m 51.290864,282.54978 c 0.632095,0.40136 1.23912,0.83959 1.795518,1.34191 0.170122,0.15359 0.332401,0.31565 0.498602,0.47347 0.613881,0.63563 1.205701,1.30549 1.670685,2.05972 1.066474,1.68675 3.451889,0.17852 2.385414,-1.50822 v 0 c -0.606007,-0.94412 -1.32289,-1.81204 -2.118489,-2.60347 -0.20288,-0.19069 -0.400944,-0.38663 -0.608637,-0.57206 -0.628404,-0.56104 -1.306947,-1.06097 -2.017567,-1.51239 -1.641221,-1.13528 -3.24675,1.18576 -1.605526,2.32104 z"
       id="path2419"
       style="fill:#ffffff;fill-opacity:1;fill-rule:nonzero;stroke:none;stroke-width:0.264583" />
  </g>
</svg>
