<?xml version="1.0" encoding="UTF-8" standalone="no"?>
<svg
   xmlns:dc="http://purl.org/dc/elements/1.1/"
   xmlns:cc="http://creativecommons.org/ns#"
   xmlns:rdf="http://www.w3.org/1999/02/22-rdf-syntax-ns#"
   xmlns:svg="http://www.w3.org/2000/svg"
   xmlns="http://www.w3.org/2000/svg"
   xmlns:sodipodi="http://sodipodi.sourceforge.net/DTD/sodipodi-0.dtd"
   xmlns:inkscape="http://www.inkscape.org/namespaces/inkscape"
   inkscape:version="1.0 (1.0+r73+1)"
   sodipodi:docname="school.svg"
   id="svg8"
   version="1.1"
   viewBox="0 0 64 64"
   height="64mm"
   width="64mm">
  <defs
     id="defs2" />
  <sodipodi:namedview
     inkscape:document-rotation="0"
     inkscape:window-maximized="1"
     inkscape:window-y="27"
     inkscape:window-x="0"
     inkscape:window-height="1016"
     inkscape:window-width="1920"
     inkscape:snap-page="true"
     showgrid="false"
     inkscape:current-layer="layer1"
     inkscape:document-units="mm"
     inkscape:cy="119.18926"
     inkscape:cx="123.4137"
     inkscape:zoom="3"
     inkscape:pageshadow="2"
     inkscape:pageopacity="0.0"
     borderopacity="1.0"
     bordercolor="#666666"
     pagecolor="#ffffff"
     id="base" />
  <metadata
     id="metadata5">
    <rdf:RDF>
      <cc:Work
         rdf:about="">
        <dc:format>image/svg+xml</dc:format>
        <dc:type
           rdf:resource="http://purl.org/dc/dcmitype/StillImage" />
        <dc:title></dc:title>
      </cc:Work>
    </rdf:RDF>
  </metadata>
  <g
     transform="translate(0,-233)"
     id="layer1"
     inkscape:groupmode="layer"
     inkscape:label="Layer 1">
    <rect
       y="233"
       x="0"
       height="64"
       width="64"
       id="rect3713"
       style="fill:#009688;stroke-width:0.26458332;fill-opacity:1" />
    <path
       d="m 8.1859532,266.52361 c 0.537637,0.50315 1.0957709,0.98168 1.6151259,1.50439 0.7253079,0.76042 1.2870939,1.65423 1.8695189,2.52367 0.929764,1.377 1.879849,2.74003 2.811937,4.11547 1.001548,1.52752 2.138865,2.95658 3.282673,4.3781 0.838731,1.03463 1.633636,2.10336 2.424051,3.17498 0.65514,0.90549 1.343087,1.78615 2.04073,2.65906 0.622122,0.77601 1.26315,1.53652 1.898099,2.30199 0.188739,0.24222 0.395048,0.47253 0.570048,0.72541 -0.06927,-0.14469 -0.138539,-0.28938 -0.207808,-0.43407 0.52846,1.92437 3.24993,1.17702 2.721469,-0.74735 v 0 c -0.07103,-0.1511 -0.14206,-0.3022 -0.21309,-0.4533 -0.219924,-0.3073 -0.460425,-0.59927 -0.698452,-0.89253 -0.624063,-0.75231 -1.254112,-1.49973 -1.865743,-2.26226 -0.67495,-0.84431 -1.340548,-1.6961 -1.974031,-2.5722 -0.813925,-1.10345 -1.632933,-2.20356 -2.496495,-3.269 -1.095498,-1.3614 -2.18697,-2.72837 -3.145171,-4.1921 -0.929306,-1.37125 -1.876295,-2.73033 -2.803522,-4.10297 -0.684026,-1.02098 -1.353261,-2.06274 -2.21598,-2.94589 -0.508524,-0.50828 -1.040593,-0.98929 -1.578051,-1.46651 -1.3824709,-1.43918 -3.41778,0.51593 -2.0353088,1.95511 z"
       id="path1178"
       style="fill:#ffffff;fill-opacity:1;fill-rule:nonzero;stroke:none;stroke-width:0.264583" />
    <path
       d="m 26.024801,288.49544 c 0.518245,0.091 1.031908,0.20576 1.545442,0.31981 0.938736,0.2167 1.873607,0.44667 2.820533,0.62539 0.914648,0.1637 1.842663,0.21947 2.769692,0.25186 0.586197,0.009 1.171718,0.0274 1.756492,0.0695 0.437263,0.0274 0.872,0.0809 1.306232,0.13757 -0.333976,-0.0462 -0.09179,0.004 -0.665536,-0.32792 1.389108,1.43278 3.415358,-0.53172 2.026248,-1.9645 v 0 c -0.741873,-0.48327 -0.39253,-0.35425 -0.995987,-0.50614 -0.488442,-0.0636 -0.977587,-0.12258 -1.469363,-0.15402 -0.619398,-0.0441 -1.239525,-0.0661 -1.860434,-0.0751 -0.785048,-0.0269 -1.571302,-0.0695 -2.346425,-0.20506 -0.9169,-0.17121 -1.820506,-0.39996 -2.729771,-0.6068 -0.562088,-0.12475 -1.124425,-0.24984 -1.691857,-0.34828 -1.968307,-0.32899 -2.433573,2.45461 -0.465266,2.78361 z"
       id="path1180"
       style="fill:#ffffff;fill-opacity:1;fill-rule:nonzero;stroke:none;stroke-width:0.264583" />
    <path
       d="m 37.87728,288.27397 c -0.128099,-0.73178 -0.267068,-1.46156 -0.394817,-2.19344 -0.20932,-1.31306 -0.45852,-2.61813 -0.790398,-3.90581 -0.126629,-0.51245 -0.336925,-1.00151 -0.45521,-1.51589 -0.477147,-1.93773 -3.217513,-1.26295 -2.740366,0.67478 v 0 c 0.132746,0.52267 0.311229,1.03105 0.463383,1.54826 0.31568,1.21378 0.54288,2.44626 0.742434,3.68411 0.123518,0.70716 0.255701,1.41268 0.382865,2.11916 0.290746,1.97432 3.082854,1.56314 2.792109,-0.41117 z"
       id="path1182"
       style="fill:#ffffff;fill-opacity:1;fill-rule:nonzero;stroke:none;stroke-width:0.264583" />
    <path
       d="m 35.876125,279.99676 c -0.162214,-0.2926 -0.349354,-0.56716 -0.558501,-0.8279 -0.363564,-0.42364 -0.816994,-0.75227 -1.271183,-1.07073 -0.513215,-0.34128 -1.027456,-0.6803 -1.525535,-1.0435 -0.455699,-0.33565 -0.85681,-0.73664 -1.261178,-1.13061 -0.454076,-0.43973 -0.887796,-0.89956 -1.323474,-1.3573 -0.55605,-0.57659 -1.126688,-1.1388 -1.687797,-1.71045 -0.620403,-0.63124 -1.230145,-1.27277 -1.838366,-1.91572 -0.650946,-0.69901 -1.318198,-1.38233 -1.987385,-2.06379 -0.690657,-0.68955 -1.320651,-1.43529 -1.9613,-2.17044 -0.688159,-0.80216 -1.443514,-1.54135 -2.206883,-2.2708 -0.777597,-0.72566 -1.509896,-1.49713 -2.251452,-2.25893 -0.704952,-0.73185 -1.457875,-1.41396 -2.230074,-2.07354 -0.505041,-0.42614 -1.019776,-0.84057 -1.53457,-1.25481 -0.105572,-0.0705 -0.190474,-0.15927 -0.277661,-0.2488 -1.395797,-1.42626 -3.412834,0.5477 -2.017036,1.97396 v 0 c 0.165457,0.16853 0.336227,0.33146 0.525411,0.4736 0.493539,0.39714 0.987114,0.79434 1.471555,1.20259 0.706603,0.60274 1.395595,1.22608 2.040114,1.8956 0.765396,0.78622 1.521772,1.58187 2.324174,2.33098 0.701354,0.66989 1.396992,1.34716 2.028789,2.08437 0.677442,0.7773 1.344967,1.56454 2.075273,2.29362 0.656894,0.66894 1.311989,1.33961 1.950855,2.02589 0.620167,0.65556 1.241948,1.30962 1.87453,1.95325 0.550986,0.56126 1.110976,1.1136 1.657556,1.67917 0.460186,0.48348 0.918789,0.9687 1.398434,1.43313 0.500859,0.48784 1.002683,0.97836 1.569497,1.39071 0.513247,0.37309 1.0399,0.72609 1.569771,1.07505 0.245708,0.17101 0.494686,0.34153 0.709356,0.55159 0.146266,0.15771 0.231039,0.361 0.349429,0.53849 1.063972,1.68832 3.451622,0.18364 2.387651,-1.50468 z"
       id="path1186"
       style="fill:#ffffff;fill-opacity:1;fill-rule:nonzero;stroke:none;stroke-width:0.264583" />
    <path
       d="m 10.772302,264.48185 c 0.110985,-0.4306 0.299216,-0.83369 0.488443,-1.23407 0.369087,-0.75704 0.812838,-1.47405 1.283552,-2.1713 0.17061,-0.24047 0.343459,-0.48509 0.562217,-0.68548 0.04125,-0.0378 0.08496,-0.0735 0.132407,-0.10312 0.01513,-0.009 0.06649,-0.0227 0.05212,-0.0121 -0.06088,0.0448 -0.129585,0.0778 -0.194378,0.11673 1.935456,-0.4863 1.247733,-3.22344 -0.687723,-2.73715 v 0 c -0.199955,0.0729 -0.408484,0.12552 -0.599864,0.21861 -0.146476,0.0712 -0.277458,0.17175 -0.406643,0.27096 -0.481878,0.37006 -0.851266,0.86396 -1.199045,1.35514 -0.5499749,0.81841 -1.0688219,1.6595 -1.4975488,2.54881 -0.3461895,0.74183 -0.68933,1.50669 -0.7540095,2.33349 -0.070346,1.99438 2.7501223,2.09386 2.8204683,0.0995 z"
       id="path1188"
       style="fill:#ffffff;fill-opacity:1;fill-rule:nonzero;stroke:none;stroke-width:0.264583" />
    <path
       d="m 9.3267461,262.80082 c -0.298385,-0.27318 -0.5474796,-0.59579 -0.8089189,-0.90333 -0.4506976,-0.52373 -0.919389,-1.03158 -1.3870525,-1.5401 -0.2419829,-0.26709 -0.4939079,-0.52471 -0.7466603,-0.78152 -0.1007894,-0.104 -0.2029085,-0.20667 -0.3121156,-0.30186 -0.092686,-0.0759 -0.1671644,-0.14002 -0.2904867,-0.19408 -0.1351286,-0.0592 -0.4937747,-0.26446 -0.4212279,-0.13598 0.3113955,0.55146 0.8145337,0.97155 1.1836426,1.48617 0.047915,0.0668 -0.058252,0.18558 -0.00503,0.12319 0.292674,-0.67421 0.5908364,-1.34608 0.8907887,-2.01708 0.2502837,-0.55701 0.5110416,-1.1095 0.7905935,-1.65245 0.077685,-0.13885 0.1671148,-0.27054 0.2487605,-0.40709 0.052009,-0.0909 0.2720316,-0.49718 0.036668,-0.0793 -0.5540999,0.47926 -0.3985101,0.48416 -1.0369664,0.60334 -0.064946,0.0121 -0.1321411,-5.3e-4 -0.198194,-0.002 -0.016428,-2.6e-4 -0.043792,-0.0189 -0.04918,-0.003 -0.00522,0.015 0.028777,0.0137 0.043385,0.02 0.044326,0.0193 0.088935,0.0379 0.1334027,0.0568 0.7044621,0.33305 1.3779595,0.728 2.0472683,1.12583 0.335553,0.23151 0.7380229,0.41596 0.9894869,0.75063 0.02514,0.0335 0.116867,0.19373 0.134321,0.22372 1.061527,1.68986 3.451351,0.18864 2.389825,-1.50122 v 0 c -0.183435,-0.28401 -0.251645,-0.41037 -0.487059,-0.67584 -0.447423,-0.50455 -1.015246,-0.87463 -1.585519,-1.22395 -0.788853,-0.46809 -1.5829589,-0.93386 -2.4200472,-1.31147 -0.5248373,-0.2103 -1.1570962,-0.44368 -1.7089004,-0.14358 -0.2229888,0.12127 -0.3886311,0.32663 -0.5829467,0.48995 -0.3666664,0.63622 -0.015756,0.0219 -0.1334279,0.23127 -0.1076775,0.18651 -0.2365953,0.36069 -0.3306578,0.55523 -0.3025782,0.58894 -0.586417,1.18737 -0.8573527,1.79149 -0.3221554,0.72076 -0.6449518,1.44149 -0.9531926,2.1683 -0.020265,0.0574 -0.2005486,0.52849 -0.163739,0.59147 0.331815,0.5677 0.8661311,1.00437 1.1735162,1.58566 0.1102668,0.20852 -0.7352169,-0.33445 -0.6718941,-0.31102 -0.069034,-0.0619 0.1085035,0.10264 0.1348872,0.13662 0.2304009,0.23408 0.4604207,0.46854 0.6807464,0.71225 0.4428228,0.48149 0.8868239,0.96216 1.3141044,1.4576 0.3663403,0.43094 0.7203839,0.87815 1.1540558,1.24484 1.5340295,1.27641 3.3391464,-0.89303 1.8051165,-2.16944 z"
       id="path1190"
       style="fill:#ffffff;fill-opacity:1;fill-rule:nonzero;stroke:none;stroke-width:0.264583" />
    <path
       d="m 27.648911,286.47869 c 0.289544,-0.71646 0.700884,-1.37489 1.111031,-2.02667 0.606549,-0.9107 1.254995,-1.80998 2.05754,-2.5608 0.116353,-0.10885 0.241988,-0.20733 0.362982,-0.311 0.394811,-0.27347 0.200776,-0.15581 0.577694,-0.36017 1.730975,-0.99308 0.326551,-3.44104 -1.404421,-2.44797 v 0 c -0.691887,0.40838 -0.34835,0.18313 -1.027481,0.6805 -0.172716,0.1523 -0.351274,0.29821 -0.518149,0.45689 -0.945243,0.89879 -1.723122,1.95804 -2.438978,3.0429 -0.521827,0.83423 -1.041223,1.6805 -1.388073,2.60573 -0.650956,1.88646 2.0169,2.80705 2.667855,0.92059 z"
       id="path1192"
       style="fill:#ffffff;fill-opacity:1;fill-rule:nonzero;stroke:none;stroke-width:0.264583" />
    <path
       d="m 5.4846409,244.58506 c 1.3125559,0.52005 2.6358202,1.01858 3.9903252,1.42024 0.6045879,0.17928 1.2099359,0.35975 1.8256499,0.496 0.67217,0.14875 1.356006,0.23874 2.034008,0.35811 0.679406,0.0377 1.358018,0.13142 2.038217,0.113 1.161844,-0.0315 2.509578,-0.23081 3.548963,-0.8139 0.46438,-0.26052 0.915441,-0.58803 1.233272,-1.01523 0.321983,-0.43278 0.583958,-0.95288 0.630778,-1.49026 0.05066,-0.58149 -0.234317,-1.14363 -0.351476,-1.71545 -0.329984,-0.40363 -0.603014,-0.86149 -0.989953,-1.2109 -1.030341,-0.93041 -2.627351,-1.45139 -4.00736,-1.27776 -0.466885,0.0588 -0.943165,0.16832 -1.355059,0.39587 -0.456295,0.25207 -0.795103,0.67438 -1.192654,1.01157 -0.224369,0.47423 -0.524764,0.91946 -0.673106,1.42268 -0.275089,0.93318 -0.197949,2.06323 -0.181529,3.01653 0.01402,0.81394 0.07014,1.75241 -0.0228,2.56999 -0.03594,0.31618 -0.127729,0.62349 -0.191594,0.93523 -0.09985,0.19531 -0.157949,0.4184 -0.299563,0.58591 -0.219559,0.25971 -0.337498,0.0683 -0.528348,-0.0206 -0.604903,-0.28175 -0.716074,-0.2295 -1.3718049,-0.67471 -0.338803,-0.23004 -0.63753,-0.51417 -0.9562945,-0.77125 -0.7624405,-0.82293 -1.0913835,-1.08075 -1.6462994,-2.05468 -0.2081853,-0.36539 -0.58724,-1.08786 -0.4688263,-1.5951 0.016492,-0.0707 0.150481,-0.11908 0.2054685,-0.0718 0.089823,0.0773 0.070407,0.22631 0.1056111,0.33946 0.3924851,0.0946 0.9980922,0.23212 1.330643,0.36676 0.9923476,0.40176 1.8872345,1.04933 2.5392255,1.90399 0.175974,0.23068 0.298668,0.4975 0.448001,0.74626 0.296394,0.62459 0.365185,1.20352 0.340561,1.88167 -0.013,0.3581 -0.07833,0.91751 -0.06408,1.26826 0.0115,0.28305 0.05779,0.5636 0.08668,0.8454 0.08747,0.29231 0.145765,0.59499 0.262397,0.87693 0.562463,1.35969 1.708441,2.41966 3.005762,3.0743 0.396156,0.19991 0.821588,0.33556 1.232381,0.50334 0.456239,0.10471 0.906027,0.24317 1.368717,0.31414 0.796351,0.12215 1.913563,0.1562 2.717226,0.0315 0.471567,-0.0732 0.935586,-0.19743 1.389571,-0.34449 0.954938,-0.30935 1.371102,-0.58613 2.228307,-1.0556 0.490351,-0.25281 0.908991,-0.62699 1.392754,-0.89104 0.100679,-0.055 0.209274,-0.10018 0.322018,-0.12127 0.09469,-0.0177 0.141085,0.0785 0.200891,0.11939 0.07475,0.051 0.155876,0.0921 0.233814,0.13812 0.733396,0.46688 1.338776,1.11171 1.798913,1.84771 0.08862,0.14175 0.16281,0.29203 0.244215,0.43805 0.229665,0.46178 0.349614,0.95951 0.357863,1.4732 -0.0043,0.13312 10e-4,0.26653 -0.0043,0.3996 -0.0054,-0.0116 0.0106,-0.078 0.01744,-0.10674 0.01014,-0.0328 0.01829,-0.0663 0.03042,-0.0983 0.01931,-0.0511 0.08661,-0.20072 0.06451,-0.15074 -0.0215,0.0486 -0.04597,0.096 -0.06482,0.1457 -0.04697,0.12382 -0.05027,0.15707 -0.07608,0.27615 -0.01601,0.0884 -0.0229,0.17797 -0.02455,0.26765 0.602884,1.89513 3.085405,-1.10357 2.796099,0.2235 0.07767,-0.18904 0.147029,-0.38089 0.210976,-0.57505 0.13852,-0.47494 0.242658,-0.96752 0.239599,-1.46485 -7.94e-4,-0.14613 -0.01625,-0.29183 -0.02437,-0.43774 -0.111009,-0.77941 -0.404889,-1.53187 -0.948601,-2.11445 -0.121176,-0.12983 -0.260714,-0.24123 -0.391071,-0.36185 -0.729099,-0.557 -1.586245,-0.89625 -2.444317,-1.19843 -0.741508,-0.26093 -1.513374,-0.39449 -2.293354,-0.46651 -0.708893,-0.0562 -1.422996,-0.0157 -2.108712,0.18275 -0.165561,0.0479 -0.326626,0.11019 -0.489939,0.16528 -0.911375,0.37425 -1.790117,0.89341 -2.432208,1.65672 -0.151389,0.17997 -0.27561,0.38114 -0.413414,0.57172 -0.109659,0.26106 -0.257565,0.50918 -0.328976,0.78318 -0.253641,0.97321 -0.02495,1.93674 0.46042,2.7962 0.430222,0.7618 0.776766,1.0546 1.372397,1.69249 0.325142,0.27009 0.637185,0.55679 0.975428,0.81029 1.556446,1.16649 3.418868,2.08958 5.266515,2.68582 0.51875,0.16741 1.051269,0.28868 1.576904,0.43301 0.558158,0.0894 1.112406,0.20807 1.674474,0.26814 1.541237,0.16472 3.12739,0.11218 4.632139,-0.28383 1.139921,-0.29999 1.380377,-0.49035 2.401861,-1.01385 0.958633,-0.60889 1.817979,-1.35544 2.517442,-2.25284 0.418174,-0.5365 0.758759,-1.06287 0.910066,-1.74078 0.07108,-0.31846 0.04127,-0.65129 0.0619,-0.97694 -0.13426,-0.34853 -0.178419,-0.74699 -0.402777,-1.04559 -0.926381,-1.23293 -2.612681,-1.09638 -3.9389,-0.85921 -0.342289,0.0612 -0.678762,0.15137 -1.018143,0.22705 -1.87593,0.52941 -3.672385,1.33702 -5.342927,2.33982 -0.310648,0.18648 -0.610214,0.39082 -0.91532,0.58623 -0.936326,0.64374 -1.797747,1.39341 -2.539944,2.25467 -0.299961,0.34808 -0.365421,0.45415 -0.618715,0.80744 -0.235374,0.37501 -0.477232,0.76686 -0.599323,1.19756 -0.0289,0.10195 -0.04891,0.20622 -0.07336,0.30934 0.100905,0.88374 -0.04773,1.08557 0.900224,1.65751 0.233658,0.14097 0.533114,0.13208 0.805688,0.14523 0.19867,0.01 0.396067,-0.0414 0.591606,-0.0778 0.30599,-0.057 0.939558,-0.2397 1.226059,-0.31893 0.933859,-0.25857 1.863725,-0.53932 2.814458,-0.73148 0.554297,-0.11203 0.627335,-0.11076 1.172485,-0.17761 0.407178,-0.0252 0.824413,-0.0459 1.22442,0.055 0.07664,0.0193 0.292936,0.0722 0.304419,0.18717 -0.0591,0.0245 -0.210944,-0.1735 -0.228015,-0.1712 -0.02117,0.003 -0.01802,0.0391 -0.02286,0.0599 -0.03218,0.13835 -0.05138,0.27941 -0.07776,0.419 -0.110405,0.55331 -0.182988,1.11298 -0.27809,1.66894 -0.07693,0.37872 -0.111088,0.76441 -0.174559,1.14515 -0.0051,-0.13581 0.101486,-0.23491 0.144079,-0.34871 -0.291925,0.26876 -0.530169,0.57955 -0.745067,0.91134 -0.345334,0.6428 -0.502361,1.40306 -0.308491,2.12257 0.05424,0.20131 0.149389,0.3893 0.224087,0.58394 0.125153,0.18006 0.226507,0.37924 0.375457,0.54017 0.518459,0.56013 1.23282,0.88807 1.990217,0.95395 0.68626,0.0597 0.975539,-0.0496 1.637027,-0.18601 0.701503,-0.18979 1.359188,-0.49662 2.003713,-0.82594 0.17775,-0.0908 0.681453,-0.36659 0.888257,-0.46208 0.09811,-0.0453 0.200684,-0.0803 0.301024,-0.12041 0.631166,-0.1782 1.253461,-0.0833 1.872665,0.0917 0.24801,0.10564 0.658435,0.22266 0.795407,0.48837 0.0064,0.0124 0.01828,0.14087 0.01881,0.14606 0.02732,0.20524 0.07434,0.41724 0.06015,0.6256 -0.0061,0.0894 -0.03129,0.17659 -0.04926,0.26443 -0.09998,0.48862 -0.07776,0.3736 -0.219585,0.8735 -0.193937,0.52055 -0.367949,1.18833 -0.828821,1.55071 -0.04813,0.0379 -0.106116,0.0611 -0.159173,0.0916 -0.126159,0.0516 -0.287912,0.1299 -0.427609,0.13437 -0.06417,0.002 -0.125923,-0.0253 -0.188394,-0.0401 -0.229106,-0.0543 -0.365644,-0.0697 -0.557766,-0.21455 -0.06753,-0.0509 -0.115115,-0.1239 -0.172672,-0.18585 -0.04598,-0.0817 -0.102431,-0.15833 -0.137946,-0.24509 -0.217614,-0.53159 -0.239162,-1.2184 -0.08538,-1.76721 0.03966,-0.14151 0.109027,-0.27297 0.163542,-0.40945 0.16424,-0.23642 0.189865,-0.34486 0.439941,-0.4731 0.35201,-0.18052 0.925637,-0.0711 1.287449,-0.0104 0.958321,0.2285 1.887249,0.61541 2.695893,1.18395 0.159234,0.11196 0.30658,0.23993 0.459869,0.35989 0.827027,0.71142 1.464826,1.5998 2.007465,2.53848 0.2178,0.4567 0.539192,0.9759 0.429723,1.50812 -0.01196,0.0581 -0.03656,0.11288 -0.05484,0.16932 -0.168683,0.43402 -0.441018,0.81956 -0.826408,1.08361 -0.191714,0.11049 -0.406278,0.16526 -0.627671,0.16276 -0.142764,-0.002 -0.116726,0.0249 -0.154606,-0.0444 0.0653,-0.0566 0.145859,0.0356 0.209156,0.006 0.02466,-0.0114 0.01511,-0.0537 0.01169,-0.0807 -0.01053,-0.0828 -0.03965,-0.16231 -0.05311,-0.24468 -0.05978,-0.36556 -0.0457,-0.37994 -0.0535,-0.76456 0.03542,-0.29865 0.015,-0.89477 0.331028,-1.07448 0.06764,-0.0385 0.131768,-0.0252 0.203708,-0.0217 0.426927,-0.0415 0.525593,0.0812 0.816089,0.34775 0.474282,0.4819 0.973672,0.93562 1.544238,1.30277 0.506418,0.32588 0.785836,0.44689 1.324753,0.71594 1.519341,0.69371 3.107595,1.21646 4.653449,1.84552 0.926021,0.35343 1.733513,0.95501 2.646752,1.33341 0.177604,0.0736 0.362122,0.12924 0.543181,0.19386 0.232863,0.0338 0.463286,0.10086 0.69859,0.10146 0.79665,0.002 1.479243,-0.33248 2.053262,-0.86582 0.407495,-0.37861 0.529421,-0.61729 0.834435,-1.07285 0.450239,-0.81066 0.705144,-1.70562 0.702194,-2.63621 -0.0019,-0.55771 -0.05819,-0.71646 -0.162875,-1.24938 -0.0647,-0.18696 -0.113311,-0.38029 -0.194093,-0.56089 -0.326464,-0.72982 -0.878496,-1.27478 -1.688521,-1.45225 -0.703252,-0.15408 -1.162153,0.0283 -1.827998,0.18365 -2.204995,0.77982 -4.213722,2.00734 -6.204387,3.21479 -1.224306,0.78394 -2.48657,1.53182 -3.590935,2.4863 -0.7273,0.62858 -1.446086,1.34864 -1.898727,2.21284 -0.233918,0.4466 -0.347337,0.94659 -0.521004,1.41988 -0.0894,1.53871 -0.207251,1.41204 0.188809,2.88882 0.103907,0.38743 0.268306,0.75604 0.402458,1.13406 0.685083,1.87434 3.335792,0.90549 2.650712,-0.96885 v 0 c -0.270028,-0.70923 -0.57985,-1.40471 -0.558025,-2.18149 0.05637,-0.23432 0.07039,-0.48311 0.169119,-0.70296 0.28275,-0.62964 0.788583,-1.12801 1.296766,-1.57258 1.017627,-0.89025 2.193525,-1.57425 3.324918,-2.30327 1.760397,-1.0687 3.53233,-2.15179 5.459145,-2.8984 0.113943,-0.0387 0.238755,-0.0541 0.341831,-0.11622 0.105685,-0.0637 -0.268981,-0.24325 -0.246417,-0.40272 0.01177,-0.0831 0.264086,0.41892 0.136943,0.21142 0.167077,0.64944 0.135528,1.15206 -0.153731,1.76705 -0.05043,0.0861 -0.09704,0.17457 -0.151281,0.25834 -0.04368,0.0675 -0.09509,0.12959 -0.142094,0.19478 -0.02564,0.0356 -0.06523,0.0649 -0.07582,0.10743 -0.01101,0.0442 0.08765,0.0492 0.100316,0.093 0.0049,0.0169 -0.02495,0.0249 -0.03745,0.0373 -0.0815,-0.0244 -0.165526,-0.0416 -0.244504,-0.0732 -0.273378,-0.10945 -0.600988,-0.2956 -0.852305,-0.43138 -0.634696,-0.3429 -1.268574,-0.68925 -1.936803,-0.96451 -1.482482,-0.60164 -3.001441,-1.1106 -4.464225,-1.76039 -0.451156,-0.2207 -0.907034,-0.43285 -1.31047,-0.73668 -0.274394,-0.20664 -0.394809,-0.34639 -0.648817,-0.58618 -0.132818,-0.12539 -0.267753,-0.24851 -0.401627,-0.37277 -0.418142,-0.31766 -0.575704,-0.47747 -1.075785,-0.68523 -0.634368,-0.26354 -1.343975,-0.33363 -2.01853,-0.20357 -0.24366,0.047 -0.476374,0.13921 -0.71456,0.20881 -0.643316,0.36096 -0.835837,0.38689 -1.305542,0.975 -0.634463,0.7944 -0.798046,1.80567 -0.815377,2.79049 0.03766,0.62274 0.02244,0.90423 0.191188,1.51396 0.217686,0.78649 0.611333,1.49328 1.318345,1.94007 0.192265,0.1215 0.419502,0.17587 0.629251,0.2638 0.192158,0.0298 0.382531,0.0753 0.576476,0.0895 0.697733,0.051 1.437844,-0.14002 2.05128,-0.46502 0.16205,-0.0858 0.311391,-0.19379 0.467085,-0.29069 0.143878,-0.1186 0.295238,-0.22866 0.431636,-0.35579 0.696571,-0.64921 1.166212,-1.50124 1.41986,-2.41198 0.095,-0.59862 0.150717,-0.70591 0.09628,-1.30847 -0.07505,-0.83068 -0.414412,-1.60096 -0.805998,-2.32582 -0.111336,-0.18896 -0.217342,-0.38116 -0.334012,-0.56688 -0.654704,-1.04217 -1.453682,-1.99569 -2.395739,-2.78946 -0.227788,-0.17145 -0.447836,-0.35369 -0.683363,-0.51434 -1.157748,-0.78969 -2.481416,-1.31872 -3.852717,-1.59002 -0.744532,-0.0718 -1.085472,-0.15922 -1.834245,-0.009 -1.022866,0.20465 -1.8445,0.71126 -2.451158,1.5656 -0.183391,0.25826 -0.301871,0.55696 -0.452806,0.83544 -0.09474,0.31028 -0.218926,0.61305 -0.284223,0.93082 -0.268544,1.30693 -0.06754,2.79041 0.685869,3.91161 0.185288,0.27574 0.440706,0.49722 0.661061,0.74584 0.270534,0.17974 0.521449,0.39325 0.811602,0.53922 0.812702,0.40885 1.768604,0.49808 2.652199,0.31344 0.515662,-0.10776 0.820036,-0.32322 1.268539,-0.57516 0.179986,-0.14728 0.37255,-0.2804 0.539954,-0.44184 0.75088,-0.72411 1.14336,-1.72318 1.456687,-2.6939 0.186124,-0.6889 0.353423,-1.35734 0.364072,-2.07704 0.0079,-0.53279 -0.124211,-1.06495 -0.289623,-1.56605 -0.239154,-0.49194 -0.261498,-0.62525 -0.637074,-1.03943 -0.544793,-0.60079 -1.292397,-0.95171 -2.050302,-1.19629 -0.202554,-0.0505 -0.402867,-0.11106 -0.60766,-0.15156 -1.019617,-0.20162 -2.077157,-0.1605 -3.060621,0.18403 -0.166603,0.0707 -0.335645,0.13594 -0.499806,0.21215 -0.748059,0.34728 -1.44151,0.81971 -2.241026,1.05175 -0.252484,0.0707 -0.339278,0.10111 -0.569063,0.14892 -0.04023,0.008 -0.08102,0.0138 -0.121539,0.0206 -0.02492,0.004 -0.0539,-0.002 -0.07478,0.0125 -0.02651,0.0181 -0.0053,0.0724 -0.04049,0.0873 -0.06105,0.13978 -0.0728,-0.008 -0.07905,-0.0532 0.06846,-0.1869 0.276074,-0.30129 0.393512,-0.4531 0.298447,-0.32849 0.523552,-0.69826 0.591254,-1.14455 0.05797,-0.37137 0.09826,-0.74551 0.169553,-1.11484 0.09271,-0.54379 0.164549,-1.09099 0.271581,-1.63229 0.07914,-0.43683 0.169834,-0.88474 0.126693,-1.33191 -0.07179,-0.74415 -0.311322,-1.17656 -0.829405,-1.70628 -0.456964,-0.32445 -0.506209,-0.40589 -1.040193,-0.59831 -0.82767,-0.29825 -1.721731,-0.29338 -2.585961,-0.22512 -0.235672,0.0304 -0.472234,0.0546 -0.70702,0.0912 -1.250103,0.19492 -2.464677,0.55974 -3.680963,0.8984 -0.190579,0.053 -0.380788,0.10741 -0.571737,0.15909 -0.125514,0.034 -0.252933,0.061 -0.377616,0.0979 -0.02798,0.008 -0.104638,0.0231 -0.07917,0.0373 0.122386,0.0684 0.290749,0.0482 0.396623,0.14018 0.731976,0.63564 0.596961,0.59956 0.637339,1.39456 -0.01129,0.0322 -0.02095,0.0651 -0.03385,0.0967 -0.0073,0.0178 0.01052,-0.0371 0.01695,-0.0553 0.05399,-0.1524 0.128613,-0.29629 0.217127,-0.43151 0.639739,-0.91843 1.466452,-1.68248 2.383491,-2.32104 0.259191,-0.16768 0.513395,-0.34334 0.777573,-0.50305 1.433462,-0.86661 2.973795,-1.57093 4.580948,-2.04475 0.261739,-0.0614 0.521436,-0.13224 0.785218,-0.18414 0.22476,-0.0442 0.45286,-0.0693 0.679291,-0.10399 0.150384,-0.014 0.302646,-0.0144 0.451146,-0.0419 0.0426,-0.008 0.116848,-0.0196 0.1138,-0.0628 -0.008,-0.11271 -0.09333,-0.2058 -0.140002,-0.30871 0.0071,-0.10524 0.01421,-0.21049 0.0213,-0.31574 0.02735,0.01 0.07789,1.4e-4 0.08206,0.0288 0.04231,0.29108 -0.232029,0.60485 -0.369197,0.78873 -0.468908,0.6286 -1.052113,1.15694 -1.696746,1.5999 -0.678712,0.37272 -0.867889,0.52361 -1.638327,0.74281 -1.638104,0.46606 -3.360808,0.36185 -5.016142,0.0592 -0.445344,-0.11867 -0.896459,-0.21749 -1.336033,-0.35602 -1.58267,-0.49878 -3.114572,-1.25207 -4.460385,-2.22489 -0.248565,-0.17967 -0.479662,-0.38235 -0.719493,-0.57353 -0.174255,-0.17629 -0.357372,-0.34424 -0.522766,-0.52887 -0.267449,-0.29856 -0.358036,-0.44731 -0.547164,-0.76489 -0.03291,-0.0553 -0.130278,-0.21676 -0.145567,-0.29724 -0.0085,-0.0447 -5.82e-4,-0.091 -8.73e-4,-0.13648 0.04341,-0.074 0.07927,-0.1529 0.130242,-0.22187 0.326365,-0.44162 0.829394,-0.71503 1.317793,-0.93724 0.496976,-0.18524 0.881595,-0.2528 1.416493,-0.20138 0.54847,0.0468 1.090843,0.13686 1.612542,0.31931 0.52381,0.18184 1.044794,0.3817 1.524153,0.66381 0.218136,0.13727 0.313952,0.31263 0.378117,0.56238 0.04258,0.27642 -0.0093,0.5508 -0.08608,0.81756 -0.06313,0.20196 -0.151693,0.39417 -0.21744,0.59527 -0.04545,0.15458 -0.08225,0.30271 -0.09804,0.46389 -0.0046,0.0468 -0.05374,0.13802 -0.0068,0.14098 2.828269,0.17825 2.82725,-0.90536 2.82204,0.0571 -0.0013,0.0648 -0.0073,0.12953 -0.01931,0.19332 -0.02949,0.13194 -0.07296,0.24835 -0.127429,0.37193 -0.0032,0.007 0.0075,-0.0138 0.01072,-0.021 0.0821,-0.18596 0.05531,-0.1161 0.108982,-0.28404 0.04558,-0.17986 0.07398,-0.36335 0.07922,-0.54913 0.0048,-0.1901 0.004,-0.38034 0.004,-0.57049 -0.03813,-0.97528 -0.270065,-1.92009 -0.730503,-2.7871 -0.128396,-0.21978 -0.246645,-0.44581 -0.385188,-0.65933 -0.593061,-0.91405 -1.357192,-1.76034 -2.26089,-2.37616 -0.240482,-0.16387 -0.499887,-0.29809 -0.74983,-0.44714 -0.731391,-0.2739 -0.977715,-0.44802 -1.787442,-0.41456 -1.093318,0.0452 -1.954693,0.74076 -2.830327,1.30458 -0.249141,0.14182 -0.491181,0.29691 -0.747423,0.42546 -0.471019,0.23629 -1.164201,0.52767 -1.688939,0.62467 -0.951436,0.17589 -1.933775,0.0602 -2.864868,-0.15757 -0.272091,-0.0998 -0.552493,-0.17937 -0.816274,-0.29943 -0.710765,-0.32352 -1.396485,-0.84109 -1.773169,-1.54009 -0.05734,-0.10641 -0.09331,-0.22302 -0.139969,-0.33454 -0.02237,-0.13178 -0.06118,-0.26182 -0.06712,-0.39536 -0.0073,-0.16393 0.065,-1.39806 0.0649,-1.44842 -6.88e-4,-0.34052 -10e-4,-0.68303 -0.04644,-1.02051 -0.150721,-1.12005 -0.293544,-1.25208 -0.741791,-2.31079 -0.263519,-0.393 -0.489558,-0.8139 -0.790557,-1.17899 -1.012276,-1.22781 -2.420975,-2.21912 -3.9445803,-2.69635 -0.5356366,-0.16778 -1.0924268,-0.30559 -1.6535866,-0.31805 -0.5680173,-0.0126 -1.1246202,0.1626 -1.6869303,0.24391 -0.4603651,0.39209 -1.0503767,0.67001 -1.3810953,1.17626 -0.2712083,0.41516 -0.3237599,0.95386 -0.3343099,1.44964 -0.010069,0.47315 0.1212433,0.94514 0.2738171,1.39313 0.1659444,0.48726 0.4089546,0.94809 0.6738436,1.38944 0.7720203,1.28631 1.1941661,1.59453 2.2404597,2.67389 1.0970974,0.81058 1.6732784,1.40151 3.0154391,1.76476 1.1607199,0.31414 2.1407369,0.31497 3.1837779,-0.35596 0.936804,-0.6026 1.061408,-1.30482 1.445741,-2.24597 0.07938,-0.44772 0.189753,-0.89104 0.238144,-1.34316 0.166892,-1.55931 -0.086,-3.12311 0.01629,-4.68268 0.01031,-0.15711 0.03945,-0.31241 0.05917,-0.46862 0.03727,-0.10751 0.03185,-0.24156 0.111799,-0.32252 0.116843,-0.11832 0.279523,-0.1908 0.439596,-0.23584 0.845381,-0.23788 1.660502,0.18754 2.332212,0.65483 0.09242,-0.0112 0.189468,-0.0647 0.277263,-0.0337 0.397101,0.14015 -0.04984,0.55407 -0.175022,0.63828 -0.290142,0.19517 -0.622144,0.33338 -0.960399,0.42203 -1.203163,0.31534 -1.862542,0.18159 -3.116941,0.12603 -0.592588,-0.10042 -1.190539,-0.17313 -1.777736,-0.30134 -0.570424,-0.12454 -1.131211,-0.29071 -1.691189,-0.45599 -1.3254689,-0.39123 -2.6179539,-0.88285 -3.9023357,-1.39004 -1.8766426,-0.67873 -2.836519,1.97524 -0.9598763,2.65397 z"
       id="path1198"
       style="fill:#ffffff;fill-opacity:1;fill-rule:nonzero;stroke:none;stroke-width:0.264583" />
  </g>
</svg>
