<?xml version="1.0" encoding="UTF-8" standalone="no"?>
<svg
   xmlns:dc="http://purl.org/dc/elements/1.1/"
   xmlns:cc="http://creativecommons.org/ns#"
   xmlns:rdf="http://www.w3.org/1999/02/22-rdf-syntax-ns#"
   xmlns:svg="http://www.w3.org/2000/svg"
   xmlns="http://www.w3.org/2000/svg"
   xmlns:sodipodi="http://sodipodi.sourceforge.net/DTD/sodipodi-0.dtd"
   xmlns:inkscape="http://www.inkscape.org/namespaces/inkscape"
   inkscape:version="1.0 (1.0+r73+1)"
   sodipodi:docname="science.svg"
   id="svg8"
   version="1.1"
   viewBox="0 0 64 64"
   height="64mm"
   width="64mm">
  <defs
     id="defs2" />
  <sodipodi:namedview
     inkscape:document-rotation="0"
     inkscape:window-maximized="1"
     inkscape:window-y="27"
     inkscape:window-x="0"
     inkscape:window-height="1016"
     inkscape:window-width="1920"
     inkscape:snap-page="true"
     showgrid="false"
     inkscape:current-layer="layer1"
     inkscape:document-units="mm"
     inkscape:cy="128.96633"
     inkscape:cx="100.74131"
     inkscape:zoom="3"
     inkscape:pageshadow="2"
     inkscape:pageopacity="0.0"
     borderopacity="1.0"
     bordercolor="#666666"
     pagecolor="#ffffff"
     id="base" />
  <metadata
     id="metadata5">
    <rdf:RDF>
      <cc:Work
         rdf:about="">
        <dc:format>image/svg+xml</dc:format>
        <dc:type
           rdf:resource="http://purl.org/dc/dcmitype/StillImage" />
        <dc:title />
      </cc:Work>
    </rdf:RDF>
  </metadata>
  <g
     transform="translate(0,-233)"
     id="layer1"
     inkscape:groupmode="layer"
     inkscape:label="Layer 1">
    <rect
       y="233"
       x="0"
       height="64"
       width="64"
       id="rect3713"
       style="fill:#9c27b0;stroke-width:0.26458332;fill-opacity:1" />
    <path
       d="m 20.37587,250.30442 c -0.649673,-0.23664 -1.362049,-0.23263 -1.983277,0.10156 -0.18317,0.0985 -0.340778,0.23856 -0.511167,0.35784 -0.135703,0.15179 -0.292165,0.28731 -0.407108,0.45537 -0.42915,0.62746 -0.577929,1.37883 -0.348679,2.11627 0.206911,0.66558 0.456653,0.79641 0.931467,1.26435 0.2308,0.1237 0.447612,0.27809 0.692399,0.37108 0.983744,0.37373 2.15355,0.22697 3.019118,-0.36964 0.225746,-0.1556 0.409365,-0.36484 0.614048,-0.54727 0.149925,-0.24088 0.339486,-0.46124 0.449776,-0.72266 0.361153,-0.85605 0.249838,-1.81149 -0.315521,-2.55362 -0.455814,-0.59834 -0.760429,-0.64767 -1.406124,-0.94877 -0.301931,-0.0372 -0.601588,-0.11397 -0.905794,-0.11162 -0.813108,0.006 -1.623038,0.36798 -2.225883,0.89965 -0.523661,0.46183 -0.569508,0.65141 -0.907899,1.24101 -0.07008,0.26253 -0.181992,0.51733 -0.210255,0.78758 -0.100062,0.95677 0.287959,1.79214 1.089869,2.33075 0.589759,0.39611 0.951649,0.37419 1.616623,0.46809 0.269862,-0.0255 0.543965,-0.0225 0.809585,-0.0766 1.056609,-0.21507 2.093127,-0.96617 2.272982,-2.09714 0.04738,-0.29792 -0.02725,-0.60271 -0.04088,-0.90406 -0.154513,-0.28354 -0.259503,-0.60034 -0.463538,-0.85062 -0.173986,-0.21341 -0.411502,-0.37119 -0.647788,-0.51257 -0.517424,-0.30959 -1.162485,-0.40622 -1.754383,-0.41483 -0.138703,-0.002 -0.277184,0.0118 -0.415776,0.0177 -0.52499,0.0863 -0.2624,0.0206 -0.786338,0.20277 -1.831753,0.79192 -0.711799,3.38241 1.119954,2.59049 v 0 c -0.169664,0.0385 -0.159939,0.0937 -0.16654,0.024 0.157165,-0.0175 0.128168,-0.0182 0.298457,-0.019 0.04546,-2.2e-4 0.09126,0.008 0.136343,0.003 0.01792,-0.002 0.04933,-0.008 0.04743,-0.0263 -0.0178,-0.16835 -0.279033,-0.27249 -0.140557,-0.48802 0.0578,-0.23427 0.03292,-0.33074 0.229798,-0.47724 0.02648,-0.0197 0.07524,-0.0349 0.09838,-0.0114 0.01992,0.0203 -0.011,0.0597 -0.0318,0.0791 -0.08074,0.075 -0.211902,0.11321 -0.311099,0.15042 -0.04698,0.009 -0.09966,0.004 -0.140942,0.028 -0.0205,0.0121 -0.02432,0.0442 -0.022,0.0679 0.0056,0.057 0.03907,0.10895 0.04494,0.16596 0.0052,0.0508 0.03291,0.35604 -0.124512,0.25677 0.04562,-0.18189 0.111788,-0.31017 0.251162,-0.44158 0.04111,-0.0388 0.08646,-0.0731 0.133203,-0.10481 0.03875,-0.0263 0.08992,-0.0352 0.122523,-0.0688 0.01723,-0.0178 0.0098,-0.0485 0.01476,-0.0728 0.01566,-0.015 0.0377,-0.0253 0.04698,-0.0449 0.04073,-0.0859 0.02474,-0.52571 0.234736,-0.35641 -0.008,0.0312 -0.0067,0.0663 -0.0239,0.0936 -0.03,0.0476 -0.15238,0.15276 -0.205688,0.17784 -0.09172,0.0431 -0.206387,0.0299 -0.283173,0.10235 -0.0087,0.17197 0.01951,0.37981 -0.121895,0.50836 -0.05807,0.0528 -0.05538,0.0432 -0.09801,0.0182 -0.0476,0.002 -0.116728,0.006 -0.162318,0.003 -0.170186,-0.0114 -0.279582,-0.0652 -0.0704,-0.007 1.87694,0.67791 2.835654,-1.97648 0.958714,-2.6544 z"
       id="path3407"
       style="fill:#ffffff;fill-opacity:1;fill-rule:nonzero;stroke:none;stroke-width:0.264583" />
    <path
       d="m 31.14013,245.97434 c -0.825297,-0.44494 -1.716119,-0.74925 -2.632909,-0.94054 -0.286813,-0.0598 -0.576963,-0.10239 -0.865446,-0.15359 -1.982452,-0.26847 -3.988851,-0.3498 -5.98812,-0.31216 -0.510521,0.01 -1.020637,0.0346 -1.530956,0.0519 -2.923025,0.16177 -5.821798,0.6639 -8.638781,1.45791 -0.542725,0.15298 -1.078455,0.32977 -1.6176826,0.49465 -0.5078905,0.18301 -1.0212986,0.35139 -1.5236717,0.54904 -1.6887737,0.66444 -3.4881795,1.53976 -4.8064969,2.81693 -0.2772413,0.26858 -0.5085252,0.58087 -0.7627879,0.8713 -0.4539688,0.83981 -0.7524563,1.15622 -0.7695112,2.16138 -0.015102,0.89008 0.272085,1.62525 0.7656863,2.35067 0.5968431,0.87716 1.0761962,1.13974 1.9076699,1.78408 0.4297667,0.23685 0.8449006,0.50244 1.2893,0.71054 2.1137444,0.9898 4.4644531,1.41865 6.7693751,1.6557 0.642961,0.0661 1.289013,0.0976 1.933519,0.14645 3.357794,0.16795 6.721122,-0.0212 10.059825,-0.38662 0.630672,-0.069 1.259554,-0.15351 1.889332,-0.23027 1.513554,-0.21315 3.029989,-0.45934 4.494331,-0.90977 0.588963,-0.18116 1.509107,-0.51344 2.044618,-0.85395 0.314764,-0.20015 0.584835,-0.46315 0.877253,-0.69473 0.214688,-0.27301 0.464502,-0.52174 0.644064,-0.81903 0.518139,-0.85786 0.693669,-1.86126 0.621025,-2.8495 -0.05626,-0.76529 -0.180493,-1.02679 -0.402616,-1.75035 -0.451435,-1.14265 -1.171512,-2.12318 -2.139887,-2.88199 -0.654235,-0.51266 -0.960107,-0.6354 -1.69676,-1.03194 -1.941668,-0.92221 -4.030559,-1.46268 -6.093373,-2.037 -1.9225,-0.53522 -2.679419,2.18361 -0.756919,2.71883 v 0 c 1.868616,0.52019 3.762015,1.00357 5.531572,1.81335 0.215514,0.11096 0.436324,0.21218 0.646538,0.33288 0.821598,0.47173 1.439246,1.08203 1.823752,1.95495 0.05571,0.15747 0.121433,0.31174 0.167116,0.47241 0.13249,0.46598 0.21031,1.13483 0.01715,1.59837 -0.04913,0.1179 -0.128373,0.22086 -0.192561,0.33129 -0.104814,0.10706 -0.190989,0.23628 -0.314441,0.32117 -0.388057,0.26686 -1.093584,0.51948 -1.51161,0.65043 -1.334569,0.41806 -2.720498,0.63608 -4.101263,0.83316 -0.607683,0.0743 -1.214498,0.15611 -1.823048,0.22297 -3.177371,0.34905 -6.377938,0.53478 -9.573946,0.38095 -0.593847,-0.0436 -1.18904,-0.0718 -1.781541,-0.13095 -1.968985,-0.19666 -3.9731064,-0.53934 -5.7957019,-1.34289 -0.3211105,-0.14157 -0.6231459,-0.32297 -0.9347189,-0.48445 -0.2304712,-0.16275 -0.4723683,-0.31042 -0.6914134,-0.48825 -0.2732191,-0.22181 -0.5242346,-0.49849 -0.7314713,-0.78464 -0.1095092,-0.15121 -0.2177264,-0.31017 -0.18141,-0.51354 0.026843,-0.15032 0.1100246,-0.28489 0.1650368,-0.42733 0.1427231,-0.179 0.2673995,-0.37402 0.4281691,-0.537 0.446837,-0.453 1.0474121,-0.87311 1.5877373,-1.19247 1.1776567,-0.69606 2.4591369,-1.19133 3.7494433,-1.63196 0.500025,-0.15378 0.996771,-0.31866 1.500076,-0.46135 2.616722,-0.74184 5.309706,-1.21413 8.025895,-1.36887 0.48096,-0.0167 0.961722,-0.0407 1.44288,-0.0502 1.834089,-0.0362 3.67454,0.0345 5.49453,0.27022 0.912611,0.15562 1.809575,0.33097 2.626889,0.78883 1.750068,0.95903 3.106333,-1.51594 1.356265,-2.47497 z"
       id="path3413"
       style="fill:#ffffff;fill-opacity:1;fill-rule:nonzero;stroke:none;stroke-width:0.264583" />
    <path
       d="m 15.689625,236.17878 c -0.757479,1.17087 -1.043824,2.55657 -1.31707,3.90258 -0.473813,2.57413 -0.698871,5.18283 -0.881583,7.79082 -0.147736,2.6755 -0.34336,5.3548 -0.294291,8.03645 0.0097,0.53024 0.03974,1.05992 0.05961,1.58988 0.136434,1.80284 0.274733,3.65274 0.91557,5.363 0.139255,0.37165 0.279941,0.74893 0.492954,1.0838 0.24786,0.38965 0.5854,0.71439 0.8781,1.07159 0.344773,0.25428 0.663055,0.54909 1.034318,0.76285 1.040608,0.59914 2.289339,0.85141 3.479777,0.697 1.029781,-0.13358 1.316384,-0.35311 2.245393,-0.78375 0.32911,-0.22333 0.675648,-0.42291 0.987329,-0.66998 1.309693,-1.0382 2.347785,-2.44753 3.085264,-3.93793 0.192222,-0.38846 0.345271,-0.79512 0.517906,-1.19268 0.730507,-1.95676 1.05125,-4.03472 1.137758,-6.11509 0.01738,-0.41787 0.01484,-0.83633 0.02225,-1.25449 -0.01672,-2.1094 -0.251944,-4.22359 -0.792993,-6.26574 -0.105598,-0.39857 -0.235498,-0.7903 -0.353248,-1.18545 -0.513958,-1.55342 -1.29432,-2.9535 -2.356461,-4.19835 -0.673918,-0.78985 -0.907881,-0.95579 -1.677645,-1.65144 -1.302703,-1.0649 -2.767747,-1.8101 -4.399772,-2.22335 -0.926635,-0.23464 -1.198383,-0.22725 -2.115127,-0.31386 -1.988033,-0.17377 -2.233782,2.63773 -0.24575,2.8115 v 0 c 0.237786,0.0185 0.476923,0.024 0.713356,0.0554 0.891463,0.11811 1.775491,0.36771 2.585628,0.76164 0.710026,0.34524 0.940222,0.55209 1.578557,1.01083 0.62578,0.55443 0.796085,0.66951 1.346042,1.29861 0.843305,0.96466 1.461407,2.0448 1.868225,3.26087 0.102816,0.33924 0.216401,0.6754 0.308449,1.01772 0.488306,1.81598 0.699437,3.69797 0.718899,5.57531 -0.0056,0.37283 -0.0023,0.7459 -0.01674,1.1185 -0.06827,1.76064 -0.318179,3.52403 -0.916209,5.18745 -0.131282,0.31289 -0.247204,0.63268 -0.393846,0.93867 -0.534877,1.11611 -1.284737,2.18354 -2.232098,2.98925 -0.192533,0.16375 -0.407685,0.29887 -0.611527,0.4483 -0.453728,0.24468 -0.641791,0.38996 -1.141366,0.49925 -0.576736,0.12616 -1.201656,0.0462 -1.737237,-0.19967 -0.188995,-0.0868 -0.356375,-0.21445 -0.534562,-0.32167 -0.14254,-0.12995 -0.316474,-0.2322 -0.42762,-0.38984 -0.282044,-0.40003 -0.525575,-1.19226 -0.639213,-1.63429 -0.312739,-1.2165 -0.418406,-2.47282 -0.504196,-3.72149 -0.01919,-0.49379 -0.04813,-0.98729 -0.05756,-1.48136 -0.04989,-2.61624 0.144873,-5.23021 0.287414,-7.84047 0.17369,-2.48739 0.385634,-4.97553 0.833075,-7.43136 0.190658,-0.95882 0.370051,-1.95049 0.845901,-2.81736 1.160786,-1.62328 -1.134881,-3.26488 -2.295667,-1.6416 z"
       id="path3415"
       style="fill:#ffffff;fill-opacity:1;fill-rule:nonzero;stroke:none;stroke-width:0.264583" />
    <path
       d="m 12.758031,264.73385 c 1.084338,-0.36403 2.123486,-0.84153 3.157936,-1.32583 2.376115,-1.15867 4.725801,-2.37149 7.041937,-3.6457 1.961706,-1.13454 3.925657,-2.30769 5.643533,-3.7982 0.298659,-0.25913 0.579879,-0.5377 0.869818,-0.80655 0.997521,-1.0099 1.908444,-2.11325 2.642354,-3.33119 0.16388,-0.27196 0.324207,-0.54694 0.462242,-0.83289 0.151525,-0.31389 0.270103,-0.64264 0.405154,-0.96396 0.396074,-1.14837 0.67794,-2.35595 0.579491,-3.57956 -0.05746,-0.71413 -0.146601,-0.90044 -0.340837,-1.57445 -0.457372,-1.1849 -1.148831,-2.31096 -2.19825,-3.06319 -0.23463,-0.16818 -0.494499,-0.29802 -0.741749,-0.44703 -0.281911,-0.11056 -0.556266,-0.24277 -0.845736,-0.33169 -1.30076,-0.39957 -2.686449,-0.32416 -4.008374,-0.0848 -0.381863,0.0691 -0.758208,0.1659 -1.137312,0.24885 -2.078949,0.56036 -4.135148,1.23042 -6.130891,2.04134 -0.42714,0.17355 -0.847808,0.36263 -1.271711,0.54395 -2.112047,0.9646 -4.107373,2.18164 -5.911219,3.64541 -0.344976,0.27994 -0.674682,0.57819 -1.0120233,0.86728 -1.2365447,1.13755 -2.3472677,2.41409 -3.204606,3.8638 -0.49745,0.84117 -0.574688,1.09098 -0.957606,1.97143 -0.4315732,1.13846 -0.7131632,2.3308 -0.7802774,3.54829 -0.03632,0.65886 -0.00767,0.85419 0.029228,1.50043 0.129268,1.0853 0.3573336,2.23061 1.1156707,3.07051 0.1619173,0.17933 0.3592602,0.32317 0.5388903,0.48476 0.2288501,0.12532 0.4466741,0.27331 0.6865504,0.37596 1.2040317,0.51525 2.5698254,0.38645 3.8330493,0.25846 1.638523,-0.23885 3.256151,-0.66753 4.778128,-1.32563 0.291179,-0.1259 0.573189,-0.27203 0.859784,-0.40804 0.247467,-0.14712 0.494934,-0.29424 0.742401,-0.44136 1.707419,-1.03304 0.24647,-3.4477 -1.46095,-2.41465 v 0 c -0.166854,0.10356 -0.333707,0.20711 -0.500561,0.31067 -0.226902,0.10993 -0.449814,0.22851 -0.680708,0.32979 -1.28309,0.56281 -2.649082,0.92926 -4.031603,1.1423 -0.812079,0.0882 -1.6315601,0.17009 -2.4377725,-0.0108 -0.099737,-0.0417 -0.1477364,-0.0483 -0.2201965,-0.14349 -0.2989186,-0.39264 -0.3197262,-0.94087 -0.4059031,-1.40366 -0.031987,-0.46165 -0.054585,-0.60805 -0.034508,-1.07946 0.039112,-0.91836 0.2470758,-1.81816 0.5617548,-2.67989 0.2916431,-0.68934 0.356226,-0.90002 0.7391101,-1.56023 0.7081642,-1.22109 1.6384772,-2.29095 2.6698042,-3.24896 0.298554,-0.25751 0.590246,-0.52319 0.895661,-0.77252 1.615842,-1.31911 3.405262,-2.41586 5.299639,-3.28636 0.391381,-0.16809 0.779659,-0.34361 1.174144,-0.50428 1.865361,-0.75976 3.78736,-1.38693 5.728603,-1.91995 1.001341,-0.22639 2.019824,-0.46891 3.055453,-0.36113 0.416576,0.0434 0.540705,0.1024 0.923261,0.22373 0.117142,0.0593 0.240115,0.10833 0.351427,0.178 0.621231,0.38877 1.00312,1.05128 1.289418,1.7038 0.10672,0.31893 0.179639,0.48278 0.219406,0.82055 0.09796,0.83204 -0.117303,1.65627 -0.369298,2.44111 -0.08886,0.22474 -0.163943,0.45543 -0.266588,0.67421 -0.106802,0.22765 -0.232302,0.44633 -0.360585,0.66259 -0.606753,1.02287 -1.368399,1.94645 -2.195584,2.79745 -0.243414,0.22825 -0.479063,0.46508 -0.73024,0.68476 -1.583403,1.38488 -3.408718,2.45858 -5.219625,3.51201 -2.26233,1.24553 -4.558437,2.42917 -6.87893,3.56274 -0.960871,0.4509 -1.925859,0.89579 -2.934112,1.23244 -1.8730243,0.68866 -0.899117,3.33751 0.973908,2.64886 z"
       id="path3417"
       style="fill:#ffffff;fill-opacity:1;fill-rule:nonzero;stroke:none;stroke-width:0.264583" />
    <path
       d="m 10.781342,270.87032 c -0.7838042,-0.21285 -1.5820085,-0.36142 -2.3837536,-0.4869 -0.8743432,-0.11211 -1.7718755,-0.17951 -2.6432142,0.002 -0.6717591,0.13995 -0.8196763,0.23894 -1.4464546,0.50508 -0.9905145,0.50736 -1.7985141,1.25902 -2.383663,2.2058 -0.3780963,0.61175 -0.4438392,0.85811 -0.7074111,1.51793 -0.34092164,1.0549 -0.43319037,2.16393 -0.059897,3.22627 0.2307252,0.65661 0.3996259,0.82443 0.7870263,1.39149 0.9671386,1.16646 2.2819373,1.95107 3.4995032,2.82443 0.8624253,0.66913 1.7822545,1.30285 2.4988959,2.13709 0.1115547,0.12987 0.2076903,0.27221 0.3115355,0.40832 0.2163736,0.36338 0.4994754,0.82928 0.367832,1.27687 -0.04534,0.15416 -0.1417027,0.22917 -0.2471031,0.34385 -0.092581,0.0946 -0.1791121,0.1955 -0.2777432,0.28376 -0.6642346,0.5944 -1.4831528,1.05502 -2.3150925,1.36708 -0.2288334,0.0858 -0.4664337,0.14619 -0.6996504,0.21928 -0.6238124,0.16454 -1.2576405,0.18107 -1.8952977,0.10901 -0.5038847,-0.0569 -1.0006565,-0.17902 -1.4979574,-0.27492 -1.95954558,-0.37769 -2.49368083,2.39353 -0.5341353,2.77122 v 0 c 0.62331,0.12008 1.2440332,0.26529 1.8778586,0.32171 0.9856007,0.0877 1.9664397,0.0252 2.9222446,-0.24312 0.3256782,-0.10864 0.657376,-0.20068 0.9770342,-0.32593 1.1537267,-0.45206 2.4448034,-1.2057 3.3065238,-2.10617 0.215521,-0.22522 0.392783,-0.48416 0.589175,-0.72624 0.14746,-0.29426 0.333921,-0.57202 0.44238,-0.88278 0.373903,-1.07131 0.132579,-2.24029 -0.382043,-3.21625 -0.121147,-0.22975 -0.276077,-0.44004 -0.414114,-0.66005 -0.165672,-0.20722 -0.321731,-0.42251 -0.4970166,-0.62166 -0.8405456,-0.955 -1.8831417,-1.70782 -2.8888343,-2.47467 -0.9417625,-0.67496 -0.2460416,-0.18052 -1.1704794,-0.82691 -0.4735285,-0.33111 -0.9580814,-0.65768 -1.3851204,-1.04936 -0.103505,-0.0949 -0.1970929,-0.20015 -0.2956394,-0.30022 -0.1550262,-0.19307 -0.2575578,-0.29629 -0.3646029,-0.51572 -0.2252991,-0.46184 -0.1631734,-0.95723 -0.024164,-1.43552 0.060385,-0.16319 0.1126278,-0.32962 0.1811551,-0.48956 0.2990893,-0.69806 0.7508195,-1.29755 1.4201299,-1.67389 0.267026,-0.12703 0.4305091,-0.2221 0.7157495,-0.29403 0.5893271,-0.1486 1.2057734,-0.073 1.7996379,-0.005 0.692097,0.10642 1.3805894,0.23495 2.0574946,0.41627 1.922048,0.53684 2.681259,-2.18134 0.759211,-2.71819 z"
       id="path3437"
       style="fill:#ffffff;fill-opacity:1;fill-rule:nonzero;stroke:none;stroke-width:0.264583" />
    <path
       d="m 15.684403,272.52421 c 0.250131,1.43538 0.382621,2.8887 0.528256,4.33756 0.27393,2.52231 0.280719,5.05828 0.192845,7.59025 -0.02853,0.68872 -0.06008,1.37746 -0.112461,2.06483 -0.150551,1.98992 2.663629,2.20283 2.814179,0.21291 v 0 c 0.05457,-0.72589 0.08959,-1.45306 0.118824,-2.18038 0.09136,-2.66041 0.08138,-5.31962 -0.205332,-7.97003 -0.103015,-1.02365 -0.139235,-1.42764 -0.256441,-2.42883 -0.08656,-0.73945 -0.163352,-1.49388 -0.329436,-2.22148 -0.03121,-0.13671 -0.07441,-0.2704 -0.111609,-0.4056 -0.707652,-1.86593 -3.346477,-0.86516 -2.638825,1.00077 z"
       id="path3439"
       style="fill:#ffffff;fill-opacity:1;fill-rule:nonzero;stroke:none;stroke-width:0.264583" />
    <path
       d="m 14.537582,289.69895 c 1.029672,-0.2785 2.078803,-0.45976 3.133833,-0.60837 1.221045,-0.15407 2.451765,-0.20464 3.676207,-0.32218 0.750405,-0.072 0.790214,-0.0864 1.485635,-0.19012 1.973314,-0.29749 1.552599,-3.08818 -0.420715,-2.79069 v 0 c -1.703242,0.26001 -3.428598,0.29612 -5.137631,0.50876 -1.167023,0.16668 -2.328066,0.36778 -3.467193,0.67638 -1.927724,0.51609 -1.19786,3.24231 0.729864,2.72622 z"
       id="path3441"
       style="fill:#ffffff;fill-opacity:1;fill-rule:nonzero;stroke:none;stroke-width:0.264583" />
    <path
       d="m 13.460817,273.51418 c 1.541,-0.13764 3.082033,-0.27439 4.624255,-0.39769 0.721021,-0.066 1.443296,-0.0956 2.166879,-0.0926 1.99561,0.003 1.999609,-2.81939 0.004,-2.82222 v 0 c -0.799948,5.3e-4 -1.598749,0.027 -2.395855,0.10155 -1.554435,0.12434 -3.107692,0.26203 -4.660894,0.40086 -1.987019,0.18498 -1.725404,2.99506 0.261616,2.81007 z"
       id="path3443"
       style="fill:#ffffff;fill-opacity:1;fill-rule:nonzero;stroke:none;stroke-width:0.264583" />
    <path
       d="m 25.142557,272.21062 c -0.01087,0.16473 -0.02869,0.32916 -0.0326,0.4942 -0.01892,0.7982 0.0597,1.60244 0.120254,2.39693 0.267731,3.51286 -0.100738,-1.44548 0.181882,2.38089 0.215205,2.62609 0.194392,5.24757 0.08167,7.87698 -0.03751,0.94852 -0.129327,1.89507 -0.134361,2.84492 -0.0021,0.39115 0.0095,0.83387 0.07504,1.22349 0.02818,0.16738 0.07829,0.33031 0.117439,0.49546 0.07425,0.16477 0.119664,0.34586 0.222744,0.4943 0.396058,0.57035 0.697607,0.74802 1.428299,0.86276 0.481697,0.0756 1.351436,-0.24394 1.824283,-0.38244 1.531096,-0.44941 3.129066,-0.54954 4.704567,-0.74378 0.283686,-0.0562 0.56737,-0.11247 0.851056,-0.16871 1.955591,-0.39765 1.39323,-3.16327 -0.562361,-2.76562 v 0 c -0.211556,0.0445 -0.423111,0.0889 -0.634667,0.1334 -1.726893,0.21373 -3.476432,0.33332 -5.15231,0.8364 -0.179861,0.0527 -0.359945,0.10475 -0.539589,0.15823 -0.09531,0.0284 -0.202919,0.0316 -0.285274,0.0873 -0.02917,0.0197 0.06671,0.0234 0.0981,0.0394 0.328663,0.16746 0.723881,0.2921 0.771565,0.71964 -0.114544,-0.27142 -0.09877,-0.63038 -0.09776,-0.9117 0.0034,-0.93577 0.09873,-1.86817 0.132876,-2.80271 0.04565,-1.07429 0.07205,-1.51575 0.08617,-2.60585 0.02421,-1.86797 -0.03744,-3.73629 -0.172944,-5.59941 -0.113237,-1.53241 -0.268534,-3.06435 -0.300086,-4.6012 0.327303,-1.96859 -2.456702,-2.43147 -2.784004,-0.46288 z"
       id="path3445"
       style="fill:#ffffff;fill-opacity:1;fill-rule:nonzero;stroke:none;stroke-width:0.264583" />
    <path
       d="m 26.402043,280.97965 c 1.208254,0.16335 2.431761,-0.0169 3.633703,-0.15578 0.559115,-0.0803 1.121132,-0.11679 1.685163,-0.12467 1.995249,-0.0381 1.94134,-2.85982 -0.05391,-2.8217 v 0 c -0.654251,0.0149 -1.307052,0.0494 -1.955798,0.14287 -0.903525,0.10479 -1.810993,0.22916 -2.722752,0.19865 -1.952058,-0.41465 -2.538466,2.34598 -0.586407,2.76063 z"
       id="path3447"
       style="fill:#ffffff;fill-opacity:1;fill-rule:nonzero;stroke:none;stroke-width:0.264583" />
    <path
       d="m 26.983751,273.68175 c 1.274511,-0.38328 2.601026,-0.54956 3.918582,-0.70532 1.193334,-0.0902 0.618675,-0.0667 1.723591,-0.0795 1.995389,-0.0299 1.953101,-2.85181 -0.04229,-2.82191 v 0 c -1.318233,0.0234 -0.646586,-0.008 -2.014704,0.0989 -1.529511,0.18301 -3.070585,0.38223 -4.543156,0.85312 -1.877129,0.67739 -0.919156,3.33205 0.957973,2.65466 z"
       id="path3449"
       style="fill:#ffffff;fill-opacity:1;fill-rule:nonzero;stroke:none;stroke-width:0.264583" />
    <path
       d="m 38.998636,288.81649 c 0.338635,-1.27647 0.323313,-2.61601 0.314759,-3.92652 -0.09292,-2.41909 -0.367041,-4.82771 -0.680699,-7.22679 -0.254339,-1.96682 -0.75665,-3.88343 -1.341996,-5.77366 -0.02601,-0.0978 -0.05512,-0.19473 -0.07805,-0.29325 -0.0081,-0.0346 0.05906,0.0767 0.03335,0.10123 -0.543264,0.51827 -1.03822,1.11945 -1.694752,1.48375 -0.172378,0.0957 -0.34399,-0.27686 -0.538464,-0.24458 -0.117453,0.0195 0.12926,0.20005 0.190056,0.30242 0.105497,0.17763 0.205819,0.35828 0.308729,0.53743 0.686088,1.28969 1.154597,2.67725 1.65281,4.04576 0.606366,1.66559 0.405405,1.1202 1.051332,2.80027 0.728345,1.82103 1.520873,3.61536 2.244167,5.43846 0.345958,0.872 0.48246,1.24597 0.803698,2.10054 0.234069,0.62914 0.460642,1.261 0.686194,1.89322 0.03221,0.0903 0.06225,0.18138 0.09679,0.27081 0.02463,0.0637 0.01492,0.20731 0.08062,0.18848 0.904078,-0.25908 1.766099,-0.64716 2.649148,-0.97074 -0.375274,-2.01203 -0.496705,-4.06025 -0.626578,-6.09935 -0.20918,-3.37814 -0.18111,-6.76248 -0.203523,-10.14483 -0.01341,-0.29734 -0.02684,-0.59468 -0.04026,-0.89201 -0.09246,-1.99347 -2.911652,-1.86272 -2.819193,0.13075 v 0 c 0.01243,0.26002 0.02487,0.52004 0.03729,0.78006 0.02302,3.43605 -0.0046,6.87412 0.209192,10.30583 0.136663,2.13599 0.267783,4.28077 0.660078,6.3885 0.899654,-0.22503 1.796147,-0.46311 2.698964,-0.67511 0.0131,-0.003 0.01646,0.0512 0.01183,0.0386 -0.268864,-0.73485 -0.520399,-1.47607 -0.798902,-2.20744 -0.33297,-0.88535 -0.469921,-1.26071 -0.828865,-2.16507 -0.717648,-1.80811 -1.502114,-3.58844 -2.226543,-5.39377 -0.63759,-1.65717 -0.427167,-1.08795 -1.031756,-2.74782 -0.555675,-1.52559 -1.085204,-3.06973 -1.864701,-4.50023 -0.210021,-0.35989 -1.116767,-2.053 -1.663073,-1.9039 -2.039736,0.55672 -2.021314,1.09144 -1.695432,2.26712 0.538314,1.73712 1.006425,3.49678 1.239483,5.30487 0.29949,2.28482 0.560565,4.57854 0.656908,6.88208 0.009,1.00865 0.02487,2.03306 -0.174763,3.02681 -0.620905,1.89656 2.061237,2.77466 2.682142,0.8781 z"
       id="path3451"
       style="fill:#ffffff;fill-opacity:1;fill-rule:nonzero;stroke:none;stroke-width:0.264583" />
    <path
       d="m 52.851716,271.01453 c -0.12419,-0.0725 -0.239278,-0.16354 -0.372573,-0.21751 -0.698431,-0.28278 -1.348621,-0.19121 -1.983854,0.21346 -0.498424,0.31751 -0.737907,0.69205 -1.102672,1.14326 -1.080119,1.62269 -1.885479,3.42899 -2.435466,5.29814 -0.13245,0.45014 -0.233468,0.90893 -0.350202,1.36339 -0.07831,0.4582 -0.17785,0.91328 -0.234916,1.37461 -0.204673,1.65455 -0.166126,3.48752 0.798613,4.9258 0.233543,0.34819 0.554869,0.62866 0.832303,0.94299 0.348998,0.23102 0.676045,0.49924 1.046996,0.69306 1.460539,0.76312 3.197584,0.83939 4.808643,0.90531 1.993993,0.0804 2.107687,-2.73954 0.113694,-2.81993 v 0 c -1.153049,-0.0457 -2.364658,-0.0628 -3.452876,-0.49487 -0.166608,-0.0661 -0.321104,-0.15947 -0.481655,-0.23921 -0.125527,-0.10494 -0.270325,-0.19041 -0.376579,-0.31483 -0.290097,-0.33969 -0.429318,-0.7383 -0.50347,-1.17562 -0.175313,-1.03392 7.93e-4,-2.08511 0.184493,-3.10207 0.09803,-0.39046 0.182182,-0.78466 0.294082,-1.17138 0.452668,-1.56434 1.114462,-3.07695 1.98474,-4.45357 0.07791,-0.10882 0.159261,-0.21526 0.233731,-0.32646 0.02257,-0.0337 0.08773,-0.0812 0.0569,-0.10754 -0.04362,-0.0373 -0.114618,0.0128 -0.171887,0.009 -0.245462,-0.0152 -0.448143,-0.0607 -0.632814,-0.22802 1.568553,1.23373 3.313321,-0.98454 1.744768,-2.21827 z"
       id="path3453"
       style="fill:#ffffff;fill-opacity:1;fill-rule:nonzero;stroke:none;stroke-width:0.264583" />
    <path
       d="m 55.725118,272.82055 c 0.244435,1.78898 0.158615,3.60783 0.122708,5.40762 -0.04755,1.91884 -0.09979,3.83755 -0.148847,5.75635 -0.0033,0.55207 -0.01998,1.24588 0.472708,1.64721 0.335671,0.27343 0.778533,0.40269 1.202298,0.49138 0.207968,0.0435 1.088385,-0.18089 1.310714,-0.23234 1.312585,-0.35626 2.667143,-0.43578 4.016002,-0.53198 0.203888,-0.0276 0.407776,-0.0551 0.611664,-0.0827 1.97618,-0.2778 1.583306,-3.07255 -0.392875,-2.79474 v 0 c -0.139885,0.0208 -0.27977,0.0415 -0.419655,0.0623 -0.450353,0.0322 -0.901399,0.055 -1.351291,0.0931 -1.046932,0.0885 -2.085531,0.25594 -3.106282,0.50584 -1.044914,0.24738 -0.305896,0.0318 0.254235,0.63164 0.313071,0.33527 0.216982,1.02978 0.223785,0.28237 0.04919,-1.92416 0.101605,-3.84823 0.149211,-5.77243 0.0191,-0.96587 0.04215,-1.81544 0.03678,-2.78053 -0.0054,-0.97644 -0.0271,-1.9585 -0.163182,-2.92715 -0.02169,-0.15446 -0.05667,-0.30676 -0.08501,-0.46014 -0.497911,-1.9325 -3.230877,-1.22835 -2.732965,0.70415 z"
       id="path3455"
       style="fill:#ffffff;fill-opacity:1;fill-rule:nonzero;stroke:none;stroke-width:0.264583" />
    <path
       d="m 58.361733,279.95322 c 1.145736,-0.33277 2.324065,-0.53805 3.501059,-0.72339 0.212836,-0.0227 0.425675,-0.0455 0.638511,-0.0682 1.983782,-0.21697 1.676945,-3.02246 -0.306837,-2.80549 v 0 c -0.25754,0.0287 -0.515081,0.0574 -0.772621,0.0861 -1.363239,0.21651 -2.732299,0.45213 -4.051038,0.86841 -1.868556,0.70069 -0.877631,3.34323 0.990926,2.64254 z"
       id="path3457"
       style="fill:#ffffff;fill-opacity:1;fill-rule:nonzero;stroke:none;stroke-width:0.264583" />
    <path
       d="m 57.59129,273.94504 c -0.0154,0.0229 -0.07381,0.0689 -0.0462,0.0687 0.06101,-2.6e-4 0.113075,-0.0459 0.169367,-0.0694 0.164241,-0.0686 0.326017,-0.1434 0.492226,-0.20716 0.258453,-0.0991 0.518739,-0.19374 0.781328,-0.28132 0.954455,-0.31835 1.125101,-0.34686 2.118339,-0.61157 1.335087,-0.27631 0.694025,-0.17136 1.920795,-0.32909 1.978187,-0.26314 1.606058,-3.06072 -0.372131,-2.79758 v 0 c -1.483529,0.20268 -0.723445,0.0725 -2.278552,0.40046 -1.111914,0.29893 -2.21602,0.60192 -3.287837,1.0278 -0.400267,0.15904 -0.8924,0.37621 -1.255244,0.62397 -0.128844,0.088 -0.236918,0.20307 -0.355378,0.30459 -1.322676,1.49433 0.790618,3.36487 2.113291,1.87055 z"
       id="path3459"
       style="fill:#ffffff;fill-opacity:1;fill-rule:nonzero;stroke:none;stroke-width:0.264583" />
  </g>
</svg>
