<?xml version="1.0" encoding="UTF-8" standalone="no"?>
<!-- Created with Inkscape (http://www.inkscape.org/) -->

<svg
   xmlns:dc="http://purl.org/dc/elements/1.1/"
   xmlns:cc="http://creativecommons.org/ns#"
   xmlns:rdf="http://www.w3.org/1999/02/22-rdf-syntax-ns#"
   xmlns:svg="http://www.w3.org/2000/svg"
   xmlns="http://www.w3.org/2000/svg"
   xmlns:sodipodi="http://sodipodi.sourceforge.net/DTD/sodipodi-0.dtd"
   xmlns:inkscape="http://www.inkscape.org/namespaces/inkscape"
   width="64mm"
   height="64mm"
   viewBox="0 0 64 64"
   version="1.1"
   id="svg8"
   sodipodi:docname="sony.svg"
   inkscape:version="0.92.5 (2060ec1f9f, 2020-04-08)">
  <defs
     id="defs2" />
  <sodipodi:namedview
     id="base"
     pagecolor="#ffffff"
     bordercolor="#666666"
     borderopacity="1.0"
     inkscape:pageopacity="0.0"
     inkscape:pageshadow="2"
     inkscape:zoom="3"
     inkscape:cx="13.493015"
     inkscape:cy="110.27027"
     inkscape:document-units="mm"
     inkscape:current-layer="layer1"
     showgrid="false"
     inkscape:snap-page="true"
     inkscape:window-width="1920"
     inkscape:window-height="1016"
     inkscape:window-x="0"
     inkscape:window-y="27"
     inkscape:window-maximized="1" />
  <metadata
     id="metadata5">
    <rdf:RDF>
      <cc:Work
         rdf:about="">
        <dc:format>image/svg+xml</dc:format>
        <dc:type
           rdf:resource="http://purl.org/dc/dcmitype/StillImage" />
        <dc:title />
      </cc:Work>
    </rdf:RDF>
  </metadata>
  <g
     inkscape:label="Layer 1"
     inkscape:groupmode="layer"
     id="layer1"
     transform="translate(0,-233)">
    <rect
       style="fill:#3f51b5;stroke-width:0.26458332;fill-opacity:1"
       id="rect3713"
       width="64"
       height="64"
       x="0"
       y="233" />
    <path
       style="fill:#ffffff;fill-opacity:1;fill-rule:nonzero;stroke:none;stroke-width:0.26458332"
       id="path5318"
       d="M 4.8951512,289.25049 C 4.780108,289.13738 4.6796404,289.011 4.5863414,288.87974 4.501104,288.75683 4.4316901,288.6241 4.3673492,288.48967 c -0.073376,-0.14525 -0.1303065,-0.29745 -0.1799063,-0.45216 -0.049701,-0.15775 -0.080352,-0.32032 -0.106444,-0.48335 -0.016933,-0.10931 -0.041136,-0.22591 -0.060422,-0.34402 -0.016925,-0.13477 -0.041803,-0.26818 -0.064468,-0.40207 -0.02417,-0.1422 -0.054305,-0.2833 -0.079041,-0.42547 -0.032282,-0.13212 -0.048879,-0.26773 -0.080244,-0.39995 -0.041545,-0.17687 -0.074631,-0.35547 -0.1037447,-0.53475 -0.03335,-0.14998 -0.060724,-0.30118 -0.085826,-0.45272 -0.030816,-0.19011 -0.051979,-0.38156 -0.070553,-0.57319 -0.018272,-0.19392 -0.029677,-0.38838 -0.040092,-0.58285 -0.01035,-0.19536 -0.016957,-0.3909 -0.02296,-0.58644 -0.00605,-0.19889 -0.00998,-0.39783 -0.013557,-0.59678 -0.00343,-0.19495 -0.0059,-0.3899 -0.0081,-0.58487 -0.00209,-0.18792 -0.00357,-0.37585 -0.00489,-0.56378 0.00299,-0.14676 -0.00328,-0.29278 -0.01306,-0.43909 -0.011896,-0.16808 -0.02214,-0.33626 -0.031319,-0.5045 -0.008,-0.13198 -0.00903,-0.26423 -0.022558,-0.39571 -0.017052,-0.15785 -0.031061,-0.316 -0.0438,-0.47425 -0.013232,-0.1668 -0.022117,-0.3339 -0.02992,-0.50103 -0.00769,-0.16971 -0.012838,-0.33952 -0.017404,-0.50933 -0.00439,-0.16884 -0.00743,-0.33771 -0.010263,-0.50658 7.937e-4,-0.19146 0.014248,-0.38254 0.024564,-0.57365 0.00823,-0.1605 0.013856,-0.32104 0.025432,-0.48134 0.013155,-0.13995 0.03059,-0.27944 0.044044,-0.41936 0.010192,-0.10598 0.018238,-0.21215 0.025313,-0.31837 0.00669,-0.0983 0.011427,-0.19681 0.015698,-0.29529 0.00388,-0.12959 0.00879,-0.25891 0.017693,-0.38825 0.011962,-0.11766 0.02673,-0.235 0.037369,-0.35279 0.00934,-0.1459 0.031665,-0.29039 0.05246,-0.43496 0.01519,-0.1399 0.043263,-0.27782 0.066936,-0.41641 0.02023,-0.13807 0.045497,-0.27517 0.072507,-0.41206 0.020182,-0.0966 0.034805,-0.19423 0.048715,-0.2919 0.020717,-0.13066 0.051701,-0.25931 0.074408,-0.3896 0.018444,-0.12695 0.043296,-0.25263 0.070915,-0.37788 0.022667,-0.11401 0.049249,-0.22707 0.076424,-0.34008 0.030008,-0.13859 0.06815,-0.27512 0.1087858,-0.4109 0.04195,-0.13863 0.089476,-0.27553 0.1374577,-0.41217 0.055092,-0.15548 0.1224806,-0.30613 0.1867794,-0.45792 0.067722,-0.15956 0.1441868,-0.31497 0.2213877,-0.47007 0.068115,-0.13865 0.1409973,-0.27486 0.2146959,-0.4106 0.068357,-0.12324 0.1360932,-0.24686 0.2064872,-0.36895 0.057593,-0.0981 0.1119372,-0.19774 0.1711028,-0.2949 0.057017,-0.0948 0.1125797,-0.1906 0.1748761,-0.28253 0.027184,-0.05 0.078894,-0.12 0.1189599,-0.17836 0.079803,-0.1113 0.1669793,-0.21666 0.2571525,-0.31956 0.055049,-0.0604 0.1281311,-0.13818 0.2215885,-0.23046 0.1079765,-0.10772 0.2261664,-0.20452 0.3457742,-0.29888 0.099561,-0.081 0.2049999,-0.15517 0.3107949,-0.22796 0.1159097,-0.0765 0.2325222,-0.15153 0.3522824,-0.22194 0.052112,-0.0407 0.1919266,-0.11821 0.271018,-0.1615 0.059299,-0.0292 0.054956,-0.0304 0.1812673,-0.10076 -0.1155686,0.051 0.3099301,-0.15718 0.1933142,-0.0951 -0.163706,0.0871 -0.042016,0.0182 -0.00756,-8e-4 0.091379,-0.0507 0.1874771,-0.0913 0.283778,-0.13135 0.018137,-0.008 -0.035294,0.0182 -0.054468,0.0225 -0.015235,0.003 0.028279,-0.0132 0.042419,-0.0198 0.1175493,-0.0519 0.1692066,-0.0736 0.2710629,-0.11582 0.06783,-0.0329 0.1838537,-0.0798 0.2728534,-0.11634 0.10862,-0.043 0.2179215,-0.085 0.3270782,-0.12609 0.1334051,-0.0552 0.2707574,-0.0998 0.4066924,-0.14816 0.1313156,-0.0481 0.2659761,-0.086 0.3990782,-0.1286 0.1460904,-0.0483 0.2946185,-0.0884 0.4440814,-0.12471 0.1024558,-0.0243 0.2038848,-0.0539 0.3063838,-0.0799 0.110569,-0.028 0.256506,-0.0549 0.324426,-0.0717 0.108115,-0.0271 0.2339,-0.0513 0.315004,-0.0722 0.122023,-0.0314 0.245733,-0.0551 0.368108,-0.0847 0.157231,-0.0389 0.316284,-0.0691 0.475972,-0.0959 0.122881,-0.0287 0.247072,-0.0521 0.371326,-0.0742 0.157042,-0.0271 0.315144,-0.047 0.473468,-0.0648 0.143599,-0.0156 0.2876,-0.027 0.431678,-0.0371 0.137869,-0.009 0.275903,-0.0157 0.413952,-0.0215 0.133686,-0.005 0.267433,-0.009 0.401187,-0.0125 0.08888,-0.002 0.189631,-0.0158 0.294237,-0.0254 0.152278,-0.0139 0.304833,-0.0242 0.457483,-0.033 0.145822,-0.008 0.291774,-0.0142 0.437737,-0.0195 0.140663,-0.005 0.281369,-0.008 0.42208,-0.0115 0.132256,-0.003 0.264527,-0.005 0.396801,-0.007 0.126682,-0.002 0.253371,-0.003 0.38006,-0.004 0.126181,-0.001 0.252364,-0.002 0.378548,-0.002 0.133424,-5.3e-4 0.266849,-0.001 0.400274,-0.002 0.143133,-5.3e-4 0.286267,-7.9e-4 0.4294,-7.9e-4 0.125251,-2.7e-4 0.25031,-0.0129 0.375309,-0.0212 0.1714,-0.0113 0.342983,-0.0195 0.514583,-0.0271 0.158445,-0.007 0.316955,-0.0118 0.475476,-0.0164 0.105972,-0.0122 0.212391,-0.0223 0.318644,-0.0325 0.129024,-0.0126 0.258291,-0.0223 0.387578,-0.0317 0.113245,-0.008 0.226612,-0.0143 0.340007,-0.0198 0.104601,-0.005 0.209257,-0.009 0.313923,-0.0118 0.100219,-0.003 0.200459,-0.005 0.300705,-0.007 0.09948,-0.002 0.198967,-0.003 0.298455,-0.004 0.153308,-0.006 0.306088,0.008 0.458365,0.0238 0.08323,0.009 0.166667,0.0153 0.250148,0.0211 0.08443,0.006 0.168961,0.0101 0.25351,0.0139 0.08534,0.004 0.170731,0.006 0.256124,0.009 0.0916,0.002 0.183221,0.004 0.274843,0.005 0.128177,5.3e-4 0.256073,0.003 0.38408,0.01 0.119772,0.0111 0.239338,0.024 0.359202,0.0341 0.107282,0.009 0.214817,0.0142 0.322334,0.0193 0.157561,0.0112 0.3141,0.0325 0.471301,0.0476 0.161716,0.0105 0.321943,0.0347 0.482441,0.0561 0.158497,0.017 0.316278,0.0388 0.473949,0.0622 0.167586,0.0208 0.333627,0.0516 0.500305,0.0783 0.173504,0.0255 0.345837,0.0581 0.519214,0.0845 0.204503,0.0363 0.409358,0.0701 0.61329,0.1095 0.191588,0.0326 0.381752,0.0726 0.573128,0.10637 0.219625,0.0411 0.437861,0.089 0.656532,0.13475 0.216082,0.0472 0.430223,0.10258 0.64548,0.15328 0.211465,0.0509 0.420777,0.1102 0.631618,0.16348 0.22166,0.058 0.441463,0.12287 0.661223,0.18766 0.203933,0.0585 0.407686,0.11756 0.611243,0.17733 0.204465,0.0583 0.40875,0.11718 0.612831,0.1768 0.191074,0.0532 0.381958,0.10747 0.574058,0.15688 0.20242,0.0517 0.40554,0.10073 0.608039,0.15214 0.19162,0.0477 0.38299,0.0964 0.574641,0.144 0.175731,0.0421 0.350089,0.0893 0.526608,0.12811 0.193548,0.0473 0.387887,0.091 0.581343,0.13864 0.172455,0.0394 0.344852,0.0789 0.51735,0.11815 0.170164,0.0371 0.338852,0.0804 0.509484,0.11545 0.16972,0.0331 0.338127,0.0722 0.508125,0.10395 0.172413,0.0304 0.343455,0.0678 0.515921,0.0979 0.1733,0.0274 0.344525,0.0659 0.517205,0.0968 0.161761,0.0268 0.321175,0.0656 0.482103,0.0967 0.149817,0.0279 0.29773,0.0649 0.446587,0.0973 0.162388,0.039 0.323276,0.0838 0.482836,0.13299 0.154966,0.0475 0.306935,0.10448 0.4573,0.16485 0.132199,0.052 0.263025,0.10758 0.392782,0.1654 0.11815,0.0504 0.234286,0.10541 0.351663,0.1576 0.12781,0.0609 0.25441,0.12436 0.383133,0.18328 0.153392,0.0708 0.303723,0.1478 0.452442,0.22789 0.144021,0.0748 0.284761,0.15584 0.423577,0.23988 0.148754,0.0872 0.292103,0.18307 0.433017,0.28228 0.129823,0.0904 0.2545,0.18764 0.378696,0.28548 0.133551,0.10869 0.264916,0.21986 0.39311,0.33481 0.117821,0.10837 0.234899,0.21752 0.350983,0.32774 0.113898,0.1065 0.224872,0.21618 0.338785,0.32265 0.127916,0.1226 0.258342,0.24256 0.385123,0.36634 0.123134,0.11506 0.242448,0.23404 0.364027,0.35073 0.143308,0.13648 0.281561,0.2781 0.418295,0.42114 0.130437,0.13542 0.258776,0.2728 0.385167,0.41199 0.134732,0.15109 0.265645,0.30557 0.391563,0.46408 0.110781,0.13982 0.213079,0.28598 0.318658,0.42969 0.109194,0.149 0.205447,0.30675 0.306586,0.46111 0.09537,0.14625 0.183169,0.29709 0.271193,0.4478 0.08681,0.15398 0.168558,0.31073 0.249825,0.46768 0.07848,0.15547 0.149987,0.31421 0.223861,0.47186 0.08343,0.18453 0.159647,0.37218 0.228476,0.56262 0.068,0.17757 0.126899,0.35836 0.180425,0.54075 0.04785,0.17797 0.08937,0.35761 0.131622,0.53699 0.04561,0.19435 0.07921,0.39117 0.10999,0.58831 0.02957,0.21523 0.03587,0.43262 0.04246,0.64949 0.01008,0.20185 5.29e-4,0.40369 -0.0093,0.60532 -0.0058,0.19206 -0.02045,0.38345 -0.03869,0.57468 -0.01418,0.18834 -0.04127,0.37525 -0.06533,0.56249 -0.03173,0.19553 -0.06126,0.39146 -0.09494,0.58666 -0.03094,0.18666 -0.0737,0.37099 -0.110701,0.55648 -0.04512,0.21135 -0.09494,0.42154 -0.152406,0.62988 -0.05289,0.1963 -0.113083,0.39038 -0.176022,0.58365 -0.06783,0.19503 -0.134289,0.39051 -0.20602,0.58416 -0.06765,0.1794 -0.136909,0.35819 -0.205052,0.53741 -0.07619,0.18452 -0.150733,0.36971 -0.228989,0.55336 -0.06736,0.15941 -0.135136,0.3186 -0.202592,0.47796 -0.06782,0.15735 -0.133368,0.31566 -0.202274,0.47254 -0.06489,0.15015 -0.135398,0.29777 -0.202914,0.44674 -0.08031,0.16959 -0.167008,0.33594 -0.255823,0.50118 -0.08479,0.1543 -0.174305,0.30597 -0.26444,0.4572 -0.09795,0.16574 -0.20464,0.3259 -0.315148,0.48348 -0.09591,0.14042 -0.196374,0.27757 -0.29917,0.41301 -0.103862,0.13589 -0.212227,0.26821 -0.321852,0.39946 -0.106566,0.12713 -0.217996,0.25019 -0.331483,0.37116 -0.09191,0.0976 -0.18537,0.19385 -0.280877,0.28796 -0.119271,0.11225 -0.245943,0.21637 -0.375092,0.31697 -0.121742,0.0899 -0.24829,0.17268 -0.377854,0.25079 -0.124272,0.0746 -0.278889,0.14073 -0.366233,0.18147 -0.159359,0.0747 -0.326356,0.13005 -0.495337,0.17818 -0.124868,0.0324 -0.248492,0.0686 -0.373981,0.0988 -0.165034,0.0384 -0.332309,0.0653 -0.500145,0.0878 -0.166827,0.0215 -0.334523,0.035 -0.502269,0.0468 -0.160059,0.0107 -0.320291,0.0185 -0.480557,0.0253 -0.161975,0.007 -0.32403,0.011 -0.48609,0.0149 -0.19704,0.008 -0.393933,0.004 -0.590791,-0.006 -0.152606,-0.009 -0.305281,-0.0163 -0.458015,-0.0226 -0.179128,-0.0109 -0.357343,-0.0323 -0.536048,-0.0483 -0.174437,-0.0106 -0.347522,-0.0346 -0.520764,-0.0566 -0.16198,-0.0185 -0.324101,-0.0343 -0.485663,-0.0565 -0.17217,-0.0233 -0.344618,-0.0435 -0.516356,-0.0699 -0.177186,-0.0248 -0.353616,-0.0538 -0.529947,-0.084 -0.216988,-0.0396 -0.431125,-0.0931 -0.644216,-0.14972 -0.21691,-0.0557 -0.428439,-0.12944 -0.637823,-0.2083 -0.218241,-0.0786 -0.427516,-0.17913 -0.633058,-0.28599 -0.184438,-0.096 -0.361304,-0.20502 -0.537112,-0.31575 -0.186348,-0.11984 -0.361944,-0.25526 -0.53504,-0.39326 -0.15979,-0.1263 -0.311939,-0.26185 -0.460193,-0.4014 -0.132281,-0.1314 -0.264059,-0.26325 -0.39317,-0.39777 -0.127733,-0.13532 -0.249518,-0.27609 -0.370364,-0.41755 -0.117917,-0.1379 -0.231362,-0.2797 -0.342516,-0.42309 -0.10427,-0.12852 -0.204216,-0.26042 -0.301715,-0.39412 -0.0831,-0.11662 -0.171734,-0.22908 -0.256831,-0.3442 -0.0853,-0.11118 -0.168699,-0.22393 -0.249952,-0.33811 -0.0591,-0.0795 -0.120592,-0.15694 -0.180952,-0.23546 -0.04203,-0.0501 -0.08336,-0.10054 -0.127015,-0.14929 -0.09956,-0.1077 -0.01908,-0.0238 -0.130903,-0.13237 -0.109548,-0.0877 0.152966,0.12299 -0.08578,-0.0666 -0.129915,-0.0898 0.188823,0.12884 -0.103277,-0.0696 -0.05311,-0.0359 -0.05065,-0.0294 -0.166172,-0.10856 0.04972,0.0371 -0.135257,-0.0841 -0.151468,-0.0948 0.09761,0.0656 -0.112506,-0.0739 -0.137901,-0.0894 -0.09212,-0.0577 -0.181705,-0.11931 -0.269367,-0.18356 -0.01135,-0.008 -0.02339,-0.016 -0.03403,-0.0253 -0.01019,-0.009 0.04376,0.0319 0.03268,0.0241 -0.01794,-0.0126 -0.19681,-0.15094 -0.125497,-0.0909 -0.04389,-0.0375 -0.07871,-0.0589 -0.120142,-0.0887 -0.10151,-0.0729 0.225158,0.15383 -0.06931,-0.047 -0.116952,-0.065 0.120202,0.0629 -0.106469,-0.0645 -0.0047,-10e-4 -0.07128,-0.0345 -0.145963,-0.0752 0.01506,0.009 -0.01397,-0.006 -0.01077,-0.004 0.06155,0.0405 -0.111842,-0.0482 -0.12542,-0.0545 -0.04492,-0.0164 -0.121518,-0.0463 -0.187267,-0.0738 -0.05022,-0.0196 -0.09679,-0.0325 -0.149834,-0.0498 -0.05778,-0.0191 -0.114752,-0.0422 -0.174389,-0.0552 -0.09944,-0.0202 -0.195727,-0.0527 -0.293571,-0.079 -0.04521,-0.0126 -0.09123,-0.0223 -0.137531,-0.0299 -0.108403,-0.018 -0.212512,-0.0543 -0.319989,-0.0762 -0.05434,-0.0118 -0.109477,-0.0194 -0.164469,-0.0275 -0.05665,-0.008 -0.113601,-0.0133 -0.170563,-0.0183 -0.0678,-0.006 -0.135727,-0.01 -0.203663,-0.0132 -0.07608,-0.004 -0.152216,-0.007 -0.228354,-0.009 -0.08305,-0.003 -0.166126,-0.004 -0.249202,-0.006 -0.08885,-0.002 -0.177699,-0.003 -0.266553,-0.004 -0.08868,-0.001 -0.177358,-0.002 -0.266039,-0.002 -0.09342,-5.3e-4 -0.186843,-0.001 -0.280265,-0.001 -0.09485,-2.6e-4 -0.1897,-5.2e-4 -0.28455,-7.9e-4 -0.09679,-2.2e-4 -0.193574,-2.6e-4 -0.290361,-5.3e-4 -0.09746,-1.3e-4 -0.19493,-2.2e-4 -0.292396,-2.6e-4 -0.09402,-8e-5 -0.188038,-1.4e-4 -0.282056,-1.9e-4 -0.08838,-5e-5 -0.176756,-9e-5 -0.265134,-1.1e-4 -0.08319,-3e-5 -0.16638,-5e-5 -0.24957,-8e-5 -0.08062,-10e-6 -0.161234,-2e-5 -0.241851,-4e-5 -0.07848,-10e-6 -0.156965,-2e-5 -0.235447,-2e-5 -0.07769,-1e-5 -0.155391,-2e-5 -0.233085,-2e-5 -0.08145,0 -0.162898,-1e-5 -0.244346,-1e-5 -0.08409,0 -0.16818,0 -0.252269,0 -0.08413,0 -0.168269,-10e-6 -0.252404,-10e-6 -0.08073,0 -0.161453,0 -0.24218,0 -0.0757,0 -0.151408,0 -0.227113,0 -0.225389,0.01 0.1347,-0.0195 0.02643,-8e-4 -0.05872,0.01 -0.364572,0.0548 -0.11465,0.0148 0.151436,-0.0466 -0.206212,0.0707 0.0308,-0.009 0.01885,-0.008 0.03845,-0.0149 0.05694,-0.024 0.02422,-0.0161 0.04723,-0.0341 0.07266,-0.0482 0.02849,-0.0158 -0.103999,0.0783 -0.07869,0.0579 0.01512,-0.0122 0.05899,-0.05 0.04673,-0.035 -0.0019,0.002 -0.102688,0.0825 -0.02588,0.0213 -0.007,0.008 -0.141353,0.13969 -0.07421,0.0748 0.0032,-0.007 -0.160085,0.17863 -0.121307,0.13807 -0.08597,0.10926 -0.06511,0.0738 -0.134555,0.17735 -0.05294,0.0773 -0.107603,0.15244 -0.159778,0.23014 -0.05537,0.0827 -0.112995,0.16356 -0.168128,0.24636 -0.07603,0.1052 -0.150815,0.21124 -0.228704,0.31508 -0.0653,0.0882 -0.12949,0.17728 -0.194755,0.26553 -0.07613,0.10417 -0.155709,0.20571 -0.233929,0.30831 -0.09004,0.11883 -0.18392,0.23463 -0.27937,0.34914 -0.08364,0.10881 -0.169411,0.21593 -0.256223,0.32221 -0.09516,0.11732 -0.190355,0.2346 -0.285972,0.35158 -0.107971,0.13084 -0.21494,0.26247 -0.325755,0.39091 -0.101302,0.12519 -0.211452,0.24277 -0.31685,0.36441 -0.122843,0.13983 -0.254984,0.27082 -0.38594,0.40289 -0.119208,0.11811 -0.241487,0.23297 -0.364365,0.34725 -0.13242,0.11789 -0.263339,0.23726 -0.39995,0.3503 -0.111947,0.0961 -0.228785,0.186 -0.344378,0.27756 -0.141447,0.10961 -0.287386,0.21287 -0.437834,0.30969 -0.112718,0.075 -0.228509,0.14553 -0.344415,0.21554 -0.121779,0.0733 -0.246809,0.14049 -0.371581,0.20847 -0.117117,0.0638 -0.236922,0.12252 -0.356362,0.18184 -0.130932,0.0613 -0.262084,0.12205 -0.39529,0.17828 -0.129883,0.0548 -0.260221,0.10783 -0.393111,0.15502 -0.118219,0.0405 -0.235225,0.0841 -0.354317,0.12225 -0.109081,0.0332 -0.226295,0.0744 -0.351089,0.11151 -0.133475,0.0392 -0.270461,0.0671 -0.405969,0.0957 -0.12286,0.033 -0.247298,0.0596 -0.372,0.0846 -0.141511,0.0276 -0.284367,0.0475 -0.427414,0.0652 -0.120963,0.0148 -0.242339,0.0258 -0.363803,0.0355 -0.111166,0.008 -0.222449,0.0149 -0.333777,0.0205 -0.101289,0.005 -0.202642,0.009 -0.304006,0.012 -0.09638,0.003 -0.192793,0.005 -0.289206,0.007 -0.095,0.002 -0.190007,0.003 -0.285016,0.004 -0.09737,10e-4 -0.194737,0.002 -0.292108,0.002 -0.1015826,8e-4 -0.2031672,10e-4 -0.3047516,0.002 -0.1051513,5.3e-4 -0.2103028,8e-4 -0.3154545,8e-4 -0.106511,2.3e-4 -0.2130222,5.2e-4 -0.3195334,5.2e-4 -0.1325361,0.002 -0.2647754,-5e-5 -0.3971866,-0.006 -0.1578198,-0.0118 -0.3147267,-0.0314 -0.4702151,-0.0609 -0.1317512,-0.0244 -0.2615785,-0.057 -0.3902575,-0.0941 -0.1295961,-0.0364 -0.2563411,-0.0825 -0.3825018,-0.12915 -0.1071557,-0.0392 -0.2098506,-0.0893 -0.3131643,-0.13711 -0.1036198,-0.0509 -0.2071645,-0.10026 -0.3103152,-0.15185 -0.084545,-0.0389 -0.1661467,-0.0843 -0.2495283,-0.12601 -0.1172231,-0.0622 -0.2251022,-0.12039 -0.3379322,-0.18904 -0.1143272,-0.0662 -0.221121,-0.14438 -0.325883,-0.22466 -0.1227304,-0.0876 -0.2235639,-0.19878 -0.3272232,-0.30685 -0.1329253,-0.13877 -0.2404245,-0.29697 -0.3373673,-0.46208 -0.078572,-0.13965 -0.1380405,-0.28836 -0.1881222,-0.44023 -0.036963,-0.11334 -0.064571,-0.22938 -0.088474,-0.34607 -0.00265,-0.0135 -0.011139,-0.0537 -0.0079,-0.0404 0.03813,0.15717 0.00455,0.0413 -0.015409,-0.026 -0.020233,-0.11318 -0.1120315,-0.33871 -0.00523,-0.0387 -0.02308,-0.0591 -0.012369,-0.0312 -0.032229,-0.0835 -0.00387,-0.0104 -0.015835,-0.0412 -0.011621,-0.031 0.00681,0.0165 0.026732,0.066 0.018584,0.0502 0.2042007,0.32499 -0.1323147,-0.17518 0.055515,0.0965 0.00704,0.0102 0.015007,0.0197 0.022511,0.0295 -0.1501518,-0.16671 0.02323,0.0169 0.03324,0.0267 0.054092,0.0489 0.080427,0.0608 0.1593022,0.11485 -1.7238903,-1.00532 -0.3021513,-3.44327 1.4217393,-2.43795 v 0 c 0.098476,0.0651 0.1963476,0.12478 0.2833449,0.20437 0.106916,0.10098 0.2019314,0.20098 0.2949628,0.31489 0.00722,0.009 -0.014544,-0.0176 -0.021815,-0.0264 0.1066753,0.13273 0.2001959,0.27335 0.279781,0.42401 0.041728,0.0848 0.081612,0.17059 0.1130835,0.2598 0.039899,0.10438 0.078645,0.23083 0.095961,0.29903 0.029279,0.10106 0.066107,0.2003 0.082421,0.30487 0.00465,0.0242 0.0042,0.0258 0.00731,0.0363 -0.00799,-0.0187 -0.0265,-0.0607 -0.030509,-0.0624 -0.040416,-0.0644 -0.048916,-0.0783 -0.083507,-0.11058 0.01247,0.0132 0.025053,0.0262 0.037408,0.0395 0.1761154,0.18922 -0.1229585,-0.12068 -0.034987,-0.0252 0.1054904,0.0819 -0.067696,-0.0397 0.086036,0.0591 -0.052924,-0.0224 0.094109,0.0492 0.1264005,0.0709 0.1173958,0.0593 0.1342625,0.0729 0.2453476,0.12391 0.054832,0.0275 0.1243459,0.0548 0.2135229,0.10489 0.00712,0.004 -0.015065,-0.006 -0.022598,-0.009 0.097515,0.0441 0.050872,0.0223 0.1178613,0.0544 0.012393,0.006 0.050943,0.0178 0.037198,0.0178 -0.088087,6e-5 -0.038589,-0.0325 0.037535,0.0147 -0.010208,-0.003 -0.040737,-0.0131 -0.030624,-0.01 0.1807718,0.0624 0.050897,0.0207 0.1722419,0.0571 0.1066504,0.031 -0.011189,10e-4 0.1428663,0.0345 0.00632,10e-4 0.025403,0.004 0.018949,0.004 -0.014245,-2.2e-4 -0.056665,-0.006 -0.042521,-0.004 0.044634,0.005 0.0898,0.009 0.1341941,0.0153 -0.1424956,10e-4 0.2070999,-5.3e-4 0.2159584,10e-5 0.1056505,-1.5e-4 0.211301,-2.7e-4 0.3169515,-5.3e-4 0.1035685,-2.4e-4 0.207137,-5.3e-4 0.310705,-8e-4 0.099081,-2.6e-4 0.1981618,-7.9e-4 0.2972411,-10e-4 0.092797,-5.3e-4 0.1855919,-0.001 0.2783849,-0.002 0.0876,-0.001 0.175191,-0.002 0.262776,-0.004 0.08506,-0.002 0.170118,-0.004 0.255154,-0.006 0.08356,-0.003 0.167102,-0.006 0.250596,-0.01 0.08445,-0.004 0.168852,-0.009 0.25319,-0.0153 0.08143,-0.006 0.162803,-0.0137 0.243903,-0.0234 0.07299,-0.009 0.145884,-0.0186 0.218232,-0.0316 0.094,-0.0186 0.187418,-0.0398 0.279992,-0.0646 0.08524,-0.0191 0.170988,-0.0354 0.255819,-0.0562 0.09724,-0.0272 0.191076,-0.0649 0.288239,-0.0923 0.09609,-0.0303 0.189461,-0.068 0.285241,-0.0992 0.08131,-0.0232 0.155252,-0.068 0.235252,-0.0949 0.07642,-0.0295 0.148372,-0.0694 0.224171,-0.10033 0.09044,-0.0449 0.181521,-0.0883 0.269891,-0.13704 0.08573,-0.0461 0.172449,-0.0901 0.254994,-0.14186 0.09897,-0.0596 0.197798,-0.11937 0.293516,-0.1841 0.07405,-0.0406 0.136801,-0.0994 0.206519,-0.14655 0.102695,-0.08 0.204921,-0.16045 0.303863,-0.24523 0.09342,-0.0663 0.167561,-0.15788 0.258588,-0.22733 0.09652,-0.0898 0.193254,-0.17928 0.286733,-0.27223 0.08898,-0.0891 0.17869,-0.17743 0.262888,-0.27119 0.102649,-0.11653 0.20748,-0.23112 0.30565,-0.35154 0.09394,-0.10793 0.182915,-0.22001 0.274477,-0.32995 0.09556,-0.1169 0.191173,-0.23364 0.285765,-0.35133 0.09315,-0.11392 0.183405,-0.2301 0.275167,-0.34514 0.07171,-0.0857 0.141946,-0.17255 0.209286,-0.26173 0.06799,-0.0879 0.136343,-0.17547 0.201624,-0.2655 0.07022,-0.0949 0.13988,-0.1901 0.209534,-0.28532 0.04808,-0.0631 0.111943,-0.15583 0.146604,-0.20026 0.05892,-0.0864 0.118253,-0.17288 0.177462,-0.26004 0.05968,-0.0863 0.120175,-0.17344 0.181649,-0.26154 0.0703,-0.0985 0.139987,-0.19784 0.21847,-0.29006 0.07971,-0.0991 0.16108,-0.1972 0.248775,-0.28941 0.09259,-0.0992 0.187539,-0.19621 0.288118,-0.28742 0.116778,-0.10068 0.236508,-0.19782 0.365939,-0.28212 0.129947,-0.0806 0.264186,-0.15486 0.407064,-0.21033 0.124811,-0.0478 0.252301,-0.0872 0.38225,-0.11851 0.09001,-0.0166 0.17928,-0.0334 0.269888,-0.0453 0.145491,-0.0241 0.292288,-0.0424 0.440158,-0.038 0.07571,0 0.151413,0 0.22712,0 0.08073,10e-6 0.161461,10e-6 0.242192,10e-6 0.08414,0 0.168282,0 0.252423,0 0.0841,0 0.168203,0 0.252305,1e-5 0.08147,0 0.162939,0 0.244409,0 0.07773,10e-6 0.15546,10e-6 0.23319,2e-5 0.07853,10e-6 0.157064,10e-6 0.235595,3e-5 0.0807,1e-5 0.161404,2e-5 0.242106,4e-5 0.0833,2e-5 0.166606,4e-5 0.24991,7e-5 0.08856,3e-5 0.177126,7e-5 0.265689,1.1e-4 0.09433,6e-5 0.188653,1.1e-4 0.28298,1.9e-4 0.09795,9e-5 0.195905,1.8e-4 0.293858,2.7e-4 0.09764,1.3e-4 0.195271,2.6e-4 0.292907,5.3e-4 0.09645,2.2e-4 0.192904,5.3e-4 0.289356,7.9e-4 0.09598,2.6e-4 0.191968,7.9e-4 0.287951,10e-4 0.09263,5.3e-4 0.185264,0.001 0.277893,0.002 0.09529,0.001 0.190581,0.002 0.285864,0.004 0.09653,0.002 0.193057,0.004 0.289557,0.007 0.09624,0.003 0.192475,0.007 0.288641,0.0115 0.101936,0.005 0.203845,0.0116 0.305548,0.0205 0.110047,0.01 0.219989,0.0213 0.329358,0.0372 0.120555,0.0178 0.240993,0.0369 0.359995,0.0634 0.0078,0.002 0.351367,0.0817 0.212019,0.0546 0.133228,0.0244 0.265922,0.0521 0.396314,0.0891 0.160393,0.0452 0.0863,0.0293 0.243207,0.0655 0.122608,0.0325 0.24447,0.0679 0.363691,0.11133 0.118132,0.0376 0.236263,0.0769 0.350552,0.12571 0.06936,0.0302 0.195429,0.0727 0.28393,0.11673 0.08495,0.0405 0.205187,0.0867 0.298587,0.14098 0.06136,0.0344 0.178885,0.0879 0.257035,0.13937 0.03341,0.0206 0.157406,0.0936 0.266711,0.16966 -0.148455,-0.094 0.353806,0.23873 0.152633,0.11015 0.150272,0.10369 0.08861,0.0687 0.208798,0.15017 0.02162,0.0161 0.04768,0.034 0.07415,0.0521 0.139113,0.0858 0.143984,0.0976 0.217014,0.13986 0.06702,0.0444 0.137292,0.0847 0.20483,0.13099 -0.129114,-0.074 0.190468,0.11524 0.192405,0.12702 -0.01445,-0.009 -0.05786,-0.0367 -0.04336,-0.0276 0.105127,0.066 0.206346,0.13772 0.30241,0.21637 -0.0094,-0.007 -0.03758,-0.0279 -0.02828,-0.0208 0.108476,0.0828 0.214437,0.16869 0.31101,0.26542 -0.03653,-0.031 0.0078,0.006 0.04968,0.0471 0.05406,0.0526 0.105084,0.10656 0.155818,0.16211 0.01413,0.0155 0.0282,0.031 0.0423,0.0466 0.09281,0.10426 0.181674,0.21171 0.268449,0.32102 0.07682,0.10897 0.167622,0.20831 0.242123,0.31916 0.06734,0.10141 0.14673,0.19492 0.217969,0.29354 0.08426,0.11834 0.17838,0.22963 0.260681,0.34947 0.08304,0.11396 0.168934,0.22575 0.257691,0.33535 0.08051,0.10645 0.16596,0.20939 0.251941,0.31141 0.08705,0.10193 0.174094,0.20394 0.265764,0.30174 0.09453,0.10016 0.193617,0.19581 0.28948,0.29464 0.09132,0.0867 0.185262,0.17062 0.284274,0.24852 0.09077,0.0728 0.182428,0.14469 0.278339,0.21064 0.112927,0.0712 0.225338,0.14309 0.344117,0.20447 0.10473,0.0564 0.212267,0.10772 0.324678,0.14696 0.120126,0.0468 0.242285,0.0888 0.367268,0.12069 0.128069,0.0354 0.257533,0.0662 0.387586,0.0934 0.161279,0.0276 0.322545,0.0543 0.484685,0.0766 0.156273,0.0243 0.313494,0.0409 0.470077,0.0632 0.152035,0.0211 0.30502,0.0332 0.457298,0.0527 0.138443,0.0176 0.276458,0.0381 0.415999,0.0453 0.133652,0.012 0.2672,0.0252 0.400632,0.0394 0.162931,0.007 0.325808,0.0146 0.488603,0.0241 0.125601,0.007 0.25077,0.01 0.376571,0.003 0.14491,-0.003 0.289814,-0.007 0.43465,-0.0132 0.134212,-0.006 0.268393,-0.0122 0.402439,-0.0209 0.109969,-0.008 0.219938,-0.0159 0.32938,-0.0293 0.07426,-0.01 0.148296,-0.0206 0.221483,-0.0366 0.08975,-0.0198 0.176479,-0.0509 0.266102,-0.0711 0.02672,-0.006 0.03333,-0.007 0.06036,-0.0177 0.07979,-0.037 0.121886,-0.0557 0.129183,-0.0571 -0.03019,0.0221 0.164931,-0.12496 0.08463,-0.054 -0.004,0.004 0.0087,-0.006 0.0131,-0.009 -0.02762,0.0269 0.138536,-0.11882 0.105775,-0.0839 0.07353,-0.0718 0.144888,-0.14578 0.214902,-0.22095 0.07634,-0.0713 0.138854,-0.15767 0.209468,-0.23443 0.08168,-0.0977 0.162648,-0.19601 0.240223,-0.29702 0.08422,-0.11073 0.16591,-0.22327 0.24428,-0.33824 0.06996,-0.0951 0.132135,-0.19556 0.193344,-0.29644 0.06882,-0.11536 0.137197,-0.23101 0.202726,-0.34828 0.05917,-0.11003 0.117248,-0.22054 0.172353,-0.3327 0.06376,-0.13996 0.129722,-0.27895 0.190949,-0.42006 0.06429,-0.14346 0.122272,-0.2897 0.185434,-0.43366 0.06893,-0.16186 0.137363,-0.32392 0.205986,-0.48592 0.06385,-0.14812 0.122253,-0.29849 0.185893,-0.4467 0.06598,-0.17328 0.132943,-0.34618 0.198361,-0.51966 0.05892,-0.15619 0.110419,-0.315 0.166899,-0.47208 0.05082,-0.15605 0.09992,-0.31256 0.141986,-0.47125 0.04055,-0.13937 0.06988,-0.2815 0.102725,-0.4228 0.033,-0.16418 0.07083,-0.32735 0.09866,-0.49253 0.02818,-0.15152 0.0463,-0.30486 0.07506,-0.45633 0.02019,-0.15667 0.04393,-0.31288 0.05503,-0.47057 0.01408,-0.14714 0.02577,-0.29412 0.02917,-0.44201 0.0062,-0.12818 0.01543,-0.25625 0.0073,-0.38458 -0.003,-0.10045 -0.0078,-0.20168 -0.01035,-0.30171 -0.01939,-0.12592 -0.04002,-0.25176 -0.06864,-0.37597 -0.03088,-0.13199 -0.06259,-0.26381 -0.0945,-0.39554 -0.03628,-0.12807 -0.08068,-0.25362 -0.127809,-0.37808 -0.0371,-0.10701 -0.08222,-0.21092 -0.126567,-0.31507 -0.05847,-0.12494 -0.115144,-0.25064 -0.175937,-0.37446 -0.05872,-0.11437 -0.118872,-0.22802 -0.180261,-0.34097 -0.06594,-0.11352 -0.131429,-0.22723 -0.203266,-0.33717 -0.06964,-0.10845 -0.13771,-0.21791 -0.211735,-0.32345 -0.08631,-0.11778 -0.169955,-0.23752 -0.259974,-0.35253 -0.08461,-0.1097 -0.177075,-0.21318 -0.267933,-0.31766 -0.108263,-0.12062 -0.220195,-0.23782 -0.332166,-0.35499 -0.108858,-0.11392 -0.218422,-0.22718 -0.332875,-0.33551 -0.129908,-0.12481 -0.257733,-0.2517 -0.389046,-0.37506 -0.111824,-0.11242 -0.231656,-0.21687 -0.345078,-0.32769 -0.116017,-0.11041 -0.23088,-0.22194 -0.347892,-0.3313 -0.09743,-0.0941 -0.197689,-0.18528 -0.296926,-0.27747 -0.07913,-0.0744 -0.164979,-0.14079 -0.247309,-0.21144 -0.08898,-0.0704 -0.177879,-0.14089 -0.271621,-0.20498 -0.08067,-0.0641 -0.173202,-0.11284 -0.259927,-0.16784 -0.0958,-0.0594 -0.194617,-0.11397 -0.294616,-0.16586 -0.09878,-0.0534 -0.198255,-0.10524 -0.300506,-0.15174 -0.1163,-0.0543 -0.232577,-0.10926 -0.34717,-0.1669 -0.116885,-0.0524 -0.232953,-0.10671 -0.350708,-0.15718 -0.09805,-0.044 -0.19708,-0.0858 -0.297225,-0.1248 -0.07682,-0.0312 -0.154313,-0.0612 -0.233611,-0.0854 -0.08391,-0.0259 -0.168397,-0.0492 -0.253093,-0.0726 -0.128577,-0.0281 -0.256344,-0.0601 -0.385606,-0.0847 -0.147061,-0.0289 -0.293039,-0.0632 -0.440664,-0.089 -0.169322,-0.0306 -0.337468,-0.0673 -0.507296,-0.095 -0.183065,-0.0324 -0.364916,-0.0708 -0.547854,-0.10375 -0.186971,-0.0354 -0.372578,-0.0769 -0.55917,-0.11405 -0.188614,-0.0393 -0.375624,-0.0852 -0.563611,-0.12722 -0.188483,-0.043 -0.376962,-0.0859 -0.565298,-0.12952 -0.172079,-0.0424 -0.345038,-0.0809 -0.517041,-0.12359 -0.200165,-0.0446 -0.398507,-0.0962 -0.597685,-0.14483 -0.197427,-0.0492 -0.394626,-0.0992 -0.592066,-0.14839 -0.205661,-0.0532 -0.412549,-0.1017 -0.618242,-0.15477 -0.219786,-0.0574 -0.43874,-0.11815 -0.657344,-0.17987 -0.205229,-0.0602 -0.410794,-0.11911 -0.616423,-0.17786 -0.204589,-0.0602 -0.409496,-0.11939 -0.614477,-0.17828 -0.185745,-0.055 -0.371586,-0.1097 -0.558792,-0.15949 -0.194775,-0.0499 -0.388564,-0.10348 -0.583774,-0.15173 -0.191926,-0.0455 -0.383032,-0.0942 -0.575439,-0.13767 -0.18986,-0.0398 -0.379352,-0.0813 -0.56986,-0.118 -0.205768,-0.0366 -0.410421,-0.0788 -0.61638,-0.11438 -0.167943,-0.0325 -0.336755,-0.0597 -0.50497,-0.0907 -0.180451,-0.0278 -0.359966,-0.0609 -0.540516,-0.0879 -0.15514,-0.0251 -0.309604,-0.054 -0.465659,-0.073 -0.144378,-0.0214 -0.288738,-0.041 -0.433901,-0.0566 -0.126397,-0.0169 -0.252083,-0.0375 -0.379583,-0.0443 -0.111001,-0.0108 -0.228448,-0.0217 -0.335421,-0.0377 -0.141919,-0.007 -0.283835,-0.0142 -0.42543,-0.0262 -0.104691,-0.009 -0.209437,-0.0179 -0.313737,-0.0306 0.110494,-0.002 -0.227782,-0.002 -0.235389,-0.004 -0.103059,-0.002 -0.206112,-0.004 -0.309149,-0.006 -0.101095,-0.003 -0.202182,-0.006 -0.30322,-0.0105 -0.108407,-0.005 -0.216789,-0.0104 -0.325045,-0.018 -0.11611,-0.008 -0.232156,-0.0174 -0.347922,-0.0297 -0.211851,-0.0224 0.108406,-0.002 -0.132352,-0.009 -0.09298,0.001 -0.185969,0.002 -0.278945,0.004 -0.08816,0.002 -0.176306,0.003 -0.264439,0.006 -0.08802,0.003 -0.17604,0.006 -0.26401,0.01 -0.09108,0.004 -0.182138,0.009 -0.273098,0.0157 -0.10772,0.008 -0.215435,0.0158 -0.322933,0.0263 -0.168218,0.016 -0.336147,0.0361 -0.505025,0.0441 -0.144511,0.004 -0.289015,0.009 -0.433459,0.0149 -0.150645,0.007 -0.301279,0.0137 -0.451751,0.0236 -0.185678,0.0123 -0.371411,0.0289 -0.557655,0.0274 -0.141852,2.3e-4 -0.283704,5.3e-4 -0.425556,8e-4 -0.131328,2.6e-4 -0.262656,7.9e-4 -0.393983,0.002 -0.122701,5.3e-4 -0.245402,0.001 -0.3681,0.002 -0.121634,0.001 -0.243267,0.002 -0.364893,0.004 -0.124503,0.002 -0.249004,0.004 -0.373489,0.006 -0.127998,0.003 -0.255992,0.006 -0.383948,0.0104 -0.12636,0.005 -0.252715,0.009 -0.378954,0.0167 -0.119944,0.007 -0.239809,0.0148 -0.359463,0.0257 -0.160789,0.0147 -0.321411,0.0348 -0.483075,0.0364 -0.117458,0.003 -0.234911,0.006 -0.352311,0.0109 -0.112278,0.005 -0.224549,0.01 -0.336689,0.0172 -0.105243,0.007 -0.210435,0.0154 -0.315348,0.0265 -0.09931,0.0109 -0.19849,0.0231 -0.297064,0.0395 -0.132728,0.0229 -0.263872,0.0536 -0.396211,0.0785 -0.09279,0.0153 -0.185285,0.0321 -0.276523,0.0552 -0.11084,0.0268 -0.222408,0.05 -0.33338,0.0761 -0.11306,0.0287 -0.22715,0.0523 -0.340751,0.0786 -0.101688,0.0248 -0.204192,0.0452 -0.306457,0.0673 -0.113444,0.0285 -0.22559,0.062 -0.339657,0.088 -0.08108,0.0186 -0.161061,0.0417 -0.240078,0.0677 -0.10487,0.0336 -0.210866,0.0635 -0.314713,0.10011 -0.100385,0.0356 -0.2019006,0.0682 -0.3007008,0.10806 -0.1033174,0.0404 -0.2074471,0.0786 -0.3105901,0.11941 -0.088027,0.0356 -0.175454,0.0723 -0.2618209,0.11181 -0.063838,0.0263 -0.15206,0.063 -0.1576824,0.066 -0.1512773,0.0702 -0.1617686,0.0748 -0.1009218,0.0419 -0.047216,0.026 -0.2499077,0.13399 -0.1760525,0.0905 -0.076656,0.0427 -0.1528225,0.0864 -0.2303348,0.12745 0.00515,-0.003 0.020825,-0.0125 0.015457,-0.01 -0.070739,0.0375 -0.1338236,0.0877 -0.2043049,0.12576 -0.023273,0.0138 -0.1462182,0.0904 -0.1616805,0.1021 -0.095519,0.0651 -0.099443,0.0667 -0.1859357,0.1372 0.034375,-0.0329 -0.0806,0.0739 -0.069757,0.0573 0.004,-0.006 0.020587,-0.0208 0.015219,-0.0158 -0.01039,0.01 -0.020198,0.0199 -0.030298,0.0298 -0.075092,0.074 -0.023844,0.0192 -0.1130353,0.11722 0.059776,-0.0738 -0.019685,0.0245 -0.024146,0.0288 -0.013346,0.0127 0.021021,-0.0305 0.033662,-0.0439 0.011554,-0.0123 -0.020151,0.027 -0.030378,0.0404 -0.013369,0.0175 -0.018394,0.0515 -0.040411,0.0523 -0.021344,8e-4 0.024791,-0.0348 0.037187,-0.0522 -0.018754,0.0272 -0.1183923,0.16543 -0.02241,0.0274 0.00891,-0.0128 -0.016436,0.0266 -0.024654,0.0398 -0.045424,0.0718 -0.020492,0.0331 -0.075147,0.11584 0.1017844,-0.17439 -0.084022,0.14802 -0.090687,0.15352 -0.044239,0.0696 -0.095596,0.17294 -0.1465472,0.25416 -0.046739,0.0838 -0.1054488,0.18736 -0.1561004,0.28011 -0.057887,0.10642 -0.1153438,0.21311 -0.1685573,0.32201 -0.05147,0.10313 -0.103672,0.20584 -0.1486249,0.31208 -0.042556,0.10041 -0.087707,0.19983 -0.1260589,0.3019 -0.036184,0.0984 -0.068673,0.19814 -0.09968,0.29824 -0.032403,0.0769 -0.037693,0.16398 -0.062657,0.24297 -0.026403,0.10882 -0.037393,0.15191 -0.063602,0.28461 -0.019471,0.0883 -0.032466,0.15519 -0.048208,0.26377 -0.017574,0.098 -0.035575,0.20137 -0.059316,0.29544 -0.021071,0.14693 -0.043942,0.29365 -0.073754,0.43911 -0.022619,0.11448 -0.043492,0.22822 -0.059964,0.34417 -0.020021,0.11571 -0.043218,0.22382 -0.054847,0.33993 -0.014729,0.10215 -0.030473,0.18856 -0.035417,0.29023 -0.01039,0.11232 -0.022212,0.22448 -0.035919,0.33644 -2.493e-4,-0.10147 -0.00691,0.26139 -0.010025,0.26955 -0.00525,0.12059 -0.011181,0.24116 -0.019362,0.36159 -0.00904,0.13412 -0.019209,0.26817 -0.03217,0.40198 -0.012306,0.12611 -0.026507,0.252 -0.040335,0.37795 -0.026574,0.13021 0.00127,0.27114 -0.020066,0.40251 -0.00674,0.12473 -0.013295,0.2495 -0.020852,0.37416 0.00267,0.15938 0.00551,0.31876 0.00964,0.47811 0.00406,0.15134 0.00858,0.30268 0.015372,0.45393 0.00628,0.13558 0.013314,0.27113 0.023926,0.40645 0.011303,0.14144 0.024021,0.28275 0.039299,0.42382 0.016568,0.17246 0.02459,0.34522 0.031918,0.51827 0.00855,0.15703 0.018156,0.314 0.029285,0.47088 0.013367,0.20195 0.021627,0.40398 0.019206,0.60643 0.0013,0.18392 0.00275,0.36785 0.00478,0.55177 0.00214,0.18868 0.00452,0.37737 0.00783,0.56603 0.00336,0.18704 0.00702,0.37407 0.012689,0.56105 0.00533,0.17419 0.011105,0.34839 0.020272,0.52243 0.00821,0.15438 0.016928,0.30877 0.031104,0.46273 0.012327,0.12909 0.025985,0.25811 0.04622,0.38624 0.025077,0.15471 0.058329,0.30778 0.0873,0.46179 0.020595,0.12989 0.045539,0.25899 0.075906,0.38699 0.036097,0.17162 0.067099,0.34426 0.1027904,0.51598 0.024773,0.14531 0.057471,0.2891 0.080616,0.43469 0.023836,0.14085 0.049857,0.28139 0.067952,0.42313 0.018582,0.11763 0.044834,0.23388 0.061665,0.35179 0.00489,0.0313 0.00795,0.0633 0.01601,0.094 -0.014915,-0.0352 0.00212,0.0138 0.01147,0.0301 0.050838,0.10431 0.040704,0.0761 0.00191,0.0244 1.08e-4,5.3e-4 2.157e-4,0.001 3.175e-4,0.001 -0.00773,-0.009 -0.015465,-0.0184 -0.023199,-0.0276 0.00532,0.006 0.010649,0.0129 0.015973,0.0193 0.029421,0.0376 -0.073988,-0.0767 -9.37e-5,0.001 1.411111,1.41111 -0.5845013,3.40672 -1.9956123,1.99561 z"
       inkscape:connector-curvature="0" />
    <path
       style="fill:#ffffff;fill-opacity:1;fill-rule:nonzero;stroke:none;stroke-width:0.26458332"
       id="path5320"
       d="m 16.363838,280.16725 c -0.0031,-0.011 -0.01291,-0.0438 -0.0094,-0.0329 0.06998,0.21692 -0.04134,-0.0899 0.01631,0.0604 -0.103572,-0.16874 0.08219,0.11086 -0.015,-0.0232 0.03749,0.0583 0.0788,0.0958 0.120536,0.1315 0.0035,0.003 0.01432,0.0111 0.01056,0.009 -0.07819,-0.0525 -0.0863,-0.0569 -0.02098,-0.0165 0.06479,0.0368 0.147393,0.0646 0.223453,0.0835 -0.153368,-0.0138 0.09519,10e-4 0.05441,0.004 -0.0086,5.3e-4 -0.03446,0.002 -0.02585,0.002 0.199584,-0.0153 -0.06289,0.0155 0.07108,-0.004 -0.161224,0.0529 0.116576,-0.0436 -0.05398,0.0202 -0.01373,0.005 0.02973,-0.0241 0.04129,-0.0151 0.01112,0.009 -0.02577,0.0115 -0.03865,0.0172 0.14084,-0.08 -0.128607,0.0928 0.05279,-0.0284 -0.104996,0.093 0.03496,-0.0354 0.05847,-0.0616 0.05444,-0.0622 0.07632,-0.12463 0.110236,-0.20223 0.02985,-0.0733 0.03896,-0.14924 0.04678,-0.22731 1.23e-4,-0.116 -0.0013,-0.12314 -0.03654,-0.24364 0.01641,0.0292 0.03253,0.10367 -0.01062,-0.0241 -0.0038,-0.0113 0.02157,0.0424 0.01601,0.0319 -0.0529,-0.10009 -0.01301,-0.0255 -0.02882,-0.0565 -0.04253,-0.0532 -0.07325,-0.11676 -0.123552,-0.16265 -0.07631,-0.0663 -0.168138,-0.11271 -0.262904,-0.14642 -0.106412,-0.0237 -0.08871,-0.0245 -0.149817,-0.0269 -0.145058,0.003 0.02397,-7.9e-4 -0.100211,0.01 -0.02182,0.002 0.0601,-0.0139 0.0083,-0.004 0.05234,-0.0249 -0.02357,0.0132 -0.03019,0.0109 -0.01323,-0.005 0.02527,-0.0122 0.03741,-0.0192 0.0064,-0.004 -0.01379,0.005 -0.02068,0.008 0.04688,-0.0318 0.03794,-0.0286 0.06817,-0.0586 0.0309,-0.0345 -0.01134,0.007 -0.02391,0.0243 0.0068,-0.0635 -0.05743,0.14797 -0.05937,0.15553 -0.02334,0.0985 -0.01607,0.19885 8.99e-4,0.2973 0.02312,0.11966 0.07823,0.22523 0.145951,0.32506 0.05545,0.0686 0.120956,0.13116 0.195493,0.17839 0.06099,0.0301 0.01043,0.0116 -0.02224,0.005 0.02637,0.017 0.132743,0.018 0.05976,0.0209 0.0088,0.014 0.113028,-0.0127 0.09607,-0.006 0.04919,-0.0126 0.06412,-0.0173 0.173743,-0.0934 0.06017,-0.0423 0.104243,-0.0997 0.148103,-0.15756 0.05748,-0.10424 0.01505,0.004 0.06028,-0.13543 0.02409,-0.08 0.02306,-0.14718 0.02057,-0.21509 -2.61e-4,-0.005 -0.0018,-0.0179 -7.93e-4,-0.0136 0.02407,0.10121 -0.02288,-0.0981 -0.02345,-0.10009 -0.03682,-0.10934 -0.110054,-0.21053 -0.17906,-0.29381 0.0056,0.005 0.02225,0.0211 0.01678,0.0157 -0.06838,-0.0672 -0.153672,-0.11684 -0.241447,-0.16071 -0.05839,-0.0303 -0.121242,-0.0415 -0.185947,-0.0512 0.08709,-0.0137 -0.109549,0.005 -0.116733,0.006 0.03041,-0.009 0.08536,-0.0186 -0.05436,0.0136 -0.01414,0.003 0.05448,-0.0201 0.04095,-0.0148 -0.02272,0.009 -0.04562,0.0172 -0.06843,0.0258 -0.07376,0.0278 -0.133098,0.0765 -0.196042,0.12907 -0.06228,0.0544 -0.110758,0.12098 -0.152385,0.19175 -0.04078,0.0669 -0.07178,0.19098 -0.08444,0.23636 2.91e-4,-0.004 0.0012,-0.0148 8.99e-4,-0.0111 -0.01535,0.17174 -0.01347,0.003 -0.006,0.15676 -0.02338,-0.0872 0.03235,0.12748 -0.01084,-0.0286 -0.0041,-0.0148 0.01114,0.0291 0.01211,0.0444 6.88e-4,0.0111 -0.0075,-0.021 -0.0113,-0.0316 0.0054,0.0153 0.01564,0.0296 0.01631,0.0458 10e-5,0.002 -0.03453,-0.0802 -0.03347,-0.0751 0.0029,0.0142 0.03144,0.0445 0.01769,0.0398 -7.68e-4,-2.6e-4 -0.04956,-0.0951 -0.0051,-0.009 0.09281,0.12258 -0.02002,-0.006 0.04222,0.0641 0.04246,0.0477 0.09175,0.0831 0.146583,0.11438 0.105117,0.0523 0.146339,0.0638 0.219839,0.0756 0.01468,0.009 0.111645,8e-4 0.135109,-0.001 -0.09214,0.0386 0.149376,-0.0629 0.05169,-0.0136 0.04455,-0.0116 0.0736,-0.0515 0.127028,-0.081 0.01477,-0.008 -0.06764,0.0562 -0.02298,0.0211 -0.0035,0.004 -0.01431,0.0146 -0.01052,0.0112 0.05969,-0.054 0.101181,-0.12082 0.14004,-0.19095 0.05287,-0.10122 0.07398,-0.21374 0.08217,-0.32665 0.0085,-0.12687 -0.02514,-0.24126 -0.07074,-0.35761 -0.03826,-0.0899 -0.102289,-0.16487 -0.168938,-0.23491 0.0088,-0.0131 -0.148793,-0.10014 -0.123087,-0.0936 -0.09564,-0.0328 -0.09392,-0.039 -0.126114,-0.0458 -0.06613,-0.0171 -0.05512,0.0145 -0.07975,-0.002 -0.0083,-0.006 0.01932,-0.005 0.02898,-0.008 -0.01979,-0.0109 -0.07912,0.0227 -0.07125,0.0167 -0.07052,0.0366 -0.123335,0.0916 -0.173169,0.15217 -0.05789,0.0733 -0.0924,0.17922 -0.116229,0.27263 -0.03495,0.15186 -0.0175,0.29438 0.02548,0.44115 0.02464,0.0945 0.110356,0.21228 0.152144,0.26527 0.0047,0.0166 0.0991,0.0692 0.04163,0.0501 0.0033,0.0107 -0.102396,-0.0168 -0.05971,-0.003 -0.01488,-0.005 -0.148072,0.002 -0.08508,0.002 -0.145713,0.044 0.148648,-0.0463 0.149788,-0.0467 0.19401,-0.0928 0.383831,-0.24011 0.492003,-0.42976 0.04986,-0.0874 0.08974,-0.18015 0.134612,-0.27022 0.179032,-0.54586 0.02082,-1.11098 -0.41468,-1.48412 -0.06529,-0.0442 -0.129166,-0.0917 -0.200235,-0.12575 1.848901,0.75103 0.786793,3.36577 -1.062107,2.61475 v 0 c -0.157685,-0.068 -0.314513,-0.13907 -0.450803,-0.24622 -0.536714,-0.44212 -0.733193,-1.03098 -0.531494,-1.70363 0.04902,-0.10175 0.09191,-0.20669 0.14706,-0.30525 0.156975,-0.28053 0.435689,-0.48098 0.718046,-0.61917 0.236555,-0.0992 0.481029,-0.17149 0.73797,-0.1922 0.237819,-0.0196 0.476753,-0.0257 0.714129,0.005 0.273292,0.0387 0.54571,0.0926 0.801183,0.20102 0.275948,0.11858 0.542932,0.25971 0.76603,0.46446 0.248617,0.23004 0.459075,0.49289 0.584109,0.81124 0.118819,0.34572 0.182219,0.69842 0.118687,1.06403 -0.06136,0.30502 -0.165051,0.59687 -0.349436,0.85097 -0.178235,0.24244 -0.383002,0.46083 -0.640221,0.62167 -0.226217,0.13938 -0.465025,0.25675 -0.72299,0.3252 -0.252375,0.0642 -0.509892,0.10593 -0.771289,0.0971 -0.274071,-0.014 -0.545647,-0.0544 -0.803468,-0.15285 -0.241163,-0.0991 -0.474877,-0.21739 -0.673193,-0.38968 -0.21844,-0.19321 -0.407914,-0.4148 -0.532497,-0.68079 -0.122311,-0.28128 -0.209721,-0.57125 -0.207548,-0.88155 0.0072,-0.29832 0.05831,-0.59124 0.188425,-0.86231 0.120206,-0.24167 0.26943,-0.46583 0.468149,-0.65073 0.178887,-0.16699 0.369711,-0.32139 0.59096,-0.42954 0.196681,-0.0975 0.401338,-0.17716 0.617268,-0.22031 0.234197,-0.0484 0.472314,-0.0724 0.711305,-0.0494 0.259837,0.0315 0.516841,0.0806 0.75491,0.19548 0.218462,0.11121 0.426081,0.24132 0.602163,0.41398 0.145074,0.14844 0.284146,0.30372 0.390673,0.48314 0.09635,0.16583 0.18442,0.33613 0.250763,0.51654 0.05973,0.16854 0.110435,0.34075 0.13813,0.51776 0.03351,0.22157 0.04682,0.44605 0.01568,0.66902 -0.03289,0.23866 -0.09052,0.47465 -0.205988,0.6882 -0.111541,0.20509 -0.24029,0.40041 -0.412759,0.5604 -0.177591,0.15782 -0.366936,0.3008 -0.586425,0.39621 -0.179834,0.0747 -0.362637,0.14308 -0.555644,0.17587 -0.212176,0.033 -0.425906,0.0559 -0.640836,0.0331 -0.236061,-0.0239 -0.467418,-0.0726 -0.686663,-0.16561 -0.236502,-0.10798 -0.456081,-0.2451 -0.639086,-0.43145 -0.201329,-0.19943 -0.371159,-0.4263 -0.475391,-0.69191 -0.07748,-0.20219 -0.135857,-0.41072 -0.156578,-0.62698 -0.01857,-0.24993 -0.01922,-0.50103 0.04439,-0.74581 0.06445,-0.22702 0.140289,-0.44999 0.264255,-0.65281 0.134278,-0.21781 0.292939,-0.41858 0.493558,-0.57966 0.215023,-0.1622 0.44306,-0.30101 0.699949,-0.38732 0.234473,-0.0773 0.475386,-0.13322 0.723241,-0.14121 0.243032,-0.006 0.486165,0.007 0.72303,0.066 0.208332,0.0547 0.414795,0.11928 0.60758,0.21697 0.256594,0.13599 0.498373,0.29867 0.685198,0.52492 0.196976,0.24181 0.353214,0.50927 0.429613,0.81426 0.06185,0.28751 0.09124,0.57946 0.03534,0.87147 -0.05619,0.26765 -0.134703,0.52994 -0.279162,0.76514 -0.12738,0.21103 -0.27059,0.41243 -0.450817,0.58241 -0.156587,0.14803 -0.320229,0.28903 -0.503118,0.40417 -0.20016,0.12581 -0.409221,0.23835 -0.635672,0.30985 -0.228819,0.0716 -0.462758,0.12856 -0.703942,0.13375 -0.236324,7.9e-4 -0.473505,-0.009 -0.70189,-0.0781 -0.265204,-0.0795 -0.519122,-0.19143 -0.735577,-0.36779 -0.183029,-0.15201 -0.358853,-0.31451 -0.487613,-0.51724 -0.0989,-0.15776 -0.186281,-0.32248 -0.24843,-0.4985 -0.07786,-0.23709 -0.136371,-0.47789 -0.137102,-0.72932 0.0015,-0.23626 0.03017,-0.47117 0.107738,-0.69541 0.09021,-0.22454 0.190664,-0.44266 0.346569,-0.63083 0.130682,-0.15687 0.270521,-0.30616 0.437377,-0.42568 0.163277,-0.11812 0.332945,-0.22594 0.516881,-0.30961 0.150435,-0.0668 0.304143,-0.12747 0.463891,-0.16837 0.184032,-0.048 0.371447,-0.0844 0.562059,-0.0917 0.177389,-0.007 0.354992,-8e-4 0.530067,0.0306 0.231374,0.0405 0.458957,0.10399 0.664539,0.22105 0.130282,0.0738 0.256653,0.15344 0.375662,0.24452 0.168384,0.13519 0.328196,0.28112 0.45415,0.45817 0.09104,0.12637 0.177163,0.25677 0.243852,0.39798 0.07637,0.15324 0.144646,0.31117 0.191042,0.47637 0.548237,1.91883 -2.165398,2.69415 -2.713635,0.77533 z"
       inkscape:connector-curvature="0" />
    <path
       style="fill:#ffffff;fill-opacity:1;fill-rule:nonzero;stroke:none;stroke-width:0.26458332"
       id="path5322"
       d="m 31.780292,278.43872 c 0.21809,-0.14781 -0.0053,0.004 -0.07393,0.0699 -0.21807,0.24021 -0.359273,0.55164 -0.344093,0.88334 0.0036,0.079 0.01746,0.15716 0.02619,0.23575 0.06892,0.31132 0.236543,0.55548 0.424027,0.70875 -0.05663,0.009 0.276206,0.13189 0.202417,0.11905 -0.0904,-0.0139 0.0031,-10e-4 -0.122778,-0.007 -0.03841,0.006 -0.115953,0.005 -0.166819,0.0178 -0.07494,0.007 -0.126609,0.027 -0.167736,0.0416 -0.01783,-0.003 -0.111744,0.0557 -0.09772,0.0508 0.06702,-0.0512 -0.05692,0.0636 0.02344,-0.0106 0.03356,-0.0327 0.01659,-0.0269 0.01214,0.005 -0.01355,0.0471 -0.0249,0.0948 -0.03535,0.14266 -0.01897,0.0806 -0.01635,0.12093 -0.0218,0.21325 0.0027,0.0353 0.0071,0.0396 0.01654,0.0861 -0.02942,-0.0461 0.02732,0.067 0.01789,0.0293 -0.01611,-0.0428 -0.04692,-0.0919 -0.05641,-0.10371 -0.05006,-0.0586 -0.116943,-0.0919 -0.185976,-0.12348 -0.01365,-0.0277 -0.04986,-0.009 -0.06612,-0.0225 -0.0083,-0.007 0.04718,0.005 0.0087,-0.003 0.04326,-0.005 0.0697,-0.009 0.117232,-0.0285 0.04002,-0.0154 0.10164,-0.0441 0.147704,-0.0736 0.04827,-0.0373 0.104661,-0.0669 0.14579,-0.11263 0.02461,-0.0356 0.06457,-0.0703 0.08711,-0.11231 0.06673,-0.12521 -0.03098,0.0824 0.0021,-0.0234 0.0092,-0.0946 -0.01564,0.12694 -0.0137,0.008 1.37e-4,0.0502 -0.01902,-0.0573 -0.0016,0.0461 -0.03342,-0.0648 0.05035,0.10073 -0.01558,-0.0229 -0.0072,-0.0135 0.01241,0.0281 0.01939,0.0417 0.089,0.11153 -0.06224,-0.0382 0.05174,0.0726 0.03491,0.0296 -0.01725,0.005 0.08228,0.0505 0.0209,0.0145 0.09152,0.0274 0.09681,0.0283 0.101661,-0.005 -0.03866,0.0188 0.04903,0.003 -0.07514,0.0364 0.06982,-0.0384 -0.04035,0.027 0.0056,-0.003 0.01614,-0.0149 0.01667,-0.009 0.0013,0.0158 -0.02259,0.0223 -0.033,0.0343 0.02751,-0.0258 0.03557,-0.0371 0.03245,-0.0264 0.04084,-0.0654 0.05624,-0.13378 0.06648,-0.20914 0.0071,-0.0693 -0.0016,-0.13845 -0.0186,-0.20561 0.0049,-0.0256 -0.08113,-0.15991 -0.04619,-0.12353 0.09934,0.0769 -0.06075,-0.0438 0.05847,0.0339 0.05225,0.0351 0.112043,0.0534 0.171019,0.0739 0.10306,0.0351 0.209171,0.0597 0.315534,0.0822 0.07579,0.01 0.151807,0.009 0.2282,0.009 0.05044,-0.001 0.09526,-0.0123 0.137451,-0.0227 0.06266,-0.0323 -0.05149,0.0191 -0.08426,0.0358 -0.157724,0.085 -0.263216,0.23315 -0.349158,0.38463 -0.119631,0.23701 -0.127627,0.4778 -0.07626,0.7318 0.02521,0.11218 0.08055,0.20517 0.145579,0.29737 0.0417,0.0392 -0.06136,-0.0267 -0.07552,-0.0351 -0.06265,-0.0394 -0.132988,-0.0613 -0.202748,-0.0843 -0.110643,-0.0345 -0.223501,-0.0615 -0.336785,-0.0857 -0.0854,-0.0215 -0.170847,-0.0317 -0.25795,-0.038 -0.102569,-0.009 -0.130286,-0.007 -0.178187,-0.004 -0.207338,0.0342 0.09659,-0.0246 0.108945,-0.0277 0.194744,-0.0549 0.337238,-0.1882 0.480092,-0.32414 0.213318,-0.228 0.279979,-0.51526 0.304824,-0.81373 0.0021,-0.0962 -0.01537,-0.19185 -0.04375,-0.28639 0.712703,1.86401 -1.923402,2.87193 -2.636104,1.00792 v 0 c -0.08134,-0.22268 -0.141134,-0.45265 -0.142206,-0.69152 0.0282,-0.42999 0.09795,-0.72953 0.390369,-1.07137 0.23136,-0.22804 0.459108,-0.40941 0.774914,-0.50495 0.201203,-0.0564 0.40394,-0.10354 0.614347,-0.1064 0.181742,-0.009 0.363426,-0.008 0.544785,0.009 0.215355,0.0172 0.429175,0.046 0.640003,0.0941 0.220991,0.0485 0.441024,0.10274 0.655632,0.17498 0.25472,0.0891 0.505304,0.19113 0.736021,0.3328 0.234217,0.14085 0.459994,0.29592 0.651605,0.49266 0.238051,0.25295 0.433361,0.536 0.534644,0.87199 0.103269,0.43023 0.110492,0.85242 -0.07904,1.26377 -0.172702,0.33142 -0.397322,0.62085 -0.72353,0.81555 -0.245763,0.14127 -0.503026,0.25603 -0.781682,0.316 -0.257522,0.0559 -0.518835,0.0921 -0.782995,0.0902 -0.266213,-0.003 -0.532421,-0.0187 -0.793805,-0.073 -0.233908,-0.0511 -0.466487,-0.10961 -0.691825,-0.19145 -0.260935,-0.0974 -0.516819,-0.20951 -0.749027,-0.36528 -0.236189,-0.15613 -0.45846,-0.33108 -0.643459,-0.54704 -0.19866,-0.2337 -0.373285,-0.48654 -0.477753,-0.77758 -0.09533,-0.28743 -0.160004,-0.58371 -0.139779,-0.88897 0.02574,-0.309 0.08501,-0.61128 0.222533,-0.89218 0.119123,-0.23329 0.255995,-0.45786 0.436237,-0.64987 0.17562,-0.18522 0.366789,-0.3541 0.582763,-0.4914 0.212016,-0.12935 0.432983,-0.24495 0.670901,-0.31954 0.262279,-0.0794 0.530403,-0.13607 0.805805,-0.13841 0.288618,0.002 0.575125,0.0352 0.848841,0.13171 0.261784,0.10139 0.512863,0.22395 0.733849,0.39998 0.218612,0.1804 0.41738,0.38128 0.573381,0.61957 0.137932,0.22663 0.258977,0.46342 0.3302,0.72049 0.07117,0.26653 0.11816,0.53808 0.110368,0.81524 -0.0088,0.26801 -0.03828,0.53556 -0.125947,0.7907 -0.08654,0.25979 -0.193926,0.51248 -0.354161,0.73648 -0.149809,0.21378 -0.315243,0.41565 -0.505216,0.59542 -0.201496,0.18074 -0.41601,0.34509 -0.649825,0.48244 -0.245583,0.13847 -0.501158,0.25698 -0.771702,0.33862 -0.271939,0.0754 -0.549341,0.13397 -0.832797,0.1386 -0.314108,0.002 -0.628124,-0.0228 -0.927201,-0.12708 -0.312293,-0.11678 -0.604099,-0.27175 -0.846547,-0.50492 -0.213998,-0.21109 -0.407101,-0.44216 -0.538176,-0.71522 -0.109239,-0.23612 -0.202155,-0.47948 -0.248782,-0.73659 -0.04603,-0.25507 -0.07365,-0.51322 -0.05857,-0.77281 0.01405,-0.22532 0.03415,-0.45075 0.0877,-0.67073 0.05207,-0.2236 0.113532,-0.44552 0.20615,-0.65625 0.109863,-0.24099 0.238334,-0.47333 0.408061,-0.67816 0.182245,-0.20896 0.38299,-0.39915 0.616358,-0.55089 0.208269,-0.12883 0.424095,-0.2463 0.656455,-0.32642 0.228528,-0.0794 0.461282,-0.14473 0.701519,-0.17783 0.241432,-0.0345 0.4846,-0.0559 0.728808,-0.0472 0.223954,0.011 0.448212,0.0292 0.665988,0.0861 0.27229,0.0695 0.538818,0.16328 0.768667,0.32997 0.329084,0.2529 0.590735,0.56367 0.685252,0.98243 0.01238,0.0954 0.03127,0.19018 0.03716,0.28619 0.02609,0.42599 -0.156245,0.82013 -0.427932,1.13485 -0.123703,0.12764 -0.258074,0.24412 -0.409715,0.33773 -1.660451,1.10697 -3.225938,-1.24127 -1.565487,-2.34823 z"
       inkscape:connector-curvature="0" />
    <path
       style="fill:#ffffff;fill-opacity:1;fill-rule:nonzero;stroke:none;stroke-width:0.26458332"
       id="path5324"
       d="m 14.758763,239.28039 c 0.02565,-0.0156 0.254839,-0.17273 0.09459,-0.0614 0.06477,-0.0499 0.130969,-0.0978 0.197083,-0.14587 0.03436,-0.025 0.06874,-0.0499 0.103126,-0.0748 -0.01051,0.01 0.04561,-0.0348 0.03487,-0.0253 -0.195724,0.17392 -0.288075,0.26488 -0.418447,0.48872 -0.430233,0.9056 0.07078,1.70187 0.844996,1.95631 -0.06001,0.005 0.205521,0.0351 0.1606,0.0335 -0.05942,-0.003 -0.118907,-0.004 -0.178376,-0.005 -0.09969,-0.002 -0.199392,-0.003 -0.299094,-0.004 -0.126829,-0.001 -0.253663,-0.002 -0.380495,-0.002 -0.12367,0.0112 -0.248458,0.0177 -0.372649,0.025 -0.133182,0.0178 -0.267802,0.0248 -0.400699,0.0446 -0.146009,0.0205 -0.291846,0.0439 -0.436244,0.0739 -0.167016,0.0315 -0.332373,0.0701 -0.497096,0.11174 -0.185288,0.0434 -0.369171,0.0928 -0.551535,0.14717 -0.199292,0.0588 -0.39763,0.12097 -0.594832,0.18648 -0.207583,0.0647 -0.410082,0.14394 -0.613874,0.21935 -0.205593,0.0763 -0.409105,0.15789 -0.612586,0.23959 -0.181233,0.0737 -0.360472,0.15176 -0.538481,0.23284 -0.148587,0.0667 -0.292598,0.14224 -0.4359396,0.21933 -0.092158,0.0522 -0.1768115,0.11536 -0.262123,0.17763 -0.059813,0.0503 -0.1240795,0.0967 -0.175237,0.15635 -0.044101,0.0437 -0.078224,0.0951 -0.1120931,0.14664 -0.038041,0.0504 -0.069495,0.10341 -0.091471,0.16226 -0.038485,0.10079 -0.079904,0.20048 -0.1128334,0.30331 -0.026408,0.0857 -0.043879,0.17383 -0.060065,0.26197 -0.02005,0.0863 -0.0201,0.16637 -0.023932,0.25528 9.79e-4,0.0886 -0.00546,0.18138 0.00979,0.2691 0.00418,0.0876 0.024061,0.17174 0.043831,0.25659 0.011449,0.0311 0.027639,0.0795 0.050661,0.1176 0.03462,0.0794 0.086609,0.14715 0.1379069,0.21609 0.061649,0.0727 0.1282864,0.14138 0.1980872,0.20634 0.1040617,0.10152 0.2163178,0.19359 0.3298534,0.28413 0.1203931,0.0904 0.2394646,0.18237 0.3662676,0.26368 0.142866,0.0931 0.288353,0.18218 0.438039,0.26389 0.164759,0.0917 0.332172,0.17896 0.502823,0.25919 0.184193,0.0833 0.372097,0.15781 0.55981,0.23265 0.228833,0.088 0.455947,0.18028 0.685203,0.2672 0.254561,0.0955 0.509934,0.18892 0.764637,0.28411 0.275674,0.10455 0.551313,0.20916 0.826541,0.31489 0.28795,0.10816 0.570626,0.22913 0.854058,0.34838 0.283427,0.12133 0.562972,0.25185 0.840438,0.38622 0.265323,0.12187 0.520476,0.26349 0.774982,0.40609 0.242977,0.13729 0.4812,0.28293 0.714377,0.43624 0.218919,0.14655 0.42966,0.30481 0.637853,0.46609 0.211711,0.16598 0.40788,0.34994 0.600024,0.53783 0.174151,0.166 0.337193,0.34269 0.49483,0.52427 0.166961,0.19295 0.315746,0.40008 0.457581,0.61186 0.128378,0.20166 0.245449,0.4105 0.354382,0.62323 0.122446,0.23895 0.207343,0.49363 0.281063,0.751 0.0626,0.22464 0.107462,0.45355 0.145669,0.68342 0.03844,0.26565 0.05033,0.53389 0.04924,0.80198 -0.0065,0.26888 -0.03421,0.53639 -0.07352,0.80226 -0.04568,0.27454 -0.113648,0.54447 -0.192614,0.81111 -0.07524,0.25871 -0.170246,0.51109 -0.273568,0.75972 -0.101896,0.24042 -0.221363,0.47229 -0.34372,0.70272 -0.121149,0.23064 -0.259564,0.45142 -0.402212,0.66919 -0.145408,0.22422 -0.309921,0.43454 -0.481156,0.63935 -0.166435,0.20058 -0.346257,0.38931 -0.531518,0.57243 -0.188476,0.18833 -0.391286,0.36087 -0.599439,0.52685 -0.213323,0.16909 -0.439414,0.32126 -0.667999,0.46873 -0.251847,0.16277 -0.519797,0.29747 -0.791132,0.42409 -0.276342,0.13187 -0.56716,0.22738 -0.858558,0.31925 -0.30437,0.10201 -0.617775,0.16813 -0.934073,0.21959 -0.311214,0.0518 -0.625437,0.0755 -0.940236,0.0904 -0.316271,0.0137 -0.633219,0.009 -0.949481,-0.003 -0.306642,-0.0144 -0.613165,-0.0298 -0.919305,-0.0526 -0.292246,-0.0234 -0.584866,-0.0413 -0.877625,-0.0566 -0.303416,-0.0155 -0.6070313,-0.0265 -0.910684,-0.0361 -0.297303,-0.0136 -0.5948336,-0.008 -0.8922634,-0.004 -0.2973205,0.004 -0.5942705,0.0217 -0.8912537,0.0355 -0.2818207,0.0193 -0.5634432,0.0413 -0.8452768,0.0605 -0.2409417,0.0145 -0.4809564,0.0413 -0.721188,0.0644 -0.2178225,0.0208 -0.4355629,0.0421 -0.6540868,0.0536 -0.145996,0.005 -0.2920989,0.004 -0.4381476,0.003 -0.132385,5.2e-4 -0.8747199,-0.11891 -0.8799446,-0.26373 -0.029675,-0.82253 0.137269,-1.6404 0.2059038,-2.4606 1.7983848,-0.86503 3.021725,1.67827 1.2233402,2.5433 v 0 c 0.046528,-0.80957 0.1849223,-1.61907 0.1395825,-2.4287 -0.00651,-0.11626 -0.5359683,-0.21385 -0.663107,-0.21238 0.095537,8.7e-4 0.1910895,0.002 0.2866213,-1.8e-4 0.1703284,-9e-4 0.339984,-0.035 0.5099471,-0.0435 0.2663907,-0.0256 0.5325708,-0.0547 0.7997576,-0.0708 0.3020457,-0.0205 0.603809,-0.0449 0.9059529,-0.0639 0.3268382,-0.0152 0.6536436,-0.0345 0.9808697,-0.0382 0.3408613,-0.005 0.6818457,-0.0102 1.0225658,0.005 0.3233746,0.0102 0.646708,0.022 0.969828,0.0386 0.313315,0.0165 0.626489,0.0356 0.939264,0.0606 0.272222,0.0204 0.544807,0.0336 0.817467,0.0469 0.236244,0.01 0.47325,0.0126 0.709547,0.004 0.209032,-0.01 0.417656,-0.0224 0.624287,-0.0577 0.180945,-0.0285 0.359886,-0.0636 0.53326,-0.12476 0.17435,-0.055 0.350311,-0.1069 0.515721,-0.18605 0.154802,-0.0719 0.309302,-0.14521 0.4532,-0.23762 0.151489,-0.0976 0.302541,-0.19659 0.444052,-0.30836 0.131094,-0.10278 0.257629,-0.21098 0.375361,-0.32901 0.121621,-0.11779 0.237227,-0.24178 0.345906,-0.37162 0.101336,-0.12042 0.199905,-0.24297 0.285078,-0.37565 0.09517,-0.14433 0.188095,-0.29039 0.268597,-0.44355 0.08227,-0.15492 0.164912,-0.30952 0.233875,-0.47103 0.06665,-0.15576 0.124908,-0.3153 0.172541,-0.47791 0.04323,-0.14094 0.0786,-0.28401 0.106456,-0.4288 0.02192,-0.13002 0.03177,-0.2613 0.04096,-0.39273 0.0012,-0.10951 -0.003,-0.21843 -0.01221,-0.32762 -0.01987,-0.12493 -0.04385,-0.24929 -0.0763,-0.37163 -0.02266,-0.0826 -0.04481,-0.16592 -0.08272,-0.2431 -0.05664,-0.11486 -0.122388,-0.22503 -0.186666,-0.33571 -0.07429,-0.1132 -0.152643,-0.22354 -0.240542,-0.32671 -0.106851,-0.12355 -0.217132,-0.24383 -0.336278,-0.35581 -0.114731,-0.11243 -0.230095,-0.22424 -0.355678,-0.32473 -0.151257,-0.11753 -0.30424,-0.23305 -0.462761,-0.34067 -0.175532,-0.11659 -0.356334,-0.22513 -0.539303,-0.32961 -0.20621,-0.11555 -0.412144,-0.23173 -0.627799,-0.32921 -0.23216,-0.11305 -0.466545,-0.2219 -0.703609,-0.32425 -0.255857,-0.10789 -0.510945,-0.21751 -0.771067,-0.31496 -0.267235,-0.1028 -0.534961,-0.20428 -0.802667,-0.30583 -0.259033,-0.097 -0.518886,-0.19176 -0.77779,-0.28907 -0.24368,-0.0926 -0.485393,-0.1902 -0.728589,-0.28409 -0.244738,-0.0976 -0.489465,-0.19555 -0.7285845,-0.30641 -0.2204143,-0.10579 -0.4387755,-0.21607 -0.6520013,-0.3358 -0.2108729,-0.117 -0.4179657,-0.24066 -0.6195584,-0.3731 -0.1999917,-0.13193 -0.3934447,-0.27288 -0.5824461,-0.42014 -0.179896,-0.14377 -0.3562209,-0.29197 -0.5218506,-0.45218 -0.185683,-0.17981 -0.3658465,-0.36619 -0.5204389,-0.574 -0.1420929,-0.19486 -0.276852,-0.39544 -0.3816929,-0.61332 -0.1179396,-0.24185 -0.2197537,-0.49159 -0.2813048,-0.75441 -0.048402,-0.21039 -0.087868,-0.42265 -0.1048961,-0.63816 -0.017473,-0.21587 -0.028735,-0.43284 -0.018434,-0.64941 0.01,-0.21832 0.025866,-0.43659 0.06981,-0.65116 0.04035,-0.21177 0.087031,-0.42258 0.154594,-0.62759 0.061771,-0.18411 0.1309481,-0.36547 0.2053515,-0.54485 0.093987,-0.21054 0.1997676,-0.41566 0.3334838,-0.6042 0.1302954,-0.19295 0.2715416,-0.37843 0.4350043,-0.54484 0.1665277,-0.16793 0.3421108,-0.32641 0.5329476,-0.46662 0.1894938,-0.1383 0.382778,-0.27166 0.5893364,-0.38366 0.198026,-0.10649 0.3979304,-0.20924 0.6027988,-0.30208 0.2170774,-0.0989 0.43585,-0.19374 0.6568607,-0.28353 0.2278785,-0.0915 0.4559075,-0.18251 0.6861435,-0.26792 0.234401,-0.0864 0.467345,-0.17705 0.705929,-0.25156 0.226251,-0.0745 0.453345,-0.14659 0.681914,-0.21372 0.218279,-0.064 0.437565,-0.12484 0.659105,-0.17661 0.211088,-0.0533 0.423137,-0.10228 0.636986,-0.14332 0.205055,-0.0401 0.410918,-0.0765 0.618091,-0.10393 0.201476,-0.0255 0.403639,-0.0461 0.605928,-0.0641 0.183044,-0.0106 0.365893,-0.0259 0.549254,-0.0297 0.130956,5.8e-4 0.261912,0.001 0.392864,0.002 0.108438,9.5e-4 0.216876,0.002 0.325303,0.004 0.089,0.002 0.178004,0.003 0.266918,0.008 0.142852,0.007 0.285575,0.0204 0.424357,0.0576 0.118029,0.0374 0.565715,0.20957 0.602786,0.31409 0.414021,1.16725 0.628501,1.11952 0.34894,1.72542 -0.124079,0.2154 -0.267696,0.41515 -0.481123,0.55329 -0.0335,0.0243 -0.06701,0.0486 -0.100496,0.0729 -0.03934,0.0286 -0.07862,0.0572 -0.117783,0.0861 -0.08763,0.0646 -0.175839,0.12781 -0.267585,0.18645 -1.66045,1.10697 -3.225937,-1.24126 -1.565487,-2.34823 z"
       inkscape:connector-curvature="0" />
    <path
       style="fill:#ffffff;fill-opacity:1;fill-rule:nonzero;stroke:none;stroke-width:0.26458332"
       id="path5326"
       d="m 27.089806,245.02912 c 0.0054,-0.0534 0.01259,-0.10695 0.01138,-0.16061 0.0027,-0.0929 -0.0063,-0.18155 -0.01508,-0.27315 -0.01344,-0.0948 -0.03385,-0.18816 -0.05352,-0.28184 -0.01659,-0.0723 -0.04335,-0.14095 -0.06935,-0.21005 -0.02323,-0.0434 -0.03937,-0.0916 -0.06937,-0.13153 -0.01847,-0.0276 -0.03798,-0.0551 -0.06164,-0.0784 0.03467,0.0383 0.04986,0.0558 0.0779,0.0756 0.07598,0.0491 0.164597,0.0699 0.252709,0.0821 0.0814,0.0116 0.151074,-0.002 0.235061,-0.0254 -0.03972,0.0201 -0.07897,0.062 -0.122132,0.0993 -0.120187,0.10645 -0.222194,0.23034 -0.318463,0.35826 -0.174921,0.2228 -0.323884,0.46409 -0.465939,0.70867 -0.182696,0.32108 -0.340045,0.65553 -0.4936,0.99124 -0.184649,0.3957 -0.336087,0.80539 -0.484887,1.21554 -0.162471,0.45453 -0.295789,0.91845 -0.423497,1.38368 -0.134497,0.49012 -0.246428,0.98552 -0.342745,1.48441 -0.09466,0.50076 -0.162102,1.006 -0.222291,1.51188 -0.05378,0.47684 -0.07725,0.95565 -0.08538,1.43517 -0.0074,0.42662 0.02683,0.85186 0.0789,1.27485 0.04701,0.37176 0.12303,0.73834 0.224521,1.09879 0.07763,0.28648 0.196144,0.5571 0.333196,0.8193 0.109002,0.19617 0.243807,0.3781 0.399286,0.53981 0.120263,0.12773 0.263816,0.22818 0.420519,0.30579 0.164612,0.082 0.3422,0.12937 0.522844,0.15915 0.225629,0.0321 0.453637,0.0187 0.67963,-6.6e-4 0.287428,-0.0255 0.567794,-0.0967 0.843008,-0.18057 0.321352,-0.10356 0.629409,-0.24218 0.930037,-0.39476 0.34213,-0.17093 0.66145,-0.38168 0.972518,-0.60303 0.329226,-0.2404 0.635381,-0.50908 0.932553,-0.78749 0.310094,-0.29522 0.598713,-0.61186 0.873596,-0.93982 0.268597,-0.32832 0.50908,-0.67792 0.737166,-1.03516 0.226301,-0.34607 0.411546,-0.71551 0.582438,-1.09125 0.161346,-0.35224 0.281953,-0.72001 0.378622,-1.09455 0.08701,-0.34578 0.126997,-0.69907 0.14216,-1.05447 0.01389,-0.31907 -0.0266,-0.63512 -0.09694,-0.94552 -0.07403,-0.30546 -0.198718,-0.59425 -0.344146,-0.87173 -0.153017,-0.28684 -0.347732,-0.54675 -0.56152,-0.7905 -0.225531,-0.26718 -0.49158,-0.49344 -0.761445,-0.71382 -0.266679,-0.21179 -0.549216,-0.40093 -0.837411,-0.58168 -0.251058,-0.15479 -0.513014,-0.29141 -0.776933,-0.42278 -0.173003,-0.0831 -0.351872,-0.15646 -0.536028,-0.21107 -0.04965,-0.0305 -0.122645,-0.0191 -0.13249,-0.0181 0.199269,0.015 0.366681,-0.10427 0.523537,-0.20828 -1.493986,1.32306 -3.365069,-0.78976 -1.871083,-2.11281 v 0 c 0.0985,-0.0734 0.192471,-0.15332 0.295489,-0.22024 0.301919,-0.19613 0.671999,-0.26281 1.024654,-0.28076 0.340546,0.002 0.679165,0.0388 1.004078,0.14717 0.325848,0.10424 0.646412,0.22614 0.952791,0.37922 0.345631,0.17303 0.688486,0.35299 1.016725,0.55751 0.388245,0.244 0.767641,0.50167 1.125554,0.78896 0.394874,0.32447 0.779068,0.66312 1.110321,1.05413 0.356073,0.41718 0.683495,0.85845 0.936085,1.34729 0.252034,0.49893 0.469363,1.0157 0.590852,1.5636 0.115342,0.55111 0.185486,1.11049 0.156871,1.67495 -0.02836,0.55084 -0.09245,1.099 -0.231055,1.63421 -0.140396,0.53045 -0.311661,1.05226 -0.541449,1.55152 -0.227287,0.49622 -0.474847,0.98337 -0.773252,1.44133 -0.295093,0.45946 -0.605947,0.90922 -0.954456,1.33025 -0.34876,0.41302 -0.712745,0.8135 -1.106188,1.18475 -0.391036,0.36445 -0.794488,0.71569 -1.228545,1.02865 -0.427101,0.30118 -0.865656,0.58716 -1.334281,0.82045 -0.450151,0.22526 -0.911257,0.42985 -1.39305,0.57857 -0.466079,0.13695 -0.940022,0.25107 -1.425797,0.28922 -0.47544,0.0359 -0.954215,0.0456 -1.425738,-0.0394 -0.469096,-0.0927 -0.929173,-0.22642 -1.352018,-0.45532 -0.421502,-0.23638 -0.818585,-0.51243 -1.145488,-0.87246 -0.31907,-0.35278 -0.609119,-0.73197 -0.829626,-1.15534 -0.223236,-0.43554 -0.415995,-0.88554 -0.544863,-1.35891 -0.136884,-0.49737 -0.244148,-1.00203 -0.306969,-1.51453 -0.06613,-0.55214 -0.109513,-1.10713 -0.09898,-1.66378 0.01031,-0.5747 0.03952,-1.14867 0.104803,-1.72005 0.06857,-0.57371 0.145873,-1.14662 0.253948,-1.71443 0.110682,-0.56965 0.238232,-1.1356 0.392068,-1.69531 0.147912,-0.53795 0.303503,-1.07404 0.492173,-1.59938 0.175132,-0.4818 0.355008,-0.96236 0.571694,-1.42738 0.192725,-0.42032 0.391662,-0.83835 0.622501,-1.2394 0.204011,-0.34793 0.418496,-0.69044 0.6677,-1.00828 0.221747,-0.28455 0.457543,-0.55871 0.733862,-0.79239 0.253702,-0.212 0.522507,-0.40645 0.829074,-0.53573 0.328691,-0.13265 0.668403,-0.21534 1.025355,-0.19943 0.327766,0.0269 0.649357,0.0911 0.940464,0.25287 0.237498,0.13286 0.46355,0.28608 0.64941,0.48736 0.151429,0.16526 0.289729,0.34174 0.405833,0.5339 0.115171,0.19361 0.218088,0.3941 0.299323,0.60456 0.07617,0.20323 0.144085,0.40964 0.189241,0.62226 0.04113,0.19595 0.07912,0.39259 0.100785,0.59183 0.0172,0.17973 0.0296,0.35975 0.02801,0.54043 -7.94e-4,0.1717 -0.01029,0.34289 -0.03316,0.51316 -0.247526,1.9802 -3.047952,1.63015 -2.800427,-0.35005 z"
       inkscape:connector-curvature="0" />
    <path
       style="fill:#ffffff;fill-opacity:1;fill-rule:nonzero;stroke:none;stroke-width:0.26458332"
       id="path5328"
       d="m 38.412449,259.52975 c -0.03674,-0.13974 -0.06806,-0.28096 -0.09805,-0.42231 -0.03672,-0.19678 -0.07308,-0.39361 -0.103619,-0.59146 -0.03711,-0.25419 -0.0734,-0.50836 -0.102375,-0.76363 -0.04139,-0.30147 -0.06886,-0.60451 -0.101561,-0.90696 -0.03713,-0.36035 -0.07408,-0.72073 -0.109857,-1.08122 -0.03938,-0.40374 -0.08118,-0.80717 -0.115417,-1.21139 -0.04307,-0.42373 -0.07505,-0.84844 -0.112157,-1.27269 -0.04234,-0.45344 -0.07597,-0.90759 -0.105037,-1.36205 -0.02734,-0.45101 -0.04667,-0.90241 -0.0738,-1.35343 -0.03346,-0.46204 -0.0443,-0.92513 -0.05338,-1.38815 -0.0068,-0.44067 -0.01595,-0.88135 -0.01421,-1.32209 0.0049,-0.40668 0.01339,-0.8133 0.02043,-1.21994 0.01135,-0.36962 0.02956,-0.73898 0.04522,-1.10843 0.01762,-0.30785 0.0423,-0.61522 0.06345,-0.92284 0.01714,-0.24297 0.02809,-0.48632 0.04854,-0.72903 0.01987,-0.20073 0.04309,-0.4011 0.07521,-0.60023 0.05042,-0.32423 0.160573,-0.55811 0.335119,-0.83762 0.348276,-0.44453 0.85117,-0.64981 1.411774,-0.59551 0.268729,0.026 0.399214,0.12245 0.641165,0.24314 0.229896,0.15197 0.412983,0.35648 0.58448,0.56924 0.163812,0.20353 0.308782,0.42094 0.447173,0.64223 0.16479,0.27118 0.31638,0.55005 0.468759,0.8283 0.181089,0.33479 0.354664,0.67363 0.527193,1.0129 0.202017,0.39591 0.392396,0.79744 0.582578,1.19911 0.210542,0.45018 0.419775,0.90096 0.622432,1.35475 0.211778,0.47217 0.423794,0.9442 0.636548,1.41593 0.221131,0.48887 0.436819,0.98014 0.653804,1.47086 0.217358,0.49088 0.430231,0.9837 0.648581,1.47415 0.214268,0.47603 0.423217,0.95443 0.633463,1.43225 0.191111,0.4347 0.386802,0.86736 0.584356,1.29916 0.182015,0.39766 0.36885,0.79306 0.554448,1.18905 0.158676,0.33464 0.317076,0.66937 0.480266,1.00184 0.132361,0.27102 0.263041,0.54291 0.401323,0.81098 0.103481,0.20883 0.214907,0.4135 0.324498,0.61916 0.06631,0.12649 0.131667,0.25436 0.207658,0.37545 0.138846,0.18334 -0.09892,-0.0956 -0.103346,-0.10019 -0.484677,-0.39884 -1.009671,-0.44045 -1.588416,-0.15708 -0.236862,0.11597 -0.321614,0.26082 -0.464687,0.44976 -0.102108,0.16152 -0.137578,0.29125 -0.173808,0.46203 -0.0065,0.0307 0.0021,-0.0627 0.0033,-0.094 0.0024,-0.1706 -0.0068,-0.3415 -0.01159,-0.51212 -0.01265,-0.28682 -0.03538,-0.57297 -0.05615,-0.85927 -0.03214,-0.40004 -0.06873,-0.79969 -0.103013,-1.19955 -0.04415,-0.48326 -0.08987,-0.96639 -0.132432,-1.4498 -0.05252,-0.53882 -0.09738,-1.07834 -0.144635,-1.61764 -0.0515,-0.58047 -0.08936,-1.162 -0.122697,-1.74376 -0.03187,-0.58707 -0.05894,-1.17444 -0.07319,-1.76221 -0.01479,-0.56674 -0.0051,-1.13361 0.0032,-1.70035 0.01151,-0.53441 0.03376,-1.06844 0.06891,-1.60181 0.02935,-0.46227 0.07433,-0.92329 0.11642,-1.38451 0.03943,-0.38637 0.08072,-0.77251 0.132035,-1.15748 0.03632,-0.28777 0.07912,-0.57433 0.133945,-0.85915 0.04363,-0.27036 0.125357,-0.52565 0.240583,-0.77368 0.06607,-0.095 0.117078,-0.20257 0.198221,-0.28511 0.373896,-0.38037 0.762232,-0.56795 1.365112,-0.46923 0.539337,0.0883 0.802524,0.40518 1.032198,0.81449 0.04004,0.0714 0.0585,0.15283 0.08775,0.22925 0.07675,0.25574 0.09822,0.52249 0.117282,0.78742 0.0028,0.0502 0.0056,0.10036 0.0083,0.15054 0.107593,1.99271 -2.710526,2.14487 -2.818116,0.15216 v 0 c -0.0019,-0.0347 -0.0036,-0.0694 -0.0054,-0.10404 -0.0019,-0.0285 -0.03868,-0.33638 0.006,-0.1386 0.184163,0.44093 0.510873,0.80218 1.040363,0.88048 0.585176,0.0865 0.945927,-0.0881 1.301538,-0.45673 0.06823,-0.0707 0.109133,-0.16346 0.163698,-0.24519 0.07277,-0.16899 0.03639,-0.0704 0.08379,-0.2295 0.0029,-0.01 -0.0055,0.0199 -0.008,0.0299 -0.01582,0.0641 -0.02873,0.12886 -0.04237,0.19343 -0.0449,0.23099 -0.07769,0.46364 -0.107481,0.69706 -0.04629,0.34605 -0.08285,0.69321 -0.118891,1.04047 -0.03999,0.4381 -0.08303,0.87597 -0.110942,1.31507 -0.03251,0.48491 -0.0518,0.9705 -0.06301,1.45636 -0.0078,0.5305 -0.01749,1.06111 -0.0037,1.59161 0.01294,0.55637 0.03973,1.11233 0.06937,1.66805 0.03164,0.55339 0.06756,1.10656 0.116544,1.65873 0.04722,0.53897 0.09209,1.07814 0.144545,1.61664 0.04268,0.48552 0.08877,0.97074 0.132982,1.45613 0.0353,0.41214 0.07312,0.82407 0.105931,1.23643 0.02376,0.3279 0.04954,0.65569 0.06243,0.98426 0.0066,0.2365 0.01915,0.47326 0.01021,0.70983 -0.01479,0.34178 -0.05291,0.66423 -0.231909,0.96989 -0.159883,0.21932 -0.253458,0.38888 -0.519468,0.52495 -0.636973,0.32583 -1.193765,0.25158 -1.729488,-0.17351 -0.163036,-0.16301 -0.311809,-0.33467 -0.42499,-0.53689 -0.100523,-0.16745 -0.196672,-0.3377 -0.285252,-0.5118 -0.115869,-0.21744 -0.233405,-0.43401 -0.343099,-0.65467 -0.146193,-0.28445 -0.285946,-0.57212 -0.425823,-0.85972 -0.170423,-0.34758 -0.336238,-0.69733 -0.501994,-1.04714 -0.189248,-0.40384 -0.379799,-0.80706 -0.565361,-1.21262 -0.203232,-0.44426 -0.404554,-0.8894 -0.601171,-1.33663 -0.208592,-0.47408 -0.41589,-0.94873 -0.628494,-1.42103 -0.219334,-0.49267 -0.43326,-0.98768 -0.651539,-1.48082 -0.214114,-0.48437 -0.427,-0.96926 -0.645281,-1.45177 -0.21421,-0.47499 -0.427681,-0.95029 -0.640938,-1.42571 -0.193979,-0.43469 -0.39465,-0.86632 -0.596135,-1.29757 -0.178803,-0.37768 -0.357431,-0.7554 -0.547484,-1.12762 -0.159546,-0.31381 -0.319979,-0.62726 -0.487177,-0.93707 -0.127672,-0.23341 -0.254677,-0.46732 -0.391374,-0.69562 -0.07912,-0.12967 -0.164013,-0.256 -0.25894,-0.37473 -0.107733,-0.1457 0.02848,0.0314 0.09364,0.0459 0.0935,0.0437 0.183173,0.0968 0.2805,0.13113 0.543259,0.19179 1.134835,-0.0454 1.476696,-0.48327 0.08047,-0.13547 0.134876,-0.239 0.179517,-0.38675 0.0043,-0.0143 -0.0118,0.0579 -0.01249,0.043 -0.01614,0.10907 -0.03173,0.24451 -0.0443,0.36444 -0.02199,0.22406 -0.02492,0.44978 -0.04423,0.67409 -0.01947,0.28294 -0.04159,0.5657 -0.05933,0.84876 -0.01466,0.34583 -0.03137,0.6916 -0.0431,1.03755 -0.0068,0.39492 -0.01495,0.78983 -0.02003,1.18478 -0.0024,0.41782 0.008,0.83562 0.01368,1.2534 0.0083,0.42494 0.01757,0.84997 0.04884,1.27399 0.02689,0.44753 0.04644,0.8954 0.07314,1.34294 0.02758,0.43265 0.05973,0.86499 0.100097,1.29665 0.03714,0.42679 0.06974,0.85399 0.112808,1.28027 0.03294,0.39062 0.0738,0.78043 0.11167,1.17059 0.03494,0.35273 0.07117,0.70533 0.107447,1.05793 0.03189,0.29782 0.05949,0.59612 0.100024,0.89298 0.02432,0.2185 0.05645,0.43586 0.08777,0.65344 0.02212,0.1474 0.05064,0.29365 0.07634,0.44044 0.01503,0.0749 0.03491,0.14882 0.04907,0.22392 0.548235,1.91883 -2.165398,2.69416 -2.713635,0.77533 z"
       inkscape:connector-curvature="0" />
    <path
       style="fill:#ffffff;fill-opacity:1;fill-rule:nonzero;stroke:none;stroke-width:0.26458332"
       id="path5334"
       d="m 53.34138,243.72636 c -0.03708,-0.0793 0.06616,0.0923 0.07371,0.10392 0.102918,0.15313 0.206902,0.30555 0.309843,0.45866 0.131546,0.19387 0.260718,0.3893 0.395563,0.5809 0.164433,0.23445 0.323567,0.47253 0.488921,0.70633 0.181623,0.25739 0.357534,0.51872 0.539699,0.77573 0.181721,0.26165 0.368663,0.51945 0.558327,0.77537 0.186592,0.25163 0.375065,0.50174 0.568714,0.74799 0.191817,0.23844 0.382124,0.4781 0.57514,0.71558 0.165672,0.19737 0.339093,0.38804 0.512424,0.57867 0.150958,0.16355 0.304004,0.32533 0.45996,0.48415 0.128209,0.1334 0.258508,0.26485 0.389194,0.39583 0.102103,0.10082 0.205623,0.20008 0.305348,0.30326 0.152243,0.15958 0.265527,0.34408 0.375353,0.53354 0.07674,0.14402 0.111334,0.29229 0.15434,0.44977 0.393255,1.95648 -2.373628,2.51263 -2.766883,0.55615 v 0 c 0.03183,0.10704 0.04635,0.17916 0.09529,0.27016 0.245629,0.39983 -0.04463,-0.0455 0.09016,0.12825 -0.05869,-0.0591 -0.177461,-0.17353 -0.256413,-0.25273 -0.135054,-0.13644 -0.271065,-0.27197 -0.403812,-0.41067 -0.179448,-0.1839 -0.356944,-0.36981 -0.530675,-0.55913 -0.208449,-0.22927 -0.416692,-0.45892 -0.614566,-0.69747 -0.202597,-0.24938 -0.402561,-0.50087 -0.60375,-0.75138 -0.210066,-0.2674 -0.414978,-0.53864 -0.617445,-0.81183 -0.201597,-0.27215 -0.400447,-0.54623 -0.593789,-0.82432 -0.182623,-0.25801 -0.359785,-0.51979 -0.541572,-0.77838 -0.166585,-0.23597 -0.327867,-0.47557 -0.4932,-0.71241 -0.145817,-0.20781 -0.286673,-0.41896 -0.42882,-0.62929 -0.111977,-0.16674 -0.225632,-0.33234 -0.336842,-0.4996 -0.109169,-0.16929 -0.218196,-0.33982 -0.298254,-0.52532 -0.786109,-1.83426 1.807922,-2.94599 2.594033,-1.11173 z"
       inkscape:connector-curvature="0" />
    <path
       style="fill:#ffffff;fill-opacity:1;fill-rule:nonzero;stroke:none;stroke-width:0.26458332"
       id="path5340"
       d="m 61.650059,245.88901 c -0.03215,0.0264 -0.04193,0.0385 -0.12664,0.11819 0.07051,-0.0785 -0.106225,0.12453 -0.140994,0.16487 -0.04877,0.0585 -0.08796,0.11974 -0.130379,0.18125 -0.05051,0.0776 -0.09428,0.15938 -0.14039,0.23964 -0.05108,0.0915 -0.0943,0.18697 -0.138806,0.28176 -0.05643,0.12414 -0.106881,0.25084 -0.158634,0.37697 -0.05968,0.15428 -0.120485,0.30811 -0.181813,0.46176 -0.06608,0.17022 -0.129702,0.34139 -0.196697,0.51126 -0.07685,0.20401 -0.16927,0.40156 -0.259313,0.59993 -0.09024,0.19755 -0.180885,0.39485 -0.275555,0.59034 -0.09201,0.19781 -0.195138,0.39011 -0.294455,0.58426 -0.09442,0.18467 -0.196853,0.36505 -0.294899,0.54778 -0.0808,0.15154 -0.165365,0.30131 -0.240919,0.45558 -0.07632,0.14654 -0.15136,0.29384 -0.222856,0.4428 -0.068,0.12699 -0.124661,0.25915 -0.18383,0.39029 -0.05591,0.11925 -0.105746,0.24113 -0.159163,0.3615 -0.04288,0.0957 -0.0788,0.19427 -0.117996,0.29149 -0.03232,0.0723 -0.06342,0.14574 -0.0924,0.21923 -0.0182,0.0515 -0.0358,0.10315 -0.05338,0.15483 -0.01752,0.052 -0.03471,0.10137 -0.01177,0.0357 -0.0071,0.0286 -0.01408,0.0572 -0.02103,0.0858 -0.0052,0.0212 -0.01029,0.0424 -0.01543,0.0636 -0.01987,0.0851 0.01304,-0.0666 0.01892,-0.10678 0.0013,-0.009 0.0021,-0.0181 0.0031,-0.0271 -5.29e-4,0.007 -7.94e-4,0.0263 -0.0013,0.0451 -7.93e-4,0.0426 -0.0013,0.0852 -0.0019,0.12775 0.0016,0.12236 -0.0062,0.24436 -0.02103,0.36581 -0.01027,0.0689 -0.01815,0.13812 -0.02397,0.20756 -0.0078,0.0984 -0.01212,0.19703 -0.01619,0.29565 -0.01206,0.17313 -0.0307,0.34568 -0.04417,0.51871 -0.01418,0.19781 -0.03802,0.39477 -0.05611,0.59225 -0.01513,0.22085 -0.04143,0.44066 -0.06358,0.66087 -0.02151,0.21352 -0.036,0.42765 -0.04934,0.64181 -0.01349,0.24566 -0.03872,0.49049 -0.05896,0.73565 -0.01759,0.21955 -0.03077,0.43941 -0.04229,0.65934 -0.01146,0.22264 -0.01939,0.44544 -0.02646,0.66826 -0.0071,0.22754 -0.01199,0.45515 -0.01635,0.68276 -0.0043,0.22816 -0.0073,0.45635 -0.01005,0.68453 -0.0024,0.20967 -0.0044,0.41934 -0.0061,0.62901 -0.0013,0.15735 -0.0026,0.3147 -0.0038,0.47204 -5.29e-4,0.0762 -5.29e-4,0.0756 -5.29e-4,-0.002 0.127669,1.99153 -2.688773,2.17208 -2.816439,0.18055 v 0 c -0.0063,-0.1639 -0.006,-0.0969 -0.0052,-0.20089 0.0013,-0.1579 0.0024,-0.31579 0.0038,-0.47368 0.0019,-0.21317 0.0037,-0.42633 0.0062,-0.63949 0.0029,-0.23486 0.006,-0.46972 0.01037,-0.70455 0.0046,-0.23941 0.0098,-0.47882 0.01725,-0.71816 0.0077,-0.24225 0.0164,-0.48449 0.02891,-0.72655 0.01304,-0.24813 0.02801,-0.49617 0.048,-0.74385 0.01873,-0.22633 0.04217,-0.45235 0.05486,-0.67912 0.01564,-0.24995 0.0329,-0.49983 0.05809,-0.74903 0.02141,-0.21192 0.04682,-0.42341 0.06118,-0.63598 0.01704,-0.18478 0.03912,-0.36909 0.05287,-0.55412 0.0109,-0.13886 0.02199,-0.27784 0.03802,-0.41619 0.0059,-0.14085 0.01259,-0.28171 0.02432,-0.42222 0.0097,-0.11 0.02127,-0.21982 0.03719,-0.32912 -0.0076,0.2169 -0.0016,0.0289 -0.0026,-0.0287 5.3e-4,-0.0568 0.0013,-0.11364 0.0024,-0.17044 0.0013,-0.0479 0.0027,-0.0959 0.0056,-0.14377 0.0033,-0.0537 0.0076,-0.10724 0.01458,-0.16055 0.0093,-0.0675 0.02103,-0.13471 0.03786,-0.20077 0.0053,-0.0217 0.01053,-0.0434 0.0158,-0.0651 0.01,-0.0411 0.01995,-0.0821 0.03039,-0.12311 0.02109,-0.0811 0.04479,-0.16154 0.07293,-0.24054 0.0279,-0.082 0.05575,-0.16404 0.08587,-0.24526 0.03973,-0.10267 0.08128,-0.20469 0.126518,-0.30506 0.03576,-0.0925 0.09269,-0.23971 0.143725,-0.35131 0.0564,-0.12702 0.108775,-0.25579 0.168145,-0.38153 0.06952,-0.15213 0.13526,-0.30602 0.213654,-0.45395 0.07664,-0.1578 0.154641,-0.31503 0.236323,-0.47028 0.0905,-0.18077 0.186364,-0.35882 0.282784,-0.53649 0.0894,-0.16585 0.18184,-0.33005 0.268443,-0.4974 0.09028,-0.17603 0.183923,-0.35043 0.267338,-0.52988 0.08457,-0.17366 0.164611,-0.34936 0.244877,-0.52503 0.07101,-0.15625 0.14505,-0.31137 0.205092,-0.47231 0.06867,-0.17207 0.131667,-0.34635 0.199649,-0.51869 0.06499,-0.16261 0.128818,-0.32564 0.192725,-0.48868 0.06968,-0.16868 0.137422,-0.33825 0.214488,-0.50378 0.07794,-0.16558 0.156318,-0.33111 0.24748,-0.48997 0.08601,-0.14864 0.168783,-0.29946 0.26752,-0.4403 0.09969,-0.14113 0.197242,-0.28385 0.311018,-0.41441 0.100904,-0.11702 0.201046,-0.23479 0.310052,-0.3445 0.09409,-0.0902 0.188992,-0.17977 0.288507,-0.26402 1.533073,-1.27756 3.339814,0.89053 1.806744,2.16809 z"
       inkscape:connector-curvature="0" />
  </g>
</svg>
