<?xml version="1.0" encoding="UTF-8" standalone="no"?>
<svg
   xmlns:dc="http://purl.org/dc/elements/1.1/"
   xmlns:cc="http://creativecommons.org/ns#"
   xmlns:rdf="http://www.w3.org/1999/02/22-rdf-syntax-ns#"
   xmlns:svg="http://www.w3.org/2000/svg"
   xmlns="http://www.w3.org/2000/svg"
   xmlns:sodipodi="http://sodipodi.sourceforge.net/DTD/sodipodi-0.dtd"
   xmlns:inkscape="http://www.inkscape.org/namespaces/inkscape"
   inkscape:version="1.0 (1.0+r73+1)"
   sodipodi:docname="valve.svg"
   id="svg8"
   version="1.1"
   viewBox="0 0 64 64"
   height="64mm"
   width="64mm">
  <defs
     id="defs2" />
  <sodipodi:namedview
     inkscape:document-rotation="0"
     inkscape:window-maximized="1"
     inkscape:window-y="27"
     inkscape:window-x="0"
     inkscape:window-height="1016"
     inkscape:window-width="1920"
     inkscape:snap-page="true"
     showgrid="false"
     inkscape:current-layer="layer1"
     inkscape:document-units="mm"
     inkscape:cy="110.27027"
     inkscape:cx="68.750268"
     inkscape:zoom="3"
     inkscape:pageshadow="2"
     inkscape:pageopacity="0.0"
     borderopacity="1.0"
     bordercolor="#666666"
     pagecolor="#ffffff"
     id="base" />
  <metadata
     id="metadata5">
    <rdf:RDF>
      <cc:Work
         rdf:about="">
        <dc:format>image/svg+xml</dc:format>
        <dc:type
           rdf:resource="http://purl.org/dc/dcmitype/StillImage" />
        <dc:title></dc:title>
      </cc:Work>
    </rdf:RDF>
  </metadata>
  <g
     transform="translate(0,-233)"
     id="layer1"
     inkscape:groupmode="layer"
     inkscape:label="Layer 1">
    <rect
       y="233"
       x="0"
       height="64"
       width="64"
       id="rect3713"
       style="fill:#f44336;stroke-width:0.26458332;fill-opacity:1" />
    <path
       d="m 2.7955269,256.38955 c 0.046107,0.0833 0.096006,0.16469 0.138321,0.25001 0.3100604,0.62522 0.5497017,1.28892 0.775091,1.94788 0.3161657,0.92435 0.4476874,1.39076 0.7385508,2.3495 0.603368,2.05519 1.1328331,4.13102 1.7232669,6.18986 0.4394547,1.53237 0.479711,1.63103 0.9459045,3.12248 0.3612406,1.10937 0.7367082,2.21438 1.1412254,3.3088 0.1399334,0.37859 0.2981116,0.7499 0.4362712,1.12889 0.6918962,1.87183 3.3390643,0.89335 2.6471683,-0.97849 v 0 c -0.13874,-0.37212 -0.291773,-0.73807 -0.429632,-1.11074 -0.390414,-1.05537 -0.752599,-2.12105 -1.1014484,-3.1908 -0.4531799,-1.44846 -0.4936062,-1.54829 -0.9216491,-3.0406 -0.5962369,-2.07868 -1.1301296,-4.17476 -1.7406434,-6.24942 -0.5347833,-1.75957 -1.0389555,-3.56079 -1.9324026,-5.17941 -1.0267479,-1.71122 -3.4467717,-0.25917 -2.4200236,1.45204 z"
       id="path2439"
       style="fill:#ffffff;fill-opacity:1;fill-rule:nonzero;stroke:none;stroke-width:0.264583" />
    <path
       d="m 12.023824,274.3276 c 0.385145,-0.97267 0.638322,-1.99096 0.894845,-3.00303 0.64288,-2.75544 1.095706,-5.551 1.564358,-8.34006 0.38965,-2.48689 0.853413,-4.96111 1.279796,-7.44168 0.02077,-0.16154 0.04154,-0.32308 0.06231,-0.48462 0.248634,-1.98006 -2.551598,-2.33169 -2.800233,-0.35162 v 0 c -0.01451,0.11944 -0.02902,0.23888 -0.04354,0.35832 -0.426645,2.48405 -0.891564,4.96159 -1.281541,7.45196 -0.455933,2.71363 -0.895868,5.43361 -1.517155,8.11544 -0.2237995,0.88619 -0.4416617,1.77892 -0.7732997,2.63249 -0.7515129,1.8487 1.8629457,2.9115 2.6144587,1.0628 z"
       id="path2441"
       style="fill:#ffffff;fill-opacity:1;fill-rule:nonzero;stroke:none;stroke-width:0.264583" />
    <path
       d="m 17.188025,274.55704 c 0.468761,-0.89266 0.728155,-1.86802 0.963811,-2.8421 0.295188,-1.3646 0.477121,-2.74987 0.734309,-4.12154 0.221852,-1.18322 0.274794,-1.36832 0.541791,-2.55664 0.105225,-0.4369 0.210181,-0.87386 0.315674,-1.31069 0.213874,-0.88562 0.40673,-1.65423 0.599742,-2.54284 0.219042,-1.00846 0.395393,-2.02454 0.578156,-3.03992 0.149001,-0.68621 0.06678,-0.39532 0.220413,-0.87967 0.575406,-1.91086 -2.126954,-2.72461 -2.702361,-0.81375 v 0 c -0.214684,0.73543 -0.11232,0.33857 -0.29564,1.19348 -0.174878,0.97161 -0.342105,1.94437 -0.551472,2.9094 -0.190579,0.87843 -0.381102,1.63616 -0.592687,2.51282 -0.108861,0.45105 -0.217067,0.90226 -0.3256,1.35338 -0.282024,1.25895 -0.333259,1.43457 -0.56771,2.68633 -0.246274,1.31488 -0.423367,2.64211 -0.699035,3.95154 -0.176674,0.74477 -0.362824,1.49402 -0.713662,2.17976 -0.933689,1.76372 1.560582,3.08416 2.494271,1.32044 z"
       id="path2443"
       style="fill:#ffffff;fill-opacity:1;fill-rule:nonzero;stroke:none;stroke-width:0.264583" />
    <path
       d="m 19.793793,256.10535 c -0.02907,-0.0168 -0.06876,-0.0785 -0.08722,-0.0505 -0.01974,0.03 0.04283,0.0577 0.06285,0.0875 0.04176,0.0622 0.08361,0.12437 0.122449,0.18842 0.211785,0.34928 0.370131,0.71193 0.527119,1.08837 0.490544,1.37616 0.858024,2.79314 1.205508,4.211 0.456802,2.01869 0.799244,4.06081 1.18605,6.09355 0.386016,2.08868 0.942684,4.13918 1.430556,6.20486 0.177542,0.82308 0.09862,0.43825 0.239707,1.1539 0.386858,1.95775 3.155543,1.41065 2.768685,-0.5471 v 0 c -0.154927,-0.78239 -0.06865,-0.36357 -0.261816,-1.25585 -0.478848,-2.02529 -1.02453,-4.03584 -1.404669,-6.08343 -0.396132,-2.08129 -0.7461,-4.17237 -1.2176,-6.23849 -0.384203,-1.56395 -0.789101,-3.12833 -1.348211,-4.64036 -0.403926,-0.94096 -0.84578,-1.91089 -1.665119,-2.56493 -1.663827,-1.10188 -3.222126,1.25113 -1.558298,2.35301 z"
       id="path2445"
       style="fill:#ffffff;fill-opacity:1;fill-rule:nonzero;stroke:none;stroke-width:0.264583" />
    <path
       d="m 18.857915,267.48824 c 0.987428,0.0428 1.97353,-0.0804 2.955495,-0.16857 0.675496,-0.0638 1.351136,-0.11744 2.029623,-0.0929 1.994802,0.0569 2.075229,-2.7642 0.08043,-2.82107 v 0 c -0.789714,-0.0184 -1.576448,0.0207 -2.362467,0.10304 -0.829823,0.0745 -1.662309,0.17898 -2.496571,0.16483 -1.990263,-0.14603 -2.19677,2.66863 -0.206507,2.81465 z"
       id="path2447"
       style="fill:#ffffff;fill-opacity:1;fill-rule:nonzero;stroke:none;stroke-width:0.264583" />
    <path
       d="m 28.522795,256.27872 c 0.173175,1.0426 0.289647,2.09378 0.414139,3.14302 0.03251,0.30173 0.06846,0.60311 0.09755,0.90519 0.06287,0.65297 0.112734,1.29222 0.136113,1.94814 0.0381,1.06915 0.007,2.13759 -0.02151,3.20641 -0.0516,1.53446 -0.107876,3.06876 -0.149162,4.60355 -0.0016,0.0637 -0.01275,0.49117 -0.01614,0.59507 -0.0016,0.0521 -0.0031,0.10421 -0.0062,0.15623 -0.0013,0.0204 0.0019,0.0768 -0.01035,0.0604 -0.0028,-0.004 -5.29e-4,-0.009 -5.29e-4,-0.014 -0.08704,0.31318 -0.122475,0.63539 -0.147045,0.95845 -0.02479,0.48008 -0.02545,0.96108 -0.02463,1.4417 -0.0049,0.22184 0.0093,0.44261 0.04172,0.66195 0.301016,1.97278 3.090947,1.54708 2.789931,-0.4257 v 0 c -0.0027,-0.016 -0.02035,-0.18285 -0.0094,-0.24149 -7.94e-4,-0.41212 -2.12e-4,-0.82449 0.01751,-1.23628 0.01117,-0.1813 0.03061,-0.35949 0.08419,-0.53413 0.09172,-0.44387 0.096,-0.8942 0.102251,-1.34633 0.04127,-1.53514 0.0978,-3.06977 0.14919,-4.60459 0.02196,-0.83355 0.04447,-1.44564 0.04035,-2.28199 -0.0069,-1.39939 -0.101047,-2.79617 -0.271164,-4.18515 -0.09316,-0.78487 -0.18352,-1.57036 -0.291817,-2.35334 -0.04323,-0.31252 -0.106577,-0.75974 -0.177869,-1.07502 -0.02798,-0.12373 -0.06806,-0.24441 -0.102081,-0.36661 -0.696161,-1.87025 -3.341092,-0.88573 -2.644931,0.98452 z"
       id="path2449"
       style="fill:#ffffff;fill-opacity:1;fill-rule:nonzero;stroke:none;stroke-width:0.264583" />
    <path
       d="m 30.821505,274.87694 c 1.066573,-0.0792 2.128965,-0.18714 3.198408,-0.22725 0.586563,-0.0138 1.173623,5.3e-4 1.759117,0.0374 0.397327,0.025 0.277566,0.005 0.529486,0.0631 1.964055,0.35349 2.46397,-2.4241 0.499917,-2.77759 v 0 c -0.140798,-0.0229 -0.280717,-0.0521 -0.422394,-0.0687 -0.819539,-0.0961 -1.651614,-0.073 -2.474444,-0.0743 -1.051343,0.0412 -2.097307,0.13211 -3.144821,0.2257 -1.995237,0.0387 -1.940505,2.86039 0.05473,2.82169 z"
       id="path2451"
       style="fill:#ffffff;fill-opacity:1;fill-rule:nonzero;stroke:none;stroke-width:0.264583" />
    <path
       d="m 35.92227,256.50274 c 0.382677,0.57724 0.647895,1.21746 0.907476,1.85651 0.406495,1.07512 0.777359,2.16495 1.078259,3.27469 0.217238,0.80119 0.253161,1.01093 0.4333,1.82741 0.376819,1.86604 0.691179,3.7438 1.059942,5.61141 0.268446,1.31574 0.603853,2.61629 0.900805,3.92564 0.12005,0.52844 0.248415,1.05511 0.336955,1.58996 0.331875,1.96782 3.114797,1.49848 2.782925,-0.46934 v 0 c -0.100208,-0.58633 -0.232365,-1.16587 -0.367596,-1.74503 -0.291299,-1.28358 -0.619231,-2.55876 -0.884381,-3.84821 -0.373316,-1.88862 -0.689041,-3.78801 -1.073163,-5.67454 -0.07541,-0.33949 -0.145505,-0.6802 -0.226235,-1.01846 -0.368892,-1.54565 -0.86148,-3.05933 -1.429006,-4.54284 -0.403273,-0.97869 -0.818814,-1.98763 -1.529956,-2.78908 -1.415542,-1.40667 -3.404867,0.59521 -1.989325,2.00188 z"
       id="path2453"
       style="fill:#ffffff;fill-opacity:1;fill-rule:nonzero;stroke:none;stroke-width:0.264583" />
    <path
       d="m 44.107965,273.8417 c 0.300733,-1.2063 0.692687,-2.38733 1.090205,-3.56441 0.766339,-2.19398 1.687496,-4.32984 2.456677,-6.52285 0.166098,-0.47356 0.319053,-0.95163 0.478578,-1.42745 0.605674,-1.89148 1.053624,-3.8287 1.402797,-5.78252 0.0297,-0.17241 0.06931,-0.42216 0.110289,-0.60502 0.0059,-0.0264 0.02975,-0.10402 0.02299,-0.0778 -0.0096,0.0372 -0.02104,0.074 -0.03154,0.11095 0.764357,-1.84342 -1.842643,-2.92439 -2.607001,-1.08096 v 0 c -0.134644,0.37567 -0.219705,0.7611 -0.273089,1.15724 -0.323705,1.81828 -0.73963,3.62114 -1.300589,5.38196 -0.150969,0.45139 -0.295521,0.90497 -0.452906,1.35415 -0.776306,2.21561 -1.710338,4.37206 -2.48027,6.58997 -0.430715,1.27735 -0.85585,2.55929 -1.174565,3.87014 -0.421881,1.95051 2.336554,2.54713 2.758435,0.59663 z"
       id="path2455"
       style="fill:#ffffff;fill-opacity:1;fill-rule:nonzero;stroke:none;stroke-width:0.264583" />
    <path
       d="m 51.628664,255.96874 c 0.226296,0.99773 0.187085,2.03596 0.167624,3.0515 -0.07975,1.71995 -0.217138,3.43643 -0.311385,5.15564 -0.02737,0.56183 -0.05733,1.12368 -0.07213,1.68602 -0.0098,0.52961 0.12787,1.19533 0.729734,1.42595 0.469283,0.17981 1.004186,-0.043 1.506278,-0.0645 0.0785,-0.0663 0.156999,-0.13269 0.235495,-0.19903 1.398289,-1.42382 -0.615296,-3.4013 -2.013582,-1.97748 v 0 c 0.06704,-0.0547 0.134075,-0.10934 0.201112,-0.16402 0.491551,-0.0144 1.017559,-0.22456 1.474655,-0.0432 0.343072,0.13612 0.458449,0.57996 0.659025,0.88979 0.03097,0.0478 0.01897,0.1124 0.02635,0.1689 0.0035,0.0269 0.0019,0.10834 0.0016,0.0813 -1.83e-4,-0.0148 5.29e-4,-0.0295 5.29e-4,-0.0443 0.01371,-0.53533 0.04337,-1.07016 0.06885,-1.60501 0.09603,-1.75387 0.238413,-3.50486 0.315164,-5.25974 0.02148,-1.2903 0.05088,-2.60649 -0.27282,-3.86674 -0.540901,-1.92091 -3.257479,-1.15596 -2.716578,0.76495 z"
       id="path2457"
       style="fill:#ffffff;fill-opacity:1;fill-rule:nonzero;stroke:none;stroke-width:0.264583" />
    <path
       d="m 53.002455,267.32904 c 1.167744,0.13898 2.352418,0.0372 3.523327,-0.0178 0.510899,-0.0344 1.020934,-0.0488 1.531834,-0.0184 1.993114,0.0998 2.134261,-2.71888 0.141147,-2.81869 v 0 c -0.602287,-0.0265 -1.203399,-0.0281 -1.805374,0.0179 -0.960321,0.0451 -1.926976,0.11938 -2.887607,0.0599 -1.963618,-0.35591 -2.466948,2.42107 -0.503327,2.77697 z"
       id="path2459"
       style="fill:#ffffff;fill-opacity:1;fill-rule:nonzero;stroke:none;stroke-width:0.264583" />
    <path
       d="m 54.502756,262.06071 c 0.909998,-0.0321 1.821813,-0.0664 2.730611,0.002 0.115129,0.0171 0.230254,0.0342 0.345382,0.0513 1.976676,0.27426 2.364547,-2.52118 0.387871,-2.79544 v 0 c -0.179387,-0.0238 -0.358775,-0.0475 -0.538162,-0.0713 -0.20741,-0.0135 -0.414518,-0.0329 -0.622223,-0.0406 -0.824855,-0.0305 -1.651971,0.0144 -2.476334,0.0375 -1.991868,0.12223 -1.81901,2.93915 0.172855,2.81693 z"
       id="path2461"
       style="fill:#ffffff;fill-opacity:1;fill-rule:nonzero;stroke:none;stroke-width:0.264583" />
    <path
       d="m 54.130797,256.6549 c 0.888963,-0.0346 1.778236,-0.0639 2.667595,-0.0866 0.131813,0.009 0.263623,0.0177 0.395436,0.0265 1.992559,0.11034 2.14861,-2.70756 0.156051,-2.81791 v 0 c -0.207923,-0.01 -0.415845,-0.0199 -0.623768,-0.0299 -0.95517,0.0245 -1.910705,0.0517 -2.865009,0.0986 -1.986478,0.1907 -1.716786,3.00001 0.269695,2.80931 z"
       id="path2463"
       style="fill:#ffffff;fill-opacity:1;fill-rule:nonzero;stroke:none;stroke-width:0.264583" />
  </g>
</svg>
