<?xml version="1.0" encoding="UTF-8" standalone="no"?>
<svg
   xmlns:dc="http://purl.org/dc/elements/1.1/"
   xmlns:cc="http://creativecommons.org/ns#"
   xmlns:rdf="http://www.w3.org/1999/02/22-rdf-syntax-ns#"
   xmlns:svg="http://www.w3.org/2000/svg"
   xmlns="http://www.w3.org/2000/svg"
   xmlns:sodipodi="http://sodipodi.sourceforge.net/DTD/sodipodi-0.dtd"
   xmlns:inkscape="http://www.inkscape.org/namespaces/inkscape"
   inkscape:version="1.0 (1.0+r73+1)"
   sodipodi:docname="wip.svg"
   id="svg8"
   version="1.1"
   viewBox="0 0 64 64"
   height="64mm"
   width="64mm">
  <defs
     id="defs2" />
  <sodipodi:namedview
     inkscape:document-rotation="0"
     inkscape:window-maximized="1"
     inkscape:window-y="27"
     inkscape:window-x="0"
     inkscape:window-height="1016"
     inkscape:window-width="1920"
     inkscape:snap-page="true"
     showgrid="false"
     inkscape:current-layer="layer1"
     inkscape:document-units="mm"
     inkscape:cy="129.30506"
     inkscape:cx="103.96535"
     inkscape:zoom="3"
     inkscape:pageshadow="2"
     inkscape:pageopacity="0.0"
     borderopacity="1.0"
     bordercolor="#666666"
     pagecolor="#ffffff"
     id="base" />
  <metadata
     id="metadata5">
    <rdf:RDF>
      <cc:Work
         rdf:about="">
        <dc:format>image/svg+xml</dc:format>
        <dc:type
           rdf:resource="http://purl.org/dc/dcmitype/StillImage" />
        <dc:title></dc:title>
      </cc:Work>
    </rdf:RDF>
  </metadata>
  <g
     transform="translate(0,-233)"
     id="layer1"
     inkscape:groupmode="layer"
     inkscape:label="Layer 1">
    <rect
       y="233"
       x="0"
       height="64"
       width="64"
       id="rect3713"
       style="fill:#ffc107;stroke-width:0.26458332;fill-opacity:1" />
    <path
       d="m -0.12501807,254.84782 c 0.64323574,-0.0436 1.28802877,-0.0578 1.93247447,-0.0702 1.2052466,-0.0182 2.410653,-0.005 3.6159743,-0.007 1.9677234,-0.0178 3.9333863,-0.11852 5.9003373,-0.17138 2.410362,-0.0411 4.819495,-0.12784 7.229059,-0.19885 2.492453,-0.071 4.986005,-0.0846 7.479296,-0.0935 2.344103,-9e-5 4.688176,-0.0204 7.032274,-0.0139 2.038664,0.0184 4.0758,0.10249 6.114126,0.14025 2.137738,0.0447 4.274839,-0.0156 6.409902,-0.11824 2.234731,-0.13637 4.468897,-0.27437 6.706409,-0.356 2.163043,-0.0698 4.326814,-0.11195 6.49079,-0.13732 2.056993,-0.016 4.114176,-0.0255 6.171142,-0.003 1.051684,0.0204 2.10648,0.0371 3.147187,0.201 1.972934,0.3 2.397196,-2.49015 0.424265,-2.79015 v 0 c -0.186728,-0.0277 -0.372751,-0.0605 -0.560176,-0.083 -0.988425,-0.11832 -1.98705,-0.1215 -2.980545,-0.14992 -2.078252,-0.0225 -4.156715,-0.0134 -6.234993,0.003 -2.1873,0.0257 -4.374391,0.0683 -6.560738,0.13901 -2.2484,0.0823 -4.493533,0.21952 -6.739104,0.35738 -2.07245,0.1 -4.146878,0.15886 -6.22195,0.11546 -2.053132,-0.0379 -4.10505,-0.12333 -6.158547,-0.14072 -2.35008,-0.006 -4.700135,0.0137 -7.05022,0.0139 -2.51762,0.009 -5.035499,0.0229 -7.552269,0.0947 -2.407155,0.071 -4.813881,0.15755 -7.221834,0.19865 -1.9428768,0.0524 -3.8844953,0.15101 -5.8280951,0.17036 -1.2223901,0.002 -2.4448696,-0.0119 -3.6671807,0.007 -0.7425318,0.0145 -1.48629589,0.0283 -2.22656819,0.0914 -1.98029651,0.24677 -1.63131251,3.04733 0.34898392,2.80056 z"
       id="path1079"
       style="fill:#000000;fill-opacity:1;fill-rule:nonzero;stroke:none;stroke-width:0.264583" />
    <path
       d="m -1.3026237,279.84279 c 0.5656761,-0.002 1.12781791,-0.0685 1.6889618,-0.13285 0.59733734,-0.0791 1.1991091,-0.0949 1.8007221,-0.0987 1.085535,0.0106 2.1685407,-0.0708 3.2515044,-0.13269 1.4840492,-0.0815 2.9705167,-0.0966 4.4564059,-0.10831 1.7670005,-0.003 3.5335485,0.0378 5.3005325,0.0413 2.230178,5.3e-4 4.456808,-0.13216 6.681006,-0.28128 2.380974,-0.18861 4.765667,-0.30995 7.152701,-0.38401 2.273625,-0.0579 4.548055,-0.0716 6.822212,-0.0957 2.330879,-0.0201 4.66062,-0.0938 6.98953,-0.18766 2.222875,-0.0957 4.444701,-0.21362 6.666592,-0.32944 2.273829,-0.11846 4.54591,-0.26708 6.819159,-0.39579 2.278872,-0.12999 4.559245,-0.22923 6.840376,-0.30896 1.926357,-0.0661 3.852715,-0.1364 5.780434,-0.12561 1.096116,0.0213 2.191062,0.0858 3.28467,0.16085 0.0696,0.007 0.139203,0.0147 0.208804,0.022 1.985383,0.20181 2.270784,-2.60595 0.285401,-2.80776 v 0 c -0.100433,-0.01 -0.200867,-0.0199 -0.301303,-0.0299 -1.152805,-0.0788 -2.30701,-0.14674 -3.462496,-0.16741 -1.965632,-0.01 -3.929893,0.0588 -5.894125,0.1273 -2.301452,0.0805 -4.602139,0.18058 -6.901312,0.31175 -2.269038,0.12849 -4.536917,0.27675 -6.806531,0.3951 -2.210829,0.11525 -4.42159,0.2326 -6.633395,0.3279 -2.300978,0.0928 -4.602776,0.16572 -6.905704,0.18553 -2.293406,0.0243 -4.587089,0.0381 -6.879955,0.0969 -2.420798,0.0753 -4.839277,0.19785 -7.253949,0.38897 -2.159487,0.14494 -4.321299,0.27498 -6.486609,0.27496 -1.776258,-0.003 -3.55208,-0.0449 -5.3283612,-0.0412 -1.5321502,0.0122 -3.064878,0.0283 -4.5951078,0.11282 -1.0355739,0.0592 -2.0711634,0.13862 -3.1092143,0.12815 -0.7027774,0.005 -1.40568775,0.0264 -2.10355284,0.11699 -0.4598312,0.0528 -0.92021781,0.11105 -1.38379576,0.11451 -1.9955786,0.0116 -1.9791795,2.83377 0.016399,2.82218 z"
       id="path1081"
       style="fill:#000000;fill-opacity:1;fill-rule:nonzero;stroke:none;stroke-width:0.264583" />
    <path
       d="m 1.4485828,258.70404 c 0.4176817,0.7468 0.8133152,1.50538 1.2048387,2.26612 0.7624818,1.45069 1.4087187,2.95665 2.0440584,4.46593 0.6479265,1.53009 1.2828087,3.06548 1.8992638,4.60851 0.3420494,0.87926 0.7260299,1.74175 1.0582381,2.62482 0.1166709,0.33278 0.2351577,0.66513 0.3440972,1.00057 0.3300881,1.07077 0.7108566,0.46047 2.68139,0.2114 0.0118,-0.002 0.123168,-0.37091 0.137107,-0.41627 0.311556,-1.07921 0.778908,-2.09911 1.282523,-3.09966 0.641694,-1.22489 1.435235,-2.36004 2.275746,-3.45489 0.147564,-0.18661 0.184158,-0.23532 0.321633,-0.40185 0.03807,-0.0461 0.08218,-0.0985 0.1234,-0.14411 0.0029,-0.003 0.01204,-0.0121 0.0091,-0.009 -0.01429,0.0151 -0.02876,0.03 -0.04315,0.045 -0.389892,0.12508 -0.761485,0.40751 -1.169677,0.37525 -0.352039,-0.0278 -0.607154,-0.36082 -0.911605,-0.53975 -0.06065,-0.0356 0.07114,0.12147 0.109916,0.18017 0.202158,0.30606 0.230898,0.33736 0.464964,0.66026 0.836941,1.11748 1.747289,2.17691 2.678548,3.21611 0.851642,0.93545 1.733039,1.84336 2.637005,2.72821 0.149511,0.14552 0.300127,0.2899 0.451774,0.43319 0.01612,0.0152 0.137343,0.13031 0.147539,0.13367 0.37047,0.12224 0.749579,0.21655 1.124368,0.32482 0.345493,-0.2262 0.726702,-0.40552 1.036479,-0.6786 0.09847,-0.0868 0.246826,-0.5835 0.290566,-0.7257 0.156766,-0.50965 0.307903,-1.01964 0.472432,-1.52701 0.657806,-1.9258 1.551882,-3.75908 2.398382,-5.60636 0.997116,-2.17006 1.910016,-4.3773 2.776106,-6.60249 0.08294,-0.22094 0.351028,-0.91395 0.429991,-1.19128 0.0399,-0.14011 0.06214,-0.28466 0.09321,-0.427 0.356766,-1.96346 -2.419989,-2.46801 -2.776757,-0.50454 v 0 c 0.168058,0.35384 -0.620097,0.76078 -0.37654,1.09933 -0.845812,2.17396 -1.737655,4.33027 -2.711682,6.45029 -0.892175,1.94695 -1.831406,3.88043 -2.517714,5.91275 -0.16704,0.51669 -0.3269,1.03407 -0.481213,1.55461 -0.01653,0.0558 -0.09593,0.13209 -0.04962,0.16728 0.04349,0.033 0.05807,-0.0925 0.08711,-0.13879 0.324596,-0.19408 0.649192,-0.38816 0.973788,-0.58223 1.421959,0.44221 1.22413,0.51615 0.605689,-0.10902 -0.860324,-0.84168 -1.698817,-1.70565 -2.509662,-2.5952 -0.867677,-0.96711 -1.71565,-1.95316 -2.497277,-2.99188 -0.172634,-0.23647 -0.216721,-0.29046 -0.364695,-0.51279 -0.01314,-0.0197 -0.193807,-0.30558 -0.194854,-0.30634 -0.307299,-0.2242 -0.585114,-0.56986 -0.963159,-0.61204 -0.415801,-0.0464 -0.799417,0.24719 -1.199125,0.37078 -0.258385,0.25817 -0.477648,0.55175 -0.704806,0.83692 -0.947841,1.23722 -1.839286,2.52194 -2.5591679,3.90751 -0.1360866,0.27242 -0.2777133,0.54214 -0.4082592,0.81726 -0.4168963,0.87858 -0.764032,1.78932 -1.0492055,2.71874 -0.01955,0.0637 -0.044863,0.12592 -0.058652,0.19112 -0.00611,0.0289 0.00591,-0.0798 0.035397,-0.0812 2.9158886,-0.13377 2.2073386,-0.81799 2.6254906,0.1768 0.01718,0.0409 -0.06531,-0.196 -0.03924,-0.12708 -0.122753,-0.3764 -0.254607,-0.74986 -0.387058,-1.12292 C 9.9555524,270.77378 9.5686088,269.8929 9.2175406,268.99753 8.5946288,267.43845 7.9532529,265.88702 7.2985793,264.341 6.6350374,262.76511 5.9583999,261.19348 5.1627251,259.67852 4.7698368,258.91536 4.3743387,258.15345 3.9540177,257.40491 3.0353965,255.6333 0.52996078,256.93243 1.4485828,258.70404 Z"
       id="path1083"
       style="fill:#000000;fill-opacity:1;fill-rule:nonzero;stroke:none;stroke-width:0.264583" />
    <path
       d="m 33.890283,257.58957 c 0.14161,1.27126 0.143364,2.55466 0.168624,3.83224 0.05006,2.35302 0.145124,4.70427 0.167466,7.05785 0.0075,0.85798 -0.0088,1.71598 -0.0024,2.57396 0.0029,0.38069 0.01328,0.75069 0.06146,1.12768 0.297338,1.97334 3.088058,1.55284 2.790719,-0.4205 v 0 c -0.06086,-0.0641 -0.01429,-0.0117 -0.02172,-0.24197 -0.005,-0.15569 -0.0071,-0.31147 -0.0082,-0.46724 -0.0066,-0.86628 0.01005,-1.7326 0.0021,-2.59889 -0.02273,-2.36322 -0.11683,-4.72413 -0.167892,-7.08678 -0.02813,-1.41736 -0.02826,-2.84268 -0.208248,-4.25088 -0.335547,-1.9672 -3.117588,-1.49267 -2.782043,0.47453 z"
       id="path1085"
       style="fill:#000000;fill-opacity:1;fill-rule:nonzero;stroke:none;stroke-width:0.264583" />
    <path
       d="m 42.92846,257.38716 c 0.269753,1.01379 0.358606,2.06495 0.453266,3.10617 0.185412,2.41478 0.208864,4.838 0.25133,7.25839 0.03439,1.39391 0.04129,2.78901 0.103547,4.18212 0.0095,0.20042 0.03003,0.2564 0.0039,0.17882 -0.09115,1.99353 2.728122,2.12244 2.819276,0.12891 v 0 c 0.0065,-0.30952 0.0091,-0.1646 -0.0038,-0.4348 -0.06221,-1.36721 -0.06593,-2.73658 -0.101118,-4.10456 -0.04369,-2.48982 -0.06879,-4.98254 -0.26267,-7.46639 -0.114859,-1.24474 -0.228653,-2.5016 -0.57543,-3.70776 -0.607475,-1.90091 -3.295761,-1.04181 -2.688285,0.8591 z"
       id="path1087"
       style="fill:#000000;fill-opacity:1;fill-rule:nonzero;stroke:none;stroke-width:0.264583" />
    <path
       d="m 45.153495,257.79445 c 0.748543,-0.25069 1.532914,-0.35797 2.313347,-0.45216 0.854318,-0.0761 1.720464,-0.13597 2.576282,-0.0398 0.517822,0.0582 0.645383,0.10991 1.14861,0.23958 1.175683,0.35915 2.271529,0.92706 3.320399,1.5598 0.653928,0.41085 1.279093,0.88172 1.710089,1.53062 0.231958,0.39854 0.300471,0.8556 0.319005,1.30937 -0.01569,0.36029 -0.0388,0.47092 -0.334539,0.66054 -0.662151,0.43045 -1.395087,0.75693 -2.142932,1.00848 -0.198299,0.0667 -0.400608,0.12084 -0.600913,0.18126 -1.074063,0.29519 -2.187088,0.42684 -3.300135,0.42058 -0.23268,-10e-4 -0.465145,-0.0144 -0.697717,-0.0216 -1.227005,-0.0482 -2.445374,-0.23879 -3.672932,-0.27545 -0.199893,-0.006 -0.399963,-1.8e-4 -0.599946,-2.6e-4 -1.995598,0.007 -1.985494,2.82935 0.01011,2.8222 v 0 c 1.399096,-0.0128 2.785952,0.22493 4.182957,0.27462 0.280903,0.007 0.56171,0.0218 0.842709,0.022 1.371253,7.9e-4 2.740771,-0.17313 4.061788,-0.54367 0.255857,-0.0794 0.514138,-0.15128 0.767574,-0.23807 0.863992,-0.29585 1.791915,-0.69639 2.555402,-1.20146 0.18143,-0.12003 0.349215,-0.25951 0.523822,-0.38926 0.155829,-0.15744 0.326289,-0.30164 0.467484,-0.47233 0.563253,-0.68091 0.770567,-1.55186 0.754338,-2.41809 -0.01072,-0.15196 -0.01537,-0.30446 -0.03214,-0.45586 -0.09089,-0.82052 -0.349359,-1.61389 -0.797595,-2.30955 -0.103558,-0.14281 -0.200342,-0.29077 -0.310671,-0.42841 -0.618844,-0.77203 -1.424313,-1.36777 -2.252879,-1.89515 -1.292479,-0.77311 -2.643153,-1.46324 -4.096907,-1.88025 -0.27478,-0.0658 -0.546864,-0.14406 -0.824341,-0.19732 -1.292293,-0.24806 -2.618713,-0.18891 -3.920577,-0.0637 -1.001564,0.12456 -2.007513,0.27279 -2.963002,0.61174 -1.867922,0.70238 -0.874602,3.34402 0.993319,2.64164 z"
       id="path1089"
       style="fill:#000000;fill-opacity:1;fill-rule:nonzero;stroke:none;stroke-width:0.264583" />
    <path
       d="m 27.754511,271.69734 c -0.07011,0.0935 -0.150299,0.18014 -0.210339,0.28036 -0.363942,0.60754 -0.402111,1.35859 -0.01011,1.96949 0.0993,0.15476 0.246523,0.27288 0.369787,0.40931 0.192768,0.0996 0.364469,0.262 0.578308,0.29872 0.310581,0.0533 0.651489,0.0784 0.944642,-0.0372 0.653579,-0.25775 0.920107,-0.74593 0.996897,-1.38487 0.05292,-0.44029 -0.115089,-0.67733 -0.286269,-1.05 -0.530267,-0.54156 -0.521697,-0.69407 -1.472578,-0.72874 -0.226613,-0.008 -0.439433,0.11656 -0.650015,0.20068 -0.08756,0.035 -0.197215,0.0685 -0.237392,0.15383 -0.03806,0.0808 0.15322,-0.0919 0.229833,-0.13778 -1.816918,0.8254 -0.649629,3.39491 1.167289,2.56951 v 0 c 0.09179,-0.0528 0.183493,-0.1058 0.275375,-0.15847 0.04407,-0.0253 -0.08341,0.0613 -0.131958,0.0763 -0.157543,0.0486 -0.317905,0.13319 -0.481526,0.11297 -0.769797,-0.0951 -0.732538,-0.1733 -1.109829,-0.62096 -0.0827,-0.2291 -0.172572,-0.38621 -0.115856,-0.64618 0.193993,-0.8892 0.825937,-1.22987 1.70587,-1.04503 0.15849,0.0333 0.278177,0.16591 0.417269,0.24887 0.07123,0.0921 0.158631,0.17374 0.213693,0.27634 0.201343,0.37518 0.165063,0.84689 -0.138599,1.14788 1.368208,-1.45275 -0.686287,-3.38769 -2.054495,-1.93494 z"
       id="path1091"
       style="fill:#000000;fill-opacity:1;fill-rule:nonzero;stroke:none;stroke-width:0.264583" />
    <path
       d="m 39.631871,274.18583 c 0.128103,0.0759 0.246343,0.17169 0.384312,0.22768 0.655852,0.26617 1.362356,0.16402 1.887085,-0.34011 0.440934,-0.42362 0.397873,-0.70424 0.484238,-1.25163 -0.03553,-0.1816 -0.02973,-0.37648 -0.106585,-0.54481 -0.322333,-0.70602 -0.769461,-1.03342 -1.662945,-0.98737 -0.546807,0.0282 -0.902716,0.46091 -1.147935,0.86808 -0.05612,0.0932 -0.08866,0.19864 -0.132998,0.29796 -0.348779,1.16339 0.01836,1.51853 1.911239,1.92742 0.341132,0.0737 0.722005,-0.69047 0.814879,-0.99379 0.0374,-0.12215 0.0496,-0.25064 0.0744,-0.37596 -0.05163,-0.73004 0.03052,-0.38589 -0.23233,-1.03571 -0.971818,-1.743 -3.43679,-0.36865 -2.464972,1.37435 v 0 c -0.142407,-0.43418 -0.104429,-0.20629 -0.103545,-0.68533 0.08073,-0.27967 0.37221,-0.94597 0.726051,-0.84471 1.123712,0.32157 2.293123,0.67628 1.899634,1.66932 -0.500607,0.79341 -1.292677,0.69075 -2.034635,0.21852 -0.174731,-0.11121 -0.242665,-0.34021 -0.321381,-0.53179 -0.04469,-0.10878 -0.02739,-0.23361 -0.0411,-0.35041 0.03414,-0.13801 0.03936,-0.28661 0.102431,-0.41402 0.287444,-0.58073 0.982964,-0.84004 1.563563,-0.54726 0.06731,0.0339 0.122436,0.088 0.183656,0.13196 -1.546871,-1.26081 -3.329938,0.92679 -1.783067,2.18761 z"
       id="path1093"
       style="fill:#000000;fill-opacity:1;fill-rule:nonzero;stroke:none;stroke-width:0.264583" />
    <path
       d="m 51.575439,270.10395 c -0.13231,-0.0159 -0.263681,-0.0461 -0.396933,-0.0476 -0.451948,-0.005 -1.277398,0.23193 -1.458886,0.70358 -0.165016,0.42885 -0.264891,0.91956 -0.166548,1.36841 0.07015,0.32017 0.420995,0.50248 0.631495,0.75372 0.168817,0.0695 0.33106,0.15778 0.506457,0.20838 0.214056,0.0618 0.639376,0.0785 0.847675,0.009 0.760817,-0.25564 1.162828,-0.63528 1.158184,-1.6353 -0.0016,-0.35735 -0.344167,-0.62638 -0.516249,-0.93957 -0.201269,-0.10852 -0.388372,-0.24892 -0.603806,-0.32558 -0.678156,-0.24131 -1.560552,0.0557 -2.01213,0.59596 -0.135414,0.16199 -0.216979,0.36225 -0.325469,0.54338 -0.08437,0.68211 -0.24711,0.95873 0.206684,1.57909 0.462796,0.63267 1.446591,0.92198 2.151462,0.52679 0.271939,-0.15247 0.462429,-0.41827 0.693645,-0.62741 0.216953,-1.58089 0.409213,-0.88323 -0.506214,-2.11114 -1.642522,-1.13339 -3.245387,1.18949 -1.602861,2.32288 v 0 c -0.647261,-1.05092 -0.532398,-0.47015 -0.251794,-1.7581 0.186309,-0.14058 0.347602,-0.32267 0.55893,-0.42173 0.138456,-0.0649 0.303511,-0.07 0.455575,-0.0538 0.56655,0.06 0.989402,0.55662 1.00928,1.11908 0.0064,0.1822 -0.07976,0.3558 -0.119647,0.5337 -0.07093,0.0933 -0.12867,0.19822 -0.212784,0.27978 -0.232912,0.22584 -0.645832,0.29422 -0.938379,0.14854 -0.139425,-0.0694 -0.261133,-0.16985 -0.391699,-0.25477 -0.132705,-0.27771 -0.416195,-0.52587 -0.398114,-0.83312 0.05546,-0.9425 0.371785,-1.23551 1.075857,-1.4528 0.107188,-0.0331 0.34421,-0.0149 0.460301,0.0317 0.103023,0.0414 0.197739,0.10099 0.296608,0.15149 0.161126,0.21904 0.444723,0.38797 0.483381,0.65714 0.05997,0.41754 -0.04815,0.85832 -0.20977,1.24796 -0.109503,0.26399 -0.507963,0.40952 -0.770384,0.45424 -0.128469,0.0219 -0.229151,-0.0121 -0.35179,-0.0389 1.93363,0.4935 2.631553,-2.24106 0.697923,-2.73457 z"
       id="path1095"
       style="fill:#000000;fill-opacity:1;fill-rule:nonzero;stroke:none;stroke-width:0.264583" />
    <path
       d="m -1.063392,239.32856 c -0.7505368,0.67122 -0.03706,-0.2209 2.06136537,1.52608 0.0961712,0.0801 -0.22921828,0.3465 -0.10486292,0.36046 0.14774605,0.0166 0.19260925,-0.22653 0.28891395,-0.3398 0.1706099,-0.19524 0.3413702,-0.39034 0.5118296,-0.58571 0.6206772,-0.71138 1.0151528,-1.1569 1.6333861,-1.90773 0.9466287,-1.14966 1.8448155,-2.3374 2.7608498,-3.51126 1.2276992,-1.57328 -0.9972608,-3.30951 -2.22496,-1.73623 v 0 c -0.8937617,1.14538 -1.7693468,2.30517 -2.6926186,3.4272 -0.61090957,0.74243 -0.98759016,1.16667 -1.60233389,1.87156 -0.18146786,0.20808 -0.36311435,0.416 -0.54467153,0.624 -0.12342438,0.14756 -0.92537428,1.04248 -0.78698298,1.21499 1.54889474,1.93074 1.70322497,1.94934 2.5967538,1.14632 1.4777662,-1.34115 -0.41890256,-3.43102 -1.8966687,-2.08988 z"
       id="path1097"
       style="fill:#000000;fill-opacity:1;fill-rule:nonzero;stroke:none;stroke-width:0.264583" />
    <path
       d="m 1.6487853,250.04035 c 1.3961174,-1.80309 2.72779,-3.65297 4.0446842,-5.51438 0.438741,-0.61796 0.8728963,-1.2392 1.3162232,-1.85388 1.1213645,-1.55479 1.8196544,-2.49699 3.0126803,-4.01149 0.918513,-1.16602 2.028711,-2.51547 2.998744,-3.65073 0.433854,-0.50776 0.878463,-1.00622 1.317695,-1.50933 1.477953,-1.67454 0.776257,-0.87726 2.105715,-2.39129 1.316742,-1.49955 -0.803947,-3.36171 -2.120689,-1.86215 v 0 c -1.328172,1.51258 -0.624626,0.71316 -2.111302,2.39766 -0.451538,0.5175 -0.908579,1.03025 -1.354614,1.5525 -2.6515396,3.10463 -5.1434404,6.34263 -7.468464,9.69884 -0.8192045,1.15815 -1.2478421,1.77647 -2.0623598,2.88537 -0.57387047,0.78128 -1.17183979,1.54372 -1.75375133,2.31883 -0.0838984,0.11176 -0.16533498,0.22534 -0.24800248,0.33801 -1.13281959,1.64292 1.19062128,3.24497 2.32344091,1.60204 z"
       id="path1099"
       style="fill:#000000;fill-opacity:1;fill-rule:nonzero;stroke:none;stroke-width:0.264583" />
    <path
       d="m 8.8973889,252.97846 c 1.1330341,-1.40633 2.2796951,-2.80185 3.4130571,-4.20806 0.43853,-0.55409 0.88071,-1.10532 1.315591,-1.66228 1.216509,-1.55801 1.87749,-2.43856 3.079439,-4.03845 0.927375,-1.23441 2.282268,-3.06862 3.238307,-4.28419 0.524174,-0.66647 1.068371,-1.31695 1.602557,-1.97542 0.491098,-0.57024 0.982197,-1.14047 1.473296,-1.71071 1.301868,-1.51248 -0.837107,-3.3536 -2.138975,-1.84112 v 0 c -0.508817,0.59144 -1.017634,1.18289 -1.52645,1.77433 -0.55122,0.68012 -1.112523,1.35219 -1.653659,2.04036 -0.961581,1.22286 -2.313498,3.05295 -3.248349,4.29743 -1.184875,1.5773 -1.840349,2.45077 -3.03921,3.98638 -0.429702,0.5504 -0.866629,1.09512 -1.299943,1.64269 -1.1705928,1.45248 -2.3609484,2.88946 -3.5205843,4.35046 -1.1515789,1.62983 1.1533444,3.25841 2.3049232,1.62858 z"
       id="path1101"
       style="fill:#000000;fill-opacity:1;fill-rule:nonzero;stroke:none;stroke-width:0.264583" />
    <path
       d="m 18.421314,253.10124 c 1.145338,-1.36056 2.210485,-2.78373 3.27168,-4.21009 3.479873,-4.79016 6.8278,-9.67416 10.247929,-14.50685 2.426644,-3.3758 1.23708,-1.73472 3.566784,-4.92461 1.176973,-1.61158 -1.102153,-3.27607 -2.279126,-1.66448 v 0 c -2.346256,3.21273 -1.148506,1.56027 -3.591353,4.95877 -3.407211,4.81457 -6.742997,9.67988 -10.208712,14.45281 -0.818684,1.10091 -1.108746,1.50797 -1.909746,2.5291 -0.42274,0.53891 -0.875158,1.05438 -1.294805,1.59555 -0.05874,0.0758 -0.112916,0.15494 -0.169374,0.23241 -1.087097,1.67353 1.279626,3.21091 2.366723,1.53739 z"
       id="path1103"
       style="fill:#000000;fill-opacity:1;fill-rule:nonzero;stroke:none;stroke-width:0.264583" />
    <path
       d="m 27.611768,252.98988 c 1.070401,-1.34083 2.209946,-2.62547 3.326085,-3.92816 2.854484,-3.36158 5.568606,-6.83882 8.330835,-10.27583 1.445445,-1.76366 2.866025,-3.54658 4.266017,-5.34638 1.225132,-1.57528 -1.002657,-3.30788 -2.227789,-1.73259 v 0 c -1.390454,1.78818 -2.802384,3.55879 -4.238074,5.31103 -2.743677,3.41396 -5.439553,6.8679 -8.274154,10.20753 -1.158216,1.35182 -2.342501,2.6837 -3.447317,4.07993 -1.1911,1.60117 1.073299,3.28564 2.264397,1.68447 z"
       id="path1105"
       style="fill:#000000;fill-opacity:1;fill-rule:nonzero;stroke:none;stroke-width:0.264583" />
    <path
       d="m 36.535801,252.73548 c 0.936522,-1.1378 1.953842,-2.20787 2.944911,-3.29803 2.660822,-2.91417 5.20143,-5.93387 7.71439,-8.97541 2.431859,-2.9932 4.834371,-6.01176 7.13264,-9.10914 0.21681,-0.31101 0.433617,-0.62203 0.650428,-0.93305 1.140301,-1.63773 -1.175809,-3.25036 -2.31611,-1.61263 v 0 c -0.200313,0.28807 -0.400624,0.57613 -0.600937,0.8642 -2.268347,3.05839 -4.641694,6.03739 -7.041751,8.99308 -2.48448,3.00732 -4.996129,5.9932 -7.626921,8.87451 -1.048491,1.15332 -2.127147,2.28382 -3.108632,3.49544 -1.202814,1.59239 1.049168,3.29342 2.251982,1.70103 z"
       id="path1107"
       style="fill:#000000;fill-opacity:1;fill-rule:nonzero;stroke:none;stroke-width:0.264583" />
    <path
       d="m 45.228348,252.62838 c 0.654304,-0.79874 1.312534,-1.59412 1.975511,-2.38572 1.997438,-2.35933 3.927751,-4.77375 5.843088,-7.19979 1.865892,-2.40113 3.774286,-4.77444 5.505317,-7.27663 0.264369,-0.38214 0.517854,-0.77171 0.77678,-1.15757 0.545394,-0.84783 1.059519,-1.71764 1.494642,-2.6278 0.13729,-0.28718 0.312989,-0.68695 0.410676,-1.00225 0.03718,-0.12 0.0597,-0.24407 0.08954,-0.36611 0.405736,-1.95393 -2.35754,-2.52773 -2.763276,-0.5738 v 0 c 0.09235,-0.038 0.03487,-0.0187 -0.06728,0.23577 -0.391726,0.97581 -0.955352,1.8731 -1.508357,2.76247 -0.244602,0.36509 -0.483942,0.73377 -0.733806,1.09529 -1.702726,2.46363 -3.583747,4.79778 -5.41935,7.16186 -1.898435,2.40474 -3.811659,4.79801 -5.791626,7.1365 -0.659616,0.78763 -1.314992,1.57864 -1.965465,2.3738 -1.289748,1.52283 0.863857,3.34681 2.153608,1.82398 z"
       id="path1109"
       style="fill:#000000;fill-opacity:1;fill-rule:nonzero;stroke:none;stroke-width:0.264583" />
    <path
       d="m 53.176471,252.48146 c 0.706935,-0.51769 1.311516,-1.15654 1.910609,-1.79146 1.537872,-1.71638 3.013094,-3.48809 4.492673,-5.25465 2.397445,-2.9168 4.770546,-5.85341 7.167189,-8.7709 1.536533,-1.92451 3.184853,-3.76392 4.628145,-5.76136 0.101666,-0.15749 0.203334,-0.31498 0.305001,-0.47247 1.075965,-1.68071 -1.300909,-3.20235 -2.376877,-1.52165 v 0 c -0.07263,0.11477 -0.145259,0.22953 -0.217889,0.3443 -1.402559,1.95309 -3.027741,3.73601 -4.519139,5.61975 -2.390955,2.91058 -4.758632,5.84007 -7.150045,8.75023 -1.444421,1.72464 -2.885077,3.45378 -4.383622,5.13188 -0.454903,0.48412 -0.911111,0.96969 -1.431729,1.38492 -1.655622,1.11418 -0.07994,3.45558 1.575684,2.34141 z"
       id="path1111"
       style="fill:#000000;fill-opacity:1;fill-rule:nonzero;stroke:none;stroke-width:0.264583" />
    <path
       d="m 60.938864,252.48721 c 0.113398,-0.0764 0.230622,-0.14738 0.340191,-0.22917 0.579252,-0.43235 1.095655,-0.95235 1.628079,-1.43823 1.102895,-1.0065 0.878652,-0.79793 2.095439,-1.85732 1.270064,-1.08749 2.587874,-2.11647 3.906801,-3.14332 1.574535,-1.22609 -0.159422,-3.45282 -1.733958,-2.22673 v 0 c -1.35949,1.05884 -2.717742,2.11998 -4.026405,3.24185 -0.399873,0.34839 -0.80278,0.69332 -1.199613,1.04516 -0.790289,0.7007 -1.549794,1.43731 -2.351479,2.12446 -1.755963,0.94819 -0.415018,3.43149 1.340945,2.4833 z"
       id="path1113"
       style="fill:#000000;fill-opacity:1;fill-rule:nonzero;stroke:none;stroke-width:0.264583" />
    <path
       d="m -0.85428787,284.82459 c 0.67136834,-1.01536 1.59121256,-1.83669 2.47589797,-2.66076 1.0349272,-0.94672 2.1108476,-1.84808 3.1128678,-2.83029 1.4235761,-1.39853 -0.5542513,-3.41177 -1.9778273,-2.01324 v 0 c -0.9821408,0.96745 -2.04767007,1.84436 -3.05983936,2.77954 -1.08887044,1.01651 -2.20752974,2.04214 -2.99816484,3.31876 -0.9941848,1.73034 1.4528809,3.13633 2.44706573,1.40599 z"
       id="path1127"
       style="fill:#000000;fill-opacity:1;fill-rule:nonzero;stroke:none;stroke-width:0.264583" />
    <path
       d="m -0.1555548,292.12371 c 0.81135401,-0.92595 1.702828,-1.78345 2.5777763,-2.64962 2.4213621,-2.36986 4.8520045,-4.73021 7.2490591,-7.12472 1.1142584,-1.12318 2.2183214,-2.25637 3.2830104,-3.42672 1.342324,-1.47669 -0.746042,-3.37503 -2.088366,-1.89833 v 0 c -1.0332843,1.13769 -2.1078583,2.23649 -3.189245,3.32842 -2.3939587,2.39165 -4.8219553,4.74867 -7.24008065,7.1158 -0.59759174,0.59172 -1.03042674,1.01472 -1.60882595,1.60708 -0.487546,0.49932 -1.0018939,1.00247 -1.3852564,1.59098 -0.07641,0.1173 -0.1345397,0.24554 -0.2018095,0.36831 -0.7698985,1.84112 1.83383912,2.92992 2.6037377,1.0888 z"
       id="path1129"
       style="fill:#000000;fill-opacity:1;fill-rule:nonzero;stroke:none;stroke-width:0.264583" />
    <path
       d="m -1.9599767,301.00511 c 1.19068498,-1.19704 2.38680288,-2.3879 3.6003988,-3.56188 2.8525573,-2.70332 5.7357335,-5.374 8.5958999,-8.06926 2.807643,-2.65104 5.610401,-5.30708 8.365001,-8.0133 0.821192,-0.81674 1.642076,-1.63379 2.461612,-2.45219 1.41208,-1.41014 -0.582161,-3.40712 -1.994241,-1.99698 v 0 c -0.814095,0.81299 -1.629581,1.62459 -2.445259,2.43599 -2.740536,2.69257 -5.529354,5.33484 -8.3226421,7.97254 -2.8691446,2.70374 -5.761596,5.38259 -8.62270132,8.09485 -1.22222968,1.18257 -2.42718998,2.38182 -3.62649608,3.58746 -1.4161732,1.40603 0.5722547,3.4088 1.9884278,2.00277 z"
       id="path1131"
       style="fill:#000000;fill-opacity:1;fill-rule:nonzero;stroke:none;stroke-width:0.264583" />
    <path
       d="m 7.4084728,300.42179 c 0.7163879,-0.95252 1.6061119,-1.7653 2.4632449,-2.58796 2.3931573,-2.2152 4.8665613,-4.34187 7.3289023,-6.47932 2.845613,-2.43435 5.621336,-4.94832 8.444354,-7.40845 1.882254,-1.61206 3.716779,-3.27819 5.5343,-4.96249 0.523454,-0.49413 0.289179,-0.2615 0.708178,-0.69244 1.385766,-1.43601 -0.645059,-3.39578 -2.030825,-1.95977 v 0 c -0.318336,0.33356 -0.123232,0.13602 -0.595683,0.5822 -1.796407,1.66482 -3.609594,3.31169 -5.470193,4.90487 -2.821512,2.45906 -5.596132,4.97149 -8.440182,7.40483 -2.498119,2.16851 -5.007609,4.32598 -7.4338909,6.5752 -1.022382,0.98275 -2.085957,1.95648 -2.9002992,3.12572 -1.0589678,1.69147 1.3331261,3.18907 2.3920939,1.49761 z"
       id="path1133"
       style="fill:#000000;fill-opacity:1;fill-rule:nonzero;stroke:none;stroke-width:0.264583" />
    <path
       d="m 16.431355,300.68775 c 0.534991,-0.75065 1.227079,-1.37974 1.88367,-2.02139 2.08271,-1.93115 4.228931,-3.79306 6.360628,-5.66976 3.038944,-2.66784 6.086047,-5.32624 9.160672,-7.95291 2.560195,-2.20214 5.194718,-4.31432 7.844792,-6.40651 0.209786,-0.16834 0.419571,-0.33669 0.629357,-0.50504 1.556366,-1.24907 -0.210095,-3.45011 -1.766462,-2.20103 v 0 c -0.203893,0.16366 -0.407789,0.32732 -0.611685,0.49097 -2.678641,2.11476 -5.341278,4.25008 -7.929186,6.47583 -3.085211,2.63582 -6.142972,5.30328 -9.192377,7.98041 -2.168658,1.90924 -4.352767,3.80279 -6.468964,5.77028 -0.83686,0.81893 -1.716826,1.62738 -2.350579,2.62116 -1.002667,1.72543 1.437467,3.14342 2.440134,1.41799 z"
       id="path1135"
       style="fill:#000000;fill-opacity:1;fill-rule:nonzero;stroke:none;stroke-width:0.264583" />
    <path
       d="m 29.386356,298.08915 c 0.619297,-0.6992 1.242396,-1.3947 1.854473,-2.10032 1.531606,-1.77615 3.302918,-3.32192 5.07117,-4.85455 2.823628,-2.41089 5.753495,-4.69184 8.700106,-6.94919 2.75526,-2.08211 5.515806,-4.15683 8.246158,-6.27161 1.5777,-1.22202 -0.150498,-3.45323 -1.728198,-2.23121 v 0 c -2.726369,2.11177 -5.483177,4.18317 -8.234296,6.26248 -2.991787,2.29208 -5.966216,4.60861 -8.832596,7.05722 -1.868694,1.6208 -3.736774,3.25886 -5.354351,5.13768 -0.615212,0.70937 -1.242309,1.40784 -1.864043,2.11141 -1.299727,1.51433 0.841851,3.35242 2.141577,1.83809 z"
       id="path1137"
       style="fill:#000000;fill-opacity:1;fill-rule:nonzero;stroke:none;stroke-width:0.264583" />
    <path
       d="m 41.527409,299.10898 c 0.494657,-0.91348 1.154634,-1.72117 1.807176,-2.52389 1.754367,-2.09745 3.727892,-3.99545 5.697834,-5.88668 2.571205,-2.43128 5.217731,-4.78109 7.861117,-7.13314 2.229014,-2.00419 4.489535,-3.97269 6.845533,-5.82659 0.251682,-0.19003 0.503364,-0.38005 0.755044,-0.57008 1.592289,-1.20294 -0.10894,-3.45478 -1.701229,-2.25183 v 0 c -0.266506,0.20146 -0.533013,0.40292 -0.799523,0.60438 -2.399739,1.88994 -4.705387,3.89279 -6.975864,5.93571 -2.670037,2.37577 -5.343093,4.74945 -7.939719,7.20579 -2.053956,1.97234 -4.109358,3.95398 -5.934906,6.14443 -0.797393,0.98475 -1.601142,1.98196 -2.17719,3.11763 -0.837404,1.81141 1.724324,2.99568 2.561727,1.18427 z"
       id="path1139"
       style="fill:#000000;fill-opacity:1;fill-rule:nonzero;stroke:none;stroke-width:0.264583" />
    <path
       d="m 50.069125,298.93955 c 0.369917,-0.7695 0.828622,-1.49203 1.36824,-2.15383 0.199797,-0.24504 0.41184,-0.47983 0.617757,-0.71975 2.107888,-2.32744 4.423206,-4.45491 6.733347,-6.57756 2.852004,-2.62355 5.870588,-5.05363 8.915018,-7.44763 0.415002,-0.32382 0.830004,-0.64763 1.245005,-0.97144 1.573337,-1.22763 -0.1628,-3.45266 -1.736137,-2.22503 v 0 c -0.417804,0.32601 -0.83561,0.65201 -1.253416,0.97802 -3.101129,2.43877 -6.174994,4.9154 -9.08005,7.58799 -2.393633,2.19971 -4.791882,4.40557 -6.970014,6.82302 -0.240443,0.28283 -0.488836,0.55908 -0.721326,0.84848 -0.669668,0.83359 -1.239874,1.74292 -1.69655,2.7096 -0.811851,1.82301 1.766276,2.97114 2.578126,1.14813 z"
       id="path1141"
       style="fill:#000000;fill-opacity:1;fill-rule:nonzero;stroke:none;stroke-width:0.264583" />
    <path
       d="m 57.623429,298.22702 c 0.733634,-0.90596 1.434303,-1.83559 2.230702,-2.68942 0.295923,-0.31727 0.603361,-0.6236 0.905042,-0.9354 0.372274,-0.35862 0.740182,-0.72181 1.116816,-1.07584 0.82381,-0.77438 1.872951,-1.71349 2.708463,-2.46491 1.321697,-1.18867 2.646982,-2.37331 3.973333,-3.55678 0.327064,-0.29461 0.654129,-0.58922 0.981194,-0.88383 1.482749,-1.33563 -0.406128,-3.43255 -1.888876,-2.09692 v 0 c -0.323763,0.29165 -0.647523,0.5833 -0.971286,0.87494 -1.329769,1.18653 -2.658523,2.37417 -3.983572,3.56597 -0.858268,0.77196 -1.934324,1.73524 -2.778403,2.5301 -0.400624,0.37726 -0.791792,0.76444 -1.187688,1.14667 -0.327771,0.33994 -0.661958,0.6738 -0.98331,1.01981 -0.78785,0.8483 -1.497336,1.75939 -2.211877,2.66849 -1.341472,1.47747 0.74799,3.37459 2.089462,1.89712 z"
       id="path1143"
       style="fill:#000000;fill-opacity:1;fill-rule:nonzero;stroke:none;stroke-width:0.264583" />
  </g>
</svg>
